<svg width="267" height="157" viewBox="0 0 267 157" fill="none" xmlns="http://www.w3.org/2000/svg">
<g clip-path="url(#clip0_171_868)">
<mask id="mask0_171_868" style="mask-type:luminance" maskUnits="userSpaceOnUse" x="0" y="0" width="267" height="157">
<path d="M266.861 0.173828H0.861328V156.174H266.861V0.173828Z" fill="white"/>
</mask>
<g mask="url(#mask0_171_868)">
<path d="M71.2611 42.8742C71.4611 42.6742 71.7611 42.2742 71.7611 41.9742C71.7611 41.6742 71.0611 41.2742 71.0611 41.2742C70.2611 40.5742 69.8611 40.7742 66.3611 42.7742L64.5611 43.4742C63.1611 44.2742 61.8611 45.1742 60.7611 46.1742C60.4611 46.3742 60.2611 46.4742 59.9611 46.6742C58.6611 47.4742 56.3611 49.8742 53.4611 52.8742C49.9611 56.4742 43.4611 63.0742 41.4611 63.4742C40.4611 62.1742 40.2611 60.5742 40.9611 58.5742C44.5611 48.4742 68.3611 35.9742 74.6611 33.3742C80.9611 30.7742 75.1611 33.0742 75.3611 32.9742C76.7611 31.7742 78.3611 31.1742 80.3611 30.6742C80.8611 30.5742 81.3611 30.4742 81.9611 30.2742C84.2611 29.6742 87.1611 29.1742 90.2611 28.6742C96.1611 27.6742 102.261 26.6742 106.261 24.4742C108.161 23.4742 110.061 22.2742 111.861 21.2742C116.461 18.5742 121.161 15.7742 126.561 13.7742C127.561 13.3742 128.761 12.9742 129.861 12.5742C137.161 9.97422 146.361 6.67422 151.761 1.97422L150.061 0.0742188C145.061 4.47422 136.161 7.67422 129.061 10.2742C127.861 10.6742 126.761 11.0742 125.761 11.4742C120.161 13.5742 115.361 16.3742 110.661 19.1742C108.861 20.2742 107.061 21.3742 105.161 22.3742C101.561 24.3742 95.3611 25.3742 89.9611 26.2742C86.7611 26.7742 83.8611 27.2742 81.3611 27.9742C80.8611 28.0742 80.3611 28.1742 79.8611 28.3742C77.9611 28.7742 76.0611 29.2742 74.3611 30.6742C73.3611 30.0742 72.0611 29.7742 70.4611 29.3742C69.1611 29.0742 67.4611 28.6742 65.5611 27.9742C63.8611 27.3742 61.4611 26.8742 59.2611 26.3742C56.2611 25.6742 53.1611 25.0742 51.7611 24.2742C50.4611 23.4742 49.0611 24.7742 45.9611 28.1742C45.5611 28.5742 45.2611 28.9742 45.0611 29.0742C41.4611 32.2742 37.2611 35.4742 32.8611 38.8742C25.8611 44.1742 18.6611 49.6742 13.6611 55.3742C12.2611 56.9742 10.7611 59.5742 9.06113 62.2742C7.26113 65.3742 4.46113 69.9742 3.26113 70.2742C2.26113 70.5742 1.66113 71.0742 1.66113 71.8742C1.66113 72.6742 1.96113 72.9742 2.66113 73.2742C4.56113 83.1742 10.8611 85.8742 17.3611 88.6742C20.6611 90.0742 24.0611 91.5742 27.3611 93.9742C43.5611 105.874 60.5611 111.574 78.5611 117.574C96.5611 123.574 96.7611 123.674 106.161 127.574C109.161 128.874 112.661 129.774 116.061 130.674C122.061 132.274 128.261 133.974 132.261 137.474C140.261 144.474 160.661 148.874 164.661 149.774C168.761 150.574 173.861 152.374 176.361 153.174C176.361 153.174 176.361 153.174 176.561 153.274C177.061 154.174 177.461 154.474 178.161 154.974C178.861 155.474 178.461 155.174 178.761 155.174C180.361 155.174 185.461 152.474 210.461 132.274C221.661 123.174 239.961 107.974 241.261 105.674C242.061 104.274 241.261 102.374 240.261 100.474C239.861 99.5742 239.061 97.9742 239.161 97.5742C239.361 97.0742 239.361 96.6742 239.361 96.4742C239.361 95.7742 238.961 95.2742 238.461 94.8742C237.361 94.2742 236.061 94.5742 234.961 94.8742C234.561 94.8742 233.861 95.1742 233.661 95.1742C226.461 91.0742 217.461 86.7742 214.761 85.5742L213.861 85.1742C207.661 82.2742 201.761 79.5742 195.361 78.0742C196.061 77.3742 197.461 76.2742 199.161 75.1742C202.361 73.0742 204.961 70.4742 207.761 67.6742C211.361 64.0742 215.061 60.2742 219.961 57.8742C223.461 56.0742 226.961 54.1742 230.261 52.2742C234.361 49.9742 238.561 47.5742 242.961 45.5742C246.161 44.0742 249.661 42.7742 252.961 41.5742C257.761 39.7742 262.261 38.0742 266.061 35.9742L264.861 33.7742C261.261 35.7742 256.861 37.4742 252.061 39.2742C248.661 40.5742 245.161 41.8742 241.861 43.3742C237.361 45.3742 233.061 47.8742 228.961 50.1742C225.661 52.0742 222.261 53.9742 218.761 55.6742C213.461 58.2742 209.561 62.1742 205.861 65.9742C203.161 68.6742 200.661 71.2742 197.661 73.1742C195.761 74.3742 193.361 76.1742 192.561 77.4742C190.661 80.8742 187.661 84.2742 184.461 87.8742C180.861 91.9742 177.161 96.2742 174.461 100.974C174.261 101.174 173.561 101.174 173.161 100.974C172.161 100.374 171.661 99.5742 171.661 98.4742C171.461 96.0742 173.061 92.8742 174.661 90.3742C175.861 89.1742 177.061 87.9742 177.761 86.6742C177.961 86.3742 178.361 85.6742 177.761 84.8742C177.761 84.8742 177.361 84.4742 177.161 84.3742C176.961 84.2742 176.461 84.3742 176.461 84.3742C175.761 84.5742 174.261 86.2742 172.761 88.5742C172.061 89.1742 171.361 89.7742 170.761 90.3742C169.661 91.3742 168.461 92.3742 167.361 93.3742C165.961 94.8742 165.061 96.5742 164.261 98.2742C163.561 99.6742 162.961 100.974 161.961 102.074C161.461 102.674 161.161 103.774 160.561 105.974C160.061 107.574 158.861 111.974 157.961 112.474C157.661 112.274 157.361 111.474 157.161 110.974C156.861 110.374 156.661 109.774 156.261 109.274C151.261 102.574 156.761 97.2742 163.961 91.6742C167.561 88.8742 170.161 86.7742 169.561 84.4742C169.561 84.4742 169.361 83.9742 169.261 83.8742C169.161 83.7742 168.661 83.5742 168.661 83.5742C167.961 83.3742 167.561 83.7742 166.961 84.4742C165.761 85.8742 162.361 89.4742 158.761 91.8742C156.261 93.4742 153.261 98.3742 150.261 103.074C148.561 105.774 146.461 109.174 145.161 110.574C145.161 109.874 144.961 109.074 144.561 108.574C139.961 103.374 144.161 98.8742 150.661 93.0742C151.761 92.0742 152.761 91.1742 153.661 90.2742C154.461 89.4742 155.161 88.5742 155.861 87.5742C156.061 87.2742 156.261 86.9742 156.561 86.6742C157.661 85.9742 158.661 85.2742 159.361 84.5742C160.061 83.8742 159.661 84.2742 159.861 84.1742C160.661 83.5742 161.461 82.9742 160.961 81.9742C160.761 81.4742 160.161 81.0742 159.361 81.2742C157.261 81.8742 155.861 83.2742 154.661 84.7742C152.661 86.0742 150.261 87.3742 148.161 88.4742L146.961 89.1742C140.561 92.7742 138.861 95.6742 136.161 100.574C135.761 101.374 135.261 102.274 134.661 103.174C134.161 103.374 133.061 103.474 132.361 103.574V101.174C129.761 91.6742 138.961 86.6742 147.861 81.8742C149.661 80.8742 151.361 79.9742 152.961 78.9742C153.761 78.4742 154.461 77.8742 155.161 77.2742C157.861 76.1742 160.161 74.6742 161.061 73.0742C161.061 72.9742 161.461 72.6742 161.661 72.4742C162.261 71.9742 162.861 71.2742 162.361 70.3742C162.161 69.9742 161.561 69.5742 160.861 69.7742C158.561 70.3742 156.761 72.1742 155.061 73.9742C154.661 74.3742 154.261 74.7742 153.861 75.1742C151.161 76.1742 147.961 76.7742 145.661 76.2742C145.161 76.2742 145.061 75.9742 145.061 75.8742C145.061 75.5742 145.061 75.1742 145.261 74.6742C145.761 73.7742 146.861 72.1742 147.561 71.4742C148.661 70.2742 152.761 67.5742 152.761 67.5742L156.061 65.5742C157.061 64.9742 158.061 64.2742 158.961 63.4742C160.661 61.9742 165.361 61.7742 169.461 61.6742C174.561 61.5742 178.561 61.3742 179.861 59.1742C180.961 57.3742 184.061 55.3742 186.761 53.6742C188.061 52.8742 189.261 52.0742 190.361 51.2742C193.561 48.8742 196.461 46.2742 199.361 43.6742C202.161 41.1742 205.061 38.4742 208.061 36.2742C211.561 33.6742 215.861 31.5742 220.061 29.4742C225.061 27.0742 230.161 24.5742 233.861 21.2742L232.161 19.3742C228.661 22.4742 223.961 24.7742 218.961 27.1742C214.661 29.2742 210.161 31.4742 206.461 34.1742C203.361 36.4742 200.461 39.1742 197.561 41.7742C194.761 44.3742 191.761 46.9742 188.761 49.2742C187.861 49.9742 186.661 50.6742 185.361 51.4742C182.261 53.4742 179.061 55.4742 177.661 57.8742C177.061 58.9742 172.561 59.0742 169.361 59.1742C164.561 59.1742 159.661 59.4742 157.261 61.5742C156.561 62.1742 155.861 62.6742 155.061 63.1742L148.761 61.4742L146.361 60.7742C138.261 59.0742 129.061 54.0742 125.461 52.0742C124.461 51.4742 123.561 51.0742 122.661 50.8742C123.861 47.6742 124.661 44.3742 125.261 41.4742C126.061 37.6742 151.061 25.7742 159.261 21.8742C161.361 20.8742 163.061 20.0742 164.261 19.4742L163.161 17.2742C161.961 17.8742 160.261 18.6742 158.261 19.6742C137.061 29.7742 123.661 36.7742 122.861 40.9742C122.261 44.0742 121.461 47.4742 120.161 50.6742L118.361 54.4742C117.261 56.3742 117.861 58.8742 118.361 61.2742C118.361 61.8742 118.661 62.4742 118.761 63.0742C118.861 63.6742 119.061 65.0742 118.761 65.5742C118.261 66.4742 114.561 67.3742 113.561 67.3742C112.461 66.5742 112.161 64.0742 111.961 61.5742C111.561 58.1742 111.161 54.1742 108.261 52.4742C106.261 51.2742 103.561 51.3742 99.9611 52.7742C90.6611 55.2742 81.9611 68.3742 78.6611 73.8742C78.8611 70.2742 80.0611 63.4742 81.1611 61.5742C81.5611 60.8742 84.0611 58.2742 85.9611 56.3742C91.1611 51.0742 91.5611 50.5742 91.2611 49.5742C91.0611 48.6742 90.2611 48.4742 90.0611 48.4742C89.0611 48.4742 88.5611 49.1742 88.0611 50.0742C87.8611 50.3742 87.5611 50.8742 87.4611 50.9742C83.9611 54.0742 77.3611 60.1742 71.9611 66.2742C70.9611 67.3742 70.4611 69.1742 69.9611 71.0742C69.3611 73.2742 68.6611 75.7742 67.3611 76.0742C63.2611 77.1742 62.7611 75.2742 62.5611 74.5742C61.2611 69.6742 66.8611 58.7742 73.3611 53.3742C74.8611 52.7742 76.4611 52.0742 77.6611 50.9742C77.7611 50.9742 78.3611 50.6742 78.4611 50.5742C79.5611 50.0742 79.5611 49.3742 79.4611 48.8742C79.4611 48.4742 78.8611 47.8742 77.8611 48.0742C75.9611 48.5742 74.0611 49.6742 72.1611 51.1742C71.8611 51.1742 71.6611 51.3742 71.3611 51.4742C69.6611 52.1742 67.8611 52.7742 66.3611 53.8742C61.1611 57.5742 57.2611 63.5742 54.6611 67.4742C54.1611 68.1742 53.6611 68.9742 53.2611 69.6742C53.2611 68.9742 53.3611 68.3742 53.4611 67.9742C53.6611 66.8742 53.4611 65.7742 53.0611 64.6742C52.7611 63.6742 52.4611 62.5742 52.7611 61.9742C53.1611 61.1742 53.6611 60.3742 54.0611 59.5742C56.2611 55.5742 58.5611 51.4742 62.1611 48.2742C63.8611 47.1742 65.6611 46.0742 67.1611 45.2742C68.6611 44.4742 70.3611 43.6742 71.2611 42.8742ZM186.561 89.5742C186.961 89.0742 187.361 88.6742 187.761 88.1742L187.261 89.4742C190.661 90.8742 194.561 91.9742 198.761 93.2742C199.361 93.4742 200.061 93.6742 200.661 93.8742C198.661 95.3742 196.461 96.6742 194.161 97.7742C193.761 97.5742 193.461 97.3742 193.061 97.2742C190.961 96.2742 188.761 95.2742 186.661 94.3742L185.761 96.6742C187.561 97.3742 189.461 98.2742 191.361 99.1742C189.861 99.8742 188.461 100.474 186.961 101.074C185.461 101.674 183.961 102.374 182.461 103.074C182.161 103.274 181.761 103.374 181.461 103.574C180.061 102.874 178.661 102.174 177.261 101.774C179.861 97.4742 183.361 93.4742 186.661 89.5742H186.561ZM194.261 100.574C197.961 102.274 201.761 103.874 205.961 104.774C205.561 105.274 205.061 105.774 204.561 106.174C203.261 107.574 198.861 109.774 195.061 111.674C192.361 110.574 189.661 108.774 186.961 107.074C185.961 106.374 184.961 105.774 183.861 105.074C185.161 104.474 186.461 103.974 187.761 103.374C189.861 102.474 192.061 101.574 194.161 100.474L194.261 100.574ZM185.661 109.174C187.861 110.574 189.961 112.074 192.261 113.174C190.361 114.174 188.561 115.074 187.461 115.874C185.561 117.174 183.861 118.674 182.261 120.174C178.561 118.374 174.861 116.474 171.561 114.574C171.861 114.374 172.061 114.074 172.361 113.874C175.161 111.174 178.061 108.474 181.361 106.574C182.761 107.374 184.161 108.374 185.661 109.274V109.174ZM180.261 121.874C179.261 122.674 178.361 123.474 177.261 124.174C176.561 124.574 175.761 124.774 174.861 125.074C173.961 125.274 172.961 125.574 172.061 126.074C169.261 124.174 166.361 122.374 163.161 120.874C163.561 120.874 163.961 120.874 164.361 120.474C166.161 119.274 167.861 117.774 169.561 116.374C172.861 118.274 176.561 120.174 180.261 121.974V121.874ZM175.361 127.474C176.361 127.274 177.561 126.974 178.561 126.274C180.061 125.274 181.361 124.174 182.561 123.074C182.761 123.074 183.061 123.274 183.261 123.374C184.861 124.174 186.361 124.874 187.861 125.674L188.961 123.474C187.461 122.774 185.961 121.974 184.461 121.274C185.761 120.074 187.161 118.874 188.561 117.874C189.961 116.974 192.361 115.774 194.961 114.374C196.361 114.874 197.761 115.174 199.161 115.274V112.774H198.361C201.761 111.074 204.761 109.374 206.061 107.974C206.961 107.074 207.761 106.174 208.561 105.274C209.061 105.274 209.461 105.274 209.961 105.474V103.674C211.561 102.174 212.961 100.674 214.461 99.2742L213.761 98.4742C215.761 99.2742 217.761 100.174 219.761 101.274C218.761 101.874 217.661 102.574 216.661 103.474C214.961 104.974 212.861 106.474 210.561 107.974C208.261 109.474 205.961 111.074 203.961 112.874C202.261 114.374 201.061 115.974 199.861 117.674C198.061 120.074 196.361 122.374 193.161 124.074C192.961 124.074 192.361 124.574 191.061 125.374C188.761 126.874 182.061 131.374 180.261 131.874C178.261 130.674 176.261 129.274 174.161 127.874L175.361 127.474ZM207.961 102.574C204.161 101.974 200.561 100.574 197.061 99.0742C199.361 97.8742 201.561 96.3742 203.561 94.7742C206.561 95.6742 209.561 96.6742 212.561 97.8742C210.961 99.3742 209.461 100.974 207.861 102.574H207.961ZM178.561 104.974C175.561 106.974 172.961 109.374 170.361 111.774C169.961 112.174 169.461 112.574 169.061 112.974C167.261 111.874 165.561 110.774 164.061 109.574L162.561 111.574C163.961 112.674 165.461 113.674 167.161 114.774C165.761 115.974 164.361 117.174 162.861 118.174C162.661 118.174 162.061 118.174 161.661 117.974C160.761 117.774 159.561 117.474 158.561 117.974C158.261 118.174 157.961 118.474 157.761 118.874C154.361 119.074 150.561 117.974 146.961 116.874C149.561 115.974 151.961 114.374 154.161 112.074L152.361 110.374C150.061 112.774 147.561 114.274 144.861 114.874L145.161 116.274H144.761C128.261 111.074 116.261 106.774 108.161 102.874C106.061 101.874 103.961 100.674 101.861 99.4742C99.7611 98.2742 97.6611 97.0742 95.5611 96.0742C98.3611 94.3742 101.061 92.5742 103.661 90.6742C107.961 92.4742 112.161 94.3742 116.061 96.6742C113.361 99.0742 111.061 100.774 110.261 101.074L110.961 103.474C112.161 103.074 114.661 101.174 118.261 98.0742C119.461 98.8742 120.661 99.6742 121.861 100.574L123.361 98.5742C122.361 97.7742 121.261 97.0742 120.261 96.3742C122.661 94.2742 125.461 91.6742 128.561 88.8742C129.161 88.2742 129.861 87.7742 130.461 87.1742C131.361 87.4742 132.261 87.6742 133.061 87.9742L133.761 85.5742C133.361 85.5742 132.961 85.3742 132.561 85.1742C135.261 82.6742 137.861 80.4742 139.161 79.4742C140.061 79.8742 140.861 80.3742 141.761 80.8742L142.361 79.7742L143.061 78.7742C142.761 78.5742 142.461 78.3742 142.161 78.1742C141.561 77.6742 140.961 77.2742 140.261 76.7742C139.861 76.4742 139.561 76.3742 138.961 76.7742C135.161 74.9742 131.261 73.5742 127.261 72.2742C128.761 71.2742 130.361 70.2742 131.961 69.3742L131.761 69.0742C133.561 69.4742 135.461 69.7742 137.261 70.0742C139.661 70.4742 142.661 71.1742 144.661 71.6742L143.161 74.0742L142.861 74.8742C142.761 75.4742 142.661 76.0742 142.861 76.6742C143.061 77.3742 143.561 78.5742 145.361 78.9742C146.261 79.1742 147.261 79.1742 148.361 79.1742C147.861 79.4742 147.461 79.6742 146.961 79.9742C137.661 84.9742 127.261 90.6742 130.261 102.074V102.774C130.261 104.074 130.261 105.574 131.361 106.274C132.161 106.774 136.361 106.274 137.061 105.074C137.661 103.974 138.261 103.074 138.761 102.074C141.461 97.2742 142.761 94.8742 148.561 91.5742L149.561 90.9742C149.561 90.9742 149.361 91.1742 149.261 91.2742C145.061 95.0742 139.661 99.8742 140.461 105.374C137.061 107.274 134.361 108.774 132.061 110.174L133.261 112.374C135.561 111.074 138.061 109.674 141.261 107.874C141.661 108.674 142.161 109.474 142.861 110.274V111.074C142.861 111.974 143.061 112.974 143.961 113.474C146.161 114.674 148.261 111.474 152.061 105.474C152.261 107.174 153.061 109.074 154.461 110.974C154.661 111.174 154.861 111.674 155.061 112.174C155.461 113.174 155.961 114.374 156.961 114.974C157.361 115.174 157.761 115.274 158.161 115.274C158.561 115.274 158.761 115.274 159.061 115.074C160.961 114.274 161.961 111.174 163.161 106.874C163.461 105.774 163.861 104.274 164.061 103.974C165.261 102.674 165.961 101.074 166.661 99.5742C167.461 97.9742 168.161 96.4742 169.261 95.2742C169.461 95.0742 169.661 94.8742 169.861 94.6742C169.561 95.4742 169.461 96.1742 169.361 96.8742C168.861 100.474 170.561 102.174 172.061 103.074C172.461 103.374 173.061 103.474 173.661 103.574L178.561 104.974ZM91.0611 73.5742C94.1611 74.7742 97.5611 76.0742 101.161 77.3742C98.5611 79.5742 95.9611 81.8742 93.1611 83.9742C89.8611 82.6742 86.5611 81.3742 83.5611 79.8742C86.1611 77.8742 88.6611 75.7742 91.0611 73.5742ZM100.361 66.2742C101.761 67.2742 103.261 68.3742 105.261 68.8742C106.661 69.2742 107.961 69.6742 109.361 69.9742C108.761 70.5742 108.061 71.1742 107.361 71.7742C106.061 72.9742 104.661 74.1742 103.261 75.4742C99.5611 74.1742 96.1611 72.8742 93.0611 71.6742C95.1611 69.6742 97.2611 67.5742 99.1611 65.4742C99.5611 65.7742 99.9611 65.9742 100.361 66.2742ZM114.061 82.7742C114.361 82.5742 114.561 82.3742 114.761 82.1742C119.061 83.5742 123.461 85.0742 127.861 86.4742C127.561 86.6742 127.361 86.9742 127.061 87.2742C124.261 89.7742 121.061 92.7742 118.261 95.2742C114.461 92.9742 110.361 91.0742 106.261 89.2742C108.961 87.1742 110.861 85.3742 113.361 83.2742L114.061 82.7742ZM103.561 88.0742C101.461 87.1742 99.3611 86.3742 97.2611 85.5742C96.7611 85.3742 96.3611 85.2742 95.9611 85.0742C98.7611 82.8742 101.461 80.5742 103.961 78.3742C106.561 79.2742 109.361 80.2742 112.161 81.1742C109.361 83.4742 106.561 85.7742 103.661 88.0742H103.561ZM117.061 80.2742C119.661 78.0742 122.261 75.9742 124.961 74.0742C129.061 75.2742 133.061 76.6742 136.961 78.3742C135.561 79.5742 133.361 81.4742 130.161 84.4742C125.861 83.0742 121.461 81.6742 117.161 80.2742H117.061ZM114.261 79.3742C111.461 78.3742 108.661 77.4742 105.961 76.4742C107.061 75.4742 108.061 74.5742 109.061 73.6742C110.161 72.6742 111.261 71.6742 112.261 70.7742C113.061 70.9742 113.961 71.1742 114.761 71.3742C117.061 71.9742 119.461 72.5742 121.861 73.1742C119.261 75.1742 116.761 77.1742 114.261 79.2742V79.3742ZM90.7611 85.7742C88.3611 87.5742 85.8611 89.1742 83.2611 90.4742L84.1611 92.0742C80.0611 90.6742 76.0611 89.2742 72.1611 87.6742C75.2611 85.7742 78.2611 83.7742 81.2611 81.5742C84.2611 83.0742 87.4611 84.4742 90.7611 85.7742ZM93.4611 86.8742C94.3611 87.2742 95.2611 87.5742 96.2611 87.9742C97.8611 88.5742 99.5611 89.2742 101.161 89.8742C98.7611 91.6742 96.1611 93.2742 93.5611 94.7742L94.0611 95.5742C93.2611 95.2742 92.4611 94.8742 91.6611 94.6742L88.2611 93.5742C87.1611 93.1742 86.0611 92.8742 84.9611 92.4742C87.8611 90.8742 90.6611 88.9742 93.4611 86.8742ZM124.261 54.1742C127.961 56.2742 137.461 61.4742 145.861 63.1742C148.061 63.5742 150.761 64.3742 152.561 64.9742L151.661 65.6742C149.861 66.7742 148.061 67.8742 146.561 69.3742C144.161 68.6742 141.161 68.1742 138.061 67.5742C131.761 66.3742 124.661 65.0742 121.161 62.3742C121.061 61.7742 120.961 61.1742 120.761 60.5742C120.361 58.6742 119.861 56.5742 120.461 55.5742C120.961 54.7742 121.361 53.9742 121.661 53.1742C122.461 53.1742 123.261 53.6742 124.261 54.1742ZM120.861 66.6742C121.161 66.1742 121.161 66.0742 121.261 65.5742C123.361 66.7742 126.061 67.6742 128.961 68.3742C127.461 69.2742 125.861 70.2742 124.361 71.3742C121.661 70.5742 118.861 69.8742 116.161 69.1742C116.361 69.1742 116.661 68.9742 116.961 68.8742C120.261 67.6742 120.561 67.1742 120.761 66.8742V66.6742H120.861ZM107.061 54.6742C108.861 55.7742 109.061 58.8742 109.461 61.8742C109.761 64.1742 109.961 66.2742 110.861 67.8742C109.261 67.4742 107.561 66.9742 105.961 66.5742C104.461 66.1742 103.161 65.2742 101.861 64.2742C101.561 64.0742 101.261 63.8742 100.961 63.5742C101.961 62.3742 102.961 61.2742 103.861 60.0742L102.261 58.7742C103.561 58.9742 107.961 59.7742 108.661 59.7742V57.2742C107.961 57.2742 103.061 56.3742 99.8611 55.7742L100.961 55.0742C103.761 53.9742 105.761 53.8742 106.961 54.5742H107.061V54.6742ZM81.0611 78.6742C80.4611 78.3742 79.7611 77.9742 79.1611 77.6742C79.4611 77.3742 79.8611 76.9742 80.1611 76.3742C81.6611 73.7742 88.3611 62.6742 95.9611 57.4742C96.5611 57.7742 98.0611 58.0742 101.661 58.6742C100.661 59.8742 99.6611 61.0742 98.6611 62.2742C98.0611 61.9742 97.3611 61.7742 96.6611 61.5742L96.1611 63.9742C96.3611 63.9742 96.6611 63.9742 96.8611 64.1742C94.8611 66.3742 92.7611 68.4742 90.4611 70.5742L81.0611 78.5742V78.6742ZM67.9611 78.4742C70.6611 77.7742 71.5611 74.5742 72.3611 71.6742C72.7611 70.1742 73.2611 68.5742 73.8611 67.8742C75.1611 66.3742 76.4611 64.9742 77.8611 63.5742C76.5611 68.4742 75.1611 76.7742 77.1611 77.9742C77.5611 78.2742 78.0611 78.2742 78.4611 78.0742L77.5611 79.6742C77.9611 79.8742 78.3611 80.1742 78.7611 80.3742C75.9611 82.3742 73.1611 84.2742 70.3611 85.9742L71.1611 87.3742C68.2611 86.1742 65.4611 84.7742 62.7611 83.1742C62.0611 82.7742 61.0611 82.5742 59.9611 82.4742C61.1611 81.7742 62.6611 80.9742 64.2611 80.0742L63.5611 78.7742C64.0611 78.7742 64.5611 78.9742 65.0611 78.9742C65.5611 78.9742 66.5611 78.8742 67.6611 78.5742H67.9611V78.4742ZM54.2611 72.3742C55.0611 72.3742 55.2611 73.0742 55.4611 73.2742C54.4611 74.6742 52.3611 76.4742 50.1611 77.9742C48.3611 77.9742 46.4611 76.4742 44.4611 75.0742C44.0611 74.7742 43.7611 74.5742 43.3611 74.2742C43.9611 73.9742 44.5611 73.6742 45.1611 73.4742C47.0611 72.6742 47.7611 72.2742 49.5611 70.9742C49.5611 70.9742 50.4611 70.2742 50.4611 70.1742C50.4611 71.4742 50.6611 72.7742 51.6611 72.7742C52.6611 72.7742 53.4611 72.2742 54.2611 72.3742ZM44.4611 66.8742C44.4611 66.8742 44.6611 66.8742 44.7611 66.8742C45.1611 67.1742 45.6611 67.3742 45.7611 67.3742C46.0611 67.4742 46.3611 67.5742 46.7611 67.6742C47.1611 67.6742 47.9611 68.0742 48.5611 68.2742C47.6611 69.3742 45.9611 70.1742 44.2611 70.8742C43.5611 71.1742 42.7611 71.5742 41.9611 71.8742L42.8611 73.5742C41.5611 72.6742 40.1611 71.8742 38.6611 71.3742C40.7611 70.0742 42.7611 68.7742 43.5611 67.8742C44.3611 66.9742 44.0611 67.0742 44.2611 66.8742C44.4611 66.6742 44.3611 66.8742 44.4611 66.8742ZM52.1611 57.7742C52.0611 57.9742 51.9611 58.1742 51.8611 58.3742C51.4611 59.1742 50.9611 59.9742 50.5611 60.6742C49.6611 62.1742 50.1611 63.7742 50.5611 65.2742C50.7611 65.8742 50.9611 66.4742 50.9611 66.9742C50.1611 66.2742 48.9611 65.8742 47.6611 65.4742C47.3611 65.4742 47.0611 65.2742 46.7611 65.1742C46.7611 65.1742 46.2611 64.9742 45.9611 64.7742C45.5611 64.5742 45.2611 64.4742 45.0611 64.3742C46.9611 62.8742 49.3611 60.6742 52.2611 57.7742H52.1611ZM42.1611 65.9742C42.1611 66.1742 41.9611 66.2742 41.8611 66.4742C40.5611 68.1742 36.7611 70.2742 33.9611 71.2742C33.2611 71.4742 33.1611 71.4742 32.7611 71.5742C31.0611 70.8742 29.1611 69.3742 27.3611 67.9742C28.2611 67.4742 29.0611 66.8742 29.9611 66.3742C33.0611 64.3742 33.7611 62.7742 37.5611 62.9742H38.4611C38.7611 63.8742 39.1611 64.6742 39.8611 65.3742C40.2611 65.7742 40.7611 66.0742 41.3611 66.0742C41.9611 66.0742 42.1611 65.9742 42.1611 65.9742ZM21.5611 64.2742C22.5611 63.3742 23.5611 62.5742 24.6611 61.7742C25.5611 61.0742 26.4611 60.3742 27.3611 59.5742C30.0611 59.6742 33.1611 60.2742 35.1611 61.0742C32.8611 61.5742 30.6611 62.9742 28.5611 64.2742C27.4611 64.9742 26.2611 65.7742 25.0611 66.3742C23.8611 65.4742 22.6611 64.7742 21.4611 64.2742H21.5611ZM165.261 147.474C161.361 146.674 141.461 142.374 134.061 135.774C129.561 131.874 123.061 130.074 116.861 128.374C113.361 127.474 110.161 126.574 107.261 125.374C97.7611 121.374 88.4611 118.274 79.4611 115.274C61.5611 109.374 44.7611 103.674 28.8611 92.0742C25.3611 89.4742 21.6611 87.8742 18.3611 86.4742C12.2611 83.8742 7.26113 81.6742 5.36113 74.1742C7.36113 74.6742 10.7611 75.4742 11.6611 76.4742C14.5611 79.7742 21.2611 81.6742 27.8611 83.4742C32.3611 84.7742 36.9611 85.9742 39.7611 87.6742C47.5611 92.1742 85.3611 106.074 95.2611 108.174C117.361 112.674 145.261 124.174 164.661 136.774C166.361 137.874 168.061 140.174 169.761 142.374C171.261 144.374 172.661 146.274 174.161 147.374C174.361 148.374 174.661 149.374 175.061 150.274C172.361 149.374 168.561 148.174 165.361 147.574H165.261V147.474ZM177.861 150.474C177.561 149.974 177.461 149.174 177.061 147.974C180.261 147.374 184.461 143.674 189.161 139.274C190.361 138.174 191.461 137.174 191.861 136.874C193.661 135.674 205.661 126.974 216.661 118.374C229.261 108.574 234.861 103.374 237.361 100.474C237.561 100.974 237.761 101.374 238.061 101.874C238.461 102.774 239.261 104.374 239.161 104.774C238.261 106.174 227.261 117.774 209.961 129.874C192.461 142.074 182.161 153.274 179.861 152.574C177.561 151.874 177.861 150.474 177.861 150.474ZM175.661 145.174C174.561 144.374 173.161 142.574 171.761 140.774C169.961 138.374 168.161 135.974 166.061 134.574C146.461 121.774 118.161 110.174 95.8611 105.574C85.3611 103.374 48.1611 89.4742 41.1611 85.3742C38.0611 83.5742 33.4611 82.2742 28.6611 80.9742C22.4611 79.2742 16.1611 77.4742 13.6611 74.7742C12.3611 73.2742 9.46113 72.4742 6.06113 71.6742H5.76113C7.26113 70.1742 8.96113 67.4742 11.2611 63.6742C12.7611 61.1742 14.3611 58.4742 15.5611 57.0742C20.3611 51.5742 27.5611 46.1742 34.3611 40.8742C38.8611 37.4742 43.0611 34.2742 46.7611 30.9742C46.9611 30.7742 47.2611 30.4742 47.7611 29.8742C48.4611 29.1742 50.1611 27.2742 50.9611 26.6742C52.7611 27.5742 55.6611 28.1742 58.6611 28.7742C60.8611 29.2742 63.0611 29.7742 64.6611 30.2742C66.7611 30.9742 68.0611 31.2742 69.4611 31.5742C69.9611 31.6742 70.5611 31.8742 70.9611 31.9742C67.3611 33.3742 62.3611 35.9742 57.3611 39.2742C56.1611 38.4742 54.5611 38.0742 52.9611 37.5742C55.1611 35.8742 56.0611 34.7742 56.3611 34.0742C57.5611 34.2742 58.7611 34.7742 59.7611 35.0742C60.6611 35.3742 61.5611 35.6742 62.2611 35.8742L62.7611 33.4742C62.2611 33.4742 61.4611 33.0742 60.5611 32.7742C58.3611 32.0742 55.7611 31.0742 53.2611 31.4742L53.4611 32.6742V33.8742C50.4611 37.0742 35.8611 45.5742 32.8611 46.8742L33.3611 48.0742L32.8611 49.2742C34.7611 50.0742 37.4611 51.1742 39.8611 52.5742L41.1611 50.3742C39.5611 49.4742 37.8611 48.5742 36.2611 47.9742C37.6611 47.2742 39.4611 46.2742 41.3611 45.1742V45.6742C42.5611 45.6742 43.6611 46.2742 44.7611 47.0742C45.1611 47.3742 45.5611 47.6742 46.0611 47.8742L47.2611 45.6742C46.8611 45.4742 46.4611 45.1742 46.1611 44.9742C45.4611 44.4742 44.6611 43.9742 43.8611 43.6742C44.5611 43.2742 45.2611 42.7742 46.0611 42.3742C47.7611 41.2742 49.2611 40.3742 50.4611 39.5742C51.0611 39.7742 51.7611 39.9742 52.3611 40.1742C53.2611 40.3742 54.2611 40.6742 55.0611 40.9742C47.6611 46.0742 40.6611 52.4742 38.7611 57.9742C38.5611 58.6742 38.3611 59.2742 38.2611 59.8742C34.6611 57.2742 27.2611 57.0742 27.1611 57.0742H26.6611L26.2611 57.3742C25.2611 58.2742 24.2611 58.9742 23.2611 59.7742C21.6611 61.0742 19.9611 62.3742 18.2611 64.1742L16.1611 66.3742H19.1611C20.5611 66.3742 22.5611 67.6742 24.6611 69.1742L25.8611 70.0742C27.9611 71.6742 30.1611 73.3742 32.3611 74.1742C34.5611 74.9742 32.7611 74.3742 32.8611 74.3742C32.9611 74.3742 33.1611 74.3742 33.2611 74.3742C33.7611 74.2742 34.2611 73.9742 34.7611 73.7742C37.7611 73.2742 40.4611 75.1742 43.2611 77.1742C45.7611 78.8742 48.0611 80.5742 50.6611 80.5742C53.2611 80.5742 50.6611 80.5742 50.7611 80.5742H51.1611L51.4611 80.3742C53.8611 78.8742 56.9611 76.2742 58.1611 74.1742C58.1611 74.1742 58.3611 73.9742 58.3611 73.8742C58.3611 73.7742 58.3611 73.4742 58.3611 73.4742C58.3611 71.9742 56.9611 70.9742 55.9611 70.3742C56.2611 69.9742 56.5611 69.4742 56.8611 68.9742C59.1611 65.3742 62.6611 60.1742 67.0611 56.6742C62.2611 62.8742 59.1611 70.8742 60.3611 75.2742C60.5611 76.0742 61.1611 77.5742 62.6611 78.3742C57.8611 81.0409 55.4611 82.6409 55.4611 83.1742V83.8742L56.0611 84.1742C56.9611 84.6742 58.2611 84.8742 59.5611 84.9742C60.3611 84.9742 61.4611 85.1742 61.7611 85.3742C69.7611 89.9742 78.4611 92.8742 87.6611 95.9742L91.0611 97.0742C94.5611 98.2742 97.8611 100.174 101.061 102.074C103.161 103.274 105.261 104.474 107.461 105.574C115.661 109.574 127.761 113.874 144.461 118.974L145.661 119.374C149.861 120.674 154.561 122.174 158.961 121.774C164.361 123.674 168.861 126.774 173.261 129.774C175.561 131.374 177.661 132.874 179.961 134.174C180.161 134.274 180.361 134.374 180.661 134.374C181.961 134.374 184.561 132.974 193.061 127.374C193.961 126.774 194.761 126.274 194.961 126.174C198.561 124.274 200.561 121.574 202.461 119.074C203.661 117.474 204.761 115.974 206.261 114.674C208.061 113.074 210.361 111.474 212.561 109.974C214.761 108.474 217.061 106.974 218.861 105.274C220.161 104.074 221.861 103.174 222.761 102.674C223.561 102.174 224.161 101.974 224.161 101.174V100.474L223.561 100.074C215.961 95.6742 207.461 93.1742 199.961 90.8742C195.961 89.6742 192.261 88.5742 189.061 87.2742C191.261 84.6742 193.261 82.1742 194.861 79.6742L194.661 80.4742C201.161 81.9742 207.061 84.6742 213.361 87.5742L214.261 87.9742C216.861 89.1742 225.861 93.3742 232.961 97.4742C233.861 97.9742 234.961 97.7742 236.061 97.4742C236.361 97.4742 236.861 97.2742 237.161 97.2742C233.961 103.174 197.561 130.374 190.961 134.674C190.361 135.074 189.361 136.074 187.961 137.374C185.661 139.474 179.161 145.574 176.761 145.574L176.061 145.274H175.761L175.661 145.174Z" fill="#34AF42"/>
</g>
</g>
<defs>
<clipPath id="clip0_171_868">
<rect width="266" height="156" fill="white" transform="translate(0.861328 0.173828)"/>
</clipPath>
</defs>
</svg>
