<svg width="28" height="28" viewBox="0 0 28 28" fill="none" xmlns="http://www.w3.org/2000/svg">
<path fill-rule="evenodd" clip-rule="evenodd" d="M0.455662 18.9807L0.453844 18.939C0.452041 18.897 0.449447 18.8352 0.446245 18.7551C0.43984 18.595 0.431 18.3619 0.421187 18.0683C0.401565 17.4813 0.378029 16.6519 0.362302 15.6801C0.330909 13.7405 0.330335 11.2186 0.456295 8.92339C0.475233 8.57831 0.464967 8.14269 0.447615 7.62239C0.445419 7.55656 0.443118 7.48954 0.440783 7.42151C0.42525 6.96907 0.408188 6.47209 0.410426 5.98505C0.412997 5.42563 0.440652 4.83848 0.535153 4.2957C0.627515 3.7652 0.798133 3.18757 1.14845 2.71418C1.78397 1.85543 2.78035 1.43017 3.661 1.19477C4.56093 0.954204 5.51843 0.867027 6.24272 0.809029C8.92547 0.594205 11.7293 0.666458 14.4708 0.737106C15.8118 0.771664 17.1379 0.805838 18.4277 0.805838C18.7619 0.805838 19.1115 0.799182 19.4719 0.792321C20.8814 0.765481 22.456 0.735501 23.9254 1.08851C25.5612 1.48147 26.3718 2.72752 26.7696 3.98249C27.1567 5.20352 27.2165 6.61253 27.261 7.66929C27.3867 10.66 27.3448 13.6472 27.3031 16.6136C27.2825 18.0856 27.2619 19.5524 27.2619 21.012C27.2619 21.043 27.2619 21.0742 27.2619 21.1055C27.2622 22.4071 27.2625 23.9482 26.7588 25.1554C26.4836 25.8148 26.0458 26.4154 25.3632 26.8385C24.6902 27.2556 23.864 27.4477 22.8973 27.4477C22.2913 27.4477 21.715 27.4973 21.0938 27.5507C20.8694 27.5701 20.6391 27.5899 20.3995 27.608C19.5272 27.6741 18.5822 27.7116 17.5798 27.5568C16.8351 27.4418 16.0993 27.4442 15.2614 27.4469C15.1316 27.4473 14.9995 27.4477 14.8644 27.4477C13.8802 27.4477 12.9046 27.3853 11.9683 27.3253L11.9614 27.3249C11.0123 27.2641 10.1038 27.2061 9.20294 27.2061H6.09906C6.04062 27.2061 5.96907 27.2068 5.88667 27.2077C5.44595 27.2122 4.69505 27.2198 3.98188 27.1362C3.5561 27.0863 3.08509 26.9985 2.66127 26.8313C2.25207 26.67 1.75061 26.3807 1.46549 25.8413C0.934938 24.8376 0.697704 23.5295 0.580315 22.3305C0.46153 21.1172 0.455747 19.8915 0.455662 18.9807Z" fill="#4556EB"/>
<path fill-rule="evenodd" clip-rule="evenodd" d="M13.1968 11.4516C13.0393 11.9237 12.8872 12.3776 12.8051 12.56C12.239 13.818 11.7208 15.3714 11.2154 16.9921C11.074 17.4456 10.9332 17.9058 10.7928 18.3645C10.4391 19.5201 10.0881 20.667 9.73676 21.6772C9.55532 22.1988 8.98538 22.4746 8.46374 22.2931C7.94211 22.1117 7.66633 21.5417 7.84777 21.0201C8.18597 20.0478 8.51934 18.9584 8.86813 17.8187C9.01107 17.3516 9.15659 16.8761 9.3061 16.3967C9.81265 14.7724 10.3611 13.1174 10.9812 11.7393C10.9811 11.7397 10.9812 11.7395 10.9816 11.7385C10.9835 11.7337 10.9925 11.7117 11.0103 11.6638C11.0296 11.6114 11.0539 11.5431 11.0832 11.4587C11.1418 11.29 11.215 11.0721 11.2997 10.8184C11.3346 10.714 11.3712 10.6039 11.4094 10.4894C11.5552 10.0515 11.7224 9.54913 11.8911 9.05736C12.1029 8.4399 12.3238 7.81867 12.5146 7.34626C12.6082 7.11443 12.7057 6.89026 12.8001 6.71346C12.8447 6.62987 12.9092 6.51723 12.9927 6.41239C13.0335 6.36107 13.1055 6.27744 13.2096 6.1986C13.3016 6.12898 13.524 5.98242 13.8452 5.98242C14.2381 5.98242 14.4821 6.20905 14.5171 6.24163C14.5182 6.24264 14.5191 6.24346 14.5198 6.24409C14.591 6.30909 14.6364 6.36983 14.6535 6.39329C14.6922 6.44628 14.7171 6.49163 14.7242 6.50454C14.743 6.53893 14.7563 6.56807 14.7605 6.57726C14.7718 6.60193 14.7819 6.62614 14.7882 6.64152C14.8024 6.67597 14.8194 6.71932 14.8368 6.76389C14.8722 6.85495 14.9177 6.97447 14.9621 7.09162L15.0858 7.41825C15.1172 7.50087 15.129 7.53041 15.1285 7.53063C15.1285 7.53063 15.1284 7.53063 15.1284 7.53062C15.3212 7.92443 15.5794 8.30161 15.8886 8.72869C15.934 8.79134 15.9809 8.85559 16.0288 8.92131C16.2989 9.2915 16.603 9.70834 16.8628 10.1489C17.5057 11.239 17.8273 12.4037 18.0726 13.4869C18.1419 13.7927 18.2044 14.0873 18.2651 14.3734C18.4283 15.1429 18.5787 15.8516 18.8129 16.5541C18.95 16.9656 19.0879 17.6883 19.2216 18.3897C19.2467 18.5208 19.2715 18.6512 19.2962 18.7787C19.4686 19.6682 19.6447 20.4959 19.8333 20.9957C20.0282 21.5124 19.7674 22.0893 19.2506 22.2843C18.7339 22.4792 18.157 22.2183 17.962 21.7016C17.7022 21.0128 17.4972 20.0081 17.3327 19.1591C17.3034 19.0074 17.2753 18.8614 17.2486 18.7218C17.1112 18.0059 17.0062 17.4587 16.9155 17.1866C16.6425 16.3676 16.4581 15.4975 16.2881 14.6955C16.232 14.4311 16.1776 14.174 16.122 13.9287C15.8877 12.8944 15.62 11.9787 15.1401 11.1649C14.934 10.8155 14.6959 10.4886 14.4248 10.1165C14.3739 10.0466 14.3219 9.97513 14.2687 9.90163C14.1478 9.7347 14.0222 9.55883 13.8978 9.37373C13.8598 9.48289 13.8214 9.59398 13.7829 9.70622C13.6175 10.1886 13.454 10.6796 13.3084 11.1168C13.2699 11.2326 13.2326 11.3446 13.1968 11.4516Z" fill="#F3F4F6"/>
<path fill-rule="evenodd" clip-rule="evenodd" d="M9.86035 16.7559C9.86035 16.2036 10.3081 15.7559 10.8604 15.7559H17.5114C18.0637 15.7559 18.5114 16.2036 18.5114 16.7559C18.5114 17.3081 18.0637 17.7559 17.5114 17.7559H10.8604C10.3081 17.7559 9.86035 17.3081 9.86035 16.7559Z" fill="#F3F4F6"/>
</svg>
