<svg width="28" height="28" viewBox="0 0 28 28" fill="none" xmlns="http://www.w3.org/2000/svg">
<path fill-rule="evenodd" clip-rule="evenodd" d="M13.6382 11.34C13.4807 11.8121 13.3286 12.2661 13.2465 12.4485C12.6804 13.7065 12.1622 15.2599 11.6568 16.8806C11.5154 17.334 11.3746 17.7942 11.2342 18.2529C10.8805 19.4085 10.5295 20.5554 10.1782 21.5656C9.99673 22.0872 9.42678 22.363 8.90515 22.1816C8.38352 22.0001 8.10774 21.4302 8.28917 20.9085C8.62737 19.9362 8.96075 18.8469 9.30954 17.7071C9.45248 17.2401 9.598 16.7645 9.74751 16.2851C10.2541 14.6608 10.8025 13.0058 11.4227 11.6277C11.4225 11.6281 11.4226 11.6279 11.423 11.6269C11.4249 11.6221 11.4339 11.6001 11.4517 11.5522C11.471 11.4999 11.4953 11.4315 11.5246 11.3471C11.5832 11.1784 11.6565 10.9605 11.7411 10.7068C11.776 10.6024 11.8126 10.4923 11.8508 10.3778C11.9966 9.93991 12.1638 9.43756 12.3325 8.94579C12.5443 8.32832 12.7652 7.7071 12.956 7.23469C13.0496 7.00286 13.1471 6.77869 13.2415 6.60189C13.2861 6.5183 13.3506 6.40565 13.4341 6.30082C13.4749 6.2495 13.5469 6.16587 13.651 6.08702C13.743 6.01741 13.9654 5.87085 14.2866 5.87085C14.6795 5.87085 14.9235 6.09748 14.9585 6.13006C14.9596 6.13107 14.9605 6.13189 14.9612 6.13252C15.0324 6.19751 15.0778 6.25826 15.0949 6.28172C15.1336 6.33471 15.1585 6.38006 15.1656 6.39297C15.1844 6.42735 15.1977 6.4565 15.2019 6.46569C15.2132 6.49036 15.2233 6.51456 15.2296 6.52995C15.2438 6.56439 15.2609 6.60775 15.2782 6.65232C15.3136 6.74338 15.3591 6.86289 15.4035 6.98005L15.5272 7.30667C15.5586 7.3893 15.5704 7.41884 15.5699 7.41905C15.5699 7.41906 15.5699 7.41906 15.5698 7.41905C15.7626 7.81285 16.0208 8.19003 16.33 8.61712C16.3754 8.67977 16.4223 8.74402 16.4702 8.80974C16.7403 9.17993 17.0444 9.59677 17.3042 10.0373C17.9471 11.1275 18.2687 12.2921 18.514 13.3754C18.5833 13.6811 18.6458 13.9757 18.7065 14.2618C18.8698 15.0314 19.0201 15.74 19.2543 16.4426C19.3915 16.854 19.5293 17.5767 19.6631 18.2781C19.6881 18.4092 19.7129 18.5396 19.7376 18.6671C19.91 19.5567 20.0861 20.3843 20.2747 20.8841C20.4696 21.4008 20.2088 21.9777 19.692 22.1727C19.1753 22.3676 18.5984 22.1068 18.4034 21.59C18.1436 20.9012 17.9386 19.8965 17.7741 19.0475C17.7448 18.8958 17.7167 18.7498 17.69 18.6102C17.5526 17.8943 17.4476 17.3472 17.3569 17.075C17.0839 16.256 16.8995 15.3859 16.7295 14.5839C16.6735 14.3195 16.619 14.0625 16.5634 13.8171C16.3291 12.7828 16.0614 11.8671 15.5815 11.0533C15.3754 10.7039 15.1373 10.377 14.8662 10.0049C14.8154 9.93502 14.7633 9.86356 14.7101 9.79006C14.5892 9.62313 14.4636 9.44725 14.3392 9.26215C14.3012 9.37132 14.2628 9.48241 14.2243 9.59465C14.0589 10.077 13.8954 10.568 13.7498 11.0052C13.7113 11.121 13.674 11.233 13.6382 11.34Z" fill="#909090"/>
<path fill-rule="evenodd" clip-rule="evenodd" d="M10.3018 16.6443C10.3018 16.092 10.7495 15.6443 11.3018 15.6443H17.9529C18.5051 15.6443 18.9529 16.092 18.9529 16.6443C18.9529 17.1966 18.5051 17.6443 17.9529 17.6443H11.3018C10.7495 17.6443 10.3018 17.1966 10.3018 16.6443Z" fill="#909090"/>
<path fill-rule="evenodd" clip-rule="evenodd" d="M14.7133 2.62243C12.0384 2.55259 9.42515 2.48437 6.84377 2.69108C6.11767 2.74922 5.32434 2.82678 4.61889 3.01535C3.89416 3.20908 3.43061 3.47736 3.19752 3.79234C3.11353 3.90582 3.01568 4.13222 2.94692 4.52717C2.8803 4.90984 2.85417 5.36956 2.85181 5.88267C2.84977 6.32769 2.86532 6.78215 2.8809 7.23763C2.88326 7.30646 2.88561 7.37531 2.88791 7.44415C2.90485 7.95195 2.91923 8.47433 2.8947 8.92141C2.77251 11.1479 2.77237 13.616 2.80345 15.5362C2.81895 16.4944 2.84216 17.3122 2.86148 17.89C2.87113 18.1788 2.87981 18.4075 2.88605 18.5636C2.88917 18.6416 2.89169 18.7015 2.89341 18.7417L2.89538 18.7869L2.896 18.8007L2.89707 18.8241V18.8469C2.89707 19.762 2.90304 20.909 3.01221 22.024C3.12223 23.1479 3.32782 24.1222 3.66133 24.7688C3.67831 24.7821 3.72742 24.8162 3.83634 24.8592C4.03196 24.9363 4.31095 24.9977 4.65617 25.0382C5.22858 25.1053 5.82189 25.1001 6.27179 25.0962C6.36852 25.0953 6.45863 25.0945 6.54047 25.0945H9.64435C10.6119 25.0945 11.5766 25.1563 12.5071 25.2159L12.5306 25.2174C13.4791 25.2781 14.3936 25.3361 15.3058 25.3361C15.4282 25.3361 15.5528 25.3356 15.6793 25.3351C16.5065 25.3316 17.4141 25.3277 18.3264 25.4686C19.0987 25.5879 19.8609 25.565 20.6898 25.5022C20.8847 25.4874 21.0872 25.4699 21.2954 25.452C21.9398 25.3964 22.639 25.3361 23.3387 25.3361C24.0471 25.3361 24.479 25.1955 24.7509 25.027C25.0133 24.8644 25.2073 24.6262 25.3544 24.2735C25.6833 23.4855 25.7033 22.354 25.7033 20.9004C25.7033 19.3798 25.7244 17.8827 25.7454 16.3969C25.7868 13.4659 25.8276 10.5788 25.7041 7.64174C25.6576 6.53515 25.5973 5.39876 25.3045 4.47532C25.0225 3.58581 24.5936 3.08831 23.8997 2.92161C22.704 2.63438 21.4676 2.65607 20.094 2.68017C19.6979 2.68712 19.2903 2.69427 18.8691 2.69427C17.4651 2.69427 16.0811 2.65814 14.7133 2.62243ZM0.897068 18.8692L0.895251 18.8274C0.893447 18.7854 0.890853 18.7236 0.887651 18.6435C0.881246 18.4834 0.872407 18.2503 0.862594 17.9568C0.842972 17.3698 0.819436 16.5403 0.803708 15.5686C0.772315 13.629 0.771741 11.107 0.897701 8.81182C0.916639 8.46674 0.906374 8.03111 0.889021 7.51082C0.886825 7.44499 0.884525 7.37797 0.882189 7.30994C0.866656 6.8575 0.849595 6.36051 0.851833 5.87348C0.854403 5.31406 0.882059 4.72691 0.97656 4.18413C1.06892 3.65363 1.23954 3.07599 1.58986 2.60261C2.22537 1.74386 3.22175 1.3186 4.10241 1.08319C5.00234 0.842632 5.95984 0.755455 6.68413 0.697457C9.36688 0.482633 12.1707 0.554886 14.9122 0.625534C16.2532 0.660092 17.5793 0.694266 18.8691 0.694266C19.2034 0.694266 19.5529 0.68761 19.9133 0.680749C21.3228 0.653909 22.8974 0.623929 24.3668 0.976938C26.0026 1.3699 26.8132 2.61595 27.211 3.87092C27.5981 5.09195 27.6579 6.50096 27.7024 7.55771C27.8281 10.5485 27.7862 13.5357 27.7445 16.502C27.7239 17.974 27.7033 19.4408 27.7033 20.9004C27.7033 20.9315 27.7033 20.9626 27.7033 20.9939C27.7036 22.2956 27.7039 23.8366 27.2002 25.0438C26.925 25.7033 26.4872 26.3038 25.8046 26.7269C25.1316 27.1441 24.3054 27.3361 23.3387 27.3361C22.7328 27.3361 22.1564 27.3857 21.5352 27.4392C21.3108 27.4585 21.0805 27.4783 20.8409 27.4965C19.9686 27.5626 19.0236 27.6 18.0212 27.4452C17.2765 27.3302 16.5407 27.3326 15.7028 27.3353C15.573 27.3357 15.4409 27.3361 15.3058 27.3361C14.3216 27.3361 13.346 27.2737 12.4097 27.2137L12.4028 27.2133C11.4537 27.1525 10.5452 27.0945 9.64435 27.0945H6.54047C6.48203 27.0945 6.41047 27.0953 6.32807 27.0961C5.88736 27.1006 5.13646 27.1082 4.42329 27.0246C3.99751 26.9747 3.5265 26.8869 3.10268 26.7198C2.69348 26.5584 2.19201 26.2691 1.9069 25.7297C1.37634 24.726 1.13911 23.4179 1.02172 22.2189C0.902937 21.0056 0.897154 19.7799 0.897068 18.8692Z" fill="#909090"/>
</svg>
