<svg width="27" height="28" viewBox="0 0 27 28" fill="none" xmlns="http://www.w3.org/2000/svg">
<path fill-rule="evenodd" clip-rule="evenodd" d="M12.8521 11.1098C12.6945 11.5819 12.5424 12.0358 12.4604 12.2182C11.8943 13.4762 11.3761 15.0297 10.8707 16.6503C10.7293 17.1038 10.5884 17.564 10.448 18.0227C10.0944 19.1783 9.7434 20.3252 9.39203 21.3354C9.2106 21.857 8.64065 22.1328 8.11902 21.9513C7.59739 21.7699 7.3216 21.1999 7.50304 20.6783C7.84124 19.706 8.17462 18.6166 8.52341 17.4769C8.66634 17.0098 8.81187 16.5343 8.96137 16.0549C9.46793 14.4306 10.0164 12.7756 10.6365 11.3975C10.6363 11.3979 10.6364 11.3977 10.6368 11.3967C10.6388 11.3919 10.6478 11.3699 10.6655 11.322C10.6849 11.2696 10.7092 11.2013 10.7385 11.1169C10.797 10.9482 10.8703 10.7303 10.955 10.4766C10.9898 10.3722 11.0265 10.2621 11.0646 10.1476C11.2104 9.70968 11.3777 9.20734 11.5464 8.71556C11.7581 8.0981 11.9791 7.47688 12.1698 7.00447C12.2634 6.77263 12.361 6.54846 12.4553 6.37166C12.5 6.28808 12.5645 6.17543 12.6479 6.07059C12.6888 6.01928 12.7608 5.93564 12.8649 5.8568C12.9568 5.78719 13.1793 5.64062 13.5005 5.64062C13.8934 5.64062 14.1373 5.86726 14.1724 5.89983C14.1735 5.90084 14.1744 5.90167 14.1751 5.90229C14.2463 5.96729 14.2917 6.02804 14.3088 6.05149C14.3475 6.10448 14.3724 6.14984 14.3794 6.16274C14.3983 6.19713 14.4116 6.22627 14.4158 6.23546C14.4271 6.26014 14.4371 6.28434 14.4435 6.29972C14.4576 6.33417 14.4747 6.37752 14.4921 6.42209C14.5275 6.51315 14.573 6.63267 14.6174 6.74982L14.7411 7.07645C14.7724 7.15907 14.7843 7.18861 14.7837 7.18883C14.7837 7.18883 14.7837 7.18883 14.7837 7.18883C14.9765 7.58263 15.2347 7.95981 15.5439 8.38689C15.5893 8.44955 15.6361 8.5138 15.6841 8.57952C15.9541 8.9497 16.2583 9.36655 16.5181 9.80712C17.161 10.8972 17.4825 12.0619 17.7279 13.1451C17.7971 13.4509 17.8596 13.7455 17.9203 14.0316C18.0836 14.8011 18.234 15.5098 18.4682 16.2123C18.6053 16.6238 18.7432 17.3465 18.8769 18.0479C18.9019 18.179 18.9268 18.3094 18.9515 18.4369C19.1238 19.3264 19.3 20.1541 19.4886 20.6539C19.6835 21.1706 19.4226 21.7475 18.9059 21.9425C18.3892 22.1374 17.8122 21.8766 17.6173 21.3598C17.3574 20.671 17.1525 19.6663 16.988 18.8173C16.9586 18.6656 16.9306 18.5196 16.9038 18.38C16.7665 17.6641 16.6615 17.1169 16.5708 16.8448C16.2978 16.0258 16.1134 15.1557 15.9434 14.3537C15.8873 14.0893 15.8328 13.8323 15.7773 13.5869C15.543 12.5526 15.2753 11.6369 14.7954 10.8231C14.5893 10.4737 14.3512 10.1468 14.0801 9.77466C14.0292 9.70479 13.9772 9.63333 13.9239 9.55983C13.8031 9.39291 13.6775 9.21703 13.5531 9.03193C13.515 9.1411 13.4767 9.25218 13.4382 9.36442C13.2727 9.84676 13.1093 10.3378 12.9637 10.775C12.9251 10.8908 12.8878 11.0028 12.8521 11.1098Z" fill="#4556EB"/>
<path fill-rule="evenodd" clip-rule="evenodd" d="M9.51562 16.4141C9.51562 15.8618 9.96334 15.4141 10.5156 15.4141H17.1667C17.719 15.4141 18.1667 15.8618 18.1667 16.4141C18.1667 16.9663 17.719 17.4141 17.1667 17.4141H10.5156C9.96334 17.4141 9.51562 16.9663 9.51562 16.4141Z" fill="#4556EB"/>
<path fill-rule="evenodd" clip-rule="evenodd" d="M13.9272 2.3922C11.2523 2.32237 8.63902 2.25414 6.05764 2.46085C5.33154 2.51899 4.53821 2.59655 3.83276 2.78513C3.10803 2.97886 2.64447 3.24714 2.41138 3.56211C2.3274 3.67559 2.22955 3.90199 2.16079 4.29695C2.09416 4.67962 2.06804 5.13934 2.06568 5.65244C2.06363 6.09747 2.07918 6.55192 2.09477 7.00741C2.09712 7.07623 2.09948 7.14508 2.10178 7.21392C2.11871 7.72172 2.1331 8.2441 2.10856 8.69119C1.98637 10.9176 1.98624 13.3858 2.01731 15.306C2.03282 16.2641 2.05603 17.0819 2.07534 17.6597C2.085 17.9486 2.09368 18.1773 2.09992 18.3334C2.10304 18.4114 2.10556 18.4713 2.10728 18.5114L2.10925 18.5567L2.10986 18.5705L2.11093 18.5939V18.6167C2.11093 19.5318 2.11691 20.6788 2.22607 21.7938C2.3361 22.9176 2.54169 23.892 2.87519 24.5385C2.89217 24.5519 2.94129 24.586 3.05021 24.629C3.24582 24.7061 3.52481 24.7675 3.87003 24.808C4.44245 24.8751 5.03575 24.8699 5.48566 24.866C5.58239 24.8651 5.67249 24.8643 5.75434 24.8643H8.85821C9.82573 24.8643 10.7904 24.9261 11.721 24.9857L11.7445 24.9872C12.693 25.0479 13.6075 25.1059 14.5197 25.1059C14.6421 25.1059 14.7667 25.1054 14.8931 25.1049C15.7204 25.1014 16.628 25.0975 17.5403 25.2384C18.3126 25.3577 19.0748 25.3348 19.9036 25.2719C20.0986 25.2572 20.301 25.2397 20.5093 25.2218C21.1537 25.1662 21.8529 25.1059 22.5525 25.1059C23.2609 25.1059 23.6929 24.9653 23.9648 24.7968C24.2272 24.6341 24.4211 24.396 24.5683 24.0433C24.8972 23.2552 24.9171 22.1238 24.9171 20.6702C24.9171 19.1495 24.9383 17.6525 24.9593 16.1667C25.0007 13.2356 25.0415 10.3486 24.918 7.41151C24.8715 6.30493 24.8112 5.16854 24.5184 4.24509C24.2364 3.35559 23.8074 2.85808 23.1135 2.69139C21.9179 2.40416 20.6815 2.42585 19.3078 2.44994C18.9117 2.45689 18.5042 2.46404 18.0829 2.46404C16.6789 2.46404 15.295 2.42791 13.9272 2.3922ZM0.110935 18.6389L0.109118 18.5972C0.107315 18.5552 0.10472 18.4934 0.101518 18.4133C0.0951135 18.2532 0.0862738 18.0201 0.0764608 17.7266C0.0568387 17.1395 0.0333028 16.3101 0.0175754 15.3383C-0.0138174 13.3988 -0.0143914 10.8768 0.111568 8.58159C0.130506 8.23651 0.120241 7.80089 0.102888 7.28059C0.100692 7.21476 0.0983917 7.14774 0.0960563 7.07972C0.0805235 6.62727 0.0634619 6.13029 0.0656997 5.64325C0.0682702 5.08383 0.0959259 4.49668 0.190427 3.9539C0.282788 3.42341 0.453406 2.84577 0.803727 2.37239C1.43924 1.51363 2.43562 1.08838 3.31627 0.852969C4.21621 0.612408 5.1737 0.52523 5.89799 0.467232C8.58075 0.252408 11.3845 0.324662 14.126 0.395309C15.4671 0.429867 16.7932 0.464041 18.0829 0.464041C18.4172 0.464041 18.7668 0.457385 19.1271 0.450524C20.5367 0.423685 22.1112 0.393704 23.5807 0.746713C25.2165 1.13968 26.027 2.38572 26.4249 3.6407C26.812 4.86173 26.8718 6.27073 26.9162 7.32749C27.042 10.3182 27.0001 13.3054 26.9584 16.2718C26.9377 17.7438 26.9171 19.2106 26.9171 20.6702C26.9171 20.7012 26.9171 20.7324 26.9171 20.7637C26.9174 22.0653 26.9178 23.6064 26.414 24.8136C26.1388 25.473 25.701 26.0736 25.0185 26.4967C24.3455 26.9138 23.5192 27.1059 22.5525 27.1059C21.9466 27.1059 21.3703 27.1555 20.7491 27.2089C20.5247 27.2283 20.2944 27.2481 20.0548 27.2662C19.1825 27.3323 18.2375 27.3698 17.235 27.215C16.4904 27.1 15.7545 27.1024 14.9166 27.1051C14.7869 27.1055 14.6547 27.1059 14.5197 27.1059C13.5355 27.1059 12.5599 27.0435 11.6236 26.9835L11.6167 26.9831C10.6676 26.9223 9.75903 26.8643 8.85821 26.8643H5.75434C5.6959 26.8643 5.62434 26.865 5.54194 26.8659C5.10123 26.8704 4.35033 26.878 3.63716 26.7944C3.21138 26.7445 2.74037 26.6567 2.31654 26.4895C1.90735 26.3282 1.40588 26.0389 1.12077 25.4995C0.590212 24.4958 0.352978 23.1877 0.235589 21.9887C0.116804 20.7754 0.111021 19.5497 0.110935 18.6389Z" fill="#4556EB"/>
</svg>
