<svg width="28" height="28" viewBox="0 0 28 28" fill="none" xmlns="http://www.w3.org/2000/svg">
<path fill-rule="evenodd" clip-rule="evenodd" d="M0.455662 18.9807L0.453844 18.939C0.452041 18.897 0.449447 18.8352 0.446245 18.7551C0.43984 18.595 0.431 18.3619 0.421187 18.0683C0.401565 17.4813 0.378029 16.6519 0.362302 15.6801C0.330909 13.7405 0.330335 11.2186 0.456295 8.92339C0.475233 8.57831 0.464967 8.14269 0.447615 7.62239C0.445419 7.55656 0.443118 7.48954 0.440783 7.42151C0.42525 6.96907 0.408188 6.47209 0.410426 5.98505C0.412997 5.42563 0.440652 4.83848 0.535153 4.2957C0.627515 3.7652 0.798133 3.18757 1.14845 2.71418C1.78397 1.85543 2.78035 1.43017 3.661 1.19477C4.56093 0.954204 5.51843 0.867027 6.24272 0.809029C8.92547 0.594205 11.7293 0.666458 14.4708 0.737106C15.8118 0.771664 17.1379 0.805838 18.4277 0.805838C18.7619 0.805838 19.1115 0.799182 19.4719 0.792321C20.8814 0.765481 22.456 0.735501 23.9254 1.08851C25.5612 1.48147 26.3718 2.72752 26.7696 3.98249C27.1567 5.20352 27.2165 6.61253 27.261 7.66929C27.3867 10.66 27.3448 13.6472 27.3031 16.6136C27.2825 18.0856 27.2619 19.5524 27.2619 21.012C27.2619 21.043 27.2619 21.0742 27.2619 21.1055C27.2622 22.4071 27.2625 23.9482 26.7588 25.1554C26.4836 25.8148 26.0458 26.4154 25.3632 26.8385C24.6902 27.2556 23.864 27.4477 22.8973 27.4477C22.2913 27.4477 21.715 27.4973 21.0938 27.5507C20.8694 27.5701 20.6391 27.5899 20.3995 27.608C19.5272 27.6741 18.5822 27.7116 17.5798 27.5568C16.8351 27.4418 16.0993 27.4442 15.2614 27.4469C15.1316 27.4473 14.9995 27.4477 14.8644 27.4477C13.8802 27.4477 12.9046 27.3853 11.9683 27.3253L11.9614 27.3249C11.0123 27.2641 10.1038 27.2061 9.20294 27.2061H6.09906C6.04062 27.2061 5.96907 27.2068 5.88667 27.2077C5.44595 27.2122 4.69505 27.2198 3.98188 27.1362C3.5561 27.0863 3.08509 26.9985 2.66127 26.8313C2.25207 26.67 1.75061 26.3807 1.46549 25.8413C0.934938 24.8376 0.697704 23.5295 0.580315 22.3305C0.46153 21.1172 0.455747 19.8915 0.455662 18.9807Z" fill="#4556EB"/>
<path fill-rule="evenodd" clip-rule="evenodd" d="M11.4159 8.07371L11.4159 8.07371C11.5407 8.05523 11.6655 8.03674 11.7894 8.01876C12.5667 7.90602 13.371 7.80227 14.1341 7.78255C15.768 7.74034 16.6687 8.09055 17.0073 8.85257C17.2921 9.49329 17.1437 10.2583 16.6537 11.0912C16.5667 11.2392 16.2682 11.4918 15.7058 11.756C15.1894 11.9985 14.6163 12.1745 14.2207 12.2624C13.8918 12.3355 13.6693 12.3815 13.4808 12.4204C13.3599 12.4454 13.253 12.4675 13.1411 12.492C13.0474 12.5125 12.8982 12.5452 12.777 12.5906C12.7416 12.6038 12.6772 12.6294 12.6048 12.671L12.6047 12.671C12.5586 12.6975 12.3736 12.8037 12.2371 13.0269C12.1574 13.1571 12.0844 13.3444 12.0889 13.5732C12.0935 13.8036 12.1749 13.9915 12.2655 14.1236C12.4195 14.3483 12.6202 14.4449 12.6692 14.4684L12.6694 14.4685C12.7971 14.53 12.9195 14.5557 12.9566 14.5635L12.9593 14.564C13.0167 14.5761 13.0764 14.5858 13.1281 14.5936C13.2154 14.6066 13.327 14.6211 13.4479 14.6367L13.448 14.6367L13.5142 14.6453C13.8165 14.6846 14.2334 14.7403 14.7647 14.8322C15.5998 14.9768 16.7131 15.6193 17.3215 16.4226C17.6151 16.8103 17.7312 17.1558 17.726 17.4342C17.7214 17.6819 17.6194 18.015 17.1785 18.4118C17.0053 18.5677 16.6235 18.7716 15.9964 18.9754C15.3971 19.1701 14.6739 19.3337 13.9139 19.4649C12.8822 19.6429 11.8293 19.7533 11.0025 19.8061C11.032 19.4432 11.0744 19.0841 11.1193 18.7068L11.1214 18.6896C11.2024 18.0086 11.2905 17.2672 11.2905 16.4271C11.2905 15.723 11.1635 14.4549 11.0253 13.0755C11.0002 12.8249 10.9747 12.5707 10.9495 12.3155C10.811 10.9095 10.6767 9.42964 10.6329 8.18607C10.8871 8.15203 11.1513 8.1129 11.4159 8.07371ZM8.627 7.27469C8.63203 6.75081 9.04406 6.31454 9.57442 6.28663C9.96327 6.26616 10.465 6.19215 11.0886 6.10016C11.221 6.08063 11.3589 6.06029 11.5023 6.03948C12.2867 5.9257 13.1918 5.80623 14.0824 5.78322C15.7559 5.73998 17.9398 6.02628 18.835 8.04029C19.5028 9.54293 19.007 11.0352 18.3776 12.1052C18.0138 12.7237 17.3609 13.1593 16.784 13.4545C17.6005 13.8833 18.3723 14.4974 18.9159 15.2152C19.3841 15.8334 19.7418 16.6075 19.7257 17.4715C19.709 18.3662 19.2944 19.1982 18.5164 19.8984C18.0213 20.344 17.3085 20.6519 16.6145 20.8774C15.8926 21.112 15.0683 21.2952 14.254 21.4358C12.6295 21.7161 10.9448 21.8433 10.0004 21.8433C9.55817 21.8433 9.183 21.5563 9.05102 21.1583C8.99388 21.0325 8.96207 20.8927 8.96207 20.7454C8.96207 19.9102 9.04993 19.1716 9.13076 18.4921L9.13331 18.4706C9.21598 17.7755 9.29055 17.1397 9.29055 16.4271C9.29055 15.833 9.177 14.6961 9.03757 13.3001L9.03756 13.3C9.01212 13.0453 8.98581 12.7819 8.95918 12.5116C8.7918 10.8131 8.61816 8.89364 8.61816 7.4082C8.61816 7.36293 8.62117 7.31836 8.627 7.27469Z" fill="#F3F4F6"/>
</svg>
