<svg width="28" height="28" viewBox="0 0 28 28" fill="none" xmlns="http://www.w3.org/2000/svg">
<path fill-rule="evenodd" clip-rule="evenodd" d="M14.0541 2.12145C11.3793 2.05162 8.76597 1.98339 6.18459 2.1901C5.45849 2.24824 4.66516 2.3258 3.95971 2.51438C3.23498 2.70811 2.77143 2.97639 2.53834 3.29136C2.45435 3.40484 2.3565 3.63124 2.28774 4.0262C2.22112 4.40887 2.19499 4.86858 2.19263 5.38169C2.19059 5.82671 2.20614 6.28117 2.22172 6.73665C2.22408 6.80548 2.22643 6.87433 2.22873 6.94317C2.24567 7.45097 2.26005 7.97335 2.23552 8.42043C2.11333 10.6469 2.11319 13.1151 2.14427 15.0352C2.15977 15.9934 2.18298 16.8112 2.2023 17.389C2.21195 17.6778 2.22063 17.9065 2.22687 18.0626C2.22999 18.1406 2.23251 18.2005 2.23423 18.2407L2.2362 18.2859L2.23682 18.2997L2.23789 18.3232V18.346C2.23789 19.261 2.24386 20.408 2.35303 21.523C2.46305 22.6469 2.66864 23.6213 3.00215 24.2678C3.01913 24.2811 3.06824 24.3153 3.17716 24.3582C3.37278 24.4354 3.65177 24.4968 3.99699 24.5372C4.5694 24.6043 5.16271 24.5991 5.61261 24.5952C5.70934 24.5944 5.79945 24.5936 5.88129 24.5936H8.98517C9.95268 24.5936 10.9174 24.6553 11.848 24.7149L11.8714 24.7164C12.82 24.7771 13.7345 24.8352 14.6466 24.8352C14.7691 24.8352 14.8936 24.8346 15.0201 24.8341C15.8473 24.8306 16.7549 24.8268 17.6672 24.9677C18.4396 25.0869 19.2018 25.064 20.0306 25.0012C20.2255 24.9864 20.428 24.969 20.6362 24.951C21.2806 24.8955 21.9799 24.8352 22.6795 24.8352C23.3879 24.8352 23.8198 24.6946 24.0917 24.526C24.3541 24.3634 24.5481 24.1252 24.6953 23.7726C25.0241 22.9845 25.0441 21.853 25.0441 20.3995C25.0441 18.8788 25.0652 17.3817 25.0862 15.896C25.1277 12.9649 25.1685 10.0779 25.045 7.14076C24.9984 6.03417 24.9381 4.89778 24.6454 3.97434C24.3634 3.08484 23.9344 2.58733 23.2405 2.42063C22.0448 2.13341 20.8085 2.1551 19.4348 2.17919C19.0387 2.18614 18.6311 2.19329 18.2099 2.19329C16.8059 2.19329 15.422 2.15716 14.0541 2.12145ZM0.237888 18.3682L0.236071 18.3264C0.234268 18.2844 0.231674 18.2226 0.228471 18.1425C0.222067 17.9825 0.213227 17.7494 0.203414 17.4558C0.183792 16.8688 0.160256 16.0393 0.144528 15.0676C0.113136 13.128 0.112562 10.606 0.238522 8.31084C0.25746 7.96576 0.247194 7.53014 0.229841 7.00984C0.227646 6.94401 0.225345 6.87699 0.223009 6.80897C0.207477 6.35652 0.190415 5.85954 0.192653 5.3725C0.195223 4.81308 0.222879 4.22593 0.31738 3.68315C0.409741 3.15265 0.580359 2.57502 0.93068 2.10163C1.56619 1.24288 2.56257 0.817626 3.44323 0.582217C4.34316 0.341656 5.30066 0.254478 6.02495 0.19648C8.7077 -0.0183438 11.5115 0.0539096 14.253 0.124557C15.594 0.159115 16.9201 0.193289 18.2099 0.193289C18.5442 0.193289 18.8937 0.186633 19.2541 0.179772C20.6637 0.152933 22.2382 0.122952 23.7077 0.475961C25.3434 0.868924 26.154 2.11497 26.5518 3.36994C26.9389 4.59097 26.9988 5.99998 27.0432 7.05674C27.169 10.0475 27.127 13.0347 27.0854 16.0011C27.0647 17.473 27.0441 18.9399 27.0441 20.3995C27.0441 20.4305 27.0441 20.4616 27.0441 20.493C27.0444 21.7946 27.0447 23.3357 26.541 24.5428C26.2658 25.2023 25.828 25.8029 25.1454 26.2259C24.4724 26.6431 23.6462 26.8352 22.6795 26.8352C22.0736 26.8352 21.4972 26.8847 20.876 26.9382C20.6516 26.9575 20.4213 26.9773 20.1817 26.9955C19.3094 27.0616 18.3644 27.099 17.362 26.9442C16.6173 26.8292 15.8815 26.8316 15.0436 26.8343C14.9139 26.8347 14.7817 26.8352 14.6466 26.8352C13.6624 26.8352 12.6868 26.7727 11.7505 26.7128L11.7436 26.7123C10.7945 26.6516 9.88598 26.5936 8.98517 26.5936H5.88129C5.82285 26.5936 5.75129 26.5943 5.66889 26.5951C5.22818 26.5996 4.47728 26.6072 3.76411 26.5236C3.33833 26.4737 2.86732 26.3859 2.4435 26.2188C2.0343 26.0574 1.53283 25.7681 1.24772 25.2288C0.717165 24.2251 0.479931 22.917 0.362542 21.7179C0.243757 20.5046 0.237974 19.2789 0.237888 18.3682Z" fill="#909090"/>
<path fill-rule="evenodd" clip-rule="evenodd" d="M10.5428 6.8784L10.5428 6.8784C10.6676 6.85992 10.7925 6.84143 10.9164 6.82345C11.6936 6.71071 12.4979 6.60696 13.261 6.58724C14.895 6.54502 15.7956 6.89523 16.1343 7.65726C16.4191 8.29798 16.2706 9.06301 15.7807 9.89589C15.6936 10.0439 15.3952 10.2965 14.8327 10.5607C14.3163 10.8032 13.7433 10.9792 13.3476 11.0671C13.0188 11.1402 12.7962 11.1862 12.6077 11.2251C12.4868 11.2501 12.38 11.2722 12.268 11.2967C12.1743 11.3172 12.0252 11.3499 11.904 11.3953C11.8685 11.4085 11.8041 11.4341 11.7317 11.4757L11.7317 11.4757C11.6855 11.5022 11.5005 11.6084 11.364 11.8316C11.2844 11.9618 11.2113 12.149 11.2159 12.3779C11.2204 12.6083 11.3019 12.7961 11.3925 12.9283C11.5465 13.153 11.7471 13.2495 11.7961 13.2731L11.7964 13.2732C11.9241 13.3347 12.0465 13.3604 12.0835 13.3681L12.0862 13.3687C12.1437 13.3808 12.2033 13.3905 12.2551 13.3982C12.3423 13.4113 12.454 13.4258 12.5748 13.4414L12.575 13.4414L12.6411 13.45C12.9434 13.4893 13.3603 13.5449 13.8917 13.6369C14.7268 13.7814 15.8401 14.424 16.4485 15.2273C16.742 15.615 16.8582 15.9605 16.853 16.2389C16.8483 16.4866 16.7464 16.8197 16.3054 17.2165C16.1322 17.3724 15.7505 17.5762 15.1233 17.78C14.5241 17.9748 13.8008 18.1384 13.0409 18.2696C12.0092 18.4476 10.9562 18.558 10.1295 18.6108C10.1589 18.2479 10.2014 17.8888 10.2463 17.5115L10.2483 17.4943C10.3293 16.8132 10.4175 16.0719 10.4175 15.2318C10.4175 14.5277 10.2904 13.2596 10.1522 11.8802C10.1271 11.6296 10.1016 11.3754 10.0765 11.1202C9.93794 9.71421 9.80361 8.23433 9.75989 6.99076C10.0141 6.95672 10.2783 6.91758 10.5428 6.8784ZM7.75395 6.07938C7.75898 5.5555 8.17102 5.11923 8.70137 5.09132C9.09023 5.07085 9.59198 4.99683 10.2156 4.90484C10.348 4.88532 10.4858 4.86498 10.6293 4.84417C11.4137 4.73039 12.3187 4.61092 13.2094 4.58791C14.8828 4.54467 17.0668 4.83097 17.9619 6.84498C18.6298 8.34762 18.134 9.83988 17.5045 10.9099C17.1408 11.5284 16.4879 11.964 15.911 12.2592C16.7275 12.6879 17.4993 13.3021 18.0429 14.0199C18.511 14.6381 18.8688 15.4122 18.8526 16.2762C18.8359 17.1708 18.4214 18.0029 17.6433 18.7031C17.1483 19.1487 16.4354 19.4566 15.7414 19.6821C15.0196 19.9167 14.1953 20.0999 13.381 20.2404C11.7565 20.5208 10.0717 20.648 9.12734 20.648C8.68512 20.648 8.30995 20.361 8.17797 19.963C8.12084 19.8372 8.08902 19.6974 8.08902 19.5501C8.08902 18.7149 8.17688 17.9763 8.25771 17.2967L8.26026 17.2753C8.34294 16.5802 8.4175 15.9444 8.4175 15.2318C8.4175 14.6377 8.30395 13.5008 8.16452 12.1048L8.16452 12.1047C8.13907 11.85 8.11277 11.5866 8.08613 11.3163C7.91875 9.61774 7.74512 7.69832 7.74512 6.21289C7.74512 6.16762 7.74813 6.12305 7.75395 6.07938Z" fill="#909090"/>
</svg>
