<svg width="27" height="28" viewBox="0 0 27 28" fill="none" xmlns="http://www.w3.org/2000/svg">
<path fill-rule="evenodd" clip-rule="evenodd" d="M13.9272 2.22423C11.2523 2.1544 8.63902 2.08617 6.05764 2.29288C5.33154 2.35102 4.53821 2.42859 3.83276 2.61716C3.10803 2.81089 2.64447 3.07917 2.41138 3.39414C2.3274 3.50763 2.22955 3.73402 2.16079 4.12898C2.09416 4.51165 2.06804 4.97137 2.06568 5.48447C2.06363 5.9295 2.07918 6.38395 2.09477 6.83944C2.09712 6.90826 2.09948 6.97711 2.10178 7.04596C2.11871 7.55375 2.1331 8.07614 2.10856 8.52322C1.98637 10.7497 1.98624 13.2178 2.01731 15.138C2.03282 16.0962 2.05603 16.914 2.07534 17.4918C2.085 17.7806 2.09368 18.0093 2.09992 18.1654C2.10304 18.2434 2.10556 18.3033 2.10728 18.3435L2.10925 18.3887L2.10986 18.4025L2.11093 18.4259V18.4487C2.11093 19.3638 2.11691 20.5108 2.22607 21.6258C2.3361 22.7497 2.54169 23.724 2.87519 24.3706C2.89217 24.3839 2.94129 24.4181 3.05021 24.461C3.24582 24.5381 3.52481 24.5995 3.87003 24.64C4.44245 24.7071 5.03575 24.7019 5.48566 24.698C5.58239 24.6971 5.67249 24.6964 5.75434 24.6964H8.85821C9.82573 24.6964 10.7904 24.7581 11.721 24.8177L11.7445 24.8192C12.693 24.8799 13.6075 24.9379 14.5197 24.9379C14.6421 24.9379 14.7667 24.9374 14.8931 24.9369C15.7204 24.9334 16.628 24.9296 17.5403 25.0705C18.3126 25.1897 19.0748 25.1668 19.9036 25.104C20.0986 25.0892 20.301 25.0717 20.5093 25.0538C21.1537 24.9982 21.8529 24.9379 22.5525 24.9379C23.2609 24.9379 23.6929 24.7973 23.9648 24.6288C24.2272 24.4662 24.4211 24.228 24.5683 23.8754C24.8972 23.0873 24.9171 21.9558 24.9171 20.5022C24.9171 18.9816 24.9383 17.4845 24.9593 15.9987C25.0007 13.0677 25.0415 10.1807 24.918 7.24354C24.8715 6.13696 24.8112 5.00057 24.5184 4.07712C24.2364 3.18762 23.8074 2.69011 23.1135 2.52342C21.9179 2.23619 20.6815 2.25788 19.3078 2.28198C18.9117 2.28892 18.5042 2.29607 18.0829 2.29607C16.6789 2.29607 15.295 2.25994 13.9272 2.22423ZM0.110935 18.471L0.109118 18.4292C0.107315 18.3872 0.10472 18.3254 0.101518 18.2453C0.0951135 18.0852 0.0862738 17.8521 0.0764608 17.5586C0.0568387 16.9716 0.0333028 16.1421 0.0175754 15.1704C-0.0138174 13.2308 -0.0143914 10.7088 0.111568 8.41362C0.130506 8.06854 0.120241 7.63292 0.102888 7.11262C0.100692 7.04679 0.0983917 6.97978 0.0960563 6.91175C0.0805235 6.4593 0.0634619 5.96232 0.0656997 5.47529C0.0682702 4.91586 0.0959259 4.32871 0.190427 3.78593C0.282788 3.25544 0.453406 2.6778 0.803727 2.20442C1.43924 1.34566 2.43562 0.920409 3.31627 0.685001C4.21621 0.444439 5.1737 0.357262 5.89799 0.299263C8.58075 0.0844394 11.3845 0.156693 14.126 0.22734C15.4671 0.261899 16.7932 0.296073 18.0829 0.296073C18.4172 0.296073 18.7668 0.289417 19.1271 0.282555C20.5367 0.255716 22.1112 0.225736 23.5807 0.578744C25.2165 0.971707 26.027 2.21775 26.4249 3.47273C26.812 4.69376 26.8718 6.10276 26.9162 7.15952C27.042 10.1503 27.0001 13.1375 26.9584 16.1038C26.9377 17.5758 26.9171 19.0426 26.9171 20.5022C26.9171 20.5333 26.9171 20.5644 26.9171 20.5957C26.9174 21.8974 26.9178 23.4384 26.414 24.6456C26.1388 25.3051 25.701 25.9056 25.0185 26.3287C24.3455 26.7459 23.5192 26.9379 22.5525 26.9379C21.9466 26.9379 21.3703 26.9875 20.7491 27.041C20.5247 27.0603 20.2944 27.0801 20.0548 27.0983C19.1825 27.1644 18.2375 27.2018 17.235 27.047C16.4904 26.932 15.7545 26.9344 14.9166 26.9371C14.7869 26.9375 14.6547 26.9379 14.5197 26.9379C13.5355 26.9379 12.5599 26.8755 11.6236 26.8155L11.6167 26.8151C10.6676 26.7543 9.75903 26.6964 8.85821 26.6964H5.75434C5.6959 26.6964 5.62434 26.6971 5.54194 26.6979C5.10123 26.7024 4.35033 26.71 3.63716 26.6264C3.21138 26.5765 2.74037 26.4887 2.31654 26.3216C1.90735 26.1602 1.40588 25.8709 1.12077 25.3315C0.590212 24.3278 0.352978 23.0197 0.235589 21.8207C0.116804 20.6074 0.111021 19.3817 0.110935 18.471Z" fill="#4556EB"/>
<path fill-rule="evenodd" clip-rule="evenodd" d="M10.4159 6.98094L10.4159 6.98094C10.5407 6.96246 10.6655 6.94397 10.7894 6.92599C11.5667 6.81325 12.371 6.7095 13.1341 6.68978C14.768 6.64756 15.6687 6.99777 16.0073 7.7598C16.2921 8.40052 16.1437 9.16555 15.6537 9.99843C15.5667 10.1465 15.2682 10.3991 14.7058 10.6632C14.1894 10.9057 13.6163 11.0817 13.2207 11.1697C12.8918 11.2427 12.6693 11.2887 12.4808 11.3277C12.3599 11.3526 12.253 11.3747 12.1411 11.3992C12.0474 11.4197 11.8982 11.4525 11.777 11.4978C11.7416 11.5111 11.6772 11.5367 11.6048 11.5782L11.6047 11.5783C11.5586 11.6047 11.3736 11.7109 11.2371 11.9341C11.1574 12.0643 11.0844 12.2516 11.0889 12.4805C11.0935 12.7109 11.1749 12.8987 11.2655 13.0308C11.4195 13.2555 11.6202 13.3521 11.6692 13.3757L11.6694 13.3758C11.7971 13.4372 11.9195 13.4629 11.9566 13.4707L11.9593 13.4713C12.0167 13.4834 12.0764 13.493 12.1281 13.5008C12.2154 13.5139 12.327 13.5283 12.4479 13.544L12.448 13.544L12.5142 13.5525C12.8165 13.5918 13.2334 13.6475 13.7647 13.7394C14.5998 13.884 15.7131 14.5265 16.3215 15.3299C16.6151 15.7175 16.7312 16.063 16.726 16.3414C16.7214 16.5891 16.6194 16.9222 16.1785 17.3191C16.0053 17.475 15.6235 17.6788 14.9964 17.8826C14.3971 18.0773 13.6739 18.241 12.9139 18.3721C11.8822 18.5501 10.8293 18.6606 10.0025 18.7133C10.032 18.3505 10.0744 17.9913 10.1193 17.614L10.1214 17.5969C10.2024 16.9158 10.2905 16.1744 10.2905 15.3343C10.2905 14.6302 10.1635 13.3622 10.0253 11.9827C10.0002 11.7322 9.97469 11.4779 9.94954 11.2227C9.81099 9.81674 9.67665 8.33686 9.63294 7.0933C9.88711 7.05925 10.1513 7.02012 10.4159 6.98094ZM7.627 6.18191C7.63203 5.65804 8.04406 5.22177 8.57442 5.19386C8.96327 5.17339 9.46503 5.09937 10.0886 5.00738C10.221 4.98785 10.3589 4.96752 10.5023 4.94671C11.2867 4.83293 12.1918 4.71346 13.0824 4.69045C14.7559 4.64721 16.9398 4.93351 17.835 6.94752C18.5028 8.45016 18.007 9.94242 17.3776 11.0125C17.0138 11.6309 16.3609 12.0665 15.784 12.3618C16.6005 12.7905 17.3723 13.4046 17.9159 14.1224C18.3841 14.7407 18.7418 15.5147 18.7257 16.3787C18.709 17.2734 18.2944 18.1054 17.5164 18.8057C17.0213 19.2512 16.3085 19.5592 15.6145 19.7847C14.8926 20.0192 14.0683 20.2025 13.254 20.343C11.6295 20.6233 9.94479 20.7505 9.00039 20.7505C8.55817 20.7505 8.183 20.4635 8.05102 20.0656C7.99388 19.9397 7.96207 19.7999 7.96207 19.6527C7.96207 18.8174 8.04993 18.0788 8.13076 17.3993L8.13331 17.3778C8.21598 16.6827 8.29055 16.0469 8.29055 15.3343C8.29055 14.7402 8.177 13.6033 8.03757 12.2073L8.03756 12.2073C8.01212 11.9525 7.98581 11.6891 7.95918 11.4188C7.7918 9.72028 7.61816 7.80086 7.61816 6.31543C7.61816 6.27016 7.62117 6.22559 7.627 6.18191Z" fill="#4556EB"/>
</svg>
