<svg width="28" height="28" viewBox="0 0 28 28" fill="none" xmlns="http://www.w3.org/2000/svg">
<path fill-rule="evenodd" clip-rule="evenodd" d="M14.9369 2.32482C12.2621 2.25499 9.64879 2.18676 7.0674 2.39347C6.34131 2.45161 5.54798 2.52917 4.84253 2.71775C4.1178 2.91147 3.65424 3.17975 3.42115 3.49473C3.33717 3.60821 3.23932 3.83461 3.17055 4.22957C3.10393 4.61224 3.0778 5.07195 3.07544 5.58506C3.0734 6.03008 3.08895 6.48454 3.10454 6.94002C3.10689 7.00885 3.10925 7.0777 3.11154 7.14654C3.12848 7.65434 3.14287 8.17672 3.11833 8.6238C2.99614 10.8503 2.996 13.3184 3.02708 15.2386C3.04259 16.1968 3.0658 17.0146 3.08511 17.5924C3.09476 17.8812 3.10344 18.1099 3.10969 18.266C3.11281 18.344 3.11532 18.4039 3.11704 18.444L3.11901 18.4893L3.11963 18.5031L3.1207 18.5265V18.5493C3.1207 19.4644 3.12667 20.6114 3.23584 21.7264C3.34586 22.8502 3.55145 23.8246 3.88496 24.4712C3.90194 24.4845 3.95105 24.5186 4.05998 24.5616C4.25559 24.6387 4.53458 24.7001 4.8798 24.7406C5.45221 24.8077 6.04552 24.8025 6.49542 24.7986C6.59216 24.7977 6.68226 24.7969 6.7641 24.7969H9.86798C10.8355 24.7969 11.8002 24.8587 12.7308 24.9183L12.7542 24.9198C13.7028 24.9805 14.6173 25.0385 15.5295 25.0385C15.6519 25.0385 15.7765 25.038 15.9029 25.0375C16.7302 25.034 17.6377 25.0301 18.5501 25.171C19.3224 25.2903 20.0846 25.2674 20.9134 25.2046C21.1083 25.1898 21.3108 25.1723 21.519 25.1544C22.1634 25.0988 22.8627 25.0385 23.5623 25.0385C24.2707 25.0385 24.7026 24.8979 24.9746 24.7294C25.2369 24.5668 25.4309 24.3286 25.5781 23.9759C25.9069 23.1879 25.9269 22.0564 25.9269 20.6028C25.9269 19.0822 25.9481 17.5851 25.9691 16.0993C26.0105 13.1683 26.0513 10.2812 25.9278 7.34413C25.8813 6.23754 25.8209 5.10115 25.5282 4.17771C25.2462 3.28821 24.8172 2.7907 24.1233 2.624C22.9277 2.33678 21.6913 2.35846 20.3176 2.38256C19.9215 2.38951 19.514 2.39666 19.0927 2.39666C17.6887 2.39666 16.3048 2.36053 14.9369 2.32482ZM1.1207 18.5715L1.11888 18.5298C1.11708 18.4878 1.11449 18.426 1.11128 18.3459C1.10488 18.1858 1.09604 17.9527 1.08623 17.6592C1.0666 17.0722 1.04307 16.2427 1.02734 15.271C0.995948 13.3314 0.995374 10.8094 1.12133 8.51421C1.14027 8.16913 1.13001 7.73351 1.11265 7.21321C1.11046 7.14738 1.10816 7.08036 1.10582 7.01234C1.09029 6.55989 1.07323 6.06291 1.07547 5.57587C1.07804 5.01645 1.10569 4.4293 1.20019 3.88652C1.29255 3.35602 1.46317 2.77839 1.81349 2.305C2.449 1.44625 3.44539 1.02099 4.32604 0.785587C5.22597 0.545025 6.18347 0.457848 6.90776 0.399849C9.59051 0.185025 12.3943 0.257279 15.1358 0.327926C16.4768 0.362485 17.803 0.396659 19.0927 0.396659C19.427 0.396659 19.7765 0.390003 20.1369 0.383141C21.5465 0.356302 23.121 0.326322 24.5905 0.67933C26.2263 1.07229 27.0368 2.31834 27.4347 3.57331C27.8218 4.79434 27.8816 6.20335 27.926 7.26011C28.0518 10.2509 28.0098 13.2381 27.9682 16.2044C27.9475 17.6764 27.9269 19.1432 27.9269 20.6028C27.9269 20.6338 27.9269 20.665 27.9269 20.6963C27.9272 21.998 27.9276 23.539 27.4238 24.7462C27.1486 25.4056 26.7108 26.0062 26.0282 26.4293C25.3552 26.8465 24.529 27.0385 23.5623 27.0385C22.9564 27.0385 22.38 27.0881 21.7588 27.1416C21.5344 27.1609 21.3042 27.1807 21.0645 27.1988C20.1922 27.2649 19.2472 27.3024 18.2448 27.1476C17.5001 27.0326 16.7643 27.035 15.9264 27.0377C15.7967 27.0381 15.6645 27.0385 15.5295 27.0385C14.5452 27.0385 13.5696 26.9761 12.6334 26.9161L12.6264 26.9157C11.6773 26.8549 10.7688 26.7969 9.86798 26.7969H6.7641C6.70566 26.7969 6.63411 26.7977 6.55171 26.7985C6.11099 26.803 5.36009 26.8106 4.64692 26.727C4.22114 26.6771 3.75013 26.5893 3.32631 26.4222C2.91711 26.2608 2.41564 25.9715 2.13053 25.4321C1.59998 24.4284 1.36274 23.1203 1.24535 21.9213C1.12657 20.708 1.12079 19.4823 1.1207 18.5715Z" fill="#34AF42"/>
<path fill-rule="evenodd" clip-rule="evenodd" d="M12.4835 6.53756C15.1426 5.88127 18.3702 6.46351 20.4894 8.37082C20.8999 8.74028 20.9332 9.37257 20.5638 9.78308C20.1943 10.1936 19.562 10.2269 19.1515 9.85741C17.5974 8.45869 15.0786 7.95707 12.9628 8.47929C11.9219 8.73619 11.045 9.22588 10.4467 9.90449C9.86192 10.5678 9.49564 11.4634 9.53969 12.6528C9.65016 15.6355 11.2798 18.0231 14.1594 18.9645C14.9419 19.2203 16.1923 19.3291 17.352 19.1413C18.5602 18.9456 19.3216 18.4924 19.5896 17.9564C19.8366 17.4624 20.4372 17.2622 20.9312 17.5092C21.4252 17.7562 21.6254 18.3568 21.3784 18.8508C20.6652 20.2772 19.0603 20.8907 17.6718 21.1156C16.2347 21.3483 14.6581 21.2317 13.5379 20.8655C9.79043 19.6403 7.67967 16.4691 7.54106 12.7268C7.47876 11.0446 8.01013 9.64402 8.94645 8.58191C9.86932 7.53506 11.1369 6.86991 12.4835 6.53756Z" fill="#34AF42"/>
<path fill-rule="evenodd" clip-rule="evenodd" d="M0.825779 18.3303L0.823962 18.2886C0.822158 18.2466 0.819564 18.1848 0.816362 18.1047C0.809957 17.9446 0.801118 17.7115 0.791305 17.418C0.771682 16.8309 0.748147 16.0015 0.732419 15.0297C0.701026 13.0902 0.700452 10.5682 0.826412 8.273C0.84535 7.92792 0.835085 7.4923 0.817732 6.972C0.815536 6.90617 0.813235 6.83915 0.8109 6.77112C0.795367 6.31868 0.778306 5.8217 0.780543 5.33466C0.783114 4.77524 0.81077 4.18809 0.90527 3.64531C0.997632 3.11481 1.16825 2.53718 1.51857 2.06379C2.15408 1.20504 3.15046 0.779784 4.03112 0.544376C4.93105 0.303814 5.88855 0.216637 6.61284 0.158638C9.29559 -0.0561856 12.0994 0.0160678 14.8409 0.0867154C16.1819 0.121274 17.508 0.155448 18.7978 0.155448C19.1321 0.155448 19.4816 0.148792 19.842 0.14193C21.2516 0.115091 22.8261 0.0851107 24.2955 0.438119C25.9313 0.831082 26.7419 2.07713 27.1397 3.3321C27.5268 4.55313 27.5867 5.96214 27.6311 7.0189C27.7568 10.0096 27.7149 12.9968 27.6732 15.9632C27.6526 17.4352 27.632 18.902 27.632 20.3616C27.632 20.3926 27.632 20.4238 27.632 20.4551C27.6323 21.7567 27.6326 23.2978 27.1289 24.505C26.8537 25.1644 26.4159 25.765 25.7333 26.1881C25.0603 26.6052 24.2341 26.7973 23.2674 26.7973C22.6615 26.7973 22.0851 26.8469 21.4639 26.9004C21.2395 26.9197 21.0092 26.9395 20.7696 26.9576C19.8973 27.0237 18.9523 27.0612 17.9499 26.9064C17.2052 26.7914 16.4694 26.7938 15.6315 26.7965C15.5017 26.7969 15.3696 26.7973 15.2345 26.7973C14.2503 26.7973 13.2747 26.7349 12.3384 26.6749L12.3315 26.6745C11.3824 26.6137 10.4739 26.5557 9.57306 26.5557H6.46918C6.41074 26.5557 6.33918 26.5565 6.25678 26.5573C5.81607 26.5618 5.06517 26.5694 4.352 26.4858C3.92622 26.4359 3.45521 26.3481 3.03139 26.181C2.62219 26.0196 2.12072 25.7303 1.83561 25.1909C1.30506 24.1872 1.06782 22.8791 0.950432 21.6801C0.831648 20.4668 0.825865 19.2411 0.825779 18.3303Z" fill="#34AF42"/>
<path fill-rule="evenodd" clip-rule="evenodd" d="M12.2677 6.29634C14.9267 5.64005 18.1544 6.2223 20.2736 8.12961C20.6841 8.49907 20.7174 9.13136 20.3479 9.54187C19.9785 9.95238 19.3462 9.98566 18.9357 9.6162C17.3815 8.21748 14.8628 7.71586 12.7469 8.23808C11.7061 8.49498 10.8291 8.98467 10.2309 9.66328C9.6461 10.3266 9.27982 11.2222 9.32387 12.4116C9.43434 15.3943 11.064 17.7819 13.9436 18.7233C14.726 18.9791 15.9765 19.0879 17.1362 18.9001C18.3444 18.7044 19.1057 18.2512 19.3737 17.7152C19.6207 17.2212 20.2214 17.021 20.7154 17.268C21.2094 17.5149 21.4096 18.1156 21.1626 18.6096C20.4494 20.0359 18.8444 20.6494 17.4559 20.8743C16.0189 21.1071 14.4423 20.9905 13.3221 20.6243C9.57461 19.3991 7.46385 16.2279 7.32524 12.4856C7.26294 10.8033 7.79431 9.40281 8.73063 8.3407C9.6535 7.29385 10.9211 6.6287 12.2677 6.29634Z" fill="#F3F4F6"/>
</svg>
