<svg width="28" height="28" viewBox="0 0 28 28" fill="none" xmlns="http://www.w3.org/2000/svg">
<path fill-rule="evenodd" clip-rule="evenodd" d="M0.455662 18.9807L0.453844 18.939C0.452041 18.897 0.449447 18.8352 0.446245 18.7551C0.43984 18.595 0.431 18.3619 0.421187 18.0683C0.401565 17.4813 0.378029 16.6519 0.362302 15.6801C0.330909 13.7405 0.330335 11.2186 0.456295 8.92339C0.475233 8.57831 0.464967 8.14269 0.447615 7.62239C0.445419 7.55656 0.443118 7.48954 0.440783 7.42151C0.42525 6.96907 0.408188 6.47209 0.410426 5.98505C0.412997 5.42563 0.440652 4.83848 0.535153 4.2957C0.627515 3.7652 0.798133 3.18757 1.14845 2.71418C1.78397 1.85543 2.78035 1.43017 3.661 1.19477C4.56093 0.954204 5.51843 0.867027 6.24272 0.809029C8.92547 0.594205 11.7293 0.666458 14.4708 0.737106C15.8118 0.771664 17.1379 0.805838 18.4277 0.805838C18.7619 0.805838 19.1115 0.799182 19.4719 0.792321C20.8814 0.765481 22.456 0.735501 23.9254 1.08851C25.5612 1.48147 26.3718 2.72752 26.7696 3.98249C27.1567 5.20352 27.2165 6.61253 27.261 7.66929C27.3867 10.66 27.3448 13.6472 27.3031 16.6136C27.2825 18.0856 27.2619 19.5524 27.2619 21.012C27.2619 21.043 27.2619 21.0742 27.2619 21.1055C27.2622 22.4071 27.2625 23.9482 26.7588 25.1554C26.4836 25.8148 26.0458 26.4154 25.3632 26.8385C24.6902 27.2556 23.864 27.4477 22.8973 27.4477C22.2913 27.4477 21.715 27.4973 21.0938 27.5507C20.8694 27.5701 20.6391 27.5899 20.3995 27.608C19.5272 27.6741 18.5822 27.7116 17.5798 27.5568C16.8351 27.4418 16.0993 27.4442 15.2614 27.4469C15.1316 27.4473 14.9995 27.4477 14.8644 27.4477C13.8802 27.4477 12.9046 27.3853 11.9683 27.3253L11.9614 27.3249C11.0123 27.2641 10.1038 27.2061 9.20294 27.2061H6.09906C6.04062 27.2061 5.96907 27.2068 5.88667 27.2077C5.44595 27.2122 4.69505 27.2198 3.98188 27.1362C3.5561 27.0863 3.08509 26.9985 2.66127 26.8313C2.25207 26.67 1.75061 26.3807 1.46549 25.8413C0.934938 24.8376 0.697704 23.5295 0.580315 22.3305C0.46153 21.1172 0.455747 19.8915 0.455662 18.9807Z" fill="#4556EB"/>
<path fill-rule="evenodd" clip-rule="evenodd" d="M11.8976 6.94674C14.5566 6.29044 17.7843 6.87269 19.9035 8.78C20.314 9.14946 20.3473 9.78175 19.9778 10.1923C19.6084 10.6028 18.9761 10.636 18.5656 10.2666C17.0114 8.86787 14.4926 8.36625 12.3768 8.88847C11.3359 9.14537 10.459 9.63506 9.86078 10.3137C9.27599 10.977 8.9097 11.8726 8.95376 13.062C9.06423 16.0447 10.6939 18.4323 13.5735 19.3737C14.3559 19.6295 15.6064 19.7383 16.766 19.5505C17.9743 19.3548 18.7356 18.9016 19.0036 18.3656C19.2506 17.8716 19.8513 17.6714 20.3453 17.9183C20.8392 18.1653 21.0395 18.766 20.7925 19.26C20.0793 20.6863 18.4743 21.2998 17.0858 21.5247C15.6488 21.7575 14.0722 21.6409 12.952 21.2747C9.2045 20.0495 7.09373 16.8783 6.95513 13.136C6.89282 11.4537 7.4242 10.0532 8.36051 8.99109C9.28338 7.94424 10.551 7.27909 11.8976 6.94674Z" fill="#F3F4F6"/>
</svg>
