<?xml version="1.0" encoding="UTF-8" standalone="no"?>
<svg
   width="27"
   height="28"
   viewBox="0 0 27 28"
   fill="none"
   version="1.1"
   id="svg2"
   sodipodi:docname="C-inactive.svg"
   inkscape:version="1.4 (e7c3feb100, 2024-10-09)"
   xmlns:inkscape="http://www.inkscape.org/namespaces/inkscape"
   xmlns:sodipodi="http://sodipodi.sourceforge.net/DTD/sodipodi-0.dtd"
   xmlns="http://www.w3.org/2000/svg"
   xmlns:svg="http://www.w3.org/2000/svg">
  <defs
     id="defs2" />
  <sodipodi:namedview
     id="namedview2"
     pagecolor="#ffffff"
     bordercolor="#cccccc"
     borderopacity="1"
     inkscape:showpageshadow="0"
     inkscape:pageopacity="1"
     inkscape:pagecheckerboard="0"
     inkscape:deskcolor="#d1d1d1"
     inkscape:zoom="41.357143"
     inkscape:cx="13.504318"
     inkscape:cy="15.93437"
     inkscape:window-width="2560"
     inkscape:window-height="1371"
     inkscape:window-x="0"
     inkscape:window-y="0"
     inkscape:window-maximized="1"
     inkscape:current-layer="svg2" />
  <path
     fill-rule="evenodd"
     clip-rule="evenodd"
     d="M13.9272 2.30822C11.2523 2.23838 8.63902 2.17016 6.05764 2.37687C5.33154 2.43501 4.53821 2.51257 3.83276 2.70114C3.10803 2.89487 2.64447 3.16315 2.41138 3.47813C2.3274 3.59161 2.22955 3.81801 2.16079 4.21296C2.09416 4.59563 2.06804 5.05535 2.06568 5.56846C2.06363 6.01348 2.07918 6.46794 2.09477 6.92342C2.09712 6.99225 2.09948 7.0611 2.10178 7.12994C2.11871 7.63774 2.1331 8.16012 2.10856 8.6072C1.98637 10.8337 1.98624 13.3018 2.01731 15.222C2.03282 16.1802 2.05603 16.998 2.07534 17.5757C2.085 17.8646 2.09368 18.0933 2.09992 18.2494C2.10304 18.3274 2.10556 18.3873 2.10728 18.4274L2.10925 18.4727L2.10986 18.4865L2.11093 18.5099V18.5327C2.11093 19.4478 2.11691 20.5948 2.22607 21.7098C2.3361 22.8336 2.54169 23.808 2.87519 24.4546C2.89217 24.4679 2.94129 24.502 3.05021 24.545C3.24582 24.6221 3.52481 24.6835 3.87003 24.724C4.44245 24.7911 5.03575 24.7859 5.48566 24.782C5.58239 24.7811 5.67249 24.7803 5.75434 24.7803H8.85821C9.82573 24.7803 10.7904 24.8421 11.721 24.9017L11.7445 24.9032C12.693 24.9639 13.6075 25.0219 14.5197 25.0219C14.6421 25.0219 14.7667 25.0214 14.8931 25.0209C15.7204 25.0174 16.628 25.0135 17.5403 25.1544C18.3126 25.2737 19.0748 25.2508 19.9036 25.188C20.0986 25.1732 20.301 25.1557 20.5093 25.1378C21.1537 25.0822 21.8529 25.0219 22.5525 25.0219C23.2609 25.0219 23.6929 24.8813 23.9648 24.7128C24.2272 24.5502 24.4211 24.312 24.5683 23.9593C24.8972 23.1713 24.9171 22.0398 24.9171 20.5862C24.9171 19.0656 24.9383 17.5685 24.9593 16.0827C25.0007 13.1517 25.0415 10.2646 24.918 7.32753C24.8715 6.22094 24.8112 5.08455 24.5184 4.16111C24.2364 3.27161 23.8074 2.7741 23.1135 2.6074C21.9179 2.32017 20.6815 2.34186 19.3078 2.36596C18.9117 2.37291 18.5042 2.38006 18.0829 2.38006C16.6789 2.38006 15.295 2.34393 13.9272 2.30822ZM0.110935 18.5549L0.109118 18.5132C0.107315 18.4712 0.10472 18.4094 0.101518 18.3293C0.0951135 18.1692 0.0862738 17.9361 0.0764608 17.6426C0.0568387 17.0556 0.0333028 16.2261 0.0175754 15.2544C-0.0138174 13.3148 -0.0143914 10.7928 0.111568 8.49761C0.130506 8.15253 0.120241 7.71691 0.102888 7.19661C0.100692 7.13078 0.0983917 7.06376 0.0960563 6.99573C0.0805235 6.54329 0.0634619 6.04631 0.0656997 5.55927C0.0682702 4.99985 0.0959259 4.4127 0.190427 3.86992C0.282788 3.33942 0.453406 2.76179 0.803727 2.2884C1.43924 1.42965 2.43562 1.00439 3.31627 0.768985C4.21621 0.528423 5.1737 0.441246 5.89799 0.383248C8.58075 0.168424 11.3845 0.240677 14.126 0.311325C15.4671 0.345883 16.7932 0.380057 18.0829 0.380057C18.4172 0.380057 18.7668 0.373401 19.1271 0.36654C20.5367 0.3397 22.1112 0.30972 23.5807 0.662729C25.2165 1.05569 26.027 2.30174 26.4249 3.55671C26.812 4.77774 26.8718 6.18675 26.9162 7.24351C27.042 10.2343 27.0001 13.2215 26.9584 16.1878C26.9377 17.6598 26.9171 19.1266 26.9171 20.5862C26.9171 20.6172 26.9171 20.6484 26.9171 20.6797C26.9174 21.9813 26.9178 23.5224 26.414 24.7296C26.1388 25.389 25.701 25.9896 25.0185 26.4127C24.3455 26.8299 23.5192 27.0219 22.5525 27.0219C21.9466 27.0219 21.3703 27.0715 20.7491 27.125C20.5247 27.1443 20.2944 27.1641 20.0548 27.1822C19.1825 27.2483 18.2375 27.2858 17.235 27.131C16.4904 27.016 15.7545 27.0184 14.9166 27.0211C14.7869 27.0215 14.6547 27.0219 14.5197 27.0219C13.5355 27.0219 12.5599 26.9595 11.6236 26.8995L11.6167 26.8991C10.6676 26.8383 9.75903 26.7803 8.85821 26.7803H5.75434C5.6959 26.7803 5.62434 26.7811 5.54194 26.7819C5.10123 26.7864 4.35033 26.794 3.63716 26.7104C3.21138 26.6605 2.74037 26.5727 2.31654 26.4056C1.90735 26.2442 1.40588 25.9549 1.12077 25.4155C0.590212 24.4118 0.352978 23.1037 0.235589 21.9047C0.116804 20.6914 0.111021 19.4657 0.110935 18.5549Z"
     fill="#4556EB"
     id="path1"
     style="fill:#909090;fill-opacity:1" />
  <path
     fill-rule="evenodd"
     clip-rule="evenodd"
     d="M11.4737 6.52095C14.1328 5.86466 17.3604 6.44691 19.4797 8.35422C19.8902 8.72368 19.9234 9.35597 19.554 9.76648C19.1845 10.177 18.5522 10.2103 18.1417 9.84081C16.5876 8.44208 14.0688 7.94047 11.953 8.46269C10.9121 8.71959 10.0352 9.20928 9.43695 9.88789C8.85216 10.5512 8.48588 11.4468 8.52993 12.6362C8.6404 15.6189 10.2701 18.0065 13.1496 18.9479C13.9321 19.2037 15.1826 19.3125 16.3422 19.1247C17.5504 18.929 18.3118 18.4758 18.5798 17.9398C18.8268 17.4458 19.4275 17.2456 19.9214 17.4926C20.4154 17.7396 20.6156 18.3402 20.3687 18.8342C19.6555 20.2605 18.0505 20.8741 16.662 21.099C15.2249 21.3317 13.6483 21.2151 12.5281 20.8489C8.78067 19.6237 6.6699 16.4525 6.5313 12.7102C6.46899 11.028 7.00037 9.62742 7.93669 8.56531C8.85955 7.51846 10.1272 6.85331 11.4737 6.52095Z"
     fill="#4556EB"
     id="path2"
     style="fill:#909090;fill-opacity:1" />
</svg>
