<svg width="28" height="28" viewBox="0 0 28 28" fill="none" xmlns="http://www.w3.org/2000/svg">
<path fill-rule="evenodd" clip-rule="evenodd" d="M14.726 2.12169C12.0511 2.05186 9.43785 1.98364 6.85646 2.19034C6.13037 2.24849 5.33704 2.32605 4.63159 2.51462C3.90686 2.70835 3.4433 2.97663 3.21021 3.2916C3.12623 3.40509 3.02838 3.63148 2.95961 4.02644C2.89299 4.40911 2.86686 4.86883 2.86451 5.38194C2.86246 5.82696 2.87801 6.28141 2.8936 6.7369C2.89595 6.80572 2.89831 6.87457 2.9006 6.94342C2.91754 7.45122 2.93193 7.9736 2.90739 8.42068C2.7852 10.6471 2.78506 13.1153 2.81614 15.0355C2.83165 15.9936 2.85486 16.8114 2.87417 17.3892C2.88383 17.6781 2.8925 17.9068 2.89875 18.0628C2.90187 18.1409 2.90438 18.2008 2.90611 18.2409L2.90808 18.2862L2.90869 18.3L2.90976 18.3234V18.3462C2.90976 19.2612 2.91574 20.4082 3.0249 21.5233C3.13493 22.6471 3.34052 23.6215 3.67402 24.268C3.691 24.2814 3.74012 24.3155 3.84904 24.3585C4.04465 24.4356 4.32364 24.497 4.66886 24.5375C5.24127 24.6046 5.83458 24.5994 6.28448 24.5955C6.38122 24.5946 6.47132 24.5938 6.55316 24.5938H9.65704C10.6246 24.5938 11.5893 24.6556 12.5198 24.7152L12.5433 24.7167C13.4918 24.7774 14.4063 24.8354 15.3185 24.8354C15.4409 24.8354 15.5655 24.8349 15.692 24.8343C16.5192 24.8309 17.4268 24.827 18.3391 24.9679C19.1114 25.0872 19.8736 25.0642 20.7025 25.0014C20.8974 24.9867 21.0999 24.9692 21.3081 24.9513C21.9525 24.8957 22.6517 24.8354 23.3514 24.8354C24.0598 24.8354 24.4917 24.6948 24.7636 24.5262C25.026 24.3636 25.22 24.1255 25.3671 23.7728C25.696 22.9847 25.716 21.8533 25.716 20.3997C25.716 18.879 25.7371 17.382 25.7581 15.8962C25.7995 12.9651 25.8403 10.0781 25.7168 7.141C25.6703 6.03442 25.61 4.89803 25.3172 3.97458C25.0352 3.08508 24.6063 2.58757 23.9124 2.42088C22.7167 2.13365 21.4803 2.15534 20.1067 2.17944C19.7105 2.18638 19.303 2.19353 18.8818 2.19353C17.4778 2.19353 16.0938 2.1574 14.726 2.12169ZM0.909763 18.3684L0.907946 18.3267C0.906143 18.2847 0.903549 18.2228 0.900346 18.1428C0.893942 17.9827 0.885102 17.7496 0.875289 17.456C0.855667 16.869 0.832131 16.0395 0.816403 15.0678C0.785011 13.1282 0.784437 10.6063 0.910397 8.31108C0.929335 7.96601 0.919069 7.53038 0.901716 7.01008C0.899521 6.94426 0.89722 6.87724 0.894884 6.80921C0.879352 6.35676 0.86229 5.85978 0.864528 5.37275C0.867098 4.81332 0.894754 4.22618 0.989255 3.68339C1.08162 3.1529 1.25223 2.57526 1.60256 2.10188C2.23807 1.24312 3.23445 0.81787 4.1151 0.582462C5.01504 0.3419 5.97253 0.254723 6.69682 0.196724C9.37957 -0.0180997 12.1834 0.0541537 14.9249 0.124801C16.2659 0.15936 17.592 0.193534 18.8818 0.193534C19.216 0.193534 19.5656 0.186878 19.926 0.180016C21.3355 0.153177 22.9101 0.123197 24.3795 0.476205C26.0153 0.869168 26.8259 2.11521 27.2237 3.37019C27.6108 4.59122 27.6706 6.00022 27.7151 7.05698C27.8408 10.0477 27.7989 13.0349 27.7572 16.0013C27.7366 17.4733 27.716 18.9401 27.716 20.3997C27.716 20.4307 27.716 20.4619 27.716 20.4932C27.7163 21.7948 27.7166 23.3359 27.2129 24.5431C26.9377 25.2025 26.4999 25.8031 25.8173 26.2262C25.1443 26.6433 24.3181 26.8354 23.3514 26.8354C22.7454 26.8354 22.1691 26.885 21.5479 26.9384C21.3235 26.9577 21.0932 26.9776 20.8536 26.9957C19.9813 27.0618 19.0363 27.0993 18.0339 26.9445C17.2892 26.8295 16.5534 26.8319 15.7155 26.8346C15.5857 26.835 15.4536 26.8354 15.3185 26.8354C14.3343 26.8354 13.3587 26.7729 12.4224 26.713L12.4155 26.7126C11.4664 26.6518 10.5579 26.5938 9.65704 26.5938H6.55316C6.49472 26.5938 6.42317 26.5945 6.34077 26.5954C5.90005 26.5999 5.14916 26.6075 4.43598 26.5239C4.01021 26.474 3.5392 26.3862 3.11537 26.219C2.70617 26.0577 2.20471 25.7684 1.91959 25.229C1.38904 24.2253 1.15181 22.9172 1.03442 21.7182C0.915632 20.5048 0.909849 19.2792 0.909763 18.3684Z" fill="#909090"/>
<path fill-rule="evenodd" clip-rule="evenodd" d="M8.94667 7.59232C9.00961 7.59106 9.07325 7.58977 9.13758 7.58847C10.6604 7.55756 12.563 7.51894 14.4002 7.7355C15.5965 7.87652 16.6922 8.12023 17.5713 8.51234C18.4461 8.9025 19.0382 9.40751 19.3546 10.0403C19.7507 10.8325 19.8604 11.8715 19.7028 12.9732C19.546 14.0694 19.1364 15.136 18.606 15.9317C17.6357 17.3871 16.4626 18.0121 15.0796 18.4152C14.4433 18.6007 13.7815 18.734 13.0553 18.8802L13.0553 18.8802L12.7712 18.9375C12.3447 19.0239 11.9004 19.1165 11.446 19.2275C11.3915 18.2158 11.2688 17.2023 11.0523 16.201C10.9053 15.5211 10.8309 14.825 10.7496 14.0646L10.7451 14.0219C10.664 13.2632 10.5746 12.4405 10.3861 11.6179C10.2005 10.8083 9.87754 10.0444 9.59488 9.37585L9.59488 9.37585L9.59483 9.37575C9.54585 9.2599 9.49808 9.14691 9.45245 9.03705C9.2397 8.52486 9.06132 8.0565 8.94667 7.59232ZM6.83982 6.77276C6.83084 6.7189 6.82617 6.66358 6.82617 6.60716C6.82617 6.05488 7.27389 5.60716 7.82617 5.60716C8.1551 5.60716 8.55096 5.59899 8.99631 5.58979L8.99632 5.58979C10.5272 5.55818 12.6427 5.51449 14.6343 5.74925C15.9312 5.90212 17.2488 6.1786 18.386 6.68578C19.5275 7.19492 20.5547 7.9683 21.1434 9.14585C21.775 10.409 21.8783 11.889 21.6827 13.2564C21.4863 14.6291 20.9765 15.9815 20.2701 17.0411C18.9665 18.9965 17.3315 19.8421 15.6393 20.3353C14.9154 20.5463 14.1648 20.6972 13.4491 20.8411L13.1684 20.8976C12.3523 21.063 11.5691 21.2325 10.7965 21.4901C10.2726 21.6647 9.70627 21.3816 9.53162 20.8576C9.52115 20.8262 9.51232 20.7946 9.50509 20.763M9.48035 20.5163C9.47901 19.187 9.36934 17.8811 9.09746 16.6237C8.92749 15.8375 8.84321 15.0479 8.7653 14.3178L8.7564 14.2344C8.67393 13.4629 8.59467 12.7544 8.4366 12.0647C8.29343 11.4399 8.04866 10.8586 7.76517 10.1853L7.76515 10.1853C7.71309 10.0617 7.65973 9.93493 7.60545 9.80425C7.27156 9.00044 6.91737 8.0739 6.82968 7.02158C6.8226 6.93659 6.82636 6.85319 6.83982 6.77276" fill="#909090"/>
</svg>
