<?xml version="1.0" encoding="UTF-8" standalone="no"?>
<svg
   width="28"
   height="28"
   viewBox="0 0 28 28"
   fill="none"
   version="1.1"
   id="svg2"
   sodipodi:docname="D-wrong.svg"
   inkscape:version="1.4 (e7c3feb100, 2024-10-09)"
   xmlns:inkscape="http://www.inkscape.org/namespaces/inkscape"
   xmlns:sodipodi="http://sodipodi.sourceforge.net/DTD/sodipodi-0.dtd"
   xmlns="http://www.w3.org/2000/svg"
   xmlns:svg="http://www.w3.org/2000/svg">
  <defs
     id="defs2" />
  <sodipodi:namedview
     id="namedview2"
     pagecolor="#ffffff"
     bordercolor="#cccccc"
     borderopacity="1"
     inkscape:showpageshadow="0"
     inkscape:pageopacity="1"
     inkscape:pagecheckerboard="0"
     inkscape:deskcolor="#d1d1d1"
     inkscape:zoom="41.357143"
     inkscape:cx="14.01209"
     inkscape:cy="14"
     inkscape:window-width="2560"
     inkscape:window-height="1371"
     inkscape:window-x="0"
     inkscape:window-y="0"
     inkscape:window-maximized="1"
     inkscape:current-layer="svg2" />
  <path
     fill-rule="evenodd"
     clip-rule="evenodd"
     d="M0.455662 18.9807L0.453844 18.939C0.452041 18.897 0.449447 18.8352 0.446245 18.7551C0.43984 18.595 0.431 18.3619 0.421187 18.0683C0.401565 17.4813 0.378029 16.6519 0.362302 15.6801C0.330909 13.7405 0.330335 11.2186 0.456295 8.92339C0.475233 8.57831 0.464967 8.14269 0.447615 7.62239C0.445419 7.55656 0.443118 7.48954 0.440783 7.42151C0.42525 6.96907 0.408188 6.47209 0.410426 5.98505C0.412997 5.42563 0.440652 4.83848 0.535153 4.2957C0.627515 3.7652 0.798133 3.18757 1.14845 2.71418C1.78397 1.85543 2.78035 1.43017 3.661 1.19477C4.56093 0.954204 5.51843 0.867027 6.24272 0.809029C8.92547 0.594205 11.7293 0.666458 14.4708 0.737106C15.8118 0.771664 17.1379 0.805838 18.4277 0.805838C18.7619 0.805838 19.1115 0.799182 19.4719 0.792321C20.8814 0.765481 22.456 0.735501 23.9254 1.08851C25.5612 1.48147 26.3718 2.72752 26.7696 3.98249C27.1567 5.20352 27.2165 6.61253 27.261 7.66929C27.3867 10.66 27.3448 13.6472 27.3031 16.6136C27.2825 18.0856 27.2619 19.5524 27.2619 21.012C27.2619 21.043 27.2619 21.0742 27.2619 21.1055C27.2622 22.4071 27.2625 23.9482 26.7588 25.1554C26.4836 25.8148 26.0458 26.4154 25.3632 26.8385C24.6902 27.2556 23.864 27.4477 22.8973 27.4477C22.2913 27.4477 21.715 27.4973 21.0938 27.5507C20.8694 27.5701 20.6391 27.5899 20.3995 27.608C19.5272 27.6741 18.5822 27.7116 17.5798 27.5568C16.8351 27.4418 16.0993 27.4442 15.2614 27.4469C15.1316 27.4473 14.9995 27.4477 14.8644 27.4477C13.8802 27.4477 12.9046 27.3853 11.9683 27.3253L11.9614 27.3249C11.0123 27.2641 10.1038 27.2061 9.20294 27.2061H6.09906C6.04062 27.2061 5.96907 27.2068 5.88667 27.2077C5.44595 27.2122 4.69505 27.2198 3.98188 27.1362C3.5561 27.0863 3.08509 26.9985 2.66127 26.8313C2.25207 26.67 1.75061 26.3807 1.46549 25.8413C0.934938 24.8376 0.697704 23.5295 0.580315 22.3305C0.46153 21.1172 0.455747 19.8915 0.455662 18.9807Z"
     fill="#4556EB"
     id="path1"
     style="fill:#ff070b;fill-opacity:1" />
  <path
     fill-rule="evenodd"
     clip-rule="evenodd"
     d="M8.49257 8.20463C8.55551 8.20337 8.61915 8.20208 8.68348 8.20077C10.2063 8.16986 12.1089 8.13124 13.9461 8.3478C15.1424 8.48883 16.2381 8.73253 17.1172 9.12464C17.992 9.5148 18.5841 10.0198 18.9005 10.6526C19.2966 11.4449 19.4063 12.4838 19.2487 13.5855C19.0919 14.6817 18.6823 15.7483 18.1519 16.5441C17.1816 17.9994 16.0085 18.6244 14.6255 19.0275C13.9892 19.213 13.3273 19.3463 12.6012 19.4925L12.6012 19.4925L12.3171 19.5498C11.8906 19.6362 11.4463 19.7288 10.9919 19.8398C10.9374 18.8281 10.8147 17.8146 10.5982 16.8133C10.4512 16.1334 10.3768 15.4373 10.2955 14.6769L10.291 14.6342C10.2099 13.8755 10.1205 13.0529 9.93197 12.2302C9.74642 11.4206 9.42344 10.6567 9.14078 9.98816L9.14078 9.98815L9.14073 9.98805C9.09175 9.8722 9.04398 9.75922 8.99835 9.64935C8.78559 9.13717 8.60721 8.66881 8.49257 8.20463ZM6.38572 7.38507C6.37674 7.3312 6.37207 7.27588 6.37207 7.21947C6.37207 6.66718 6.81979 6.21947 7.37207 6.21947C7.701 6.21947 8.09686 6.21129 8.54221 6.2021L8.54222 6.2021C10.0731 6.17048 12.1886 6.12679 14.1802 6.36155C15.4771 6.51442 16.7947 6.7909 17.9319 7.29808C19.0734 7.80722 20.1006 8.58061 20.6893 9.75816C21.3209 11.0213 21.4242 12.5013 21.2286 13.8687C21.0322 15.2414 20.5224 16.5938 19.816 17.6535C18.5124 19.6088 16.8774 20.4544 15.1852 20.9476C14.4613 21.1586 13.7107 21.3095 12.995 21.4534L12.7143 21.5099C11.8982 21.6753 11.115 21.8449 10.3424 22.1024C9.81849 22.277 9.25217 21.9939 9.07752 21.4699C9.06705 21.4385 9.05822 21.4069 9.05099 21.3753M9.02625 21.1286C9.02491 19.7993 8.91524 18.4934 8.64335 17.236C8.47338 16.4499 8.38911 15.6602 8.3112 14.9301L8.3023 14.8467C8.21983 14.0752 8.14057 13.3667 7.9825 12.677C7.83933 12.0523 7.59456 11.4709 7.31107 10.7976L7.31105 10.7976C7.25899 10.674 7.20563 10.5472 7.15135 10.4166C6.81746 9.61275 6.46327 8.6862 6.37558 7.63388C6.3685 7.54889 6.37226 7.4655 6.38572 7.38507"
     fill="#F3F4F6"
     id="path2" />
</svg>
