<svg width="27" height="28" viewBox="0 0 27 28" fill="none" xmlns="http://www.w3.org/2000/svg">
<path fill-rule="evenodd" clip-rule="evenodd" d="M13.9272 2.14122C11.2523 2.07139 8.63902 2.00317 6.05764 2.20987C5.33154 2.26802 4.53821 2.34558 3.83276 2.53415C3.10803 2.72788 2.64447 2.99616 2.41138 3.31114C2.3274 3.42462 2.22955 3.65102 2.16079 4.04597C2.09416 4.42864 2.06804 4.88836 2.06568 5.40147C2.06363 5.84649 2.07918 6.30095 2.09477 6.75643C2.09712 6.82526 2.09948 6.8941 2.10178 6.96295C2.11871 7.47075 2.1331 7.99313 2.10856 8.44021C1.98637 10.6667 1.98624 13.1348 2.01731 15.055C2.03282 16.0132 2.05603 16.831 2.07534 17.4088C2.085 17.6976 2.09368 17.9263 2.09992 18.0824C2.10304 18.1604 2.10556 18.2203 2.10728 18.2605L2.10925 18.3057L2.10986 18.3195L2.11093 18.3429V18.3657C2.11093 19.2808 2.11691 20.4278 2.22607 21.5428C2.3361 22.6666 2.54169 23.641 2.87519 24.2876C2.89217 24.3009 2.94129 24.335 3.05021 24.378C3.24582 24.4551 3.52481 24.5165 3.87003 24.557C4.44245 24.6241 5.03575 24.6189 5.48566 24.615C5.58239 24.6141 5.67249 24.6133 5.75434 24.6133H8.85821C9.82573 24.6133 10.7904 24.6751 11.721 24.7347L11.7445 24.7362C12.693 24.7969 13.6075 24.8549 14.5197 24.8549C14.6421 24.8549 14.7667 24.8544 14.8931 24.8539C15.7204 24.8504 16.628 24.8465 17.5403 24.9874C18.3126 25.1067 19.0748 25.0838 19.9036 25.021C20.0986 25.0062 20.301 24.9887 20.5093 24.9708C21.1537 24.9152 21.8529 24.8549 22.5525 24.8549C23.2609 24.8549 23.6929 24.7143 23.9648 24.5458C24.2272 24.3832 24.4211 24.145 24.5683 23.7923C24.8972 23.0043 24.9171 21.8728 24.9171 20.4192C24.9171 18.8986 24.9383 17.4015 24.9593 15.9157C25.0007 12.9847 25.0415 10.0976 24.918 7.16053C24.8715 6.05395 24.8112 4.91756 24.5184 3.99411C24.2364 3.10461 23.8074 2.60711 23.1135 2.44041C21.9179 2.15318 20.6815 2.17487 19.3078 2.19897C18.9117 2.20592 18.5042 2.21306 18.0829 2.21306C16.6789 2.21306 15.295 2.17693 13.9272 2.14122ZM0.110935 18.388L0.109118 18.3462C0.107315 18.3042 0.10472 18.2424 0.101518 18.1623C0.0951135 18.0022 0.0862738 17.7691 0.0764608 17.4756C0.0568387 16.8886 0.0333028 16.0591 0.0175754 15.0874C-0.0138174 13.1478 -0.0143914 10.6258 0.111568 8.33061C0.130506 7.98554 0.120241 7.54991 0.102888 7.02961C0.100692 6.96379 0.0983917 6.89677 0.0960563 6.82874C0.0805235 6.37629 0.0634619 5.87931 0.0656997 5.39228C0.0682702 4.83286 0.0959259 4.24571 0.190427 3.70292C0.282788 3.17243 0.453406 2.59479 0.803727 2.12141C1.43924 1.26265 2.43562 0.837401 3.31627 0.601993C4.21621 0.361431 5.1737 0.274254 5.89799 0.216256C8.58075 0.0014316 11.3845 0.073685 14.126 0.144333C15.4671 0.178891 16.7932 0.213065 18.0829 0.213065C18.4172 0.213065 18.7668 0.206409 19.1271 0.199548C20.5367 0.172708 22.1112 0.142728 23.5807 0.495736C25.2165 0.888699 26.027 2.13475 26.4249 3.38972C26.812 4.61075 26.8718 6.01975 26.9162 7.07651C27.042 10.0673 27.0001 13.0545 26.9584 16.0208C26.9377 17.4928 26.9171 18.9596 26.9171 20.4192C26.9171 20.4503 26.9171 20.4814 26.9171 20.5127C26.9174 21.8144 26.9178 23.3554 26.414 24.5626C26.1388 25.2221 25.701 25.8226 25.0185 26.2457C24.3455 26.6629 23.5192 26.8549 22.5525 26.8549C21.9466 26.8549 21.3703 26.9045 20.7491 26.958C20.5247 26.9773 20.2944 26.9971 20.0548 27.0153C19.1825 27.0814 18.2375 27.1188 17.235 26.964C16.4904 26.849 15.7545 26.8514 14.9166 26.8541C14.7869 26.8545 14.6547 26.8549 14.5197 26.8549C13.5355 26.8549 12.5599 26.7925 11.6236 26.7325L11.6167 26.7321C10.6676 26.6713 9.75903 26.6133 8.85821 26.6133H5.75434C5.6959 26.6133 5.62434 26.6141 5.54194 26.6149C5.10123 26.6194 4.35033 26.627 3.63716 26.5434C3.21138 26.4935 2.74037 26.4057 2.31654 26.2386C1.90735 26.0772 1.40588 25.7879 1.12077 25.2485C0.590212 24.2448 0.352978 22.9367 0.235589 21.7377C0.116804 20.5244 0.111021 19.2987 0.110935 18.388Z" fill="#4556EB"/>
<path fill-rule="evenodd" clip-rule="evenodd" d="M8.14785 7.61185C8.21078 7.6106 8.27443 7.6093 8.33875 7.608C9.86155 7.57709 11.7642 7.53847 13.6013 7.75503C14.7977 7.89605 15.8933 8.13976 16.7725 8.53187C17.6472 8.92203 18.2394 9.42704 18.5557 10.0598C18.9519 10.8521 19.0616 11.891 18.904 12.9927C18.7472 14.089 18.3376 15.1556 17.8071 15.9513C16.8369 17.4066 15.6637 18.0316 14.2808 18.4347C13.6445 18.6202 12.9826 18.7535 12.2565 18.8997L12.2565 18.8997L11.9724 18.957C11.5459 19.0434 11.1016 19.136 10.6472 19.247C10.5927 18.2354 10.4699 17.2218 10.2535 16.2205C10.1064 15.5406 10.0321 14.8446 9.95081 14.0841L9.94625 14.0414C9.86515 13.2827 9.77576 12.4601 9.58724 11.6375C9.40169 10.8278 9.07871 10.0639 8.79605 9.39539L8.79605 9.39538L8.79601 9.39528C8.74702 9.27943 8.69925 9.16644 8.65362 9.05658C8.44087 8.5444 8.26249 8.07603 8.14785 7.61185ZM6.04099 6.79229C6.03201 6.73843 6.02734 6.68311 6.02734 6.6267C6.02734 6.07441 6.47506 5.6267 7.02734 5.6267C7.35627 5.6267 7.75213 5.61852 8.19748 5.60932L8.19749 5.60932C9.72833 5.57771 11.8439 5.53402 13.8355 5.76878C15.1323 5.92165 16.45 6.19813 17.5872 6.70531C18.7287 7.21445 19.7558 7.98783 20.3446 9.16539C20.9762 10.4285 21.0794 11.9086 20.8838 13.2759C20.6875 14.6486 20.1777 16.001 19.4712 17.0607C18.1677 19.016 16.5327 19.8616 14.8405 20.3548C14.1166 20.5659 13.366 20.7167 12.6502 20.8606L12.3696 20.9172C11.5534 21.0825 10.7703 21.2521 9.99771 21.5096C9.47376 21.6842 8.90744 21.4011 8.7328 20.8771C8.72232 20.8457 8.71349 20.8141 8.70626 20.7825M8.68152 20.5358C8.68018 19.2065 8.57052 17.9007 8.29863 16.6432C8.12866 15.8571 8.04438 15.0674 7.96647 14.3373L7.95757 14.254C7.8751 13.4824 7.79584 12.774 7.63778 12.0842C7.49461 11.4595 7.24983 10.8781 6.96634 10.2049L6.96632 10.2048C6.91426 10.0812 6.8609 9.95446 6.80662 9.82379C6.47274 9.01997 6.11855 8.09343 6.03085 7.04111C6.02377 6.95612 6.02754 6.87272 6.04099 6.79229" fill="#4556EB"/>
</svg>
