<?xml version="1.0" encoding="UTF-8"?>
<svg id="Layer_1" data-name="Layer 1" xmlns="http://www.w3.org/2000/svg" version="1.1" viewBox="0 0 266 156">
  <defs>
    <style>
      .cls-1 {
        fill: #75b77c;
        stroke-width: 0px;
      }
    </style>
  </defs>
  <path 
    class="cls-1" 
    d="M145.5,60.6c-8.1-1.7-17.3-6.7-20.9-8.7-1-.6-1.9-1-2.8-1.2,1.2-3.2,2-6.5,2.6-9.4.8-3.8,25.8-15.7,34-19.6,2.1-1,3.8-1.8,5-2.4l-1.1-2.2c-1.2.6-2.9,1.4-4.9,2.4-21.2,10.1-34.6,17.1-35.4,21.3-.6,3.1-1.4,6.5-2.7,9.7l-1.8,3.8c-1.1,1.9-.5,4.4,0,6.8.1.6.3,1.2.4,1.8v.7c.2.7.2,1.4,0,1.8-.9.5-4.2,1.8-5.2,1.8-1.1-.8-1.4-3.3-1.6-5.8-.4-3.4-.8-7.4-3.7-9.1-2-1.2-4.7-1.1-8.3.3-9.3,2.5-18,15.6-21.3,21.1.2-3.6,1.4-10.4,2.5-12.3.4-.7,2.9-3.3,4.8-5.2,5.2-5.3,5.6-5.8,5.3-6.8-.2-.9-1-1.1-1.2-1.1-1-.1-1.5.7-2,1.6-.2.3-.5.8-.6.9-3.5,3.1-10.1,9.2-15.5,15.3-1,1.1-1.5,2.9-2,4.8-.6,2.2-1.3,4.7-2.6,5-4.1,1.1-4.6-.8-4.8-1.5-1.3-4.9,4.3-15.8,10.8-21.2,1.5-.6,3.1-1.3,4.3-2.4.1-.1.7-.3.8-.4,1.1-.5,1.1-1.2,1-1.7-.1-.4-.6-1-1.6-.8-1.9.5-3.8,1.6-5.7,3.1-.3.1-.5.2-.8.3-1.7.7-3.5,1.3-5,2.4-5.2,3.7-9.1,9.7-11.7,13.6-.5.7-1,1.5-1.4,2.2,0-.7.1-1.3.2-1.7.2-1.1-.1-2.2-.4-3.3-.3-1-.6-2.1-.3-2.7.4-.8.9-1.6,1.3-2.4,2.2-4,4.5-8.1,8.1-11.3,1.7-1.1,3.5-2.2,5-3,0,0,0,0,.1,0,1.5-.5,3.2-1,4-2.4l.5-.9-.7-.7c-.8-.7-1.2-.5-4.7,1.5,0,0-.2,0-.2.1-.6.2-1.1.4-1.6.6-1.4.8-2.7,1.7-3.8,2.7-.3.2-.5.3-.8.5-1.3.8-3.6,3.2-6.5,6.2-3.5,3.6-10,10.2-12,10.6-1-1.3-1.2-2.9-.5-4.9,3.6-10.1,26.9-24,33.7-25.2h.4c0,0,.3-.4.3-.4,1.2-1.4,3-1.8,5-2.3.5-.1,1-.2,1.6-.4,2.3-.6,5.2-1.1,8.3-1.6,5.9-1,12-2,16-4.2,1.9-1,3.8-2.2,5.6-3.2,4.6-2.7,9.3-5.5,14.7-7.5,1-.4,2.2-.8,3.3-1.2,7.3-2.6,16.5-5.9,21.9-10.6l-1.7-1.9c-5,4.4-13.9,7.6-21,10.2-1.2.4-2.3.8-3.3,1.2-5.6,2.1-10.4,4.9-15.1,7.7-1.8,1.1-3.6,2.2-5.5,3.2-3.6,2-9.8,3-15.2,3.9-3.2.5-6.1,1-8.6,1.7-.5.1-1,.2-1.5.4-1.9.4-3.8.9-5.5,2.3-1-.6-2.3-.9-3.9-1.3-1.3-.3-3-.7-4.9-1.4-1.7-.6-4.1-1.1-6.3-1.6-3-.7-6.1-1.3-7.5-2.1-1.3-.8-2.7.5-5.8,3.9-.4.4-.7.8-.9.9-3.6,3.2-7.8,6.4-12.2,9.8-7,5.3-14.2,10.8-19.2,16.5-1.4,1.6-2.9,4.2-4.6,6.9-1.8,3.1-4.6,7.7-5.8,8-1,.3-1.6.8-1.6,1.6,0,.7.3,1.1,1,1.4,1.9,9.9,8.2,12.6,14.7,15.4,3.3,1.4,6.7,2.9,10,5.3,16.2,11.9,33.2,17.6,51.2,23.6,9,3,18.2,6.1,27.6,10,3,1.3,6.5,2.2,9.9,3.1,6,1.6,12.2,3.3,16.2,6.8,8,7,28.4,11.4,32.4,12.3,4.1.8,9.2,2.6,11.7,3.4,0,0,.1,0,.2,0,.5.9,1,1.5,1.6,1.8.2,0,.3.2.6.2,1.6,0,6.7-2.7,31.7-22.9,11.2-9.1,29.5-24.3,30.8-26.6.8-1.4,0-3.3-1-5.2-.4-.9-1.2-2.5-1.1-2.9,0,0,0,0,0,0h0c.2-.5.2-.9.2-1.1,0-.7-.4-1.2-.9-1.6-1.1-.6-2.4-.3-3.5,0-.4.1-1.1.3-1.3.3-7.2-4.1-16.2-8.4-18.9-9.6l-.9-.4c-6.2-2.9-12.1-5.6-18.5-7.1.7-.7,2.1-1.8,3.8-2.9,3.2-2.1,5.8-4.7,8.6-7.5,3.6-3.6,7.3-7.4,12.2-9.8,3.5-1.8,7-3.7,10.3-5.6,4.1-2.3,8.3-4.7,12.7-6.7,3.2-1.5,6.7-2.8,10-4,4.8-1.8,9.3-3.5,13.1-5.6l-1.2-2.2c-3.6,2-8,3.7-12.8,5.5-3.4,1.3-6.9,2.6-10.2,4.1-4.5,2-8.8,4.5-12.9,6.8-3.3,1.9-6.7,3.8-10.2,5.5-5.3,2.6-9.2,6.5-12.9,10.3-2.7,2.7-5.2,5.3-8.2,7.2-1.9,1.2-4.3,3-5.1,4.3-1.9,3.4-4.9,6.8-8.1,10.4-3.6,4.1-7.3,8.4-10,13.1-.2.2-.9.2-1.3,0-1-.6-1.5-1.4-1.5-2.5-.2-2.4,1.4-5.6,3-8.1,1.2-1.2,2.4-2.4,3.1-3.7.2-.3.6-1,0-1.8l-.5-.7-.8.2c-.7.2-2.2,1.9-3.7,4.2-.7.6-1.4,1.2-2,1.8-1.1,1-2.3,2-3.4,3-1.4,1.5-2.3,3.2-3.1,4.9-.7,1.4-1.3,2.7-2.3,3.8-.5.6-.8,1.7-1.4,3.9-.5,1.6-1.7,6-2.6,6.5-.3-.2-.6-1-.8-1.5-.3-.6-.5-1.2-.9-1.7-5-6.7.5-12,7.7-17.6,3.6-2.8,6.2-4.9,5.6-7.2l-.2-.7-.7-.2c-.7-.2-1.1.2-1.7.9-1.2,1.4-4.6,5-8.2,7.4-2.5,1.6-5.5,6.5-8.5,11.2-1.7,2.7-3.8,6.1-5.1,7.5,0-.7-.2-1.5-.6-2-4.6-5.2-.4-9.7,6.1-15.5,1.1-1,2.1-1.9,3-2.8.8-.8,1.5-1.7,2.2-2.7.2-.3.4-.6.7-.9,1.1-.7,2.1-1.4,2.8-2.1.1-.1.3-.3.5-.4.8-.6,1.6-1.2,1.1-2.2-.2-.5-.8-.9-1.6-.7-2.1.6-3.5,2-4.7,3.5-2,1.3-4.4,2.6-6.5,3.7l-1.2.7c-6.4,3.6-8.1,6.5-10.8,11.4-.4.8-.9,1.7-1.5,2.6-.5.2-1.6.3-2.3.4,0-.4,0-.9,0-1.1,0-.5,0-.9,0-1.3-2.6-9.5,6.6-14.5,15.5-19.3,1.8-1,3.5-1.9,5.1-2.9.8-.5,1.5-1.1,2.2-1.7,2.7-1.1,5-2.6,5.9-4.2,0-.1.4-.4.6-.6.6-.5,1.2-1.2.7-2.1-.2-.4-.8-.8-1.5-.6-2.3.6-4.1,2.4-5.8,4.2-.4.4-.8.8-1.2,1.2-2.7,1-5.9,1.6-8.2,1.1-.5-.1-.6-.3-.6-.4,0-.3,0-.7.2-1.2.9-.6,1.6-1.8,2.2-3,0,0,0-.1.1-.2l5.2-3.9c.3-.2.7-.4,1-.6.2,0,.3-.2.5-.3h.4c.8-.3,1.2-.7,1.4-1.1,1-.6,2-1.3,2.9-2.1,1.7-1.5,6.4-1.7,10.5-1.8,5.1-.1,9.1-.3,10.4-2.5,1.1-1.8,4.2-3.8,6.9-5.5,1.3-.8,2.5-1.6,3.6-2.4,3.2-2.4,6.1-5,9-7.6,2.8-2.5,5.7-5.2,8.7-7.4,3.5-2.6,7.8-4.7,12-6.8,5-2.4,10.1-4.9,13.8-8.2l-1.7-1.9c-3.5,3.1-8.2,5.4-13.2,7.8-4.3,2.1-8.8,4.3-12.5,7-3.1,2.3-6,5-8.9,7.6-2.8,2.6-5.8,5.2-8.8,7.5-.9.7-2.1,1.4-3.4,2.2-3.1,2-6.3,4-7.7,6.4-.6,1.1-5.1,1.2-8.3,1.3-4.8.1-9.7.3-12.1,2.4-.7.6-1.4,1.1-2.2,1.6l-9-2.8ZM185.7,89.4c.4-.5.8-.9,1.2-1.4l-.5,1.3c3.4,1.4,7.3,2.5,11.5,3.8.6.2,1.3.4,1.9.6-2,1.5-4.2,2.8-6.5,3.9-.4-.2-.7-.4-1.1-.5-2.1-1-4.3-2-6.4-2.9l-.9,2.3c1.8.7,3.7,1.6,5.6,2.5-1.5.7-2.9,1.3-4.4,1.9-1.5.6-3,1.3-4.5,2-.3.2-.7.3-1,.5-1.4-.7-2.8-1.4-4.2-1.8,2.6-4.3,6.1-8.3,9.4-12.2ZM193.4,100.4c3.7,1.7,7.5,3.3,11.7,4.2-.4.5-.9,1-1.4,1.4-1.3,1.4-5.7,3.6-9.5,5.5-2.7-1.1-5.4-2.9-8.1-4.6-1-.7-2-1.3-3.1-2,1.3-.6,2.6-1.1,3.9-1.7,2.1-.9,4.3-1.8,6.4-2.9ZM184.8,109c2.2,1.4,4.3,2.9,6.6,4-1.9,1-3.7,1.9-4.8,2.7-1.9,1.3-3.6,2.8-5.2,4.3-3.7-1.8-7.4-3.7-10.7-5.6.3-.2.5-.5.8-.7,2.8-2.7,5.7-5.4,9-7.3,1.4.8,2.8,1.8,4.3,2.7ZM179.4,121.7c-1,.8-1.9,1.6-3,2.3-.7.4-1.5.6-2.4.9-.9.2-1.9.5-2.8,1-2.8-1.9-5.7-3.7-8.9-5.2.4,0,.8-.1,1.2-.4,1.8-1.2,3.5-2.7,5.2-4.1,3.3,1.9,7,3.8,10.7,5.6ZM174.5,127.3c1-.2,2.2-.5,3.2-1.2,1.5-1,2.8-2.1,4-3.2.2.1.5.2.7.3,1.6.8,3.1,1.5,4.6,2.3l1.1-2.2c-1.5-.7-3-1.5-4.5-2.2,1.3-1.2,2.7-2.4,4.1-3.4,1.4-.9,3.8-2.1,6.4-3.5,1.4.5,2.8.8,4.2.9v-2.5c-.2,0-.5,0-.8,0,3.4-1.7,6.4-3.4,7.7-4.8.9-.9,1.7-1.8,2.5-2.7.5,0,.9.1,1.4.2v-1.8c1.6-1.5,3-3,4.5-4.4l-.7-.8c2,.8,4,1.7,6,2.8-1,.6-2.1,1.3-3.1,2.2-1.7,1.5-3.8,3-6.1,4.5-2.3,1.5-4.6,3.1-6.6,4.9-1.7,1.5-2.9,3.1-4.1,4.8-1.8,2.4-3.5,4.7-6.7,6.4-.2.1-.8.5-2.1,1.3-2.3,1.5-9,6-10.8,6.5-2-1.2-4-2.6-6.1-4,.3,0,.6-.2.9-.2ZM207.1,102.4c-3.8-.6-7.4-2-10.9-3.5,2.3-1.2,4.5-2.7,6.5-4.3,3,.9,6,1.9,9,3.1-1.6,1.5-3.1,3.1-4.7,4.7ZM142,74.7c-.1.6-.2,1.2,0,1.8.2.7.7,1.9,2.5,2.3.9.2,1.9.2,3,.2-.5.3-.9.5-1.4.8-9.3,5-19.7,10.7-16.7,22.1,0,.1,0,.4,0,.7,0,1.3,0,2.8,1.1,3.5.8.5,5,0,5.7-1.2.6-1.1,1.2-2,1.7-3,2.7-4.8,4-7.2,9.8-10.5l1-.6c-.1,0-.2.2-.3.3-4.2,3.8-9.6,8.6-8.8,14.1-3.4,1.9-6.1,3.4-8.4,4.8l1.2,2.2c2.3-1.3,4.8-2.7,8-4.5.4.8.9,1.6,1.6,2.4,0,.2,0,.5,0,.8,0,.9.2,1.9,1.1,2.4,2.2,1.2,4.3-2,8.1-8,.2,1.7,1,3.6,2.4,5.5.2.2.4.7.6,1.2.4,1,.9,2.2,1.9,2.8.4.2.8.3,1.2.3s.6,0,.9-.2c1.9-.8,2.9-3.9,4.1-8.2.3-1.1.7-2.6.9-2.9,1.2-1.3,1.9-2.9,2.6-4.4.8-1.6,1.5-3.1,2.6-4.3.2-.2.4-.4.6-.6-.3.8-.4,1.5-.5,2.2-.5,3.6,1.2,5.3,2.7,6.2.4.3,1,.4,1.6.5v.2s0,0,.1,0c1.6,0,3.2.5,4.8,1.2-3,2-5.6,4.4-8.2,6.8-.4.4-.9.8-1.3,1.2-1.8-1.1-3.5-2.2-5-3.4l-1.5,2c1.4,1.1,2.9,2.1,4.6,3.2-1.4,1.2-2.8,2.4-4.3,3.4-.2,0-.8,0-1.2-.2-.9-.2-2.1-.5-3.1.1-.3.2-.6.5-.8.9-3.4.2-7.2-.9-10.8-2,2.6-.9,5-2.5,7.2-4.8l-1.8-1.7c-2.3,2.4-4.8,3.9-7.5,4.5l.3,1.4h-.4c-16.5-5.2-28.5-9.5-36.6-13.4-2.1-1-4.2-2.2-6.3-3.4-2.1-1.2-4.2-2.4-6.3-3.4,2.8-1.7,5.5-3.5,8.1-5.4,4.3,1.8,8.5,3.7,12.4,6-2.7,2.4-5,4.1-5.8,4.4l.7,2.4c1.2-.4,3.7-2.3,7.3-5.4,1.2.8,2.4,1.6,3.6,2.5l1.5-2c-1-.8-2.1-1.5-3.1-2.2,2.4-2.1,5.2-4.7,8.3-7.5.6-.6,1.3-1.1,1.9-1.7.9.3,1.8.5,2.6.8l.7-2.4c-.4-.1-.8-.2-1.2-.4,2.7-2.5,5.3-4.7,6.6-5.7.9.4,1.7.9,2.6,1.4l.6-1.1.7-1c-.3-.2-.6-.4-.9-.6-.6-.5-1.2-.9-1.9-1.4-.4-.3-.7-.4-1.3-.1-3.8-1.8-7.7-3.2-11.7-4.5,1.5-1,3.1-2,4.7-2.9l-.2-.3c1.8.4,3.7.7,5.5,1,2.4.4,5.4,1.1,7.4,1.6l-2,3.1ZM90.2,73.4c3.1,1.2,6.5,2.5,10.1,3.8-2.6,2.2-5.2,4.5-8,6.6-3.3-1.3-6.6-2.6-9.6-4.1,2.6-2,5.1-4.1,7.5-6.3ZM99.5,66.1c1.4,1,2.9,2.1,4.9,2.6,1.4.4,2.7.8,4.1,1.1-.6.6-1.3,1.2-2,1.8-1.3,1.2-2.7,2.4-4.1,3.7-3.7-1.3-7.1-2.6-10.2-3.8,2.1-2,4.2-4.1,6.1-6.2.4.3.8.5,1.2.8ZM113.2,82.6c.3-.2.5-.4.7-.6,4.3,1.4,8.7,2.9,13.1,4.3-.3.2-.5.5-.8.8-2.8,2.5-6,5.5-8.8,8-3.8-2.3-7.9-4.2-12-6,2.7-2.1,5.3-4.3,7.8-6.4ZM102.7,87.9c-2.1-.9-4.2-1.7-6.3-2.5-.5-.2-.9-.3-1.3-.5,2.8-2.2,5.5-4.5,8-6.7,2.6.9,5.4,1.9,8.2,2.8-2.8,2.3-5.6,4.6-8.5,6.9ZM116.2,80.1c2.6-2.2,5.2-4.3,7.9-6.2,4.1,1.2,8.1,2.6,12,4.3-1.4,1.2-3.6,3.1-6.8,6.1-4.3-1.4-8.7-2.8-13-4.2ZM113.4,79.2c-2.8-1-5.6-1.9-8.3-2.9,1.1-1,2.1-1.9,3.1-2.8,1.1-1,2.2-2,3.2-2.9.8.2,1.7.4,2.5.6,2.3.6,4.7,1.2,7.1,1.8-2.6,2-5.1,4-7.6,6.1ZM89.9,85.6c-2.4,1.8-4.9,3.4-7.5,4.7l.9,1.6c-4.1-1.4-8.1-2.8-12-4.4,3.1-1.9,6.1-3.9,9.1-6.1,3,1.5,6.2,2.9,9.5,4.2ZM92.6,86.7c.9.4,1.8.7,2.8,1.1,1.6.6,3.3,1.3,4.9,1.9-2.4,1.8-5,3.4-7.6,4.9l.5.8c-.8-.3-1.6-.7-2.4-.9l-3.4-1.1c-1.1-.4-2.2-.7-3.3-1.1,2.9-1.6,5.7-3.5,8.5-5.6ZM123.4,54c3.7,2.1,13.2,7.3,21.6,9,2.2.4,4.9,1.2,6.7,1.8l-.9.7c-1.8,1.1-3.6,2.2-5.1,3.7-2.4-.7-5.4-1.2-8.5-1.8-6.3-1.2-13.4-2.5-16.9-5.2-.1-.6-.2-1.2-.4-1.8-.4-1.9-.9-4-.3-5,.5-.8.9-1.6,1.2-2.4.8.1,1.6.5,2.6,1ZM119.9,66.8c.3-.4.4-.9.5-1.4,2.1,1.2,4.8,2.1,7.7,2.8-1.5.9-3.1,1.9-4.6,3-2.7-.8-5.5-1.5-8.2-2.2.2,0,.5-.2.8-.3,3.3-1.2,3.6-1.7,3.8-2ZM106.1,54.5c1.8,1.1,2.1,4.2,2.5,7.2.3,2.3.5,4.4,1.4,6-1.6-.4-3.3-.9-4.9-1.3-1.5-.4-2.8-1.3-4.1-2.3-.3-.2-.6-.4-.9-.7,1-1.2,2-2.3,2.9-3.5l-1.6-1.3s0,0,0,0c1.3.2,5.7,1,6.4,1h0v-2.5c-.7,0-5.6-.9-8.8-1.5l1.1-.7c2.8-1.1,4.8-1.2,6-.5ZM80.2,78.5c-.6-.3-1.3-.7-1.9-1,.3-.3.7-.7,1-1.3,1.5-2.6,8.2-13.7,15.8-18.9.6.3,2.1.6,5.7,1.2-1,1.2-2,2.4-3,3.6-.6-.3-1.3-.5-2-.7l-.5,2.4c.2,0,.5.1.7.2-2,2.2-4.1,4.3-6.4,6.4l-9.4,8ZM67.1,78.3c2.7-.7,3.6-3.9,4.4-6.8.4-1.5.9-3.1,1.5-3.8,1.3-1.5,2.6-2.9,4-4.3-1.3,4.9-2.7,13.2-.7,14.4.4.3.9.3,1.3.1l-.9,1.6c.4.2.8.5,1.2.7-2.8,2-5.6,3.9-8.4,5.6l.8,1.4c-2.9-1.2-5.7-2.6-8.4-4.2-.7-.4-1.7-.6-2.8-.7,1.2-.7,2.7-1.5,4.3-2.4l-.7-1.3c.5.1,1,.2,1.5.2s1.7-.1,2.8-.4ZM53.8,71.6l-.4.6c.7.4,1,.7,1.2.9-1,1.4-3.1,3.2-5.3,4.7-1.8-.1-3.7-1.5-5.7-2.9-.4-.3-.7-.5-1.1-.8.6-.3,1.2-.6,1.8-.8,1.9-.8,3.8-1.7,5.1-3.2,0,0,.2,0,.2-.1,0,1.3.1,2.7,1,3.2,1.1.6,1.9,0,3.1-1.5ZM43.4,67c0-.1.1-.2.2-.3,0,0,.2,0,.3.1.5.2.9.5,1,.5.3.1.6.2,1,.3.4.1,1.2.4,1.8.6-.9,1.1-2.6,1.9-4.3,2.6-.7.3-1.5.7-2.3,1l.9,1.7c-1.3-.9-2.7-1.7-4.2-2.2,2.1-1.3,4-2.7,4.9-3.5l.7-1ZM51.3,57.6c-.1.2-.2.4-.3.6-.4.8-.9,1.6-1.3,2.3-.9,1.5-.4,3.1,0,4.6.2.6.4,1.2.4,1.7-.8-.7-2-1.1-3.3-1.5-.3-.1-.6-.2-.9-.3-.1,0-.5-.2-.8-.4-.4-.2-.7-.3-.9-.4,1.9-1.5,4.3-3.7,7.2-6.6ZM40.3,66c.3,0,.6,0,1-.2,0,0,0,0,0,0,0,.2-.2.3-.3.5-1.6,1.4-5.1,3.8-7.9,4.8-.4,0-.8.2-1.2.3-1.7-.7-3.6-2.2-5.4-3.6.9-.5,1.7-1.1,2.6-1.6,3.1-2,5.7-3.6,8.3-2.8l.2-.5c.3.8.7,1.6,1.4,2.3.4.4.9.6,1.5.7ZM20.7,64.1c1-.9,2-1.7,3.1-2.5.9-.7,1.8-1.4,2.7-2.2,2.7.1,5.8.7,7.8,1.5-2.3.5-4.5,1.9-6.6,3.2-1.1.7-2.3,1.5-3.5,2.1-1.2-.9-2.4-1.6-3.6-2.1ZM164.4,147.3c-3.9-.8-23.8-5.1-31.2-11.7-4.5-3.9-11-5.7-17.2-7.4-3.5-.9-6.7-1.8-9.6-3-9.5-4-18.8-7.1-27.8-10.1-17.9-5.9-34.7-11.6-50.6-23.2-3.5-2.6-7.2-4.2-10.5-5.6-6.1-2.6-11.1-4.8-13-12.3,0,0,0,0,0,0,2,.5,5.4,1.3,6.3,2.3,2.9,3.3,9.6,5.2,16.2,7,4.5,1.3,9.1,2.5,11.9,4.2,7.8,4.5,45.6,18.4,55.5,20.5,22.1,4.5,50,16,69.4,28.6,1.7,1.1,3.4,3.4,5.1,5.6,1.5,2,2.9,3.9,4.4,5,.2,1,.5,2,.9,2.9-2.7-.9-6.5-2.1-9.7-2.7ZM177.3,150.6c-.4-.6-.7-1.6-1.1-2.8,3.2-.6,7.4-4.3,12.1-8.7,1.2-1.1,2.3-2.1,2.7-2.4,1.8-1.2,13.8-9.9,24.8-18.5,12.6-9.8,18.2-15,20.7-17.9.2.5.4.9.7,1.4.4.9,1.2,2.5,1.1,2.9-.9,1.4-11.9,13-29.2,25.1-17.5,12.2-26.4,23.3-30.1,22.7s-1.4-1.3-1.8-1.8ZM174.8,145c-1.1-.8-2.5-2.6-3.9-4.4-1.8-2.4-3.6-4.8-5.7-6.2-19.6-12.8-47.9-24.4-70.2-29-10.5-2.2-47.7-16.1-54.7-20.2-3.1-1.8-7.7-3.1-12.5-4.4-6.2-1.7-12.5-3.5-15-6.2-1.3-1.5-4.2-2.3-7.6-3.1-.1,0-.2,0-.3,0,1.5-1.5,3.2-4.2,5.5-8,1.5-2.5,3.1-5.2,4.3-6.6,4.8-5.5,12-10.9,18.8-16.2,4.5-3.4,8.7-6.6,12.4-9.9.2-.2.5-.5,1-1.1.7-.7,2.4-2.6,3.2-3.2,1.8.9,4.7,1.5,7.7,2.1,2.2.5,4.4,1,6,1.5,2.1.7,3.8,1.1,5.2,1.4.4,0,.7.2,1.1.3-3.6,1.4-8.6,4-13.6,7.3-1.2-.8-2.8-1.2-4.4-1.7,0,0,0,0,0,0,2.2-1.7,3.1-2.8,3.4-3.5,1.2.2,2.4.7,3.4,1,.9.3,1.8.6,2.5.8l.5-2.4c-.5-.1-1.3-.4-2.2-.7-2.2-.7-4.8-1.7-7.3-1.3,0,0,0,0,0,0h0s0,0-.1,0l.2,1.2v1.2c-3,3.2-17.6,11.7-20.6,13l.5,1.2-.5,1.2c1.9.8,4.6,1.9,7,3.3l1.3-2.2c-1.6-.9-3.3-1.8-4.9-2.4,1.4-.7,3.2-1.7,5.1-2.8v.5c1.2,0,2.3.6,3.4,1.4.4.3.8.6,1.3.8l1.2-2.2c-.4-.2-.8-.5-1.1-.7-.7-.5-1.5-1-2.3-1.3.7-.4,1.4-.9,2.2-1.3,1.7-1.1,3.2-2,4.4-2.8.6.2,1.3.4,1.9.6.9.2,1.9.5,2.7.8-7.4,5.1-14.4,11.5-16.3,17-.2.7-.4,1.3-.5,1.9-3.6-2.6-11-2.8-11.1-2.8h-.5s-.4.3-.4.3c-1,.9-2,1.6-3,2.4-1.6,1.3-3.3,2.6-5,4.4l-2.1,2.2h3c0,0,0,0,0,0,1.4,0,3.4,1.3,5.5,2.8l1.2.9c2.1,1.6,4.3,3.3,6.5,4.1l.5.2h.4c.5-.2,1-.4,1.5-.6,3-.5,5.7,1.4,8.5,3.4,2.5,1.7,4.8,3.4,7.4,3.4s0,0,.1,0h.4s.3-.2.3-.2c2.4-1.5,5.5-4.1,6.7-6.2l.2-.3v-.4c-.1-1.5-1.4-2.5-2.4-3.1.3-.4.6-.9.9-1.4,2.3-3.6,5.8-8.8,10.2-12.3-4.8,6.2-7.9,14.2-6.7,18.6.2.8.8,2.3,2.3,3.1-7.2,4-7.2,4-7.2,4.8v.7s.6.3.6.3c.9.5,2.2.7,3.5.8.8,0,1.9.2,2.2.4,8,4.6,16.7,7.5,25.9,10.6l3.4,1.1c3.5,1.2,6.8,3.1,10,5,2.1,1.2,4.2,2.4,6.4,3.5,8.2,4,20.3,8.3,37,13.4l1.2.4c4.2,1.3,8.9,2.8,13.3,2.4,5.4,1.9,9.9,5,14.3,8,2.3,1.6,4.4,3.1,6.7,4.4.2.1.4.2.7.2,1.3,0,3.9-1.4,12.4-7,.9-.6,1.7-1.1,1.9-1.2,3.6-1.9,5.6-4.6,7.5-7.1,1.2-1.6,2.3-3.1,3.8-4.4,1.8-1.6,4.1-3.2,6.3-4.7,2.2-1.5,4.5-3,6.3-4.7,1.3-1.2,3-2.1,3.9-2.6.8-.5,1.4-.7,1.4-1.5v-.7s-.6-.4-.6-.4c-7.6-4.4-16.1-6.9-23.6-9.2-4-1.2-7.7-2.3-10.9-3.6,2.2-2.6,4.2-5.1,5.8-7.6l-.2.8c6.5,1.5,12.4,4.2,18.7,7.1l.9.4c2.6,1.2,11.6,5.4,18.7,9.5.9.5,2,.3,3.1,0,.3,0,.8-.2,1.1-.2-3.2,5.9-39.6,33.1-46.2,37.4-.6.4-1.6,1.4-3,2.7-2.3,2.1-8.8,8.2-11.2,8.2l-.7-.3Z"/>
</svg>
