<svg width="266" height="171" viewBox="0 0 266 171" fill="none" xmlns="http://www.w3.org/2000/svg">
<path d="M162.935 33.5886C155.326 37.3499 124.323 51.1851 123.249 56.4341C122.348 60.835 121.076 65.9326 118.563 70.2848C116.945 73.085 120.424 79.0532 118.933 81.6357C118.682 82.0679 113.109 84.2944 112.261 83.8042C107.41 81.0044 113.628 63.809 99.5836 69.2623C90.8321 71.6069 82.0443 84.5164 78.3042 90.9934C75.0034 96.7096 77.3815 79.5571 79.3078 76.221C80.2985 74.5053 89.5073 65.8495 89.3178 65.1424C89.0883 64.2865 88.2258 66.5514 87.5627 67.1394C82.4917 71.6353 76.6871 77.1889 72.1658 82.3327C70.1497 84.6265 70.2493 91.6247 66.8813 92.5269C52.1156 96.4828 65.253 67.7728 77.3224 64.5393C77.8121 64.4081 76.3727 64.941 75.9931 65.2766C73.4571 67.5254 69.2106 68.0551 66.2369 70.1803C57.9433 76.1072 52.8207 88.323 51.4127 87.5102C50.7933 87.1519 51.174 83.7405 51.3358 82.9507C51.7088 81.1271 49.7433 78.4093 50.7821 76.6107C54.1385 70.7981 57.2268 63.9318 64.277 60.0184C65.6413 59.2612 68.4834 58.9908 69.3332 57.5189C69.4321 57.3474 64.1746 60.2258 59.7679 63.1348C56.3855 65.3677 41.988 82.3507 39.8364 79.9247C31.127 70.1047 64.6291 49.1388 73.5492 47.611C75.4238 45.454 78.1199 45.2415 80.7423 44.5389C87.4289 42.7476 98.8677 42.1486 104.796 38.8581C111.458 35.1603 117.539 30.8644 125.186 28.0522C132.786 25.2577 143.942 21.7803 149.946 16.4573C155.805 11.2618 163.569 4.60016 169.546 1.28256" stroke="black" stroke-width="2.5"/>
<path d="M232.649 35.9033C225.922 41.868 214.584 45.0561 206.873 50.8241C200.745 55.4075 195.351 61.2377 189.148 65.8777C185.989 68.241 180.126 71.0743 178.375 74.1074C176.412 77.5065 161.805 74.4749 157.692 78.1218C154.364 81.072 149.284 82.5758 146.11 86.1862M146.11 86.1862C145.876 86.4517 144.392 90.0107 143.121 89.277C143.025 89.222 145.481 85.9776 146.11 86.1862ZM146.11 86.1862C144.454 87.433 141.335 92.2773 144.883 93.0033C149.504 93.9486 157.735 91.0802 159.556 87.9274C159.863 87.3952 161.288 86.3184 160.694 86.4774C157.316 87.3826 154.937 91.5821 151.867 93.4224C142.105 99.2739 127.344 104.476 130.708 117.029C130.856 117.581 130.489 119.913 131.211 120.33C131.557 120.529 134.962 120.092 135.225 119.636C139.127 112.877 139.896 109.781 147.155 105.753C150.464 103.916 155.388 101.318 157.954 99.0427C158.365 98.6777 159.719 97.8066 159.188 97.9488C155.897 98.8305 154.484 102.546 152.237 104.773C146.738 110.222 136.186 116.992 143.093 124.78C143.554 125.3 143.277 127.294 143.856 127.628C146.207 128.985 154.216 111.429 158.915 108.327C163.599 105.235 167.786 100.12 167.813 100.218C168.993 104.623 145.348 112.937 154.732 125.478C155.446 126.432 155.818 128.513 156.85 129.109C159.823 130.825 161.339 119.665 162.395 118.463C164.591 115.966 165.255 112.323 167.705 109.789C170.408 106.994 174.421 104.415 176.151 101.419C177.841 98.4928 164.865 113.266 172.037 117.407C172.896 117.902 174.487 117.857 174.982 116.999C180.092 108.149 188.893 100.728 193.1 93.443C193.837 92.1665 196.881 90.1091 197.775 89.5191C204.936 84.7914 209.754 76.4989 218.679 72.0869C226.6 68.171 233.779 63.4208 241.728 59.8054C249.438 56.2981 258.366 53.7405 264.732 50.2074" stroke="black" stroke-width="2.5"/>
<path d="M193.718 94.5365C200.635 96.1047 207.013 99.1362 213.579 102.17C219.203 104.769 226.743 108.492 232.334 111.719C233.378 112.322 235.883 110.787 237.137 111.512C241.611 114.095 193.899 148.749 190.494 150.997C188.362 152.404 178.029 163.809 174.484 161.763C171.574 160.083 168.218 153.302 164.562 150.927C145.42 138.492 117.116 126.702 94.7603 122.128C84.5282 120.034 47.0383 106.074 39.6479 101.808C32.6397 97.7621 16.4926 96.0827 11.8892 90.8923C9.67391 88.3944 -0.510947 87.7371 2.71423 86.873C5.56354 86.1097 10.4586 75.2147 13.7135 71.5117C21.6967 62.4294 35.5343 53.7235 45.0218 45.3119C45.7071 44.7046 49.5042 40.2368 50.2563 40.6709C52.9062 42.2006 60.1987 43.1178 64.2346 44.4829C69.3111 46.2 72.2347 46.1232 73.5493 47.6122" stroke="black" stroke-width="2.5"/>
<path d="M118.375 67.2211C120.77 66.9452 122.191 67.295 124.087 68.3897C129.858 71.7212 138.267 75.8129 145.361 77.2642C148.393 77.8846 156.886 80.1139 153.897 80.9147C153.729 80.9574 153.807 80.579 153.762 80.4111C151.211 82.3361 148.661 84.2612 146.11 86.1862" stroke="black" stroke-width="2.5"/>
<path d="M2.98376 87.8793C5.51708 102.311 16.9253 100.661 27.3612 108.337C51.4653 126.066 77.9417 129.971 105.969 141.794C114.207 145.269 125.83 146.155 132.45 151.972C139.225 157.924 155.853 162.234 164.275 163.957C170.329 165.196 178.466 168.318 177.749 167.904C175.259 166.466 174.991 163.655 174.214 160.754" stroke="black" stroke-width="2.5"/>
<path d="M237.407 112.519C236.505 114.262 240.547 118.878 239.566 120.577C237.531 124.102 180.691 170.88 178.154 169.415C176.402 168.404 174.643 161.81 174.214 160.755" stroke="black" stroke-width="2.5"/>
<path d="M186.977 103.629C196.429 107.422 210.201 109.798 221.725 116.45C221.881 116.541 219.021 117.756 216.908 119.63C213.315 122.816 208.036 125.626 204.289 128.948C200.248 132.531 198.835 137.313 193.285 140.262C192.429 140.717 180.6 148.903 179.506 148.272C172.967 144.497 166.536 138.535 158.044 135.67C153.458 136.139 148.331 134.376 143.832 133C132.63 129.575 117.599 124.697 107.051 119.644C101.464 116.967 96.3033 113.108 90.4642 111.133C79.9394 107.573 70.2946 104.599 61.4282 99.4804C60.2114 98.778 57.05 99.0818 55.7164 98.3118C55.692 98.2996 59.1879 96.3126 62.9838 94.2057" stroke="black" stroke-width="2.5"/>
<path d="M146.11 86.1869C138.593 83.7696 123.336 83.1819 118.489 77.7168" stroke="black" stroke-width="2.5"/>
<path d="M107.735 73.8505C107.161 73.8688 95.5323 71.8293 95.8078 71.6481C97.0515 70.8302 98.3248 70.058 99.5833 69.2629" stroke="black" stroke-width="2.5"/>
<path d="M187.776 139.85C179.148 135.552 169.214 131.115 162.751 126.043" stroke="black" stroke-width="2.5"/>
<path d="M198.73 129.357C189.703 128.884 181.135 117.765 172.986 117.902" stroke="black" stroke-width="2.5"/>
<path d="M209.569 119.437C200.486 118.815 193.005 113.857 185.39 110.801" stroke="black" stroke-width="2.5"/>
<path d="M122.027 115.092C109.045 105.011 90.9162 101.603 77.4604 93.8355" stroke="black" stroke-width="2.5"/>
<path d="M132.878 102.199C118.367 97.778 101.254 91.98 88.8562 87.0045" stroke="black" stroke-width="2.5"/>
<path d="M141.805 95.2197C130.662 88.6766 117.156 86.5422 104.79 83.0057C101.229 81.987 99.0403 78.8542 95.6649 78.1636" stroke="black" stroke-width="2.5"/>
<path d="M171.504 142.589C173.211 141.451 175.442 141.669 177.162 140.534C180.848 138.1 183.631 134.584 187.33 132.142C191.112 129.645 202.136 124.999 204.684 122.365C207.805 119.138 210.201 116.227 213.138 113.623" stroke="black" stroke-width="2.5"/>
<path d="M158.043 135.67C158.541 132.931 161.516 135.551 162.896 134.64C169.557 130.242 174.505 122.956 182.058 119.521C189.445 116.16 196.948 113.642 203.055 108.228" stroke="black" stroke-width="2.5"/>
<path d="M144.569 131.723C147.772 130.959 150.507 129.121 152.709 126.843" stroke="black" stroke-width="2.5"/>
<path d="M131.832 126.499C134.797 124.794 138.011 122.997 140.979 121.349" stroke="black" stroke-width="2.5"/>
<path d="M110.055 117.759C113.939 116.563 138.006 92.5211 139.115 93.2414C140.049 93.8475 140.908 94.5603 141.805 95.2197" stroke="black" stroke-width="2.5"/>
<path d="M93.4369 111.146C107.256 103.342 117.695 90.8845 130.857 83.5789" stroke="black" stroke-width="2.5"/>
<path d="M83.1194 106.893C93.7651 101.13 104.112 90.9301 111.392 84.4753" stroke="black" stroke-width="2.5"/>
<path d="M70.2659 102.24C82.357 95.0262 93.8751 84.9183 101.992 74.5789" stroke="black" stroke-width="2.5"/>
<path d="M88.8564 87.0047C86.3901 86.2624 80.2552 84.0956 88.8564 87.0047Z" stroke="black" stroke-width="2.5"/>
<path d="M54.1903 86.5758C55.0314 87.0617 56.0537 87.7876 56.1244 88.7565C55.1017 90.5275 52.2273 92.9737 49.833 94.4902C44.3912 94.5818 39.1135 85.3713 31.9555 88.2145C27.367 86.4847 22.0583 80.2237 18.2244 80.2881C20.8648 77.5222 23.5344 75.892 26.1436 73.5786C29.3347 73.6397 36.9656 74.6782 37.7876 77.7459" stroke="black" stroke-width="2.5"/>
<path d="M23.4014 83.4892C28.6554 81.2997 33.0777 76.1528 37.7879 77.7458" stroke="black" stroke-width="2.5"/>
<path d="M31.9562 88.2145C35.2954 87.6352 40.282 84.105 42.0433 82.5433" stroke="black" stroke-width="2.5"/>
<path d="M41.7644 88.5554C44.2359 87.2784 47.2324 86.4889 48.78 84.5168" stroke="black" stroke-width="2.5"/>
<path d="M42.043 82.5431C42.4538 81.8933 42.7675 81.1711 43.275 80.5938C43.3055 80.5632 45.2399 81.5562 45.4428 81.6322C47.0815 82.246 51.3509 83.2457 48.7801 84.5165" stroke="black" stroke-width="2.5"/>
<path d="M39.5713 66.8289C37.2995 65.492 34.7258 64.3678 32.3584 63.4177" stroke="black" stroke-width="2.5"/>
<path d="M32.3584 63.4177C35.0401 62.2891 61.3581 47.5284 52.4936 48.1" stroke="black" stroke-width="2.5"/>
<path d="M52.4937 48.0998C55.5497 47.5773 59.5202 49.6216 61.6048 50.0481" stroke="black" stroke-width="2.5"/>
<path d="M40.3462 59.7506C42.4809 59.5761 44.0648 61.1447 45.7526 62.119" stroke="black" stroke-width="2.5"/>
<path d="M49.7688 53.601C51.9372 54.3424 55.1388 54.81 56.387 56.2173" stroke="black" stroke-width="2.5"/>
</svg>
