<svg width="258" height="265" viewBox="0 0 258 265" fill="none" xmlns="http://www.w3.org/2000/svg">
<path d="M237.262 103.452C236.555 109.367 236.246 114.831 237.086 120.474C243.315 162.27 270.764 103.01 245.693 100.569C241.288 100.14 239.713 99.5481 237.262 103.452Z" stroke="black" stroke-width="2.5"/>
<path d="M237.261 103.453C232.861 103.253 223.922 109.023 220.113 112.155C216.037 144.246 229.094 150.675 250.693 132.912" stroke="black" stroke-width="2.5"/>
<path d="M237.262 103.452C234.326 103.167 231.303 103.359 228.454 102.595C226.768 102.142 220.926 82.9915 220.179 81.0463C213.552 63.7891 201.307 40.0503 190.613 27.0514C184.755 19.9302 174.046 14.2996 168.769 7.8859C162.534 0.306648 139.972 6.85898 140.358 2.89755C140.444 2.01551 141.854 3.89523 142.417 4.57969C147.612 10.8941 152.175 18.0815 157.512 24.5697C162.168 30.2288 162.955 36.9302 166.95 41.7865C173.927 50.2672 184.012 60.8849 191.606 70.1156C205.859 87.4405 206.28 121.603 212.527 129.195C217.873 135.694 222.31 141.792 225.348 149.705C228.78 158.643 224.201 171.416 229.024 180.436C238.223 197.641 236.988 222.605 240.994 240.127C241.515 242.41 244.195 264.498 245.384 263.52C252.024 258.058 247.286 251.795 251.055 243.329C264.465 213.209 250.671 165.97 241.619 142.399C240.605 139.758 247.407 136.107 250.694 132.911" stroke="black" stroke-width="2.5"/>
<path d="M139.767 1.35835C147.465 8.3206 144.447 33.311 150.068 40.143C168.019 61.9641 175.148 74.1767 186.778 104.464C190.359 113.79 186.478 123.921 189.935 132.923C193.84 143.094 204.967 154.479 212.174 163.239C212.981 164.219 243.716 259.611 244.058 261.909" stroke="black" stroke-width="2.5"/>
<path d="M188.896 128.377C167.114 148.383 127.002 152.95 107.916 168.647" stroke="black" stroke-width="2.5"/>
<path d="M107.916 168.646C105.433 184.177 123.874 181.002 131.442 185.753" stroke="black" stroke-width="2.5"/>
<path d="M114.658 163.602C112.505 160.744 110.189 157.59 108.15 155.111C105.852 152.318 89.5142 160.299 86.8909 160.899C79.2731 162.639 73.243 160.315 67.3961 156.643C64.426 154.779 57.6116 154.234 55.142 153.355" stroke="black" stroke-width="2.5"/>
<path d="M35.1992 185.987C44.8653 188.027 55.4716 192.795 63.6387 197.923C67.3079 200.226 73.1274 200.071 77.1397 201.856C82.0227 204.03 87.1245 208.369 92.8752 207.055C96.0135 206.338 104.755 208.123 102.103 203.763C109.973 204.474 113.795 203.467 108.519 197.054C121.175 202.922 118.869 201.066 119.841 191.084C125.388 195.803 135.313 190.401 131.442 185.754" stroke="black" stroke-width="2.5"/>
<path d="M119.841 191.084C113.24 188.472 97.8261 187.507 96.7753 180.457" stroke="black" stroke-width="2.5"/>
<path d="M108.519 197.053C101.163 197.216 88.7869 193.808 85.9718 186.477" stroke="black" stroke-width="2.5"/>
<path d="M102.102 203.763C94.455 202.045 80.5969 200.127 77.9729 193.294C77.8928 193.086 76.8358 192.32 77.036 192.155C77.7375 191.578 79.8976 193.495 80.2832 193.781" stroke="black" stroke-width="2.5"/>
<path d="M131.442 185.753C151.408 175.257 173.308 163.334 196.573 159.868C200.625 159.265 203.155 155.752 205.585 154.819" stroke="black" stroke-width="2.5"/>
<path d="M83.908 205.943C75.8453 211.719 65.0645 214.689 60.0563 218.808" stroke="black" stroke-width="2.5"/>
<path d="M52.353 191.389C47.0885 193.329 41.8665 197.181 37.5497 198.838" stroke="black" stroke-width="2.5"/>
<path d="M35.1992 185.987C24.1941 183.154 11.2922 185.329 0.786377 181.589" stroke="black" stroke-width="2.5"/>
<path d="M55.1428 153.355C42.3056 149.7 27.9547 143.113 14.355 141.789" stroke="black" stroke-width="2.5"/>
</svg>
