<svg width="286" height="201" viewBox="0 0 286 201" fill="none" xmlns="http://www.w3.org/2000/svg">
<path d="M201.377 34.1582C195.124 32.3513 191.729 34.9061 187.459 36.0651C179.965 38.0995 177.797 48.7888 181.894 54.949C192.716 71.2196 229.757 47.6391 201.377 34.1582Z" stroke="black" stroke-width="2.5"/>
<path d="M186.814 58.896C182.042 74.8494 168.285 96.162 163.879 106.7" stroke="black" stroke-width="2.5"/>
<path d="M196.332 60.1864C196.153 61.9586 196.016 63.9136 195.445 65.6242C193.825 70.466 188.711 75.2452 185.989 79.5305C181.247 86.998 174.538 100.251 172.836 108.71" stroke="black" stroke-width="2.5"/>
<path d="M172.837 108.71C168.342 109.007 163.348 111.674 158.832 113.173C154.273 114.686 147.643 116.976 143.825 119.514C141.824 120.845 133.53 123.826 132.143 121.741C130.66 119.51 129.081 117.683 127.149 116.576C126.99 116.488 126.427 115.806 126.47 115.815C130.184 116.562 162.445 99.8502 163.879 106.7C163.211 108.495 161.558 109.964 161.153 111.976" stroke="black" stroke-width="2.5"/>
<path d="M69.0654 84.9075C73.6696 80.7982 79.0037 75.1159 84.4104 71.5211C86.1503 70.3643 89.2623 70.7439 91.314 69.3798C98.8786 64.3502 109.952 61.1329 119.159 56.7431C121.22 55.761 125.11 55.1945 126.234 53.7538C128.29 51.1163 142.026 51.8592 140.441 46.0217C139.428 42.2915 132.056 42.0392 128.399 40.0693C119.995 43.836 106.732 44.4088 101.236 49.3134C87.8856 46.87 114.798 21.4489 122.845 33.5474C124.581 36.1578 126.42 36.9437 126.596 40.7503" stroke="black" stroke-width="2.5"/>
<path d="M101.861 22.0819C105.726 17.5195 135.896 21.1978 136.728 27.9193C137.345 32.9031 135.388 37.9106 133.459 41.97" stroke="black" stroke-width="2.5"/>
<path d="M127.713 21.546C127.759 19.9543 126.642 18.2775 125.71 16.8776C120.125 8.48064 108.945 8.55996 100.179 9.97634C98.3862 10.2663 95.8162 10.0252 94.3516 10.4219" stroke="black" stroke-width="2.5"/>
<path d="M111.635 8.60449C108.973 3.91671 98.3742 0.755503 93.3421 3.01257C91.1521 3.99485 89.6374 6.66175 87.6808 7.02163" stroke="black" stroke-width="2.5"/>
<path d="M93.9365 2.24944C89.848 1.46412 85.4131 2.25551 81.6595 4.04521C79.6726 4.9924 77.2268 5.19088 75.3498 6.15876C73.081 7.32879 64.373 13.8384 63.0074 15.5897C60.5405 18.7534 59.0024 22.5577 57.5359 26.6969C55.7152 31.8357 52.0189 38.3889 49.5972 43.4853C48.729 45.3125 45.6784 47.1119 44.3308 48.4562C43.1116 49.6724 31.5087 63.926 31.273 65.0973" stroke="black" stroke-width="2.5"/>
<path d="M106.876 88.5422C108.89 91.9623 113.908 94.3279 115.634 96.9227C122.349 95.3852 130.336 90.9729 137.278 90.9809C140.67 90.9851 144.424 92.0255 147.742 91.6153C149.954 91.3419 151.132 90.091 152.834 90.4334" stroke="black" stroke-width="2.5"/>
<path d="M109.736 61.1724C107.369 71.494 108.043 81.7192 108.032 91.5699" stroke="black" stroke-width="2.5"/>
<path d="M120.008 56.9138C122.092 59.0815 120.751 64.7434 120.787 67.6606C120.837 71.6144 122.126 75.7551 121.905 79.6519C121.748 82.4099 121.115 85.2695 121.244 88.05C121.354 90.4063 122.042 93.1536 122.113 94.6965" stroke="black" stroke-width="2.5"/>
<path d="M121.558 85.7594C128.038 84.0267 140.512 80.4531 145.519 81.4604C148.312 83.2067 152.313 85.0462 153.997 87.5782C154.451 88.2597 155.684 88.7006 155.522 89.503C155.393 90.1479 148.143 89.0758 152.834 90.4331" stroke="black" stroke-width="2.5"/>
<path d="M31.273 65.0969C22.988 69.3281 6.18951 84.8617 1.40289 92.1817" stroke="black" stroke-width="2.5"/>
<path d="M69.0653 84.907C59.5919 91.2989 50.1102 100.616 44.4323 107.897" stroke="black" stroke-width="2.5"/>
<path d="M236.122 72.0348C231.886 87.6118 252.63 90.8807 255.405 77.0907" stroke="black" stroke-width="2.5"/>
<path d="M195.433 156.898C205.517 146.038 230.165 124.247 230.879 105.398C233.812 101.636 217.318 81.2168 227.633 74.7399C224.559 71.1985 239.762 72.7673 237.535 72.3192L236.121 72.0348" stroke="black" stroke-width="2.5"/>
<path d="M236.122 72.0348C230.541 62.8667 250.456 59.338 253.836 64.4201C255.278 66.5877 256.12 69.3275 257.448 71.324C258.71 73.2213 256.095 74.9093 255.5 77" stroke="black" stroke-width="2.5"/>
<path d="M271.795 72.0323C276.431 73.0284 276.843 76.3113 276 80.5" stroke="black" stroke-width="2.5"/>
<path d="M210 199.5C221.259 183.097 248.698 156.485 258.445 139.477C259.527 137.587 261.831 135.937 262.807 133.883C263.866 131.653 267.318 123.291 268.986 122.182C273.035 119.49 286.52 105.535 284.119 96.6925C282.939 92.3471 283.799 75.176 276.786 80.1151L272 85" stroke="black" stroke-width="2.5"/>
<path d="M252.678 62.8639C259.04 57.8694 267.496 65.2576 269.017 70.8573C269.654 73.203 267.869 79.792 266.996 81.6291" stroke="black" stroke-width="2.5"/>
<path d="M268.384 71.2249C269.759 70.6383 274.81 72.7025 271.795 72.0322" stroke="black" stroke-width="2.5"/>
<path d="M169.001 149.724C173.062 149.663 175.528 154.014 176.405 155.332" stroke="black" stroke-width="2.5"/>
<path d="M169.001 149.724C170.326 149.601 173.023 150.319 174.43 149.384C181.034 144.993 187.585 139.576 195.123 137.53C196.431 137.175 196.759 134.71 197.687 134.093C199.431 132.934 201.786 132.407 203.21 131.46C206.346 126.945 209.315 116.582 212.71 113.195C216.245 109.669 220.724 105.307 223.324 100.77C225.135 97.6097 226.579 94.3711 228.414 92.0172" stroke="black" stroke-width="2.5"/>
<path d="M203.209 131.461C202.547 136.395 198.331 139.159 197.596 142.812" stroke="black" stroke-width="2.5"/>
<path d="M176.404 155.332C177.754 153.893 179.8 153.666 181.385 152.51C184.721 150.076 188.076 145.281 192.03 144.208C193.096 143.919 194.246 143.98 195.339 143.844C196.687 143.677 198.243 142.035 199.217 141.388C201.929 139.585 206.862 138.877 209.489 137.13C211.014 136.116 214.251 134.282 211.501 132.975C213.036 129.089 217.06 127.285 217.848 123.368C219.146 116.919 222.621 108.685 227.655 105.337C229.994 103.782 232.089 99.3844 232.017 99.7433C231.638 101.628 231.259 103.513 230.879 105.398" stroke="black" stroke-width="2.5"/>
<path d="M211.501 132.975C210.639 133.777 210.393 134.955 209.974 135.837" stroke="black" stroke-width="2.5"/>
<path d="M195.433 156.899C185.494 163.137 177.715 171.962 170.358 176.853" stroke="black" stroke-width="2.5"/>
</svg>
