<svg width="226" height="253" viewBox="0 0 226 253" fill="none" xmlns="http://www.w3.org/2000/svg">
<path d="M105.017 174.613C90.9217 186.175 66.5802 183.674 51.9679 175.293C37.6628 173.442 39.9779 187.988 46.8667 189.395" stroke="black" stroke-width="2.5"/>
<path d="M46.8672 189.395C45.3131 189.101 43.07 189.482 42.0213 190.627C41.0363 191.701 37.2403 196.612 39.3026 198.502C40.2692 199.387 40.2875 201.556 41.314 202.496C41.369 202.551 43.1486 203.269 42.9885 203.444C42.6778 203.783 40.302 203.894 39.755 204.197C38.4443 204.925 38.0895 206.868 37.2571 207.776C32.5731 212.886 41.3492 216.415 43.6459 218.519C43.9066 218.758 41.1277 219.46 40.2975 221.319C39.2443 223.676 40.1277 228.4 41.6889 229.831C46.298 234.054 54.509 237.97 61.0738 238.987C72.6184 240.777 102.878 238.296 111.863 233.303" stroke="black" stroke-width="2.5"/>
<path d="M106.061 161.096C112.791 161.241 119.73 166.916 125.969 168.189" stroke="black" stroke-width="2.5"/>
<path d="M46.8667 189.395C50.8342 193.43 57.0659 194.253 62.0255 195.266" stroke="black" stroke-width="2.5"/>
<path d="M43.0243 204.258C48.484 208.185 56.9594 210.586 62.7458 211.767" stroke="black" stroke-width="2.5"/>
<path d="M43.6726 219.13C46.7996 222.622 52.8073 224.019 57.2102 225.276" stroke="black" stroke-width="2.5"/>
<path d="M51.9685 175.293C51.6663 174.654 51.3327 174.028 51.0601 173.375C49.9197 170.643 53.2136 164.837 50.8837 162.702C49.2798 161.233 44.4682 156.824 46.0721 158.293C48.0009 160.061 50.9603 162.219 52.3621 163.504C54.7211 165.665 60.3626 164.111 63.1246 165.344C74.1438 170.265 117.876 166.942 108.978 150.933C102.402 139.1 45.7661 144.654 46.3728 158.569" stroke="black" stroke-width="2.5"/>
<path d="M105.017 174.613C105.47 170.474 104.741 164.669 106.929 162.283C107.442 161.723 107.409 160.691 107.859 160.201C107.997 160.051 108.659 160.098 108.47 160.177C107.676 160.506 106.864 160.791 106.061 161.098" stroke="black" stroke-width="2.5"/>
<path d="M111.863 233.303C121.749 217.427 150.037 220.413 167.409 219.656C164.737 201.014 169.104 181.686 172.063 167.2" stroke="black" stroke-width="2.5"/>
<path d="M125.968 168.189C138.431 167.532 163.44 176.607 172.063 167.2" stroke="black" stroke-width="2.5"/>
<path d="M172.063 167.2C172.014 169.243 171.687 171.299 171.922 173.329C171.984 173.887 172.974 172.875 173.534 172.85C176.981 172.7 180.294 172.148 183.704 171.999C192.262 171.626 200.82 171.253 209.378 170.88" stroke="black" stroke-width="2.5"/>
<path d="M167.409 219.656C167.769 218.552 167.834 217.302 168.489 216.343C168.975 215.635 179.67 217.32 181.194 217.422C188.977 217.945 201.831 214.454 208.551 217.453" stroke="black" stroke-width="2.5"/>
<path d="M49.2557 234.808C50.3768 237.214 48.5346 244.318 50.3557 245.987C58.8643 253.783 98.3111 251.931 105.008 244.625C106.032 243.508 105.07 236.67 105.044 236.05" stroke="black" stroke-width="2.5"/>
<path d="M106.061 161.096C109.352 158.492 107.545 155.66 104.8 154.434C94.8245 149.979 74.5474 148.521 64.9337 153.863C62.3876 155.278 58.0685 154.594 56.4333 157.553C54.5923 159.712 56.0115 160.812 57.2168 162.282" stroke="black" stroke-width="2.5"/>
<path d="M66.426 107.76C70.742 112.69 72.6401 118.115 76.8181 121.982C77.1111 122.253 77.1807 119.835 77.2924 119.714C77.4402 119.554 82.3293 119.056 82.336 119.236C82.3544 119.74 82.093 118.196 81.7202 117.854C80.8054 117.007 79.0008 112.976 78.9545 111.774C78.8788 109.814 73.3559 104.968 71.8898 103.611" stroke="black" stroke-width="2.5"/>
<path d="M78.7085 119.941C78.6432 125.421 74.7982 127.93 75.0161 133.58C75.1065 135.929 80.0891 139.215 82.4474 136.668C87.4028 131.316 81.9628 123.952 78.7085 119.941Z" stroke="black" stroke-width="2.5"/>
<path d="M66.426 107.76C66.9999 107.679 67.1204 107.385 67.2812 106.617C67.8562 103.873 69.4582 103.75 72.1381 103.647C72.4031 103.641 73.1976 103.622 72.9325 103.616C72.5858 103.613 72.2381 103.618 71.8907 103.613" stroke="black" stroke-width="2.5"/>
<path d="M76.2099 106.075C78.8722 104.605 80.2661 102.96 80.1503 99.9577C79.5077 83.306 52.1654 98.8471 56.7655 107.222C58.4295 110.252 64.5684 115.834 68.8942 112.322" stroke="black" stroke-width="2.5"/>
<path d="M56.5204 106.039C55.2262 102.909 52.078 98.1357 51.3947 96.8916" stroke="black" stroke-width="2.5"/>
<path d="M78.7132 93.65C76.4685 89.1566 73.3383 84.9523 70.4863 81.4409" stroke="black" stroke-width="2.5"/>
<path d="M11.1386 23.2869C6.10466 23.2026 0.288184 41.4017 3.22405 44.1189C5.05758 45.8161 8.30424 47.108 9.8346 47.8005" stroke="black" stroke-width="2.5"/>
<path d="M24.5432 35.4232C22.5517 34.6397 19.8296 36.6441 17.901 38.21C9.78218 44.8019 6.18185 40.6171 6.66981 53.2651C6.74673 55.2722 8.43031 58.8897 10.0079 59.6038C13.4123 61.1445 17.5905 62.2081 20.8525 63.6846" stroke="black" stroke-width="2.5"/>
<path d="M35.9618 54.3848C30.0239 56.1825 13.2911 64.0145 18.1101 72.7883C19.6661 75.6211 24.9423 77.5115 27.3563 79.1803" stroke="black" stroke-width="2.5"/>
<path d="M48.7199 71.6073C45.5136 72.9382 38.7777 73.8638 36.5265 76.2955C35.5297 77.372 29.6055 78.2321 28.4694 78.8559C23.4116 81.6329 33.6481 90.6883 35.7507 92.6344C39.2184 93.1587 42.892 93.7816 46.2276 94.4799" stroke="black" stroke-width="2.5"/>
<path d="M51.3951 96.8911C49.7202 94.3844 47.5537 90.2924 44.8445 87.7849" stroke="black" stroke-width="2.5"/>
<path d="M46.2276 94.4803C51.8307 92.6433 42.7802 93.9798 46.2276 94.4803Z" stroke="black" stroke-width="2.5"/>
<path d="M15.3017 21.8603C9.965 22.0666 4.97684 16.8892 2.43137 12.6556C1.8447 10.6401 1.73233 7.56151 2.88987 6.31115C3.84106 5.28382 9.94875 5.82347 11.7412 6.11034C16.7225 6.90817 26.0104 6.2147 31.1232 5.503C37.6246 4.5986 52.112 0.106083 58.303 2.9084C60.8531 4.06269 64.6236 6.042 67.4464 6.63303C71.2343 7.42609 73.3603 13.0433 79.1121 13.7753C86.154 14.6713 94.7107 12.3495 101.664 11.4997C111.253 10.3265 121.908 11.1102 130.815 8.96945" stroke="black" stroke-width="2.5"/>
<path d="M77.4062 67.9704C96.1539 59.6204 111.061 60.7673 130.113 60.0325C131.393 59.9836 138.057 61.6894 139.132 60.528C140.633 58.9066 137.561 52.9443 137.09 51.3276C135.031 44.2614 135.418 20.872 133.533 17.4406C132.078 14.7931 131.243 11.8113 130.815 8.96909" stroke="black" stroke-width="2.5"/>
<path d="M130.815 8.96943C131.551 9.83159 132.154 10.828 133.024 11.5556C134.584 12.8607 143.732 9.92541 145.045 9.68584C149.164 8.93299 153.305 8.07425 157.325 7.24407C165.976 5.45731 175.703 8.26692 184.284 6.2042C189.058 5.05644 194.754 3.55085 199.642 3.36298" stroke="black" stroke-width="2.5"/>
<path d="M139.002 57.1594C166.873 57.2724 197.652 50.988 224.76 56.6639" stroke="black" stroke-width="2.5"/>
<path d="M48.7197 71.6077C47.9307 70.5098 51.6069 70.5125 52.7539 70.4683C54.7385 70.3914 62.189 68.8767 63.83 69.6196C65.32 70.2945 67.9036 75.6262 65.3808 77.0115C63.3063 78.1505 61.6336 78.9973 59.4569 80.1924" stroke="black" stroke-width="2.5"/>
<path d="M70.4865 81.4413C68.0694 80.7879 67.6826 77.9228 66.3528 76.6922" stroke="black" stroke-width="2.5"/>
<path d="M44.8445 87.7851C47.2406 87.5403 47.2613 84.3585 49.0456 83.6863C51.0107 82.9469 59.2235 79.7665 59.4571 80.1918" stroke="black" stroke-width="2.5"/>
<path d="M35.9623 54.3848C43.2341 54.5191 60.5632 50.5511 60.9451 60.451C60.9818 61.3936 61.3486 63.5248 60.8053 64.1118C57.4936 67.6886 51.5574 66.573 48.7202 71.6077" stroke="black" stroke-width="2.5"/>
<path d="M24.5436 35.4235C24.4423 35.1458 24.1932 34.8863 24.2304 34.5919C24.344 33.6993 36.1505 35.7477 36.5111 35.8054C43.8817 36.9859 48.3325 33.6896 53.404 39.934C54.0675 40.7508 54.8719 41.728 54.5063 42.9847C53.9691 44.8317 53.1891 48.1522 51.3694 49.1513C50.0209 49.8917 48.2868 50.5795 47.5192 51.4087C46.8121 52.1724 45.5394 52.0845 44.9001 52.7751" stroke="black" stroke-width="2.5"/>
<path d="M11.1382 23.287C10.9471 23.2009 10.7444 23.1374 10.5662 23.0282C10.3873 22.9195 10.9288 23.2955 11.1382 23.287ZM11.1382 23.287C12.2151 23.2443 13.3712 22.9219 14.4972 22.8762C16.2757 22.8078 18.0544 22.7394 19.8329 22.6704C26.1127 22.4281 33.5723 21.0268 39.2744 23.6078C40.562 24.1913 43.2933 22.9958 44.3508 23.9746C45.2132 24.7729 45.7342 28.384 45.1341 29.7089C43.8646 32.5128 39.102 34.2082 36.8018 36.0757" stroke="black" stroke-width="2.5"/>
<path d="M62.3934 68.8307C61.6323 67.3348 61.0945 65.9669 59.8708 65.4131" stroke="black" stroke-width="2.5"/>
<path d="M55.0365 53.0864C53.5521 51.9517 52.5672 50.2877 51.7795 48.8536" stroke="black" stroke-width="2.5"/>
<path d="M67.0494 72.869C71.1567 71.0912 73.7314 69.0412 77.4068 67.9706" stroke="black" stroke-width="2.5"/>
</svg>
