<?xml version="1.0" encoding="UTF-8"?>
<svg id="Layer_1" data-name="Layer 1" xmlns="http://www.w3.org/2000/svg" version="1.1" viewBox="0 0 226 253">
  <defs>
    <style>
      .cls-1 {
        fill: #b88033;
        stroke-width: 0px;
      }
    </style>
  </defs>
  <path class="cls-1" d="M177.4,173.4c2.3,0,4.6,0,6.3-.2l25.7-1.1v-2.5c-.1,0-25.8,1.1-25.8,1.1-1.7,0-4,.1-6.3.2-1.7,0-3.4,0-4.8.1,0-.4.2-.7.2-1.1l.8-4h-3.1c-10.8,3.4-21.3,2.4-30.6,1.6-4.9-.4-9.6-.9-13.9-.6h-.6c-2.5-.5-5-1.8-7.7-3.2-2.7-1.4-5.5-2.8-8.4-3.5,2.5-2.9,2.8-6.3.8-10-3.6-6.5-19.8-6.9-26.5-6.7-12.9.3-25.8,2.8-32.8,6.4-6.8,3.5-6.4,7.2-5.5,9.1.6,1.2,2.1,2.4,3.5,3.5.5.4,1,.8,1.3,1h0c.8.7.4,2.8,0,4.7-.4,2-.8,4-.1,5.5,0,0,0,0,0,0-6.2-.1-9.1,3.2-9.6,6.5-.5,3,.6,6.1,2.6,8.1-.7.3-1.3.8-1.8,1.3-.1.1-.3.3-.5.5-1.4,1.3-4.5,4-3,8.5v.2c.3.3.5.8.7,1.2.5.9,1,1.9,1.6,2.6-.3,0-.6.2-.8.3-1.1.6-1.7,1.8-2.2,2.7-.2.4-.4.9-.6,1.1-1.3,1.4-1.8,2.9-1.6,4.3.4,3,3.6,5.1,6.1,6.7.2.1.4.3.6.4-.8.5-1.8,1.3-2.3,2.4-1.2,2.8-.3,8.1,1.7,9.9,2,1.8,4.6,3.6,7.4,5.1.2,1,.1,2.6,0,4.1-.1,2.9-.3,5.7,1.2,7,4.2,3.8,14.3,5.5,24.9,5.5s27.6-2.6,31.5-6.9c.9-1,1-3.3.4-8.6,2.2-.6,4.2-1.4,5.6-2.2l.8-.4.2-.3c7.9-12.6,28.5-12.8,45-12.9,3.4,0,6.6,0,9.6-.2h1.4c0,0-.2-1.4-.2-1.4,0-.6-.1-1.1-.2-1.7,2,0,6.3.6,8.4.9,1.4.2,2.4.3,2.8.3.6,0,1.2,0,1.8,0,2.6,0,5.5-.3,8.6-.6,6.2-.6,12.6-1.3,16.5.5l1-2.3c-4.5-2-11.2-1.3-17.7-.7-3.7.4-7.3.7-10.1.5-.4,0-1.4-.2-2.7-.3-4.9-.6-7.5-.9-9-.9-1.3-14.6,1.3-29.3,3.9-41.7,1.6,0,3.5,0,5.4-.1ZM50.3,160.6c-1-.7-2.5-1.9-2.8-2.6-.9-1.9.6-3.9,4.3-5.8,14-7.1,51.5-8.8,56-.7.9,1.5,1.2,3,.9,4.3-1-1.3-2.7-2.1-3.5-2.5-10.5-4.7-31.2-6-41-.5-.8.4-1.8.6-3,.9-2.2.4-4.6.9-6,3.2-1.6,1.9-.7,4.3.4,6.1-1.7-.2-3.3-.5-4-1.2,0,0,0,0,0,0-.4-.3-.9-.7-1.4-1.2ZM63.6,164.2c-1.2-.5-2.8-.7-4.6-.9-1.9-2.4-2.4-4.1-1.7-5v-.2c.9-1.4,2.5-1.7,4.5-2.1,1.3-.3,2.6-.5,3.7-1.1,9-5,28.8-3.8,38.7.6,1.7.7,2.9,1.8,3,2.6,0,.5-.3,1-.7,1.3-8.1,7-34.6,8.4-42.9,4.7ZM105,163.5c-.4,2.4-.7,5.2-.9,7.9,0,.9-.2,1.8-.3,2.6-13.2,10.8-36.2,8.7-50.9.4,0-.1,0-.2-.1-.3-.2-.4-.4-.8-.6-1.2-.4-.8,0-2.6.3-4.1.2-1.2.5-2.6.5-3.8,1.5.4,3.3.5,5,.7,1.8.2,3.7.3,4.6.8,7.6,3.4,31,3.2,42.4-3ZM104.1,243.8c-6.1,6.6-44.6,8.9-52.9,1.3-.6-.5-.5-3.4-.4-5.1,0-1,0-2,0-2.9,3.3,1.5,6.8,2.6,10,3.1,2.7.4,6.4.6,10.6.6,10.2,0,23.3-1.2,32.4-3.4.5,4.9.2,6.1.2,6.3ZM170.3,169.4c-2.9,14.1-6.5,31.7-4.3,49-2.5,0-5.2,0-8.1.1-17,.1-38.2.3-46.9,13.8h-.2c-8.9,5-38.6,7.1-49.5,5.4-6.2-1-14.3-4.8-18.7-8.8-1.1-1.1-1.9-5.2-1.1-7.1.3-.8,1.4-1.3,2-1.7,3.4,3.2,8.9,5.1,13.4,6.3l.7-2.4c-4-1.1-9.6-3-12.6-6h0s-.5-.5-.5-.5c-.6-.5-1.4-1-2.3-1.7-2-1.3-4.8-3.1-5-5,0-.7.2-1.5,1-2.3.4-.5.7-1.1,1-1.7.3-.7.7-1.4,1.1-1.6.2,0,.8-.2,1.2-.2.5,0,1-.2,1.3-.2,5.9,4,14.2,7,19.7,8.1l.5-2.4c-5.5-1.1-13.8-4.2-19.1-8-.3-.4-.9-.7-1.8-1,0,0,0,0-.1,0-.5-.5-1-1.5-1.5-2.4-.2-.4-.4-.8-.6-1.2-.8-2.6.6-4.2,2.3-5.7.3-.3.5-.5.7-.7.6-.7,1.9-1.2,2.8-1.1.2,0,.3,0,.5.1,0,0,0,0,0,0,0,0,.1.1.2.2,3.7,3.6,8.6,4.5,13,5.3.8.1,1.6.3,2.4.4l.5-2.4c-.8-.2-1.6-.3-2.4-.5-4.2-.8-8.5-1.5-11.7-4.6h0c-.2-.3-.4-.5-.7-.7-.3-.2-.6-.2-1-.3-2.4-.9-4.2-4.2-3.7-7.1.6-3.4,3.8-4.9,8.8-4.3,15.5,8.8,39.8,10.9,53.8-.6l.8-.6v-.5c.2-1,.3-2.1.4-3.2.3-3.1.6-6.7,1.2-9.1,3,.5,5.9,2,8.8,3.5,2.7,1.4,5.6,2.8,8.4,3.4h.1s.9,0,.9,0c4.2-.2,8.7.2,13.6.6,9.3.8,19.9,1.8,30.9-1.4l-.2.8Z"/>
  <path class="cls-1" d="M168.6,54.5c-9.4.7-19.2,1.4-28.5,1.4-.3-1.1-.8-2.2-1.3-3.4-.3-.6-.5-1.3-.6-1.6-1-3.4-1.4-11.1-1.8-17.9-.5-8.8-.8-14.3-1.9-16.2-.3-.5-.5-.9-.8-1.4-.6-1.1-1.1-1.9-1.4-2.8,1.6,1,5.2.3,11.2-1.4.7-.2,1.4-.4,1.6-.4,4-.7,8-1.5,11.8-2.3h.5c4-.9,8.5-.7,12.8-.5,4.7.2,9.6.5,14.2-.6l1.6-.4c4.4-1.1,9.3-2.3,13.6-2.4v-2.5c-4.6.2-9.7,1.4-14.2,2.5l-1.5.4c-4.2,1-8.9.8-13.5.6-4.5-.2-9.1-.4-13.4.5h-.5c-3.8.9-7.8,1.7-11.8,2.4-.3,0-.8.2-1.8.5-5.4,1.5-8.5,2-9.2,1.7-.1-.1-.4-.6-.5-.9-.4-.8-1.2-2.4-2.8-1.9h0c-5.2,1.2-11.2,1.5-17.1,1.7-4,.2-8.1.3-12,.8-2,.2-4.2.6-6.4,1-5.4.9-11,1.9-15.8,1.3-2.8-.4-4.7-2.1-6.5-3.8-1.6-1.5-3-2.9-5-3.3-2.1-.4-4.9-1.8-7.1-2.8-.6-.3-1.2-.6-1.8-.8-5-2.3-14.3-.3-21.7,1.3-2.4.5-4.5,1-6.2,1.2-4.7.7-14.1,1.4-19,.6,0,0-8.3-1.3-10,.6-1.6,1.8-1.3,5.5-.7,7.5v.3c1.2,1.8,4.3,6.5,8.4,9.1-2.8,1.2-4.9,5.5-6,8.3-1.6,3.9-3.8,11.9-1.2,14.4,1.5,1.4,2.2,1.8,3.2,2.2-.2,1.6-.3,3.5-.2,6.1,0,2.2,1.9,6.4,4.1,7.4,1.8.8,3.7,1.5,5.6,2.1,1,.4,2,.7,3,1.1-.6.8-1.2,1.7-1.5,2.6-1,2.3-.8,4.6.4,6.8,1.3,2.3,4.3,3.9,6.9,5.3.8.4,1.5.8,2.1,1.2,0,.2-.1.5-.2.8-.4,3.7,4.4,8.7,8.7,12.7l.6.6h.4c3.7.6,10.3,1.1,13.5,1.7.2.4.4.7.7,1.1l.6.9c.3.5.7,1.1,1.3,1.9,1.1,1.5,2.6,3.6,3.4,5.6,0,1,.2,2,.7,2.8,1.3,2.3,4.8,6,8.7,6.7.5,0,.9.1,1.4.1,1.2,0,2.4-.4,3.4-1,.3.5.6.9.8,1.4,1.5,2.6,3,5,5.4,7.2.3.3.6.4.9.4.7,0,1.5-.6,2.3-1.1,0,0,.2-.2.4-.3v1.1c0,2.2-1.1,3.3-2.3,4.6-1.4,1.5-3,3.2-2.9,6.6,0,2.1,2.3,4.1,4.4,4.8.7.3,1.4.4,2.1.4,1.2,0,2.3-.4,3.1-1.3,5.7-6.1,1.1-11.8-2.2-15.9l-1,.8,1-.8-1-1.2s0,0,0,0c2.7-1.8,2.8-2.5,2.8-2.9.2-1.1-.7-2.4-1.6-3.9-.4-.6-1.1-1.6-1.1-1.9,0-1.2-1.1-2.7-2.8-4.6,2.7-1.8,4.1-4.4,4-7.3-.1-3.8-1.6-5.9-3.2-7.1-.5-.9-.9-1.8-1.3-2.7-1.6-3.4-3.2-6.6-5.4-9.4l-.9-.9h-.3c-.9-.3-1.2-.9-1.7-1.9-.3-.6-.6-1.2-1-1.7.1-.4.2-.9.2-1.4,0-.2,0-.5,0-.7,1.8-.8,3.2-1.6,4.4-2.3,1.6-.9,3-1.7,5-2.3l.8-.3h.1c15.5-7,28.4-7.3,43.4-7.6,2.9,0,5.8-.1,8.8-.3.3,0,1.3.2,2.1.3,4,.7,6.6,1,7.8-.2.7-.7.8-1.7.7-3,9.2,0,18.8-.7,28-1.4,18.8-1.4,38.2-2.8,55.7.9l.5-2.4c-17.9-3.7-37.5-2.3-56.4-.9ZM6.2,44.8c-.6-.3-1.1-.6-2.1-1.6-.8-.8-.5-5.8,1.8-11.6,2-4.9,4.1-7.1,5.2-7.1s0,0,0,0h0s.6,0,.6,0c.6,0,1.1-.1,1.5-.2.4,0,.7-.1,1.2-.2h.8s0,0,0,0l4.5-.2c1.4,0,2.8-.2,4.3-.3,5.1-.4,10.4-.8,14.6,1.1.9.4,2,.3,3,.2.5,0,1.5-.2,1.8,0,.5.6.9,3.5.5,4.3-.7,1.5-2.9,2.8-4.9,3.9-.9.5-1.7,1-2.4,1.5,0,0,0,0,0,0,0,0-11.1-.9-12.8-.6-2,.5-5.4,2.3-6.7,3.1-2.2,1.4-4.1,2.2-5.5,2.9-2.9,1.3-4.6,2.3-5.5,4.7ZM15.9,60.5c-1.8-.6-3.8-1.3-5.4-2-.9-.4-2.5-3.4-2.6-5.2-.3-8.6.7-9,4.8-10.9,1.6-.7,3.5-1.6,5.8-3.1,1.5-.9,4.5-2.5,5.9-2.8,1.2-.2,11,.5,11.8.6,2.5.4,4.7.3,6.6.2,3.9-.2,6.5-.3,9.5,3.5.6.8,1,1.3.9,1.9l-.2.6c-.4,1.6-1.2,4.2-2.4,4.9-.4.2-.8.4-1.2.6-1.1.6-2.3,1.1-3,1.9-.3.2-1.4.8-2.2,1.1-1,.5-1.8.8-2.3,1.2-2,.2-4,.3-5.4.3h-1.1c-3.1,1-10.9,4.2-15.7,8.8-1.3-.5-2.7-1-4-1.4ZM52.5,52.6c-1.4-.1-2.9-.1-4.3-.1,0,0,.2-.1.3-.2.4-.4,1.4-.9,2.3-1.4.2-.1.4-.2.6-.3.4.7.8,1.4,1.2,2ZM27.7,77.9c-.7-.5-1.6-.9-2.6-1.4-2.2-1.2-5-2.6-5.9-4.3-.8-1.5-.9-3.1-.3-4.7,2.3-5.6,12.6-10.4,17.2-11.9h.5c1.6,0,3.6-.1,5.7-.3,5.7-.5,12.8-1,15.8,1.7,1,.8,1.4,2,1.5,3.5,0,.2,0,.5,0,.8,0,.5.1,1.6,0,2-1.2,1.3-2.8,1.7-4.5,2.2-2.4.7-5.1,1.4-7.1,4.6,0,0,0,.2-.1.2,0,.1-.1.3-.2.3-1.1.9-3.3,1.4-5.4,1.9-2.8.7-5.5,1.3-6.9,2.9-.5.4-3.1,1-4.5,1.4-1.7.4-2.7.7-3.3,1,0,0-.1,0-.2.1ZM60.6,68.1c-1.6,0-3.6,0-6,.2.4-.1.9-.3,1.4-.4,1.1-.3,2.4-.7,3.6-1.3.4.3.8.8,1.1,1.4ZM36.3,91.4c-6.8-6.3-8.1-9.2-7.9-10.5,0-.3.1-.6.7-.9.3-.2,1.7-.5,2.7-.7,3-.7,4.9-1.2,5.7-2.1.9-1,3.4-1.6,5.6-2.1,2.5-.6,4.9-1.2,6.4-2.4.3-.3.5-.6.7-1v-.2c.2-.1.2-.2.3-.3.4,0,.9,0,1.5,0,2.5-.2,10.1-.7,11.2-.2.5.3,1.9,2.4,1.9,4.1,0,.8-.3,1-.4,1-1,.6-1.9,1-2.9,1.5-.9.5-1.9,1-2.9,1.6l-1,.3c-1.6.3-9.1,3.1-9.4,3.2-2.5.9-4.1,2.5-4.9,4.8-.4,1.2.8,2.1,1.4,2.4,1.2,1.1,1.9,2.1,2.5,3.2-3-.5-7.8-1-11.3-1.5h0ZM80.9,125.3c2.8,3.7,4,6.9.7,10.5-.7.7-1.7.6-2.5.3-1.6-.6-2.7-1.9-2.8-2.6,0-2.4.9-3.5,2.2-4.8.9-.9,1.8-1.9,2.4-3.4ZM77.7,111.8c0,.9.6,1.8,1.5,3.2.4.6,1,1.5,1.2,2-.3.3-1.1.9-1.7,1.3h-.2c-.3.4-1.4,1.2-2,1.6-1.8-1.8-3.1-3.9-4.4-6.1-1.1-1.9-2.3-3.8-3.9-5.8l3.6-2.7c5,4.6,5.8,6.1,5.9,6.6ZM78.9,100c0,2.2-1,4-3.3,5.3-.7-.7-1.5-1.4-2.3-2.2l-1.3-1.2-7.4,5.6.9,1c.9,1,1.6,2,2.3,3-.8.6-1.8.8-2.9.5-2.9-.6-6-3.6-7-5.5-1.1-2,.6-4.5,1.7-5.8,3.7-4.3,11.4-8.2,16-6.6,2.2.7,3.3,2.7,3.4,5.8ZM69.3,82l.3.3c2.1,2.6,3.5,5.6,5.1,8.9,0,0,0,.2.1.3-5.6-.9-13.3,3.1-17.2,7.7-.7.8-1.2,1.6-1.6,2.3-.8-1.3-1.7-2.6-2.4-3.6-.5-.7-.9-1.3-1.2-1.7l-.7-1c-.5-.8-.9-1.5-1.3-2.2-.9-1.6-1.8-3.3-3.8-5.1l-.2-.2c0,0-.1,0-.2-.1.6-1.3,1.7-2.1,3.2-2.7,3.2-1.2,8.2-3,9-3.1l1.3-.3h.3c1.1-.7,2.1-1.2,3-1.7.9-.5,1.8-1,2.8-1.5.1.2.3.5.4.8.5,1.1,1.1,2.5,3,3.1ZM138.3,59.6c-.9.3-4.1-.3-5.6-.5-1.4-.2-2.1-.4-2.6-.3-3,.1-6,.2-8.8.3-15.2.4-28.3.7-44.3,7.8l-.7.2c-2.2.7-3.8,1.6-5.5,2.5-1.1.7-2.4,1.3-3.9,2-.7-1.4-1.6-2.7-2.5-3.1-.2,0-.5-.2-.8-.2l-.3-.5c-.5-.9-.9-1.9-1.7-2.6,0,0,.1,0,.2-.1.7-.8.7-2.1.5-3.8,0-.3,0-.5,0-.7,0-2.2-.9-4-2.3-5.3-1-.9-2.2-1.5-3.6-1.9-1-.9-2.2-2.8-2.9-4.2,1.2-1.5,1.8-3.6,2.2-5.2l.2-.5c.5-1.9-.6-3.3-1.3-4.2-3.8-4.7-7.6-4.5-11.5-4.4-.6,0-1.1,0-1.7,0,2.1-1.2,4.2-2.6,5.1-4.6.8-1.7.3-5.9-1.1-7.2-1-.9-2.5-.8-3.7-.6-.6,0-1.4.2-1.7,0-4.8-2.2-10.4-1.7-15.8-1.3-1.5.1-2.8.2-4.2.3l-4.5.2c-4.3.2-8.8-4.7-11.7-9.4-.5-1.9-.4-4.2.2-4.9.9-.4,5.5-.2,7.8.1,5.3.8,14.7.1,19.8-.6,1.7-.2,3.8-.7,6.3-1.2,6.7-1.4,15.9-3.4,20.2-1.5.5.2,1.1.5,1.7.8,2.4,1.1,5.3,2.5,7.7,3,1.3.3,2.5,1.4,3.8,2.7,1.9,1.8,4.3,4,7.9,4.5,5.2.7,11-.3,16.6-1.3,2.2-.4,4.3-.7,6.3-1,3.8-.5,7.8-.6,11.7-.8,5.4-.2,10.9-.4,16-1.4,0,0,0,.2,0,.2.2,2.6,1,4.1,2.1,6,.2.4.5.8.7,1.3.8,1.5,1.2,8.7,1.6,15.1.4,7.3.8,14.8,1.9,18.5.1.4.4,1,.7,1.8,1.4,3.5,2,5.5,1.7,6.1Z"/>
</svg>