<svg width="368" height="333" viewBox="0 0 368 333" fill="none" xmlns="http://www.w3.org/2000/svg">
<path d="M101.099 9.02701C70.2458 16.7381 67.5441 23.0366 50.9516 34.0965C38.7322 42.2412 29.7494 63.7748 25.878 75.3871C16.6018 103.211 -4.13409 148.541 3.75429 180.089C14.3433 222.438 46.3446 274.699 83.3996 302.486C116.951 327.645 142.437 320.879 180.589 330.416C257.259 337.307 295.092 308.515 321.007 282.605C326.175 276.144 338.378 270.831 348.143 246.424C353.602 232.777 357.55 221.747 363.634 209.582C369.626 197.599 363.634 167.097 363.634 153.545C363.634 20.9672 203.935 -16.6777 101.099 9.02701Z" stroke="#4556EB" stroke-width="2.5"/>
<path d="M180.743 330.505C114.257 307.157 104.052 305.146 67.3074 245.993C60.7982 239.485 58.2621 224.887 50.0782 205.935C22.8133 156.996 53.5239 33.6437 161.206 1.33905" stroke="#4556EB" stroke-width="2.5"/>
<path d="M180.743 330.505C152.081 258.538 72.4759 85.3312 162.067 1.33905" stroke="#4556EB" stroke-width="2.5"/>
<path d="M162.498 1.76981C183.448 24.5126 183.549 36.8525 201.393 60.6408C218.489 83.4317 239.39 157.509 233.841 185.25C228.952 209.69 224.263 233.878 218.354 257.509C211.193 286.148 202.384 319.687 180.744 330.505" stroke="#4556EB" stroke-width="2.5"/>
<path d="M180.744 330.505C254.13 335.556 286.331 289.427 303.161 222.117C310.255 193.749 312.016 161.671 302.424 132.899C298.491 121.102 295.163 94.8073 282.672 79.301C268.793 62.0719 251.448 48.5066 243.906 40.9661C232.92 29.9811 210.74 15.1224 162.068 1.33905" stroke="#4556EB" stroke-width="2.5"/>
<path d="M18.5032 96.033C26.1236 99.9654 33.5279 104.348 41.3645 107.83C55.0629 113.918 81.3702 106.356 95.9363 106.356C118.665 106.356 144.637 112.987 166.732 109.305C195.25 104.553 225.639 99.9955 253.015 90.8716C271.9 84.5774 289.617 79.947 307.587 70.9635C309.668 69.9232 322.299 62.5026 327.468 59.9182" stroke="#4556EB" stroke-width="2.5"/>
<path d="M56.1134 30.4101C62.7505 35.8172 69.058 41.656 76.0247 46.6315C102.977 65.8801 187.192 56.3111 213.929 42.9447C224.352 37.7343 241.023 31.7484 252.277 28.9354C255.859 28.04 263.246 24.1889 268.889 20.7219" stroke="#4556EB" stroke-width="2.5"/>
<path d="M28.5416 238.671C95.6692 291.405 194.733 269.038 271.23 252.041C296.493 246.428 317.036 231.559 341.289 225.497C347.605 223.918 350.091 222.606 358.997 219.719" stroke="#4556EB" stroke-width="2.5"/>
<path d="M341.682 260.207C311.531 277.867 299.891 289.683 276.393 295.557C231.584 306.758 186.803 311.824 139.248 303.899C119.746 300.649 104.445 292.126 86.5805 286.172C80.8729 284.27 51.2393 275.585 54.7714 274.702" stroke="#4556EB" stroke-width="2.5"/>
<path d="M2.26721 157.694C8.90433 163.101 13.8665 166.842 20.7156 171.978C55.5946 198.133 177.974 192.679 215.405 188.937C238.515 186.626 259.663 173.451 281.776 169.029C298.153 165.754 317.571 161.089 332.66 153.545C341.896 148.928 355.019 145.425 363.218 141.326" stroke="#4556EB" stroke-width="2.5"/>
</svg>
