<svg width="21" height="20" viewBox="0 0 21 20" fill="none" xmlns="http://www.w3.org/2000/svg">
<g clip-path="url(#clip0_266_3420)">
<path d="M20.3269 13.3756C20.7292 12.3233 20.9494 11.185 20.9494 9.99678C20.9494 8.80853 20.7292 7.67033 20.3269 6.61792L10.9415 5.77319L1.55608 6.61792C1.15381 7.67033 0.933594 8.80853 0.933594 9.99678C0.933594 11.185 1.15381 12.3233 1.55608 13.3756L10.9415 14.2204L20.3269 13.3756Z" fill="#F0F0F0"/>
<path d="M10.9401 19.7112C15.2431 19.7112 18.9115 17.0749 20.3255 13.3757H1.55469C2.96877 17.0749 6.63705 19.7112 10.9401 19.7112Z" fill="#D80027"/>
<path d="M10.9401 0.282471C6.63705 0.282471 2.96877 2.91868 1.55469 6.61789H20.3255C18.9115 2.91868 15.2431 0.282471 10.9401 0.282471Z" fill="#D80027"/>
</g>
<defs>
<clipPath id="clip0_266_3420">
<rect width="20.0158" height="19.4286" fill="white" transform="translate(0.933594 0.282471)"/>
</clipPath>
</defs>
</svg>
