<svg width="21" height="21" viewBox="0 0 21 21" fill="none" xmlns="http://www.w3.org/2000/svg">
<g clip-path="url(#clip0_266_3401)">
<path d="M14.1818 0.662275C13.0977 0.260322 11.925 0.0402832 10.7009 0.0402832C9.47668 0.0402832 8.30404 0.260322 7.21987 0.662275L6.34961 10.0403L7.21987 19.4183C8.30404 19.8203 9.47668 20.0403 10.7009 20.0403C11.925 20.0403 13.0977 19.8203 14.1818 19.4183L15.0521 10.0403L14.1818 0.662275Z" fill="#FFDA44"/>
<path d="M20.7095 10.0403C20.7095 5.74071 17.9936 2.07524 14.1826 0.662354V19.4184C17.9936 18.0054 20.7095 14.34 20.7095 10.0403V10.0403Z" fill="#D80027"/>
<path d="M0.693359 10.0403C0.693359 14.34 3.40925 18.0054 7.22026 19.4184V0.662354C3.40925 2.07524 0.693359 5.74071 0.693359 10.0403V10.0403Z" fill="black"/>
</g>
<defs>
<clipPath id="clip0_266_3401">
<rect width="20.0158" height="20" fill="white" transform="translate(0.693359 0.0402832)"/>
</clipPath>
</defs>
</svg>
