<svg width="21" height="21" viewBox="0 0 21 21" fill="none" xmlns="http://www.w3.org/2000/svg">
<g clip-path="url(#clip0_266_3415)">
<path d="M1.33301 13.5185C2.74705 17.3264 6.41537 20.0402 10.7184 20.0402C15.0215 20.0402 18.6898 17.3264 20.1038 13.5185L10.7184 12.6489L1.33301 13.5185Z" fill="#FFDA44"/>
<path d="M10.7184 0.0402832C6.41537 0.0402832 2.74705 2.75403 1.33301 6.56204L10.7184 7.43157L20.1038 6.562C18.6898 2.75403 15.0215 0.0402832 10.7184 0.0402832Z" fill="black"/>
<path d="M1.33342 6.56201C0.93115 7.64533 0.710938 8.81705 0.710938 10.0403C0.710938 11.2635 0.93115 12.4352 1.33342 13.5185H20.1043C20.5065 12.4352 20.7267 11.2635 20.7267 10.0403C20.7267 8.81705 20.5065 7.64533 20.1042 6.56201H1.33342Z" fill="#D80027"/>
</g>
<defs>
<clipPath id="clip0_266_3415">
<rect width="20.0158" height="20" fill="white" transform="translate(0.710938 0.0402832)"/>
</clipPath>
</defs>
</svg>
