<svg width="21" height="21" viewBox="0 0 21 21" fill="none" xmlns="http://www.w3.org/2000/svg">
<g clip-path="url(#clip0_266_3410)">
<path d="M10.2403 20.0403C15.7675 20.0403 20.2482 15.5631 20.2482 10.0403C20.2482 4.51744 15.7675 0.0402832 10.2403 0.0402832C4.71311 0.0402832 0.232422 4.51744 0.232422 10.0403C0.232422 15.5631 4.71311 20.0403 10.2403 20.0403Z" fill="#F0F0F0"/>
<path d="M20.2486 10.0404C20.2486 5.74071 17.5327 2.07528 13.7217 0.662354V19.4184C17.5327 18.0054 20.2486 14.34 20.2486 10.0404Z" fill="#D80027"/>
<path d="M0.232422 10.0404C0.232422 14.34 2.94835 18.0054 6.75933 19.4184V0.662354C2.94835 2.07528 0.232422 5.74071 0.232422 10.0404Z" fill="#0052B4"/>
</g>
<defs>
<clipPath id="clip0_266_3410">
<rect width="20.0158" height="20" fill="white" transform="translate(0.232422 0.0402832)"/>
</clipPath>
</defs>
</svg>
