<svg width="21" height="21" viewBox="0 0 21 21" fill="none" xmlns="http://www.w3.org/2000/svg">
<g clip-path="url(#clip0_266_3453)">
<path d="M10.2091 20.0403C15.7363 20.0403 20.217 15.5631 20.217 10.0403C20.217 4.51744 15.7363 0.0402832 10.2091 0.0402832C4.68186 0.0402832 0.201172 4.51744 0.201172 10.0403C0.201172 15.5631 4.68186 20.0403 10.2091 20.0403Z" fill="#F0F0F0"/>
<path d="M10.2092 0.0402832C6.24144 0.0402832 2.81311 2.34751 1.19434 5.69247H19.224C17.6052 2.34751 14.1769 0.0402832 10.2092 0.0402832Z" fill="#FF9811"/>
<path d="M10.2092 20.0404C14.1769 20.0404 17.6052 17.7331 19.224 14.3882H1.19434C2.81311 17.7331 6.24144 20.0404 10.2092 20.0404Z" fill="#6DA544"/>
<path d="M10.2095 13.5185C12.132 13.5185 13.6905 11.9612 13.6905 10.0403C13.6905 8.11927 12.132 6.56201 10.2095 6.56201C8.28701 6.56201 6.72852 8.11927 6.72852 10.0403C6.72852 11.9612 8.28701 13.5185 10.2095 13.5185Z" fill="#0052B4"/>
<path d="M10.2088 12.2143C11.4104 12.2143 12.3844 11.241 12.3844 10.0404C12.3844 8.83975 11.4104 7.86646 10.2088 7.86646C9.00726 7.86646 8.0332 8.83975 8.0332 10.0404C8.0332 11.241 9.00726 12.2143 10.2088 12.2143Z" fill="#F0F0F0"/>
<path d="M10.2088 7.35767L10.88 8.87868L12.5338 8.69895L11.5511 10.0402L12.5338 11.3815L10.88 11.2018L10.2088 12.7228L9.53759 11.2018L7.88379 11.3815L8.86644 10.0402L7.88379 8.69895L9.53759 8.87868L10.2088 7.35767Z" fill="#0052B4"/>
</g>
<defs>
<clipPath id="clip0_266_3453">
<rect width="20.0158" height="20" fill="white" transform="translate(0.201172 0.0402832)"/>
</clipPath>
</defs>
</svg>
