<svg width="20" height="21" viewBox="0 0 20 21" fill="none" xmlns="http://www.w3.org/2000/svg">
<g clip-path="url(#clip0_266_3445)">
<path d="M9.99812 20.0403C15.5253 20.0403 20.006 15.5631 20.006 10.0403C20.006 4.51744 15.5253 0.0402832 9.99812 0.0402832C4.47092 0.0402832 -0.00976562 4.51744 -0.00976562 10.0403C-0.00976562 15.5631 4.47092 20.0403 9.99812 20.0403Z" fill="#F0F0F0"/>
<path d="M20.0063 10.0402C20.0063 6.0756 17.6972 2.64997 14.3496 1.03247V19.0479C17.6972 17.4304 20.0063 14.0048 20.0063 10.0402Z" fill="#D80027"/>
<path d="M-0.00976562 10.0402C-0.00976562 14.0048 2.29928 17.4304 5.64688 19.0479V1.03247C2.29928 2.64997 -0.00976562 6.07559 -0.00976562 10.0402Z" fill="#6DA544"/>
<path d="M7.3877 10.0402C7.3877 11.481 8.55659 12.6489 9.99846 12.6489C11.4403 12.6489 12.6092 11.481 12.6092 10.0402V9.17065H7.3877V10.0402Z" fill="#6DA544"/>
<path d="M13.4787 8.30121H10.8679C10.8679 7.82098 10.4782 7.43164 9.99763 7.43164C9.51701 7.43164 9.12737 7.82098 9.12737 8.30121H6.5166C6.5166 8.78148 6.93525 9.17078 7.41583 9.17078H7.38686C7.38686 9.65105 7.77646 10.0404 8.25711 10.0404C8.25711 10.5206 8.64672 10.9099 9.12737 10.9099H10.8679C11.3485 10.9099 11.7381 10.5206 11.7381 10.0404C12.2188 10.0404 12.6084 9.65105 12.6084 9.17078H12.5794C13.06 9.17078 13.4787 8.78148 13.4787 8.30121Z" fill="#FF9811"/>
</g>
<defs>
<clipPath id="clip0_266_3445">
<rect width="20.0158" height="20" fill="white" transform="translate(-0.00976562 0.0402832)"/>
</clipPath>
</defs>
</svg>
