<svg width="21" height="21" viewBox="0 0 21 21" fill="none" xmlns="http://www.w3.org/2000/svg">
<g clip-path="url(#clip0_266_3431)">
<path d="M20.1466 10.0403C20.1466 15.5631 15.6659 20.0403 10.1387 20.0403C4.61158 20.0403 0.130859 15.5631 0.130859 10.0403C0.130859 10.0427 10.1387 0.041377 10.1387 0.0402832C15.6659 0.0402832 20.1466 4.51747 20.1466 10.0403Z" fill="#0052B4"/>
<path d="M10.1123 10.0402H10.1391C10.1391 10.0312 10.1391 10.0225 10.1391 10.0134C10.1302 10.0224 10.1213 10.0313 10.1123 10.0402Z" fill="#F0F0F0"/>
<path d="M10.1388 5.25767C10.1388 3.4981 10.1388 2.34517 10.1388 0.0402832H10.1371C4.61064 0.0412207 0.130859 4.51798 0.130859 10.0403H5.35236V7.10235L8.29265 10.0403H10.112C10.1209 10.0314 10.1299 10.0225 10.1388 10.0135C10.1388 9.33981 10.1388 8.73868 10.1388 8.19567L7.19846 5.25767H10.1388Z" fill="#F0F0F0"/>
<path d="M5.19433 1.34473C3.62907 2.23531 2.32781 3.53555 1.43652 5.09957V10.0404H4.04729V3.95352V3.95344H10.139C10.139 3.13066 10.139 2.34684 10.139 1.34473H5.19433Z" fill="#D80027"/>
<path d="M10.1389 8.81066L6.58324 5.25781C6.58324 5.25781 5.35254 5.25789 5.35254 5.25781V5.25789L10.1389 10.0404H10.1389C10.1389 10.0404 10.1389 9.19246 10.1389 8.81066Z" fill="#D80027"/>
<path d="M17.462 7.46069L17.678 8.12499H18.377L17.8115 8.53554L18.0275 9.19979L17.462 8.78929L16.8964 9.19979L17.1124 8.53554L16.5469 8.12499H17.2459L17.462 7.46069Z" fill="#D80027"/>
<path d="M14.9634 12.2432L15.2874 13.2396H16.336L15.4876 13.8554L15.8117 14.8519L14.9634 14.2361L14.1151 14.8519L14.4391 13.8554L13.5908 13.2396H14.6393L14.9634 12.2432Z" fill="#D80027"/>
<path d="M15.0578 4.41724L15.3279 5.24767H16.2016L15.4947 5.76075L15.7647 6.59114L15.0578 6.0779L14.3509 6.59114L14.6209 5.76075L13.9141 5.24767H14.7878L15.0578 4.41724Z" fill="#D80027"/>
<path d="M12.6538 7.43164L12.9778 8.42813H14.0264L13.1781 9.04391L13.5021 10.0404L12.6538 9.42453L11.8055 10.0404L12.1296 9.04391L11.2812 8.42813H12.3298L12.6538 7.43164Z" fill="#D80027"/>
</g>
<defs>
<clipPath id="clip0_266_3431">
<rect width="20.0158" height="20" fill="white" transform="translate(0.130859 0.0402832)"/>
</clipPath>
</defs>
</svg>
