<svg width="21" height="21" viewBox="0 0 21 21" fill="none" xmlns="http://www.w3.org/2000/svg">
<g clip-path="url(#clip0_266_3426)">
<path d="M10.418 20.0405C15.9453 20.0405 20.4259 15.5634 20.4259 10.0405C20.4259 4.51768 15.9453 0.0405273 10.418 0.0405273C4.89084 0.0405273 0.410156 4.51768 0.410156 10.0405C0.410156 15.5634 4.89084 20.0405 10.418 20.0405Z" fill="#F0F0F0"/>
<path d="M19.8035 13.5187C20.2058 12.4354 20.4259 11.2637 20.4259 10.0405C20.4259 8.81729 20.2058 7.64558 19.8035 6.56226H1.03264C0.630369 7.64558 0.410156 8.81729 0.410156 10.0405C0.410156 11.2637 0.630369 12.4354 1.03264 13.5187L10.418 14.3883L19.8035 13.5187Z" fill="#0052B4"/>
<path d="M10.4176 20.0406C14.7207 20.0406 18.389 17.3268 19.803 13.5188H1.03223C2.44627 17.3268 6.11459 20.0406 10.4176 20.0406Z" fill="#D80027"/>
</g>
<defs>
<clipPath id="clip0_266_3426">
<rect width="20.0158" height="20" fill="white" transform="translate(0.410156 0.0405273)"/>
</clipPath>
</defs>
</svg>
