<svg width="21" height="21" viewBox="0 0 21 21" fill="none" xmlns="http://www.w3.org/2000/svg">
<g clip-path="url(#clip0_266_3461)">
<path d="M10.42 20.0398C15.9472 20.0398 20.4279 15.5626 20.4279 10.0398C20.4279 4.51694 15.9472 0.0397949 10.42 0.0397949C4.89279 0.0397949 0.412109 4.51694 0.412109 10.0398C0.412109 15.5626 4.89279 20.0398 10.42 20.0398Z" fill="#F0F0F0"/>
<path d="M9.9834 10.0401H20.4264C20.4264 9.13753 20.306 8.26315 20.0816 7.4314H9.9834V10.0401Z" fill="#D80027"/>
<path d="M9.9834 4.82282H18.9575C18.3449 3.82391 17.5616 2.94099 16.6483 2.21411H9.9834V4.82282Z" fill="#D80027"/>
<path d="M10.4192 20.0401C12.7745 20.0401 14.9394 19.2267 16.649 17.8662H4.18945C5.899 19.2267 8.06387 20.0401 10.4192 20.0401Z" fill="#D80027"/>
<path d="M1.87999 15.2576H18.958C19.4498 14.4557 19.8312 13.5792 20.0821 12.6489H0.755859C1.00672 13.5792 1.38815 14.4557 1.87999 15.2576Z" fill="#D80027"/>
<path d="M5.04795 1.60143H5.95996L5.11163 2.21725L5.43568 3.2137L4.58739 2.59788L3.73911 3.2137L4.01902 2.35288C3.2721 2.97456 2.61744 3.70292 2.07795 4.51448H2.37018L1.83018 4.90647C1.74605 5.04671 1.66536 5.18917 1.58804 5.33374L1.8459 6.12674L1.36481 5.77749C1.24523 6.03065 1.13584 6.28952 1.03752 6.55377L1.32162 7.42752H2.37018L1.52185 8.04334L1.8459 9.03979L0.99761 8.42397L0.489475 8.79287C0.438615 9.20139 0.412109 9.61748 0.412109 10.0398H10.42C10.42 4.51698 10.42 3.86589 10.42 0.0397949C8.44297 0.0397949 6.6 0.612841 5.04795 1.60143ZM5.43568 9.03979L4.58739 8.42397L3.73911 9.03979L4.06315 8.04334L3.21483 7.42752H4.26339L4.58739 6.43108L4.9114 7.42752H5.95996L5.11163 8.04334L5.43568 9.03979ZM5.11163 5.1303L5.43568 6.12674L4.58739 5.51092L3.73911 6.12674L4.06315 5.1303L3.21483 4.51448H4.26339L4.58739 3.51803L4.9114 4.51448H5.95996L5.11163 5.1303ZM9.02546 9.03979L8.17718 8.42397L7.32889 9.03979L7.65293 8.04334L6.80461 7.42752H7.85317L8.17718 6.43108L8.50118 7.42752H9.54974L8.70142 8.04334L9.02546 9.03979ZM8.70142 5.1303L9.02546 6.12674L8.17718 5.51092L7.32889 6.12674L7.65293 5.1303L6.80461 4.51448H7.85317L8.17718 3.51803L8.50118 4.51448H9.54974L8.70142 5.1303ZM8.70142 2.21725L9.02546 3.2137L8.17718 2.59788L7.32889 3.2137L7.65293 2.21725L6.80461 1.60143H7.85317L8.17718 0.60499L8.50118 1.60143H9.54974L8.70142 2.21725Z" fill="#0052B4"/>
</g>
<defs>
<clipPath id="clip0_266_3461">
<rect width="20.0158" height="20" fill="white" transform="translate(0.412109 0.0400391)"/>
</clipPath>
</defs>
</svg>
