<svg width="394" height="260" viewBox="0 0 394 260" fill="none" xmlns="http://www.w3.org/2000/svg">
<path fill-rule="evenodd" clip-rule="evenodd" d="M60.345 38.2469C60.3726 39.0749 59.7237 39.7685 58.8958 39.7961C52.4958 40.0094 45.4085 43.3016 38.6708 47.8203C31.97 52.3142 25.7977 57.8957 21.2617 62.4317C18.2018 65.4917 15.4944 69.123 13.0963 72.8057C11.4832 75.283 10.4589 78.2107 9.63518 81.3522C9.2247 82.9176 8.87035 84.5095 8.51336 86.1133L8.51188 86.12C8.15666 87.7158 7.79811 89.3264 7.38687 90.8779C6.90554 92.6938 6.28056 94.5863 5.66908 96.438C5.2927 97.5777 4.92143 98.7019 4.59192 99.7833C3.69709 102.72 3.02814 105.566 3.01013 108.395L3.00927 108.529C2.98254 112.717 2.95678 116.754 3.37123 120.795C3.72674 124.261 4.87976 127.6 6.38332 130.927C7.35977 133.088 8.44423 135.165 9.53969 137.263C10.1545 138.44 10.7728 139.624 11.3774 140.833C12.6077 143.294 14.1332 145.352 16.0663 147.402C18.1862 149.65 19.9163 152.279 21.5046 154.878C21.9559 155.617 22.3934 156.348 22.825 157.07C23.9384 158.932 25.0127 160.729 26.1859 162.411C29.3471 166.942 34.2078 170.416 39.02 173.856C40.0257 174.575 41.0292 175.292 42.0148 176.017C42.5795 176.433 43.1334 176.845 43.6803 177.252C47.1151 179.806 50.2701 182.153 54.0625 183.873C59.0502 186.135 64.7191 188.19 70.0408 189.218C71.5009 189.5 72.9783 189.631 74.5366 189.769C74.8364 189.796 75.1392 189.823 75.4455 189.851C77.3019 190.023 79.2586 190.244 81.1674 190.81C86.1934 192.299 91.9153 192.879 97.2393 192.879C97.3895 192.879 97.5902 192.884 97.8288 192.889C98.5541 192.906 99.6296 192.93 100.703 192.859C101.058 192.836 101.382 192.803 101.667 192.762C100.869 192.244 99.6845 191.677 98.2442 191.029C97.8735 190.862 97.4873 190.691 97.0918 190.516C95.9683 190.017 94.7698 189.485 93.638 188.933C92.1106 188.188 90.5912 187.352 89.4112 186.412L89.3795 186.387L89.3492 186.36C88.2211 185.357 87.186 184.569 86.1423 183.774C85.5068 183.29 84.8681 182.804 84.2033 182.265C82.5128 180.895 80.8911 179.355 79.4722 177.103C77.9013 174.61 76.4748 171.801 75.7024 168.808C75.6202 168.49 75.5353 168.165 75.449 167.834C74.9595 165.959 74.4224 163.902 74.0623 161.852C73.6383 159.438 73.4338 156.908 73.8704 154.526C75.1094 147.768 78.5688 141.165 87.0152 135.548C87.705 135.089 88.6361 135.276 89.0948 135.966C89.5536 136.656 89.3662 137.587 88.6764 138.046C80.9322 143.196 77.9189 149.08 76.8212 155.067C76.4771 156.944 76.62 159.073 77.017 161.333C77.3541 163.252 77.8555 165.174 78.3456 167.052C78.4335 167.389 78.521 167.725 78.6072 168.059C79.2744 170.644 80.5331 173.159 82.0104 175.504C83.1907 177.377 84.5438 178.68 86.092 179.934C86.616 180.359 87.1957 180.802 87.8077 181.269C88.9165 182.116 90.131 183.044 91.3104 184.089C92.2249 184.812 93.4932 185.524 94.9537 186.237C96.0322 186.763 97.155 187.261 98.2637 187.753C98.6701 187.934 99.0746 188.113 99.4744 188.293C100.919 188.943 102.337 189.61 103.366 190.288C103.876 190.624 104.391 191.026 104.767 191.507C105.153 192.002 105.506 192.741 105.31 193.622C105.164 194.278 104.744 194.709 104.377 194.967C104.017 195.22 103.612 195.379 103.254 195.486C102.535 195.7 101.679 195.801 100.9 195.853C99.6647 195.934 98.3231 195.903 97.6307 195.887C97.4535 195.883 97.3187 195.879 97.2393 195.879C91.7272 195.879 85.7 195.282 80.3152 193.686C78.7117 193.211 77.0104 193.008 75.1696 192.838C74.8866 192.812 74.5994 192.787 74.3087 192.761C72.7516 192.623 71.0966 192.477 69.4718 192.163C63.8434 191.076 57.9413 188.927 52.8232 186.605C48.7147 184.741 45.2792 182.183 41.8591 179.637C41.3188 179.235 40.7789 178.833 40.2367 178.434C39.3322 177.768 38.3844 177.092 37.4136 176.4C32.597 172.965 27.2128 169.126 23.7255 164.127C22.4875 162.353 21.3305 160.418 20.1976 158.523C19.7776 157.82 19.361 157.124 18.9448 156.443C17.378 153.879 15.7801 151.472 13.8836 149.46C11.7915 147.241 10.0802 144.947 8.69417 142.175C8.14002 141.067 7.5459 139.928 6.94135 138.769C5.81682 136.615 4.65618 134.39 3.64952 132.163C2.08072 128.691 0.788738 125.019 0.386885 121.101C-0.044345 116.897 -0.0176117 112.72 0.00887002 108.582L0.0101889 108.376C0.0309912 105.11 0.800701 101.933 1.72219 98.9089C2.09864 97.6734 2.48918 96.494 2.87153 95.3392C3.45558 93.5753 4.02053 91.8691 4.48701 90.1092C4.88018 88.6259 5.22591 87.0749 5.58354 85.4682L5.59089 85.4351C5.94396 83.849 6.30853 82.2111 6.73328 80.5913C7.58705 77.3353 8.70957 74.0447 10.5823 71.1687C13.043 67.3898 15.879 63.5717 19.1403 60.3104C23.7512 55.6995 30.0771 49.9714 36.9998 45.3287C43.8856 40.7108 51.5472 37.0393 58.7958 36.7977C59.6238 36.7701 60.3174 37.419 60.345 38.2469Z" fill="#4556EB"/>
<path fill-rule="evenodd" clip-rule="evenodd" d="M242.995 48.7088C235.11 48.4956 227.517 49.274 219.697 50.5943C216.715 51.0978 213.708 51.3179 210.76 51.5013C210.344 51.5272 209.929 51.5524 209.515 51.5774C206.978 51.7313 204.492 51.8821 202.023 52.1824C201.167 52.2866 200.307 52.3648 199.47 52.4398L199.35 52.4506C198.548 52.5225 197.767 52.5925 196.993 52.682C195.367 52.87 193.839 53.1373 192.402 53.6448C188.634 54.9759 184.989 56.7275 181.323 58.5955C180.354 59.089 179.381 59.5922 178.404 60.0976C175.71 61.4909 172.985 62.9006 170.232 64.168C160.742 68.5376 151.529 73.9158 142.561 79.4526C138.394 82.0257 134.425 85.4691 130.565 88.8182C130.097 89.2241 129.631 89.6286 129.166 90.03C124.446 94.1065 119.072 98.0591 113.757 101.969L113.646 102.051C108.273 106.003 102.964 109.913 98.3281 113.93C97.7021 114.472 96.7548 114.405 96.2122 113.779C95.6696 113.153 95.7373 112.205 96.3633 111.663C101.106 107.553 106.516 103.571 111.868 99.6339L111.926 99.5918C117.28 95.6535 122.574 91.759 127.205 87.7596C127.665 87.3621 128.131 86.9581 128.601 86.5498C132.434 83.2228 136.596 79.6099 140.985 76.8999C149.985 71.3437 159.32 65.8896 168.977 61.443C171.662 60.2067 174.297 58.8442 176.97 57.4613C177.96 56.9494 178.955 56.4346 179.961 55.9224C183.654 54.0407 187.442 52.2153 191.403 50.8161C193.147 50.2 194.929 49.9006 196.648 49.7019C197.462 49.6077 198.278 49.5346 199.071 49.4636L199.202 49.4518C200.043 49.3764 200.858 49.302 201.661 49.2043C204.228 48.8922 206.814 48.7355 209.346 48.5821C209.757 48.5572 210.166 48.5325 210.574 48.5071C213.516 48.3241 216.384 48.1111 219.197 47.6362C227.141 46.2951 234.938 45.4899 243.076 45.7099C245.277 45.7693 247.308 46.2587 249.22 46.8659C250.175 47.1691 251.115 47.5066 252.03 47.8377L252.233 47.9113C253.085 48.2197 253.916 48.5204 254.757 48.7973C258.823 50.1368 263.141 50.6245 267.58 51.1258C267.891 51.161 268.203 51.1963 268.516 51.2319C269.827 51.3812 271.201 51.4847 272.637 51.5927L272.772 51.6028C274.245 51.7137 275.776 51.8307 277.3 52.0081C280.339 52.3616 283.464 52.9657 286.259 54.3245C287.306 54.8339 287.985 55.5008 288.53 56.134C288.743 56.3807 288.913 56.5923 289.07 56.7859C289.349 57.132 289.582 57.4207 289.923 57.7498C293.221 60.9305 297.429 62.9195 301.813 64.992C302.074 65.1158 302.337 65.2399 302.6 65.3645C302.952 65.5317 303.305 65.6984 303.657 65.8649C309.025 68.4042 314.314 70.9064 319.281 74.5483C324.51 78.3835 330.073 81.7893 335.675 85.2191C337.711 86.4657 339.752 87.7154 341.785 88.9901C341.788 88.9925 341.792 88.9949 341.796 88.9972L393.042 119.868L392.046 121.196C389.895 124.064 383.253 132.033 376.725 139.864L375.55 141.274C372.094 145.421 368.738 149.452 366.154 152.604C364.862 154.18 363.768 155.53 362.953 156.562C362.103 157.638 361.636 158.27 361.517 158.472C360.557 160.114 359.472 161.652 358.417 163.133C358.34 163.24 358.264 163.346 358.188 163.453C357.202 164.834 356.251 166.168 355.392 167.56C354.268 169.384 353.266 171.198 352.245 173.047C351.504 174.388 350.753 175.748 349.938 177.142C349.162 178.47 348.102 180.428 346.864 182.714C345.637 184.98 344.236 187.569 342.764 190.184C341.307 192.773 339.801 195.351 338.382 197.56C336.98 199.743 335.605 201.658 334.406 202.857L333.87 203.393L333.12 203.279C331.422 203.021 328.571 201.914 325.353 200.511C322.064 199.077 318.183 197.239 314.33 195.392C313.478 194.983 312.627 194.574 311.784 194.169C308.805 192.737 305.92 191.351 303.401 190.187C300.122 188.671 297.609 187.602 296.327 187.263C293.478 186.509 290.726 185.787 287.902 185.326C286.963 185.172 285.995 185.122 284.929 185.066C284.696 185.054 284.458 185.042 284.215 185.028C282.91 184.955 281.478 184.841 280.091 184.448C278.285 183.936 276.528 183.293 274.833 182.672C274.699 182.623 274.566 182.574 274.433 182.525C272.594 181.852 270.817 181.216 268.998 180.748C264.395 179.565 259.493 179.351 254.568 179.196L254.075 179.18C249.33 179.031 244.62 178.882 239.909 178.91C237.608 178.924 235.342 179.21 233.005 179.557C232.547 179.625 232.084 179.696 231.618 179.767C229.736 180.055 227.794 180.352 225.828 180.523C218.34 181.177 210.722 181.448 203.224 181.492C201.854 181.5 200.498 181.488 199.154 181.477C194.702 181.438 190.381 181.401 186.094 182.088C183.88 182.443 181.68 182.922 179.436 183.417L179.1 183.491C176.977 183.96 174.812 184.437 172.624 184.811C169.431 185.357 166.255 185.869 163.087 186.379C158.359 187.14 153.65 187.898 148.93 188.764C146.909 189.134 144.724 189.247 142.64 189.355C142.093 189.384 141.553 189.412 141.025 189.444C138.406 189.603 135.998 189.865 133.902 190.659C133.191 190.927 132.539 191.214 131.854 191.515C131.495 191.672 131.127 191.834 130.736 192C129.646 192.461 128.469 192.909 127.161 193.183C127.026 193.211 126.884 193.24 126.736 193.271C126.119 193.397 125.402 193.543 124.715 193.733C124.294 193.849 123.925 193.971 123.635 194.097C123.491 194.159 123.381 194.215 123.302 194.263C123.228 194.308 123.2 194.334 123.2 194.334L123.2 194.333C122.615 194.919 121.665 194.919 121.079 194.333C120.493 193.747 120.493 192.798 121.079 192.212C121.484 191.807 122.004 191.533 122.446 191.343C122.912 191.141 123.425 190.977 123.915 190.841C124.713 190.621 125.559 190.448 126.177 190.323C126.312 190.295 126.436 190.27 126.546 190.247C127.571 190.032 128.539 189.672 129.567 189.237C129.88 189.104 130.21 188.96 130.551 188.81C131.28 188.49 132.06 188.148 132.84 187.853C135.395 186.886 138.198 186.61 140.843 186.449C141.437 186.413 142.022 186.383 142.596 186.353C144.652 186.245 146.578 186.145 148.389 185.813C153.125 184.944 157.909 184.174 162.673 183.406C165.837 182.897 168.991 182.389 172.119 181.854C174.234 181.493 176.333 181.029 178.474 180.557L178.79 180.487C181.027 179.994 183.308 179.497 185.619 179.126C190.18 178.395 194.843 178.436 199.342 178.477C200.646 178.488 201.937 178.5 203.207 178.492C210.646 178.448 218.18 178.179 225.567 177.535C227.427 177.372 229.247 177.094 231.119 176.809C231.597 176.736 232.078 176.662 232.564 176.59C234.926 176.239 237.367 175.925 239.891 175.91C244.66 175.882 249.419 176.032 254.149 176.181L254.663 176.198C259.559 176.352 264.777 176.565 269.745 177.843C271.726 178.352 273.631 179.037 275.464 179.708C275.591 179.754 275.717 179.801 275.843 179.847C277.561 180.476 279.216 181.082 280.909 181.562C281.952 181.857 283.097 181.96 284.384 182.033C284.594 182.045 284.809 182.056 285.028 182.067C286.099 182.122 287.267 182.182 288.386 182.365C291.375 182.853 294.263 183.613 297.094 184.363C298.681 184.783 301.449 185.979 304.66 187.464C307.201 188.639 310.114 190.038 313.097 191.471C313.937 191.875 314.783 192.282 315.627 192.686C319.482 194.534 323.318 196.351 326.551 197.761C329.288 198.953 331.458 199.792 332.826 200.152C333.686 199.162 334.719 197.713 335.858 195.938C337.231 193.801 338.704 191.281 340.149 188.713C341.553 186.219 342.95 183.64 344.19 181.352C345.465 179 346.573 176.955 347.348 175.628C348.076 174.384 348.806 173.064 349.547 171.725C350.616 169.794 351.706 167.824 352.838 165.986C353.752 164.503 354.761 163.091 355.735 161.726C355.815 161.614 355.895 161.502 355.974 161.391C357.033 159.906 358.044 158.468 358.928 156.957C359.177 156.532 359.801 155.712 360.598 154.702C361.43 153.649 362.538 152.282 363.834 150.702C366.427 147.539 369.791 143.498 373.245 139.354L374.349 138.029C380.09 131.142 385.854 124.226 388.628 120.712L340.213 91.5458L340.202 91.5386C338.228 90.3002 336.221 89.0715 334.203 87.8361C328.567 84.3859 322.846 80.8828 317.507 76.9675C312.78 73.5016 307.735 71.114 302.312 68.5475C301.981 68.3909 301.648 68.2336 301.315 68.0753C301.02 67.9356 300.723 67.7954 300.424 67.6545C296.142 65.6333 291.508 63.4462 287.841 59.9094C287.366 59.4517 286.932 58.9169 286.595 58.5008C286.467 58.3437 286.353 58.2035 286.256 58.0908C285.856 57.6251 285.488 57.2858 284.947 57.0225C282.604 55.8833 279.873 55.3276 276.954 54.988C275.499 54.8187 274.026 54.7057 272.547 54.5944L272.388 54.5824C270.972 54.4759 269.546 54.3686 268.177 54.2126C267.846 54.1749 267.513 54.1375 267.179 54.0998C262.806 53.6073 258.192 53.0875 253.818 51.6467C252.934 51.3555 252.063 51.0403 251.219 50.7347L251.009 50.6588C250.092 50.3268 249.203 50.0082 248.312 49.7253C246.533 49.1603 244.802 48.7576 242.995 48.7088Z" fill="#4556EB"/>
<path fill-rule="evenodd" clip-rule="evenodd" d="M66.0664 28.212C64.8551 28.5688 63.5442 28.955 62.598 29.1162C61.3991 29.3203 60.016 29.6307 58.8499 29.9636C58.3326 30.1113 57.8746 30.2587 57.503 30.3976C57.6 30.6415 57.7184 30.9162 57.85 31.2059C58.0748 31.7009 58.3191 32.1984 58.518 32.5899C58.6171 32.7851 58.7035 32.951 58.7688 33.0741C58.8198 33.1702 58.8493 33.2237 58.8607 33.2445C58.8659 33.2539 58.8673 33.2565 58.8653 33.2532C59.5695 34.4131 59.9513 35.6757 60.2382 36.8298C60.3465 37.2654 60.4386 37.6702 60.5266 38.0569C60.688 38.7661 60.8355 39.4145 61.0438 40.081C61.4587 41.4086 61.8486 42.8219 62.2295 44.2027C62.4543 45.0174 62.6759 45.8207 62.8976 46.5883C63.7697 49.6069 64.5441 52.6605 65.3138 55.6954C65.7374 57.3657 66.1595 59.0304 66.5957 60.6804C67.6077 64.5081 68.8433 68.2458 70.0928 72.0253C70.7871 74.1256 71.4857 76.2389 72.1526 78.3877C74.4837 85.8989 76.9812 93.2968 79.4838 100.71C81.4118 106.42 83.3427 112.14 85.2029 117.927C85.8381 119.903 86.1768 121.897 86.4952 123.771C86.5326 123.991 86.5697 124.21 86.607 124.426C86.9685 126.526 87.3507 128.493 88.1188 130.413C88.8858 132.33 89.2486 134.423 89.579 136.329C89.6096 136.505 89.6398 136.679 89.6701 136.852C90.0413 138.969 90.4191 140.843 91.2239 142.452C92.0911 144.187 92.4479 145.833 92.6908 147.384C92.766 147.865 92.829 148.322 92.8904 148.767C93.0341 149.808 93.1687 150.783 93.4293 151.844C94.4713 156.087 96.0636 160.222 97.7435 164.433C97.9118 164.855 98.081 165.278 98.2506 165.701C99.7623 169.478 101.304 173.329 102.47 177.272C103.22 179.809 103.697 182.366 104.119 184.861C104.207 185.382 104.293 185.898 104.378 186.411C104.705 188.382 105.023 190.303 105.447 192.21C105.695 193.327 105.836 194.485 105.967 195.559C105.99 195.743 106.012 195.924 106.034 196.102C106.192 197.361 106.362 198.501 106.686 199.553C107.222 201.289 107.531 203.013 107.778 204.687C107.869 205.308 107.951 205.91 108.031 206.503C108.128 207.219 108.223 207.922 108.333 208.632C108.468 208.611 108.619 208.583 108.784 208.549C109.729 208.355 110.746 208.029 111.006 207.933C111.81 207.637 112.63 207.426 113.369 207.237C113.443 207.218 113.516 207.199 113.588 207.18C114.411 206.968 115.146 206.768 115.851 206.478C116.708 206.125 117.758 205.964 118.631 205.841C118.779 205.82 118.924 205.8 119.066 205.78C119.838 205.673 120.508 205.581 121.089 205.43C121.789 205.248 121.979 205.067 122.007 205.032C122.009 205.024 122.012 205.002 122.012 204.962C122.009 204.849 121.972 204.611 121.794 204.211C119.787 199.694 118.725 193.773 118.092 189.131C117.778 186.828 116.881 184.603 115.827 182.221C115.694 181.918 115.557 181.612 115.419 181.304C114.497 179.242 113.514 177.042 112.921 174.753C111.673 169.939 109.878 165.407 108.04 160.768C107.245 158.759 106.441 156.73 105.67 154.65C104.863 152.47 104.339 150.139 103.896 147.863C103.746 147.091 103.607 146.332 103.47 145.586C103.194 144.09 102.928 142.641 102.602 141.225C102.064 138.881 101.46 136.549 100.849 134.194L100.848 134.189C100.24 131.842 99.6261 129.472 99.0774 127.084C98.7138 125.502 98.417 123.889 98.1272 122.314C98.0185 121.723 97.9108 121.138 97.8009 120.562C97.3924 118.42 96.9456 116.349 96.2863 114.347C95.4283 111.741 94.471 109.21 93.494 106.626C93.2437 105.965 92.9921 105.299 92.7406 104.629C92.5219 104.045 92.39 103.341 92.2877 102.794C92.2712 102.707 92.2556 102.623 92.2404 102.544C92.1087 101.862 91.9999 101.456 91.8706 101.223C91.2566 100.118 90.9219 98.808 90.6834 97.6402C90.5675 97.0726 90.4787 96.5711 90.3961 96.1044C90.2895 95.5026 90.1932 94.9586 90.0621 94.4053C89.8349 93.4461 89.633 92.5064 89.4346 91.5831C88.9852 89.4919 88.5538 87.4848 87.8881 85.5245C87.2804 83.7352 86.6298 81.9101 85.9712 80.0627C84.3211 75.4334 82.6208 70.6637 81.4199 65.9644C80.7763 63.4461 79.7776 61.4621 78.4783 59.0491C77.9088 57.9915 77.5576 56.8427 77.2816 55.7823C77.1667 55.3409 77.0688 54.9339 76.9753 54.5453C76.8279 53.9329 76.6916 53.3664 76.5173 52.7831C76.1399 51.5202 75.686 50.2986 75.2128 49.0254C75.0568 48.6054 74.8986 48.1798 74.7404 47.7452C74.1152 46.0277 73.5083 44.2158 73.1586 42.2928C72.5787 39.103 71.7626 36.5777 70.6993 33.2876C70.2086 31.7691 69.6653 30.0877 69.0682 28.1029L68.8392 27.453C68.7785 27.4665 68.7152 27.481 68.6493 27.4966C68.0714 27.6328 67.402 27.8213 66.6879 28.0295C66.4854 28.0885 66.2774 28.1498 66.0664 28.212ZM67.961 24.5766C68.592 24.4278 69.2738 24.2969 69.8462 24.2969H70.9081L71.921 27.1721L71.9311 27.2056C72.4841 29.0454 73.0069 30.6642 73.4915 32.165C74.5905 35.5679 75.4936 38.3644 76.1102 41.7562C76.4127 43.4196 76.947 45.0364 77.5595 46.719C77.7021 47.1108 77.8501 47.5091 78.0002 47.9129C78.4815 49.2077 78.9835 50.5581 79.3917 51.9241C79.5842 52.5682 79.7593 53.2923 79.9238 53.9724C80.0137 54.3436 80.1003 54.7018 80.1848 55.0266C80.4442 56.023 80.724 56.8919 81.1197 57.6268C82.434 60.0676 83.5861 62.3245 84.3265 65.2216C85.4911 69.7788 87.1171 74.3399 88.7486 78.9163C89.4182 80.7946 90.0888 82.6755 90.7287 84.5597C91.4528 86.6918 91.9439 88.9747 92.4101 91.1416C92.6 92.0243 92.7857 92.8878 92.9814 93.7139C93.1204 94.3011 93.2522 95.0334 93.379 95.7379C93.4622 96.2003 93.5432 96.6506 93.6227 97.0399C93.8503 98.1542 94.1141 99.0843 94.493 99.7664C94.8898 100.48 95.066 101.354 95.186 101.976C95.2065 102.082 95.2258 102.183 95.2441 102.28C95.3531 102.852 95.4302 103.257 95.5495 103.575C95.7944 104.228 96.0415 104.882 96.2891 105.536C97.2687 108.126 98.2553 110.735 99.1358 113.409C99.8575 115.6 100.333 117.825 100.748 120C100.866 120.618 100.978 121.228 101.089 121.833C101.375 123.384 101.653 124.899 102.001 126.412C102.539 128.755 103.143 131.087 103.754 133.442L103.757 133.456C104.365 135.8 104.978 138.167 105.526 140.553C105.866 142.032 106.154 143.594 106.436 145.13C106.571 145.86 106.704 146.584 106.841 147.291C107.276 149.528 107.764 151.664 108.484 153.608C109.203 155.551 109.976 157.504 110.756 159.472C112.624 164.189 114.528 168.999 115.825 174.001C116.351 176.028 117.22 177.977 118.149 180.06C118.289 180.372 118.43 180.688 118.571 181.007C119.626 183.394 120.688 185.962 121.065 188.725C121.695 193.344 122.715 198.896 124.536 202.993C125.096 204.253 125.253 205.577 124.503 206.698C123.835 207.694 122.7 208.111 121.844 208.333C121.076 208.533 120.198 208.653 119.436 208.758C119.303 208.776 119.174 208.794 119.05 208.811C118.125 208.941 117.447 209.065 116.994 209.252C116.076 209.63 115.159 209.874 114.337 210.085C114.269 210.103 114.201 210.12 114.135 210.137C113.369 210.334 112.696 210.507 112.043 210.748C111.663 210.888 110.501 211.259 109.389 211.488C108.846 211.599 108.213 211.7 107.658 211.687C107.393 211.68 107.009 211.647 106.634 211.486C106.215 211.306 105.67 210.891 105.538 210.13C105.347 209.031 105.194 207.906 105.046 206.82C104.968 206.24 104.891 205.672 104.81 205.124C104.571 203.505 104.289 201.957 103.82 200.437C103.411 199.112 103.216 197.742 103.058 196.475C103.033 196.279 103.009 196.087 102.986 195.896C102.854 194.817 102.732 193.823 102.518 192.86C102.075 190.866 101.74 188.841 101.412 186.861C101.328 186.358 101.245 185.858 101.161 185.362C100.742 182.888 100.289 180.478 99.5927 178.122C98.4696 174.323 96.9814 170.604 95.4621 166.808C95.294 166.388 95.1255 165.967 94.957 165.545C93.2783 161.337 91.6131 157.027 90.5159 152.56C90.2159 151.338 90.0481 150.124 89.8963 149.025C89.8396 148.615 89.7852 148.221 89.7269 147.848C89.5042 146.426 89.2078 145.128 88.5406 143.794C87.5144 141.742 87.0809 139.456 86.7152 137.37C86.6872 137.211 86.6597 137.053 86.6324 136.896C86.2888 134.924 85.9777 133.138 85.3334 131.527C84.4374 129.287 84.0137 127.045 83.6505 124.935C83.6128 124.716 83.5757 124.499 83.539 124.283C83.2152 122.382 82.9124 120.605 82.3469 118.845C80.5222 113.169 78.5977 107.467 76.6681 101.749C74.1461 94.2765 71.6153 86.778 69.2874 79.2769C68.6559 77.242 67.9747 75.1802 67.2878 73.101C66.0175 69.2561 64.7276 65.3516 63.6954 61.4471C63.2422 59.7331 62.813 58.0399 62.3866 56.3582C61.6266 53.3602 60.8758 50.3988 60.0155 47.4209C59.7711 46.575 59.541 45.74 59.3135 44.9146C58.9454 43.5788 58.5841 42.2679 58.1804 40.9758C57.9383 40.2012 57.7429 39.3464 57.5644 38.5654C57.4826 38.2077 57.4044 37.8655 57.3268 37.5536C57.0599 36.48 56.7647 35.5739 56.3009 34.8102C56.1746 34.602 55.6008 33.5085 55.1185 32.4464C54.8754 31.9112 54.6285 31.3256 54.4686 30.8276C54.3916 30.588 54.3109 30.2966 54.2788 30.0095C54.2631 29.8687 54.2498 29.6534 54.2916 29.4118C54.3312 29.1832 54.4539 28.7441 54.8708 28.403C55.2623 28.0826 55.8048 27.8392 56.2709 27.6569C56.7831 27.4565 57.3887 27.2609 58.0264 27.0789C59.3032 26.7144 60.7933 26.3803 62.0944 26.1587C62.849 26.0302 63.9469 25.7076 65.1788 25.3456C65.3981 25.2812 65.6216 25.2155 65.8482 25.1494C66.5664 24.94 67.3007 24.7322 67.961 24.5766Z" fill="#4556EB"/>
<path fill-rule="evenodd" clip-rule="evenodd" d="M104.872 121.454C104.938 122.51 105.373 123.504 105.794 124.462L105.8 124.477C106.717 126.569 107.72 128.62 108.724 130.671C109.721 132.711 110.719 134.752 111.632 136.832C112.198 138.119 112.711 139.426 113.225 140.734C113.585 141.649 113.945 142.564 114.322 143.473C114.348 143.536 114.378 143.626 114.412 143.729C114.511 144.031 114.645 144.44 114.834 144.592C115.209 144.891 115.474 145.706 115.706 146.419C115.825 146.785 115.936 147.124 116.048 147.353C116.416 148.103 116.75 148.867 117.085 149.629C117.737 151.115 118.387 152.596 119.273 153.97C120.29 155.546 121.4 157.057 122.511 158.569C123.553 159.986 124.594 161.403 125.557 162.873C126.346 164.075 126.657 165.51 126.961 166.911C127.027 167.218 127.093 167.523 127.164 167.824C127.338 168.562 127.747 169.173 128.147 169.772C128.559 170.388 128.962 170.99 129.092 171.704C129.411 173.455 129.942 174.904 130.747 176.512C130.849 176.717 130.934 176.941 131.017 177.16C131.362 178.066 131.672 178.883 133.032 177.869C134.921 176.46 136.817 175.522 139.078 174.798C141.496 174.024 143.966 173.34 146.457 172.847C147.592 172.622 148.746 172.511 149.899 172.401C151.135 172.283 152.368 172.165 153.574 171.906C154.079 171.798 154.543 171.519 154.992 171.247C155.14 171.159 155.286 171.071 155.431 170.99C155.885 170.738 155.071 169.936 154.65 169.522C154.564 169.437 154.494 169.368 154.455 169.324C152.75 167.383 152.21 165.619 151.527 163.391C151.436 163.093 151.341 162.785 151.242 162.468C151.208 162.36 151.164 162.235 151.117 162.096C150.798 161.168 150.281 159.664 151.004 159.04C152.582 157.677 155.732 155.676 157.954 155.994C159.791 156.256 162.773 157.933 163.667 159.516C163.805 159.761 163.939 160.014 164.074 160.269C164.497 161.072 164.933 161.898 165.548 162.54C165.852 162.858 166.177 163.158 166.501 163.458C167.015 163.933 167.529 164.409 167.964 164.956C168.026 165.034 168.107 165.158 168.203 165.305C168.592 165.9 169.221 166.864 169.785 166.61C170.891 166.112 171.959 165.701 173.129 165.36C173.937 165.125 174.737 164.879 175.536 164.633C177.32 164.084 179.097 163.538 180.937 163.123C181.519 162.991 182.115 162.882 182.714 162.772C184.353 162.471 186.012 162.167 187.471 161.397C187.716 161.267 188.035 161.147 188.373 161.019C189.399 160.63 190.608 160.172 190.518 159.183C190.347 157.307 189.543 155.602 188.748 153.917C188.606 153.617 188.465 153.318 188.328 153.018C187.833 151.939 187.473 150.808 187.113 149.681C186.739 148.505 186.365 147.332 185.84 146.222C185.42 145.333 184.933 144.485 184.448 143.637C183.86 142.613 183.274 141.59 182.805 140.497C181.855 138.281 180.982 136.493 178.544 135.796C178.003 135.641 177.462 135.318 176.922 134.994C176.188 134.554 175.453 134.114 174.712 134.094C174.434 134.087 174.154 134.095 173.872 134.104C173.428 134.117 172.982 134.131 172.546 134.082C172.01 134.023 171.555 133.859 171.07 133.666C170.361 133.382 171.044 131.358 171.346 130.462C171.392 130.326 171.429 130.217 171.451 130.143C171.742 129.172 172.106 128.215 172.47 127.257C172.982 125.91 173.494 124.56 173.807 123.168C173.98 122.401 173.947 121.544 173.914 120.703C173.894 120.185 173.874 119.674 173.903 119.193C173.911 119.051 173.92 118.909 173.928 118.768C173.999 117.585 174.069 116.419 174.069 115.23C174.069 114.914 174.075 114.595 174.08 114.275C174.099 113.141 174.118 111.993 173.903 110.886C173.6 109.323 172.124 107.65 171.089 106.478L171.082 106.47C170.74 106.082 170.478 105.636 170.217 105.191C169.92 104.684 169.624 104.179 169.213 103.768C168.352 102.907 167.343 102.183 166.345 101.468C166.021 101.236 165.698 101.004 165.381 100.769C164.917 100.424 164.437 100.106 163.957 99.7876C163.572 99.532 163.187 99.2765 162.81 99.0074C162.199 98.5707 161.19 98.6068 160.273 98.6397C159.859 98.6545 159.464 98.6686 159.133 98.6385C156.246 98.3761 152.995 98.2437 150.17 98.9598C148.97 99.2643 147.796 99.4478 146.58 99.6381C146.429 99.6617 146.277 99.6855 146.124 99.7097C145.261 99.8459 144.556 100.131 143.825 100.426C143.477 100.567 143.123 100.71 142.744 100.84C140.279 101.687 138.224 103.202 136.171 104.715C134.431 105.997 132.693 107.278 130.711 108.148C129.543 108.661 128.432 109.227 127.313 109.797C126.905 110.006 126.495 110.214 126.081 110.421C125.407 110.758 124.752 111.131 124.097 111.503C123.081 112.081 122.067 112.658 120.987 113.099C120.754 113.194 120.511 113.29 120.263 113.387C118.76 113.975 117.055 114.642 116.226 115.884L104.872 121.454ZM138.872 131.536C139.445 132.662 140.019 133.789 140.732 134.82C141.446 135.852 144.523 131.731 144.922 131C145.559 129.832 145.431 127.173 144.243 126.382C142.696 125.35 141.132 125.311 139.364 125.311L136.579 127.667C137.501 128.841 138.186 130.187 138.872 131.536Z" fill="#4556EB"/>
<path fill-rule="evenodd" clip-rule="evenodd" d="M158.997 100.132C156.128 99.8716 153.098 99.7653 150.539 100.414C149.27 100.736 148.039 100.928 146.842 101.115L146.812 101.12C146.66 101.144 146.509 101.167 146.358 101.191C145.687 101.297 145.13 101.517 144.387 101.817L144.374 101.822C144.034 101.96 143.649 102.115 143.231 102.259C141.019 103.019 139.143 104.388 137.061 105.922L137.002 105.966C135.301 107.22 133.45 108.584 131.314 109.522C130.192 110.014 129.119 110.561 127.994 111.134L127.991 111.135C127.584 111.343 127.171 111.554 126.752 111.763C126.12 112.079 125.499 112.432 124.838 112.807L124.801 112.828C123.81 113.392 122.725 114.009 121.555 114.488C121.311 114.587 121.059 114.686 120.814 114.782L120.809 114.784C120.04 115.085 119.332 115.364 118.716 115.704C118.098 116.044 117.699 116.379 117.474 116.716L117.25 117.053L106.552 122.301C106.694 122.766 106.908 123.269 107.167 123.86L107.174 123.875C108.076 125.933 109.066 127.956 110.071 130.012L110.078 130.026C111.071 132.057 112.08 134.12 113.006 136.229C113.583 137.543 114.106 138.873 114.616 140.172L114.621 140.185C114.982 141.102 115.336 142.004 115.707 142.897C115.757 143.017 115.803 143.159 115.831 143.242L115.837 143.262C115.862 143.339 115.884 143.405 115.907 143.469C115.922 143.512 115.935 143.548 115.947 143.577C116.338 143.962 116.569 144.45 116.701 144.757C116.871 145.151 117.013 145.589 117.123 145.926L117.132 145.954C117.266 146.363 117.34 146.582 117.395 146.693C117.776 147.472 118.122 148.259 118.453 149.013L118.458 149.026C119.118 150.53 119.723 151.9 120.534 153.157C121.521 154.688 122.605 156.163 123.72 157.681L123.731 157.696C124.765 159.103 125.826 160.547 126.812 162.05C127.754 163.488 128.116 165.157 128.404 166.489L128.426 166.593C128.494 166.902 128.557 167.194 128.624 167.48C128.726 167.912 128.97 168.304 129.394 168.938C129.41 168.962 129.427 168.987 129.444 169.013C129.824 169.579 130.381 170.409 130.568 171.436C130.856 173.02 131.334 174.333 132.088 175.841C132.202 176.069 132.296 176.304 132.369 176.494C134.327 175.072 136.31 174.11 138.62 173.37C141.075 172.584 143.603 171.883 146.165 171.375C147.374 171.135 148.592 171.019 149.723 170.911L149.757 170.908C151.007 170.788 152.153 170.677 153.26 170.44C153.306 170.43 153.354 170.416 153.405 170.397C153.378 170.369 153.352 170.34 153.328 170.314C151.41 168.131 150.789 166.102 150.114 163.898L150.093 163.831C150.001 163.531 149.909 163.229 149.811 162.919C149.784 162.833 149.748 162.727 149.698 162.583L149.684 162.542C149.532 162.099 149.283 161.375 149.184 160.659C149.095 160.013 149.037 158.757 150.023 157.905C150.894 157.153 152.179 156.238 153.567 155.545C154.902 154.878 156.589 154.283 158.166 154.509C159.35 154.678 160.747 155.263 161.934 155.972C163.096 156.667 164.334 157.647 164.973 158.779C165.121 159.042 165.263 159.311 165.395 159.56L165.4 159.569C165.844 160.409 166.187 161.039 166.631 161.502C166.899 161.782 167.189 162.051 167.519 162.356L167.553 162.387C168.046 162.843 168.632 163.385 169.138 164.023C169.245 164.158 169.362 164.336 169.44 164.456L169.459 164.484C169.558 164.636 169.652 164.78 169.752 164.919C169.765 164.936 169.777 164.954 169.789 164.97C170.736 164.567 171.684 164.218 172.71 163.92C173.505 163.689 174.294 163.446 175.095 163.199L175.12 163.192C176.888 162.648 178.711 162.087 180.607 161.659C181.219 161.521 181.84 161.407 182.429 161.299L182.443 161.297C184.126 160.988 185.55 160.714 186.771 160.07C187.1 159.896 187.494 159.747 187.798 159.632L187.841 159.616C188.104 159.516 188.334 159.429 188.548 159.335C188.751 159.245 188.898 159.167 189 159.099C188.818 157.613 188.168 156.204 187.391 154.557C187.25 154.258 187.105 153.951 186.964 153.643C186.431 152.481 186.048 151.277 185.696 150.174L185.684 150.136C185.304 148.944 184.959 147.867 184.484 146.863C184.093 146.036 183.637 145.239 183.146 144.383L183.127 144.35C182.552 143.348 181.929 142.261 181.426 141.088C180.469 138.855 179.828 137.723 178.132 137.238C177.397 137.028 176.709 136.616 176.216 136.319C176.194 136.306 176.172 136.293 176.151 136.28C175.314 135.779 174.941 135.601 174.672 135.594C174.445 135.588 174.206 135.594 173.917 135.603L173.879 135.604C173.459 135.617 172.923 135.633 172.38 135.573C171.633 135.49 171.022 135.262 170.513 135.058C169.573 134.682 169.339 133.799 169.283 133.361C169.223 132.887 169.284 132.4 169.353 132.023C169.493 131.262 169.767 130.449 169.915 130.011L169.925 129.982C169.974 129.835 170.001 129.755 170.014 129.712C170.321 128.69 170.7 127.69 171.059 126.748L171.067 126.724C171.586 125.359 172.058 124.109 172.344 122.839C172.466 122.299 172.45 121.648 172.415 120.761L172.414 120.727C172.395 120.233 172.372 119.659 172.405 119.104L172.431 118.678C172.502 117.488 172.569 116.367 172.569 115.23C172.569 114.901 172.575 114.572 172.58 114.256L172.58 114.251C172.599 113.088 172.61 112.099 172.43 111.171C172.339 110.702 172.039 110.101 171.544 109.4C171.063 108.717 170.489 108.065 169.964 107.471L169.957 107.462C169.518 106.965 169.193 106.41 168.948 105.991L168.923 105.949C168.608 105.412 168.404 105.081 168.153 104.829C167.393 104.069 166.487 103.416 165.471 102.688L165.466 102.684C165.145 102.454 164.813 102.216 164.486 101.973C164.06 101.656 163.613 101.36 163.128 101.038L163.118 101.031C162.74 100.78 162.336 100.512 161.938 100.228C161.94 100.229 161.94 100.229 161.938 100.228C161.924 100.221 161.814 100.169 161.516 100.141C161.187 100.11 160.806 100.122 160.326 100.139L160.279 100.14C159.902 100.154 159.425 100.171 158.997 100.132ZM149.802 97.5059C152.893 96.7223 156.364 96.8808 159.268 97.1447C159.486 97.1645 159.776 97.1566 160.219 97.1407L160.258 97.1393C160.691 97.1238 161.255 97.1035 161.796 97.1541C162.34 97.205 163.058 97.3414 163.682 97.7869C164.034 98.0384 164.398 98.2797 164.786 98.5376L164.801 98.5475C165.271 98.8593 165.779 99.1963 166.276 99.5651C166.58 99.7913 166.893 100.015 167.219 100.249L167.263 100.281C168.232 100.975 169.325 101.759 170.274 102.708C170.823 103.257 171.203 103.905 171.48 104.379L171.511 104.432C171.785 104.898 171.977 105.217 172.207 105.478L172.214 105.486L172.232 105.507C172.74 106.082 173.412 106.844 173.996 107.671C174.574 108.49 175.163 109.507 175.375 110.6C175.62 111.862 175.599 113.144 175.581 114.235L175.58 114.3C175.574 114.622 175.569 114.928 175.569 115.23C175.569 116.465 175.497 117.667 175.427 118.837L175.4 119.282C175.377 119.676 175.392 120.111 175.413 120.645L175.416 120.725C175.447 121.51 175.487 122.536 175.271 123.498C174.934 124.994 174.389 126.427 173.889 127.745L173.872 127.79C173.504 128.757 173.161 129.664 172.888 130.574C172.858 130.673 172.814 130.803 172.774 130.921L172.767 130.941C172.615 131.393 172.414 131.996 172.313 132.514C172.45 132.552 172.579 132.577 172.711 132.591C173.024 132.626 173.363 132.618 173.827 132.604L173.844 132.604C174.114 132.596 174.431 132.586 174.751 132.595C175.898 132.625 176.939 133.253 177.583 133.641C177.621 133.664 177.658 133.686 177.693 133.707C178.277 134.057 178.641 134.264 178.956 134.354C182.136 135.262 183.241 137.707 184.184 139.906C184.612 140.906 185.154 141.854 185.749 142.891L185.762 142.914C186.239 143.746 186.75 144.638 187.196 145.581C187.764 146.781 188.163 148.035 188.529 149.183L188.542 149.225C188.906 150.367 189.241 151.41 189.691 152.393C189.824 152.684 189.962 152.975 190.104 153.277L190.149 153.372C190.915 154.994 191.817 156.905 192.011 159.047C192.127 160.323 191.337 161.136 190.71 161.564C190.14 161.954 189.436 162.22 188.967 162.398L188.904 162.421C188.537 162.56 188.317 162.647 188.171 162.723C186.508 163.601 184.655 163.941 183.079 164.23L182.985 164.247C182.381 164.358 181.815 164.462 181.267 164.586C179.492 164.986 177.77 165.515 175.977 166.067L175.972 166.068C175.177 166.313 174.367 166.562 173.548 166.801C172.458 167.118 171.456 167.503 170.4 167.978C169.78 168.257 169.179 168.16 168.746 167.968C168.353 167.793 168.053 167.527 167.854 167.323C167.474 166.932 167.151 166.438 166.97 166.161L166.947 166.125C166.897 166.049 166.86 165.992 166.828 165.945C166.799 165.902 166.788 165.887 166.788 165.887C166.788 165.887 166.788 165.887 166.789 165.888C166.438 165.447 166.011 165.048 165.483 164.559L165.468 164.546C165.153 164.254 164.8 163.928 164.464 163.577C163.703 162.782 163.183 161.796 162.784 161.04L162.747 160.97C162.61 160.711 162.486 160.476 162.361 160.254C162.106 159.803 161.406 159.152 160.394 158.547C159.407 157.957 158.395 157.572 157.742 157.478C157.097 157.386 156.099 157.633 154.908 158.228C153.851 158.757 152.843 159.458 152.138 160.045C152.139 160.094 152.144 160.161 152.156 160.249C152.211 160.649 152.367 161.118 152.535 161.609L152.539 161.62C152.584 161.75 152.632 161.891 152.672 162.018C152.774 162.34 152.869 162.652 152.96 162.949L152.961 162.952C153.642 165.174 154.108 166.654 155.576 168.326C155.578 168.329 155.582 168.332 155.586 168.337C155.59 168.341 155.594 168.345 155.599 168.351C155.625 168.377 155.657 168.408 155.702 168.453L155.728 168.478C155.925 168.672 156.316 169.056 156.596 169.454C156.727 169.641 156.965 170.007 157.04 170.472C157.082 170.731 157.085 171.091 156.921 171.469C156.749 171.863 156.459 172.135 156.159 172.301C156.041 172.367 155.919 172.44 155.767 172.532C155.748 172.544 155.728 172.556 155.707 172.568C155.297 172.816 154.644 173.211 153.889 173.373C152.597 173.65 151.291 173.775 150.081 173.89L150.042 173.894C148.876 174.005 147.797 174.11 146.749 174.318C144.33 174.797 141.916 175.465 139.535 176.227C137.417 176.905 135.673 177.771 133.928 179.071C133.511 179.382 133.043 179.657 132.528 179.775C131.95 179.908 131.346 179.833 130.821 179.489C130.363 179.188 130.104 178.77 129.958 178.493C129.817 178.223 129.705 177.928 129.627 177.723L129.615 177.693C129.527 177.46 129.468 177.309 129.405 177.183C128.551 175.475 127.965 173.891 127.616 171.972C127.552 171.617 127.346 171.271 126.901 170.606C126.887 170.586 126.873 170.565 126.859 170.543C126.482 169.981 125.941 169.174 125.704 168.167C125.63 167.854 125.562 167.537 125.496 167.234L125.495 167.228C125.179 165.775 124.913 164.625 124.303 163.695C123.365 162.264 122.348 160.88 121.303 159.457L121.29 159.44C120.187 157.94 119.054 156.397 118.013 154.783C117.061 153.308 116.371 151.734 115.732 150.279L115.711 150.232C115.375 149.465 115.052 148.73 114.701 148.013C114.541 147.686 114.402 147.258 114.298 146.94C114.292 146.921 114.286 146.902 114.28 146.884C114.159 146.512 114.056 146.199 113.946 145.944C113.895 145.825 113.854 145.748 113.827 145.704C113.471 145.389 113.289 144.988 113.215 144.818C113.116 144.592 113.039 144.356 112.992 144.215L112.986 144.197C112.969 144.143 112.956 144.105 112.946 144.074C112.934 144.041 112.932 144.037 112.937 144.048C112.554 143.126 112.19 142.2 111.832 141.289L111.829 141.282C111.314 139.971 110.81 138.691 110.259 137.434C109.36 135.388 108.376 133.375 107.376 131.331L107.37 131.317C106.371 129.274 105.356 127.2 104.427 125.08L104.42 125.064C104.408 125.036 104.395 125.008 104.383 124.979C103.986 124.076 103.458 122.873 103.375 121.548L103.312 120.549L115.239 114.698C115.817 113.981 116.561 113.466 117.267 113.077C118.072 112.633 118.951 112.289 119.677 112.005L119.716 111.99C119.967 111.892 120.199 111.801 120.419 111.711C121.395 111.312 122.326 110.785 123.355 110.199L123.371 110.19C124.016 109.824 124.701 109.435 125.41 109.08C125.818 108.876 126.222 108.67 126.632 108.461L126.649 108.452C127.757 107.888 128.9 107.305 130.108 106.775C131.912 105.983 133.518 104.807 135.281 103.507L135.358 103.451C137.36 101.975 139.574 100.344 142.256 99.4219C142.592 99.3062 142.911 99.178 143.263 99.0355L143.307 99.0176C144.017 98.7308 144.857 98.3912 145.89 98.2281C146.043 98.2038 146.196 98.18 146.347 98.1564L146.348 98.1562C147.575 97.9643 148.679 97.7905 149.802 97.5059ZM138.814 123.811H139.364C141.119 123.811 143.111 123.824 145.075 125.134C146.239 125.909 146.643 127.35 146.758 128.385C146.878 129.471 146.756 130.769 146.239 131.718C145.96 132.229 145.005 133.542 144.052 134.584C143.578 135.101 143.007 135.663 142.44 136.025C142.171 136.197 141.753 136.424 141.251 136.475C140.627 136.537 139.938 136.308 139.499 135.674C138.727 134.56 138.115 133.356 137.556 132.257L137.535 132.216C136.837 130.844 136.215 129.633 135.399 128.594L134.505 127.456L138.814 123.811ZM139.91 126.814L138.595 127.926C139.206 128.883 139.711 129.877 140.18 130.798L140.209 130.856C140.604 131.631 140.975 132.358 141.375 133.037C141.516 132.901 141.671 132.741 141.839 132.558C142.252 132.106 142.666 131.594 143 131.149C143.167 130.927 143.309 130.728 143.419 130.569C143.474 130.489 143.518 130.422 143.551 130.369C143.563 130.352 143.572 130.336 143.58 130.324C143.584 130.317 143.587 130.311 143.591 130.306L143.602 130.287C143.604 130.283 143.605 130.281 143.605 130.281C143.724 130.062 143.857 129.448 143.776 128.715C143.738 128.377 143.662 128.091 143.57 127.884C143.481 127.685 143.41 127.629 143.41 127.629C143.41 127.629 143.41 127.629 143.411 127.63C142.401 126.956 141.386 126.832 139.91 126.814Z" fill="#4556EB"/>
<path fill-rule="evenodd" clip-rule="evenodd" d="M194.635 82.8924C194.635 82.8924 193.45 84.408 193.088 84.9157C192.033 86.3954 190.829 87.6742 189.604 88.9764C189.282 89.3179 188.959 89.661 188.637 90.0097C187.851 90.8609 186.885 91.9447 186.495 93.0566C185.752 95.1743 185.251 97.4689 184.828 99.674C184.603 100.853 184.249 102.016 183.896 103.178C183.477 104.557 183.058 105.935 182.853 107.339C182.82 107.561 182.786 107.787 182.752 108.018C182.439 110.117 182.081 112.519 182.258 114.575C182.531 117.764 182.915 121.929 184.567 124.715C184.854 125.201 184.912 125.476 185.016 125.97C185.024 126.01 185.033 126.052 185.043 126.096C185.829 129.791 188.24 133.059 190.451 136.056C190.626 136.292 190.799 136.527 190.97 136.76C191.422 137.377 191.864 138.003 192.305 138.629C194.48 141.714 196.649 144.788 200.063 146.639C202.307 147.855 204.497 149.09 206.49 150.709C208.075 151.997 210.319 152.756 212.369 153.45C212.886 153.625 213.39 153.796 213.869 153.97C214.812 154.313 215.733 154.727 216.655 155.141C218.24 155.853 219.827 156.565 221.534 156.922C226.223 157.901 231.67 157.504 236.101 155.732C236.718 155.485 237.322 155.203 237.925 154.921C238.527 154.64 239.129 154.359 239.743 154.113C240.632 153.758 241.634 153.598 242.633 153.438C243.386 153.318 244.137 153.197 244.837 152.994C247.565 152.202 249.748 150.963 251.621 148.829C253.889 146.244 256.134 142.974 257.787 139.926C258.177 139.205 258.43 138.42 258.684 137.634C258.867 137.065 259.05 136.496 259.286 135.951C259.819 134.721 260.64 133.727 261.479 132.713C261.725 132.415 261.972 132.116 262.214 131.809C264.537 128.858 266.755 125.725 267.475 121.954C268.291 117.68 268.401 113.092 267.903 108.767C267.635 106.44 267.122 104.104 266.356 101.888C265.745 100.12 264.765 98.4586 263.799 96.8222C263.436 96.2077 263.076 95.5966 262.738 94.9847C262.267 94.1332 261.776 93.2896 261.286 92.4455C260.453 91.0143 259.62 89.5814 258.882 88.1054C258.755 87.8526 258.642 87.6014 258.53 87.3526C258.27 86.7767 258.017 86.2143 257.62 85.6775C255.669 83.0401 252.716 79.907 249.741 78.4888C249.487 78.3679 249.236 78.252 248.986 78.1371C247.9 77.6368 246.855 77.1556 245.885 76.3702C245.444 76.0132 245.046 75.5262 244.645 75.0339C244.043 74.296 243.432 73.5461 242.647 73.2043C235.824 70.2299 229.23 69.8242 221.891 69.8242C217.94 69.8242 213.987 70.2071 210.536 72.395C209.133 73.2852 207.833 73.7468 206.204 74.1089C205.337 74.3015 204.533 74.6418 203.729 74.9821C203.203 75.2047 202.677 75.4274 202.134 75.6085C200.76 76.0664 194.635 82.8924 194.635 82.8924ZM225.845 102.797L225.822 102.796C224.814 102.743 223 102.649 221.248 103.982C220.861 104.277 220.429 104.584 219.977 104.905C218.162 106.194 216.025 107.712 215.202 109.564C214.331 111.523 214.162 113.738 214.357 115.884C214.482 117.265 215.414 118.764 216.273 119.788C217.333 121.052 218.746 122.734 220.296 123.382C220.542 123.485 220.769 123.585 220.986 123.68C221.856 124.062 222.569 124.375 223.688 124.549C225.617 124.849 226.924 124.635 228.651 123.858C229.071 123.669 229.482 123.493 229.883 123.321C232.386 122.247 234.492 121.344 235.756 118.657C236.4 117.29 236.319 115.588 236.243 114C236.22 113.502 236.197 113.014 236.197 112.552C236.197 111.44 235.604 110.541 235.01 109.638C234.833 109.37 234.656 109.101 234.495 108.826C233.454 107.058 233.051 106.434 231.345 105.297C229.639 104.16 226.849 102.849 225.845 102.797Z" fill="#4556EB"/>
<path fill-rule="evenodd" clip-rule="evenodd" d="M221.891 71.3242C218.004 71.3242 214.414 71.7124 211.34 73.6618C209.753 74.6686 208.28 75.1843 206.53 75.5732C205.818 75.7313 205.138 76.0148 204.314 76.3634L204.291 76.3732C203.791 76.585 203.233 76.8213 202.647 77.0187C202.647 77.0186 202.647 77.0187 202.647 77.0187C202.648 77.0213 202.553 77.0717 202.333 77.2409C202.083 77.4343 201.766 77.7065 201.397 78.0448C200.663 78.719 199.793 79.5902 198.949 80.464C198.109 81.3346 197.309 82.1928 196.718 82.8346C196.423 83.1551 196.181 83.4209 196.013 83.6061C195.929 83.6987 195.863 83.7712 195.819 83.8203L195.786 83.8569L195.629 84.0585C195.513 84.2075 195.355 84.4112 195.186 84.6304C194.839 85.0794 194.471 85.5608 194.31 85.7867C193.195 87.3495 191.933 88.6909 190.726 89.9724L190.696 90.0045C190.374 90.3468 190.056 90.6848 189.739 91.0276C188.913 91.9219 188.181 92.7839 187.911 93.5532C187.206 95.5619 186.721 97.7668 186.302 99.9561C186.061 101.214 185.688 102.44 185.342 103.579L185.332 103.614C184.907 105.013 184.524 106.282 184.337 107.556C184.305 107.78 184.271 108.008 184.237 108.237L184.236 108.239C183.917 110.383 183.594 112.6 183.753 114.447C183.89 116.046 184.049 117.814 184.37 119.518C184.693 121.234 185.161 122.775 185.858 123.951C186.271 124.649 186.37 125.119 186.483 125.654L186.484 125.661L186.51 125.784C187.217 129.105 189.405 132.111 191.659 135.165L191.66 135.167C191.833 135.402 192.008 135.638 192.18 135.873C192.64 136.501 193.089 137.137 193.528 137.759L193.531 137.764C195.741 140.897 197.722 143.664 200.778 145.32C203.024 146.537 205.325 147.83 207.436 149.545C208.771 150.629 210.731 151.312 212.851 152.03L212.859 152.033C213.37 152.205 213.888 152.381 214.382 152.56C215.378 152.922 216.341 153.355 217.247 153.762L217.27 153.773C218.88 154.496 220.32 155.136 221.841 155.453C226.258 156.376 231.404 155.995 235.545 154.339C236.116 154.11 236.681 153.847 237.291 153.562L237.308 153.554C237.899 153.278 238.533 152.982 239.187 152.72C240.232 152.302 241.375 152.12 242.325 151.968L242.397 151.957C243.168 151.833 243.825 151.726 244.42 151.554C246.923 150.827 248.842 149.723 250.494 147.839C252.684 145.344 254.866 142.167 256.468 139.211C256.782 138.633 256.996 137.983 257.256 137.174L257.266 137.145C257.443 136.595 257.645 135.967 257.91 135.355C258.528 133.928 259.466 132.793 260.273 131.818L260.324 131.757C260.571 131.457 260.807 131.172 261.036 130.881C263.354 127.936 265.356 125.054 266.002 121.673C266.787 117.56 266.896 113.126 266.414 108.939C266.157 106.712 265.667 104.484 264.939 102.378C264.385 100.777 263.488 99.2456 262.508 97.5844L262.503 97.5757C262.143 96.9671 261.774 96.3408 261.425 95.7102C260.964 94.8755 260.482 94.0462 259.989 93.1997L259.978 93.1805C259.153 91.7622 258.3 90.2949 257.54 88.7763C257.4 88.4961 257.277 88.2215 257.168 87.9793L257.163 87.9687C256.896 87.3756 256.702 86.9579 256.415 86.5695C254.509 83.9935 251.735 81.1007 249.096 79.8427C248.853 79.7269 248.61 79.6151 248.359 79.4996L248.301 79.4725C247.249 78.9884 246.059 78.4403 244.942 77.5363C244.378 77.08 243.896 76.4889 243.525 76.0328L243.483 75.982C242.817 75.1648 242.434 74.7474 242.049 74.5794C235.521 71.7338 229.186 71.3242 221.891 71.3242ZM194.636 82.8924L193.454 81.9685L193.261 82.2159C193.144 82.3669 192.983 82.5738 192.811 82.797C192.475 83.2326 192.069 83.7629 191.868 84.0447C190.881 85.4282 189.748 86.6352 188.512 87.9483L188.51 87.9506C188.19 88.2906 187.863 88.6379 187.536 88.9919C186.789 89.7999 185.59 91.1054 185.08 92.56C184.298 94.7867 183.781 97.1709 183.356 99.3919C183.147 100.48 182.819 101.566 182.461 102.742L182.446 102.791C182.037 104.137 181.591 105.606 181.369 107.122C181.337 107.341 181.303 107.566 181.269 107.797L181.256 107.887C180.952 109.926 180.572 112.471 180.764 114.703C180.9 116.292 181.069 118.201 181.422 120.074C181.772 121.935 182.322 123.869 183.277 125.48C183.436 125.749 183.454 125.829 183.549 126.279L183.576 126.408C184.43 130.422 187.005 133.912 189.156 136.827L189.245 136.947C189.419 137.183 189.591 137.416 189.761 137.647C190.204 138.251 190.637 138.865 191.08 139.493L191.162 139.61C193.281 142.616 195.624 145.939 199.349 147.957C201.591 149.173 203.671 150.351 205.544 151.873C207.341 153.333 209.8 154.165 211.762 154.828L211.889 154.871C212.409 155.047 212.897 155.213 213.357 155.38C214.24 155.701 215.111 156.091 216.041 156.509L216.105 156.538C217.648 157.231 219.36 158 221.228 158.39C226.189 159.426 231.938 159.013 236.659 157.124C237.315 156.862 237.951 156.565 238.543 156.288L238.561 156.28C239.169 155.996 239.733 155.733 240.301 155.506C241.006 155.224 241.835 155.084 242.87 154.919L242.912 154.912C243.637 154.797 244.466 154.664 245.256 154.435C248.208 153.578 250.656 152.204 252.75 149.818C255.096 147.143 257.404 143.78 259.106 140.641C259.564 139.797 259.853 138.898 260.095 138.146L260.112 138.094C260.299 137.513 260.461 137.013 260.663 136.547C261.098 135.543 261.776 134.708 262.636 133.668L262.642 133.661C262.884 133.368 263.14 133.058 263.393 132.737C265.721 129.779 268.154 126.397 268.949 122.236C269.796 117.799 269.908 113.057 269.394 108.595C269.114 106.168 268.578 103.724 267.774 101.398C267.113 99.4867 266.069 97.7162 265.127 96.1202L265.091 96.06C264.727 95.4422 264.377 94.8494 264.051 94.2592C263.573 93.3933 263.075 92.5379 262.587 91.6985L262.583 91.6913C261.746 90.2531 260.937 88.8611 260.224 87.4346C260.113 87.2132 260.012 86.9892 259.898 86.7365L259.878 86.6921C259.63 86.1407 259.32 85.4527 258.826 84.7854C256.83 82.0866 253.698 78.7132 250.387 77.1347C250.124 77.0096 249.865 76.8901 249.618 76.7764L249.614 76.7747C248.507 76.2648 247.632 75.854 246.829 75.2041C246.532 74.9636 246.234 74.6083 245.808 74.0859C245.782 74.054 245.755 74.0212 245.728 73.9874C245.188 73.3237 244.373 72.3199 243.247 71.8293C236.128 68.7261 229.276 68.3242 221.891 68.3242C217.878 68.3242 213.56 68.7018 209.734 71.1283C208.514 71.9018 207.388 72.3093 205.879 72.6446C204.878 72.8671 203.967 73.2528 203.193 73.5804L203.145 73.6007C202.61 73.8272 202.138 74.0261 201.66 74.1855C201.223 74.331 200.8 74.6349 200.502 74.865C200.155 75.1325 199.768 75.4687 199.369 75.8347C198.569 76.5692 197.65 77.4904 196.791 78.3803C195.928 79.2735 195.111 80.1504 194.511 80.8028C194.21 81.1294 193.963 81.4005 193.791 81.5903C193.705 81.6853 193.637 81.7599 193.591 81.811L193.538 81.8697L193.52 81.8902C193.52 81.8903 193.52 81.8907 194.636 82.8924ZM194.636 82.8924L193.454 81.9685L193.486 81.9285L193.52 81.8902L194.636 82.8924ZM225.745 104.294C224.766 104.243 223.446 104.195 222.157 105.176C221.75 105.485 221.302 105.804 220.859 106.119L220.846 106.128C219.926 106.781 219.008 107.435 218.217 108.142C217.42 108.855 216.859 109.529 216.573 110.174C215.841 111.82 215.67 113.755 215.851 115.748C215.934 116.663 216.621 117.868 217.423 118.824C217.959 119.464 218.53 120.142 219.146 120.739C219.771 121.346 220.353 121.78 220.876 121.999C221.133 122.106 221.37 122.21 221.585 122.305L221.589 122.307C222.449 122.684 223.008 122.925 223.919 123.067C225.543 123.319 226.557 123.156 228.036 122.491C228.468 122.296 228.89 122.115 229.288 121.944L229.293 121.942C231.834 120.852 233.405 120.131 234.4 118.019C234.854 117.054 234.826 115.759 234.746 114.071L234.745 114.052C234.722 113.567 234.697 113.05 234.697 112.552C234.697 111.963 234.398 111.435 233.758 110.463L233.749 110.45C233.578 110.19 233.383 109.894 233.202 109.587C232.67 108.682 232.374 108.201 232.03 107.8C231.71 107.425 231.305 107.073 230.514 106.545C229.739 106.028 228.686 105.453 227.706 105.003C227.219 104.779 226.77 104.595 226.4 104.468C226.216 104.404 226.063 104.359 225.944 104.33C225.816 104.298 225.764 104.295 225.768 104.295L225.745 104.294ZM225.866 101.296L225.901 101.298L225.924 101.299C225.924 101.299 225.924 101.299 225.924 101.299C226.396 101.323 226.924 101.475 227.378 101.631C227.867 101.8 228.411 102.025 228.959 102.277C230.052 102.779 231.247 103.428 232.178 104.049C233.093 104.658 233.743 105.187 234.31 105.85C234.855 106.486 235.28 107.202 235.788 108.066C235.927 108.302 236.083 108.539 236.263 108.814C236.285 108.847 236.308 108.881 236.331 108.916C236.882 109.749 237.697 110.984 237.697 112.552C237.697 112.972 237.718 113.423 237.742 113.929C237.745 113.979 237.747 114.03 237.75 114.081C237.821 115.559 237.919 117.586 237.114 119.296C235.606 122.5 233.03 123.604 230.604 124.644C230.561 124.663 230.518 124.681 230.475 124.699C230.072 124.872 229.673 125.044 229.267 125.226C227.292 126.115 225.693 126.379 223.458 126.031C222.146 125.827 221.284 125.449 220.413 125.066L220.384 125.054C220.166 124.958 219.95 124.863 219.717 124.766C218.69 124.336 217.791 123.605 217.057 122.892C216.318 122.175 215.656 121.386 215.134 120.764L215.124 120.752C214.209 119.661 213.031 117.868 212.863 116.02C212.654 113.721 212.822 111.226 213.832 108.955C214.369 107.747 215.288 106.737 216.218 105.905C217.145 105.077 218.19 104.335 219.079 103.703L219.109 103.682C219.566 103.357 219.977 103.065 220.34 102.789C222.531 101.122 224.811 101.241 225.866 101.296Z" fill="#4556EB"/>
<path d="M269.784 147.055C269.27 149.623 269.403 152.27 269.403 154.874L275.402 156.802C277.25 156.802 279.085 157.231 280.96 157.231C282.554 157.231 284.362 158.136 285.78 158.73C289.116 160.129 292.017 160.873 295.623 160.873C296.427 160.873 296.763 160.201 297.206 159.587C298.807 157.37 298.893 153.882 298.646 151.316C298.5 149.799 299.235 150.018 300.538 149.899C302.018 149.765 303.887 149.904 305.18 149.042C305.467 148.851 305.906 148.412 306.239 148.828C306.813 149.545 306.515 151.493 306.418 152.351C306.154 154.672 305.634 156.901 305.513 159.254C305.417 161.118 305.394 162.982 305.394 164.848C305.394 165.244 305.353 165.521 305.644 165.812C306.173 166.341 306.87 166.675 307.584 166.871C310.022 167.54 312.695 168.149 315.213 168.359C318.862 168.663 321.825 171.762 325.175 173.084L325.193 173.091C326.773 173.715 328.918 174.561 330.15 172.977C330.844 172.084 331.846 171.425 332.614 170.596C333.764 169.356 334.745 168.008 335.815 166.705C338.253 163.735 339.742 160.094 342.242 157.136C344.233 154.78 346.466 152.78 348.884 150.875C349.364 150.496 349.548 149.987 349.848 149.459C350.948 147.518 352.133 145.619 353.287 143.71C357.597 136.585 361.758 129.336 366.343 122.382C366.664 121.896 367.95 120.642 367.95 119.954C367.95 118.836 364.638 118.495 363.856 117.8C363.052 117.086 362.367 116.38 361.642 115.586C360.629 114.476 358.386 114.241 357.048 113.646C350.038 110.531 343.002 107.663 335.601 105.577C334.728 105.331 331.535 103.98 330.459 104.41C330.274 104.485 329.958 105.219 329.888 105.339C328.848 107.128 328.139 109.1 327.02 110.837C326.051 112.341 324.829 113.608 323.794 115.051C323.365 115.65 323.042 115.264 322.438 114.884C320.494 113.663 318.624 112.438 316.522 111.492C316.134 111.317 313.264 110.572 313.333 110.195C313.424 109.695 313.635 109.15 313.797 108.671C314.555 106.427 315.644 104.251 316.534 102.054C317.097 100.664 318.829 97.6775 318.367 96.1506C318.32 95.9938 317.645 95.7708 317.475 95.6269C315.719 94.1411 312.628 93.6266 310.488 92.9133C308.309 92.1867 306.108 91.5389 303.918 90.8424C301.795 90.1669 299.648 89.5522 297.587 88.7C296.156 88.1085 294.785 87.3676 293.29 86.9386C291.496 86.4236 289.597 86.3694 287.744 86.3316C287.237 86.3212 285.892 86.1013 285.399 86.4625C284.93 86.8068 284.775 87.9837 284.614 88.5096C283.964 90.6302 282.753 92.6954 281.829 94.6985C280.446 97.6949 280.153 100.007 280.115 103.196C280.078 106.262 279.191 109.411 278.615 112.408C277.861 116.333 276.913 120.219 276.104 124.132C275.586 126.634 275.137 129.1 274.569 131.594C274.083 133.724 273.932 135.953 273.116 137.997C271.914 141.014 270.429 143.83 269.784 147.055Z" fill="#4556EB"/>
<path fill-rule="evenodd" clip-rule="evenodd" d="M286.53 87.7573C286.465 87.7557 286.407 87.7555 286.355 87.7564C286.347 87.7817 286.339 87.8088 286.331 87.838C286.285 87.9961 286.244 88.1668 286.199 88.3591C286.195 88.3726 286.192 88.3865 286.189 88.4008C286.151 88.5632 286.102 88.7733 286.048 88.9491C285.556 90.554 284.734 92.1993 284 93.6679C283.707 94.2537 283.428 94.8113 283.19 95.3271C281.926 98.0666 281.651 100.15 281.615 103.215C281.585 105.677 281.032 108.239 280.531 110.563C280.372 111.3 280.218 112.013 280.088 112.691C279.647 114.988 279.129 117.32 278.617 119.627C278.256 121.25 277.899 122.86 277.573 124.436C277.396 125.287 277.226 126.147 277.054 127.013C276.731 128.642 276.404 130.289 276.031 131.927C275.877 132.604 275.763 133.262 275.643 133.962C275.58 134.327 275.515 134.704 275.441 135.102C275.235 136.21 274.972 137.393 274.51 138.553C274.154 139.444 273.792 140.283 273.442 141.097C272.53 143.212 271.695 145.148 271.255 147.349C270.862 149.314 270.878 151.315 270.895 153.481C270.896 153.58 270.897 153.679 270.898 153.779L275.643 155.304C276.568 155.321 277.472 155.425 278.297 155.521L278.343 155.526C279.281 155.635 280.123 155.731 280.96 155.731C282.016 155.731 283.06 156.026 283.947 156.347C284.577 156.576 285.223 156.856 285.772 157.095C285.985 157.187 286.183 157.273 286.36 157.347C289.526 158.675 292.203 159.358 295.513 159.372C295.548 159.331 295.596 159.27 295.663 159.177C295.704 159.119 295.745 159.059 295.794 158.988L295.808 158.967C295.862 158.89 295.924 158.8 295.99 158.709C296.588 157.88 296.958 156.728 297.131 155.389C297.303 154.065 297.269 152.671 297.153 151.459C297.109 151 297.106 150.472 297.282 149.972C297.492 149.378 297.907 148.955 298.426 148.718C298.85 148.525 299.291 148.483 299.553 148.462C299.676 148.452 299.808 148.445 299.925 148.438C299.948 148.437 299.969 148.436 299.99 148.434C300.131 148.426 300.265 148.418 300.402 148.405C300.765 148.372 301.146 148.355 301.497 148.338C301.543 148.336 301.589 148.334 301.634 148.332C302.037 148.312 302.408 148.292 302.765 148.253C303.494 148.172 304 148.026 304.348 147.794C304.348 147.794 304.349 147.793 304.352 147.792L304.363 147.783C304.369 147.779 304.375 147.775 304.382 147.77C304.389 147.765 304.397 147.759 304.406 147.753L304.423 147.74C304.456 147.715 304.504 147.68 304.552 147.646C304.661 147.569 304.854 147.436 305.093 147.332C305.331 147.229 305.727 147.103 306.204 147.177C306.725 147.258 307.132 147.543 307.41 147.891C307.783 148.356 307.931 148.901 308.001 149.305C308.075 149.734 308.088 150.177 308.08 150.569C308.066 151.217 307.984 151.887 307.933 152.307C307.924 152.388 307.915 152.46 307.908 152.52C307.8 153.469 307.65 154.41 307.507 155.311C307.468 155.551 307.43 155.788 307.394 156.022C307.218 157.153 307.068 158.235 307.011 159.331C306.917 161.157 306.894 162.993 306.894 164.848C306.894 164.871 306.894 164.895 306.894 164.917C307.172 165.13 307.54 165.304 307.981 165.425C310.386 166.084 312.956 166.666 315.338 166.864C317.533 167.047 319.442 168.063 321.083 169.057C321.505 169.312 321.907 169.564 322.295 169.807C323.503 170.563 324.576 171.235 325.726 171.689L325.743 171.696C326.576 172.024 327.311 172.303 327.956 172.37C328.524 172.428 328.772 172.306 328.966 172.056C329.408 171.487 329.928 171.018 330.365 170.635C330.435 170.573 330.503 170.514 330.569 170.456C330.942 170.131 331.244 169.867 331.513 169.577C332.247 168.785 332.881 167.982 333.556 167.127C333.905 166.685 334.265 166.229 334.656 165.753C335.773 164.392 336.686 162.868 337.67 161.226L337.719 161.145C338.701 159.506 339.756 157.753 341.096 156.167C343.174 153.709 345.49 151.639 347.955 149.697C348.002 149.66 348.057 149.603 348.145 149.455C348.193 149.375 348.241 149.284 348.309 149.155L348.329 149.117C348.388 149.003 348.462 148.862 348.543 148.719C349.386 147.231 350.282 145.762 351.162 144.318C351.445 143.854 351.726 143.392 352.004 142.934C353.162 141.019 354.314 139.088 355.469 137.151C358.588 131.923 361.73 126.655 365.091 121.557C365.228 121.349 365.43 121.109 365.576 120.936L365.582 120.928C365.605 120.901 365.627 120.875 365.65 120.848C365.8 120.669 365.947 120.495 366.087 120.317C366.097 120.305 366.106 120.293 366.115 120.282C365.999 120.237 365.867 120.19 365.717 120.14C365.58 120.094 365.383 120.031 365.172 119.963C364.875 119.869 364.551 119.766 364.33 119.688C363.94 119.552 363.307 119.319 362.859 118.921C362.003 118.16 361.279 117.414 360.534 116.598C360.322 116.365 359.862 116.123 359.012 115.852C358.748 115.768 358.497 115.696 358.23 115.619C358.081 115.576 357.926 115.531 357.761 115.482C357.338 115.356 356.868 115.208 356.439 115.017C349.452 111.912 342.492 109.078 335.194 107.021C334.954 106.953 334.599 106.828 334.248 106.704C334.193 106.684 334.137 106.664 334.082 106.645C333.646 106.491 333.159 106.323 332.673 106.176C332.18 106.027 331.731 105.914 331.37 105.86C331.349 105.857 331.329 105.854 331.309 105.851L331.306 105.858C331.294 105.883 331.281 105.91 331.27 105.932C331.26 105.952 331.249 105.975 331.237 105.998C331.226 106.018 331.208 106.053 331.185 106.093C330.755 106.833 330.384 107.608 329.984 108.447C329.935 108.549 329.886 108.652 329.836 108.755C329.389 109.69 328.896 110.694 328.281 111.65C327.749 112.476 327.156 113.223 326.596 113.912C326.51 114.018 326.425 114.123 326.341 114.226C325.866 114.809 325.424 115.351 325.013 115.925C324.825 116.188 324.526 116.521 324.068 116.713C323.558 116.928 323.074 116.878 322.713 116.759C322.403 116.658 322.15 116.493 322.02 116.408C321.931 116.349 321.875 116.311 321.827 116.278C321.768 116.238 321.721 116.206 321.64 116.154C321.432 116.024 321.226 115.894 321.022 115.765C319.284 114.669 317.682 113.659 315.907 112.86C315.91 112.861 315.898 112.858 315.867 112.848C315.805 112.827 315.662 112.781 315.405 112.701L315.327 112.677C315.022 112.582 314.644 112.464 314.277 112.341C313.889 112.21 313.455 112.053 313.106 111.888C312.942 111.81 312.715 111.693 312.51 111.533C312.41 111.455 312.244 111.312 312.102 111.097C311.956 110.877 311.76 110.459 311.857 109.926C311.953 109.398 312.156 108.819 312.296 108.42C312.326 108.335 312.353 108.258 312.376 108.191C312.874 106.718 313.542 105.196 314.174 103.756C314.519 102.969 314.854 102.207 315.144 101.491C315.283 101.147 315.481 100.727 315.676 100.312C315.706 100.249 315.736 100.186 315.765 100.123C315.999 99.6251 316.237 99.1075 316.443 98.5953C316.65 98.078 316.805 97.6114 316.885 97.2195C316.899 97.1551 316.909 97.0962 316.917 97.0426C316.882 97.0242 316.845 97.004 316.808 96.9822C316.743 96.9444 316.626 96.8737 316.506 96.772C315.864 96.2288 314.89 95.8004 313.668 95.4089C313.082 95.2214 312.482 95.0546 311.87 94.8847L311.834 94.8745C311.223 94.7048 310.591 94.5288 310.014 94.3363C308.674 93.8898 307.349 93.4802 306.005 93.0649C305.167 92.8061 304.323 92.5452 303.463 92.2718C303.046 92.139 302.622 92.0068 302.192 91.873C300.495 91.3444 298.72 90.7917 297.013 90.0863C296.443 89.8503 295.936 89.6198 295.459 89.4026C294.571 88.9987 293.784 88.641 292.876 88.3804C291.297 87.9273 289.59 87.8696 287.713 87.8313C287.553 87.828 287.349 87.8113 287.185 87.798C287.16 87.7959 287.136 87.7939 287.113 87.7921C286.91 87.7759 286.715 87.7618 286.53 87.7573ZM366.698 120.566C366.697 120.567 366.689 120.561 366.676 120.549C366.693 120.56 366.699 120.566 366.698 120.566ZM286.075 87.7812C286.075 87.781 286.079 87.7797 286.089 87.7777C286.08 87.7803 286.075 87.7813 286.075 87.7812ZM287.427 84.8077C287.615 84.8228 287.713 84.8306 287.774 84.8319C289.605 84.8692 291.694 84.92 293.704 85.4968C294.82 85.8172 295.956 86.3313 296.959 86.7851C297.388 86.9789 297.792 87.1617 298.16 87.3138C299.728 87.9624 301.338 88.4639 303.02 88.9882C303.465 89.1271 303.916 89.2677 304.373 89.413C305.18 89.6696 306.004 89.9244 306.835 90.1814C308.209 90.6061 309.601 91.0365 310.962 91.4903C311.455 91.6544 312.012 91.8103 312.637 91.984L312.695 92.0001C313.291 92.1658 313.941 92.3463 314.583 92.5519C315.846 92.9565 317.253 93.5092 318.355 94.4081C318.394 94.4277 318.428 94.4436 318.473 94.4642C318.509 94.4812 318.552 94.5014 318.612 94.5297C318.712 94.5773 318.873 94.6555 319.024 94.7494C319.099 94.796 319.216 94.8738 319.336 94.9831C319.428 95.0675 319.68 95.3111 319.803 95.7165C320.024 96.4472 319.95 97.2083 319.824 97.8238C319.692 98.4647 319.465 99.1179 319.227 99.7118C318.987 100.311 318.716 100.896 318.481 101.397C318.449 101.465 318.418 101.531 318.388 101.594C318.187 102.023 318.03 102.357 317.924 102.617C317.561 103.514 317.192 104.351 316.833 105.166C316.244 106.503 315.682 107.779 315.218 109.151C315.181 109.26 315.146 109.361 315.113 109.456C315.153 109.47 315.193 109.484 315.235 109.498C315.567 109.61 315.912 109.717 316.222 109.813L316.296 109.836C316.455 109.886 316.61 109.934 316.738 109.976C316.842 110.01 317.005 110.064 317.138 110.124C319.118 111.015 320.903 112.142 322.618 113.225C322.77 113.32 322.921 113.416 323.072 113.511C323.391 113.097 323.716 112.698 324.026 112.318C324.108 112.218 324.188 112.119 324.267 112.022C324.82 111.341 325.322 110.702 325.759 110.025C326.262 109.244 326.683 108.393 327.13 107.46C327.179 107.359 327.228 107.256 327.277 107.153C327.668 106.334 328.089 105.452 328.579 104.606C328.579 104.606 328.579 104.606 328.579 104.606C328.579 104.606 328.592 104.579 328.632 104.496C328.676 104.407 328.738 104.281 328.807 104.151C328.873 104.028 328.965 103.864 329.073 103.71C329.127 103.633 329.205 103.528 329.307 103.423C329.389 103.339 329.589 103.143 329.902 103.018C330.57 102.751 331.32 102.818 331.817 102.893C332.385 102.979 332.991 103.138 333.54 103.304C334.096 103.472 334.637 103.66 335.079 103.815C335.137 103.836 335.193 103.856 335.246 103.874C335.625 104.008 335.869 104.094 336.008 104.133C343.511 106.248 350.624 109.15 357.657 112.276C357.897 112.382 358.209 112.486 358.615 112.606C358.734 112.642 358.866 112.68 359.006 112.72C359.298 112.805 359.622 112.898 359.921 112.993C360.781 113.267 361.949 113.697 362.75 114.575C363.452 115.344 364.097 116.006 364.844 116.671C364.838 116.666 364.835 116.663 364.836 116.663C364.838 116.659 364.957 116.73 365.321 116.857C365.563 116.942 365.76 117.003 365.978 117.071C366.175 117.133 366.391 117.201 366.675 117.297C367.146 117.455 367.729 117.67 368.211 117.969C368.63 118.229 369.45 118.85 369.45 119.954C369.45 120.529 369.205 121.019 369.05 121.294C368.869 121.613 368.645 121.918 368.447 122.17C368.271 122.393 368.088 122.61 367.94 122.786C367.918 122.812 367.897 122.837 367.877 122.86C367.795 122.959 367.728 123.038 367.675 123.104C367.649 123.137 367.629 123.162 367.615 123.182C367.602 123.199 367.596 123.207 367.595 123.208C364.274 128.245 361.185 133.426 358.078 138.634C356.915 140.583 355.751 142.536 354.57 144.487C354.282 144.964 353.993 145.438 353.706 145.909C352.831 147.343 351.97 148.756 351.152 150.199C351.098 150.294 351.049 150.389 350.986 150.508L350.967 150.544C350.901 150.672 350.817 150.831 350.722 150.991C350.523 151.324 350.246 151.711 349.812 152.053C347.441 153.921 345.291 155.852 343.388 158.104C342.228 159.476 341.289 161.023 340.292 162.687C340.26 162.74 340.229 162.792 340.197 162.845C339.248 164.43 338.235 166.121 336.975 167.656C336.661 168.038 336.34 168.445 336.009 168.864C335.289 169.774 334.526 170.739 333.714 171.616C333.327 172.034 332.887 172.416 332.52 172.736C332.459 172.789 332.4 172.841 332.343 172.891C331.913 173.267 331.585 173.574 331.334 173.898C330.296 175.232 328.855 175.478 327.648 175.354C326.553 175.241 325.459 174.809 324.712 174.514L324.642 174.486L324.624 174.479C323.191 173.914 321.795 173.038 320.541 172.251C320.192 172.032 319.854 171.82 319.529 171.623C317.939 170.66 316.542 169.975 315.089 169.854C312.435 169.633 309.658 168.995 307.187 168.318C306.309 168.077 305.351 167.64 304.583 166.873C303.835 166.125 303.878 165.206 303.892 164.915C303.893 164.886 303.894 164.864 303.894 164.848C303.894 162.972 303.917 161.078 304.015 159.177C304.08 157.919 304.25 156.711 304.43 155.559C304.47 155.303 304.51 155.051 304.55 154.802C304.692 153.911 304.828 153.057 304.927 152.182C304.937 152.092 304.949 151.998 304.96 151.9C305.002 151.556 305.048 151.171 305.07 150.78C304.393 151.047 303.702 151.168 303.093 151.235C302.635 151.285 302.181 151.309 301.777 151.328C301.73 151.33 301.684 151.333 301.639 151.335C301.278 151.352 300.967 151.366 300.674 151.393C300.485 151.41 300.311 151.421 300.163 151.429C300.163 151.429 300.163 151.429 300.163 151.429C300.275 152.73 300.303 154.26 300.106 155.775C299.898 157.377 299.424 159.077 298.422 160.466C298.399 160.497 298.368 160.543 298.33 160.598C298.172 160.828 297.899 161.227 297.621 161.51C297.178 161.962 296.528 162.373 295.623 162.373C291.771 162.373 288.671 161.57 285.2 160.114C284.955 160.011 284.717 159.908 284.481 159.805C283.966 159.581 283.463 159.363 282.924 159.168C282.154 158.888 281.497 158.731 280.96 158.731C279.932 158.731 278.929 158.615 278.026 158.51L277.998 158.507C277.059 158.398 276.224 158.302 275.401 158.302H275.166L267.903 155.968V154.874C267.903 154.459 267.899 154.034 267.895 153.601C267.875 151.43 267.853 149.059 268.313 146.761C268.82 144.225 269.839 141.863 270.791 139.656C271.118 138.9 271.436 138.162 271.723 137.442C272.076 136.557 272.296 135.604 272.491 134.554C272.55 134.238 272.608 133.903 272.668 133.557C272.797 132.81 272.934 132.013 273.106 131.261C273.471 129.66 273.782 128.09 274.099 126.492C274.272 125.616 274.448 124.731 274.635 123.828C274.983 122.147 275.346 120.511 275.707 118.888C276.208 116.638 276.703 114.413 277.142 112.125C277.301 111.296 277.475 110.487 277.646 109.692C278.13 107.443 278.589 105.312 278.615 103.178C278.655 99.8646 278.965 97.3232 280.467 94.07C280.791 93.3665 281.123 92.7031 281.445 92.0607C282.128 90.6965 282.763 89.4272 283.179 88.0701C283.201 87.9985 283.228 87.886 283.278 87.6735C283.322 87.4865 283.379 87.2428 283.451 86.9979C283.521 86.7571 283.618 86.4659 283.758 86.1856C283.888 85.9231 284.117 85.5423 284.512 85.2529C284.926 84.949 285.389 84.8477 285.683 84.8043C286.006 84.7566 286.332 84.7517 286.602 84.7582C286.878 84.7648 287.145 84.785 287.352 84.8017C287.379 84.8038 287.404 84.8058 287.427 84.8077ZM318.298 94.3789C318.299 94.3789 318.303 94.3813 318.311 94.3858C318.302 94.3811 318.298 94.3789 318.298 94.3789Z" fill="#4556EB"/>
<path d="M54.2637 27.084C65.5777 36.8395 100.572 62.3786 112.48 71.5107C148.712 99.2947 185.886 126.202 225.265 151.146C255.284 170.16 279.138 194.607 308.999 213.521C318.294 219.409 324.493 224.782 335.824 232.42" stroke="#D80027" stroke-width="4" stroke-linecap="round"/>
<path d="M357.708 32.542C345.095 41.811 337.801 52.8354 327.282 63.5191C311.344 79.7079 289.265 93.8603 270.938 108.471C243.238 130.553 212.696 154.309 181.632 172.987C148.888 192.675 119.92 220.973 83.874 235.873" stroke="#D80027" stroke-width="4" stroke-linecap="round"/>
</svg>
