<svg width="316" height="379" viewBox="0 0 316 379" fill="none" xmlns="http://www.w3.org/2000/svg">
<g clip-path="url(#clip0_472_2721)">
<path d="M244.798 294.037C246.084 293.689 250.734 293.359 252.806 293.206C254.043 293.113 254.949 293.049 255.337 292.999C257.997 292.632 261.084 291.656 264.354 290.632C269.609 288.983 275.053 287.263 278.765 288.078L279.245 285.905C274.955 284.965 269.231 286.763 263.691 288.512C260.516 289.506 257.516 290.454 255.033 290.795C254.716 290.84 253.759 290.905 252.644 290.993C245.944 291.481 245.302 291.686 243.317 292.26C225.953 296.977 199.383 315.436 196.9 317.4L196.904 317.42C191.703 321.846 175.545 327.213 163.805 329.745L162.493 330.016C159.32 330.673 156.536 331.086 154.463 331.188C148.864 331.469 141.168 329.611 136.566 326.866C135.377 326.153 133.939 322.713 134.341 320.904C134.48 320.293 135.045 319.716 135.54 319.297C138.822 321.487 143.559 321.824 147.413 322.089L148.604 322.169L148.767 319.95L147.555 319.864C143.982 319.623 139.575 319.299 136.783 317.457L136.733 316.967L136.233 316.672C135.65 316.323 134.84 316.011 133.915 315.641C131.925 314.858 129.2 313.778 128.664 312.224C128.454 311.604 128.598 310.869 129.122 309.995C129.426 309.493 129.571 308.911 129.718 308.34C129.889 307.682 130.066 307.012 130.376 306.733C130.521 306.642 131.051 306.44 131.374 306.322L132.102 306.335C138.176 309.04 146.598 309.421 151.069 309.414L151.058 307.19C147.701 307.201 139.448 306.949 133.556 304.533L131.209 303.058C130.948 302.836 130.677 302.361 130.425 301.934C130.026 301.24 129.579 300.464 128.833 300.016C127.935 299.477 129.017 296.118 130.161 294.196C130.564 293.531 131.798 292.928 132.929 292.817C136.891 295.285 141.711 295.237 145.99 295.188C146.491 295.187 146.979 295.178 147.457 295.171L147.456 292.945C146.976 292.942 146.478 292.953 145.968 292.957C141.893 293.004 137.278 293.06 133.829 290.752C129.863 288.07 128.61 285.276 129.121 283.699C129.636 282.092 132.033 281.238 135.609 281.345L138.621 281.641C140.79 281.856 142.917 282.069 144.996 282.241L147.454 282.427C155.13 282.952 162.165 282.752 168.329 280.067C168.339 280.065 168.349 280.063 168.368 280.058C168.544 280.022 168.691 279.941 168.836 279.849C172.314 278.251 175.512 275.843 178.381 272.288L176.652 270.889C174.366 273.711 171.87 275.76 169.169 277.217C168.647 275.385 167.658 272.189 166.442 268.285C166.461 268.281 166.471 268.278 166.481 268.276C168.537 267.851 171.662 267.112 175.187 266.28C183.325 264.351 194.394 261.733 198.302 261.618C198.302 261.618 198.312 261.616 198.321 261.614C198.392 261.61 198.472 261.603 198.545 261.609L198.537 261.57C204.279 260.105 211.407 259.61 218.952 259.11C225.488 258.666 232.235 258.209 239.351 257.114L239.355 257.134L239.541 257.095C239.57 257.089 239.6 257.083 239.639 257.075L271.891 248.898L271.343 246.744L239.109 254.908C232.054 256 225.316 256.455 218.8 256.895C211.167 257.413 203.964 257.893 198.02 259.42C193.701 259.619 183.198 262.11 174.68 264.128C171.001 265.002 167.768 265.763 165.778 266.165C165.261 264.505 164.706 262.762 164.137 260.949C160.7 250.019 156.435 236.421 155.953 233.795C155.423 230.841 151.148 213.885 147.609 200.291C154.45 198.364 172.59 193.496 179.565 191.623L180.387 191.402C182.196 190.915 183.993 190.319 185.732 189.744C187.605 189.122 189.536 188.487 191.437 188.001C194.938 187.103 198.659 186.925 202.257 186.742C203.368 186.686 204.48 186.629 205.588 186.553C212.517 186.089 218.675 185.396 224.411 184.444C226.051 184.176 227.652 183.773 229.207 183.39C231.529 182.817 233.726 182.281 236.002 182.126C239.94 181.863 243.966 181.775 247.858 181.684L248.213 181.672C252.552 181.57 256.453 181.569 260.217 182.486C260.518 182.556 260.806 182.568 261.09 182.509C261.433 182.438 261.745 182.271 262.01 182.022C263.54 180.582 263.024 176.707 260.144 160.77C257.39 145.593 253.626 124.794 254.261 109.212C254.595 101.055 256.837 90.6748 258.644 82.3353C261.033 71.2816 262.111 65.8811 260.611 63.8633C260.201 63.3149 259.613 62.9874 258.95 62.9409C257.144 62.804 252.428 59.3584 248.985 56.8339C245.555 54.327 242.593 52.1523 240.677 51.5278C239.953 51.2895 239.248 51.0373 238.54 50.7753C236.045 49.8723 233.472 48.9344 230.619 49.0144C224.456 49.1872 218.147 50.1866 210.733 52.1604C208.11 52.8566 205.447 53.2137 202.635 53.5915C200.558 53.8683 198.403 54.1612 196.288 54.599C196.268 54.6031 196.239 54.6092 196.219 54.6132C195.524 54.7572 194.823 54.8717 194.123 54.996C192.002 55.3535 189.802 55.7272 187.691 56.7768C183.608 58.8067 179.768 61.5213 176.044 64.1508C173.941 65.6377 171.777 67.1683 169.609 68.5361C166.367 70.5857 162.571 70.0542 158.542 69.489C153.81 68.8246 148.908 68.1338 144.678 71.6747C143.667 72.517 142.155 72.1663 139.562 71.4777C136.039 70.5423 131.208 69.2549 125.656 72.334C120.113 75.4013 116.884 74.9464 113.15 74.4223C110.469 74.0481 107.454 73.6408 103.473 74.5873L97.6115 61.8612C97.1103 60.5251 96.5033 59.221 95.9261 57.9619C94.9649 55.8836 94.0574 53.9167 93.5767 51.841C92.7832 48.4515 91.6983 45.7759 90.3321 42.3824C89.7279 40.8939 89.0716 39.2529 88.3289 37.2927L87.1278 34.5492L86.1297 34.5618C84.9296 34.5856 81.6413 35.2764 77.1274 36.2619C75.124 36.697 73.2381 37.1078 72.3976 37.2409C72.3291 37.2551 65.8093 38.3187 64.0762 39.5659C63.7112 39.8253 63.4765 40.221 63.407 40.6745C63.1627 42.2569 65.885 46.0845 65.9127 46.1197C66.6905 47.1637 67.0759 48.483 67.4796 49.8903C67.5478 50.1213 67.6181 50.3621 67.6883 50.6028C55.0094 55.9028 43.5123 64.2975 33.5057 75.6004C30.8157 78.6388 28.2342 82.3491 25.6233 86.9539C23.1229 91.352 22.3025 96.5155 21.4986 101.512C21.2371 103.159 20.9867 104.712 20.6772 106.226C20.3184 107.996 19.8556 109.756 19.3641 111.625C18.2434 115.88 17.0687 120.269 17.3184 124.731L17.3312 124.892C17.5568 128.992 17.7834 133.244 18.4626 137.413C19.5032 143.723 22.8234 149.255 26.0423 154.593C26.7147 155.72 27.3831 156.828 28.0319 157.939C29.4784 160.438 31.2642 162.652 33.6484 164.895C36.2477 167.339 38.4284 170.523 40.526 173.602C41.7539 175.39 43.0177 177.253 44.3588 178.946C48.1209 183.702 53.4957 187.073 58.6932 190.327C59.7133 190.963 60.7237 191.601 61.7007 192.226C62.2778 192.597 62.8451 192.97 63.4125 193.343C67.0863 195.748 70.5591 198.021 74.761 199.623C78.9649 201.234 85.3313 203.327 91.7127 204.161C93.3498 204.373 94.974 204.425 96.555 204.466C98.6912 204.524 100.704 204.577 102.625 205.027C108.846 206.466 115.318 206.454 119.634 206.193C119.768 206.196 119.956 206.219 120.186 206.243C121.012 206.337 122.17 206.455 123.267 206.228C123.531 206.173 123.789 206.089 124.044 205.985C124.054 206.034 124.064 206.083 124.074 206.132C124.323 207.633 124.571 209.175 125.148 210.679C126.232 213.498 141.404 268.739 144.367 279.992C142.577 279.832 140.742 279.65 138.856 279.468L135.771 279.167C129.325 278.96 127.524 281.508 127.026 283.05C126.229 285.513 127.624 288.502 130.697 291.165C129.702 291.585 128.792 292.223 128.276 293.085C128.24 293.154 124.274 299.898 127.712 301.954C127.957 302.097 128.248 302.619 128.514 303.064C128.82 303.604 129.167 304.196 129.627 304.642C129.357 304.769 129.146 304.884 128.973 305.032C128.097 305.785 127.806 306.897 127.573 307.793C127.466 308.214 127.349 308.636 127.214 308.868C126.349 310.314 126.132 311.686 126.566 312.944C127.427 315.472 130.573 316.71 133.098 317.709C133.308 317.788 133.509 317.869 133.709 317.95C133.078 318.551 132.401 319.375 132.169 320.424C131.592 323.066 133.33 327.516 135.429 328.776C140.439 331.763 148.491 333.711 154.576 333.412C156.588 333.312 159.245 332.925 162.267 332.33C163.527 335.358 164.978 339.755 166.384 344.029C167.897 348.627 169.465 353.388 170.833 356.547C171.124 357.211 171.831 357.566 172.516 357.424C172.614 357.403 172.712 357.383 172.804 357.334C173.562 357.003 173.912 356.124 173.591 355.363C172.278 352.326 170.734 347.632 169.243 343.09C167.895 338.998 166.516 334.8 165.261 331.7C170.492 330.526 176.447 328.854 181.955 326.948C183.732 331.145 186.587 338.57 186.797 339.293C186.894 339.61 189.228 346.99 191.731 352.272C192.037 352.913 192.728 353.24 193.393 353.102C193.511 353.078 193.626 353.044 193.728 352.992C194.481 352.632 194.796 351.74 194.438 350.997C192.023 345.89 189.681 338.471 189.661 338.424C189.402 337.518 186.472 329.975 184.768 325.937C190.694 323.73 195.798 321.305 198.415 319.047C200.509 317.521 226.636 298.848 244.037 294.255L244.788 294.039L244.798 294.037ZM123.111 202.073C123.247 202.729 123.159 203.044 123.101 203.107C122.742 203.497 121.06 203.315 120.507 203.255C120.089 203.209 119.765 203.174 119.473 203.194C115.339 203.447 109.173 203.457 103.305 202.098C101.086 201.587 98.826 201.524 96.6368 201.457C95.1362 201.41 93.5768 201.375 92.0967 201.181C85.9979 200.381 79.8831 198.368 75.8227 196.809C71.9197 195.319 68.5866 193.129 65.0449 190.819C64.4776 190.447 63.9004 190.076 63.3213 189.695C62.3305 189.053 61.3103 188.416 60.2783 187.772C55.2936 184.658 50.1414 181.425 46.6977 177.073C45.4238 175.458 44.2394 173.732 42.9936 171.906C40.797 168.695 38.5272 165.376 35.6969 162.704C33.5298 160.672 31.9122 158.678 30.6203 156.433C29.9675 155.302 29.2853 154.177 28.6011 153.042C25.5328 147.938 22.3575 142.662 21.4148 136.924C20.7583 132.914 20.5375 128.936 20.3091 124.725L20.2963 124.564C20.0832 120.575 21.183 116.415 22.2483 112.386C22.7283 110.561 23.2353 108.669 23.6072 106.815C23.9242 105.238 24.1935 103.579 24.4436 101.975C25.2002 97.2432 25.9852 92.3526 28.2162 88.4289C30.7321 84.0072 33.1833 80.4566 35.743 77.578C45.4032 66.6735 56.4883 58.5582 68.682 53.4301C69.0137 54.3418 69.3494 55.2731 69.6615 56.1888C69.9436 57.0087 70.2236 57.8187 70.5232 58.6247C71.5922 61.5692 72.5559 64.5967 73.4993 67.5263C74.04 69.2014 74.571 70.8786 75.1334 72.5595C76.4305 76.4575 78.0294 80.3339 79.5726 84.089C80.4119 86.1211 81.2731 88.2099 82.0676 90.2717C84.9733 97.7479 88.1323 105.264 91.1916 112.545C93.5393 118.114 95.9569 123.874 98.2368 129.56C98.9329 131.295 99.3194 133.063 99.7379 134.937C100.258 137.301 100.796 139.753 102.005 142.188C102.792 143.771 103.194 145.567 103.617 147.461C104.143 149.803 104.684 152.223 106.023 154.397C107.082 156.108 107.377 157.732 107.715 159.612C107.913 160.715 108.13 161.865 108.505 163.084C108.539 163.2 108.585 163.323 108.619 163.439C99.1752 165.618 96.7788 170.025 95.9517 176.834C95.4834 180.689 96.3234 183.119 97.3972 186.185C97.6252 186.843 97.8731 187.547 98.1136 188.314C99.1951 191.665 102.724 193.171 106.13 194.631C107.922 195.393 109.771 196.185 111.241 197.218C113.464 198.78 115.989 198.053 118.02 197.459C119.428 197.056 120.747 196.67 121.458 197.146C121.673 197.295 121.975 197.621 122.272 198.315C122.493 199.331 122.733 200.344 122.987 201.374C123.016 201.562 123.04 201.73 123.061 201.93L123.092 202.077L123.111 202.073ZM114.657 177.262C116.476 180.919 118.341 184.699 119.743 188.463C120.412 190.265 120.901 192.135 121.347 193.993C119.971 193.808 118.542 194.206 117.221 194.582C115.246 195.154 113.979 195.447 113.001 194.771C111.279 193.555 109.285 192.701 107.347 191.877C104.423 190.623 101.665 189.438 100.996 187.391C100.742 186.606 100.49 185.882 100.258 185.205C99.2459 182.29 98.5721 180.366 98.9588 177.202C99.6798 171.263 101.492 168.08 109.639 166.291C111.068 170.039 112.877 173.698 114.647 177.264L114.657 177.262ZM166.424 278.51C160.906 280.613 154.611 280.741 147.534 280.245C145.274 271.451 129.183 212.805 127.947 209.599C127.482 208.388 127.257 207.056 127.038 205.651C126.862 204.554 126.668 203.42 126.355 202.3C126.212 201.809 126.097 201.302 125.974 200.806C125.795 199.496 125.536 198.395 125.195 197.486C125.128 197.162 125.051 196.841 124.984 196.518C124.344 193.526 123.677 190.447 122.558 187.411C121.104 183.494 119.193 179.642 117.35 175.918C115.139 171.453 112.847 166.842 111.404 162.188C111.075 161.143 110.898 160.138 110.696 159.067C110.334 157.069 109.957 155.002 108.605 152.811C107.53 151.073 107.059 148.995 106.572 146.788C106.131 144.806 105.666 142.758 104.718 140.84C103.668 138.729 103.191 136.571 102.685 134.276C102.26 132.373 101.831 130.399 101.036 128.429C98.742 122.725 96.3223 116.956 93.9706 111.367C90.9173 104.115 87.7603 96.6093 84.8725 89.1702C84.0622 87.0811 83.1969 84.9727 82.3458 82.9329C80.8225 79.2247 79.2435 75.3953 77.9766 71.5932C77.4162 69.922 76.8872 68.2547 76.3485 66.5893C75.401 63.6401 74.4215 60.5852 73.3403 57.5821C73.0546 56.7936 72.7766 55.9933 72.4966 55.1833C72.0345 53.839 71.5407 52.4401 71.0199 51.108C70.7625 50.4567 70.5676 49.7617 70.3548 49.0297C69.891 47.4305 69.4171 45.7823 68.3168 44.3149C68.0179 43.907 67.1969 42.5554 66.716 41.6133C67.9664 41.1911 70.2747 40.601 72.8744 40.1854C73.7932 40.036 75.6301 39.6354 77.7608 39.1739C80.1363 38.6618 83.4772 37.9294 85.2189 37.6608L85.5455 38.3999C86.2683 40.3131 86.9384 41.9717 87.5467 43.4797C88.867 46.75 89.914 49.3416 90.6511 52.5079C91.2024 54.8753 92.2194 57.0748 93.2005 59.2C93.7936 60.4865 94.3509 61.6987 94.8241 62.9488L100.896 76.101C102.4 80.7527 104.483 85.4378 106.492 89.9645C107.313 91.8064 108.119 93.6308 108.883 95.4437C109.702 97.3778 110.283 99.494 110.838 101.534C111.087 102.442 111.338 103.36 111.605 104.255C111.768 104.793 111.901 105.388 112.05 106.011C112.438 107.687 112.872 109.589 113.885 111.074C114.093 111.389 114.258 112.039 114.397 112.612C114.544 113.225 114.698 113.867 114.97 114.444L115.89 116.419C117.06 118.913 118.279 121.5 119.334 124.08C120.383 126.63 121.006 129.248 121.66 132.013C122.031 133.56 122.403 135.158 122.863 136.737C123.557 139.106 124.338 141.497 125.091 143.802C125.842 146.098 126.617 148.46 127.295 150.801C127.709 152.206 128.048 153.647 128.407 155.186C129.126 158.213 129.865 161.339 131.178 164.181C132.106 166.195 133.094 168.207 134.048 170.154C136.269 174.667 138.552 179.331 140.124 184.112C141.804 189.268 152.179 229.623 153.019 234.32C153.53 237.135 157.646 250.263 161.29 261.845C163.558 269.055 165.701 275.903 166.418 278.481L166.424 278.51ZM255.72 81.7254C253.896 90.1807 251.621 100.7 251.27 109.116C250.621 125.028 254.424 146.013 257.196 161.329C258.569 168.898 259.98 176.704 259.888 179.367C256.116 178.606 252.329 178.614 248.162 178.711L247.807 178.723C243.883 178.81 239.818 178.906 235.819 179.172C233.28 179.34 230.853 179.945 228.511 180.522C227.015 180.892 225.47 181.273 223.94 181.529C218.302 182.461 212.245 183.143 205.407 183.609C204.319 183.681 203.217 183.735 202.125 183.788C198.375 183.972 194.495 184.172 190.712 185.139C188.705 185.657 186.725 186.301 184.805 186.944C183.103 187.5 181.346 188.089 179.623 188.548L178.801 188.769C171.835 190.64 153.764 195.493 146.864 197.432C145.05 190.547 143.534 184.948 142.975 183.236C141.351 178.251 139.007 173.488 136.748 168.89C135.798 166.963 134.824 164.969 133.914 162.992C132.728 160.419 132.019 157.441 131.341 154.559C130.99 153.059 130.619 151.512 130.189 150.028C129.492 147.65 128.709 145.249 127.955 142.934C127.206 140.648 126.441 138.284 125.756 135.965C125.323 134.461 124.949 132.905 124.594 131.385C123.94 128.62 123.268 125.767 122.123 123.002C121.033 120.348 119.807 117.732 118.619 115.2L117.704 113.245C117.559 112.938 117.436 112.443 117.329 111.975C117.127 111.149 116.901 110.205 116.376 109.445C115.685 108.424 115.327 106.895 114.988 105.403C114.827 104.721 114.679 104.058 114.494 103.463C114.232 102.588 113.986 101.699 113.741 100.81C113.156 98.6745 112.545 96.4625 111.656 94.3386C110.879 92.5081 110.068 90.6641 109.246 88.8124C107.595 85.0795 105.912 81.241 104.545 77.4494C107.776 76.7295 110.205 77.0642 112.751 77.4256C116.663 77.974 120.713 78.545 127.135 74.9893C131.633 72.4958 135.449 73.5136 138.82 74.4088C141.683 75.1642 144.386 75.8913 146.631 74.0072C149.833 71.3224 153.871 71.8856 158.143 72.4923C162.528 73.1062 167.063 73.7504 171.235 71.11C173.455 69.7007 175.655 68.1425 177.794 66.6376C181.421 64.0793 185.171 61.4242 189.041 59.4997C190.745 58.6567 192.64 58.3361 194.632 57.9952C195.382 57.8705 196.107 57.7205 196.865 57.5841C198.896 57.1841 200.998 56.8816 203.046 56.611C205.828 56.2393 208.711 55.8571 211.516 55.1028C218.687 53.1895 224.788 52.2229 230.708 52.0596C232.992 51.9952 235.19 52.7963 237.52 53.6416C238.259 53.9073 239 54.1828 239.755 54.4248C241.211 54.8994 244.268 57.1363 247.228 59.3012C252.258 62.978 255.819 65.4781 258.279 65.9186C258.731 67.8571 257.071 75.5229 255.724 81.745L255.72 81.7254Z" fill="#B88033"/>
</g>
<defs>
<clipPath id="clip0_472_2721">
<rect width="252.32" height="333.86" fill="white" transform="translate(0.769531 52.0371) rotate(-11.6947)"/>
</clipPath>
</defs>
</svg>
