<?xml version="1.0" encoding="UTF-8" standalone="no"?>
<svg
   width="18"
   height="16"
   viewBox="0 0 18 16"
   fill="none"
   version="1.1"
   id="svg2"
   sodipodi:docname="ai-btn.svg"
   xml:space="preserve"
   inkscape:version="1.3.2 (091e20ef0f, 2023-11-25)"
   xmlns:inkscape="http://www.inkscape.org/namespaces/inkscape"
   xmlns:sodipodi="http://sodipodi.sourceforge.net/DTD/sodipodi-0.dtd"
   xmlns="http://www.w3.org/2000/svg"
   xmlns:svg="http://www.w3.org/2000/svg"><defs
     id="defs2" /><sodipodi:namedview
     id="namedview2"
     pagecolor="#ffffff"
     bordercolor="#000000"
     borderopacity="0.25"
     inkscape:showpageshadow="2"
     inkscape:pageopacity="0.0"
     inkscape:pagecheckerboard="0"
     inkscape:deskcolor="#d1d1d1"
     inkscape:zoom="45.910156"
     inkscape:cx="3.5395218"
     inkscape:cy="9.7908619"
     inkscape:window-width="1920"
     inkscape:window-height="1011"
     inkscape:window-x="0"
     inkscape:window-y="0"
     inkscape:window-maximized="1"
     inkscape:current-layer="layer1" /><g
     style="fill:none"
     id="g2"
     transform="translate(10.047988,-6.2649961)"><g
       inkscape:groupmode="layer"
       id="layer1"
       inkscape:label="Layer 1"><path
         d="m -0.41675587,22.253285 c -0.056,-2.254 0.056,-5.082 0,-7.336 H 1.1232541 c 0.056,2.254 -0.056,5.082 0,7.336 z m -0.042,-9.800005 H 1.0812541 l 0.056,1.666005 h -1.54000997 z"
         fill="#4556eb"
         id="path1" /><path
         d="m -3.0005359,22.253285 -0.728,-2.114 h -3.878 c -0.238,0.7 -0.504,1.414 -0.77,2.114 h -1.6380031 c 1.2600031,-3.262 2.1420031,-6.538 3.4020031,-9.800005 h 1.834 l 3.416,9.800005 z m -4.088,-3.654 h 2.814 l -1.428,-4.144 c -0.49,1.386 -0.924,2.758 -1.386,4.144 z"
         fill="#4556eb"
         id="path2" /><path
         d="M -0.06109078,10.723143 C 2.5406993,10.631323 3.8478693,9.1620127 3.9031993,6.2393432 c 0.77023,3.6537095 0.96465,3.8711598 4.03571,4.5173298 -2.51874,0.09967 -3.91964,1.45695 -3.98032,4.48267 -0.11479,-2.94474 -1.41054,-4.4332 -4.01968008,-4.5162 z"
         fill="#4556eb"
         id="path1-3" /></g></g></svg>
