<svg width="27" height="27" viewBox="0 0 27 27" fill="none" xmlns="http://www.w3.org/2000/svg">
<path fill-rule="evenodd" clip-rule="evenodd" d="M0.110935 18.3137L0.109118 18.272C0.107315 18.23 0.10472 18.1682 0.101518 18.0881C0.0951135 17.928 0.0862738 17.6949 0.0764608 17.4014C0.0568387 16.8143 0.0333028 15.9849 0.0175754 15.0131C-0.0138174 13.0736 -0.0143914 10.5516 0.111568 8.2564C0.130506 7.91132 0.120241 7.47569 0.102888 6.9554C0.100692 6.88957 0.0983917 6.82255 0.0960563 6.75452C0.0805235 6.30208 0.0634619 5.80509 0.0656997 5.31806C0.0682702 4.75864 0.0959259 4.17149 0.190427 3.62871C0.282788 3.09821 0.453406 2.52057 0.803727 2.04719C1.43924 1.18844 2.43562 0.763182 3.31627 0.527774C4.21621 0.287212 5.1737 0.200035 5.89799 0.142037C8.58075 -0.0727872 11.3845 -0.000533797 14.126 0.0701138C15.4671 0.104672 16.7932 0.138846 18.0829 0.138846C18.4172 0.138846 18.7668 0.13219 19.1271 0.125329C20.5367 0.0984892 22.1112 0.0685091 23.5807 0.421518C25.2165 0.814481 26.027 2.06053 26.4249 3.3155C26.812 4.53653 26.8718 5.94554 26.9162 7.00229C27.042 9.99305 27.0001 12.9802 26.9584 15.9466C26.9377 17.4186 26.9171 18.8854 26.9171 20.345C26.9171 20.376 26.9171 20.4072 26.9171 20.4385C26.9174 21.7401 26.9178 23.2812 26.414 24.4884C26.1388 25.1478 25.701 25.7484 25.0185 26.1715C24.3455 26.5886 23.5192 26.7807 22.5525 26.7807C21.9466 26.7807 21.3703 26.8303 20.7491 26.8838C20.5247 26.9031 20.2944 26.9229 20.0548 26.941C19.1825 27.0071 18.2375 27.0446 17.235 26.8898C16.4904 26.7748 15.7545 26.7772 14.9166 26.7799C14.7869 26.7803 14.6547 26.7807 14.5197 26.7807C13.5355 26.7807 12.5599 26.7183 11.6236 26.6583L11.6167 26.6579C10.6676 26.5971 9.75903 26.5391 8.85821 26.5391H5.75434C5.6959 26.5391 5.62434 26.5399 5.54194 26.5407C5.10123 26.5452 4.35033 26.5528 3.63716 26.4692C3.21138 26.4193 2.74037 26.3315 2.31654 26.1644C1.90735 26.003 1.40588 25.7137 1.12077 25.1743C0.590212 24.1706 0.352978 22.8625 0.235589 21.6635C0.116804 20.4502 0.111021 19.2245 0.110935 18.3137Z" fill="#4556EB"/>
<path fill-rule="evenodd" clip-rule="evenodd" d="M15.3163 5.34684C15.8674 5.38239 16.2854 5.85801 16.2498 6.40914C16.2462 6.4651 16.2424 6.52494 16.2383 6.58849C16.0688 9.21388 15.491 18.1648 15.491 20.4209C15.491 20.9731 15.0433 21.4209 14.491 21.4209C13.9387 21.4209 13.491 20.9731 13.491 20.4209C13.491 18.0959 14.0694 9.13955 14.2397 6.50163C14.2449 6.422 14.2496 6.34813 14.254 6.28038C14.2895 5.72924 14.7652 5.31128 15.3163 5.34684Z" fill="#F3F4F6"/>
<path fill-rule="evenodd" clip-rule="evenodd" d="M21.4835 14.776C21.874 15.1665 21.874 15.7997 21.4835 16.1902C20.6 17.0737 20.0048 17.6041 19.436 18.0975C19.3481 18.1737 19.2613 18.2487 19.1745 18.3236C18.7056 18.7286 18.2379 19.1325 17.5963 19.7385C17.5815 19.7525 17.5621 19.7709 17.5387 19.7933C17.3483 19.9746 16.8877 20.4133 16.412 20.8036C16.1485 21.0198 15.8457 21.2503 15.5586 21.4176C15.4178 21.4996 15.2402 21.5907 15.0462 21.6485C14.885 21.6965 14.5141 21.783 14.1235 21.598C13.5177 21.311 13.1004 20.9022 12.7773 20.5539C12.6851 20.4545 12.6036 20.364 12.528 20.2801C12.3163 20.0452 12.1519 19.8628 11.9343 19.6847C11.4428 19.2826 10.6257 18.3919 9.89465 17.571C9.4681 17.092 9.07264 16.6389 8.73689 16.2542C8.45242 15.9283 8.21081 15.6514 8.02948 15.4496C7.66036 15.0388 7.69416 14.4065 8.10497 14.0374C8.51578 13.6683 9.14805 13.7021 9.51717 14.1129C9.68406 14.2986 9.94435 14.5966 10.2463 14.9422C10.5977 15.3444 11.0055 15.8111 11.3882 16.2408C12.1567 17.1037 12.8585 17.8568 13.2007 18.1368C13.5482 18.4211 13.8493 18.7563 14.08 19.0133C14.1394 19.0794 14.1941 19.1403 14.2438 19.1939C14.4037 19.3664 14.5421 19.501 14.6816 19.6074C14.8118 19.5198 14.9691 19.4005 15.1433 19.2575C15.5559 18.9189 15.9589 18.5356 16.1561 18.3481C16.1821 18.3233 16.2046 18.3019 16.223 18.2845C16.8991 17.646 17.4004 17.2131 17.8714 16.8064C17.9568 16.7326 18.0412 16.6597 18.1255 16.5866C18.6691 16.1151 19.2278 15.6175 20.0693 14.776C20.4598 14.3855 21.0929 14.3855 21.4835 14.776Z" fill="#F3F4F6"/>
</svg>
