<?xml version="1.0" encoding="UTF-8" standalone="no"?>
<svg
   width="27"
   height="27"
   viewBox="0 0 27 27"
   fill="none"
   version="1.1"
   id="svg3"
   sodipodi:docname="arrow-up-green.svg"
   inkscape:version="1.4 (e7c3feb100, 2024-10-09)"
   xmlns:inkscape="http://www.inkscape.org/namespaces/inkscape"
   xmlns:sodipodi="http://sodipodi.sourceforge.net/DTD/sodipodi-0.dtd"
   xmlns="http://www.w3.org/2000/svg"
   xmlns:svg="http://www.w3.org/2000/svg">
  <defs
     id="defs3" />
  <sodipodi:namedview
     id="namedview3"
     pagecolor="#ffffff"
     bordercolor="#cccccc"
     borderopacity="1"
     inkscape:showpageshadow="0"
     inkscape:pageopacity="1"
     inkscape:pagecheckerboard="0"
     inkscape:deskcolor="#d1d1d1"
     inkscape:zoom="42.888889"
     inkscape:cx="13.511658"
     inkscape:cy="13.5"
     inkscape:window-width="2560"
     inkscape:window-height="1371"
     inkscape:window-x="0"
     inkscape:window-y="0"
     inkscape:window-maximized="1"
     inkscape:current-layer="svg3" />
  <path
     fill-rule="evenodd"
     clip-rule="evenodd"
     d="M0.110935 18.3147L0.109118 18.273C0.107315 18.231 0.10472 18.1691 0.101518 18.0891C0.0951135 17.929 0.0862738 17.6959 0.0764608 17.4023C0.0568387 16.8153 0.0333028 15.9858 0.0175754 15.0141C-0.0138174 13.0745 -0.0143914 10.5525 0.111568 8.25737C0.130506 7.91229 0.120241 7.47667 0.102888 6.95637C0.100692 6.89054 0.0983917 6.82353 0.0960563 6.7555C0.0805235 6.30305 0.0634619 5.80607 0.0656997 5.31904C0.0682702 4.75961 0.0959259 4.17246 0.190427 3.62968C0.282788 3.09919 0.453406 2.52155 0.803727 2.04817C1.43924 1.18941 2.43562 0.764159 3.31627 0.528751C4.21621 0.288189 5.1737 0.201012 5.89799 0.143013C8.58075 -0.0718106 11.3845 0.000442766 14.126 0.0710904C15.4671 0.105649 16.7932 0.139823 18.0829 0.139823C18.4172 0.139823 18.7668 0.133167 19.1271 0.126305C20.5367 0.0994658 22.1112 0.0694857 23.5807 0.422494C25.2165 0.815457 26.027 2.0615 26.4249 3.31648C26.812 4.53751 26.8718 5.94651 26.9162 7.00327C27.042 9.99402 27.0001 12.9812 26.9584 15.9476C26.9377 17.4196 26.9171 18.8864 26.9171 20.346C26.9171 20.377 26.9171 20.4082 26.9171 20.4395C26.9174 21.7411 26.9178 23.2822 26.414 24.4893C26.1388 25.1488 25.701 25.7494 25.0185 26.1725C24.3455 26.5896 23.5192 26.7817 22.5525 26.7817C21.9466 26.7817 21.3703 26.8313 20.7491 26.8847C20.5247 26.904 20.2944 26.9238 20.0548 26.942C19.1825 27.0081 18.2375 27.0456 17.235 26.8908C16.4904 26.7758 15.7545 26.7781 14.9166 26.7808C14.7869 26.7813 14.6547 26.7817 14.5197 26.7817C13.5355 26.7817 12.5599 26.7192 11.6236 26.6593L11.6167 26.6589C10.6676 26.5981 9.75903 26.5401 8.85821 26.5401H5.75434C5.6959 26.5401 5.62434 26.5408 5.54194 26.5417C5.10123 26.5461 4.35033 26.5538 3.63716 26.4702C3.21138 26.4202 2.74037 26.3324 2.31654 26.1653C1.90735 26.004 1.40588 25.7147 1.12077 25.1753C0.590212 24.1716 0.352978 22.8635 0.235589 21.6644C0.116804 20.4511 0.111021 19.2255 0.110935 18.3147Z"
     fill="#4556EB"
     id="path1"
     style="fill:#34af42;fill-opacity:1" />
  <path
     fill-rule="evenodd"
     clip-rule="evenodd"
     d="M14.2335 21.7098C13.6824 21.6742 13.2644 21.1986 13.3 20.6475C13.3036 20.5915 13.3074 20.5317 13.3115 20.4681C13.481 17.8428 14.0588 8.89187 14.0588 6.63578C14.0588 6.08349 14.5065 5.63578 15.0588 5.63578C15.6111 5.63578 16.0588 6.08349 16.0588 6.63578C16.0588 8.96072 15.4804 17.9171 15.3101 20.555C15.305 20.6346 15.3002 20.7085 15.2958 20.7763C15.2603 21.3274 14.7846 21.7454 14.2335 21.7098Z"
     fill="#F3F4F6"
     id="path2" />
  <path
     fill-rule="evenodd"
     clip-rule="evenodd"
     d="M8.06633 12.2806C7.67581 11.8901 7.67581 11.257 8.06633 10.8664C8.94982 9.98294 9.54503 9.45254 10.1138 8.95919C10.2017 8.8829 10.2885 8.80794 10.3753 8.73301C10.8442 8.32802 11.3119 7.92411 11.9535 7.31812C11.9683 7.30417 11.9877 7.28572 12.0111 7.26335C12.2015 7.08207 12.6621 6.64334 13.1378 6.25303C13.4013 6.0368 13.7042 5.80631 13.9912 5.63905C14.132 5.557 14.3096 5.4659 14.5036 5.40815C14.6648 5.36017 15.0357 5.27364 15.4263 5.45866C16.0321 5.74563 16.4494 6.15441 16.7725 6.50279C16.8647 6.60218 16.9462 6.69268 17.0218 6.77649C17.2336 7.01148 17.3979 7.19384 17.6155 7.3719C18.107 7.77401 18.9241 8.66475 19.6552 9.48566C20.0817 9.9646 20.4772 10.4177 20.8129 10.8024C21.0974 11.1284 21.339 11.4052 21.5203 11.607C21.8894 12.0178 21.8556 12.6501 21.4448 13.0192C21.034 13.3883 20.4018 13.3545 20.0326 12.9437C19.8657 12.758 19.6054 12.4601 19.3035 12.1144C18.9521 11.7123 18.5443 11.2455 18.1616 10.8158C17.3931 9.95294 16.6913 9.19984 16.3491 8.91981C16.0016 8.63552 15.7005 8.30031 15.4698 8.04333C15.4104 7.97722 15.3557 7.91629 15.306 7.86274C15.1461 7.69029 15.0077 7.55565 14.8682 7.44924C14.738 7.53683 14.5807 7.65615 14.4065 7.79915C13.9939 8.13772 13.5909 8.52103 13.3937 8.70856C13.3677 8.73337 13.3452 8.75475 13.3268 8.77215C12.6507 9.41062 12.1494 9.84352 11.6784 10.2502C11.593 10.324 11.5086 10.3969 11.4243 10.47C10.8807 10.9415 10.322 11.4392 9.48054 12.2806C9.09002 12.6712 8.45685 12.6712 8.06633 12.2806Z"
     fill="#F3F4F6"
     id="path3" />
</svg>
