<svg width="26" height="26" viewBox="0 0 26 26" fill="none" xmlns="http://www.w3.org/2000/svg">
<path d="M14.9954 1.00157L15.0487 0.675048L14.9954 1.00157ZM14.9954 1.00157L15.0823 0.684947L14.9954 1.00159L14.9954 1.00157ZM19.8113 3.69057L19.5969 4.1423L19.8113 3.69057C19.5541 3.56853 19.2988 3.4474 19.0397 3.32009C18.4021 3.00684 17.8008 2.68359 17.32 2.3144L17.0155 2.71099L17.32 2.3144C17.1881 2.21317 17.0106 2.13558 16.8376 2.07307C16.6529 2.00629 16.4266 1.94061 16.1662 1.87729C15.9444 1.82334 15.7202 1.77572 15.5097 1.73103L15.5064 1.73032L15.5063 1.73031L15.4616 1.72082C15.4616 1.72081 15.4616 1.72081 15.4616 1.72081C15.254 1.67669 15.058 1.63462 14.8981 1.5922L14.8745 1.58594L14.8504 1.582L12.9721 1.27554L12.9561 1.27294L12.9401 1.27137C12.5447 1.23286 12.1463 1.17826 11.7524 1.12421L11.7517 1.12412C11.666 1.11236 11.5805 1.10063 11.4959 1.08919C11.0108 1.02362 10.5321 0.964285 10.0583 0.940076C9.11112 0.891691 8.19427 0.984494 7.31039 1.44126C5.98865 2.12431 4.5557 3.5759 3.72824 4.79047C2.22987 6.9898 1.58822 9.06531 1.05825 11.8628C0.249684 16.1308 1.99997 21.1839 6.34756 22.8908C8.22583 23.6283 10.4486 24.4333 12.6982 24.8271C14.9492 25.2211 17.21 25.2002 19.1709 24.304C22.1612 22.9374 23.9563 19.9197 24.7127 16.5621C25.4699 13.2007 25.1777 9.53071 24.0208 6.9064C23.5108 5.74952 22.3446 4.96382 21.02 4.28088C20.6116 4.07032 20.2109 3.88018 19.8148 3.69225L19.8113 3.69057ZM15.5267 1.29911L15.6304 0.811068L15.5267 1.29911L15.5748 1.30932C15.7851 1.35396 16.0143 1.40266 16.2404 1.45765C16.716 1.57332 17.2213 1.72598 17.5218 1.95676C17.9721 2.30245 18.5462 2.61296 19.1815 2.92505C19.4114 3.03798 19.6586 3.15545 19.9097 3.27474L19.9117 3.27569C20.3313 3.47502 20.763 3.68012 21.1678 3.88884C22.4872 4.56909 23.7728 5.4056 24.3489 6.71257C25.5524 9.44256 25.846 13.2213 25.0693 16.6693C24.2916 20.1216 22.4326 23.2734 19.3041 24.7031C17.2587 25.6379 14.9257 25.6503 12.6443 25.2509C10.3614 24.8513 8.11322 24.036 6.23127 23.2971C1.67522 21.5083 -0.14341 16.2146 0.698282 11.7717C1.2348 8.93972 1.89327 6.79506 3.43945 4.52555C4.29457 3.27039 5.77294 1.76738 7.16234 1.04937C8.11822 0.555392 9.09797 0.462042 10.0741 0.51191C10.5619 0.536829 11.0516 0.59773 11.5377 0.663436C11.6271 0.675522 11.7157 0.687669 11.8041 0.69979L11.8092 0.700493C12.2039 0.754612 12.596 0.808369 12.9909 0.84627L12.9961 0.846764L14.942 1.16426L14.9502 1.1665C15.1036 1.20855 15.302 1.25136 15.5267 1.29911Z" fill="#4556EB" stroke="#4556EB" stroke-linecap="round"/>
</svg>
