<svg width="21" height="21" viewBox="0 0 21 21" fill="none" xmlns="http://www.w3.org/2000/svg">
<path fill-rule="evenodd" clip-rule="evenodd" d="M9.79734 12.16C9.21654 12.7849 8.63045 13.4155 8.06022 13.9857L2.61401 19.4319C2.29075 19.7552 1.76664 19.7552 1.44339 19.4319C1.12013 19.1087 1.12013 18.5846 1.44339 18.2613L6.8896 12.8151C7.4477 12.257 7.98754 11.6757 8.54535 11.075C8.92225 10.6691 9.30737 10.2544 9.71186 9.83209C10.688 8.8129 11.7303 7.8015 12.8659 6.98667C14.5901 5.74947 15.9631 4.31996 17.4267 2.79609C17.926 2.27623 18.4358 1.74539 18.9737 1.20745C19.297 0.884196 19.8211 0.884196 20.1444 1.20745C20.4676 1.53071 20.4676 2.05481 20.1444 2.37807C19.6589 2.86352 19.1809 3.36142 18.7 3.86241C17.2093 5.41521 15.6901 6.99775 13.831 8.33173C12.8218 9.05588 11.8637 9.97871 10.9075 10.9772C10.5434 11.3573 10.1715 11.7575 9.79734 12.16Z" fill="#34AF42"/>
<path fill-rule="evenodd" clip-rule="evenodd" d="M19.8817 19.6461C19.5584 19.9694 19.0343 19.9694 18.7111 19.6461L13.2649 14.1999C11.397 12.3321 9.63709 10.5721 7.52233 8.3255C6.23679 7.10572 5.27065 6.05195 4.37659 5.05513C4.24717 4.91084 4.11957 4.76809 3.99294 4.62643C3.23851 3.78247 2.51879 2.97735 1.65723 2.11579C1.33398 1.79253 1.33398 1.26843 1.65723 0.94517C1.98049 0.621913 2.50459 0.621913 2.82785 0.945171C3.7247 1.84202 4.47759 2.68437 5.23146 3.52784C5.35706 3.66836 5.48268 3.80891 5.60901 3.94976C6.49598 4.93868 7.43222 5.95904 8.67843 7.14031L8.69558 7.15657L8.71178 7.17378C10.8146 9.40826 12.5626 11.1564 14.4355 13.0293L19.8817 18.4755C20.205 18.7988 20.205 19.3229 19.8817 19.6461Z" fill="#34AF42"/>
</svg>
