<svg width="77" height="79" viewBox="0 0 77 79" fill="none" xmlns="http://www.w3.org/2000/svg">
<g clip-path="url(#clip0_115_2382)">
<path d="M72.7168 37.3252C72.7168 38.142 73.3977 38.5051 75.0463 39.1222C75.8527 39.4308 76.4978 39.7757 76.9996 40.1751V36.6172C76.4799 36.3813 75.6556 36.0908 74.5446 36.0908C73.3081 36.0908 72.7168 36.6717 72.7168 37.3252Z" fill="black"/>
<path d="M62.2703 36C60.335 36 59.2061 37.8515 59.2061 40.3202C59.2061 42.8252 60.3708 44.586 62.2703 44.586C64.1877 44.586 65.2987 42.7345 65.2987 40.2658C65.2808 37.9604 64.2235 36 62.2703 36Z" fill="black"/>
<path d="M73.2369 46.8551C71.8034 46.8551 70.3877 46.4557 69.6709 46.0564L70.2444 43.6966C70.997 44.096 72.1797 44.4953 73.3982 44.4953C74.7063 44.4953 75.3872 43.9507 75.3872 43.1157C75.3872 42.317 74.7959 41.8632 73.2727 41.3368C71.1762 40.5744 69.7964 39.4127 69.7964 37.5612C69.7964 35.3829 71.6062 33.7492 74.545 33.7492C75.5306 33.7492 76.3191 33.8944 76.9642 34.0941V0.857422H0V78.8574H77V45.7297C76.1578 46.4194 74.9213 46.8551 73.2369 46.8551ZM23.6179 30.9175L24.5497 32.0974H24.5855L25.5173 30.9356H27.4885L25.6249 33.2409H23.4924L21.6109 30.9175H23.6179ZM25.4636 44.4772C26.3416 44.4772 27.2734 44.3138 27.8469 44.0597L28.259 46.3287C27.7573 46.5828 26.5567 46.8732 25.0514 46.8732C20.7149 46.8732 18.475 44.1141 18.475 40.4837C18.475 36.1453 21.5392 33.7311 25.3381 33.7311C26.8075 33.7311 27.9365 34.0215 28.4382 34.2938L27.8469 36.5628C27.2914 36.3268 26.485 36.0908 25.4636 36.0908C23.2236 36.0908 21.4675 37.4704 21.4675 40.3022C21.4496 42.8798 22.9549 44.4772 25.4636 44.4772ZM40.9818 46.6736L40.7847 41.7906C40.731 40.2658 40.6772 38.4143 40.6772 36.5628H40.6414C40.2292 38.1783 39.7096 39.9936 39.2257 41.5002L37.7026 46.4739H35.4806L34.1366 41.5546C33.7245 40.048 33.3123 38.2328 32.9898 36.5628H32.9539C32.9002 38.2873 32.8285 40.2477 32.7568 41.8269L32.5059 46.6554H29.8718L30.6781 33.9307H34.4592L35.6956 38.1783C36.1077 39.6487 36.4841 41.2461 36.7528 42.7345H36.8245C37.165 41.2642 37.5951 39.5761 38.0251 38.1602L39.3512 33.9307H43.0784L43.7414 46.6736H40.9818ZM52.9162 46.6736L49.8161 41.1735L48.7589 42.5167V46.6736H45.9455V33.9489H48.7589V39.5761H48.7947C49.0814 39.086 49.3682 38.6321 49.6728 38.1783L52.5041 33.9489H56.0163L51.859 39.3764L56.2313 46.6917L52.9162 46.6736ZM62.1089 46.8732C58.3996 46.8732 56.1955 44.0233 56.1955 40.3748C56.1955 36.5628 58.6146 33.7129 62.306 33.7129C66.1587 33.7129 68.2732 36.6354 68.2732 40.1751C68.2911 44.3682 65.8003 46.8732 62.1089 46.8732Z" fill="black"/>
</g>
<defs>
<clipPath id="clip0_115_2382">
<rect width="77" height="78" fill="white" transform="translate(0 0.857422)"/>
</clipPath>
</defs>
</svg>
