<svg width="87" height="39" viewBox="0 0 87 39" fill="none" xmlns="http://www.w3.org/2000/svg">
<path d="M42.1067 3.18721C42.8309 2.78489 43.0918 1.87169 42.6895 1.14751C42.2872 0.423337 41.374 0.162421 40.6498 0.564741L42.1067 3.18721ZM0.502648 32.3365C0.475116 33.1645 1.124 33.858 1.95197 33.8855L15.4445 34.3342C16.2725 34.3617 16.966 33.7128 16.9935 32.8848C17.0211 32.0569 16.3722 31.3634 15.5442 31.3358L3.55084 30.937L3.94965 18.9436C3.97718 18.1157 3.3283 17.4222 2.50033 17.3946C1.67236 17.3671 0.97884 18.016 0.951308 18.8439L0.502648 32.3365ZM40.6498 0.564741C39.6365 1.12768 36.8527 3.15114 33.3296 5.79848C29.7505 8.48789 25.2817 11.9192 20.8126 15.394C11.9137 22.3131 2.89606 29.4955 0.976995 31.291L3.02664 33.4817C4.81837 31.8053 13.6912 24.7312 22.654 17.7624C27.1157 14.2933 31.5705 10.8729 35.1318 8.19683C38.7491 5.47871 41.3223 3.623 42.1067 3.18721L40.6498 0.564741Z" fill="#4556EB"/>
<path d="M85.0198 37.8822C85.8467 37.8324 86.4767 37.1217 86.4269 36.2947L85.615 22.8192C85.5651 21.9922 84.8544 21.3623 84.0275 21.4121C83.2005 21.4619 82.5706 22.1727 82.6204 22.9996L83.3421 34.9779L71.3638 35.6996C70.5369 35.7494 69.9069 36.4602 69.9568 37.2871C70.0066 38.114 70.7173 38.744 71.5442 38.6942L85.0198 37.8822ZM62.6764 18.1304L63.6591 16.9971L62.6764 18.1304ZM42.5503 0.945486C41.9669 0.357313 41.0172 0.353435 40.429 0.936825C39.8409 1.52021 39.837 2.46995 40.4204 3.05813L42.5503 0.945486ZM85.9245 35.2624C82.8884 32.5714 79.0935 29.544 75.1901 26.4334C71.2719 23.311 67.2348 20.0975 63.6591 16.9971L61.6938 19.2637C65.3256 22.4128 69.4144 25.6669 73.3205 28.7795C77.2414 31.904 80.9693 34.8791 83.9346 37.5075L85.9245 35.2624ZM63.6591 16.9971C59.6545 13.5248 55.1579 10.3191 51.2797 7.57762C47.3289 4.78487 44.1504 2.55867 42.5503 0.945486L40.4204 3.05813C42.2565 4.90928 45.7327 7.3304 49.548 10.0274C53.4359 12.7757 57.8167 15.902 61.6938 19.2637L63.6591 16.9971Z" fill="#4556EB"/>
</svg>
