<svg width="27" height="27" viewBox="0 0 27 27" fill="none" xmlns="http://www.w3.org/2000/svg">
<path fill-rule="evenodd" clip-rule="evenodd" d="M15.3163 5.34781C15.8674 5.38337 16.2854 5.85898 16.2498 6.41012C16.2462 6.46607 16.2424 6.52592 16.2383 6.58947C16.0688 9.21485 15.491 18.1657 15.491 20.4218C15.491 20.9741 15.0433 21.4218 14.491 21.4218C13.9387 21.4218 13.491 20.9741 13.491 20.4218C13.491 18.0969 14.0694 9.14052 14.2397 6.5026C14.2449 6.42298 14.2496 6.34911 14.254 6.28136C14.2895 5.73022 14.7652 5.31226 15.3163 5.34781Z" fill="#4556EB"/>
<path fill-rule="evenodd" clip-rule="evenodd" d="M21.4835 14.777C21.874 15.1675 21.874 15.8007 21.4835 16.1912C20.6 17.0747 20.0048 17.6051 19.436 18.0984C19.3481 18.1747 19.2613 18.2497 19.1745 18.3246C18.7056 18.7296 18.2379 19.1335 17.5963 19.7395C17.5815 19.7534 17.5621 19.7719 17.5387 19.7943C17.3483 19.9755 16.8877 20.4143 16.412 20.8046C16.1485 21.0208 15.8457 21.2513 15.5586 21.4186C15.4178 21.5006 15.2402 21.5917 15.0462 21.6495C14.885 21.6974 14.5141 21.784 14.1235 21.599C13.5177 21.312 13.1004 20.9032 12.7773 20.5548C12.6851 20.4554 12.6036 20.3649 12.528 20.2811C12.3163 20.0461 12.1519 19.8638 11.9343 19.6857C11.4428 19.2836 10.6257 18.3929 9.89465 17.572C9.4681 17.093 9.07264 16.6399 8.73689 16.2552C8.45242 15.9292 8.21081 15.6524 8.02948 15.4506C7.66036 15.0398 7.69416 14.4075 8.10497 14.0384C8.51578 13.6693 9.14805 13.7031 9.51717 14.1139C9.68406 14.2996 9.94435 14.5975 10.2463 14.9432C10.5977 15.3453 11.0055 15.8121 11.3882 16.2418C12.1567 17.1047 12.8585 17.8578 13.2007 18.1378C13.5482 18.4221 13.8493 18.7573 14.08 19.0143C14.1394 19.0804 14.1941 19.1413 14.2438 19.1949C14.4037 19.3673 14.5421 19.502 14.6816 19.6084C14.8118 19.5208 14.9691 19.4015 15.1433 19.2585C15.5559 18.9199 15.9589 18.5366 16.1561 18.3491C16.1821 18.3242 16.2046 18.3029 16.223 18.2855C16.8991 17.647 17.4004 17.2141 17.8714 16.8074C17.9568 16.7336 18.0412 16.6607 18.1255 16.5876C18.6691 16.1161 19.2278 15.6185 20.0693 14.777C20.4598 14.3865 21.0929 14.3865 21.4835 14.777Z" fill="#4556EB"/>
<path fill-rule="evenodd" clip-rule="evenodd" d="M13.9272 2.06798C11.2523 1.99815 8.63902 1.92992 6.05764 2.13663C5.33154 2.19477 4.53821 2.27234 3.83276 2.46091C3.10803 2.65464 2.64447 2.92292 2.41138 3.23789C2.3274 3.35138 2.22955 3.57777 2.16079 3.97273C2.09416 4.3554 2.06804 4.81512 2.06568 5.32822C2.06363 5.77325 2.07918 6.2277 2.09477 6.68319C2.09712 6.75201 2.09948 6.82086 2.10178 6.88971C2.11871 7.3975 2.1331 7.91989 2.10856 8.36697C1.98637 10.5934 1.98624 13.0616 2.01731 14.9818C2.03282 15.9399 2.05603 16.7577 2.07534 17.3355C2.085 17.6244 2.09368 17.8531 2.09992 18.0091C2.10304 18.0872 2.10556 18.1471 2.10728 18.1872L2.10925 18.2324L2.10986 18.2463L2.11093 18.2697V18.2925C2.11093 19.2075 2.11691 20.3545 2.22607 21.4696C2.3361 22.5934 2.54169 23.5678 2.87519 24.2143C2.89217 24.2277 2.94129 24.2618 3.05021 24.3048C3.24582 24.3819 3.52481 24.4433 3.87003 24.4838C4.44245 24.5509 5.03575 24.5457 5.48566 24.5417C5.58239 24.5409 5.67249 24.5401 5.75434 24.5401H8.85821C9.82573 24.5401 10.7904 24.6019 11.721 24.6614L11.7445 24.6629C12.693 24.7237 13.6075 24.7817 14.5197 24.7817C14.6421 24.7817 14.7667 24.7812 14.8931 24.7806C15.7204 24.7771 16.628 24.7733 17.5403 24.9142C18.3126 25.0335 19.0748 25.0105 19.9036 24.9477C20.0986 24.933 20.301 24.9155 20.5093 24.8975C21.1537 24.842 21.8529 24.7817 22.5525 24.7817C23.2609 24.7817 23.6929 24.6411 23.9648 24.4725C24.2272 24.3099 24.4211 24.0718 24.5683 23.7191C24.8972 22.931 24.9171 21.7995 24.9171 20.346C24.9171 18.8253 24.9383 17.3283 24.9593 15.8425C25.0007 12.9114 25.0415 10.0244 24.918 7.08729C24.8715 5.98071 24.8112 4.84432 24.5184 3.92087C24.2364 3.03137 23.8074 2.53386 23.1135 2.36717C21.9179 2.07994 20.6815 2.10163 19.3078 2.12573C18.9117 2.13267 18.5042 2.13982 18.0829 2.13982C16.6789 2.13982 15.295 2.10369 13.9272 2.06798ZM0.110935 18.3147L0.109118 18.273C0.107315 18.231 0.10472 18.1691 0.101518 18.0891C0.0951135 17.929 0.0862738 17.6959 0.0764608 17.4023C0.0568387 16.8153 0.0333028 15.9858 0.0175754 15.0141C-0.0138174 13.0745 -0.0143914 10.5525 0.111568 8.25737C0.130506 7.91229 0.120241 7.47667 0.102888 6.95637C0.100692 6.89054 0.0983917 6.82353 0.0960563 6.7555C0.0805235 6.30305 0.0634619 5.80607 0.0656997 5.31904C0.0682702 4.75961 0.0959259 4.17246 0.190427 3.62968C0.282788 3.09919 0.453406 2.52155 0.803727 2.04817C1.43924 1.18941 2.43562 0.764159 3.31627 0.528751C4.21621 0.288189 5.1737 0.201012 5.89799 0.143013C8.58075 -0.0718106 11.3845 0.000442766 14.126 0.0710904C15.4671 0.105649 16.7932 0.139823 18.0829 0.139823C18.4172 0.139823 18.7668 0.133167 19.1271 0.126305C20.5367 0.0994658 22.1112 0.0694857 23.5807 0.422494C25.2165 0.815457 26.027 2.0615 26.4249 3.31648C26.812 4.53751 26.8718 5.94651 26.9162 7.00327C27.042 9.99402 27.0001 12.9812 26.9584 15.9476C26.9377 17.4196 26.9171 18.8864 26.9171 20.346C26.9171 20.377 26.9171 20.4082 26.9171 20.4395C26.9174 21.7411 26.9178 23.2822 26.414 24.4893C26.1388 25.1488 25.701 25.7494 25.0185 26.1725C24.3455 26.5896 23.5192 26.7817 22.5525 26.7817C21.9466 26.7817 21.3703 26.8313 20.7491 26.8847C20.5247 26.904 20.2944 26.9238 20.0548 26.942C19.1825 27.0081 18.2375 27.0456 17.235 26.8908C16.4904 26.7758 15.7545 26.7781 14.9166 26.7808C14.7869 26.7813 14.6547 26.7817 14.5197 26.7817C13.5355 26.7817 12.5599 26.7192 11.6236 26.6593L11.6167 26.6589C10.6676 26.5981 9.75903 26.5401 8.85821 26.5401H5.75434C5.6959 26.5401 5.62434 26.5408 5.54194 26.5417C5.10123 26.5461 4.35033 26.5538 3.63716 26.4702C3.21138 26.4202 2.74037 26.3324 2.31654 26.1653C1.90735 26.004 1.40588 25.7147 1.12077 25.1753C0.590212 24.1716 0.352978 22.8635 0.235589 21.6644C0.116804 20.4511 0.111021 19.2255 0.110935 18.3147Z" fill="#4556EB"/>
</svg>
