<svg width="85" height="46" viewBox="0 0 85 46" fill="none" xmlns="http://www.w3.org/2000/svg">
<path fill-rule="evenodd" clip-rule="evenodd" d="M31.6279 4.13852L31.5496 4.14683L31.4708 4.14683C27.4597 4.14681 23.2908 3.97472 19.1996 3.80437L19.0869 3.79968C15.0803 3.63284 11.1523 3.46927 7.45988 3.46462C6.33659 3.71208 5.56123 3.90733 4.99368 4.12169C4.41972 4.33847 4.20102 4.52416 4.08695 4.6692C3.96924 4.81886 3.83098 5.09336 3.73946 5.74132C3.64589 6.40383 3.62042 7.29721 3.62042 8.59117C3.62042 11.9979 3.50352 15.4016 3.38754 18.7786L3.38675 18.8018C3.27021 22.195 3.15485 25.5617 3.15485 28.9299C3.15485 28.9299 3.15485 28.93 3.15485 28.9299L3.15554 36.0017C3.15565 37.5718 3.39352 39.0126 3.75199 40.0142C3.93315 40.5204 4.11746 40.8362 4.25452 40.9996C4.26574 41.013 4.27584 41.0245 4.28481 41.0342C6.94357 41.1238 9.01004 41.0952 11.2885 41.0636C12.5402 41.0463 13.8558 41.0281 15.3688 41.0281C16.5739 41.0281 17.7653 40.9876 18.9933 40.9459C19.8002 40.9185 20.6228 40.8906 21.4755 40.8733C23.5672 40.8307 25.726 40.8578 27.839 41.1592C34.0389 42.0436 40.9867 42.0741 47.4368 42.0741C50.1594 42.0741 52.4414 42.1305 54.5851 42.1835C58.4931 42.2802 61.9415 42.3655 66.7619 42.0767L66.8064 42.0741H80.0313C80.3942 42.0741 80.5349 41.973 80.6119 41.9003C80.7241 41.7941 80.8612 41.5812 80.9723 41.1847C81.1824 40.4344 81.1788 39.5326 81.1755 38.7039C81.1751 38.6021 81.1747 38.5014 81.1747 38.4022C81.1747 36.1653 81.0607 33.9484 80.944 31.6928L80.9421 31.6573C80.8267 29.4256 80.7092 27.1547 80.7092 24.8623C80.7092 23.2017 80.5539 21.48 80.39 19.6634C80.328 18.9754 80.2647 18.2737 80.2081 17.5566C80.0079 15.0179 79.9009 12.343 80.3728 9.82475C80.6502 8.34466 80.0486 6.69818 78.9322 5.37376C78.3857 4.72539 77.7594 4.21078 77.155 3.87762C76.5373 3.53705 76.0332 3.43394 75.6976 3.46004C71.3968 3.79452 64.423 4.14927 54.2823 3.4611C49.3469 3.12618 43.6907 3.29279 39.2416 3.54738C37.0229 3.67434 35.1159 3.82248 33.7646 3.93878C33.0891 3.99692 32.5529 4.04707 32.1866 4.08258C32.0034 4.10033 31.8627 4.11443 31.7683 4.12403L31.6619 4.13495L31.6279 4.13852ZM39.0715 0.552191C43.5651 0.295051 49.365 0.120507 54.4839 0.467887C64.4519 1.14434 71.2781 0.794709 75.4667 0.468953C76.5601 0.383923 77.6494 0.727423 78.5938 1.24805C79.5516 1.77607 80.4563 2.53722 81.2139 3.43601C82.7058 5.2059 83.8049 7.73933 83.3101 10.3794C82.9163 12.4807 82.9903 14.8176 83.1876 17.3199C83.2378 17.9557 83.2966 18.6075 83.3561 19.2672C83.5242 21.1296 83.698 23.0552 83.698 24.8623C83.698 27.0759 83.812 29.281 83.9288 31.5372C84.0448 33.7806 84.1636 36.0752 84.1636 38.4022C84.1636 38.48 84.1643 38.5683 84.1652 38.6657C84.1719 39.4448 84.1837 40.8039 83.8496 41.9967C83.6547 42.6923 83.3092 43.4711 82.6616 44.0836C81.9788 44.7295 81.0826 45.0741 80.0313 45.0741H66.8954C61.9839 45.3665 58.3415 45.2776 54.356 45.1803C52.229 45.1284 50.0043 45.0741 47.4368 45.0741C41.0208 45.0741 33.862 45.0486 27.4185 44.1294C25.5455 43.8622 23.5766 43.8312 21.536 43.8727C20.7746 43.8882 19.9843 43.9147 19.186 43.9415C17.906 43.9845 16.6052 44.0281 15.3688 44.0281C13.9429 44.0281 12.6618 44.0456 11.4217 44.0626C9.04948 44.0951 6.82715 44.1255 4.02754 44.0272C3.09941 43.9946 2.41281 43.462 1.96809 42.9318C1.52045 42.3981 1.18764 41.7228 0.939153 41.0285C0.438345 39.6291 0.16684 37.8314 0.166709 36.002C0.166709 36.002 0.166709 36.002 0.166709 36.002L0.166016 28.9302C0.166016 25.5025 0.283387 22.0848 0.399608 18.7007L0.399686 18.6984C0.516229 15.305 0.631583 11.9454 0.631583 8.59117C0.631583 7.31054 0.653237 6.21923 0.78022 5.3202C0.909259 4.40661 1.16499 3.54269 1.74103 2.81028C2.32071 2.07324 3.09549 1.63321 3.94109 1.31384C4.76706 1.00188 5.79176 0.758587 6.9812 0.498775L7.13825 0.464471L7.29897 0.464471C11.1005 0.464469 15.137 0.632563 19.1775 0.800826L19.3235 0.806903C23.3989 0.976594 27.4788 1.14457 31.394 1.14676L31.467 1.13926C31.5659 1.12921 31.7112 1.11465 31.8993 1.09642C32.2753 1.05997 32.8222 1.00884 33.5093 0.949702C34.883 0.831465 36.819 0.681091 39.0715 0.552191Z" fill="#34AF42"/>
<path d="M46.9899 11.8075C46.9899 16.7679 46.5854 21.7316 46.5854 26.7125L46.586 31.8949C46.5862 34.3861 45.7755 36.6775 48.6877 36.6775L63.8686 37.444H75.3221C76.6796 37.0154 76.8952 34.9358 76.8952 33.7583C76.8952 30.4135 77.2099 27.0425 77.2099 23.7315C77.2099 20.2603 76.8952 16.7732 76.8952 12.9148C76.7703 8.21141 73.9393 6.78846 71.4559 6.95133C68.9725 7.11421 55.6528 6.18362 51.4852 6.95133C47.3175 7.71904 46.9899 8.03408 46.9899 11.8075Z" fill="#34AF42"/>
<path fill-rule="evenodd" clip-rule="evenodd" d="M55.9518 13.8811C55.9524 13.8806 55.953 13.88 55.9536 13.8795C55.9649 14.0893 55.9735 14.2828 55.9759 14.469C55.9788 14.6946 55.9969 15.015 56.1176 15.329C56.2288 15.6188 56.4157 15.8738 56.6732 16.0603C56.5524 16.1515 56.439 16.2596 56.3364 16.387C55.9464 16.8714 55.8803 17.4287 55.8949 17.8265C55.8961 17.8584 55.8978 17.8903 55.9001 17.9222C55.8994 17.9218 55.8987 17.9215 55.8981 17.9211C55.8958 17.8896 55.8941 17.858 55.893 17.8265C55.8784 17.4287 55.9445 16.8714 56.3345 16.387C56.4371 16.2596 56.5504 16.1515 56.6712 16.0603C56.4137 15.8738 56.2269 15.6188 56.1156 15.329C55.995 15.015 55.9769 14.6946 55.974 14.469C55.9715 14.2833 55.963 14.0903 55.9518 13.8811ZM54.0774 14.7853L53.0095 14.7365C53.0096 14.7365 53.0096 14.7365 53.0096 14.7366L54.0767 14.7854L54.0774 14.7853ZM53.6136 17.7975C53.6135 17.7978 53.6133 17.7981 53.6132 17.7984C53.9337 17.6807 54.2809 17.6176 54.6316 17.6176C54.2811 17.6173 53.9341 17.6801 53.6136 17.7975ZM58.4743 11.864C58.4797 11.7453 58.5039 11.6179 58.5401 11.4812C58.5571 11.4167 58.5743 11.3589 58.5943 11.2916L58.5987 11.2766L58.6021 11.2654C58.6181 11.2118 58.6525 11.0964 58.6734 10.9879C58.6827 10.9391 58.7122 10.7842 58.6972 10.5939C58.6861 10.4537 58.6084 9.81613 57.9497 9.50527C57.4025 9.24701 56.9238 9.46136 56.8457 9.4963L56.8422 9.49787C56.7002 9.56119 56.5938 9.63768 56.5463 9.67283C56.3743 9.80007 56.1448 10.0219 55.9181 10.241L55.9095 10.2493C55.7446 10.4086 55.5451 10.6241 55.3573 10.827L55.3573 10.827L55.2887 10.901C55.0669 11.1404 54.8386 11.3843 54.6095 11.6082C54.3763 11.8362 54.1733 12.0126 54.0083 12.128C53.9664 12.1573 53.9325 12.1782 53.9076 12.1928L51.377 12.077L51.3642 12.0761L51.3273 12.0729C51.2955 12.0699 51.2572 12.0658 51.2104 12.0606L51.1441 12.0531C51.0671 12.0444 50.9748 12.0339 50.8909 12.0257C50.7903 12.0159 50.6377 12.0024 50.4942 12.0042C50.4378 12.0049 50.2833 12.0077 50.1086 12.0531C50.0281 12.074 49.829 12.1315 49.6253 12.2881C49.3829 12.4744 49.1033 12.8368 49.1141 13.3519C49.12 13.6358 49.199 13.8755 49.2565 14.0226C49.3196 14.1836 49.3959 14.33 49.4632 14.4478C49.5939 14.6768 49.7432 14.8879 49.8229 15.0007L49.8274 15.007C50.16 15.4775 50.5375 15.8775 50.8486 16.2073L50.851 16.2098C51.0113 16.3796 51.155 16.532 51.2856 16.6784C51.1205 16.9955 50.9153 17.3283 50.8127 17.4945C50.7183 17.6476 50.6229 17.7913 50.5147 17.9543L50.5147 17.9543L50.42 18.0973C50.2777 18.3127 50.1194 18.5573 49.9687 18.8272L49.9629 18.8377C49.8813 18.9836 49.7386 19.239 49.6728 19.4842C49.6518 19.5625 49.6174 19.7127 49.6234 19.9004C49.6296 20.0939 49.6838 20.423 49.9417 20.7236C50.2074 21.0332 50.5397 21.1395 50.7585 21.171C50.9603 21.2 51.1242 21.1763 51.2015 21.1625C51.3483 21.1364 51.4761 21.0891 51.518 21.0736L51.5224 21.0719C51.5501 21.0617 51.5784 21.0508 51.5995 21.0428L51.5997 21.0427L51.6032 21.0413C51.6272 21.0321 51.6463 21.0248 51.6658 21.0176C51.7437 20.9886 51.7866 20.9768 51.8155 20.9717L51.9391 20.9503C52.6188 20.8327 53.6204 20.6594 54.4783 20.2329C54.5012 20.2215 54.5376 20.209 54.5821 20.203C54.623 20.1976 54.6571 20.1995 54.6802 20.2037C54.9494 20.7117 55.5475 21.4676 56.081 21.9849C56.328 22.2245 56.7261 22.5802 57.1777 22.7505C57.3979 22.8336 57.9292 22.9851 58.4819 22.68C59.0671 22.357 59.2137 21.7853 59.2499 21.4938L59.2561 21.444L59.2584 21.3938C59.2875 20.7576 59.3032 20.2606 59.2317 19.8298C59.1544 19.364 58.9818 19.019 58.8342 18.7242L58.8083 18.6723C58.7178 18.4908 58.6357 18.3054 58.5744 18.1326C59.0175 18.0363 59.5129 17.8726 59.9233 17.7185C60.4532 17.5197 61.1073 17.2373 61.5386 16.9413L61.5627 16.9315L61.6172 16.9097L61.6173 16.9097C61.6933 16.8795 61.8084 16.8337 61.8971 16.7945C61.9566 16.7681 62.0499 16.7252 62.1447 16.6693C62.1917 16.6416 62.2674 16.5943 62.349 16.5269C62.4109 16.4757 62.5846 16.3269 62.7079 16.0733C62.8657 15.7488 62.9304 15.2455 62.6262 14.7813C62.3974 14.4323 62.0784 14.3029 61.9775 14.2649C61.7472 14.1781 61.5264 14.168 61.4485 14.1644C61.2769 14.1566 61.0688 14.1336 60.8148 14.1023L60.6976 14.0878L60.6976 14.0878C60.4884 14.0617 60.2506 14.032 60.0341 14.0138C59.8174 13.9955 59.6262 13.9676 59.3938 13.9338L59.2839 13.9178C59.0649 13.8862 58.8178 13.8524 58.5367 13.8312C58.5292 13.6819 58.5205 13.5326 58.5121 13.3876L58.5121 13.3875L58.512 13.3868C58.5063 13.2878 58.5007 13.1908 58.4956 13.0971C58.4716 12.6536 58.4569 12.2438 58.4743 11.864Z" fill="white"/>
<path fill-rule="evenodd" clip-rule="evenodd" d="M68.9456 13.9423C68.946 13.942 68.9465 13.9418 68.9469 13.9415C68.9156 14.1493 68.885 14.3406 68.8498 14.5234C68.8071 14.745 68.7602 15.0624 68.815 15.3943C68.8655 15.7006 68.9971 15.9881 69.2116 16.2227C69.0749 16.2876 68.9421 16.3706 68.8159 16.4747C68.3362 16.8705 68.159 17.403 68.0931 17.7955C68.0878 17.827 68.0831 17.8586 68.0788 17.8903C68.0785 17.89 68.0781 17.8897 68.0778 17.8894C68.082 17.858 68.0867 17.8267 68.0919 17.7955C68.1578 17.403 68.335 16.8705 68.8148 16.4747C68.9409 16.3706 69.0738 16.2876 69.2105 16.2227C68.9959 15.9881 68.8644 15.7006 68.8138 15.3943C68.759 15.0624 68.806 14.745 68.8486 14.5234C68.8837 14.3408 68.9144 14.1497 68.9456 13.9423ZM67.2579 14.4759C67.1756 14.4759 67.092 14.4711 67.0074 14.4605L66.9277 14.4505L65.8904 14.1869C65.8905 14.187 65.8906 14.1871 65.8906 14.1873L66.9265 14.4505L67.0062 14.4605C67.0912 14.4711 67.1753 14.4759 67.2579 14.4759ZM65.8641 17.3075C65.864 17.3075 65.864 17.3076 65.8639 17.3077C66.0055 17.2864 66.1497 17.2756 66.2948 17.2753C66.1498 17.2755 66.0056 17.2863 65.8641 17.3075ZM71.8223 12.476C71.8516 12.3609 71.901 12.241 71.964 12.1143C71.9937 12.0547 72.0222 12.0015 72.0553 11.9397L72.0627 11.9258L72.0683 11.9155C72.0948 11.8662 72.1518 11.7602 72.1941 11.6581C72.2131 11.6122 72.2733 11.4664 72.2969 11.2771C72.3143 11.1374 72.3669 10.4973 71.7844 10.06C71.3005 9.69661 70.7885 9.80998 70.705 9.82846L70.7012 9.82929C70.5493 9.86265 70.4297 9.91611 70.3761 9.94094C70.182 10.0309 69.9124 10.2018 69.6461 10.3707L69.6361 10.377C69.4425 10.4998 69.2036 10.6707 68.9787 10.8315L68.9787 10.8315L68.8966 10.8902C68.631 11.0799 68.3582 11.2727 68.0886 11.4458C67.8143 11.622 67.5798 11.7538 67.395 11.8336C67.348 11.8539 67.3105 11.8674 67.2833 11.8767L64.828 11.2528L64.8157 11.2493L64.7802 11.2387C64.7497 11.2294 64.7129 11.2176 64.6681 11.2031L64.6047 11.1824C64.5311 11.1583 64.4427 11.1294 64.3623 11.1045C64.2658 11.0745 64.119 11.0305 63.9781 11.0034C63.9227 10.9927 63.7708 10.9642 63.5905 10.9734C63.5075 10.9776 63.3008 10.9939 63.0698 11.1061C62.7948 11.2396 62.4478 11.5382 62.3544 12.0449C62.3029 12.3241 62.3319 12.5748 62.3586 12.7305C62.3879 12.901 62.4331 13.0598 62.4752 13.1887C62.5571 13.4394 62.6607 13.6762 62.7161 13.8028L62.7191 13.8099C62.95 14.3378 63.239 14.8058 63.4772 15.1915L63.4791 15.1945C63.6018 15.3931 63.7117 15.5713 63.8102 15.7411C63.5845 16.0184 63.3163 16.3029 63.1824 16.445C63.059 16.5759 62.9366 16.6974 62.7977 16.8352L62.6761 16.9562C62.4933 17.1385 62.2889 17.3461 62.0868 17.5801L62.079 17.5891C61.9697 17.7156 61.7784 17.9369 61.6645 18.1638C61.6281 18.2362 61.5641 18.3764 61.5321 18.5615C61.4992 18.7523 61.4858 19.0855 61.6778 19.432C61.8755 19.7889 62.1796 19.96 62.3875 20.0349C62.5793 20.1041 62.7446 20.1139 62.8231 20.116C62.9722 20.1201 63.1069 20.0995 63.151 20.0928L63.1557 20.0921C63.1849 20.0876 63.2148 20.0827 63.2371 20.079L63.2373 20.079L63.241 20.0784C63.2663 20.0742 63.2866 20.0709 63.3071 20.0677C63.3892 20.0551 63.4336 20.0521 63.463 20.053L63.5883 20.057C64.2778 20.0789 65.2938 20.1113 66.2201 19.8666C66.2448 19.8601 66.283 19.8552 66.3278 19.8583C66.3689 19.8613 66.4019 19.87 66.4238 19.8787C66.5849 20.4307 67.0182 21.2917 67.4363 21.906C67.6299 22.1905 67.9481 22.6191 68.356 22.8771C68.555 23.0029 69.0448 23.2585 69.6476 23.0712C70.286 22.8728 70.5449 22.3425 70.6392 22.0643L70.6553 22.0168L70.6677 21.9681C70.8245 21.3508 70.9402 20.8672 70.9571 20.4309C70.9753 19.959 70.8758 19.5863 70.7908 19.2678L70.7759 19.2118C70.7239 19.0157 70.6809 18.8176 70.6557 18.6359C71.1091 18.631 71.6273 18.5706 72.0604 18.5025C72.6195 18.4146 73.3172 18.2701 73.7993 18.0672L73.8249 18.0624L73.8826 18.0521L73.8827 18.0521C73.9632 18.0378 74.0852 18.0162 74.18 17.9957C74.2436 17.9819 74.3437 17.9587 74.4478 17.9231C74.4994 17.9054 74.5831 17.8743 74.6766 17.8248C74.7476 17.7872 74.9477 17.6764 75.1196 17.4529C75.3397 17.1669 75.5046 16.687 75.3003 16.171C75.1466 15.7831 74.8603 15.5919 74.7691 15.5344C74.5611 15.4029 74.3469 15.3484 74.2713 15.3292C74.1048 15.2869 73.9056 15.2224 73.6631 15.1406L73.5513 15.1027C73.3517 15.0349 73.1247 14.9579 72.9164 14.8963C72.7078 14.8347 72.5261 14.7688 72.3054 14.6888L72.201 14.651C71.9929 14.5758 71.7576 14.4929 71.4866 14.4154C71.5093 14.2676 71.531 14.1196 71.552 13.9759L71.552 13.9758C71.5664 13.8775 71.5805 13.7811 71.5945 13.6881C71.6604 13.2488 71.7287 12.8445 71.8223 12.476Z" fill="white"/>
<path fill-rule="evenodd" clip-rule="evenodd" d="M72.3692 24.9072C73.0905 25.31 73.3499 26.2234 72.9486 26.9473C71.9372 28.7721 69.7089 30.5764 67.1669 31.6202C64.6088 32.6707 62.3377 32.8825 59.7538 32.4769L59.6669 32.4633L59.5822 32.4395C57.1281 31.7505 55.5738 31.1013 54.3077 30.3089C53.3036 29.6804 52.5031 28.9683 51.6523 28.2114C51.4597 28.04 51.2644 27.8663 51.0637 27.6908C50.4413 27.1467 50.3763 26.1992 50.9184 25.5745C51.4604 24.9498 52.4044 24.8845 53.0268 25.4286C53.2745 25.6452 53.4993 25.8447 53.7082 26.0301C54.537 26.7655 55.1159 27.2792 55.8891 27.7632C56.811 28.3401 58.0477 28.8885 60.3013 29.5261C62.3381 29.834 64.0361 29.6644 66.0352 28.8435C68.1466 27.9765 69.746 26.5547 70.3368 25.4888C70.738 24.7649 71.648 24.5045 72.3692 24.9072Z" fill="#F3F4F6"/>
</svg>
