<?xml version="1.0" encoding="UTF-8" standalone="no"?>
<svg
   width="84.001358"
   height="44.999973"
   viewBox="0 0 84.001358 44.999973"
   fill="none"
   version="1.1"
   id="svg5"
   sodipodi:docname="fun-mode.svg"
   inkscape:version="1.4 (e7c3feb100, 2024-10-09)"
   xmlns:inkscape="http://www.inkscape.org/namespaces/inkscape"
   xmlns:sodipodi="http://sodipodi.sourceforge.net/DTD/sodipodi-0.dtd"
   xmlns="http://www.w3.org/2000/svg"
   xmlns:svg="http://www.w3.org/2000/svg">
  <defs
     id="defs5" />
  <sodipodi:namedview
     id="namedview5"
     pagecolor="#ffffff"
     bordercolor="#cccccc"
     borderopacity="1"
     inkscape:showpageshadow="0"
     inkscape:pageopacity="1"
     inkscape:pagecheckerboard="0"
     inkscape:deskcolor="#d1d1d1"
     inkscape:zoom="12.586957"
     inkscape:cx="37.459413"
     inkscape:cy="11.917098"
     inkscape:window-width="2560"
     inkscape:window-height="1371"
     inkscape:window-x="0"
     inkscape:window-y="0"
     inkscape:window-maximized="1"
     inkscape:current-layer="svg5" />
  <path
     fill-rule="evenodd"
     clip-rule="evenodd"
     d="m 31.461884,3.8650825 -0.0783,0.00831 h -0.0788 c -4.0111,-2e-5 -8.18,-0.17211 -12.2712,-0.34246 l -0.1127,-0.00469 c -4.0066,-0.16684 -7.9346,-0.33041 -11.62702,-0.33506 -1.12329,0.24746 -1.89865,0.44271 -2.4662,0.65707 -0.57396,0.21678 -0.79266,0.40247 -0.90673,0.54751 -0.11771,0.14966 -0.25597,0.42416 -0.34749,1.07212 -0.09357,0.66251 -0.11904,1.55589 -0.11904,2.84985 0,3.4067305 -0.1169,6.8104305 -0.23288,10.1874305 l -7.9e-4,0.0232 c -0.11654,3.3932 -0.2319,6.7599 -0.2319,10.1281 0,0 0,10e-5 0,0 l 6.9e-4,7.0718 c 1.1e-4,1.5701 0.23798,3.0109 0.59645,4.0125 0.18116,0.5062 0.36547,0.822 0.50253,0.9854 0.01122,0.0134 0.02132,0.0249 0.03029,0.0346 2.65876,0.0896 4.72523,0.061 7.00369,0.0294 1.2517,-0.0173 2.5673,-0.0355 4.0803,-0.0355 1.2051,0 2.3965,-0.0405 3.6245,-0.0822 0.8069,-0.0274 1.6295,-0.0553 2.4822,-0.0726 2.0917,-0.0426 4.2505,-0.0155 6.3635,0.2859 6.1999,0.8844 13.1477,0.9149 19.5978,0.9149 2.7226,0 5.0046,0.0564 7.1483,0.1094 3.908,0.0967 7.3564,0.182 12.1768,-0.1068 l 0.0445,-0.0026 h 13.2249 c 0.3629,0 0.5036,-0.1011 0.5806,-0.1738 0.1122,-0.1062 0.2493,-0.3191 0.3604,-0.7156 0.2101,-0.7503 0.2065,-1.6521 0.2032,-2.4808 -4e-4,-0.1018 -8e-4,-0.2025 -8e-4,-0.3017 0,-2.2369 -0.114,-4.4538 -0.2307,-6.7094 l -0.0019,-0.0355 c -0.1154,-2.2317 -0.2329,-4.5026 -0.2329,-6.795 0,-1.6606 -0.1553,-3.3823 -0.3192,-5.1989 -0.062,-0.688 -0.1253,-1.3897 -0.1819,-2.1068 -0.2002,-2.5387 -0.3072,-5.2136 0.1647,-7.7318505 0.2774,-1.48009 -0.3242,-3.12657 -1.4406,-4.45099 -0.5465,-0.64837 -1.1728,-1.16298 -1.7772,-1.49614 -0.6177,-0.34057 -1.1218,-0.44368 -1.4574,-0.41758 -4.3008,0.33448 -11.2746,0.68923 -21.4153,0.00106 -4.9354,-0.33492 -10.5916,-0.16831 -15.0407,0.08628 -2.2187,0.12696 -4.1257,0.2751 -5.477,0.3914 -0.6755,0.05814 -1.2117,0.10829 -1.578,0.1438 -0.1832,0.01775 -0.3239,0.03185 -0.4183,0.04145 l -0.1064,0.01092 z m 7.4436,-3.58632899 c 4.4936,-0.25714 10.2935,-0.431684 15.4124,-0.084304 9.968,0.676453 16.7942,0.326822 20.9828,0.001066 1.0934,-0.08503 2.1827,0.25847 3.1271,0.779097 0.9578,0.52801999 1.8625,1.28916999 2.6201,2.18795999 1.4919,1.76989 2.591,4.30332 2.0962,6.9433905 -0.3938,2.1013 -0.3198,4.4382 -0.1225,6.9405 0.0502,0.6358 0.109,1.2876 0.1685,1.9473 0.1681,1.8624 0.3419,3.788 0.3419,5.5951 0,2.2136 0.114,4.4187 0.2308,6.6749 0.116,2.2434 0.2348,4.538 0.2348,6.865 0,0.0778 7e-4,0.1661 0.0016,0.2635 0.0067,0.7791 0.0185,2.1382 -0.3156,3.331 -0.1949,0.6956 -0.5404,1.4744 -1.188,2.0869 -0.6828,0.6459 -1.579,0.9905 -2.6303,0.9905 h -13.1359 c -4.9115,0.2924 -8.5539,0.2035 -12.5394,0.1062 -2.127,-0.0519 -4.3517,-0.1062 -6.9192,-0.1062 -6.416,0 -13.5748,-0.0255 -20.0183,-0.9447 -1.873,-0.2672 -3.8419,-0.2982 -5.8825,-0.2567 -0.7614,0.0155 -1.5517,0.042 -2.35,0.0688 -1.28,0.043 -2.5808,0.0866 -3.8172,0.0866 -1.4259,0 -2.707,0.0175 -3.9471,0.0345 -2.37222,0.0325 -4.59455,0.0629 -7.39416,-0.0354 -0.92813,-0.0326 -1.61473,-0.5652 -2.05945,-1.0954 -0.44764,-0.5337 -0.78045,-1.209 -1.028937,-1.9033 -0.500808,-1.3994 -0.772313,-3.1971 -0.772444,-5.0265 0,0 0,0 0,0 L 0,28.656763 c 0,-3.4277 0.117371,-6.8454 0.233592,-10.2295 l 7.8e-5,-0.0023 c 0.116543,-3.3934 0.231897,-6.753 0.231897,-10.1072305 0,-1.28063 0.021654,-2.37194 0.148637,-3.27097 0.129039,-0.91359 0.38477,-1.77751 0.96081,-2.50992 0.57968,-0.73704 1.35446,-1.17707 2.20006,-1.49644 0.82597,-0.31195999 1.85067,-0.55525299 3.04011,-0.81506499 l 0.15705,-0.034304 h 0.16072 c 3.80153,-2e-6 7.83803,0.168092 11.87853,0.336355 l 0.146,0.006077 c 4.0754,0.169691 8.1553,0.337667 12.0705,0.339857 l 0.073,-0.0075 c 0.0989,-0.01005 0.2442,-0.02461 0.4323,-0.04284 0.376,-0.03645 0.9229,-0.08758 1.61,-0.146718 1.3737,-0.118237 3.3097,-0.268611 5.5622,-0.397511 z"
     fill="#34af42"
     id="path1" />
  <path
     d="m 46.823884,11.534063 c 0,4.9604 -0.4045,9.9241 -0.4045,14.905 l 6e-4,5.1824 c 2e-4,2.4912 -0.8105,4.7826 2.1017,4.7826 l 15.1809,0.7665 h 11.4535 c 1.3575,-0.4286 1.5731,-2.5082 1.5731,-3.6857 0,-3.3448 0.3147,-6.7158 0.3147,-10.0268 0,-3.4712 -0.3147,-6.9583 -0.3147,-10.8167 -0.1249,-4.7033905 -2.9559,-6.1263405 -5.4393,-5.9634705 -2.4834,0.16288 -15.8031,-0.76771 -19.9707,0 -4.1677,0.76771 -4.4953,1.08275 -4.4953,4.8561705 z"
     fill="#34af42"
     id="path2" />
  <path
     fill-rule="evenodd"
     clip-rule="evenodd"
     d="m 55.785784,13.607663 c 6e-4,-5e-4 0.0012,-0.0011 0.0018,-0.0016 0.0113,0.2098 0.0199,0.4033 0.0223,0.5895 0.0029,0.2256 0.021,0.546 0.1417,0.86 0.1112,0.2898 0.2981,0.5448 0.5556,0.7313 -0.1208,0.0912 -0.2342,0.1993 -0.3368,0.3267 -0.39,0.4844 -0.4561,1.0417 -0.4415,1.4395 0.0012,0.0319 0.0029,0.0638 0.0052,0.0957 -7e-4,-4e-4 -0.0014,-7e-4 -0.002,-0.0011 -0.0023,-0.0315 -0.004,-0.0631 -0.0051,-0.0946 -0.0146,-0.3978 0.0515,-0.9551 0.4415,-1.4395 0.1026,-0.1274 0.2159,-0.2355 0.3367,-0.3267 -0.2575,-0.1865 -0.4443,-0.4415 -0.5556,-0.7313 -0.1206,-0.314 -0.1387,-0.6344 -0.1416,-0.86 -0.0025,-0.1857 -0.011,-0.3787 -0.0222,-0.5879 z m -1.8744,0.9042 -1.0679,-0.0488 c 1e-4,0 1e-4,0 1e-4,10e-5 l 1.0671,0.0488 z m -0.4638,3.0122 c -10e-5,3e-4 -3e-4,6e-4 -4e-4,9e-4 0.3205,-0.1177 0.6677,-0.1808 1.0184,-0.1808 -0.3505,-3e-4 -0.6975,0.0625 -1.018,0.1799 z m 4.8607,-5.9335 c 0.0054,-0.1187 0.0296,-0.2461 0.0658,-0.3828 0.017,-0.0645 0.0342,-0.1223 0.0542,-0.1896 l 0.0044,-0.015 0.0034,-0.0112 c 0.016,-0.0536 0.0504,-0.169 0.0713,-0.2775 0.0093,-0.0488 0.0388,-0.2037 0.0238,-0.394 -0.0111,-0.1402 -0.0888,-0.7777705 -0.7475,-1.0886305 -0.5472,-0.25826 -1.0259,-0.04391 -1.104,-0.00897 l -0.0035,0.00157 c -0.142,0.06332 -0.2484,0.13981 -0.2959,0.17496 -0.172,0.12724 -0.4015,0.34907 -0.6282,0.56817 l -0.0086,0.0083 c -0.1649,0.1593005 -0.3644,0.3748005 -0.5522,0.5777005 v 0 l -0.0686,0.074 c -0.2218,0.2394 -0.4501,0.4833 -0.6792,0.7072 -0.2332,0.228 -0.4362,0.4044 -0.6012,0.5198 -0.0419,0.0293 -0.0758,0.0502 -0.1007,0.0648 l -2.5306,-0.1158 -0.0128,-9e-4 -0.0369,-0.0032 c -0.0318,-0.003 -0.0701,-0.0071 -0.1169,-0.0123 l -0.0663,-0.0075 c -0.077,-0.0087 -0.1693,-0.0192 -0.2532,-0.0274 -0.1006,-0.0098 -0.2532,-0.0233 -0.3967,-0.0215 -0.0564,7e-4 -0.2109,0.0035 -0.3856,0.0489 -0.0805,0.0209 -0.2796,0.0784 -0.4833,0.235 -0.2424,0.1863 -0.522,0.5487 -0.5112,1.0638 0.0059,0.2839 0.0849,0.5236 0.1424,0.6707 0.0631,0.161 0.1394,0.3074 0.2067,0.4252 0.1307,0.229 0.28,0.4401 0.3597,0.5529 l 0.0045,0.0063 c 0.3326,0.4705 0.7101,0.8705 1.0212,1.2003 l 0.0024,0.0025 c 0.1603,0.1698 0.304,0.3222 0.4346,0.4686 -0.1651,0.3171 -0.3703,0.6499 -0.4729,0.8161 -0.0944,0.1531 -0.1898,0.2968 -0.298,0.4598 v 0 l -0.0947,0.143 c -0.1423,0.2154 -0.3006,0.46 -0.4513,0.7299 l -0.0058,0.0105 c -0.0816,0.1459 -0.2243,0.4013 -0.2901,0.6465 -0.021,0.0783 -0.0554,0.2285 -0.0494,0.4162 0.0062,0.1935 0.0604,0.5226 0.3183,0.8232 0.2657,0.3096 0.598,0.4159 0.8168,0.4474 0.2018,0.029 0.3657,0.0053 0.443,-0.0085 0.1468,-0.0261 0.2746,-0.0734 0.3165,-0.0889 l 0.0044,-0.0017 c 0.0277,-0.0102 0.056,-0.0211 0.0771,-0.0291 l 2e-4,-10e-5 0.0035,-0.0014 c 0.024,-0.0092 0.0431,-0.0165 0.0626,-0.0237 0.0779,-0.029 0.1208,-0.0408 0.1497,-0.0459 l 0.1236,-0.0214 c 0.6797,-0.1176 1.6813,-0.2909 2.5392,-0.7174 0.0229,-0.0114 0.0593,-0.0239 0.1038,-0.0299 0.0409,-0.0054 0.075,-0.0035 0.0981,7e-4 0.2692,0.508 0.8673,1.2639 1.4008,1.7812 0.247,0.2396 0.6451,0.5953 1.0967,0.7656 0.2202,0.0831 0.7515,0.2346 1.3042,-0.0705 0.5852,-0.323 0.7318,-0.8947 0.768,-1.1862 l 0.0062,-0.0498 0.0023,-0.0502 c 0.0291,-0.6362 0.0448,-1.1332 -0.0267,-1.564 -0.0773,-0.4658 -0.2499,-0.8108 -0.3975,-1.1056 l -0.0259,-0.0519 c -0.0905,-0.1815 -0.1726,-0.3669 -0.2339,-0.5397 0.4431,-0.0963 0.9385,-0.26 1.3489,-0.4141 0.5299,-0.1988 1.184,-0.4812 1.6153,-0.7772 l 0.0241,-0.0098 0.0545,-0.0218 h 1e-4 c 0.076,-0.0302 0.1911,-0.076 0.2798,-0.1152 0.0595,-0.0264 0.1528,-0.0693 0.2476,-0.1252 0.047,-0.0277 0.1227,-0.075 0.2043,-0.1424 0.0619,-0.0512 0.2356,-0.2 0.3589,-0.4536 0.1578,-0.3245 0.2225,-0.8278 -0.0817,-1.292 -0.2288,-0.349 -0.5478,-0.4784 -0.6487,-0.5164 -0.2303,-0.0868 -0.4511,-0.0969 -0.529,-0.1005 -0.1716,-0.0078 -0.3797,-0.0308 -0.6337,-0.0621 l -0.1172,-0.0145 v 0 c -0.2092,-0.0261 -0.447,-0.0558 -0.6635,-0.074 -0.2167,-0.0183 -0.4079,-0.0462 -0.6403,-0.08 l -0.1099,-0.016 c -0.219,-0.0316 -0.4661,-0.0654 -0.7472,-0.0866 -0.0075,-0.1493 -0.0162,-0.2986 -0.0246,-0.4436 v -10e-5 l -10e-5,-7e-4 c -0.0057,-0.099 -0.0113,-0.196 -0.0164,-0.2897 -0.024,-0.4435 -0.0387,-0.8533 -0.0213,-1.2331 z"
     fill="#ffffff"
     id="path3" />
  <path
     fill-rule="evenodd"
     clip-rule="evenodd"
     d="m 68.779584,13.668863 c 4e-4,-3e-4 9e-4,-5e-4 0.0013,-8e-4 -0.0313,0.2078 -0.0619,0.3991 -0.0971,0.5819 -0.0427,0.2216 -0.0896,0.539 -0.0348,0.8709 0.0505,0.3063 0.1821,0.5938 0.3966,0.8284 -0.1367,0.0649 -0.2695,0.1479 -0.3957,0.252 -0.4797,0.3958 -0.6569,0.9283 -0.7228,1.3208 -0.0053,0.0315 -0.01,0.0631 -0.0143,0.0948 -3e-4,-3e-4 -7e-4,-6e-4 -0.001,-9e-4 0.0042,-0.0314 0.0089,-0.0627 0.0141,-0.0939 0.0659,-0.3925 0.2431,-0.925 0.7229,-1.3208 0.1261,-0.1041 0.259,-0.1871 0.3957,-0.252 -0.2146,-0.2346 -0.3461,-0.5221 -0.3967,-0.8284 -0.0548,-0.3319 -0.0078,-0.6493 0.0348,-0.8709 0.0351,-0.1826 0.0658,-0.3737 0.097,-0.5811 z m -1.6877,0.5336 c -0.0823,0 -0.1659,-0.0048 -0.2505,-0.0154 l -0.0797,-0.01 -1.0373,-0.2636 c 1e-4,10e-5 2e-4,2e-4 2e-4,4e-4 l 1.0359,0.2632 0.0797,0.01 c 0.085,0.0106 0.1691,0.0154 0.2517,0.0154 z m -1.3938,2.8316 c -10e-5,0 -10e-5,10e-5 -2e-4,2e-4 0.1416,-0.0213 0.2858,-0.0321 0.4309,-0.0324 -0.145,2e-4 -0.2892,0.011 -0.4307,0.0322 z m 5.9582,-4.8315 c 0.0293,-0.1151 0.0787,-0.235 0.1417,-0.3617 0.0297,-0.0596 0.0582,-0.1128 0.0913,-0.1746 l 0.0074,-0.0139 0.0056,-0.0103 c 0.0265,-0.0493 0.0835,-0.1553 0.1258,-0.2574 0.019,-0.0459 0.0792,-0.1917 0.1028,-0.381 0.0174,-0.1397 0.07,-0.7798 -0.5125,-1.2171005 -0.4839,-0.36339 -0.9959,-0.25002 -1.0794,-0.23154 l -0.0038,8.3e-4 c -0.1519,0.03336 -0.2715,0.08682 -0.3251,0.11165 -0.1941,0.08996 -0.4637,0.26086 -0.73,0.4297605 l -0.01,0.0063 c -0.1936,0.1228 -0.4325,0.2937 -0.6574,0.4545 v 0 l -0.0821,0.0587 c -0.2656,0.1897 -0.5384,0.3825 -0.808,0.5556 -0.2743,0.1762 -0.5088,0.308 -0.6936,0.3878 -0.047,0.0203 -0.0845,0.0338 -0.1117,0.0431 l -2.4553,-0.6239 -0.0123,-0.0035 -0.0355,-0.0106 c -0.0305,-0.0093 -0.0673,-0.0211 -0.1121,-0.0356 l -0.0634,-0.0207 c -0.0736,-0.0241 -0.162,-0.053 -0.2424,-0.0779 -0.0965,-0.03 -0.2433,-0.074 -0.3842,-0.1011 -0.0554,-0.0107 -0.2073,-0.0392 -0.3876,-0.03 -0.083,0.0042 -0.2897,0.0205 -0.5207,0.1327 -0.275,0.1335 -0.622,0.4321 -0.7154,0.9388 -0.0515,0.2792 -0.0225,0.5299 0.0042,0.6856 0.0293,0.1705 0.0745,0.3293 0.1166,0.4582 0.0819,0.2507 0.1855,0.4875 0.2409,0.6141 l 0.003,0.0071 c 0.2309,0.5279 0.5199,0.9959 0.7581,1.3816 l 0.0019,0.003 c 0.1227,0.1986 0.2326,0.3768 0.3311,0.5466 -0.2257,0.2773 -0.4939,0.5618 -0.6278,0.7039 -0.1234,0.1309 -0.2458,0.2524 -0.3847,0.3902 l -0.1216,0.121 c -0.1828,0.1823 -0.3872,0.3899 -0.5893,0.6239 l -0.0078,0.009 c -0.1093,0.1265 -0.3006,0.3478 -0.4145,0.5747 -0.0364,0.0724 -0.1004,0.2126 -0.1324,0.3977 -0.0329,0.1908 -0.0463,0.524 0.1457,0.8705 0.1977,0.3569 0.5018,0.528 0.7097,0.6029 0.1918,0.0692 0.3571,0.079 0.4356,0.0811 0.1491,0.0041 0.2838,-0.0165 0.3279,-0.0232 l 0.0047,-7e-4 c 0.0292,-0.0045 0.0591,-0.0094 0.0814,-0.0131 h 2e-4 l 0.0037,-6e-4 c 0.0253,-0.0042 0.0456,-0.0075 0.0661,-0.0107 0.0821,-0.0126 0.1265,-0.0156 0.1559,-0.0147 l 0.1253,0.004 c 0.6895,0.0219 1.7055,0.0543 2.6318,-0.1904 0.0247,-0.0065 0.0629,-0.0114 0.1077,-0.0083 0.0411,0.003 0.0741,0.0117 0.096,0.0204 0.1611,0.552 0.5944,1.413 1.0125,2.0273 0.1936,0.2845 0.5118,0.7131 0.9197,0.9711 0.199,0.1258 0.6888,0.3814 1.2916,0.1941 0.6384,-0.1984 0.8973,-0.7287 0.9916,-1.0069 l 0.0161,-0.0475 0.0124,-0.0487 c 0.1568,-0.6173 0.2725,-1.1009 0.2894,-1.5372 0.0182,-0.4719 -0.0813,-0.8446 -0.1663,-1.1631 l -0.0149,-0.056 c -0.052,-0.1961 -0.095,-0.3942 -0.1202,-0.5759 0.4534,-0.0049 0.9716,-0.0653 1.4047,-0.1334 0.5591,-0.0879 1.2568,-0.2324 1.7389,-0.4353 l 0.0256,-0.0048 0.0577,-0.0103 h 1e-4 c 0.0805,-0.0143 0.2025,-0.0359 0.2973,-0.0564 0.0636,-0.0138 0.1637,-0.037 0.2678,-0.0726 0.0516,-0.0177 0.1353,-0.0488 0.2288,-0.0983 0.071,-0.0376 0.2711,-0.1484 0.443,-0.3719 0.2201,-0.286 0.385,-0.7659 0.1807,-1.2819 -0.1537,-0.3879 -0.44,-0.5791 -0.5312,-0.6366 -0.208,-0.1315 -0.4222,-0.186 -0.4978,-0.2052 -0.1665,-0.0423 -0.3657,-0.1068 -0.6082,-0.1886 l -0.1118,-0.0379 c -0.1996,-0.0678 -0.4266,-0.1448 -0.6349,-0.2064 -0.2086,-0.0616 -0.3903,-0.1275 -0.611,-0.2075 l -0.1044,-0.0378 c -0.2081,-0.0752 -0.4434,-0.1581 -0.7144,-0.2356 0.0227,-0.1478 0.0444,-0.2958 0.0654,-0.4395 v -10e-5 c 0.0144,-0.0983 0.0285,-0.1947 0.0425,-0.2877 0.0659,-0.4393 0.1342,-0.8436 0.2278,-1.2121 z"
     fill="#ffffff"
     id="path4" />
  <path
     fill-rule="evenodd"
     clip-rule="evenodd"
     d="m 72.203184,24.633763 c 0.7213,0.4028 0.9807,1.3162 0.5794,2.0401 -1.0114,1.8248 -3.2397,3.6291 -5.7817,4.6729 -2.5581,1.0505 -4.8292,1.2623 -7.4131,0.8567 l -0.0869,-0.0136 -0.0847,-0.0238 c -2.4541,-0.689 -4.0084,-1.3382 -5.2745,-2.1306 -1.0041,-0.6285 -1.8046,-1.3406 -2.6554,-2.0975 -0.1926,-0.1714 -0.3879,-0.3451 -0.5886,-0.5206 -0.6224,-0.5441 -0.6874,-1.4916 -0.1453,-2.1163 0.542,-0.6247 1.486,-0.69 2.1084,-0.1459 0.2477,0.2166 0.4725,0.4161 0.6814,0.6015 0.8288,0.7354 1.4077,1.2491 2.1809,1.7331 0.9219,0.5769 2.1586,1.1253 4.4122,1.7629 2.0368,0.3079 3.7348,0.1383 5.7339,-0.6826 2.1114,-0.867 3.7108,-2.2888 4.3016,-3.3547 0.4012,-0.7239 1.3112,-0.9843 2.0324,-0.5816 z"
     fill="#f3f4f6"
     id="path5" />
</svg>
