<?xml version="1.0" encoding="UTF-8" standalone="no"?>
<!-- Created with Inkscape (http://www.inkscape.org/) -->

<svg
   width="18.520828mm"
   height="9.9217129mm"
   viewBox="0 0 18.520828 9.9217129"
   version="1.1"
   id="svg1"
   xml:space="preserve"
   inkscape:version="1.3.2 (091e20ef0f, 2023-11-25)"
   sodipodi:docname="fun-mode.svg"
   xmlns:inkscape="http://www.inkscape.org/namespaces/inkscape"
   xmlns:sodipodi="http://sodipodi.sourceforge.net/DTD/sodipodi-0.dtd"
   xmlns="http://www.w3.org/2000/svg"
   xmlns:svg="http://www.w3.org/2000/svg"><sodipodi:namedview
     id="namedview1"
     pagecolor="#ffffff"
     bordercolor="#000000"
     borderopacity="0.25"
     inkscape:showpageshadow="2"
     inkscape:pageopacity="0.0"
     inkscape:pagecheckerboard="0"
     inkscape:deskcolor="#d1d1d1"
     inkscape:document-units="mm"
     inkscape:zoom="2.9091656"
     inkscape:cx="172.3862"
     inkscape:cy="17.015188"
     inkscape:window-width="1920"
     inkscape:window-height="1011"
     inkscape:window-x="0"
     inkscape:window-y="0"
     inkscape:window-maximized="1"
     inkscape:current-layer="layer1" /><defs
     id="defs1" /><g
     inkscape:label="Vrstva 1"
     inkscape:groupmode="layer"
     id="layer1"
     transform="translate(-95.888654,-229.87206)"><g
       style="fill:none"
       id="g1"
       transform="matrix(0.26458333,0,0,0.26458333,95.844212,229.66742)"><path
         fill-rule="evenodd"
         clip-rule="evenodd"
         d="M 26.3858,3.99428 26.3205,4.00121 H 26.2549 C 22.9123,4.0012 19.4383,3.85779 16.029,3.71584 L 15.9352,3.71193 C 12.5963,3.5729 9.32302,3.43659 6.24609,3.43271 5.31003,3.63893 4.66391,3.80163 4.19096,3.98026 3.71267,4.16091 3.53042,4.31565 3.43536,4.43651 3.33727,4.56123 3.22206,4.78998 3.14579,5.32993 3.06781,5.88202 3.04659,6.62649 3.04659,7.70477 c 0,2.83893 -0.09741,5.67523 -0.19406,8.48933 l -6.6e-4,0.0194 c -0.09711,2.8276 -0.19324,5.6331 -0.19325,8.44 0,-10e-5 0,0 0,0 l 5.8e-4,5.893 c 9e-5,1.3084 0.19831,2.509 0.49704,3.3437 0.15096,0.4218 0.30455,0.685 0.41876,0.8212 0.00935,0.0111 0.01777,0.0207 0.02525,0.0288 2.21559,0.0747 3.93762,0.0508 5.83628,0.0245 1.04307,-0.0144 2.13947,-0.0296 3.40027,-0.0296 1.0042,0 1.997,-0.0337 3.0203,-0.0685 0.6724,-0.0228 1.3579,-0.0461 2.0685,-0.0605 1.7431,-0.0355 3.5421,-0.0129 5.3028,0.2383 5.1665,0.737 10.9562,0.7623 16.3312,0.7623 2.2688,0 4.1705,0.0471 5.9569,0.0913 3.2566,0.0805 6.1302,0.1516 10.1472,-0.089 l 0.037,-0.0023 h 11.0206 c 0.3025,0 0.4197,-0.0842 0.4838,-0.1448 0.0935,-0.0885 0.2078,-0.2659 0.3004,-0.5963 0.1751,-0.6252 0.1721,-1.3767 0.1693,-2.0673 -3e-4,-0.0849 -6e-4,-0.1688 -6e-4,-0.2514 0,-1.864 -0.0951,-3.7114 -0.1924,-5.5911 l -0.0015,-0.0296 c -0.0962,-1.8597 -0.1941,-3.7521 -0.1941,-5.6624 0,-1.3838 -0.1294,-2.8185 -0.266,-4.3323 C 66.9685,16.3581 66.9158,15.7734 66.8687,15.1759 66.7019,13.0603 66.6126,10.8312 67.0059,8.73274 67.2371,7.49935 66.7357,6.12731 65.8054,5.02364 65.35,4.48334 64.8281,4.0545 64.3245,3.77687 63.8097,3.49308 63.3896,3.40715 63.11,3.42889 59.526,3.70762 53.7146,4.00324 45.2642,3.42978 41.1514,3.15068 36.4379,3.28952 32.7305,3.50168 c -1.8489,0.1058 -3.4381,0.22924 -4.5641,0.32616 -0.5629,0.04845 -1.0098,0.09024 -1.3151,0.11983 -0.1526,0.0148 -0.2699,0.02654 -0.3485,0.03454 l -0.0887,0.0091 z m 6.2029,-2.98855 c 3.7446,-0.214282 8.5778,-0.359732 12.8435,-0.070254 8.3065,0.563704 13.9949,0.272344 17.4854,8.89e-4 0.9111,-0.070857 1.8188,0.215385 2.6058,0.649235 0.7982,0.44001 1.5521,1.07429 2.1834,1.82327 1.2432,1.47488 2.1591,3.58604 1.7468,5.78604 -0.3281,1.75109 -0.2665,3.69839 -0.102,5.78369 0.0417,0.5298 0.0907,1.073 0.1404,1.6227 0.14,1.552 0.2848,3.1567 0.2848,4.6625 0,1.8447 0.0951,3.6822 0.1924,5.5624 0.0967,1.8694 0.1956,3.7816 0.1956,5.7207 0,0.0648 6e-4,0.1384 0.0013,0.2196 0.0057,0.6492 0.0154,1.7818 -0.263,2.7757 -0.1623,0.5797 -0.4503,1.2287 -0.9899,1.7391 -0.569,0.5383 -1.3158,0.8254 -2.1919,0.8254 H 55.7749 c -4.0929,0.2437 -7.1281,0.1696 -10.4493,0.0886 -1.7725,-0.0433 -3.6264,-0.0886 -5.766,-0.0886 -5.3465,0 -11.3121,-0.0212 -16.6816,-0.7872 -1.5608,-0.2226 -3.2015,-0.2485 -4.902,-0.2139 -0.6345,0.0129 -1.293,0.035 -1.9583,0.0573 -1.0666,0.0358 -2.1506,0.0722 -3.1809,0.0722 -1.1883,0 -2.2558,0.0146 -3.2892,0.0287 C 7.57074,37.2909 5.71883,37.3162 3.38585,37.2343 2.61243,37.2072 2.04026,36.7633 1.66968,36.3215 1.29665,35.8767 1.01931,35.314 0.81224,34.7354 0.394906,33.5693 0.168656,32.0712 0.168547,30.5467 c 0,0 0,10e-5 0,0 l -5.78e-4,-5.893 c 0,-2.8564 0.097807,-5.7044 0.194657,-8.5244 l 6.5e-5,-0.002 C 0.459809,13.2995 0.555935,10.4999 0.555935,7.70477 0.555935,6.63759 0.57398,5.72819 0.679797,4.97901 0.787328,4.21769 1.00044,3.49777 1.48046,2.88744 1.96351,2.27325 2.60916,1.90657 3.31382,1.64042 4.00211,1.38046 4.85601,1.17772 5.8472,0.961216 L 5.97807,0.932629 H 6.112 c 3.16788,-1e-6 6.5316,0.140071 9.8986,0.280291 l 0.1217,0.00507 c 3.3961,0.1414 6.7959,0.28138 10.0586,0.2832 l 0.0608,-0.00624 c 0.0824,-0.00838 0.2035,-0.02052 0.3602,-0.0357 0.3134,-0.03038 0.7691,-0.07299 1.3417,-0.12227 1.1448,-0.09853 2.758,-0.22384 4.6351,-0.33125 z"
         fill="#55af5f"
         id="path1" /></g><g
       style="fill:none"
       id="g2"
       transform="matrix(0.26458333,0,0,0.26458333,105.95458,231.46866)"><path
         d="m 1.18659,4.38529 c 0,4.13356 -0.337143,8.26991 -0.337143,12.42061 l 5.02e-4,4.3186 c 1.71e-4,2.076 -0.675381,3.9854 1.751451,3.9854 l 12.6505,0.6388 h 9.5445 c 1.1312,-0.3572 1.3108,-2.0902 1.3108,-3.0714 0,-2.7873 0.2623,-5.5964 0.2623,-8.3555 0,-2.8926 -0.2623,-5.79852 -0.2623,-9.01384 -0.1041,-3.9194 -2.4631,-5.10518 -4.5326,-4.969453 -2.0695,0.135727 -13.16904,-0.639746 -16.64203,0 C 1.45957,0.978253 1.18659,1.24079 1.18659,4.38529 Z"
         fill="#55af5f"
         id="path1-2" /></g><g
       style="fill:none"
       id="g3"
       transform="matrix(0.26458333,0,0,0.26458333,108.29869,233.0939)"><path
         fill-rule="evenodd"
         clip-rule="evenodd"
         d="M 2.08674,0.0701499 C 2.77407,0.0948236 3.31134,0.674112 3.28676,1.36403 3.24676,2.48676 3.17198,3.37667 3.10246,4.20413 3.09158,4.33352 3.08084,4.46137 3.07038,4.58835 2.99319,5.52525 2.92913,6.43595 2.92913,7.64207 c 0,0.69035 -0.55755,1.25 -1.24533,1.25 -0.687771,0 -1.245323,-0.55965 -1.245323,-1.25 0,-1.30588 0.070184,-2.29438 0.149721,-3.25976 C 0.599046,4.25064 0.610026,4.11981 0.621012,3.98892 0.690393,3.16227 0.759984,2.33311 0.797696,1.27468 0.822277,0.584761 1.3994,0.0454764 2.08674,0.0701499 Z"
         fill="#f3f4f6"
         id="path1-9" /></g><g
       style="fill:none"
       id="g4"
       transform="matrix(0.26458333,0,0,0.26458333,110.21315,233.29495)"><path
         fill-rule="evenodd"
         clip-rule="evenodd"
         d="m 1.64219,0.0693359 c 0.68777,0 1.24533,0.5596441 1.24533,1.2500041 0,1.8135 -0.11463,4.01638 -0.21223,5.77736 C 2.63709,7.78599 2.04943,8.31368 1.36271,8.27533 0.675999,8.23699 0.150277,7.64712 0.18848,6.95783 0.286564,5.18813 0.39686,3.05275 0.39686,1.31934 c 0,-0.69036 0.557553,-1.2500041 1.24533,-1.2500041 z"
         fill="#f3f4f6"
         id="path1-97" /></g><g
       style="fill:none"
       id="g5"
       transform="matrix(0.26458333,0,0,0.26458333,107.15715,235.61605)"><path
         fill-rule="evenodd"
         clip-rule="evenodd"
         d="M 18.336,0.300462 C 18.9371,0.63608 19.1532,1.39721 18.8189,2.00049 17.9761,3.52116 16.1191,5.02465 14.0008,5.8945 11.8691,6.76989 9.97658,6.94638 7.8234,6.60844 L 7.75096,6.59707 7.68035,6.57725 C 5.63529,6.00313 4.34011,5.46208 3.28505,4.80176 2.44827,4.27805 1.78124,3.68464 1.07221,3.05388 0.91168,2.91106 0.748992,2.76633 0.581694,2.62006 0.0630754,2.16663 0.00885952,1.37705 0.4606,0.85648 0.91234,0.335915 1.69897,0.281496 2.21759,0.734931 2.42407,0.915455 2.61138,1.08167 2.78547,1.23615 3.47612,1.84902 3.95851,2.27709 4.60284,2.68036 5.37105,3.16115 6.40164,3.6181 8.27957,4.14946 9.97688,4.406 11.3919,4.26473 13.0578,3.58065 14.8172,2.85814 16.1501,1.67335 16.6424,0.785116 16.9767,0.181831 17.735,-0.0351556 18.336,0.300462 Z"
         fill="#f3f4f6"
         id="path1-29" /></g></g></svg>
