<svg width="18" height="16" viewBox="0 0 18 16" fill="none" xmlns="http://www.w3.org/2000/svg">
<path fill-rule="evenodd" clip-rule="evenodd" d="M7.99903 1.06654C4.1692 1.06654 1.06654 4.16401 1.06654 7.98243C1.06654 11.8009 4.1692 14.8983 7.99903 14.8983C11.8289 14.8983 14.9315 11.8009 14.9315 7.98243C14.9315 4.16401 11.8289 1.06654 7.99903 1.06654ZM0 7.98243C0 3.57274 3.58241 0 7.99903 0C12.4157 0 15.9981 3.57274 15.9981 7.98243C15.9981 12.3921 12.4157 15.9649 7.99903 15.9649C3.58241 15.9649 0 12.3921 0 7.98243Z" fill="#4556EB"/>
<path fill-rule="evenodd" clip-rule="evenodd" d="M5.78076 2.95783C5.13739 4.21625 4.72377 5.99191 4.72377 7.98243C4.72377 9.97296 5.13739 11.7486 5.78076 13.007C6.43875 14.2941 7.25179 14.8983 7.99886 14.8983C8.74594 14.8983 9.55897 14.2941 10.217 13.007C10.8603 11.7486 11.274 9.97296 11.274 7.98243C11.274 5.99191 10.8603 4.21625 10.217 2.95783C9.55897 1.67079 8.74594 1.06654 7.99886 1.06654C7.25179 1.06654 6.43875 1.67079 5.78076 2.95783ZM4.83112 2.47233C5.55149 1.0633 6.64263 0 7.99886 0C9.35509 0 10.4462 1.0633 11.1666 2.47233C11.9016 3.90998 12.3405 5.8589 12.3405 7.98243C12.3405 10.106 11.9016 12.0549 11.1666 13.4925C10.4462 14.9016 9.35509 15.9649 7.99886 15.9649C6.64263 15.9649 5.55149 14.9016 4.83112 13.4925C4.09613 12.0549 3.65723 10.106 3.65723 7.98243C3.65723 5.8589 4.09613 3.90998 4.83112 2.47233Z" fill="#4556EB"/>
<path fill-rule="evenodd" clip-rule="evenodd" d="M7.46582 15.4315V0.533203H8.53236V15.4315H7.46582Z" fill="#4556EB"/>
<path fill-rule="evenodd" clip-rule="evenodd" d="M0.533203 7.44922H15.4647V8.51576H0.533203V7.44922Z" fill="#4556EB"/>
<path fill-rule="evenodd" clip-rule="evenodd" d="M12.5527 11.6178C11.9134 12.2023 11.0614 12.5591 10.1259 12.5591C8.14173 12.5591 6.5332 10.9541 6.5332 8.97436C6.5332 6.99458 8.14173 5.38965 10.1259 5.38965C12.1102 5.38965 13.7187 6.99458 13.7187 8.97436C13.7187 9.64188 13.5358 10.2668 13.2173 10.8019L17.5332 14.0784L16.8954 14.9146L12.5527 11.6178Z" fill="#F0F0F0"/>
<path fill-rule="evenodd" clip-rule="evenodd" d="M12.1619 10.62L12.358 10.2905C12.587 9.90572 12.7187 9.45684 12.7187 8.97436C12.7187 7.54896 11.56 6.38965 10.126 6.38965C8.69193 6.38965 7.53322 7.54896 7.53322 8.97436C7.53322 10.3998 8.69193 11.5591 10.126 11.5591C10.8023 11.5591 11.4159 11.3022 11.8779 10.8798L12.1619 10.62ZM16.8955 14.9146L17.5332 14.0784L13.2174 10.8019C13.5358 10.2668 13.7187 9.64188 13.7187 8.97436C13.7187 6.99458 12.1102 5.38965 10.126 5.38965C8.14173 5.38965 6.5332 6.99458 6.5332 8.97436C6.5332 10.9541 8.14173 12.5591 10.126 12.5591C11.0614 12.5591 11.9134 12.2023 12.5527 11.6178L16.8955 14.9146Z" fill="#4556EB"/>
</svg>
