<svg width="27" height="47" viewBox="0 0 27 47" fill="none" xmlns="http://www.w3.org/2000/svg">
<path d="M6.71952 0.452675C6.26245 0.142666 5.64061 0.261883 5.33061 0.718952L0.278715 8.16734C-0.0312939 8.6244 0.0879226 9.24625 0.544992 9.55625C1.00206 9.86626 1.6239 9.74705 1.93391 9.28998L6.42448 2.66919L13.0453 7.15976C13.5023 7.46977 14.1242 7.35055 14.4342 6.89348C14.7442 6.43641 14.625 5.81457 14.1679 5.50457L6.71952 0.452675ZM11.432 18.2736L10.4987 18.6326L11.432 18.2736ZM24.4986 46.1449C24.805 46.6045 25.4258 46.7286 25.8854 46.4223C26.3449 46.1159 26.4691 45.4951 26.1627 45.0355L24.4986 46.1449ZM5.17609 1.46856C6.68443 9.33617 8.72461 14.0201 10.4987 18.6326L12.3653 17.9146C10.5771 13.2651 8.60894 8.75242 7.14032 1.09199L5.17609 1.46856ZM10.4987 18.6326C11.5932 21.4783 14.2561 27.0987 17.0454 32.6043C19.8325 38.1054 22.7948 43.5893 24.4986 46.1449L26.1627 45.0355C24.5344 42.5931 21.6217 37.2116 18.8295 31.7004C16.0397 26.1938 13.4193 20.6549 12.3653 17.9146L10.4987 18.6326Z" fill="#34AF42"/>
</svg>
