<svg width="53" height="53" viewBox="0 0 53 53" fill="none" xmlns="http://www.w3.org/2000/svg">
<path fill-rule="evenodd" clip-rule="evenodd" d="M26.5 35C27.3284 35 28 35.6716 28 36.5C28 39.2435 27.7449 41.6967 27.4973 44.077L27.492 44.1283C27.2413 46.538 27 48.8779 27 51.5C27 52.3284 26.3284 53 25.5 53C24.6716 53 24 52.3284 24 51.5C24 48.703 24.2584 46.2185 24.5077 43.8217L24.508 43.8179C24.7588 41.4067 25 39.0856 25 36.5C25 35.6716 25.6716 35 26.5 35Z" fill="#4556EB"/>
<path fill-rule="evenodd" clip-rule="evenodd" d="M32.5 33C33.3284 33 34 33.6716 34 34.5C34 34.8414 34.1639 35.309 34.5538 36.0235C34.6348 36.1718 34.7348 36.3449 34.8436 36.5334C35.1519 37.0672 35.5316 37.7244 35.7527 38.2933C35.9113 38.7016 36.1146 39.0978 36.358 39.552C36.3904 39.6123 36.4237 39.6742 36.4579 39.7376C36.6684 40.1284 36.9081 40.5732 37.1164 41.036C37.5232 41.9401 37.949 42.7674 38.4414 43.345C38.6473 43.5864 38.838 43.903 38.969 44.1377C39.1095 44.3893 39.2526 44.6759 39.3473 44.9126C39.4334 45.128 39.5894 45.4001 39.7862 45.7283C40.2125 46.4386 39.9821 47.36 39.2717 47.7862C38.5614 48.2125 37.64 47.9821 37.2138 47.2717C37.0342 46.9725 36.7513 46.5004 36.5618 46.0268C36.5307 45.949 36.4522 45.7838 36.3497 45.6002C36.3011 45.5132 36.2544 45.4352 36.2142 45.3731C36.1761 45.3141 36.1567 45.2895 36.1569 45.2894C36.1569 45.2894 36.1575 45.2901 36.1586 45.2914C35.3663 44.3622 34.7958 43.1898 34.3806 42.2671C34.2198 41.9097 34.0366 41.5693 33.8238 41.1737C33.788 41.1072 33.7513 41.0391 33.7138 40.9691C33.4648 40.5044 33.1861 39.971 32.9564 39.3801C32.8221 39.0343 32.6334 38.7089 32.3843 38.2794C32.2481 38.0444 32.0938 37.7782 31.9204 37.4606C31.5098 36.7081 31 35.6597 31 34.5C31 33.6716 31.6716 33 32.5 33Z" fill="#4556EB"/>
<path fill-rule="evenodd" clip-rule="evenodd" d="M35.4155 30.4638C35.9878 29.8648 36.9373 29.8432 37.5362 30.4155C38.146 30.9981 38.9647 31.4347 40.0032 31.9003C40.2069 31.9917 40.4236 32.0857 40.6486 32.1835C41.4864 32.5473 42.4407 32.9617 43.2755 33.4722C43.5266 33.6257 43.8137 33.7394 44.2556 33.9142C44.2987 33.9313 44.3434 33.949 44.3896 33.9673C44.8498 34.15 45.4774 34.4051 46.0473 34.8286C46.0748 34.849 46.1039 34.8711 46.127 34.8887L46.1287 34.89C46.1542 34.9094 46.1774 34.9271 46.201 34.9447C46.2316 34.9677 46.2586 34.9874 46.2825 35.0044C46.9122 35.1548 47.3221 35.5472 47.5343 35.7771C47.6403 35.8918 47.7403 36.0156 47.8018 36.0917C47.8108 36.1028 47.819 36.113 47.8263 36.1219C47.861 36.1646 47.8839 36.1922 47.9026 36.2136C47.9159 36.2289 47.9225 36.2356 47.9235 36.2366C48.3498 36.6437 48.7692 36.9662 49.1466 37.1465C49.8941 37.5036 50.2106 38.3991 49.8535 39.1466C49.4964 39.8941 48.6009 40.2106 47.8534 39.8535C47.0628 39.4758 46.3765 38.9077 45.8497 38.4045C45.697 38.2585 45.5705 38.1029 45.4982 38.014C45.4857 37.9986 45.4742 37.9845 45.4636 37.9714C45.4333 37.9341 45.4102 37.9056 45.3907 37.8821C45.2232 37.8353 45.0915 37.7744 45.0115 37.7347C44.8693 37.6642 44.7442 37.5856 44.6514 37.5234C44.5091 37.4281 44.3466 37.3041 44.2827 37.2553C44.2707 37.2462 44.2622 37.2397 44.2579 37.2365C44.0387 37.0736 43.7491 36.9407 43.283 36.7558C43.2379 36.7379 43.1902 36.7192 43.1403 36.6996C42.7403 36.5427 42.1991 36.3304 41.7105 36.0316C41.0713 35.6408 40.3776 35.3388 39.5755 34.9895C39.3205 34.8785 39.0545 34.7627 38.7759 34.6378C37.6974 34.1542 36.4704 33.5463 35.4638 32.5845C34.8648 32.0122 34.8432 31.0627 35.4155 30.4638Z" fill="#4556EB"/>
<path fill-rule="evenodd" clip-rule="evenodd" d="M37 24.5C37 23.6716 37.6716 23 38.5 23C40.0221 23 41.561 23.2287 42.9569 23.4361C43.2261 23.4762 43.4899 23.5154 43.7474 23.552L43.8084 23.5607C45.187 23.7568 46.7792 23.9833 48.3046 24.5073C48.8088 24.6805 49.2794 24.9317 49.6312 25.1196C49.6525 25.131 49.6734 25.1421 49.6938 25.153C50.097 25.3679 50.3622 25.5021 50.6054 25.5791C50.642 25.5906 50.7045 25.607 50.8384 25.6405L50.8544 25.6445C50.968 25.6729 51.1203 25.7111 51.2741 25.7559C51.5162 25.8266 52.0973 25.999 52.5324 26.4118C53.1334 26.982 53.1584 27.9314 52.5882 28.5324C52.0515 29.0981 51.1788 29.1534 50.5769 28.6825C50.5464 28.671 50.5 28.6552 50.4335 28.6358C50.338 28.6079 50.2363 28.5824 50.1098 28.5507L50.0954 28.5471C49.9882 28.5203 49.8364 28.4823 49.7009 28.4394C49.1618 28.269 48.6664 28.005 48.3012 27.8103L48.2829 27.8005C47.8703 27.5806 47.5949 27.4356 47.33 27.3446C46.0968 26.9209 44.7657 26.7271 43.3247 26.5221C43.0297 26.4801 42.7404 26.4374 42.4559 26.3953C41.0606 26.1892 39.7802 26 38.5 26C37.6716 26 37 25.3284 37 24.5ZM50.6181 28.6999C50.618 28.6999 50.6154 28.6988 50.6108 28.6963C50.6159 28.6986 50.6182 28.6998 50.6181 28.6999Z" fill="#4556EB"/>
<path fill-rule="evenodd" clip-rule="evenodd" d="M47.9673 16.2956C47.9318 16.3175 47.8937 16.341 47.8526 16.3663C46.6898 17.0807 45.1821 17.5568 43.8149 17.6501C42.4888 17.7406 41.1687 18.0137 40.2824 18.5488C40.2092 18.593 40.1295 18.6419 40.0445 18.6942C39.6764 18.9204 39.2081 19.2082 38.7318 19.4372C38.1251 19.7289 37.3654 20 36.5 20C35.6716 20 35 19.3284 35 18.5C35 17.6716 35.6716 17 36.5 17C36.7398 17 37.0354 16.9241 37.4318 16.7335C37.7555 16.5779 38.055 16.3943 38.4098 16.1769C38.5119 16.1143 38.6186 16.049 38.7318 15.9806C40.2336 15.0739 42.129 14.7582 43.6106 14.6571C44.503 14.5962 45.5405 14.2658 46.2822 13.8102C46.3062 13.7954 46.333 13.7788 46.3621 13.7607C46.5457 13.6466 46.8223 13.4748 47.1079 13.3388C47.4551 13.1736 47.9328 13 48.5 13C49.3284 13 50 13.6716 50 14.5C50 15.3225 49.3379 15.9904 48.5176 15.9999C48.5047 16.0033 48.4668 16.0145 48.3972 16.0477C48.2743 16.1062 48.1576 16.1782 47.9673 16.2956Z" fill="#4556EB"/>
<path fill-rule="evenodd" clip-rule="evenodd" d="M40.2788 3.78257C40.9455 3.37905 41.1967 2.52274 40.8366 1.81778C40.4598 1.08002 39.5562 0.787411 38.8185 1.16423C38.2573 1.45087 37.9199 1.91877 37.7734 2.12192C37.7695 2.12725 37.7658 2.1324 37.7622 2.13737C37.7324 2.1787 37.7083 2.21228 37.688 2.24068C37.6408 2.30661 37.6136 2.3446 37.5799 2.38689C37.5705 2.39866 37.5635 2.4069 37.5588 2.41224C36.785 3.01633 36.3282 3.94362 36.04 4.56191C35.9361 4.7848 35.8476 4.98168 35.7687 5.15729C35.5706 5.59784 35.4327 5.90454 35.263 6.15217C34.9552 6.60143 34.6276 6.96676 34.2359 7.40365C34.149 7.50057 34.059 7.60101 33.9653 7.70667C33.4725 8.26232 32.9162 8.92619 32.4744 9.80509C32.2053 10.3404 31.7882 11.4579 31.4319 12.4632C31.0648 13.4989 30.7086 14.5702 30.56 15.0815C30.3288 15.877 30.7863 16.7093 31.5818 16.9405C32.3773 17.1717 33.2096 16.7142 33.4408 15.9187C33.5643 15.4937 33.8967 14.4889 34.2595 13.4653C34.6331 12.4113 34.987 11.4862 35.1548 11.1525C35.4154 10.6341 35.7575 10.2072 36.2099 9.6971C36.2798 9.61827 36.3538 9.53589 36.4311 9.44999C36.8279 9.00874 37.3085 8.47433 37.7377 7.84798C38.0747 7.35627 38.372 6.69099 38.5987 6.18381C38.657 6.05332 38.7107 5.93329 38.7591 5.82939C39.0693 5.16396 39.2726 4.8783 39.4063 4.7759C39.6364 4.59959 39.8065 4.40624 39.9241 4.25897C40.0126 4.14818 40.103 4.02157 40.1605 3.94097C40.1735 3.92278 40.1848 3.90693 40.1941 3.89414C40.2335 3.83951 40.2614 3.804 40.2788 3.78257Z" fill="#4556EB"/>
<path fill-rule="evenodd" clip-rule="evenodd" d="M27.5 0C28.3284 0 29 0.671573 29 1.5V14.5C29 15.3284 28.3284 16 27.5 16C26.6716 16 26 15.3284 26 14.5V1.5C26 0.671573 26.6716 0 27.5 0Z" fill="#4556EB"/>
<path fill-rule="evenodd" clip-rule="evenodd" d="M13.903 2.124C14.6628 1.79405 15.5463 2.14258 15.8763 2.90247C15.9189 3.00054 15.9706 3.09029 16.0538 3.23462C16.115 3.34082 16.1933 3.47657 16.2975 3.66693C16.4442 3.93511 16.6981 4.4096 16.801 4.93938C16.8117 4.96185 16.8244 4.98763 16.8387 5.01559C16.8579 5.05329 16.876 5.08701 16.891 5.11399C17.0112 5.25648 17.0936 5.39241 17.1365 5.46492C17.2169 5.60077 17.2887 5.74334 17.3478 5.87029C17.4508 6.0915 17.5704 6.38484 17.634 6.62831C17.6419 6.6426 17.6671 6.68673 17.7291 6.77395C17.7544 6.80948 17.7805 6.84512 17.8134 6.89016L17.8226 6.90277C17.8575 6.95051 17.9 7.00881 17.9429 7.06998C18.0279 7.19096 18.1361 7.35342 18.2338 7.54479C18.2813 7.63766 18.3615 7.76414 18.4914 7.95036C18.523 7.99568 18.5617 8.0502 18.604 8.10983C18.7026 8.24863 18.8207 8.41512 18.9151 8.55771C19.5849 9.57001 20.0015 10.746 20.3463 11.7194C20.3775 11.8073 20.408 11.8934 20.4381 11.9777C20.832 13.0813 21.1682 13.925 21.6777 14.5704C22.191 15.2206 22.0801 16.1639 21.4298 16.6772C20.7796 17.1905 19.8364 17.0796 19.3231 16.4294C18.467 15.3451 17.992 14.0489 17.6127 12.9863C17.5908 12.925 17.5692 12.8643 17.5478 12.8044C17.1697 11.7433 16.871 10.9051 16.4132 10.2131C16.3445 10.1094 16.2792 10.0176 16.2 9.90624C16.1506 9.83672 16.0957 9.75956 16.0312 9.66712C15.888 9.462 15.7083 9.19553 15.5622 8.90954C15.5388 8.86356 15.5176 8.83459 15.4542 8.74789C15.4161 8.69577 15.3627 8.62277 15.2844 8.51265C15.1288 8.29396 14.8638 7.90629 14.7329 7.39267C14.7326 7.39177 14.7322 7.39076 14.7319 7.38964C14.7275 7.37667 14.7202 7.35583 14.7095 7.32786C14.6878 7.27123 14.6591 7.20311 14.6281 7.1364C14.6051 7.08699 14.5852 7.04782 14.5702 7.02019C14.5003 6.94 14.4544 6.87286 14.4389 6.85014C14.4381 6.84892 14.4373 6.84782 14.4367 6.84686C14.3965 6.78824 14.3609 6.7304 14.3328 6.68307C14.2755 6.58648 14.2176 6.47928 14.1665 6.37927C14.1157 6.2796 14.0617 6.16749 14.0157 6.06043C13.9932 6.00786 13.9661 5.94159 13.9413 5.87012C13.941 5.86922 13.9407 5.86826 13.9403 5.86724C13.9259 5.82579 13.8763 5.68289 13.854 5.50331C13.8507 5.49279 13.8434 5.47131 13.8296 5.43759C13.7958 5.35526 13.7431 5.2484 13.6658 5.10717C13.6144 5.01325 13.5681 4.93242 13.5165 4.84208C13.4837 4.7849 13.4488 4.72391 13.4091 4.65338C13.3224 4.49957 13.2124 4.29986 13.1245 4.09732C12.7945 3.33744 13.1431 2.45395 13.903 2.124Z" fill="#4556EB"/>
<path fill-rule="evenodd" clip-rule="evenodd" d="M3.15218 11.8425C3.51537 11.0979 4.41339 10.7887 5.15796 11.1519C5.64133 11.3877 6.07915 11.6772 6.4485 11.9314C6.55915 12.0076 6.66173 12.0791 6.75908 12.147C7.01257 12.3238 7.23061 12.4759 7.46333 12.6203C7.50651 12.6472 7.59614 12.6879 7.84305 12.7694C7.86727 12.7774 7.89464 12.7863 7.92466 12.796C8.12782 12.8618 8.45261 12.9669 8.74558 13.1098C9.2137 13.3381 9.57524 13.6312 9.8426 13.8637C9.95811 13.9642 10.0477 14.0448 10.125 14.1144C10.2572 14.2334 10.3538 14.3204 10.4836 14.4196C10.8715 14.7162 11.245 15.0636 11.551 15.3482C11.6328 15.4243 11.7097 15.4958 11.7808 15.5608C12.1563 15.9035 12.4538 16.1456 12.7615 16.3144C12.9639 16.4254 13.1542 16.5518 13.3071 16.6559C13.3746 16.7019 13.4324 16.7417 13.4859 16.7787C13.5721 16.8382 13.6474 16.8902 13.7353 16.9483C13.865 17.0339 13.9647 17.0935 14.0463 17.1347C14.1052 17.1644 14.1393 17.1766 14.1525 17.1808C14.1634 17.1822 14.1915 17.1856 14.245 17.1908C14.2607 17.1923 14.2805 17.1941 14.3033 17.1962C14.3801 17.2032 14.4905 17.2134 14.588 17.225C14.719 17.2406 14.9072 17.2673 15.1032 17.3214C15.2763 17.3692 15.607 17.4773 15.9093 17.7426C15.9089 17.7423 15.909 17.7424 15.9096 17.7428C15.9135 17.7459 15.9405 17.767 15.9975 17.7994C16.0591 17.8345 16.1363 17.8717 16.2219 17.9057C16.3076 17.9396 16.3893 17.9654 16.4581 17.9821C16.5195 17.9971 16.5528 18.0006 16.5585 18.0011C16.5596 18.0013 16.5597 18.0013 16.5588 18.0012C17.3866 18.0335 18.0315 18.7308 17.9992 19.5586C17.9669 20.3864 17.2696 21.0313 16.4418 20.999C15.9757 20.9808 15.4996 20.8465 15.1162 20.6945C14.8198 20.5769 14.4872 20.4125 14.1858 20.1986C14.1496 20.1948 14.1135 20.1915 14.0695 20.1874C14.0376 20.1845 14.0014 20.1812 13.958 20.177C13.9028 20.1717 13.8364 20.1649 13.7681 20.1561C13.7012 20.1474 13.6152 20.1346 13.5227 20.1145C12.9155 19.9829 12.4025 19.6632 12.0823 19.4518C11.9078 19.3366 11.7822 19.2493 11.6806 19.1786C11.5354 19.0777 11.439 19.0107 11.3182 18.9444C10.6834 18.5961 10.1696 18.152 9.75823 17.7764C9.64222 17.6705 9.53658 17.5724 9.43761 17.4805C9.15298 17.2163 8.92352 17.0032 8.66138 16.8028C8.43457 16.6294 8.19217 16.4119 8.01917 16.2567C7.96225 16.2056 7.91284 16.1613 7.87398 16.1275C7.67137 15.9513 7.54424 15.8617 7.43035 15.8061C7.34028 15.7622 7.2386 15.7287 7.01437 15.655C6.98015 15.6438 6.94307 15.6316 6.90275 15.6183C6.65702 15.5372 6.2588 15.4037 5.881 15.1691C5.57402 14.9785 5.26025 14.7596 4.98793 14.5696C4.90333 14.5106 4.82273 14.4544 4.74757 14.4026C4.40108 14.1641 4.11521 13.9812 3.84272 13.8483C3.09815 13.4851 2.78899 12.587 3.15218 11.8425Z" fill="#4556EB"/>
<path fill-rule="evenodd" clip-rule="evenodd" d="M0 25.5C0 24.6716 0.671573 24 1.5 24H15.5C16.3284 24 17 24.6716 17 25.5C17 26.3284 16.3284 27 15.5 27H1.5C0.671573 27 0 26.3284 0 25.5Z" fill="#4556EB"/>
<path fill-rule="evenodd" clip-rule="evenodd" d="M14.3275 30.9544C14.7159 30.6237 15.5025 30 16.5001 30C17.3286 30 18.0001 30.6716 18.0001 31.5C18.0001 32.2934 17.3841 32.943 16.6042 32.9964C16.6037 32.9967 16.6031 32.997 16.6026 32.9973C16.5333 33.0345 16.4254 33.1083 16.2726 33.2384C16.1218 33.3668 15.9693 33.5133 15.7924 33.6845C15.7826 33.6939 15.7726 33.7036 15.7624 33.7135C15.6091 33.862 15.4148 34.0503 15.229 34.2041C14.9436 34.4406 14.6734 34.7129 14.3379 35.051L14.3331 35.0558C14.0146 35.3769 13.6327 35.7616 13.2014 36.1089C12.2823 36.8491 11.2832 37.4703 10.1368 37.91C8.75951 38.4381 7.39853 39.0122 6.35227 39.7345C5.6705 40.2051 4.73631 40.0339 4.26569 39.3521C3.79507 38.6704 3.96624 37.7362 4.648 37.2655C6.01879 36.3193 7.68305 35.6379 9.06257 35.1089C9.86186 34.8024 10.593 34.3577 11.3197 33.7724C11.6015 33.5455 11.8714 33.2776 12.2035 32.9429C12.2186 32.9276 12.2339 32.9122 12.2493 32.8966C12.553 32.5904 12.9146 32.2257 13.3153 31.8938C13.4038 31.8205 13.5174 31.7114 13.706 31.5288L13.7065 31.5283C13.8756 31.3646 14.0935 31.1537 14.3275 30.9544ZM16.6372 32.9808C16.6372 32.9808 16.6359 32.9814 16.6334 32.9822C16.636 32.9811 16.6372 32.9807 16.6372 32.9808Z" fill="#4556EB"/>
<path fill-rule="evenodd" clip-rule="evenodd" d="M21.4592 34.3466C22.0963 34.8761 22.1834 35.8219 21.6538 36.4589C21.6108 36.5107 21.537 36.6318 21.4294 36.8968C21.381 37.0158 21.3355 37.1386 21.2813 37.2847L21.2709 37.3127C21.2159 37.461 21.1497 37.6387 21.0766 37.8116C20.6966 38.7091 20.2095 39.8311 19.6294 40.7758C19.3193 41.2809 19.0238 41.7295 18.743 42.1557C18.2783 42.8612 17.8542 43.505 17.4717 44.2411C17.0351 45.0815 16.5864 45.9119 16.1442 46.7304L16.1408 46.7367C15.6955 47.5607 15.2568 48.3727 14.8314 49.1916C14.4494 49.9267 13.5439 50.213 12.8087 49.8311C12.0736 49.4492 11.7873 48.5436 12.1692 47.8085C12.607 46.9658 13.0565 46.1339 13.4992 45.3147L13.5014 45.3106C13.9466 44.4865 14.3849 43.6753 14.8096 42.858C15.2538 42.003 15.8389 41.1102 16.3643 40.3084C16.623 39.9138 16.8671 39.5412 17.0729 39.2061C17.5195 38.4788 17.928 37.5535 18.3139 36.642C18.3569 36.5404 18.401 36.4234 18.4582 36.2693C18.4626 36.2575 18.467 36.2456 18.4715 36.2334C18.5224 36.0962 18.5833 35.9318 18.6498 35.768C18.7897 35.4235 19.0023 34.9556 19.3468 34.5411C19.8764 33.9041 20.8222 33.817 21.4592 34.3466Z" fill="#4556EB"/>
</svg>
