<svg width="143" height="46" viewBox="0 0 143 46" fill="none" xmlns="http://www.w3.org/2000/svg">
<path fill-rule="evenodd" clip-rule="evenodd" d="M38.2851 2.59372C48.47 1.24988 52.5778 0.707877 64.4356 0.962716C68.9015 1.05869 73.3393 1.4234 77.7626 2.05465C77.8402 1.43878 78.3658 0.962427 79.0028 0.962427C94.106 0.962427 106.976 1.96283 120.321 7.6531C126.107 10.1199 131.946 12.7504 136.171 16.2059C140.456 19.7097 143.21 24.1754 142.528 30.2272C141.793 36.7561 136.175 40.1321 129.455 42.0553C123.167 43.8549 115.381 44.5434 108.26 45.1729C107.706 45.2219 107.156 45.2706 106.611 45.3193L106.583 45.3218L106.556 45.323C80.7564 46.4992 69.5222 45.6997 53.1589 44.5353C46.7829 44.0815 39.6281 43.5723 30.5293 43.103C23.1564 42.7228 13.9555 40.9393 7.64545 37.2864C4.48603 35.4574 1.90533 33.0747 0.760343 30.0198C-0.406619 26.9064 0.0110869 23.352 2.33106 19.4285C4.94252 15.012 9.99246 11.3368 15.844 8.57345C21.7275 5.79499 28.5827 3.86179 35.0113 3.02383C36.1735 2.87233 37.2601 2.72897 38.2851 2.59372ZM86.0644 3.55484C88.106 4.00129 90.1463 4.50456 92.1867 5.06443C92.8524 5.24711 93.244 5.9349 93.0613 6.60065C92.8786 7.26639 92.1909 7.658 91.5251 7.47532C82.505 5.00022 73.5001 3.6581 64.3819 3.46214C52.7157 3.21142 48.7561 3.73386 38.6184 5.07143C37.5919 5.20687 36.502 5.35066 35.3344 5.50286C29.1454 6.30959 22.5436 8.17435 16.9116 10.8341C11.2476 13.5088 6.72343 16.912 4.48301 20.7009C2.44587 24.1461 2.26308 26.906 3.10131 29.1424C3.96152 31.4375 5.99171 33.4403 8.89796 35.1228C14.7193 38.4927 23.4688 40.2355 30.6581 40.6064C39.8371 41.0798 47.025 41.5914 53.411 42.0459C69.7119 43.206 80.7872 43.9943 106.415 42.8269C106.933 42.7805 107.455 42.7343 107.978 42.688C115.169 42.0511 122.722 41.3821 128.768 39.6518C135.319 37.7769 139.493 34.8396 140.044 29.9473C140.603 24.9887 138.437 21.2887 134.589 18.1412C130.681 14.9454 125.172 12.4389 119.341 9.95278C108.54 5.34734 98.0291 3.90116 86.0644 3.55484Z" fill="#55AF5F"/>
</svg>
