<?xml version="1.0" encoding="UTF-8" standalone="no"?>
<svg
   width="144"
   height="46"
   viewBox="0 0 144 46"
   fill="none"
   version="1.1"
   id="svg1"
   sodipodi:docname="logo-circle-fun.svg"
   inkscape:version="1.4 (e7c3feb100, 2024-10-09)"
   xmlns:inkscape="http://www.inkscape.org/namespaces/inkscape"
   xmlns:sodipodi="http://sodipodi.sourceforge.net/DTD/sodipodi-0.dtd"
   xmlns="http://www.w3.org/2000/svg"
   xmlns:svg="http://www.w3.org/2000/svg">
  <defs
     id="defs1" />
  <sodipodi:namedview
     id="namedview1"
     pagecolor="#ffffff"
     bordercolor="#cccccc"
     borderopacity="1"
     inkscape:showpageshadow="0"
     inkscape:pageopacity="1"
     inkscape:pagecheckerboard="0"
     inkscape:deskcolor="#d1d1d1"
     inkscape:zoom="16.701389"
     inkscape:cx="72"
     inkscape:cy="22.9921"
     inkscape:window-width="2560"
     inkscape:window-height="1371"
     inkscape:window-x="0"
     inkscape:window-y="0"
     inkscape:window-maximized="1"
     inkscape:current-layer="svg1" />
  <path
     fill-rule="evenodd"
     clip-rule="evenodd"
     d="M39.0722 1.85934C49.2571 0.515507 53.3649 -0.026498 65.2227 0.228341C69.6887 0.324319 74.1264 0.689023 78.5497 1.32027C78.6273 0.704403 79.1529 0.228052 79.7899 0.228052C94.8931 0.228052 107.763 1.22846 121.109 6.91872C126.894 9.3855 132.733 12.016 136.958 15.4715C141.243 18.9753 143.997 23.441 143.315 29.4928C142.58 36.0217 136.962 39.3978 130.243 41.3209C123.954 43.1206 116.168 43.809 109.047 44.4386C108.493 44.4875 107.943 44.5362 107.398 44.585L107.37 44.5874L107.343 44.5886C81.5435 45.7648 70.3093 44.9654 53.946 43.8009C47.57 43.3471 40.4152 42.838 31.3164 42.3687C23.9435 41.9884 14.7426 40.2049 8.43256 36.552C5.27314 34.723 2.69244 32.3403 1.54745 29.2855C0.38049 26.172 0.798196 22.6176 3.11817 18.6941C5.72963 14.2777 10.7796 10.6024 16.6311 7.83907C22.5146 5.06061 29.3698 3.12741 35.7984 2.28946C36.9606 2.13796 38.0472 1.99459 39.0722 1.85934ZM86.8515 2.82047C88.8931 3.26692 90.9334 3.77018 92.9738 4.33006C93.6395 4.51274 94.0311 5.20052 93.8484 5.86627C93.6657 6.53202 92.978 6.92362 92.3122 6.74094C83.2921 4.26585 74.2872 2.92372 65.169 2.72776C53.5028 2.47704 49.5432 2.99948 39.4055 4.33705C38.379 4.47249 37.2891 4.61629 36.1215 4.76848C29.9325 5.57521 23.3307 7.43998 17.6987 10.0997C12.0347 12.7745 7.51054 16.1776 5.27012 19.9666C3.23298 23.4118 3.05019 26.1716 3.88842 28.408C4.74863 30.7031 6.77882 32.706 9.68507 34.3884C15.5064 37.7584 24.2559 39.5012 31.4452 39.872C40.6242 40.3454 47.8121 40.857 54.1981 41.3115C70.499 42.4717 81.5743 43.2599 107.202 42.0925C107.721 42.0461 108.242 41.9999 108.765 41.9536C115.956 41.3167 123.509 40.6477 129.555 38.9174C136.106 37.0425 140.28 34.1053 140.831 29.2129C141.39 24.2543 139.225 20.5543 135.376 17.4068C131.468 14.211 125.959 11.7046 120.128 9.2184C109.327 4.61296 98.8162 3.16678 86.8515 2.82047Z"
     fill="#4556EB"
     id="path1"
     style="fill:#55af5f;fill-opacity:1" />
</svg>
