<svg width="19" height="16" viewBox="0 0 19 16" fill="none" xmlns="http://www.w3.org/2000/svg">
<path fill-rule="evenodd" clip-rule="evenodd" d="M9.8105 5.96559C9.8105 8.08908 8.08908 9.8105 5.96559 9.8105C3.84211 9.8105 2.12068 8.08908 2.12068 5.96559C2.12068 3.84211 3.84211 2.12068 5.96559 2.12068C8.08908 2.12068 9.8105 3.84211 9.8105 5.96559ZM9.85261 10.4911C8.80855 11.3887 7.45042 11.9312 5.96559 11.9312C2.67089 11.9312 0 9.2603 0 5.96559C0 2.67089 2.67089 0 5.96559 0C9.2603 0 11.9312 2.67089 11.9312 5.96559C11.9312 7.00982 11.6629 7.99138 11.1915 8.84511L18.3778 14.3129L17.0937 16.0006L9.85261 10.4911Z" fill="#4556EB"/>
</svg>
