<?xml version="1.0" encoding="UTF-8" standalone="no"?>
<svg
   width="19"
   height="16"
   viewBox="0 0 19 16"
   fill="none"
   version="1.1"
   id="svg1"
   sodipodi:docname="looking-glass.svg"
   inkscape:version="1.3.2 (091e20ef0f, 2023-11-25, custom)"
   xmlns:inkscape="http://www.inkscape.org/namespaces/inkscape"
   xmlns:sodipodi="http://sodipodi.sourceforge.net/DTD/sodipodi-0.dtd"
   xmlns="http://www.w3.org/2000/svg"
   xmlns:svg="http://www.w3.org/2000/svg">
  <defs
     id="defs1" />
  <sodipodi:namedview
     id="namedview1"
     pagecolor="#ffffff"
     bordercolor="#cccccc"
     borderopacity="1"
     inkscape:showpageshadow="0"
     inkscape:pageopacity="1"
     inkscape:pagecheckerboard="0"
     inkscape:deskcolor="#d1d1d1"
     inkscape:zoom="72.6875"
     inkscape:cx="9.5064488"
     inkscape:cy="8"
     inkscape:window-width="2560"
     inkscape:window-height="1371"
     inkscape:window-x="0"
     inkscape:window-y="0"
     inkscape:window-maximized="1"
     inkscape:current-layer="svg1" />
  <path
     fill-rule="evenodd"
     clip-rule="evenodd"
     d="M9.8105 5.96559C9.8105 8.08908 8.08908 9.8105 5.96559 9.8105C3.84211 9.8105 2.12068 8.08908 2.12068 5.96559C2.12068 3.84211 3.84211 2.12068 5.96559 2.12068C8.08908 2.12068 9.8105 3.84211 9.8105 5.96559ZM9.85261 10.4911C8.80855 11.3887 7.45042 11.9312 5.96559 11.9312C2.67089 11.9312 0 9.2603 0 5.96559C0 2.67089 2.67089 0 5.96559 0C9.2603 0 11.9312 2.67089 11.9312 5.96559C11.9312 7.00982 11.6629 7.99138 11.1915 8.84511L18.3778 14.3129L17.0937 16.0006L9.85261 10.4911Z"
     fill="#4556EB"
     id="path1"
     style="fill:#000000" />
</svg>
