<svg width="44" height="35" viewBox="0 0 44 35" fill="none" xmlns="http://www.w3.org/2000/svg">
<path fill-rule="evenodd" clip-rule="evenodd" d="M18.9516 3.34744C17.574 3.39563 16.1756 3.44455 14.8754 3.44455H2.49522C1.55779 3.44455 0.797852 2.7164 0.797852 1.81818C0.797852 0.919961 1.55779 0.19181 2.49522 0.19181H14.8754C16.1404 0.19181 17.4003 0.147076 18.7094 0.100592C19.5997 0.068981 20.5128 0.0365613 21.4657 0.0168496C23.7399 -0.0301927 26.1012 0.0028336 28.3521 0.357518C31.682 0.882232 34.821 0.821625 38.2063 0.756263C39.3702 0.73379 40.5633 0.710754 41.8033 0.710754C42.7407 0.710754 43.5006 1.43891 43.5006 2.33712C43.5006 3.23534 42.7407 3.9635 41.8033 3.9635C40.7155 3.9635 39.6165 3.98504 38.5065 4.0068C35.0399 4.07475 31.467 4.14479 27.8012 3.56715C25.8651 3.26206 23.7543 3.22301 21.539 3.26883C20.7058 3.28607 19.833 3.3166 18.9516 3.34744Z" fill="#4556EB"/>
<path fill-rule="evenodd" clip-rule="evenodd" d="M18.9516 34.2967C17.574 34.3448 16.1756 34.3938 14.8754 34.3938H2.49522C1.55779 34.3938 0.797852 33.6656 0.797852 32.7674C0.797852 31.8692 1.55779 31.141 2.49522 31.141H14.8754C16.1404 31.141 17.4003 31.0963 18.7094 31.0498C19.5997 31.0182 20.5128 30.9858 21.4657 30.9661C23.7399 30.919 26.1012 30.9521 28.3521 31.3067C31.682 31.8315 34.821 31.7708 38.2063 31.7055C39.3702 31.683 40.5633 31.66 41.8033 31.66C42.7407 31.66 43.5006 32.3881 43.5006 33.2863C43.5006 34.1846 42.7407 34.9127 41.8033 34.9127C40.7155 34.9127 39.6165 34.9343 38.5065 34.956C35.0399 35.024 31.467 35.094 27.8012 34.5164C25.8651 34.2113 23.7543 34.1722 21.539 34.2181C20.7058 34.2353 19.833 34.2658 18.9516 34.2967Z" fill="#4556EB"/>
<path fill-rule="evenodd" clip-rule="evenodd" d="M43.2041 17.7594C43.2041 18.6576 42.4442 19.3857 41.5067 19.3857L29.1265 19.3857C24.8836 19.3857 20.8805 19.3857 15.922 19.2422C13.0648 19.3137 10.7606 19.2178 8.6104 19.1059C8.29828 19.0896 7.99035 19.0731 7.6851 19.0567C5.86824 18.9592 4.14614 18.8668 2.19869 18.8668C1.26126 18.8668 0.501324 18.1387 0.501324 17.2404C0.501323 16.3422 1.26126 15.6141 2.19869 15.6141C4.24847 15.6141 6.07264 15.7121 7.88797 15.8097C8.19009 15.8259 8.49198 15.8421 8.79462 15.8579C10.9231 15.9687 13.1355 16.0598 15.8799 15.9894L15.9284 15.9882L15.9768 15.9896C20.9004 16.1328 24.869 16.133 29.1265 16.133L41.5067 16.133C42.4442 16.133 43.2041 16.8612 43.2041 17.7594Z" fill="#4556EB"/>
</svg>
