<?xml version="1.0" encoding="UTF-8" standalone="no"?>
<svg
   width="34.534561"
   height="34.534504"
   viewBox="0 0 34.534561 34.534504"
   fill="none"
   version="1.1"
   id="svg2"
   sodipodi:docname="menu-close-green.svg"
   inkscape:version="1.4 (e7c3feb100, 2024-10-09)"
   xmlns:inkscape="http://www.inkscape.org/namespaces/inkscape"
   xmlns:sodipodi="http://sodipodi.sourceforge.net/DTD/sodipodi-0.dtd"
   xmlns="http://www.w3.org/2000/svg"
   xmlns:svg="http://www.w3.org/2000/svg">
  <defs
     id="defs2" />
  <sodipodi:namedview
     id="namedview2"
     pagecolor="#ffffff"
     bordercolor="#000000"
     borderopacity="0.25"
     inkscape:showpageshadow="2"
     inkscape:pageopacity="0.0"
     inkscape:pagecheckerboard="0"
     inkscape:deskcolor="#d1d1d1"
     inkscape:zoom="21.621622"
     inkscape:cx="17.205"
     inkscape:cy="16.78875"
     inkscape:window-width="1920"
     inkscape:window-height="1011"
     inkscape:window-x="0"
     inkscape:window-y="0"
     inkscape:window-maximized="1"
     inkscape:current-layer="svg2" />
  <path
     fill-rule="evenodd"
     clip-rule="evenodd"
     d="m 15.473535,20.623455 c -1.0455,1.1248 -2.1004,2.2598 -3.1268,3.2862 l -9.80322,9.8032 c -0.58187,0.5819 -1.52525,0.5819 -2.10712,0 -0.58186,-0.5818 -0.58186,-1.5252 0,-2.1071 l 9.80314,-9.8032 c 1.0046,-1.0046 1.9763,-2.0509 2.9804,-3.1321 0.6784,-0.7306 1.3716,-1.477 2.0997,-2.2373 1.757,-1.8345 3.6332,-3.655 5.6773,-5.1217 3.1036,-2.227 5.5749,-4.8001 8.2094,-7.54306 0.8987,-0.93575 1.8164,-1.89127 2.7847,-2.85955 0.5819,-0.58186 1.5252,-0.58186 2.1071,0 0.5819,0.58186 0.5819,1.52525 0,2.10711 -0.8738,0.87382 -1.7341,1.77003 -2.5998,2.6718 -2.6832,2.7951 -5.4178,5.6436 -8.7642,8.0448 -1.8166,1.3035 -3.5411,2.9645 -5.2624,4.7618 -0.6553,0.6842 -1.3248,1.4045 -1.9982,2.1291 z"
     fill="#4556EB"
     id="path1"
     style="fill:#34af42;fill-opacity:1" />
  <path
     fill-rule="evenodd"
     clip-rule="evenodd"
     d="m 33.625535,34.098155 c -0.5819,0.5818 -1.5252,0.5818 -2.1071,0 l -9.8032,-9.8032 c -3.3621,-3.3621 -6.53,-6.5301 -10.3366,-10.574 -2.3139,-2.1956 -4.05297,-4.0924 -5.66228,-5.88664 -0.23295,-0.25972 -0.46264,-0.51667 -0.69057,-0.77165 -1.35797,-1.51912 -2.65346,-2.96835 -4.20427,-4.51916 -0.58186,-0.58186 -0.58186,-1.52525 0,-2.10711 0.58186,-0.58186 1.52525,-0.58186 2.10712,0 1.61433,1.61433 2.96951,3.13057 4.32648,4.6488 0.22608,0.25294 0.45221,0.50594 0.67959,0.75945 1.59653,1.78006 3.28183,3.61671 5.52493,5.74301 l 0.0309,0.0293 0.0292,0.0309 c 3.785,4.0221 6.9314,7.1688 10.3026,10.54 l 9.8032,9.8032 c 0.5819,0.5818 0.5819,1.5252 0,2.1071 z"
     fill="#4556EB"
     id="path2"
     style="fill:#34af42;fill-opacity:1" />
</svg>
