<svg width="37" height="37" viewBox="0 0 37 37" fill="none" xmlns="http://www.w3.org/2000/svg">
<path fill-rule="evenodd" clip-rule="evenodd" d="M16.7492 22.3204C15.7037 23.4452 14.6488 24.5802 13.6224 25.6066L3.81918 35.4098C3.23731 35.9917 2.29393 35.9917 1.71206 35.4098C1.1302 34.828 1.1302 33.8846 1.71206 33.3027L11.5152 23.4995C12.5198 22.4949 13.4915 21.4486 14.4956 20.3674C15.174 19.6368 15.8672 18.8904 16.5953 18.1301C18.3523 16.2956 20.2285 14.4751 22.2726 13.0084C25.3762 10.7814 27.8475 8.2083 30.482 5.46534C31.3807 4.52959 32.2984 3.57407 33.2667 2.60579C33.8486 2.02393 34.7919 2.02393 35.3738 2.60579C35.9557 3.18765 35.9557 4.13104 35.3738 4.7129C34.5 5.58672 33.6397 6.48293 32.774 7.3847C30.0908 10.1798 27.3562 13.0283 24.0098 15.4295C22.1932 16.733 20.4687 18.394 18.7474 20.1913C18.0921 20.8755 17.4226 21.5958 16.7492 22.3204Z" fill="#4556EB"/>
<path fill-rule="evenodd" clip-rule="evenodd" d="M34.9012 35.7951C34.3193 36.3769 33.376 36.3769 32.7941 35.7951L22.9909 25.9919C19.6288 22.6298 16.4609 19.4618 12.6543 15.4179C10.3404 13.2223 8.60133 11.3255 6.99202 9.53126C6.75907 9.27154 6.52938 9.01459 6.30145 8.75961C4.94348 7.24049 3.64799 5.79126 2.09718 4.24045C1.51532 3.65859 1.51532 2.7152 2.09718 2.13334C2.67904 1.55148 3.62243 1.55148 4.2043 2.13334C5.81863 3.74767 7.17381 5.26391 8.53078 6.78214C8.75686 7.03508 8.98299 7.28808 9.21037 7.54159C10.8069 9.32165 12.4922 11.1583 14.7353 13.2846L14.7662 13.3139L14.7954 13.3448C18.5804 17.3669 21.7268 20.5136 25.098 23.8848L34.9012 33.688C35.4831 34.2698 35.4831 35.2132 34.9012 35.7951Z" fill="#4556EB"/>
</svg>
