<?xml version="1.0" encoding="UTF-8" standalone="no"?>
<!-- Created with Inkscape (http://www.inkscape.org/) -->

<svg
   width="18.520828mm"
   height="9.9217148mm"
   viewBox="0 0 18.520828 9.9217148"
   version="1.1"
   id="svg1"
   xml:space="preserve"
   inkscape:version="1.3.2 (091e20ef0f, 2023-11-25)"
   sodipodi:docname="normal-mode.svg"
   xmlns:inkscape="http://www.inkscape.org/namespaces/inkscape"
   xmlns:sodipodi="http://sodipodi.sourceforge.net/DTD/sodipodi-0.dtd"
   xmlns="http://www.w3.org/2000/svg"
   xmlns:svg="http://www.w3.org/2000/svg"><sodipodi:namedview
     id="namedview1"
     pagecolor="#ffffff"
     bordercolor="#000000"
     borderopacity="0.25"
     inkscape:showpageshadow="2"
     inkscape:pageopacity="0.0"
     inkscape:pagecheckerboard="0"
     inkscape:deskcolor="#d1d1d1"
     inkscape:document-units="mm"
     inkscape:zoom="3.7889536"
     inkscape:cx="49.881845"
     inkscape:cy="22.829522"
     inkscape:window-width="1920"
     inkscape:window-height="1011"
     inkscape:window-x="0"
     inkscape:window-y="0"
     inkscape:window-maximized="1"
     inkscape:current-layer="layer1" /><defs
     id="defs1" /><g
     inkscape:label="Vrstva 1"
     inkscape:groupmode="layer"
     id="layer1"
     transform="translate(-95.888654,-143.53915)"><g
       style="fill:none"
       id="g1"
       transform="matrix(0.26458333,0,0,0.26458333,95.844212,143.33425)"><path
         fill-rule="evenodd"
         clip-rule="evenodd"
         d="M 26.3858,3.99526 26.3205,4.00219 H 26.2549 C 22.9123,4.00218 19.4383,3.85877 16.029,3.71681 L 15.9352,3.7129 C 12.5963,3.57387 9.32302,3.43757 6.24609,3.43369 5.31003,3.6399 4.66391,3.80261 4.19096,3.98124 3.71267,4.16188 3.53042,4.31663 3.43536,4.43749 3.33727,4.5622 3.22206,4.79095 3.14579,5.33091 3.06781,5.883 3.04659,6.62746 3.04659,7.70574 c 0,2.83896 -0.09741,5.67526 -0.19406,8.48936 l -6.6e-4,0.0194 c -0.09711,2.8276 -0.19324,5.6331 -0.19325,8.4399 0,0 0,10e-5 0,0 l 5.8e-4,5.8931 c 9e-5,1.3084 0.19831,2.509 0.49704,3.3437 0.15096,0.4218 0.30455,0.685 0.41876,0.8211 0.00935,0.0112 0.01777,0.0208 0.02525,0.0289 2.21559,0.0747 3.93762,0.0508 5.83628,0.0245 1.04307,-0.0144 2.13947,-0.0296 3.40027,-0.0296 1.0042,0 1.997,-0.0337 3.0203,-0.0685 0.6724,-0.0228 1.3579,-0.0461 2.0685,-0.0605 1.7431,-0.0355 3.5421,-0.0129 5.3028,0.2382 5.1665,0.737 10.9562,0.7624 16.3312,0.7624 2.2688,0 4.1705,0.0471 5.9569,0.0912 3.2566,0.0806 6.1302,0.1517 10.1472,-0.089 l 0.037,-0.0022 h 11.0206 c 0.3025,0 0.4197,-0.0842 0.4838,-0.1448 0.0935,-0.0885 0.2078,-0.2659 0.3004,-0.5963 0.1751,-0.6252 0.1721,-1.3767 0.1693,-2.0673 -3e-4,-0.0849 -6e-4,-0.1688 -6e-4,-0.2514 0,-1.864 -0.0951,-3.7114 -0.1924,-5.5911 l -0.0015,-0.0296 c -0.0962,-1.8597 -0.1941,-3.7521 -0.1941,-5.6624 0,-1.3838 -0.1294,-2.8185 -0.266,-4.3323 C 66.9685,16.3591 66.9158,15.7744 66.8687,15.1768 66.7019,13.0613 66.6126,10.8322 67.0059,8.73371 67.2371,7.50033 66.7357,6.12828 65.8054,5.02461 65.35,4.48431 64.8281,4.05548 64.3245,3.77785 63.8097,3.49405 63.3896,3.40812 63.11,3.42987 59.526,3.7086 53.7146,4.00422 45.2642,3.43076 41.1514,3.15166 36.4379,3.2905 32.7305,3.50265 30.8816,3.60845 29.2924,3.7319 28.1664,3.82882 27.6035,3.87727 27.1566,3.91905 26.8513,3.94865 26.6987,3.96344 26.5814,3.97519 26.5028,3.98319 l -0.0887,0.0091 z M 32.5887,1.0067 c 3.7446,-0.214275 8.5778,-0.359726 12.8435,-0.070247 8.3065,0.563697 13.9949,0.272347 17.4854,8.88e-4 0.9111,-0.070857 1.8188,0.215389 2.6058,0.649239 0.7982,0.44001 1.5521,1.07429 2.1834,1.82327 1.2432,1.47488 2.1591,3.58604 1.7468,5.78603 -0.3281,1.75112 -0.2665,3.69842 -0.102,5.78372 0.0417,0.5298 0.0907,1.0729 0.1404,1.6227 0.14,1.552 0.2848,3.1566 0.2848,4.6625 0,1.8447 0.0951,3.6822 0.1924,5.5623 0.0967,1.8695 0.1956,3.7817 0.1956,5.7208 0,0.0648 6e-4,0.1384 0.0013,0.2196 0.0057,0.6492 0.0154,1.7818 -0.263,2.7757 -0.1623,0.5797 -0.4503,1.2287 -0.9899,1.7391 -0.569,0.5383 -1.3158,0.8254 -2.1919,0.8254 H 55.7749 c -4.0929,0.2437 -7.1281,0.1696 -10.4493,0.0885 -1.7725,-0.0432 -3.6264,-0.0885 -5.766,-0.0885 -5.3465,0 -11.3121,-0.0213 -16.6816,-0.7872 -1.5608,-0.2227 -3.2015,-0.2485 -4.902,-0.214 -0.6345,0.013 -1.293,0.0351 -1.9583,0.0574 -1.0666,0.0358 -2.1506,0.0722 -3.1809,0.0722 -1.1883,0 -2.2558,0.0146 -3.2892,0.0287 C 7.57074,37.2919 5.71883,37.3172 3.38585,37.2353 2.61243,37.2081 2.04026,36.7643 1.66968,36.3224 1.29665,35.8777 1.01931,35.315 0.81224,34.7364 0.394906,33.5703 0.168656,32.0722 0.168547,30.5477 c 0,0 0,0 0,0 l -5.78e-4,-5.893 c 0,-2.8564 0.097807,-5.7045 0.194657,-8.5245 l 6.5e-5,-0.0019 C 0.459809,13.3005 0.555935,10.5009 0.555935,7.70574 0.555935,6.63857 0.57398,5.72917 0.679797,4.97998 0.787328,4.21867 1.00044,3.49875 1.48046,2.88841 1.96351,2.27423 2.60916,1.90754 3.31382,1.6414 4.00211,1.38144 4.85601,1.1787 5.8472,0.962192 L 5.97807,0.933606 H 6.112 c 3.16788,-1e-6 6.5316,0.140074 9.8986,0.280294 l 0.1217,0.00506 c 3.3961,0.14141 6.7959,0.28139 10.0586,0.28321 l 0.0608,-0.00625 c 0.0824,-0.00838 0.2035,-0.02051 0.3602,-0.0357 0.3134,-0.03037 0.7691,-0.07298 1.3417,-0.12226 1.1448,-0.09853 2.758,-0.22384 4.6351,-0.33126 z"
         fill="#4556eb"
         id="path1" /></g><g
       style="fill:none"
       id="g2"
       transform="matrix(0.26458333,0,0,0.26458333,101.55958,145.0823)"><path
         d="m -13.714869,4.3130111 c 0,4.13356 -0.337143,8.2698599 -0.337143,12.4205599 l 5.02e-4,4.3186 c 1.71e-4,2.076 -0.675381,3.9855 1.751451,3.9855 l 12.65049977,0.6387 H 9.8949408 c 1.1312002,-0.3572 1.3108002,-2.0901 1.3108002,-3.0714 0,-2.7872 0.2623,-5.5963 0.2623,-8.3555 0,-2.8926 -0.2623,-5.7984599 -0.2623,-9.0137899 -0.1041,-3.9194 -2.4631002,-5.10517704 -4.5326002,-4.96945004 -2.0695,0.135727 -13.16904,-0.639746 -16.64203,0 -3.4729998,0.639746 -3.7459798,0.90228004 -3.7459798,4.04678004 z"
         fill="#4556eb"
         id="path1-6" /></g><g
       style="fill:none"
       id="g3"
       transform="matrix(0.26458333,0,0,0.26458333,101.84929,146.57828)"><path
         fill-rule="evenodd"
         clip-rule="evenodd"
         d="M 2.08674,0.0711265 C 2.77407,0.0958002 3.31134,0.675089 3.28676,1.365 3.24676,2.48773 3.17198,3.37765 3.10246,4.20511 3.09158,4.33449 3.08084,4.46235 3.07038,4.58933 2.99319,5.52623 2.92913,6.43693 2.92913,7.64304 c 0,0.69036 -0.55755,1.25 -1.24533,1.25 -0.687771,0 -1.245323,-0.55964 -1.245323,-1.25 0,-1.30587 0.070184,-2.29437 0.149721,-3.25975 C 0.599046,4.25162 0.610026,4.12079 0.621012,3.98989 0.690393,3.16325 0.759984,2.33409 0.797696,1.27565 0.822277,0.585738 1.3994,0.0464529 2.08674,0.0711265 Z"
         fill="#f3f4f6"
         id="path1-2" /></g><g
       style="fill:none"
       id="g4"
       transform="matrix(0.26458333,0,0,0.26458333,99.850468,146.55704)"><path
         fill-rule="evenodd"
         clip-rule="evenodd"
         d="m 1.64219,0.0703125 c 0.68777,0 1.24533,0.5596445 1.24533,1.2499975 0,1.8135 -0.11463,4.01638 -0.21223,5.77736 C 2.63709,7.78696 2.04943,8.31466 1.36271,8.27631 0.675999,8.23796 0.150277,7.6481 0.18848,6.95881 0.286564,5.18911 0.39686,3.05373 0.39686,1.32031 c 0,-0.690353 0.557553,-1.2499975 1.24533,-1.2499975 z"
         fill="#f3f4f6"
         id="path1-3" /></g><g
       style="fill:none"
       id="g5"
       transform="matrix(0.26458333,0,0,0.26458333,98.753878,149.26541)"><path
         fill-rule="evenodd"
         clip-rule="evenodd"
         d="M 18.336,0.300462 C 18.9371,0.63608 19.1532,1.39721 18.8189,2.00049 17.9761,3.52116 16.1191,5.02465 14.0008,5.8945 11.8691,6.76989 9.97658,6.94638 7.8234,6.60844 L 7.75096,6.59707 7.68035,6.57725 C 5.63529,6.00313 4.34011,5.46208 3.28505,4.80176 2.44827,4.27805 1.78124,3.68464 1.07221,3.05388 0.91168,2.91106 0.748992,2.76633 0.581694,2.62006 0.0630754,2.16663 0.00885952,1.37705 0.4606,0.85648 0.91234,0.335915 1.69897,0.281496 2.21759,0.734931 2.42407,0.915455 2.61138,1.08167 2.78547,1.23615 3.47612,1.84902 3.95851,2.27709 4.60284,2.68036 5.37105,3.16115 6.40164,3.6181 8.27957,4.14946 9.97688,4.406 11.3919,4.26473 13.0578,3.58065 14.8172,2.85814 16.1501,1.67335 16.6424,0.785116 16.9767,0.181831 17.735,-0.0351556 18.336,0.300462 Z"
         fill="#f3f4f6"
         id="path1-26" /></g></g></svg>
