<?xml version="1.0" encoding="UTF-8" standalone="no"?>
<svg
   width="51"
   height="51"
   viewBox="0 0 51 51"
   fill="none"
   version="1.1"
   id="svg3"
   sodipodi:docname="pause.svg"
   inkscape:version="1.4 (e7c3feb100, 2024-10-09)"
   xmlns:inkscape="http://www.inkscape.org/namespaces/inkscape"
   xmlns:sodipodi="http://sodipodi.sourceforge.net/DTD/sodipodi-0.dtd"
   xmlns="http://www.w3.org/2000/svg"
   xmlns:svg="http://www.w3.org/2000/svg">
  <defs
     id="defs3" />
  <sodipodi:namedview
     id="namedview3"
     pagecolor="#ffffff"
     bordercolor="#000000"
     borderopacity="0.25"
     inkscape:showpageshadow="2"
     inkscape:pageopacity="0.0"
     inkscape:pagecheckerboard="0"
     inkscape:deskcolor="#d1d1d1"
     inkscape:zoom="15.686275"
     inkscape:cx="25.5"
     inkscape:cy="25.5"
     inkscape:window-width="1920"
     inkscape:window-height="1011"
     inkscape:window-x="0"
     inkscape:window-y="0"
     inkscape:window-maximized="1"
     inkscape:current-layer="svg3" />
  <path
     fill-rule="evenodd"
     clip-rule="evenodd"
     d="M25.8199 3.96544C20.8609 3.83611 16.0161 3.70977 11.2304 4.09257C9.88427 4.20024 8.4135 4.34388 7.10565 4.6931C5.76206 5.05186 4.90266 5.54869 4.47052 6.13199C4.31483 6.34215 4.13342 6.76142 4.00594 7.49284C3.88242 8.2015 3.83398 9.05285 3.82961 10.0031C3.82582 10.8272 3.85465 11.6688 3.88354 12.5123C3.88791 12.6398 3.89228 12.7673 3.89654 12.8948C3.92793 13.8352 3.95461 14.8026 3.90912 15.6305C3.68259 19.7537 3.68233 24.3245 3.73995 27.8804C3.7687 29.6549 3.81173 31.1693 3.84753 32.2394C3.86543 32.7743 3.88152 33.1978 3.89309 33.4868C3.89888 33.6314 3.90354 33.7423 3.90673 33.8166L3.91039 33.9004L3.91153 33.926L3.91351 33.9694V34.0116C3.91351 35.7062 3.92459 37.8303 4.12697 39.8952C4.33095 41.9765 4.7121 43.7809 5.33039 44.9782C5.36187 45.0029 5.45293 45.0661 5.65486 45.1457C6.01751 45.2885 6.53474 45.4023 7.17475 45.4772C8.23596 45.6015 9.33591 45.5919 10.17 45.5846C10.3493 45.583 10.5164 45.5815 10.6681 45.5815H16.4225C18.2162 45.5815 20.0047 45.6959 21.7299 45.8062L21.7733 45.809C23.5319 45.9215 25.2273 46.0289 26.9184 46.0289C27.1454 46.0289 27.3763 46.028 27.6108 46.027C29.1444 46.0205 30.827 46.0134 32.5184 46.2743C33.9502 46.4952 35.3633 46.4527 36.8998 46.3364C37.2612 46.3091 37.6366 46.2767 38.0226 46.2435C39.2173 46.1406 40.5136 46.0289 41.8107 46.0289C43.124 46.0289 43.9248 45.7686 44.4289 45.4564C44.9153 45.1553 45.2749 44.7142 45.5478 44.0611C46.1575 42.6017 46.1945 40.5063 46.1945 37.8145C46.1945 34.9983 46.2337 32.2259 46.2726 29.4745C46.3494 24.0464 46.4251 18.6999 46.1961 13.2607C46.1099 11.2114 45.998 9.10693 45.4553 7.3968C44.9325 5.74954 44.1372 4.8282 42.8508 4.5195C40.6341 3.98758 38.3419 4.02775 35.7953 4.07237C35.0609 4.08524 34.3054 4.09848 33.5244 4.09848C30.9215 4.09848 28.3558 4.03157 25.8199 3.96544ZM0.205665 34.0527L0.202296 33.9754C0.198953 33.8976 0.194144 33.7831 0.188207 33.6349C0.176333 33.3384 0.159945 32.9068 0.141752 32.3631C0.105375 31.276 0.0617408 29.7399 0.0325834 27.9404C-0.0256164 24.3485 -0.0266805 19.678 0.20684 15.4276C0.241949 14.7885 0.222918 13.9818 0.190747 13.0182C0.186676 12.8963 0.182411 12.7722 0.178081 12.6462C0.149285 11.8084 0.117654 10.888 0.121802 9.98606C0.126568 8.95007 0.177839 7.86272 0.353037 6.85755C0.524268 5.87512 0.840581 4.8054 1.49005 3.92874C2.66824 2.33841 4.51546 1.55089 6.14812 1.11494C7.81653 0.669439 9.59166 0.507995 10.9344 0.400589C15.9081 0.00275622 21.1061 0.136562 26.1886 0.267394C28.6748 0.331393 31.1333 0.39468 33.5244 0.39468C34.1441 0.39468 34.7922 0.382353 35.4603 0.369647C38.0735 0.319943 40.9926 0.264423 43.7168 0.918159C46.7495 1.64589 48.2522 3.95344 48.9898 6.27752C49.7074 8.53875 49.8183 11.1481 49.9007 13.1051C50.1338 18.6437 50.0561 24.1756 49.9788 29.6691C49.9405 32.395 49.9023 35.1114 49.9023 37.8145C49.9023 37.8719 49.9023 37.9296 49.9024 37.9876C49.9029 40.3981 49.9035 43.252 48.9696 45.4875C48.4594 46.7088 47.6478 47.821 46.3823 48.6045C45.1346 49.377 43.6029 49.7327 41.8107 49.7327C40.6874 49.7327 39.6189 49.8246 38.4672 49.9235C38.0512 49.9593 37.6243 49.996 37.18 50.0296C35.5628 50.152 33.8109 50.2214 31.9525 49.9347C30.5719 49.7218 29.2077 49.7262 27.6543 49.7312C27.4138 49.7319 27.1688 49.7327 26.9184 49.7327C25.0938 49.7327 23.285 49.6171 21.5493 49.5061L21.5365 49.5052C19.7769 49.3927 18.0925 49.2853 16.4225 49.2853H10.6681C10.5598 49.2853 10.4271 49.2867 10.2743 49.2882C9.45729 49.2965 8.06518 49.3107 6.74301 49.1558C5.95365 49.0634 5.08044 48.9008 4.2947 48.5913C3.53608 48.2925 2.60639 47.7567 2.07782 46.7579C1.09421 44.8991 0.654394 42.4766 0.436763 40.2561C0.216545 38.0092 0.205824 35.7394 0.205665 34.0527Z"
     fill="#4556EB"
     id="path1" />
  <path
     fill-rule="evenodd"
     clip-rule="evenodd"
     d="m 32.03946,23.161519 c -0.04789,-1.01613 -0.09651,-2.0476 -0.09622,-3.006631 l 0.0027,-9.131652 c 2.04e-4,-0.69145 0.728519,-1.2518662 1.626739,-1.2517223 0.898219,1.438e-4 1.626205,0.5607933 1.626001,1.2522433 l -0.0027,9.131652 c -2.75e-4,0.933067 0.04418,1.86238 0.09039,2.827983 0.03142,0.656693 0.06364,1.330203 0.08314,2.033067 0.04655,1.677463 0.01301,3.419159 -0.342162,5.079371 -0.525437,2.456059 -0.465512,4.771403 -0.400884,7.268419 0.02222,0.858499 0.045,1.738537 0.04473,2.653164 -2.04e-4,0.691428 -0.728525,1.251816 -1.626735,1.251672 -0.89822,-1.44e-4 -1.626215,-0.560765 -1.626011,-1.252193 2.36e-4,-0.802364 -0.02107,-1.612993 -0.04259,-2.431736 -0.0672,-2.556982 -0.136461,-5.192374 0.441974,-7.896185 0.30551,-1.428024 0.345019,-2.984949 0.29968,-4.618966 -0.01706,-0.614574 -0.0474,-1.258358 -0.07805,-1.908486 z"
     fill="#4556eb"
     id="path1-3"
     style="stroke-width:0.858838" />
  <path
     fill-rule="evenodd"
     clip-rule="evenodd"
     d="m 17.622236,41.047916 c -0.8982,-1.43e-4 -1.626135,-0.560765 -1.625931,-1.252266 l 0.0027,-9.131667 c 9.21e-4,-3.129574 0.0018,-6.082271 0.146366,-9.739649 -0.07088,-2.10749 0.02552,-3.807058 0.137887,-5.393034 0.01637,-0.230217 0.03293,-0.457344 0.0494,-0.682495 0.0979,-1.340105 0.190668,-2.610315 0.191091,-4.04676 2.04e-4,-0.69145 0.728469,-1.2518642 1.626769,-1.2517204 0.8982,1.431e-4 1.626135,0.5607914 1.625931,1.2522414 -4.45e-4,1.511923 -0.09884,2.85742 -0.196835,4.196396 -0.01627,0.222842 -0.03253,0.445515 -0.0484,0.668739 -0.111262,1.569955 -0.202842,3.201813 -0.133038,5.2261 l 0.0012,0.03577 -0.0014,0.0357 c -0.144269,3.631637 -0.14533,6.558885 -0.146254,9.699227 l -0.0027,9.131667 c -2.03e-4,0.691503 -0.728568,1.251891 -1.626768,1.251746 z"
     fill="#4556eb"
     id="path3"
     style="stroke-width:0.858838" />
</svg>
