<svg width="51" height="51" viewBox="0 0 51 51" fill="none" xmlns="http://www.w3.org/2000/svg">
<path fill-rule="evenodd" clip-rule="evenodd" d="M25.8199 3.96544C20.8609 3.83611 16.0161 3.70977 11.2304 4.09257C9.88427 4.20024 8.4135 4.34388 7.10565 4.6931C5.76206 5.05186 4.90266 5.54869 4.47052 6.13199C4.31483 6.34215 4.13342 6.76142 4.00594 7.49284C3.88242 8.2015 3.83398 9.05285 3.82961 10.0031C3.82582 10.8272 3.85465 11.6688 3.88354 12.5123C3.88791 12.6398 3.89228 12.7673 3.89654 12.8948C3.92793 13.8352 3.95461 14.8026 3.90912 15.6305C3.68259 19.7537 3.68233 24.3245 3.73995 27.8804C3.7687 29.6549 3.81173 31.1693 3.84753 32.2394C3.86543 32.7743 3.88152 33.1978 3.89309 33.4868C3.89888 33.6314 3.90354 33.7423 3.90673 33.8166L3.91039 33.9004L3.91153 33.926L3.91351 33.9694V34.0116C3.91351 35.7062 3.92459 37.8303 4.12697 39.8952C4.33095 41.9765 4.7121 43.7809 5.33039 44.9782C5.36187 45.0029 5.45293 45.0661 5.65486 45.1457C6.01751 45.2885 6.53474 45.4023 7.17475 45.4772C8.23596 45.6015 9.33591 45.5919 10.17 45.5846C10.3493 45.583 10.5164 45.5815 10.6681 45.5815H16.4225C18.2162 45.5815 20.0047 45.6959 21.7299 45.8062L21.7733 45.809C23.5319 45.9215 25.2273 46.0289 26.9184 46.0289C27.1454 46.0289 27.3763 46.028 27.6108 46.027C29.1444 46.0205 30.827 46.0134 32.5184 46.2743C33.9502 46.4952 35.3633 46.4527 36.8998 46.3364C37.2612 46.3091 37.6366 46.2767 38.0226 46.2435C39.2173 46.1406 40.5136 46.0289 41.8107 46.0289C43.124 46.0289 43.9248 45.7686 44.4289 45.4564C44.9153 45.1553 45.2749 44.7142 45.5478 44.0611C46.1575 42.6017 46.1945 40.5063 46.1945 37.8145C46.1945 34.9983 46.2337 32.2259 46.2726 29.4745C46.3494 24.0464 46.4251 18.6999 46.1961 13.2607C46.1099 11.2114 45.998 9.10693 45.4553 7.3968C44.9325 5.74954 44.1372 4.8282 42.8508 4.5195C40.6341 3.98758 38.3419 4.02775 35.7953 4.07237C35.0609 4.08524 34.3054 4.09848 33.5244 4.09848C30.9215 4.09848 28.3558 4.03157 25.8199 3.96544ZM0.205665 34.0527L0.202296 33.9754C0.198953 33.8976 0.194144 33.7831 0.188207 33.6349C0.176333 33.3384 0.159945 32.9068 0.141752 32.3631C0.105375 31.276 0.0617408 29.7399 0.0325834 27.9404C-0.0256164 24.3485 -0.0266805 19.678 0.20684 15.4276C0.241949 14.7885 0.222918 13.9818 0.190747 13.0182C0.186676 12.8963 0.182411 12.7722 0.178081 12.6462C0.149285 11.8084 0.117654 10.888 0.121802 9.98606C0.126568 8.95007 0.177839 7.86272 0.353037 6.85755C0.524268 5.87512 0.840581 4.8054 1.49005 3.92874C2.66824 2.33841 4.51546 1.55089 6.14812 1.11494C7.81653 0.669439 9.59166 0.507995 10.9344 0.400589C15.9081 0.00275622 21.1061 0.136562 26.1886 0.267394C28.6748 0.331393 31.1333 0.39468 33.5244 0.39468C34.1441 0.39468 34.7922 0.382353 35.4603 0.369647C38.0735 0.319943 40.9926 0.264423 43.7168 0.918159C46.7495 1.64589 48.2522 3.95344 48.9898 6.27752C49.7074 8.53875 49.8183 11.1481 49.9007 13.1051C50.1338 18.6437 50.0561 24.1756 49.9788 29.6691C49.9405 32.395 49.9023 35.1114 49.9023 37.8145C49.9023 37.8719 49.9023 37.9296 49.9024 37.9876C49.9029 40.3981 49.9035 43.252 48.9696 45.4875C48.4594 46.7088 47.6478 47.821 46.3823 48.6045C45.1346 49.377 43.6029 49.7327 41.8107 49.7327C40.6874 49.7327 39.6189 49.8246 38.4672 49.9235C38.0512 49.9593 37.6243 49.996 37.18 50.0296C35.5628 50.152 33.8109 50.2214 31.9525 49.9347C30.5719 49.7218 29.2077 49.7262 27.6543 49.7312C27.4138 49.7319 27.1688 49.7327 26.9184 49.7327C25.0938 49.7327 23.285 49.6171 21.5493 49.5061L21.5365 49.5052C19.7769 49.3927 18.0925 49.2853 16.4225 49.2853H10.6681C10.5598 49.2853 10.4271 49.2867 10.2743 49.2882C9.45729 49.2965 8.06518 49.3107 6.74301 49.1558C5.95365 49.0634 5.08044 48.9008 4.2947 48.5913C3.53608 48.2925 2.60639 47.7567 2.07782 46.7579C1.09421 44.8991 0.654394 42.4766 0.436763 40.2561C0.216545 38.0092 0.205824 35.7394 0.205665 34.0527Z" fill="#4556EB"/>
<path d="M14.0375 25.9311C14.0375 22.8083 14.8353 20.7622 14.8353 17.6073V15.9543C14.8353 14.911 14.8707 14.5978 15.4263 14.1538C15.7595 13.8875 16.6618 13.8291 17.0959 13.8291C18.2579 13.8291 19.3865 14.3819 20.5531 14.6408C21.8607 14.9311 23.2058 15.6425 24.3628 16.2544L24.4093 16.279C25.6767 16.9492 27.1116 17.066 28.3985 17.6073C29.9654 18.2663 31.2343 20.0084 32.8014 20.4557C34.192 20.8526 35.4991 22.141 36.761 22.8613C37.5904 23.3348 39.4731 24.7834 37.8664 25.9311C34.994 27.5069 34.0947 27.3143 32.8014 28.1877C29.8332 29.5008 28.6465 29.9829 26.005 31.1556C23.377 32.3224 20.7307 33.2281 17.9085 34.0335C17.0949 34.2657 14.6498 34.8522 14.5694 33.4875C14.5289 32.7995 14.646 30.3289 14.2444 29.8274C13.6516 29.0873 14.0375 26.9053 14.0375 25.9311Z" fill="#4556EB"/>
<path fill-rule="evenodd" clip-rule="evenodd" d="M16.0884 12.9856C16.4662 12.9293 16.8473 12.9131 17.0964 12.9131C17.8151 12.9131 18.4922 13.0835 19.0852 13.26C19.286 13.3197 19.4724 13.3783 19.6505 13.4343C20.0355 13.5554 20.382 13.6644 20.7527 13.7466C22.1819 14.0639 23.6176 14.8234 24.7415 15.4179L24.7926 15.4449L24.8391 15.4695C24.8391 15.4695 24.8391 15.4695 24.8391 15.4695C25.3727 15.7517 25.9593 15.9268 26.6335 16.1064C26.715 16.1282 26.7983 16.15 26.883 16.1723C27.47 16.3266 28.1284 16.4996 28.755 16.7631C29.6085 17.122 30.3712 17.7429 31.0064 18.26C31.0647 18.3074 31.1218 18.3539 31.1779 18.3993C31.9076 18.9899 32.478 19.4106 33.0539 19.5749C33.9085 19.8188 34.6906 20.3201 35.3572 20.7877C35.5702 20.9371 35.7695 21.0813 35.9597 21.219C36.4091 21.5442 36.8079 21.8327 37.2166 22.0661C37.6762 22.3284 38.5018 22.8956 38.9932 23.6387C39.2455 24.0202 39.4715 24.5424 39.3996 25.1432C39.3243 25.7717 38.9486 26.2855 38.4006 26.677L38.3563 26.7087L38.3086 26.7349C36.8135 27.555 35.8196 27.9203 35.0425 28.1892C34.9897 28.2075 34.9384 28.2252 34.8886 28.2424C34.2114 28.4759 33.8078 28.6151 33.3157 28.9474L33.248 28.9931L33.1734 29.0261C31.695 29.6802 30.657 30.1287 29.6645 30.5577L29.6455 30.5659C28.6479 30.997 27.6944 31.4092 26.3781 31.9936C23.7012 33.182 21.0127 34.1013 18.161 34.9152C17.7405 35.0352 16.8254 35.2703 15.9709 35.2762C15.5522 35.2792 15.0343 35.2298 14.5834 34.9924C14.0656 34.7199 13.6942 34.2247 13.654 33.5417C13.6428 33.3518 13.642 33.0643 13.6412 32.7681C13.6412 32.7451 13.6411 32.7221 13.641 32.699C13.64 32.3621 13.6383 31.9862 13.6258 31.619C13.6133 31.2477 13.5904 30.9104 13.5517 30.6481C13.5323 30.5168 13.5118 30.4243 13.4941 30.3656C13.4922 30.3593 13.4904 30.3538 13.4889 30.349C13.2171 29.9825 13.1073 29.5379 13.0546 29.1757C12.9962 28.7754 12.9902 28.3422 13.0021 27.9405C13.0138 27.5432 13.0443 27.1422 13.0706 26.7974L13.0721 26.7777C13.1 26.4117 13.1205 26.1324 13.1205 25.9316C13.1205 24.3039 13.3279 22.9561 13.5256 21.6713L13.5301 21.6424C13.7298 20.3445 13.9184 19.1072 13.9184 17.6077V15.9548C13.9184 15.4681 13.9198 14.986 14.0432 14.5697C14.1924 14.066 14.4873 13.7314 14.8537 13.4386C15.0663 13.2687 15.3099 13.1735 15.4949 13.116C15.6925 13.0546 15.8994 13.0138 16.0884 12.9856ZM13.4802 30.3256C13.4802 30.3256 13.4807 30.3267 13.4817 30.329L13.4802 30.3256ZM15.9765 14.8888C15.8225 15.0152 15.8107 15.0598 15.8042 15.0845C15.8037 15.0864 15.8032 15.0882 15.8027 15.0899C15.7695 15.202 15.7533 15.3981 15.7533 15.9548V17.6077C15.7533 19.2592 15.5439 20.6199 15.3451 21.9117L15.3437 21.9209C15.1438 23.2199 14.9555 24.4485 14.9555 25.9316C14.9555 26.2127 14.9287 26.5639 14.9032 26.8988L14.9018 26.9168C14.8746 27.2733 14.8466 27.6401 14.8362 27.9944C14.8257 28.3525 14.8343 28.6645 14.8704 28.9118C14.9054 29.1524 14.9542 29.2421 14.9608 29.2541C14.9612 29.2547 14.9615 29.2555 14.9608 29.2541C15.1184 29.4509 15.2023 29.6754 15.2508 29.8361C15.3037 30.0112 15.3403 30.1994 15.367 30.381C15.4206 30.7445 15.4463 31.1618 15.4597 31.5569C15.4733 31.956 15.475 32.3581 15.4759 32.6936L15.476 32.7146C15.4769 33.0213 15.4776 33.2476 15.4835 33.3894C15.5621 33.416 15.7131 33.4451 15.958 33.4434C16.5496 33.4392 17.2638 33.265 17.6569 33.1528C20.4497 32.3557 23.0537 31.4637 25.6329 30.3186C26.958 29.7303 27.9186 29.3151 28.9169 28.8837L28.9358 28.8755C29.9113 28.4539 30.9258 28.0155 32.3587 27.3819C33.0301 26.9418 33.6307 26.7357 34.2599 26.5199C34.3202 26.4992 34.3809 26.4784 34.4419 26.4573C35.1467 26.2133 36.025 25.8922 37.3725 25.1571C37.4764 25.0779 37.5279 25.0163 37.5521 24.9801C37.5764 24.9438 37.5774 24.9275 37.5777 24.9255C37.5787 24.917 37.5834 24.8323 37.4622 24.649C37.2066 24.2624 36.6761 23.8686 36.3063 23.6575C35.8056 23.3717 35.2816 22.9925 34.8004 22.6443C34.628 22.5196 34.4611 22.3988 34.3027 22.2877C33.6526 21.8317 33.0858 21.4903 32.5498 21.3373C31.5586 21.0545 30.711 20.3804 30.0227 19.8234C29.9802 19.789 29.9382 19.7549 29.8967 19.7213C29.205 19.1606 28.6421 18.7044 28.043 18.4524C27.5448 18.2429 27.0219 18.1049 26.4237 17.9471C26.3376 17.9244 26.25 17.9013 26.1606 17.8775C25.4788 17.6958 24.7143 17.4775 23.9805 17.0894L23.934 17.0648C22.7513 16.4393 21.5188 15.7943 20.3546 15.5359C19.9032 15.4357 19.4348 15.2886 19.0166 15.1572C18.8562 15.1069 18.7032 15.0588 18.5614 15.0166C18.0078 14.8519 17.5396 14.746 17.0964 14.746C16.9113 14.746 16.6243 14.759 16.3591 14.7985C16.2266 14.8182 16.1183 14.8419 16.0395 14.8663C16.0072 14.8764 15.987 14.8843 15.9765 14.8888Z" fill="#4556EB"/>
</svg>
