<svg width="75" height="70" viewBox="0 0 75 70" fill="none" xmlns="http://www.w3.org/2000/svg">
<path d="M54.0024 4.94385C54.0024 4.94385 66.7674 8.39697 71.0024 17.9437C75.2375 27.4904 70.3929 37.9722 66.5 41C62.6071 44.0278 63.8175 50.7406 63.3578 55.3566C62.8442 60.5149 62.8285 68.5 61.5 68.5C59.7219 68.5 57.1022 62.855 56.5 61.5C54.9939 58.1112 54.1276 55.7271 51.8446 52.7918C47.2737 46.915 33.5236 50.2269 26.1961 50.2269C22.4063 50.2269 17.7149 49.7937 13.0024 47.4439C8.8732 45.3849 5.44614 42.9758 3.85353 39.9676C1.61911 35.747 2.02964 31.8429 2.02964 27.1434C2.02964 21.8047 4.08036 19.4514 6.13339 14.8321C10.2623 5.54203 24.3422 2.21586 33.4917 2.00792C41.6355 1.82283 54.0024 4.94385 54.0024 4.94385Z" stroke="#4556EB" stroke-width="3" stroke-linecap="round"/>
</svg>
