<svg width="28" height="28" viewBox="0 0 28 28" fill="none" xmlns="http://www.w3.org/2000/svg">
<path fill-rule="evenodd" clip-rule="evenodd" d="M0 4.14815C0 1.85719 1.85719 0 4.14815 0H23.8519C26.1428 0 28 1.85719 28 4.14815V23.8519C28 26.1428 26.1428 28 23.8519 28H4.14815C1.85719 28 0 26.1428 0 23.8519V4.14815ZM4.14815 2.07407C3.00267 2.07407 2.07407 3.00267 2.07407 4.14815V23.8519C2.07407 24.9973 3.00267 25.9259 4.14815 25.9259H23.8519C24.9973 25.9259 25.9259 24.9973 25.9259 23.8519V4.14815C25.9259 3.00267 24.9973 2.07407 23.8519 2.07407H4.14815Z" fill="#4556EB"/>
<path fill-rule="evenodd" clip-rule="evenodd" d="M13.999 7.06654C10.1692 7.06654 7.06654 10.164 7.06654 13.9824C7.06654 17.8009 10.1692 20.8983 13.999 20.8983C17.8289 20.8983 20.9315 17.8009 20.9315 13.9824C20.9315 10.164 17.8289 7.06654 13.999 7.06654ZM6 13.9824C6 9.57274 9.58241 6 13.999 6C18.4157 6 21.9981 9.57274 21.9981 13.9824C21.9981 18.3921 18.4157 21.9649 13.999 21.9649C9.58241 21.9649 6 18.3921 6 13.9824Z" fill="#4556EB"/>
<path fill-rule="evenodd" clip-rule="evenodd" d="M11.7808 8.95783C11.1374 10.2162 10.7238 11.9919 10.7238 13.9824C10.7238 15.973 11.1374 17.7486 11.7808 19.007C12.4388 20.2941 13.2518 20.8983 13.9989 20.8983C14.7459 20.8983 15.559 20.2941 16.217 19.007C16.8603 17.7486 17.274 15.973 17.274 13.9824C17.274 11.9919 16.8603 10.2162 16.217 8.95783C15.559 7.67079 14.7459 7.06654 13.9989 7.06654C13.2518 7.06654 12.4388 7.67079 11.7808 8.95783ZM10.8311 8.47233C11.5515 7.0633 12.6426 6 13.9989 6C15.3551 6 16.4462 7.0633 17.1666 8.47233C17.9016 9.90998 18.3405 11.8589 18.3405 13.9824C18.3405 16.106 17.9016 18.0549 17.1666 19.4925C16.4462 20.9016 15.3551 21.9649 13.9989 21.9649C12.6426 21.9649 11.5515 20.9016 10.8311 19.4925C10.0961 18.0549 9.65723 16.106 9.65723 13.9824C9.65723 11.8589 10.0961 9.90998 10.8311 8.47233Z" fill="#4556EB"/>
<path fill-rule="evenodd" clip-rule="evenodd" d="M13.4658 21.4315V6.5332H14.5324V21.4315H13.4658Z" fill="#4556EB"/>
<path fill-rule="evenodd" clip-rule="evenodd" d="M6.5332 13.4492H21.4647V14.5158H6.5332V13.4492Z" fill="#4556EB"/>
<path fill-rule="evenodd" clip-rule="evenodd" d="M18.5527 17.6178C17.9134 18.2023 17.0614 18.5591 16.1259 18.5591C14.1417 18.5591 12.5332 16.9541 12.5332 14.9744C12.5332 12.9946 14.1417 11.3896 16.1259 11.3896C18.1102 11.3896 19.7187 12.9946 19.7187 14.9744C19.7187 15.6419 19.5358 16.2668 19.2173 16.8019L23.5332 20.0784L22.8954 20.9146L18.5527 17.6178Z" fill="#F0F0F0"/>
<path fill-rule="evenodd" clip-rule="evenodd" d="M18.1619 16.62L18.358 16.2905C18.587 15.9057 18.7187 15.4568 18.7187 14.9744C18.7187 13.549 17.56 12.3896 16.126 12.3896C14.6919 12.3896 13.5332 13.549 13.5332 14.9744C13.5332 16.3998 14.6919 17.5591 16.126 17.5591C16.8023 17.5591 17.4159 17.3022 17.8779 16.8798L18.1619 16.62ZM22.8955 20.9146L23.5332 20.0784L19.2174 16.8019C19.5358 16.2668 19.7187 15.6419 19.7187 14.9744C19.7187 12.9946 18.1102 11.3896 16.126 11.3896C14.1417 11.3896 12.5332 12.9946 12.5332 14.9744C12.5332 16.9541 14.1417 18.5591 16.126 18.5591C17.0614 18.5591 17.9134 18.2023 18.5527 17.6178L22.8955 20.9146Z" fill="#4556EB"/>
</svg>
