<?xml version="1.0" encoding="UTF-8" standalone="no"?>
<svg
   width="40"
   height="40"
   viewBox="0 0 40 40"
   fill="none"
   version="1.1"
   id="svg3"
   sodipodi:docname="scrolltop-green.svg"
   inkscape:version="1.4 (e7c3feb100, 2024-10-09)"
   xmlns:inkscape="http://www.inkscape.org/namespaces/inkscape"
   xmlns:sodipodi="http://sodipodi.sourceforge.net/DTD/sodipodi-0.dtd"
   xmlns="http://www.w3.org/2000/svg"
   xmlns:svg="http://www.w3.org/2000/svg">
  <defs
     id="defs3" />
  <sodipodi:namedview
     id="namedview3"
     pagecolor="#ffffff"
     bordercolor="#cccccc"
     borderopacity="1"
     inkscape:showpageshadow="0"
     inkscape:pageopacity="1"
     inkscape:pagecheckerboard="0"
     inkscape:deskcolor="#d1d1d1"
     inkscape:zoom="28.95"
     inkscape:cx="19.982729"
     inkscape:cy="20"
     inkscape:window-width="2560"
     inkscape:window-height="1371"
     inkscape:window-x="0"
     inkscape:window-y="0"
     inkscape:window-maximized="1"
     inkscape:current-layer="svg3" />
  <path
     fill-rule="evenodd"
     clip-rule="evenodd"
     d="M21.0863 32.1634C20.2698 32.1107 19.6506 31.4061 19.7033 30.5896C19.7087 30.5067 19.7144 30.418 19.7205 30.3239C19.9715 26.4344 20.8276 13.1739 20.8276 9.83151C20.8276 9.01332 21.4908 8.35003 22.309 8.35003C23.1272 8.35003 23.7905 9.01332 23.7905 9.83151C23.7905 13.2759 22.9337 26.5446 22.6813 30.4526C22.6737 30.5705 22.6666 30.68 22.6601 30.7804C22.6075 31.5969 21.9028 32.2161 21.0863 32.1634Z"
     fill="#4556EB"
     id="path1"
     style="fill:#34af42;fill-opacity:1" />
  <path
     fill-rule="evenodd"
     clip-rule="evenodd"
     d="M11.9495 18.1943C11.371 17.6157 11.371 16.6777 11.9495 16.0991C13.2584 14.7903 14.1402 14.0045 14.9828 13.2736C15.1131 13.1606 15.2417 13.0495 15.3702 12.9385C16.0649 12.3385 16.7578 11.7402 17.7083 10.8424C17.7302 10.8217 17.7589 10.7944 17.7937 10.7613C18.0757 10.4927 18.7581 9.84273 19.4628 9.26448C19.8532 8.94415 20.3019 8.60267 20.7271 8.35489C20.9357 8.23333 21.1989 8.09837 21.4863 8.01281C21.7251 7.94174 22.2745 7.81354 22.8531 8.08764C23.7507 8.51278 24.3689 9.11839 24.8475 9.63449C24.9841 9.78174 25.1049 9.91582 25.2168 10.04C25.5306 10.3881 25.7741 10.6583 26.0965 10.9221C26.8246 11.5178 28.0351 12.8374 29.1182 14.0536C29.7501 14.7631 30.3359 15.4344 30.8333 16.0043C31.2548 16.4872 31.6127 16.8974 31.8814 17.1963C32.4282 17.8049 32.3781 18.7416 31.7695 19.2885C31.1609 19.8353 30.2242 19.7852 29.6774 19.1766C29.4301 18.9015 29.0445 18.4601 28.5971 17.948C28.0766 17.3522 27.4725 16.6608 26.9055 16.0241C25.767 14.7458 24.7273 13.6301 24.2202 13.2153C23.7055 12.7941 23.2595 12.2975 22.9176 11.9168C22.8296 11.8188 22.7486 11.7286 22.675 11.6492C22.4381 11.3938 22.2331 11.1943 22.0263 11.0366C21.8335 11.1664 21.6005 11.3432 21.3423 11.555C20.7311 12.0566 20.1341 12.6245 19.842 12.9023C19.8034 12.9391 19.7701 12.9707 19.7428 12.9965C18.7413 13.9424 17.9986 14.5837 17.3008 15.1863C17.1742 15.2956 17.0492 15.4036 16.9243 15.5119C16.1189 16.2104 15.2913 16.9476 14.0447 18.1943C13.4661 18.7728 12.5281 18.7728 11.9495 18.1943Z"
     fill="#4556EB"
     id="path2"
     style="fill:#34af42;fill-opacity:1" />
  <path
     fill-rule="evenodd"
     clip-rule="evenodd"
     d="M20.6328 3.06416C16.6701 2.96071 12.7985 2.85963 8.97426 3.16586C7.89857 3.252 6.72327 3.36691 5.67816 3.64628C4.60449 3.93328 3.91774 4.33073 3.57241 4.79736C3.448 4.96548 3.30303 5.30089 3.20116 5.88601C3.10246 6.45292 3.06375 7.13399 3.06026 7.89414C3.05723 8.55344 3.08027 9.2267 3.10336 9.90149C3.10685 10.0035 3.11034 10.1055 3.11374 10.2074C3.13883 10.9597 3.16014 11.7336 3.12379 12.396C2.94277 15.6944 2.94257 19.351 2.98861 22.1957C3.01158 23.6152 3.04597 24.8267 3.07458 25.6827C3.08888 26.1106 3.10174 26.4494 3.11099 26.6807C3.11561 26.7963 3.11934 26.885 3.12189 26.9445L3.12481 27.0115L3.12572 27.0319L3.12731 27.0667V27.1004C3.12731 28.4561 3.13616 30.1553 3.29788 31.8072C3.46088 33.4722 3.76546 34.9157 4.25954 35.8735C4.2847 35.8933 4.35746 35.9439 4.51883 36.0075C4.80862 36.1218 5.22194 36.2127 5.73338 36.2727C6.58139 36.3721 7.46037 36.3644 8.12689 36.3586C8.2702 36.3573 8.40368 36.3562 8.52493 36.3562H13.1233C14.5566 36.3562 15.9858 36.4477 17.3644 36.5359L17.3992 36.5381C18.8044 36.6281 20.1593 36.7141 21.5106 36.7141C21.692 36.7141 21.8765 36.7133 22.0639 36.7125C23.2894 36.7073 24.634 36.7016 25.9856 36.9104C27.1298 37.0871 28.259 37.0531 29.4868 36.96C29.7756 36.9382 30.0756 36.9123 30.384 36.8857C31.3387 36.8034 32.3746 36.7141 33.4111 36.7141C34.4606 36.7141 35.1005 36.5058 35.5034 36.2561C35.892 36.0151 36.1794 35.6623 36.3974 35.1399C36.8847 33.9723 36.9142 32.2961 36.9142 30.1427C36.9142 27.8898 36.9456 25.6719 36.9767 23.4708C37.038 19.1285 37.0985 14.8514 36.9155 10.5002C36.8466 8.86078 36.7572 7.17725 36.3235 5.80918C35.9058 4.4914 35.2702 3.75436 34.2422 3.5074C32.4709 3.08188 30.6392 3.11401 28.6042 3.14971C28.0173 3.16 27.4136 3.17059 26.7895 3.17059C24.7095 3.17059 22.6592 3.11707 20.6328 3.06416ZM0.164348 27.1334L0.161656 27.0715C0.158984 27.0093 0.155141 26.9177 0.150397 26.7991C0.140909 26.5619 0.127813 26.2166 0.113275 25.7817C0.0842054 24.912 0.0493374 23.6832 0.0260375 22.2436C-0.0204702 19.3701 -0.0213205 15.6339 0.165286 12.2336C0.193343 11.7224 0.178134 11.077 0.152426 10.3062C0.149174 10.2087 0.145765 10.1094 0.142305 10.0086C0.119294 9.33833 0.0940175 8.60206 0.0973328 7.88053C0.101141 7.05176 0.142112 6.18191 0.282113 5.37779C0.418945 4.59187 0.671712 3.73611 1.19071 3.03481C2.1322 1.76258 3.60832 1.13257 4.91299 0.783822C6.24622 0.427434 7.66474 0.298283 8.73776 0.21236C12.7122 -0.105898 16.866 0.00114423 20.9274 0.105807C22.9141 0.157005 24.8788 0.207633 26.7895 0.207633C27.2847 0.207633 27.8026 0.197772 28.3364 0.187607C30.4247 0.147845 32.7573 0.10343 34.9343 0.626405C37.3577 1.20857 38.5585 3.05456 39.1479 4.91378C39.7214 6.72271 39.81 8.81013 39.8759 10.3757C40.0622 14.8064 40 19.2319 39.9383 23.6265C39.9077 25.8072 39.8772 27.9803 39.8772 30.1427C39.8772 30.1886 39.8772 30.2348 39.8772 30.2812C39.8776 32.2095 39.8782 34.4926 39.1319 36.281C38.7242 37.2579 38.0756 38.1477 37.0643 38.7745C36.0673 39.3925 34.8433 39.677 33.4111 39.677C32.5135 39.677 31.6596 39.7505 30.7393 39.8297C30.4069 39.8583 30.0657 39.8876 29.7107 39.9145C28.4184 40.0125 27.0184 40.068 25.5334 39.8386C24.4302 39.6682 23.34 39.6718 22.0987 39.6758C21.9065 39.6764 21.7107 39.677 21.5106 39.677C20.0525 39.677 18.6072 39.5845 17.2201 39.4957L17.2099 39.495C15.8038 39.405 14.4578 39.3191 13.1233 39.3191H8.52493C8.43835 39.3191 8.33235 39.3202 8.21027 39.3214C7.55736 39.3281 6.44492 39.3394 5.38837 39.2155C4.75759 39.1416 4.0598 39.0115 3.43191 38.7639C2.8257 38.5248 2.08278 38.0963 1.66039 37.2972C0.874386 35.8102 0.522929 33.8723 0.34902 32.0959C0.173042 30.2984 0.164475 28.4826 0.164348 27.1334Z"
     fill="#4556EB"
     id="path3"
     style="fill:#34af42;fill-opacity:1" />
</svg>
