<svg width="15" height="15" viewBox="0 0 15 15" fill="none" xmlns="http://www.w3.org/2000/svg">
<path fill-rule="evenodd" clip-rule="evenodd" d="M7.73813 1.149C6.25195 1.1102 4.79997 1.0723 3.36571 1.18714C2.96228 1.21945 2.5215 1.26254 2.12954 1.36732C1.72687 1.47496 1.46931 1.62402 1.3398 1.79902C1.29314 1.86207 1.23877 1.98786 1.20057 2.20731C1.16355 2.41993 1.14903 2.67535 1.14772 2.96044C1.14659 3.2077 1.15523 3.46021 1.16389 3.71328C1.16519 3.75152 1.1665 3.78977 1.16778 3.82802C1.17719 4.11016 1.18518 4.40041 1.17155 4.64881C1.10366 5.88586 1.10358 7.25722 1.12085 8.32409C1.12947 8.85646 1.14236 9.31084 1.15309 9.63187C1.15846 9.79235 1.16328 9.91942 1.16675 10.0061C1.16848 10.0495 1.16988 10.0828 1.17084 10.1051L1.17193 10.1302L1.17227 10.1379L1.17287 10.1509V10.1636C1.17287 10.672 1.17619 11.3093 1.23684 11.9288C1.29797 12.5532 1.4122 13.0946 1.5975 13.4538C1.60693 13.4613 1.63422 13.4802 1.69474 13.5041C1.80343 13.5469 1.95844 13.5811 2.15025 13.6035C2.46829 13.6408 2.79794 13.6379 3.04791 13.6358C3.10166 13.6353 3.15172 13.6349 3.1972 13.6349H4.92176C5.45932 13.6349 5.99533 13.6692 6.51237 13.7023L6.5254 13.7031C7.05243 13.7368 7.56054 13.7691 8.06736 13.7691C8.13538 13.7691 8.20459 13.7688 8.27485 13.7685C8.73448 13.7666 9.23874 13.7644 9.74565 13.8427C10.1748 13.909 10.5983 13.8962 11.0588 13.8613C11.1671 13.8531 11.2796 13.8434 11.3953 13.8334C11.7533 13.8026 12.1418 13.7691 12.5305 13.7691C12.9241 13.7691 13.1641 13.691 13.3152 13.5973C13.461 13.507 13.5687 13.3746 13.6505 13.1787C13.8332 12.7408 13.8443 12.1122 13.8443 11.3045C13.8443 10.4596 13.8561 9.62784 13.8678 8.80233C13.8908 7.17378 13.9134 5.56971 13.8448 3.93781C13.819 3.32297 13.7854 2.69158 13.6228 2.1785C13.4661 1.68428 13.2278 1.40785 12.8422 1.31523C12.1779 1.15565 11.491 1.1677 10.7277 1.18108C10.5076 1.18495 10.2812 1.18892 10.0472 1.18892C9.26707 1.18892 8.49813 1.16884 7.73813 1.149ZM0.0616372 10.1759L0.0606275 10.1527C0.0596256 10.1294 0.0581843 10.095 0.0564049 10.0506C0.0528465 9.96161 0.047935 9.83211 0.0424827 9.669C0.0315805 9.34284 0.0185035 8.88197 0.00976514 8.34207C-0.00767715 7.26441 -0.00799607 5.86315 0.0619891 4.58792C0.0725113 4.39619 0.0668077 4.15415 0.0571661 3.86506C0.0559463 3.82849 0.0546679 3.79125 0.0533703 3.75346C0.0447401 3.50207 0.0352604 3.22594 0.0365038 2.95534C0.0379319 2.64451 0.0532979 2.31828 0.105804 2.01671C0.157121 1.72196 0.251919 1.40101 0.446563 1.13799C0.799663 0.660855 1.35327 0.424578 1.84257 0.293782C2.34259 0.160122 2.87459 0.111685 3.27701 0.0794604C4.76759 -0.039899 6.32542 0.000246007 7.84863 0.0394989C8.59373 0.0586999 9.33055 0.0776875 10.0472 0.0776875C10.2329 0.0776875 10.4271 0.0739894 10.6273 0.0701772C11.4105 0.0552647 12.2853 0.0386073 13.1018 0.234744C14.0107 0.45308 14.461 1.1454 14.6821 1.84268C14.8971 2.52111 14.9304 3.30397 14.9551 3.89112C15.0249 5.55283 15.0016 7.21256 14.9785 8.86072C14.967 9.67856 14.9556 10.4936 14.9556 11.3045C14.9556 11.3218 14.9556 11.3391 14.9556 11.3565C14.9557 12.0797 14.9559 12.9359 14.676 13.6066C14.5231 13.9731 14.2799 14.3067 13.9006 14.5418C13.5267 14.7736 13.0676 14.8803 12.5305 14.8803C12.1939 14.8803 11.8736 14.9079 11.5285 14.9376C11.4038 14.9483 11.2759 14.9593 11.1427 14.9694C10.6581 15.0061 10.133 15.0269 9.57605 14.9409C9.1623 14.877 8.75345 14.8783 8.2879 14.8798C8.21582 14.8801 8.14238 14.8803 8.06736 14.8803C7.52052 14.8803 6.97844 14.8456 6.45824 14.8123L6.4544 14.8121C5.92706 14.7783 5.42226 14.7461 4.92176 14.7461H3.1972C3.16473 14.7461 3.12497 14.7465 3.07919 14.7469C2.83432 14.7494 2.41711 14.7537 2.02086 14.7072C1.78429 14.6795 1.52259 14.6307 1.28711 14.5378C1.05975 14.4482 0.781127 14.2875 0.622714 13.9878C0.32793 13.4301 0.19612 12.7033 0.130897 12.0371C0.0648979 11.363 0.0616849 10.682 0.0616372 10.1759Z" fill="#4556EB"/>
<path fill-rule="evenodd" clip-rule="evenodd" d="M5.72747 3.84155C5.93383 3.79906 6.38712 3.72232 7.4894 4.03517C7.97531 4.17309 8.21157 4.37488 8.35307 4.55551C8.47029 4.70515 8.52741 4.83317 8.59942 4.9946L8.59944 4.99463C8.6331 5.07008 8.67001 5.15282 8.71784 5.24848C9.07866 5.97011 8.82232 7.03934 8.14106 7.5549C8.00612 7.65701 7.83124 7.67598 7.44438 7.67598C7.31875 7.67598 7.19733 7.67714 7.07931 7.67826C6.58651 7.68295 6.15303 7.68707 5.72025 7.6042C5.24445 7.51309 4.91376 7.37858 4.6909 7.20003C4.48353 7.03391 4.33393 6.80163 4.26935 6.42706C4.25195 6.32611 4.23464 6.23468 4.21862 6.15007C4.1674 5.87944 4.12937 5.67853 4.14353 5.45893C4.15131 5.33842 4.21107 5.1137 4.31536 4.8472C4.40978 4.6059 4.51908 4.38479 4.60066 4.2519C4.61093 4.24426 4.63625 4.22606 4.68511 4.1993C4.77428 4.15045 4.89508 4.09807 5.03371 4.04685C5.31156 3.94418 5.60351 3.86707 5.72747 3.84155ZM7.77963 3.01261C6.53629 2.65972 5.90885 2.71896 5.51312 2.80043C5.33603 2.83689 4.9926 2.92884 4.6653 3.04978C4.50136 3.11035 4.32715 3.1834 4.17444 3.26705C4.04294 3.33908 3.84447 3.46191 3.72238 3.65182C3.58972 3.85819 3.44244 4.161 3.3255 4.45984C3.21216 4.74947 3.10153 5.09986 3.08278 5.3905C3.05902 5.75883 3.13113 6.13202 3.187 6.42116L3.187 6.42117C3.19996 6.48822 3.21204 6.55076 3.22185 6.60766C3.32613 7.21249 3.59697 7.68565 4.02629 8.0296C4.44011 8.36113 4.96233 8.54133 5.52034 8.64818C6.06789 8.75304 6.63206 8.7468 7.13119 8.74129H7.13121C7.2389 8.7401 7.34356 8.73894 7.44438 8.73894L7.48013 8.73898C7.74652 8.73936 8.1374 8.73992 8.51219 8.56505C8.69335 8.83979 8.89244 9.10564 9.07529 9.34981L9.07529 9.34982L9.07531 9.34983C9.15512 9.45641 9.23184 9.55886 9.30263 9.65611C9.36687 9.74439 9.46644 9.88049 9.58646 10.0446L9.58668 10.0449C10.03 10.651 10.7524 11.6385 11.0057 12.0069C11.172 12.2488 11.5029 12.31 11.7447 12.1438C11.9866 11.9775 12.0479 11.6466 11.8816 11.4047C11.6181 11.0214 10.8748 10.0053 10.4332 9.40169L10.4328 9.40119C10.3171 9.24301 10.2222 9.1132 10.162 9.03059C10.072 8.90683 9.98236 8.78703 9.89462 8.66973L9.89458 8.66967L9.89457 8.66966C9.68683 8.39192 9.48957 8.12818 9.32125 7.85898C9.97454 6.99006 10.1545 5.74489 9.66858 4.77311C9.65429 4.74453 9.63651 4.70455 9.615 4.65618L9.615 4.65618C9.53261 4.47089 9.39549 4.16252 9.18984 3.90001C8.9 3.53002 8.46652 3.20757 7.77963 3.01261Z" fill="#4556EB"/>
</svg>
