<svg width="566" height="11" viewBox="0 0 566 11" fill="none" xmlns="http://www.w3.org/2000/svg">
<path fill-rule="evenodd" clip-rule="evenodd" d="M119.578 4.30248C110.932 5.04785 102.26 5.79543 93.6671 5.79543C78.2124 5.79543 62.8119 6.08532 47.4005 6.37544L47.396 6.37552C31.9891 6.66556 16.5712 6.9558 1.0957 6.9558C0.543418 6.9558 0.0957031 6.50808 0.0957031 5.9558C0.0957031 5.40351 0.543418 4.9558 1.0957 4.9558C16.5507 4.9558 31.9514 4.66591 47.3628 4.37579L47.3677 4.3757C62.7745 4.08567 78.1921 3.79543 93.6671 3.79543C102.168 3.79543 110.709 3.0591 119.325 2.31635C122.598 2.0342 125.882 1.75112 129.178 1.50713C141.113 0.623734 153.149 0.260897 165.14 2.39265C169.727 3.20804 174.741 3.27541 179.848 3.13189C181.764 3.07803 183.705 2.99368 185.638 2.90966C188.809 2.77191 191.958 2.63507 194.941 2.63507H259.6C261.648 2.63507 263.702 2.6218 265.759 2.60852C275.287 2.547 284.875 2.48508 294.285 3.73974C300.515 4.5704 306.859 4.56075 313.287 4.55097C313.81 4.55018 314.334 4.54938 314.858 4.54903C321.796 4.54447 328.817 4.61975 335.718 5.87444C339.1 6.48936 342.994 6.12875 347.082 5.75017C347.802 5.68353 348.527 5.61632 349.257 5.55379C354.018 5.14595 358.967 4.94001 363.028 6.78598C366.711 8.45987 371.479 8.35612 376.538 7.76212C378.191 7.56799 379.836 7.32748 381.467 7.08905C382.324 6.96382 383.176 6.83917 384.024 6.7221C386.46 6.38582 388.832 6.11617 390.979 6.11617C407.341 6.11617 423.85 5.48071 440.334 4.84623C450.89 4.43996 461.435 4.03408 471.924 3.79569C484.181 3.51711 495.778 2.75463 507.883 1.54413C515.461 0.786302 523.863 1.05537 531.439 1.47624C535.817 1.71947 540.665 2.29967 545.553 2.88473C546.461 2.9933 547.369 3.10205 548.277 3.20884C554.097 3.89391 559.873 4.50002 565 4.50002C565.552 4.50002 566 4.94774 566 5.50002C566 6.05231 565.552 6.50002 565 6.50002C559.741 6.50002 553.859 5.87963 548.043 5.19513C547.126 5.0872 546.211 4.97771 545.3 4.86871C540.409 4.28354 535.636 3.71253 531.328 3.47316C523.766 3.05305 515.495 2.79285 508.082 3.5342C495.932 4.74923 484.283 5.51531 471.969 5.79518C461.551 6.03195 451.032 6.43657 440.483 6.84229C423.959 7.47787 407.364 8.11617 390.979 8.11617C388.979 8.11617 386.721 8.36872 384.298 8.70331C383.483 8.81577 382.647 8.93801 381.798 9.06211C380.148 9.3032 378.45 9.55132 376.771 9.74847C371.7 10.3439 366.432 10.5303 362.2 8.60672C358.678 7.00563 354.236 7.13462 349.428 7.54649C348.734 7.60598 348.031 7.67154 347.324 7.7375C343.255 8.11722 339.037 8.51074 335.36 7.84218C328.659 6.6238 321.805 6.54447 314.859 6.54903C314.329 6.54938 313.797 6.55022 313.266 6.55107C306.865 6.56122 300.39 6.57149 294.02 5.7222C284.762 4.48772 275.343 4.54784 265.82 4.60863C263.751 4.62183 261.678 4.63507 259.6 4.63507H194.941C191.989 4.63507 188.93 4.76841 185.801 4.9048C183.859 4.98944 181.89 5.07526 179.904 5.1311C174.764 5.27556 169.584 5.21399 164.79 4.36177C153.053 2.27508 141.219 2.62135 129.326 3.50168C126.084 3.74164 122.833 4.0219 119.578 4.30248Z" fill="#4556EB"/>
</svg>
