<svg width="3" height="18" viewBox="0 0 3 18" fill="none" xmlns="http://www.w3.org/2000/svg">
<path fill-rule="evenodd" clip-rule="evenodd" d="M1.455 0.0195312C2.00728 0.0195312 2.455 0.467246 2.455 1.01953C2.455 1.84594 2.35741 2.62524 2.26759 3.34252C2.26589 3.35616 2.26418 3.36978 2.26248 3.38337C2.16927 4.12807 2.08545 4.81301 2.08545 5.53621C2.08545 7.31654 2.26433 9.09898 2.44995 10.9394L2.45252 10.9649C2.63563 12.7805 2.82454 14.6535 2.82454 16.5405C2.82454 17.0928 2.37683 17.5405 1.82454 17.5405C1.27226 17.5405 0.824542 17.0928 0.824542 16.5405C0.824542 14.7621 0.645675 12.9807 0.460043 11.1401L0.45776 11.1175C0.274546 9.30095 0.0854492 7.42609 0.0854492 5.53621C0.0854492 4.67302 0.185751 3.87169 0.277075 3.14209L0.277965 3.13497C0.371553 2.38727 0.454996 1.71674 0.454996 1.01953C0.454996 0.467246 0.902711 0.0195312 1.455 0.0195312Z" fill="#4556EB"/>
</svg>
