<svg width="383" height="259" viewBox="0 0 383 259" fill="none" xmlns="http://www.w3.org/2000/svg">
<path d="M22.6095 123.225H4.32908C-1.76439 123.225 7.90796 107.881 7.90796 107.881C12.0741 100.039 14.899 94.9973 17.6762 89.4429C21.4522 81.8909 20.5893 78.8699 25.6865 72.4985L54.5153 30.5703C61.9734 30.5703 69.1982 33.2785 76.7827 33.2785C80.3038 33.2785 88.6688 31.4479 88.6688 35.9867C88.6688 44.3017 90.0229 52.1217 90.0229 60.3606C90.0229 71.7359 92.4763 82.7019 92.7311 93.9123C93.1944 114.3 101.504 132.751 105.219 152.44C108.117 167.799 113.465 181.703 119.027 196.165L119.136 196.448C120.365 199.644 121.528 202.92 123.198 205.927C123.658 206.754 127.364 213.224 127.11 213.224C120.219 213.224 112.232 212.02 104.918 212.02C96.0403 212.02 85.9947 214.519 81.2212 205.927C79.1388 202.179 79.6571 193.414 79.1148 189.076C77.063 172.661 69.7113 157.492 69.7113 140.855C69.7113 126.97 67.0031 113.024 67.0031 98.8773C67.0031 92.4236 65.649 86.4284 65.649 79.9951V79.9658C65.6491 78.2324 65.6494 67.4692 64.2949 69.1623C61.8456 72.2239 60.5678 75.5019 58.1262 78.641C54.477 83.3328 48.9214 87.7666 46.0145 92.9343C39.6972 104.165 36.5555 104.221 34.1946 117.206C33.5458 120.775 35.176 123.225 30.7341 123.225H22.6095Z" fill="#4556EB" stroke="#4556EB" stroke-width="3" stroke-linecap="round"/>
<path d="M134.386 37.9111C134.915 36.4495 134.988 29.7259 134.988 30.8396H137.696C148.02 30.8396 158.539 30.2337 168.841 30.8396C171.836 31.0158 167.152 38.1152 165.614 41.8163C163.658 46.5255 161.71 50.1753 160.039 53.1823C157.694 57.4043 153.68 63.5186 152.667 68.0775C150.729 76.7982 146.1 89.751 152.667 89.751C162.511 89.751 179.086 83.7545 189.152 83.7545H205.402C212.368 83.7545 213.527 82.4803 213.527 89.751V106C213.527 112.451 216.75 114.125 208.713 114.125C190.483 114.125 173.698 115.069 155.752 118.94C153.142 119.502 114.678 122.762 115.527 118.94C116.557 114.305 117.333 100.746 118.739 96.1375C121.492 87.114 123.761 78.1447 126.186 68.9802C128.954 58.5232 130.701 48.1011 134.386 37.9111Z" fill="#4556EB" stroke="#4556EB" stroke-width="3" stroke-linecap="round"/>
<path d="M171.987 182.076C163.826 156.671 158.142 130.906 158.142 104.654L176.202 101.552C175.236 112.505 179.064 120.702 179.064 124.602C179.064 132.879 183.215 140.976 183.725 148.975C184.344 158.692 193.763 167.502 194.6 177.712C195.099 183.806 200.812 190.949 203.921 196.369C204.343 197.105 207.431 202.105 206.683 202.839L189.939 205.171C187.178 206.03 175.957 210.869 175.957 207.879C175.957 198.382 174.932 191.245 171.987 182.076Z" fill="#4556EB" stroke="#4556EB" stroke-width="3" stroke-linecap="round"/>
<path fill-rule="evenodd" clip-rule="evenodd" d="M266.119 28.0093C259.309 28.0093 246.036 42.6555 244.618 47.966C243.636 51.6467 241.128 55.135 238.595 58.6583C235.92 62.3783 233.217 66.1373 232.253 70.2031C231.746 72.3367 231.245 74.409 230.754 76.4368C227.19 91.1492 224.193 103.525 224.193 120.088C224.193 141.92 229.172 161.725 238.651 181.7C238.754 181.918 238.858 182.138 238.964 182.362C242.034 188.85 246.246 197.748 253.991 199.98L254.218 200.046C261.476 202.138 274.572 205.914 281.299 200.582C297.645 187.628 314.728 168.955 321.378 149.578C328.804 127.937 327.805 99.971 319.611 78.8634C319.541 78.6837 319.471 78.503 319.4 78.3214C316.942 71.9835 314.055 64.5387 309.169 59.4546C307.703 57.9283 306.276 55.8647 304.8 53.7303C302.308 50.1266 299.677 46.3212 296.479 44.5594C293.076 42.6842 290.256 39.9323 287.466 37.2087C282.711 32.5681 278.041 28.0098 270.709 28.0098L266.119 28.0093ZM254.491 105.266C253.784 108.074 253.077 110.881 253.077 115.633C253.077 121.05 254.549 125.688 256.049 130.413C257.255 134.213 258.479 138.069 258.969 142.432C259.722 149.136 265.733 158.005 273.346 158.005C279.094 158.005 282.54 153.408 285.629 149.289C286.475 148.162 287.293 147.07 288.124 146.119C293.646 139.797 293.612 127.144 293.589 118.866C293.587 118.354 293.586 117.858 293.586 117.382C293.586 115.926 293.612 114.533 293.636 113.189C293.768 106.045 293.875 100.265 289.972 93.6847C284.722 84.8343 263.978 79.5842 260.334 83.529C259.515 84.4159 258.84 84.9984 258.286 85.4764C256.377 87.1246 255.905 87.5322 255.905 94.8991C255.905 99.6511 255.198 102.459 254.491 105.266Z" fill="#4556EB"/>
<path d="M244.618 47.966L246.067 48.3528L244.618 47.966ZM266.119 28.0093L266.119 26.5093H266.119V28.0093ZM238.595 58.6583L239.812 59.534L238.595 58.6583ZM232.253 70.2031L230.793 69.8568L232.253 70.2031ZM230.754 76.4368L229.296 76.0837L230.754 76.4368ZM238.651 181.7L237.295 182.343L238.651 181.7ZM238.964 182.362L237.608 183.004H237.608L238.964 182.362ZM253.991 199.98L254.407 198.539L254.407 198.539L253.991 199.98ZM254.218 200.046L254.634 198.605H254.634L254.218 200.046ZM281.299 200.582L280.368 199.407L281.299 200.582ZM321.378 149.578L322.796 150.065L321.378 149.578ZM319.611 78.8634L318.212 79.4063L318.212 79.4063L319.611 78.8634ZM319.4 78.3214L318.002 78.8638V78.8638L319.4 78.3214ZM309.169 59.4546L310.251 58.4153V58.4153L309.169 59.4546ZM304.8 53.7303L303.566 54.5834V54.5834L304.8 53.7303ZM296.479 44.5594L297.203 43.2457L296.479 44.5594ZM287.466 37.2087L286.418 38.2821L287.466 37.2087ZM270.709 28.0098L270.709 29.5098H270.709V28.0098ZM254.491 105.266L255.946 105.632L254.491 105.266ZM256.049 130.413L257.479 129.959L256.049 130.413ZM258.969 142.432L260.46 142.265V142.265L258.969 142.432ZM285.629 149.289L284.429 148.389L285.629 149.289ZM288.124 146.119L289.254 147.105L289.254 147.105L288.124 146.119ZM293.589 118.866L292.089 118.87V118.87L293.589 118.866ZM293.636 113.189L295.136 113.216L293.636 113.189ZM289.972 93.6847L291.262 92.9195L289.972 93.6847ZM260.334 83.529L261.436 84.5468V84.5467L260.334 83.529ZM258.286 85.4764L259.267 86.6119L259.267 86.6119L258.286 85.4764ZM246.067 48.3528C246.345 47.3127 247.294 45.5921 248.829 43.4928C250.329 41.4417 252.281 39.1721 254.404 37.0595C256.531 34.9436 258.794 33.0195 260.907 31.6357C263.077 30.2154 264.873 29.5093 266.119 29.5093V26.5093C263.96 26.5093 261.543 27.634 259.264 29.1257C256.93 30.6541 254.509 32.7235 252.288 34.9329C250.065 37.1457 248.008 39.5334 246.407 41.722C244.842 43.8624 243.6 45.964 243.169 47.5791L246.067 48.3528ZM239.812 59.534C242.302 56.0717 245 52.3513 246.067 48.3528L243.169 47.5791C242.271 50.9422 239.954 54.1984 237.377 57.7827L239.812 59.534ZM233.712 70.5493C234.595 66.8274 237.093 63.3162 239.812 59.534L237.377 57.7827C234.747 61.4405 231.839 65.4473 230.793 69.8568L233.712 70.5493ZM232.211 76.7898C232.702 74.7625 233.205 72.687 233.712 70.5493L230.793 69.8568C230.288 71.9865 229.787 74.0554 229.296 76.0837L232.211 76.7898ZM225.693 120.088C225.693 103.723 228.648 91.5054 232.211 76.7898L229.296 76.0837C225.733 90.793 222.693 103.326 222.693 120.088H225.693ZM240.006 181.057C230.611 161.259 225.693 141.672 225.693 120.088H222.693C222.693 142.168 227.733 162.191 237.295 182.343L240.006 181.057ZM240.32 181.72C240.214 181.497 240.109 181.275 240.006 181.057L237.295 182.343C237.398 182.56 237.502 182.78 237.608 183.004L240.32 181.72ZM254.407 198.539C250.986 197.553 248.246 195.067 245.939 191.886C243.629 188.703 241.865 184.984 240.32 181.72L237.608 183.004C239.134 186.228 241.01 190.202 243.51 193.648C246.012 197.097 249.25 200.175 253.576 201.422L254.407 198.539ZM254.634 198.605L254.407 198.539L253.576 201.422L253.803 201.487L254.634 198.605ZM280.368 199.407C277.49 201.687 273.055 202.137 268.118 201.607C263.245 201.084 258.279 199.656 254.634 198.605L253.803 201.487C257.415 202.529 262.626 204.035 267.798 204.59C272.904 205.138 278.381 204.809 282.231 201.758L280.368 199.407ZM319.959 149.091C313.445 168.074 296.619 186.527 280.368 199.407L282.231 201.758C298.671 188.729 316.011 169.837 322.796 150.065L319.959 149.091ZM318.212 79.4063C326.285 100.2 327.265 127.801 319.959 149.091L322.796 150.065C330.344 128.072 329.326 99.7419 321.009 78.3205L318.212 79.4063ZM318.002 78.8638C318.072 79.0454 318.143 79.2263 318.212 79.4063L321.009 78.3206C320.939 78.1411 320.869 77.9606 320.799 77.779L318.002 78.8638ZM308.088 60.4939C312.726 65.3211 315.518 72.4587 318.002 78.8638L320.799 77.779C318.367 71.5084 315.383 63.7563 310.251 58.4153L308.088 60.4939ZM303.566 54.5834C305.021 56.6878 306.52 58.8625 308.088 60.4939L310.251 58.4153C308.885 56.994 307.53 55.0415 306.034 52.8772L303.566 54.5834ZM295.755 45.8732C297.122 46.6264 298.441 47.8607 299.758 49.4216C301.072 50.9787 302.312 52.7694 303.566 54.5834L306.034 52.8772C304.796 51.0875 303.474 49.1736 302.051 47.4867C300.63 45.8035 299.034 44.2542 297.203 43.2457L295.755 45.8732ZM286.418 38.2821C289.182 40.9797 292.143 43.8831 295.755 45.8732L297.203 43.2457C294.008 41.4853 291.331 38.8849 288.514 36.1353L286.418 38.2821ZM270.709 29.5098C277.344 29.5098 281.597 33.5763 286.418 38.2821L288.514 36.1353C283.826 31.56 278.738 26.5098 270.709 26.5098V29.5098ZM266.119 29.5093L270.709 29.5098L270.709 26.5098L266.119 26.5093L266.119 29.5093ZM254.577 115.633C254.577 111.067 255.249 108.401 255.946 105.632L253.037 104.9C252.32 107.746 251.577 110.695 251.577 115.633H254.577ZM257.479 129.959C255.972 125.212 254.577 120.785 254.577 115.633H251.577C251.577 121.315 253.127 126.164 254.619 130.867L257.479 129.959ZM260.46 142.265C259.951 137.735 258.68 133.744 257.479 129.959L254.619 130.867C255.83 134.681 257.007 138.404 257.478 142.6L260.46 142.265ZM273.346 156.505C270.145 156.505 267.122 154.631 264.737 151.771C262.357 148.918 260.8 145.295 260.46 142.265L257.478 142.6C257.891 146.273 259.717 150.436 262.433 153.693C265.145 156.944 268.934 159.505 273.346 159.505V156.505ZM284.429 148.389C281.23 152.655 278.22 156.505 273.346 156.505V159.505C279.968 159.505 283.85 154.162 286.829 150.189L284.429 148.389ZM286.995 145.132C286.12 146.134 285.267 147.272 284.429 148.389L286.829 150.189C287.682 149.051 288.466 148.007 289.254 147.105L286.995 145.132ZM292.089 118.87C292.1 123.024 292.112 128.154 291.45 133.024C290.782 137.933 289.458 142.312 286.995 145.132L289.254 147.105C292.313 143.604 293.733 138.495 294.422 133.428C295.117 128.321 295.1 122.986 295.089 118.862L292.089 118.87ZM292.086 117.382C292.086 117.86 292.087 118.358 292.089 118.87L295.089 118.862C295.087 118.349 295.086 117.856 295.086 117.382H292.086ZM292.137 113.161C292.112 114.504 292.086 115.91 292.086 117.382H295.086C295.086 115.942 295.111 114.563 295.136 113.216L292.137 113.161ZM288.682 94.45C292.343 100.623 292.269 105.999 292.137 113.161L295.136 113.216C295.268 106.092 295.406 99.9068 291.262 92.9195L288.682 94.45ZM261.436 84.5467C261.606 84.3633 262 84.113 262.78 83.9303C263.54 83.7526 264.531 83.6709 265.72 83.7063C268.093 83.7771 271.057 84.3087 274.112 85.2431C277.163 86.1759 280.242 87.491 282.856 89.0891C285.489 90.6988 287.543 92.5305 288.682 94.45L291.262 92.9195C289.776 90.4138 287.268 88.2703 284.421 86.5296C281.555 84.7774 278.237 83.3671 274.99 82.3742C271.747 81.3828 268.514 80.7884 265.809 80.7077C264.458 80.6674 263.19 80.7535 262.097 81.0092C261.026 81.2598 259.974 81.7084 259.233 82.5112L261.436 84.5467ZM259.267 86.6119C259.828 86.1275 260.556 85.4993 261.436 84.5468L259.233 82.5112C258.474 83.3325 257.853 83.8692 257.306 84.3409L259.267 86.6119ZM257.405 94.8991C257.405 91.1689 257.534 89.4482 257.82 88.4615C258.043 87.6922 258.323 87.4268 259.267 86.6119L257.306 84.3409C256.341 85.1743 255.429 85.9367 254.939 87.6251C254.512 89.0958 254.405 91.2624 254.405 94.8991H257.405ZM255.946 105.632C256.662 102.786 257.405 99.8369 257.405 94.8991H254.405C254.405 99.4652 253.734 102.131 253.037 104.9L255.946 105.632Z" fill="#4556EB"/>
<path d="M306.811 17.7974C318.377 18.954 330.635 41.59 336.067 50.0094C340.86 57.4374 345.488 65.8953 349.366 73.6513" stroke="#4556EB" stroke-width="3" stroke-linecap="round"/>
<path d="M317.449 1.83936C316.302 1.83936 320.758 2.0135 322.029 3.16921C324.536 5.44792 327.622 7.02043 330.23 9.22745C339.681 17.2248 350.083 25.7707 357.344 35.8246C365.405 46.985 376.902 57.8531 381.282 70.9919" stroke="#4556EB" stroke-width="3" stroke-linecap="round"/>
<path d="M34.1895 199.988C35.5915 205.129 41.5274 208.737 45.1238 212.252C52.3668 219.33 59.2832 227.643 68.0269 232.939C79.6063 239.952 96.5719 243.873 109.991 243.873" stroke="#4556EB" stroke-width="3" stroke-linecap="round"/>
<path d="M12.9121 206.637C23.1905 216.916 33.933 233.524 46.5411 240.6C57.5014 246.751 77.2817 257.036 89.9154 257.036" stroke="#4556EB" stroke-width="3" stroke-linecap="round"/>
</svg>
