<svg width="223" height="280" viewBox="0 0 223 280" fill="none" xmlns="http://www.w3.org/2000/svg">
<g clip-path="url(#clip0_472_2813)">
<path d="M202.34 72.19C202.017 71.8828 201.758 71.6509 201.631 71.5003C197.512 67.4435 193.309 64.3561 188.916 61.0428C188.195 60.4916 187.474 59.9404 186.754 59.3892C181.772 55.6061 177.442 50.7634 173.245 46.002C171.719 44.2644 170.124 42.5206 168.529 40.7769C159.776 31.3625 149.147 22.6218 136.06 14.0158L134.74 13.1332C130.973 10.642 129.128 9.36488 127.656 10.2134C126.405 10.9416 126.236 12.8804 126.311 16.0266C126.374 19.3113 125.617 22.385 124.773 25.6603C124.574 26.3407 124.444 27.0271 124.245 27.7074C123.253 31.8769 123.982 36.336 124.654 40.6505C125.158 43.6945 125.598 46.6632 125.495 49.4451C125.471 49.722 125.395 49.7852 125.314 49.9177C124.554 50.6189 121.982 50.4645 120.173 50.3766C119.271 50.298 118.439 50.2255 117.733 50.3035C115.559 50.3931 113.246 50.4706 111.072 50.5601C106.44 50.7844 101.67 50.9965 97.068 50.8745C94.2817 50.7712 91.5708 50.6047 88.8599 50.4382C82.8079 50.12 76.6171 49.7897 70.2454 49.9321C64.2205 50.1046 58.1805 49.6479 52.3547 49.1402C46.4595 48.6263 40.3501 48.1636 34.2498 48.3994C30.7459 48.5126 27.2238 48.8335 23.771 49.1605C20.8852 49.3974 17.924 49.6975 15.0442 49.8651C14.9749 49.859 14.8361 49.8469 14.6974 49.8348C13.7265 49.7502 12.2006 49.6172 11.4166 50.5954C11.0215 51.1192 10.8857 51.8748 11.2295 52.742C11.2625 54.7682 11.5096 56.7433 11.7055 58.5046C11.8683 59.8445 11.9798 60.9705 11.9767 61.8075C11.9737 62.6444 11.9766 63.4122 11.9736 64.2491C11.9402 67.037 11.9702 69.9002 12.7932 72.4837C13.77 75.7085 13.7427 78.4271 13.6853 81.492C13.6188 83.8584 13.6216 86.2308 13.9923 89.1935C14.1187 94.1582 15.2212 111.976 15.7486 116.348L15.821 117.121L19.8165 116.981C24.4422 116.826 30.8139 116.684 34.9724 114.674C37.0863 113.672 40.4154 113.962 43.6751 114.247C46.2412 114.47 48.9461 114.706 51.0117 114.258C54.0031 113.612 56.72 113.709 59.645 113.824C61.1769 113.888 62.7087 113.952 64.3914 113.889L71.9602 113.642C71.8364 115.864 71.9687 122.364 72.5886 142.512C72.8805 152.793 73.2115 163.427 73.3831 168.675C71.9416 169.177 70.6419 170.459 69.4115 171.748C68.2625 172.903 67.1136 174.059 66.0431 174.315L65.3314 174.462C63.6608 174.386 61.6887 174.563 59.6532 174.665C55.0848 174.964 49.9554 175.285 46.6838 173.534L46.0837 173.203L44.4583 175.015L44.811 176.58C44.7989 176.719 44.8562 176.863 44.9135 177.008C44.5667 176.978 44.2893 176.954 44.0119 176.929C43.2489 176.863 42.4167 176.79 41.6538 176.724L29.9296 176.539L29.9175 178.282L41.6416 178.467C42.4045 178.534 43.0981 178.594 43.861 178.661C44.3465 178.703 44.8319 178.745 45.3868 178.794C46.668 184.138 47.8768 190.313 47.6171 196.5C46.9236 196.44 45.645 196.677 43.3019 197.101C42.735 197.191 42.3068 197.293 42.1681 197.281C40.971 197.386 39.3758 197.247 37.7113 197.102C34.729 196.842 31.608 196.57 29.5514 197.716L30.3956 199.255C32.0119 198.349 34.8555 198.597 37.5604 198.833C39.2943 198.984 40.9588 199.129 42.37 198.973C42.5781 198.991 42.937 198.883 43.6486 198.736C44.5744 198.537 46.4892 198.216 47.3336 198.15C47.3215 198.288 47.4421 198.508 47.43 198.647L47.3455 199.616L48.2532 199.626C49.8604 199.626 51.7511 199.582 53.7172 199.474C61.4369 199.1 70.9839 198.607 73.0039 204.295C72.9918 204.433 72.9737 204.641 73.1576 204.936C73.7094 205.821 74.7015 206.466 75.989 206.927C76.0401 210.35 76.395 223.916 76.7862 237.067C77.6256 268.328 77.7582 268.409 78.2829 268.804C79.4589 269.743 82.2029 270.331 85.532 270.621C92.2595 271.208 101.339 270.464 103.884 268.523C104.406 268.15 104.783 267.834 103.925 236.781C103.549 222.655 102.962 206.138 102.8 204.798C103.906 204.127 104.956 203.312 105.791 202.547C106.783 201.587 107.076 199.031 106.497 197.655C106.313 197.36 106.129 197.065 105.933 196.908C107.127 196.036 108.629 194.841 108.768 193.248C108.834 192.487 108.548 191.764 107.909 191.08L107.719 190.855C107.339 190.403 106.763 189.794 106.094 189.457L106.872 188.548C108.328 187.07 106.552 184.194 105.907 183.58L105.78 183.43C105.584 183.273 105.331 182.972 105.008 182.665C105.811 181.479 106.082 179.967 105.624 178.811C105.286 177.875 104.158 176.381 101.001 176.524C100.917 174.284 100.761 168.061 100.601 161.07C99.7259 125.411 99.3918 115.614 98.9397 112.784L101.253 112.707C104.965 112.612 108.812 113.366 112.452 114.101C116.23 114.849 120.147 115.609 124.137 115.538L131.983 115.315C133.563 122.849 133.997 125.887 134.919 132.944L135.308 135.699C135.808 139.58 135.799 143.695 135.802 147.673C135.777 149.554 135.816 151.511 135.862 153.399L136 158.225C136.009 158.924 136.482 159.104 136.615 159.186C136.684 159.192 136.823 159.204 136.892 159.21C137.447 159.258 137.836 158.804 138.382 158.154C138.696 157.762 139.154 157.314 139.38 157.124C142.185 155.415 144.118 151.677 145.87 148.411C146.627 146.942 147.378 145.542 148.099 144.488C151.232 139.808 154.537 135.561 158.108 131.477C161.597 127.525 164.712 123.052 167.74 118.781C171.483 113.525 175.313 108.068 179.839 103.439C181.453 101.766 183.199 100.174 184.875 98.5758C188.072 95.5752 191.344 92.5115 194.173 88.9207C197.798 84.2132 202.97 78.594 205.59 78.1944C206.088 78.0983 206.458 77.8515 206.57 77.3728C206.863 76.4216 205.982 75.2983 202.49 72.0636L202.34 72.19ZM102.57 267.571C98.7277 269.958 82.8121 269.756 79.5525 267.868C79.1004 263.433 77.9093 216.164 77.738 207.707C78.8356 207.942 80.0779 208.12 81.3957 208.235C87.1522 208.737 94.1331 208.02 96.7656 207.482C98.1135 207.251 99.6303 206.685 101.09 205.975C101.563 212.575 103.031 263.077 102.57 267.571ZM103.944 179.641C104.345 180.653 103.727 182.134 102.62 182.805C102.62 182.805 102.62 182.805 102.545 182.868L102.243 183.121C100.781 184.668 98.4255 185.23 96.2905 185.672C96.0071 185.717 95.7236 185.762 95.4341 185.877L95.8441 187.587C96.1276 187.542 96.411 187.497 96.6312 187.376C98.8415 186.871 101.619 186.276 103.389 184.407L103.615 184.218C103.823 184.236 104.203 184.687 104.399 184.844L104.526 184.995C105.038 185.528 105.789 187.337 105.488 187.59L103.549 189.793C101.067 191.81 97.1133 193.07 95.4759 193.415L95.8859 195.126C97.9575 194.609 101.766 193.406 104.393 191.332C104.531 191.344 104.74 191.362 104.954 191.311C105.023 191.317 105.231 191.335 105.3 191.341C105.629 191.579 106.015 191.962 106.332 192.338L106.522 192.564C106.971 193.022 106.947 193.299 106.935 193.437C106.862 194.268 105.587 195.274 104.694 195.893C104.317 196.209 103.946 196.456 103.714 196.715C102.622 198.015 100.33 198.653 98.4668 199.188L97.8939 199.347L98.3793 200.994L98.9522 200.835C100.746 200.294 102.969 199.65 104.477 198.386C104.609 198.468 104.736 198.618 104.793 198.763C105.143 199.561 104.847 201.349 104.47 201.665C102.562 203.522 99.1148 205.384 96.4189 205.847C90.1647 207.046 77.0625 207.439 74.7317 204.515C74.7378 204.446 74.7498 204.307 74.6865 204.232C72.3711 197.123 61.9797 197.682 53.6299 198.071C52.0859 198.146 50.542 198.22 49.2122 198.244C49.8882 190.489 48.0492 182.723 46.4936 176.518L46.3399 175.876L46.3519 175.738C50.1272 177.323 55.1872 176.996 59.6863 176.691C61.7217 176.589 63.6245 176.406 65.2951 176.482L66.3595 176.296C67.9276 175.944 69.2334 174.593 70.5392 173.241C71.462 172.275 72.3787 171.378 73.3347 170.834C73.3437 171.532 73.3768 171.954 73.3587 172.161L73.232 173.616C73.3013 173.622 73.3586 173.766 73.3586 173.766C73.3978 174.118 73.437 174.471 73.4128 174.748C73.5123 176.012 73.5906 176.717 74.7816 178.286L75.5294 179.328L75.6681 179.34C83.6618 184.641 93.4924 182.498 100.039 178.743C102.093 178.434 103.456 178.831 103.793 179.768L103.944 179.641ZM99.195 177.204C93.0944 180.649 84.1203 182.588 76.8412 177.907L76.2774 177.16C75.3396 175.892 75.3005 175.54 75.2523 174.489C75.2764 174.212 75.2373 173.86 75.1981 173.508L75.1861 172.042C75.0355 168.959 73.4555 120.54 73.5946 114.133L97.2088 113.401C97.7241 117.911 98.3768 144.899 98.7497 161.467C99.0023 171.396 99.1197 175.663 99.1889 177.273L99.195 177.204ZM192.713 88.026C190.029 91.5596 186.763 94.5542 183.642 97.4915C181.966 99.0897 180.219 100.682 178.531 102.418C173.929 107.11 170.023 112.631 166.275 117.955C163.247 122.227 160.144 126.561 156.724 130.519C153.078 134.666 149.767 138.982 146.558 143.726C145.756 144.912 145.005 146.312 144.242 147.85C142.647 150.92 140.801 154.457 138.367 155.92C138.072 156.103 137.84 156.362 137.538 156.615L137.451 153.607C137.406 151.72 137.367 149.763 137.385 147.95C137.388 143.904 137.403 139.719 136.84 135.763L136.451 133.008C135.529 125.95 135.113 122.705 133.379 114.53L133.232 113.819L123.911 114.123C120.199 114.218 116.351 113.464 112.642 112.723C108.864 111.975 104.947 111.215 101.026 111.292L64.2407 112.411C62.6274 112.48 61.0956 112.416 59.6331 112.358C56.6387 112.237 53.7077 112.191 50.5776 112.825C48.726 113.222 46.2986 113.01 43.7324 112.786C40.2647 112.484 36.6582 112.17 34.104 113.412C30.3104 115.245 24.1468 115.405 19.6658 115.503L17.2836 115.574C16.7713 110.227 15.7561 93.8125 15.6569 89.3386C15.2801 86.4451 15.3466 84.0788 15.4071 81.7816C15.4706 78.6475 15.522 75.6519 14.4246 72.2073C13.7222 69.8436 13.6801 67.1189 13.7014 64.4695C13.7045 63.6325 13.7075 62.7956 13.6413 61.9525C13.6504 61.0463 13.4695 59.9142 13.3821 58.5112C13.1862 56.7499 13.0145 54.7116 12.9121 52.6794L12.9242 52.5409L12.8669 52.3963C12.695 51.9627 12.7765 51.8303 12.7825 51.761C12.7885 51.6918 13.2228 51.5203 14.5405 51.6352C14.8179 51.6594 15.026 51.6775 15.0954 51.6836C18.0445 51.522 21.0057 51.2219 23.8915 50.9851C27.2749 50.652 30.797 50.3311 34.2316 50.2118C40.2565 50.0392 46.2965 50.4959 52.1224 51.0037C58.0176 51.5175 64.1269 51.9803 70.2272 51.7445C76.5356 51.5269 82.4429 51.9022 88.703 52.2385C91.4139 52.405 94.1248 52.5715 96.9111 52.6748C101.576 52.8721 106.422 52.5968 111.054 52.3726C113.228 52.283 115.477 52.1302 117.645 52.1099C118.276 52.095 119.039 52.1615 119.877 52.1648C122.374 52.3825 125.021 52.4737 126.315 51.2608C126.773 50.8124 127.03 50.2765 127.09 49.5841C127.211 46.5945 126.714 43.4813 126.21 40.4373C125.526 36.2612 124.848 32.0159 125.74 28.1866C125.94 27.5063 126.069 26.8199 126.268 26.1395C127.125 22.7257 127.963 19.5196 127.849 16.0211C127.735 12.5226 128.142 11.8604 128.287 11.8033C128.802 11.4994 131.38 13.1892 133.554 14.7044L134.875 15.5869C147.829 24.1116 158.325 32.771 167.021 42.0409C168.553 43.7093 170.148 45.453 171.674 47.1907C175.941 51.9581 180.328 56.9453 185.442 60.8098C186.162 61.361 186.883 61.9122 187.604 62.4634C192.003 65.7074 196.068 68.7828 200.123 72.7643C200.319 72.9209 200.579 73.1528 200.901 73.46C201.616 74.0805 203.494 75.7791 204.179 76.7458C200.358 78.0873 194.731 84.9226 192.442 87.9326L192.713 88.026Z" fill="#4556EB"/>
<path d="M29.9252 57.9883L30.2364 74.7854L27.5729 74.8348L27.2617 58.0377L29.9252 57.9883ZM35.8536 68.3203C35.8365 67.3924 35.5589 66.6614 35.0209 66.1273C34.4986 65.5769 33.8135 65.3095 32.9657 65.3252C32.0858 65.3415 31.3871 65.6345 30.8696 66.2042C30.3518 66.7579 30.1014 67.4987 30.1186 68.4265L29.3028 68.4416C29.282 67.3218 29.4398 66.3347 29.776 65.4804C30.1279 64.6097 30.6277 63.9443 31.2753 63.4842C31.9226 63.0082 32.6861 62.762 33.566 62.7457C35.0697 62.7178 36.2623 63.1678 37.1436 64.0956C38.0409 65.0232 38.5047 66.3028 38.535 67.9345L38.659 74.6294L35.9714 74.6792L35.8536 68.3203ZM43.9151 62.794L44.1325 74.528L41.4689 74.5773L41.2516 62.8433L43.9151 62.794ZM42.4944 57.3714C42.9583 57.3628 43.3615 57.5313 43.704 57.8771C44.0621 58.2065 44.2454 58.5952 44.2537 59.0431C44.2626 59.523 44.0942 59.9342 43.7484 60.2767C43.4187 60.6188 43.0219 60.7942 42.558 60.8028C42.0941 60.8114 41.691 60.6508 41.3489 60.3211C41.0067 59.9914 40.8312 59.5866 40.8223 59.1067C40.8137 58.6427 40.9742 58.2397 41.304 57.8975C41.6337 57.5554 42.0305 57.38 42.4944 57.3714ZM51.3005 74.6592C50.3407 74.677 49.394 74.5425 48.4606 74.2558C47.5428 73.9527 46.7832 73.5507 46.1818 73.0498L47.2003 71.0146C47.6562 71.4382 48.2627 71.779 49.0196 72.037C49.7925 72.2948 50.5149 72.4174 51.1867 72.405C51.7626 72.3943 52.2243 72.2657 52.5718 72.0192C52.9353 71.7725 53.1135 71.4571 53.1064 71.0732C53.1008 70.7692 52.9923 70.5312 52.7811 70.3591C52.5856 70.1707 52.327 70.0314 52.0053 69.9414C51.6995 69.851 51.3138 69.7621 50.8481 69.6748C49.9973 69.5305 49.282 69.3597 48.7023 69.1624C48.1225 68.9651 47.6122 68.6305 47.1714 68.1586C46.7306 67.6867 46.5025 67.0348 46.4871 66.2029C46.4737 65.4831 46.6538 64.8396 47.0274 64.2726C47.401 63.7056 47.9289 63.2637 48.6111 62.947C49.3091 62.6141 50.098 62.4394 50.9778 62.4231C51.8257 62.4074 52.6438 62.5123 53.4321 62.7377C54.2204 62.9631 54.8748 63.3031 55.3953 63.7575L54.3777 65.8407C53.9387 65.4648 53.3651 65.1714 52.6571 64.9604C51.9491 64.7495 51.3151 64.6492 50.7552 64.6596C50.2593 64.6688 49.8614 64.7882 49.5616 65.0178C49.2778 65.2471 49.1395 65.5537 49.1466 65.9376C49.1516 66.2096 49.2438 66.4319 49.423 66.6046C49.6179 66.761 49.8683 66.8844 50.174 66.9748C50.4797 67.0651 50.8654 67.154 51.3311 67.2414C52.1988 67.4334 52.9309 67.6438 53.5272 67.8728C54.1232 68.0858 54.65 68.4441 55.1074 68.9477C55.5645 69.4354 55.8008 70.0951 55.8162 70.9269C55.8289 71.6148 55.6405 72.2424 55.2509 72.8097C54.8771 73.3608 54.3412 73.8028 53.6432 74.1357C52.9613 74.4684 52.1804 74.6429 51.3005 74.6592ZM63.3008 74.3409C61.973 74.3655 60.8938 73.9854 60.0631 73.2007C59.2482 72.3996 58.8275 71.2872 58.8011 69.8635L58.6068 59.3773L61.2704 59.3279L61.4624 69.6941C61.4749 70.366 61.6848 70.8982 62.0921 71.2908C62.5151 71.667 63.0306 71.8495 63.6385 71.8382C63.7825 71.8355 63.9422 71.8166 64.1175 71.7813C64.2929 71.7461 64.4363 71.7114 64.5477 71.6773L64.7352 74.0263C64.5447 74.1098 64.322 74.178 64.0669 74.2307C63.8121 74.2994 63.5568 74.3362 63.3008 74.3409ZM56.4095 62.5625L64.4001 62.4145L64.4472 64.958L56.4566 65.1061L56.4095 62.5625ZM71.5114 62.0427C72.6472 62.0217 73.676 62.2746 74.5979 62.8017C75.5356 63.3124 76.2849 64.0266 76.846 64.9444C77.4071 65.8621 77.6983 66.8969 77.7197 68.0487C77.7407 69.1845 77.4879 70.2214 76.9612 71.1593C76.4504 72.0969 75.7362 72.8463 74.8184 73.4074C73.9004 73.9525 72.8734 74.2356 71.7376 74.2566C70.6018 74.2776 69.5651 74.0328 68.6275 73.5221C67.6896 72.9954 66.9481 72.273 66.403 71.3549C65.8579 70.4369 65.5748 69.4099 65.5538 68.2741C65.5324 67.1223 65.7771 66.0776 66.2878 65.14C66.7986 64.2024 67.5129 63.461 68.431 62.9159C69.3488 62.3548 70.3756 62.0637 71.5114 62.0427ZM71.5585 64.5863C70.9186 64.5981 70.3297 64.7691 69.7917 65.0991C69.2697 65.4288 68.8618 65.8684 68.5679 66.418C68.2737 66.9515 68.1329 67.5542 68.1453 68.2261C68.1575 68.882 68.3206 69.4791 68.6346 70.0174C68.9483 70.5396 69.3721 70.9559 69.9059 71.266C70.4555 71.5599 71.0502 71.7009 71.6901 71.689C72.33 71.6772 72.911 71.5144 73.4333 71.2007C73.9553 70.8709 74.3634 70.4393 74.6575 69.9058C74.9674 69.3559 75.1163 68.7531 75.1041 68.0972C75.0917 67.4253 74.9206 66.8284 74.5909 66.3064C74.2768 65.7681 73.8529 65.3439 73.3191 65.0337C72.7852 64.7236 72.1984 64.5744 71.5585 64.5863ZM79.8465 62.1283L82.51 62.079L82.7274 73.813L80.0639 73.8623L79.8465 62.1283ZM82.5412 63.7587C82.8027 63.1937 83.2102 62.7301 83.7636 62.3678C84.3327 61.9892 84.9132 61.7944 85.5051 61.7834C86.097 61.7725 86.5945 61.8513 86.9977 62.0198L86.7338 64.6172C86.2983 64.4332 85.8166 64.3461 85.2887 64.3559C84.8408 64.3642 84.4032 64.5003 83.976 64.7643C83.5645 65.0119 83.2273 65.3783 82.9642 65.8632C82.7169 66.3319 82.5992 66.8941 82.6114 67.55L82.5412 63.7587ZM93.7054 70.393L96.907 61.8123L99.7865 61.7589L93.4575 77.7429L90.578 77.7962L93.7054 70.393ZM87.7406 61.9821L90.6201 61.9287L94.6159 71.6004L92.9527 73.8156L87.7406 61.9821ZM109.652 73.3141L106.989 73.3635L106.772 61.6295L109.435 61.5802L109.652 73.3141ZM115.27 66.849C115.253 65.9211 114.975 65.1902 114.437 64.656C113.915 64.1056 113.23 63.8383 112.382 63.854C111.502 63.8703 110.803 64.1633 110.286 64.7329C109.768 65.2866 109.517 66.0274 109.535 66.9552L108.719 66.9703C108.698 65.8505 108.856 64.8634 109.192 64.0091C109.544 63.1384 110.044 62.473 110.691 62.013C111.339 61.5369 112.102 61.2907 112.982 61.2744C114.486 61.2465 115.678 61.6965 116.56 62.6244C117.457 63.5519 117.921 64.8315 117.951 66.4632L118.075 73.1581L115.388 73.2079L115.27 66.849ZM126.385 73.2442C125.281 73.2646 124.252 73.0117 123.298 72.4852C122.36 71.9585 121.61 71.2363 121.049 70.3185C120.504 69.3845 120.221 68.3415 120.199 67.1897C120.179 66.0699 120.424 65.0492 120.935 64.1276C121.445 63.19 122.16 62.4486 123.078 61.9035C123.996 61.3424 125.006 61.0516 126.11 61.0312C127.15 61.0119 128.106 61.2422 128.98 61.7222C129.852 62.1861 130.545 62.8454 131.057 63.7C131.568 64.5387 131.834 65.4779 131.853 66.5178C131.844 66.902 131.819 67.3025 131.779 67.7193L121.557 67.9087L121.544 65.8926L129.102 65.7526C129.03 65.2898 128.846 64.8772 128.551 64.5146C128.272 64.1357 127.907 63.8464 127.455 63.6467C127.019 63.4308 126.537 63.3277 126.009 63.3375C125.337 63.3499 124.748 63.5128 124.242 63.8263C123.751 64.1234 123.375 64.5545 123.113 65.1194C122.852 65.6683 122.727 66.3107 122.741 67.0466C122.756 67.8465 122.913 68.5397 123.212 69.1263C123.526 69.6965 123.959 70.1366 124.508 70.4465C125.058 70.7563 125.693 70.9046 126.413 70.8913C127.069 70.8791 127.674 70.7319 128.229 70.4496C128.784 70.1512 129.185 69.7757 129.432 69.3231L131.593 70.6273C131.176 71.4191 130.499 72.0478 129.564 72.5132C128.644 72.9783 127.584 73.222 126.385 73.2442ZM134.001 61.125L136.665 61.0757L136.882 72.8097L134.219 72.859L134.001 61.125ZM136.696 62.7554C136.958 62.1905 137.365 61.7268 137.918 61.3645C138.487 60.9859 139.068 60.7911 139.66 60.7802C140.252 60.7692 140.749 60.848 141.152 61.0166L140.889 63.6139C140.453 63.4299 139.971 63.3428 139.443 63.3526C138.996 63.3609 138.558 63.497 138.131 63.761C137.719 64.0087 137.382 64.375 137.119 64.8599C136.872 65.3286 136.754 65.8909 136.766 66.5467L136.696 62.7554ZM152.295 66.6431C152.319 67.8909 152.139 68.9824 151.756 69.9177C151.373 70.8369 150.802 71.5516 150.043 72.0618C149.301 72.5716 148.409 72.8362 147.37 72.8554C146.346 72.8744 145.397 72.6199 144.523 72.092C143.649 71.5641 142.955 70.8328 142.442 69.8982C141.929 68.9635 141.662 67.9443 141.641 66.8405C141.621 65.7367 141.85 64.7163 142.329 63.7792C142.807 62.8262 143.473 62.0697 144.327 61.5098C145.181 60.9499 146.12 60.6605 147.143 60.6415C148.183 60.6223 149.084 60.8536 149.845 61.3356C150.622 61.8173 151.219 62.5183 151.636 63.4388C152.053 64.3432 152.273 65.4113 152.295 66.6431ZM147.898 70.3012C148.586 70.2884 149.199 70.1251 149.738 69.811C150.276 69.481 150.692 69.0412 150.985 68.4917C151.279 67.9422 151.42 67.3314 151.408 66.6596C151.395 65.9877 151.232 65.3906 150.918 64.8683C150.604 64.33 150.173 63.914 149.623 63.6201C149.073 63.3102 148.454 63.1617 147.766 63.1744C147.111 63.1866 146.514 63.3576 145.976 63.6877C145.438 64.0177 145.014 64.4576 144.704 65.0075C144.394 65.5573 144.245 66.1522 144.257 66.792C144.269 67.4479 144.44 68.0449 144.77 68.5828C145.1 69.1208 145.54 69.5447 146.09 69.8546C146.64 70.1645 147.243 70.3133 147.898 70.3012ZM154.204 72.4888L151.517 72.5386L151.205 55.7414L153.893 55.6916L154.204 72.4888ZM161.368 72.6201C160.408 72.6379 159.461 72.5034 158.528 72.2166C157.61 71.9136 156.85 71.5116 156.249 71.0106L157.267 68.9754C157.723 69.399 158.33 69.7399 159.087 69.9979C159.86 70.2556 160.582 70.3783 161.254 70.3658C161.83 70.3551 162.291 70.2266 162.639 69.9801C163.002 69.7333 163.181 69.418 163.173 69.034C163.168 68.7301 163.059 68.492 162.848 68.3199C162.653 68.1315 162.394 67.9923 162.072 67.9022C161.767 67.8119 161.381 67.723 160.915 67.6356C160.064 67.4914 159.349 67.3206 158.769 67.1233C158.19 66.926 157.679 66.5914 157.238 66.1195C156.798 65.6475 156.57 64.9957 156.554 64.1638C156.541 63.4439 156.721 62.8005 157.094 62.2335C157.468 61.6664 157.996 61.2246 158.678 60.9079C159.376 60.5749 160.165 60.4003 161.045 60.384C161.893 60.3683 162.711 60.4731 163.499 60.6986C164.287 60.924 164.942 61.2639 165.462 61.7184L164.445 63.8016C164.006 63.4257 163.432 63.1322 162.724 62.9213C162.016 62.7104 161.382 62.6101 160.822 62.6205C160.326 62.6297 159.928 62.7491 159.629 62.9787C159.345 63.2079 159.207 63.5146 159.214 63.8985C159.219 64.1704 159.311 64.3928 159.49 64.5655C159.685 64.7219 159.935 64.8453 160.241 64.9356C160.547 65.026 160.932 65.1149 161.398 65.2023C162.266 65.3942 162.998 65.6047 163.594 65.8337C164.19 66.0467 164.717 66.405 165.174 66.9086C165.632 67.3962 165.868 68.056 165.883 68.8878C165.896 69.5757 165.708 70.2033 165.318 70.7706C164.944 71.3216 164.408 71.7636 163.71 72.0966C163.028 72.4293 162.247 72.6038 161.368 72.6201ZM39.1489 101.793C37.8211 101.818 36.7419 101.437 35.9112 100.653C35.0963 99.8517 34.6756 98.7393 34.6492 97.3156L34.4549 86.8294L37.1185 86.78L37.3105 97.1462C37.323 97.8181 37.5329 98.3503 37.9402 98.7428C38.3633 99.1191 38.8787 99.3016 39.4866 99.2903C39.6306 99.2876 39.7903 99.2687 39.9656 99.2334C40.141 99.1982 40.2844 99.1635 40.3958 99.1294L40.5833 101.478C40.3928 101.562 40.1701 101.63 39.915 101.683C39.6602 101.751 39.4049 101.788 39.1489 101.793ZM32.2576 90.0146L40.2482 89.8666L40.2953 92.4101L32.3047 92.5582L32.2576 90.0146ZM50.6658 89.6736L53.3293 89.6242L53.5467 101.358L50.8832 101.408L50.6658 89.6736ZM45.0486 96.1387C45.0658 97.0666 45.3355 97.8057 45.8578 98.3561C46.3958 98.8902 47.0887 99.1495 47.9365 99.1337C48.8164 99.1174 49.5152 98.8324 50.0331 98.2788C50.5506 97.7091 50.8008 96.9603 50.7836 96.0325L51.5994 96.0174C51.6202 97.1372 51.4546 98.1324 51.1027 99.0031C50.7664 99.8574 50.2747 100.523 49.6274 100.999C48.9798 101.459 48.2161 101.697 47.3362 101.713C45.8325 101.741 44.6319 101.291 43.7346 100.364C42.8533 99.436 42.3975 98.1562 42.3673 96.5245L42.2432 89.8296L44.9308 89.7798L45.0486 96.1387ZM66.326 95.2404C66.3491 96.4882 66.1693 97.5797 65.7866 98.515C65.4035 99.4343 64.8327 100.149 64.074 100.659C63.3313 101.169 62.4401 101.433 61.4002 101.453C60.3764 101.472 59.4275 101.217 58.5536 100.689C57.6797 100.161 56.986 99.4302 56.4726 98.4955C55.9592 97.5609 55.6923 96.5416 55.6718 95.4378C55.6514 94.334 55.8805 93.3136 56.3593 92.3766C56.8377 91.4235 57.5038 90.6671 58.3576 90.1072C59.2113 89.5473 60.1501 89.2578 61.174 89.2388C62.2138 89.2196 63.1142 89.4509 63.8753 89.9329C64.6523 90.4146 65.2494 91.1157 65.6665 92.0361C66.0834 92.9405 66.3032 94.0087 66.326 95.2404ZM61.929 98.8985C62.6169 98.8858 63.23 98.7224 63.7683 98.4084C64.3062 98.0783 64.7222 97.6386 65.016 97.089C65.3099 96.5395 65.4506 95.9288 65.4382 95.2569C65.4257 94.585 65.2626 93.9879 64.9489 93.4656C64.6349 92.9274 64.2031 92.5113 63.6536 92.2174C63.1037 91.9076 62.4849 91.759 61.797 91.7717C61.1411 91.7839 60.5442 91.955 60.0062 92.285C59.4682 92.615 59.0443 93.0549 58.7344 93.6048C58.4245 94.1546 58.2755 94.7495 58.2874 95.3894C58.2995 96.0453 58.4706 96.6422 58.8007 97.1802C59.1307 97.7181 59.5706 98.1421 60.1204 98.4519C60.6703 98.7618 61.2731 98.9107 61.929 98.8985ZM68.2346 101.086L65.5471 101.136L65.2359 84.3388L67.9234 84.289L68.2346 101.086ZM75.6696 97.7318L78.8713 89.151L81.7508 89.0977L75.4217 105.082L72.5422 105.135L75.6696 97.7318ZM69.7048 89.3208L72.5843 89.2675L76.5802 98.9391L74.9169 101.154L69.7048 89.3208ZM90.6444 94.8139C90.6213 93.5661 90.8013 92.4826 91.1843 91.5634C91.567 90.6281 92.1298 89.9056 92.8724 89.3957C93.6311 88.8856 94.5304 88.6209 95.5702 88.6016C96.594 88.5826 97.5349 88.8373 98.3928 89.3655C99.2668 89.8934 99.9604 90.6246 100.474 91.5593C100.987 92.4939 101.254 93.5132 101.275 94.617C101.295 95.7208 101.066 96.7492 100.588 97.7022C100.109 98.6393 99.4426 99.3877 98.5889 99.9476C97.7511 100.507 96.8203 100.797 95.7965 100.816C94.7566 100.835 93.8482 100.604 93.0712 100.122C92.3101 99.6399 91.7212 98.9467 91.3043 98.0422C90.8872 97.1218 90.6672 96.0457 90.6444 94.8139ZM95.0414 91.1558C94.3535 91.1686 93.7406 91.34 93.2026 91.67C92.6643 91.984 92.2403 92.4159 91.9304 92.9658C91.6365 93.5153 91.4958 94.126 91.5083 94.7979C91.5204 95.4538 91.6835 96.0509 91.9975 96.5892C92.3276 97.1271 92.7675 97.5511 93.3173 97.8609C93.8669 98.1548 94.4856 98.2954 95.1734 98.2826C95.8293 98.2705 96.4263 98.0994 96.9642 97.7694C97.5022 97.4393 97.9261 96.9994 98.236 96.4496C98.5459 95.8997 98.6949 95.3049 98.683 94.665C98.6709 94.0091 98.4998 93.4122 98.1698 92.8742C97.8398 92.3362 97.3998 91.9123 96.85 91.6024C96.3002 91.2926 95.6973 91.1437 95.0414 91.1558ZM88.7358 88.9683L91.3994 88.9189L91.6928 104.756L89.0292 104.806L88.7358 88.9683ZM103.405 88.6965L106.069 88.6472L106.286 100.381L103.623 100.43L103.405 88.6965ZM106.1 90.3269C106.361 89.7619 106.769 89.2983 107.322 88.936C107.891 88.5574 108.472 88.3626 109.064 88.3516C109.656 88.3407 110.153 88.4195 110.556 88.588L110.292 91.1854C109.857 91.0014 109.375 90.9143 108.847 90.9241C108.399 90.9324 107.962 91.0685 107.535 91.3325C107.123 91.5801 106.786 91.9464 106.523 92.4314C106.276 92.9001 106.158 93.4623 106.17 94.1182L106.1 90.3269ZM117.027 88.2041C118.163 88.183 119.192 88.436 120.114 88.963C121.051 89.4738 121.801 90.188 122.362 91.1058C122.923 92.0235 123.214 93.0583 123.236 94.2101C123.257 95.3459 123.004 96.3828 122.477 97.3207C121.966 98.2583 121.252 99.0077 120.334 99.5688C119.416 100.114 118.389 100.397 117.253 100.418C116.118 100.439 115.081 100.194 114.143 99.6835C113.205 99.1568 112.464 98.4344 111.919 97.5163C111.374 96.5983 111.091 95.5713 111.07 94.4355C111.048 93.2837 111.293 92.239 111.804 91.3014C112.314 90.3638 113.029 89.6224 113.947 89.0773C114.865 88.5162 115.891 88.2251 117.027 88.2041ZM117.074 90.7477C116.434 90.7595 115.845 90.9304 115.308 91.2605C114.786 91.5902 114.378 92.0298 114.084 92.5794C113.79 93.1129 113.649 93.7156 113.661 94.3875C113.673 95.0434 113.836 95.6405 114.15 96.1787C114.464 96.701 114.888 97.1172 115.422 97.4274C115.971 97.7213 116.566 97.8623 117.206 97.8504C117.846 97.8386 118.427 97.6758 118.949 97.3621C119.471 97.0323 119.879 96.6007 120.173 96.0672C120.483 95.5173 120.632 94.9145 120.62 94.2586C120.608 93.5867 120.436 92.9898 120.107 92.4678C119.793 91.9295 119.369 91.5053 118.835 91.1951C118.301 90.885 117.714 90.7358 117.074 90.7477ZM129.623 100.213C128.663 100.231 127.717 100.096 126.783 99.8094C125.866 99.5063 125.106 99.1043 124.505 98.6034L125.523 96.5682C125.979 96.9918 126.585 97.3326 127.342 97.5906C128.115 97.8484 128.838 97.971 129.509 97.9586C130.085 97.9479 130.547 97.8193 130.895 97.5728C131.258 97.3261 131.436 97.0107 131.429 96.6268C131.423 96.3228 131.315 96.0848 131.104 95.9127C130.908 95.7243 130.65 95.585 130.328 95.495C130.022 95.4046 129.637 95.3157 129.171 95.2284C128.32 95.0841 127.605 94.9133 127.025 94.716C126.445 94.5187 125.935 94.1841 125.494 93.7122C125.053 93.2403 124.825 92.5884 124.81 91.7565C124.796 91.0367 124.977 90.3932 125.35 89.8262C125.724 89.2592 126.252 88.8173 126.934 88.5006C127.632 88.1677 128.421 87.993 129.301 87.9767C130.148 87.961 130.966 88.0659 131.755 88.2913C132.543 88.5167 133.197 88.8567 133.718 89.3111L132.7 91.3943C132.261 91.0184 131.688 90.725 130.98 90.514C130.272 90.3031 129.638 90.2028 129.078 90.2132C128.582 90.2224 128.184 90.3418 127.884 90.5714C127.601 90.8007 127.462 91.1073 127.469 91.4912C127.474 91.7632 127.566 91.9855 127.746 92.1582C127.941 92.3146 128.191 92.438 128.497 92.5284C128.802 92.6187 129.188 92.7076 129.654 92.795C130.522 92.987 131.254 93.1974 131.85 93.4264C132.446 93.6394 132.973 93.9977 133.43 94.5013C133.887 94.989 134.123 95.6487 134.139 96.4806C134.152 97.1684 133.963 97.796 133.574 98.3633C133.2 98.9144 132.664 99.3564 131.966 99.6894C131.284 100.022 130.503 100.197 129.623 100.213ZM138.829 88.0402L139.046 99.7742L136.383 99.8236L136.165 88.0896L138.829 88.0402ZM138.54 86.7014L136.068 86.7471L137.993 83.1109L141.209 83.0513L138.54 86.7014ZM152.4 99.5268L149.713 99.5766L149.591 93.0017C149.575 92.1219 149.33 91.4383 148.857 90.951C148.399 90.4474 147.771 90.203 146.971 90.2178C146.507 90.2264 146.077 90.3384 145.681 90.5537C145.3 90.7528 144.986 91.0707 144.738 91.5074C144.506 91.9277 144.396 92.4579 144.408 93.0978L143.657 92.7516C143.634 91.5038 143.832 90.508 144.25 89.7641C144.668 89.0042 145.194 88.4664 145.828 88.1506C146.478 87.8185 147.163 87.6458 147.883 87.6324C149.131 87.6093 150.113 87.9512 150.831 88.658C151.548 89.3649 152.025 90.4922 152.261 92.0401L152.4 99.5268ZM160.271 99.381L157.559 99.4312L157.437 92.8564C157.421 91.9765 157.184 91.2928 156.727 90.8052C156.27 90.3016 155.641 90.0572 154.841 90.072C154.378 90.0806 153.948 90.1926 153.551 90.4079C153.155 90.6073 152.841 90.9252 152.609 91.3615C152.377 91.7819 152.267 92.3121 152.278 92.9519L151.205 90.7154C151.289 90.1058 151.519 89.5574 151.894 89.0704C152.285 88.5831 152.775 88.2059 153.362 87.939C153.949 87.6561 154.578 87.5084 155.25 87.496C156.194 87.4785 157.029 87.663 157.757 88.0496C158.483 88.4202 159.054 88.9698 159.467 89.6982C159.897 90.4104 160.12 91.2464 160.138 92.2062L160.271 99.381ZM144.53 99.6726L141.866 99.722L141.649 87.988L144.312 87.9386L144.53 99.6726Z" fill="#4556EB"/>
</g>
<defs>
<clipPath id="clip0_472_2813">
<rect width="222.083" height="278.721" fill="white" transform="translate(0.249023 0.364258)"/>
</clipPath>
</defs>
</svg>
