<svg width="223" height="280" viewBox="0 0 223 280" fill="none" xmlns="http://www.w3.org/2000/svg">
<g clip-path="url(#clip0_472_2826)">
<path d="M12.6632 72.4458C12.9859 72.1386 13.2452 71.9067 13.3718 71.7562C17.4907 67.6993 21.694 64.6119 26.0874 61.2987C26.808 60.7475 27.5287 60.1963 28.2494 59.6451C33.2307 55.8619 37.5606 51.0192 41.7578 46.2579C43.2835 44.5202 44.8786 42.7765 46.4737 41.0327C55.227 31.6183 65.856 22.8776 78.9426 14.2716L80.2633 13.389C84.0295 10.8979 85.8749 9.62074 87.3465 10.4693C88.5979 11.1974 88.7669 13.1363 88.6917 16.2825C88.6286 19.5672 89.3857 22.6408 90.2302 25.9162C90.4293 26.5965 90.559 27.2829 90.7581 27.9633C91.7504 32.1327 91.021 36.5918 90.3488 40.9064C89.8454 43.9504 89.4053 46.9191 89.508 49.7009C89.5322 49.9779 89.6076 50.0411 89.689 50.1736C90.4489 50.8748 93.0211 50.7204 94.8304 50.6324C95.732 50.5538 96.5643 50.4813 97.2699 50.5593C99.4441 50.6489 101.757 50.7264 103.931 50.816C108.563 51.0402 113.333 51.2524 117.935 51.1304C120.721 51.0271 123.432 50.8605 126.143 50.694C132.195 50.3758 138.386 50.0456 144.758 50.1879C150.782 50.3605 156.822 49.9038 162.648 49.396C168.543 48.8822 174.653 48.4195 180.753 48.6552C184.257 48.7685 187.779 49.0894 191.232 49.4164C194.118 49.6533 197.079 49.9533 199.959 50.1209C200.028 50.1149 200.167 50.1028 200.305 50.0907C201.276 50.0061 202.802 49.8731 203.586 50.8513C203.981 51.375 204.117 52.1307 203.773 52.9979C203.74 55.0241 203.493 56.9992 203.297 58.7605C203.135 60.1003 203.023 61.2264 203.026 62.0633C203.029 62.9003 203.026 63.668 203.029 64.505C203.063 67.2929 203.033 70.1561 202.21 72.7395C201.233 75.9643 201.26 78.683 201.318 81.7479C201.384 84.1143 201.381 86.4867 201.011 89.4493C200.884 94.414 199.782 112.232 199.254 116.603L199.182 117.377L195.186 117.237C190.561 117.082 184.189 116.94 180.031 114.93C177.917 113.928 174.588 114.218 171.328 114.502C168.762 114.726 166.057 114.962 163.991 114.514C161 113.868 158.283 113.965 155.358 114.08C153.826 114.144 152.294 114.208 150.612 114.145L143.043 113.898C143.166 116.12 143.034 122.62 142.414 142.768C142.122 153.049 141.791 163.683 141.62 168.931C143.061 169.433 144.361 170.715 145.591 172.003C146.74 173.159 147.889 174.315 148.96 174.57L149.672 174.718C151.342 174.642 153.314 174.819 155.35 174.921C159.918 175.22 165.047 175.54 168.319 173.79L168.919 173.459L170.545 175.271L170.192 176.836C170.204 176.975 170.147 177.119 170.089 177.264C170.436 177.234 170.714 177.209 170.991 177.185C171.754 177.119 172.586 177.046 173.349 176.98L185.073 176.795L185.085 178.538L173.361 178.723C172.598 178.789 171.905 178.85 171.142 178.916C170.656 178.959 170.171 179.001 169.616 179.049C168.335 184.394 167.126 190.569 167.386 196.756C168.079 196.696 169.358 196.933 171.701 197.357C172.268 197.447 172.696 197.549 172.835 197.537C174.032 197.642 175.627 197.503 177.292 197.358C180.274 197.098 183.395 196.826 185.452 197.972L184.607 199.511C182.991 198.605 180.147 198.853 177.443 199.089C175.709 199.24 174.044 199.385 172.633 199.229C172.425 199.247 172.066 199.139 171.354 198.992C170.429 198.793 168.514 198.472 167.669 198.406C167.681 198.544 167.561 198.764 167.573 198.903L167.657 199.872L166.75 199.881C165.142 199.882 163.252 199.837 161.286 199.73C153.566 199.356 144.019 198.862 141.999 204.55C142.011 204.689 142.029 204.897 141.845 205.192C141.294 206.077 140.301 206.722 139.014 207.183C138.963 210.606 138.608 224.172 138.217 237.323C137.377 268.583 137.245 268.665 136.72 269.059C135.544 269.999 132.8 270.587 129.471 270.877C122.743 271.464 113.664 270.72 111.119 268.779C110.597 268.406 110.22 268.09 111.077 237.037C111.453 222.911 112.04 206.394 112.203 205.054C111.096 204.383 110.047 203.568 109.212 202.803C108.22 201.843 107.927 199.287 108.506 197.911C108.69 197.616 108.874 197.321 109.07 197.164C107.875 196.292 106.374 195.097 106.235 193.504C106.168 192.743 106.455 192.02 107.094 191.336L107.284 191.11C107.664 190.659 108.24 190.05 108.909 189.713L108.131 188.804C106.675 187.326 108.451 184.45 109.096 183.836L109.223 183.685C109.419 183.529 109.672 183.228 109.994 182.92C109.192 181.734 108.921 180.223 109.379 179.067C109.717 178.13 110.844 176.637 114.002 176.78C114.086 174.54 114.242 168.317 114.402 161.326C115.277 125.667 115.611 115.87 116.063 113.04L113.75 112.962C110.038 112.867 106.191 113.621 102.551 114.357C98.7727 115.105 94.8556 115.865 90.8661 115.794L83.0199 115.571C81.4402 123.105 81.0062 126.142 80.0839 133.2L79.6951 135.955C79.1948 139.836 79.2041 143.951 79.2013 147.928C79.2255 149.81 79.1865 151.767 79.1414 153.655L79.003 158.481C78.994 159.18 78.5205 159.36 78.3879 159.442C78.3185 159.448 78.1798 159.46 78.1104 159.466C77.5556 159.514 77.1666 159.06 76.6207 158.41C76.3071 158.018 75.8487 157.57 75.6225 157.38C72.818 155.671 70.8849 151.933 69.1327 148.667C68.3757 147.198 67.6248 145.798 66.904 144.744C63.7707 140.064 60.4654 135.817 56.8949 131.733C53.4057 127.781 50.2904 123.308 47.2626 119.037C43.5201 113.781 39.6901 108.324 35.1636 103.695C33.5502 102.022 31.8042 100.43 30.1275 98.8317C26.9309 95.8311 23.6589 92.7673 20.8301 89.1765C17.2053 84.469 12.0334 78.8498 9.41291 78.4503C8.91534 78.3541 8.54443 78.1074 8.43284 77.6287C8.14027 76.6774 9.02071 75.5541 12.5124 72.3194L12.6632 72.4458ZM112.433 267.827C116.275 270.213 132.191 270.012 135.45 268.124C135.902 263.689 137.094 216.42 137.265 207.963C136.167 208.198 134.925 208.376 133.607 208.491C127.851 208.993 120.87 208.276 118.237 207.738C116.889 207.506 115.373 206.941 113.913 206.231C113.44 212.83 111.972 263.332 112.433 267.827ZM111.059 179.897C110.658 180.909 111.276 182.39 112.383 183.061C112.383 183.061 112.383 183.061 112.458 183.124L112.76 183.377C114.222 184.924 116.577 185.486 118.712 185.928C118.996 185.973 119.279 186.018 119.569 186.133L119.159 187.843C118.875 187.798 118.592 187.753 118.372 187.632C116.161 187.127 113.384 186.532 111.614 184.663L111.388 184.473C111.18 184.492 110.8 184.943 110.604 185.1L110.477 185.25C109.965 185.784 109.214 187.593 109.515 187.846L111.454 190.049C113.936 192.066 117.89 193.326 119.527 193.671L119.117 195.382C117.045 194.864 113.237 193.661 110.61 191.588C110.471 191.6 110.263 191.618 110.049 191.567C109.98 191.573 109.772 191.591 109.703 191.597C109.374 191.835 108.988 192.218 108.671 192.594L108.481 192.82C108.032 193.278 108.056 193.555 108.068 193.693C108.141 194.524 109.416 195.529 110.309 196.149C110.686 196.465 111.057 196.712 111.289 196.971C112.381 198.271 114.672 198.909 116.536 199.444L117.109 199.603L116.624 201.25L116.051 201.091C114.256 200.55 112.034 199.906 110.526 198.642C110.394 198.723 110.267 198.874 110.21 199.019C109.86 199.816 110.155 201.605 110.532 201.921C112.441 203.778 115.888 205.64 118.584 206.103C124.838 207.302 137.94 207.695 140.271 204.771C140.265 204.701 140.253 204.563 140.316 204.488C142.632 197.379 153.023 197.938 161.373 198.327C162.917 198.401 164.461 198.476 165.791 198.5C165.115 190.744 166.954 182.979 168.509 176.774L168.663 176.132L168.651 175.994C164.876 177.579 159.816 177.252 155.317 176.947C153.281 176.845 151.378 176.662 149.708 176.738L148.643 176.552C147.075 176.2 145.77 174.849 144.464 173.497C143.541 172.531 142.624 171.634 141.668 171.09C141.659 171.788 141.626 172.21 141.644 172.417L141.771 173.871C141.702 173.877 141.644 174.022 141.644 174.022C141.605 174.374 141.566 174.727 141.59 175.004C141.491 176.268 141.412 176.973 140.221 178.542L139.474 179.584L139.335 179.596C131.341 184.897 121.511 182.754 114.964 178.999C112.91 178.689 111.547 179.087 111.21 180.024L111.059 179.897ZM115.808 177.46C121.908 180.905 130.883 182.844 138.162 178.163L138.726 177.416C139.663 176.148 139.702 175.796 139.751 174.745C139.727 174.468 139.766 174.116 139.805 173.764L139.817 172.298C139.967 169.214 141.547 120.796 141.408 114.389L117.794 113.657C117.279 118.167 116.626 145.155 116.253 161.723C116.001 171.652 115.883 175.918 115.814 177.529L115.808 177.46ZM22.2896 88.2818C24.9736 91.8155 28.2395 94.81 31.3607 97.7474C33.0374 99.3455 34.7835 100.938 36.4722 102.674C41.0742 107.366 44.9795 112.887 48.7281 118.211C51.7559 122.482 54.8591 126.817 58.2789 130.775C61.9248 134.922 65.2361 139.238 68.4449 143.982C69.2471 145.168 69.998 146.568 70.761 148.106C72.3564 151.176 74.2021 154.713 76.6357 156.176C76.9312 156.359 77.1634 156.618 77.465 156.871L77.5522 153.863C77.5973 151.975 77.6364 150.018 77.6182 148.206C77.6149 144.16 77.5996 139.975 78.1632 136.019L78.5521 133.264C79.4743 126.206 79.8903 122.961 81.6237 114.786L81.7714 114.075L91.0922 114.379C94.8043 114.474 98.652 113.72 102.361 112.978C106.139 112.23 110.056 111.47 113.976 111.547L150.762 112.667C152.376 112.736 153.907 112.672 155.37 112.614C158.364 112.493 161.295 112.447 164.425 113.081C166.277 113.477 168.704 113.266 171.27 113.042C174.738 112.74 178.345 112.426 180.899 113.668C184.693 115.5 190.856 115.661 195.337 115.759L197.719 115.83C198.232 110.483 199.247 94.0683 199.346 89.5944C199.723 86.701 199.656 84.3346 199.596 82.0375C199.532 78.9034 199.481 75.9077 200.578 72.4631C201.281 70.0995 201.323 67.3748 201.302 64.7254C201.298 63.8884 201.295 63.0514 201.362 62.2084C201.353 61.3022 201.533 60.1701 201.621 58.7671C201.817 57.0058 201.988 54.9675 202.091 52.9352L202.079 52.7967L202.136 52.6522C202.308 52.2186 202.226 52.0861 202.22 52.0169C202.214 51.9477 201.78 51.7762 200.462 51.8911C200.185 51.9152 199.977 51.9334 199.908 51.9394C196.958 51.7778 193.997 51.4778 191.111 51.2409C187.728 50.9079 184.206 50.5869 180.771 50.4677C174.746 50.2951 168.706 50.7518 162.881 51.2596C156.985 51.7734 150.876 52.2361 144.776 52.0003C138.467 51.7827 132.56 52.1581 126.3 52.4944C123.589 52.6609 120.878 52.8274 118.092 52.9307C113.427 53.128 108.581 52.8527 103.949 52.6284C101.775 52.5388 99.5256 52.3861 97.3575 52.3657C96.7272 52.3509 95.9643 52.4174 95.126 52.4207C92.6292 52.6383 89.9817 52.7295 88.6879 51.5167C88.2296 51.0682 87.9732 50.5324 87.9128 49.84C87.792 46.8504 88.2894 43.7372 88.7928 40.6932C89.477 36.5171 90.1553 32.2718 89.2624 28.4425C89.0634 27.7621 88.9337 27.0757 88.7346 26.3954C87.878 22.9815 87.0395 19.7754 87.1538 16.277C87.2682 12.7785 86.8611 12.1163 86.7163 12.0591C86.2007 11.7552 83.6226 13.4451 81.4485 14.9602L80.1278 15.8428C67.1738 24.3675 56.6775 33.0268 47.9815 42.2967C46.4497 43.9652 44.8547 45.7089 43.329 47.4466C39.0624 52.214 34.6752 57.2012 29.5612 61.0657C28.8405 61.6169 28.1199 62.1681 27.3992 62.7193C22.9998 65.9633 18.9352 69.0386 14.8796 73.0201C14.6836 73.1768 14.4243 73.4087 14.1017 73.7159C13.387 74.3363 11.5085 76.035 10.8241 77.0017C14.6448 78.3431 20.272 85.1785 22.561 88.1884L22.2896 88.2818Z" fill="#4556EB"/>
<path d="M87.4512 90.8628L84.4037 90.9193L79.3254 78.5312L74.6854 91.0993L71.7099 91.1544L78.0935 74.2333L80.4211 74.1902L87.4512 90.8628ZM83.9575 87.567L75.0071 87.7328L75.9442 85.195L82.927 85.0656L83.9575 87.567ZM98.5539 90.6571L98.2428 73.86L101.05 73.808L101.361 90.6051L98.5539 90.6571ZM93.1334 76.6431L93.0836 73.9556L106.209 73.7124L106.259 76.4L93.1334 76.6431ZM115.203 90.5647C113.972 90.5875 112.847 90.3283 111.828 89.7871C110.826 89.2296 110.027 88.4522 109.433 87.4551C108.854 86.4416 108.553 85.311 108.53 84.0632L108.337 73.673L111.145 73.621L111.337 84.0112C111.351 84.7471 111.523 85.416 111.855 86.018C112.202 86.6036 112.658 87.0593 113.224 87.3848C113.806 87.7101 114.449 87.8662 115.153 87.8532C115.857 87.8401 116.486 87.6605 117.04 87.3141C117.609 86.9675 118.049 86.4953 118.357 85.8975C118.682 85.2834 118.838 84.6084 118.824 83.8725L118.632 73.4823L121.439 73.4303L121.632 83.8205C121.655 85.0683 121.388 86.2094 120.831 87.2439C120.29 88.2621 119.52 89.0685 118.523 89.6631C117.542 90.2413 116.435 90.5419 115.203 90.5647ZM130.025 73.2712C131.609 73.2418 133.04 73.5754 134.317 74.2719C135.61 74.968 136.636 75.9492 137.396 77.2153C138.155 78.4655 138.549 79.8744 138.578 81.4422C138.608 83.0259 138.266 84.4725 137.555 85.7819C136.843 87.0913 135.854 88.1258 134.588 88.8854C133.321 89.6449 131.904 90.0393 130.337 90.0683L124.818 90.1706L124.506 73.3734L130.025 73.2712ZM130.479 87.3772C131.487 87.3585 132.386 87.0938 133.177 86.5831C133.983 86.0561 134.61 85.3483 135.058 84.4599C135.505 83.5715 135.719 82.5833 135.699 81.4955C135.679 80.4237 135.429 79.4602 134.949 78.6049C134.485 77.7493 133.841 77.0892 133.016 76.6244C132.191 76.1596 131.275 75.9365 130.267 75.9552L127.364 76.009L127.575 87.431L130.479 87.3772ZM141.125 73.0656L145.495 79.6577L149.547 72.9095L152.835 72.8486L146.916 82.4639L147.051 89.7587L144.243 89.8107L144.108 82.5159L137.717 73.1287L141.125 73.0656Z" fill="#4556EB"/>
</g>
<defs>
<clipPath id="clip0_472_2826">
<rect width="222.083" height="278.721" fill="white" transform="translate(0.753906 0.620117)"/>
</clipPath>
</defs>
</svg>
