<svg width="580" height="317" viewBox="0 0 580 317" fill="none" xmlns="http://www.w3.org/2000/svg">
<path d="M526.316 54.0001C517.816 54.0001 534.689 55.5743 526.316 51.5146C509.669 43.443 495.625 22.375 480 13C472.066 8.23939 470.654 7.48159 461.666 10.0497C458.1 11.0684 455.402 13.2312 452.077 14.6859C446.159 17.2749 429.82 14.6859 423.5 14.6859C411.804 14.6859 408.514 25.2778 396.818 25.2778C381.653 25.2778 365.191 31.4362 349.402 32.8644C313.517 36.1103 275.597 38.7546 242.137 23.3812C233.75 19.5279 222.725 21.4845 213.687 21.4845C204.957 21.4845 196.66 19.7419 188.188 19.5879C148.895 18.8735 149.163 1.5 110.005 1.5C93.0141 1.5 46.7529 25.6936 40.2505 40.5563C36.4779 49.1794 31.574 57.6021 27.817 66.0555C26.4557 69.1184 23.1438 67.839 22.0217 70.2702C17.7452 79.536 15.6013 89.5295 12.6439 99.2466C6.24292 120.278 10.9413 143.868 4.10902 164.364C-2.01426 182.734 6.14646 212.312 10.7472 229.693C16.5052 251.445 23.6021 283.361 47.2048 291.229C68.0053 298.162 88.7993 305.065 110.005 311.67C113.458 312.746 116.254 315.463 119.909 315.463C128.939 315.463 143.128 306.721 150.361 303.557C169.551 295.161 188.581 286.74 208.63 280.586C246.831 268.861 294.397 250.424 334.967 260.566C349.36 264.164 361.47 271.841 376.377 271.841C397.387 271.841 418.285 270.446 439.282 270.049C464.006 269.583 491.736 266.868 515.779 273.737C526.482 276.795 536.066 279.427 547.074 279.427C563.855 279.427 567.214 252.593 569.833 240.019C573.836 220.806 571.435 201.097 573.627 181.645C574.885 170.48 577.842 160.183 577.842 148.981C577.842 131.84 570.819 111.232 564.987 95.0319C562.505 88.1399 555.485 92.017 552.764 85.9702C549.537 78.8001 549.392 70.9075 549.392 63.2105C549.392 55.5135 534.816 54.0001 526.316 54.0001Z" stroke="#4556EB" stroke-width="3" stroke-linecap="round"/>
</svg>
