<svg width="495" height="134" viewBox="0 0 495 134" fill="none" xmlns="http://www.w3.org/2000/svg">
<path d="M46.4736 1.66153C27.3055 1.66153 1 15.7409 1 39.3052C1 51.7465 8.13309 57.7084 17.2404 64.7054C34.2559 77.7781 57.1191 84.9268 76.481 93.2806C99.5644 103.24 122.045 113.554 145.964 121.279C176.895 131.268 209.336 131.953 241.469 132.391C284.022 132.971 327.118 132.409 369.316 126.233C391.32 123.013 414.814 120.874 435.985 113.389C448.694 108.896 460.491 102.63 472.111 95.734C477.195 92.716 482.942 89.3428 486.182 84.0442C488.647 80.0142 492.555 74.2579 493.426 69.5641C495.599 57.8558 491.397 48.6459 484.245 40.1711C474.583 28.7232 460.95 24.5389 447.926 24.5389" stroke="#4556EB" stroke-width="2" stroke-linecap="square"/>
</svg>
