<svg width="583" height="410" viewBox="0 0 583 410" fill="none" xmlns="http://www.w3.org/2000/svg">
<path d="M28.6187 99.8041C26.3113 104.303 21.1521 112.113 15.5764 113.127C10.0006 114.141 11 128 11 128C11 151.35 10.3794 174.539 5.8005 197.433C-2.08801 236.875 1.38698 278.979 16.0973 316.164C24.3723 337.081 40.4779 351.167 54.8692 367.521C65.7728 379.911 78.9963 390.251 93.8953 397.394C107.333 403.837 126.5 408.072 141.439 408.072C150.448 408.072 160.365 407.587 169.405 406.801C182.16 405.692 195.026 406.751 207.732 405.339C238.508 401.92 265.275 395.383 292.395 380.169C313.77 368.178 341.266 368.156 365.044 368.156C377.107 368.156 389.756 367.987 401.719 366.377C410.374 365.212 419.267 362.678 427.969 362.436C437.756 362.164 446.939 359.208 456.571 358.114C466.176 357.022 475.486 355.015 484.729 352.139C494.168 349.203 504.144 348.717 513.712 345.847C517.037 344.849 520.648 342.245 524.073 341.842C527.555 341.433 535.458 334.422 537.293 331.418C544.349 319.873 553.042 309.622 559.603 297.731C584.151 253.237 586.694 192.671 570.917 144.551C567.464 134.021 563.02 121.056 554.645 113.342C547.484 106.746 541.06 99.4794 534.115 92.6853C527.463 86.1781 520.811 80.2665 516.064 72.0917C512.693 66.2864 511.852 60.344 509.772 54.1041C507.619 47.6474 507.241 40.488 503.352 34.6546C499.138 28.333 493.075 24.4035 486.867 20.3799L486.826 20.3535C473.83 11.9297 457.806 12.3448 442.906 12.3448C426.694 12.3448 410.627 10.977 394.536 9.16681C376.367 7.12276 357.966 2.33469 339.62 2.04804C302.224 1.46372 265.34 10.0567 228.008 10.0567C189.755 10.0567 151.58 8.91257 113.281 8.91257C101.761 8.91257 93.8751 10.5516 84.4884 16.9212C77.1657 21.8902 64.8165 31.2452 60.2083 38.786C53.4259 49.8845 47.0838 61.8569 41.2672 73.49C36.9126 82.1992 33.071 91.1221 28.6187 99.8041Z" stroke="#4556EB" stroke-width="3" stroke-linecap="round"/>
</svg>
