<?xml version="1.0" encoding="UTF-8" standalone="no"?>
<svg
   width="456"
   height="294"
   viewBox="0 0 456 294"
   fill="none"
   version="1.1"
   id="svg1"
   sodipodi:docname="02-line.svg"
   inkscape:version="1.3.2 (091e20ef0f, 2023-11-25)"
   xmlns:inkscape="http://www.inkscape.org/namespaces/inkscape"
   xmlns:sodipodi="http://sodipodi.sourceforge.net/DTD/sodipodi-0.dtd"
   xmlns="http://www.w3.org/2000/svg"
   xmlns:svg="http://www.w3.org/2000/svg">
  <defs
     id="defs1" />
  <sodipodi:namedview
     id="namedview1"
     pagecolor="#ffffff"
     bordercolor="#000000"
     borderopacity="0.25"
     inkscape:showpageshadow="2"
     inkscape:pageopacity="0.0"
     inkscape:pagecheckerboard="0"
     inkscape:deskcolor="#d1d1d1"
     inkscape:zoom="2.9379562"
     inkscape:cx="228.04969"
     inkscape:cy="172.73913"
     inkscape:window-width="1920"
     inkscape:window-height="1011"
     inkscape:window-x="0"
     inkscape:window-y="0"
     inkscape:window-maximized="1"
     inkscape:current-layer="svg1" />
  <path
     d="m 15.8829,42.4019 c -7.1867,0 -8.85796,12.9885 -8.85796,18.7338 0,10.3835 -0.98372,18.8063 -3.46366,28.8638 -2.30416,9.3447 -1.61166,18.4535 -1.05834,27.9975 0.42344,7.305 0.18772,14.55 0.86591,21.841 0.89791,9.652 0.73899,17.79 3.65609,27.228 3.02496,9.787 0.3659,19.808 2.11668,29.826 1.80528,10.33 4.683963,32.28877 8.614063,41.78677 2.7705,6.695 6.990839,22.90478 12.891139,26.77078 7.5404,4.94 17.531258,16.05738 25.608158,20.02538 3.8649,1.898 21.921589,4.64097 26.254189,4.72897 8.5447,0.174 36.422451,-0.18487 44.929551,0.0301 15.009,0.38 14.81439,-0.29012 29.86839,0.55188 19.602,1.096 28.65777,0.69129 48.28977,0.88529 14.247,0.141 29.68074,-2.01127 43.89674,-1.79627 17.961,0.272 35.85928,-0.80528 53.99028,-0.80528 15.978,0 74.07197,-2.4943 74.07197,-10.9743 M 416.514,242.248 c 6.236,0 18.28,-11.053 21.256,-16.973 6.006,-11.949 13.055,-25.316 14.287,-38.87 0.906,-9.969 1.78,-19.662 1.78,-29.682 0,-8.443 -0.161,-16.894 -0.962,-25.304 -0.683,-7.169 -3.772,-13.792 -5.051,-20.83 -2.128,-11.7051 -10.137,-21.8099 -14.24,-32.8566 -7.865,-21.1749 -22.666,-39.827 -37.715,-56.3807 -5.194,-5.7131 -10.739,-7.4565 -18.281,-7.4565 -9.762,0 -19.848,-1.624 -29.585,-2.5977 C 326.774,9.17456 305.544,7.72391 284.31,5.66904 258.659,3.18668 232.908,3.18184 207.148,2.68644 180.721,2.17825 154.495,2.63834 128.109,2.63834 112.17,2.63834 96.049,3.32587 80.2429,1.82053 75.6832,1.38627 71.4611,1.90404 67.1579,2.68644 63.0139,3.43989 43.8395,4.68998 43.8395,10.6789"
     stroke="#4556eb"
     stroke-width="3"
     stroke-linecap="square"
     id="path1"
     sodipodi:nodetypes="cscccssccccccccsccccsccccsssssssc" />
</svg>
