<?xml version="1.0" encoding="UTF-8" standalone="no"?>
<svg
   width="72.441063"
   height="83.783073"
   viewBox="0 0 72.441063 83.783073"
   fill="none"
   version="1.1"
   id="svg1"
   sodipodi:docname="10-right-arrow.svg"
   xml:space="preserve"
   inkscape:version="1.4 (e7c3feb100, 2024-10-09)"
   xmlns:inkscape="http://www.inkscape.org/namespaces/inkscape"
   xmlns:sodipodi="http://sodipodi.sourceforge.net/DTD/sodipodi-0.dtd"
   xmlns="http://www.w3.org/2000/svg"
   xmlns:svg="http://www.w3.org/2000/svg"><defs
     id="defs1" /><sodipodi:namedview
     id="namedview1"
     pagecolor="#ffffff"
     bordercolor="#000000"
     borderopacity="0.25"
     inkscape:showpageshadow="2"
     inkscape:pageopacity="0.0"
     inkscape:pagecheckerboard="0"
     inkscape:deskcolor="#d1d1d1"
     inkscape:zoom="10.810811"
     inkscape:cx="41.07"
     inkscape:cy="44.77"
     inkscape:window-width="1920"
     inkscape:window-height="1011"
     inkscape:window-x="0"
     inkscape:window-y="0"
     inkscape:window-maximized="1"
     inkscape:current-layer="svg1" /><path
     d="m 71.441063,1 c -3.2051,4.80766 -4.1572,14.95304 -5.5362,20.60714 -1.5653,6.4177 -4.6762,11.612 -8.3044,17.0187 -1.6681,2.4859 -2.971,6.3946 -5.0236,8.5094 -4.644,4.7848 -11.2317,7.6574 -16.5061,11.5851 -3.4519,2.5705 -7.788,4.4519 -11.5851,6.459 -2.9154,1.5409 -11.5617,3.9515 -13.02043,6.869"
     stroke="#34af42"
     stroke-width="2"
     stroke-linecap="round"
     id="path1" /><g
     style="fill:none"
     id="g1"
     transform="translate(-0.26157534,53.053875)"><path
       d="m 8.0233,1.23633 c 0,3.39927 -2.90459,7.82519 -3.82542,11.24547 -0.72158,2.6801 -1.03807,6.0683 -2.24249,8.3433 -1.662772,3.1408 -0.23732,3.8991 3.13289,5.0786 4.88543,1.7099 11.44632,3.8255 16.58782,3.8255"
       stroke="#34af42"
       stroke-width="2"
       stroke-linecap="round"
       id="path1-5" /></g></svg>
