<svg width="290" height="388" viewBox="0 0 290 388" fill="none" xmlns="http://www.w3.org/2000/svg">
<path d="M87.5118 110.505C85.6989 116.712 83.6816 122.299 80.4402 127.574C56.4265 166.65 54.252 95.7995 80.322 104.037C84.9024 105.484 86.7265 105.564 87.5118 110.505Z" stroke="#4556EB" stroke-width="2.82298"/>
<path d="M87.5122 110.507C91.9907 112.182 98.4588 121.748 100.928 126.496C91.334 160.271 75.5608 161.13 61.5597 134.2" stroke="#4556EB" stroke-width="2.82298"/>
<path d="M87.5113 110.506C90.5641 111.471 93.5002 112.95 96.6699 113.4C98.5465 113.666 112.532 97.0336 114.106 95.4096C128.069 81.0019 150.402 62.5152 166.613 54.0904C175.493 49.4751 188.582 48.4131 196.581 44.2563C206.033 39.3441 225.768 55.4916 227.07 51.3724C227.359 50.4552 225.151 51.7315 224.298 52.1751C216.423 56.2676 208.808 61.5007 200.716 65.7058C193.659 69.3735 190.02 75.7291 183.964 78.8765C173.388 84.373 158.798 90.6795 147.286 96.662C125.68 107.89 110.715 141.818 101.246 146.739C93.1421 150.95 86.1155 155.15 79.7132 161.756C72.4809 169.218 71.615 183.92 62.9592 190.873C46.4503 204.133 37.0539 229.582 25.5953 245.37C24.1022 247.427 12.0233 268.338 11.2523 266.855C6.94767 258.576 14.3457 254.34 14.1869 244.283C13.6224 208.503 47.5069 167.213 66.5788 147.534C68.7157 145.33 63.4793 138.788 61.5588 134.198" stroke="#4556EB" stroke-width="2.82298"/>
<path d="M228.316 50.0872C217.667 53.7606 210.039 79.9952 201.519 84.4231C174.306 98.5656 161.99 107.723 137.483 133.01C129.937 140.796 129.499 152.563 122.215 160.078C113.985 168.57 98.0291 175.199 87.1041 180.877C85.8815 181.512 14.5824 263.663 13.2623 265.811" stroke="#4556EB" stroke-width="2.82298"/>
<path d="M125.188 155.982C138.416 185.23 176.518 206.867 188.891 230.664" stroke="#4556EB" stroke-width="2.82298"/>
<path d="M188.89 230.665C184.757 247.227 167.697 236.206 158.119 237.727" stroke="#4556EB" stroke-width="2.82298"/>
<path d="M184.307 222.758C187.674 220.821 191.328 218.658 194.42 217.051C197.902 215.242 210.816 230.166 213.18 231.881C220.044 236.863 227.054 237.109 234.455 235.933C238.214 235.336 245.249 237.694 248.089 237.867" stroke="#4556EB" stroke-width="2.82298"/>
<path d="M254.107 278.936C243.588 276.858 230.969 277.102 220.632 278.744C215.988 279.482 210.244 276.849 205.478 276.923C199.677 277.014 192.736 279.175 187.554 275.414C184.727 273.362 175.239 271.423 179.744 268.198C171.583 265.557 168.196 262.925 176.194 258.768C161.06 259.239 164.153 258.367 167.432 247.988C159.885 250.338 152.277 240.719 158.119 237.727" stroke="#4556EB" stroke-width="2.82298"/>
<path d="M167.432 247.989C175.134 248.191 190.934 253.791 194.984 247.199" stroke="#4556EB" stroke-width="2.82298"/>
<path d="M176.195 258.769C183.469 262.063 197.276 263.929 203.208 257.809" stroke="#4556EB" stroke-width="2.82298"/>
<path d="M179.744 268.199C188.11 269.74 202.762 273.726 208.291 268.021C208.46 267.847 209.841 267.532 209.711 267.282C209.257 266.408 206.284 267.402 205.777 267.523" stroke="#4556EB" stroke-width="2.82298"/>
<path d="M158.119 237.727C142.655 218.746 125.867 197.52 104.115 184.154C100.327 181.826 99.2961 177.242 97.2673 175.276" stroke="#4556EB" stroke-width="2.82298"/>
<path d="M196.98 278.122C202.571 287.321 292.754 375.561 296 381.806" stroke="#4556EB" stroke-width="2.82298"/>
<path d="M234.681 277.027C239.111 281.205 290.896 335.485 294.501 338.978" stroke="#4556EB" stroke-width="2.82298"/>
<path d="M254.107 278.937C266.3 280.794 278.255 288.458 290.336 289.198" stroke="#4556EB" stroke-width="2.82298"/>
<path d="M248.088 237.867C262.461 239.683 279.593 239.216 293.734 243.685" stroke="#4556EB" stroke-width="2.82298"/>
</svg>
