<svg width="527" height="474" viewBox="0 0 527 474" fill="none" xmlns="http://www.w3.org/2000/svg">
<path d="M1.73855 85.1897C1.14908 95.2107 1.73855 104.053 1.73855 114.074H13.2922H149.047C162.508 114.074 176.331 116.962 190.046 116.962C200.135 116.962 210.277 115.518 220.134 115.518H292.344H429.222C453.473 115.518 477.085 114.074 501.432 114.074C506.586 114.074 520.207 116.667 520.207 110.463C520.207 103.218 518.763 95.6071 518.763 88.8002C518.763 84.4887 519.936 80.6765 515.233 79.3327C509.439 77.6774 502.232 76.5245 495.976 76.5245C482.975 76.5245 470.466 71.2053 458.828 65.693C432.502 53.2226 406.919 39.5573 378.595 32.4764C366.428 29.4345 352.346 30.1689 341.126 24.8542C326.824 18.0796 310.287 16.4492 295.634 10.8133C287.158 7.55345 274.115 2.87022 264.904 2.87022C260.96 2.87022 258.563 1.19881 254.474 1.42601C251.001 1.61896 247.047 3.63803 243.642 4.39465C222.804 9.02535 204.363 24.0141 182.906 26.0577C175.025 26.8082 166.387 30.1029 158.595 31.8345C155.036 32.6253 149.737 37.5344 145.838 38.9753C139.02 41.4949 131.062 40.7106 124.496 43.6288C118.196 46.4288 112.129 49.8467 105.801 52.6149C93.0907 58.1758 79.3539 59.781 66.7276 66.0942C61.465 68.7254 58.345 72.3989 52.2856 73.957C44.4728 75.966 36.4564 78.6862 28.376 79.3327C24.7978 79.6189 2.07371 79.4919 1.73855 85.1897Z" stroke="#4556EB" stroke-width="2.66475" stroke-linecap="round"/>
<path d="M54.4505 155.875C48.8778 154.637 49.3958 152.405 49.3958 147.291C49.3958 147.291 46.2291 134.933 49.3958 132.848C52.5625 130.764 88.8706 132.848 108.608 132.848H139.658C149.137 132.848 146.157 142.875 146.157 150.179C146.157 158.981 126.557 155.956 120.162 155.956H85.4206C75.7494 155.956 63.8716 157.969 54.4505 155.875Z" stroke="#4556EB" stroke-width="2.66475" stroke-linecap="round"/>
<path d="M217.245 153.067C211.613 153.067 214.036 137.538 214.036 132.848L226.922 132.848L243.802 132.848H275.494C284.232 132.848 305.037 129.621 309.674 135.416C312.058 138.396 312.411 153.067 307.909 153.067C287.939 153.067 267.103 151.623 246.45 151.623C236.766 151.623 227.113 153.067 217.245 153.067Z" stroke="#4556EB" stroke-width="2.66475" stroke-linecap="round"/>
<path d="M372.897 134.292C372.897 141.506 368.748 151.707 378.112 153.147C385.471 154.279 390.714 153.319 397.77 153.067C406.628 152.751 415.85 154.511 424.889 154.511C438.1 154.511 451.312 154.511 464.524 154.511C466.845 154.511 470.823 156.659 471.103 151.623C471.315 147.799 471.103 143.9 471.103 140.069C471.103 131.574 461.844 132.848 454.414 132.848C444.573 132.848 434.731 132.848 424.889 132.848C415.246 132.848 404.767 129.96 395.282 129.96C387.973 129.96 377.813 128.224 371.453 131.404" stroke="#4556EB" stroke-width="2.66475" stroke-linecap="round"/>
<path d="M464.735 401.355C470.308 402.593 469.79 404.825 469.79 409.94C469.79 409.94 472.956 422.297 469.79 424.382C466.623 426.467 430.315 424.382 410.578 424.382L379.527 424.382C370.049 424.382 373.028 414.356 373.028 407.052C373.028 398.25 392.629 401.275 399.024 401.275L433.765 401.275C443.436 401.275 455.314 399.261 464.735 401.355Z" stroke="#4556EB" stroke-width="2.66475" stroke-linecap="round"/>
<path d="M301.941 404.163C307.572 404.163 305.15 419.693 305.15 424.382L292.263 424.382L275.383 424.382L243.691 424.382C234.953 424.382 214.148 427.61 209.512 421.814C207.128 418.834 206.774 404.163 211.277 404.163C231.246 404.163 252.083 405.607 272.736 405.607C282.419 405.607 292.072 404.163 301.941 404.163Z" stroke="#4556EB" stroke-width="2.66475" stroke-linecap="round"/>
<path d="M141.072 404.083C150.436 405.524 146.287 415.725 146.287 422.938L145.371 426.368C136.331 428.036 131.211 427.27 123.902 427.27C114.417 427.27 103.938 424.382 94.296 424.382L64.7701 424.382C57.3406 424.382 48.0816 425.656 48.0816 417.161C48.0816 413.33 47.8691 409.432 48.0816 405.607C48.3613 400.572 52.34 402.719 54.6607 402.719L94.296 402.719C103.335 402.719 112.557 404.48 121.415 404.163C128.471 403.911 133.713 402.951 141.072 404.083Z" stroke="#4556EB" stroke-width="2.66475" stroke-linecap="round"/>
<path d="M65.2829 157.4C65.2829 172.623 65.2829 187.605 65.2829 202.812C65.2829 212.191 62.3945 221.337 62.3945 231.054C62.3945 250.758 66.7271 270.549 66.7271 290.346C66.7271 311.03 68.1713 332.026 68.1713 353.089C68.1713 362.959 66.7271 373.28 66.7271 382.695C66.7271 387.028 66.7271 398.447 66.7271 402.779" stroke="#4556EB" stroke-width="2.66475" stroke-linecap="round"/>
<path d="M136.191 156.827C134.716 173.047 130.414 188.837 130.414 205.208C130.414 218.179 130.414 231.15 130.414 244.121C130.414 252.11 134.747 259.877 134.747 268.352C134.747 279.787 135.777 291.206 136.191 302.371C136.825 319.498 133.302 336.744 133.302 353.961C133.302 363.829 133.302 373.698 133.302 383.567C133.302 387.659 133.302 398.837 133.302 402.929" stroke="#4556EB" stroke-width="2.66475" stroke-linecap="round"/>
<path d="M228.477 153.067C228.477 170.133 235.377 189.493 230.242 206.182C228.089 213.177 229.921 223.477 229.921 230.733C229.921 256.706 228.477 282.402 228.477 308.319C228.477 327.575 228.477 346.831 228.477 366.087C228.477 370.453 228.504 404.613 229.415 404.158" stroke="#4556EB" stroke-width="2.66475" stroke-linecap="round"/>
<path d="M294.911 153.067C294.911 176.237 294.911 200.232 294.911 223.111C294.911 240.877 297.799 258.992 297.799 276.948C297.799 299.986 296.355 322.867 296.355 346.029C296.355 357.282 294.911 367.898 294.911 379.085C294.911 382.683 293.96 398.497 294.911 404.389" stroke="#4556EB" stroke-width="2.66475" stroke-linecap="round"/>
<path d="M390.228 154.511C390.228 176.979 391.03 199.611 390.228 222.068C389.709 236.623 390.228 250.932 390.228 265.394C390.228 275.251 391.673 284.848 391.673 294.599C391.673 330.363 389.133 364.42 389.133 400.21" stroke="#4556EB" stroke-width="2.66475" stroke-linecap="round"/>
<path d="M458.105 154.966C458.105 199.362 458.105 243.758 458.105 288.154C458.105 312.958 459.55 337.685 459.55 362.61C459.55 371.833 459.55 391.26 459.55 400.21" stroke="#4556EB" stroke-width="2.66475" stroke-linecap="round"/>
<path d="M1.90323 445.232C1.90323 451.699 1.92058 458.151 4.74266 464.108H17.0469C64.7922 464.108 112.529 467.352 160.28 467.894C202.709 468.377 245.22 472.878 287.739 471.628C333.362 470.286 379.038 471.057 424.663 469.735C444.056 469.173 463.654 467.894 483.029 467.894C496.262 467.894 509.774 468.629 522.991 467.894C524.453 467.813 525.305 449.292 525.305 446.599V434.294C525.305 432.818 518.143 433.693 515.84 433.821C498.405 434.79 479.762 432.875 461.891 432.875H394.638C386.185 432.875 376.395 432.43 368.19 434.294C361.424 435.832 353.505 434.768 346.631 434.768C337.548 434.768 328.726 433.976 319.709 433.085C303.835 431.517 287.177 432.875 271.228 432.875C260.962 432.875 250.902 432.987 240.678 433.821C219.73 435.531 198.544 434.768 177.527 434.768C131.646 434.768 85.6621 433.821 39.7097 433.821C32.2739 433.821 25.0302 432.875 17.5727 432.875C13.0879 432.875 7.07157 430.554 2.84971 432.664C0.472983 433.853 1.90323 442.751 1.90323 445.232Z" stroke="#4556EB" stroke-width="2.66475" stroke-linecap="round"/>
<path d="M192.238 75.3036C192.238 76.5516 192.038 77.6396 191.638 78.5676C191.238 79.4796 190.654 80.1836 189.886 80.6796C189.134 81.1756 188.238 81.4236 187.198 81.4236C186.174 81.4236 185.23 81.1516 184.366 80.6076C183.502 80.0636 182.822 79.3196 182.326 78.3756C181.83 77.4316 181.582 76.4076 181.582 75.3036C181.582 74.1996 181.83 73.1836 182.326 72.2556C182.822 71.3116 183.502 70.5676 184.366 70.0236C185.23 69.4796 186.174 69.2076 187.198 69.2076C188.238 69.2076 189.134 69.4556 189.886 69.9516C190.654 70.4476 191.238 71.1596 191.638 72.0876C192.038 72.9996 192.238 74.0716 192.238 75.3036ZM187.774 78.8796C188.462 78.8796 189.078 78.7276 189.622 78.4236C190.166 78.1036 190.59 77.6716 190.894 77.1276C191.198 76.5836 191.35 75.9756 191.35 75.3036C191.35 74.6316 191.198 74.0316 190.894 73.5036C190.59 72.9596 190.166 72.5356 189.622 72.2316C189.078 71.9116 188.462 71.7516 187.774 71.7516C187.118 71.7516 186.518 71.9116 185.974 72.2316C185.43 72.5516 184.998 72.9836 184.678 73.5276C184.358 74.0716 184.198 74.6636 184.198 75.3036C184.198 75.9596 184.358 76.5596 184.678 77.1036C184.998 77.6476 185.43 78.0796 185.974 78.3996C186.518 78.7196 187.118 78.8796 187.774 78.8796ZM194.038 81.1836H191.35V64.3836H194.038V81.1836ZM202.162 81.4236C201.058 81.4236 200.034 81.1516 199.09 80.6076C198.162 80.0636 197.426 79.3276 196.882 78.3996C196.354 77.4556 196.09 76.4076 196.09 75.2556C196.09 74.1356 196.354 73.1196 196.882 72.2076C197.41 71.2796 198.138 70.5516 199.066 70.0236C199.994 69.4796 201.01 69.2076 202.114 69.2076C203.154 69.2076 204.106 69.4556 204.97 69.9516C205.834 70.4316 206.514 71.1036 207.01 71.9676C207.506 72.8156 207.754 73.7596 207.754 74.7996C207.738 75.1836 207.706 75.5836 207.658 75.9996H197.434L197.458 73.9836H205.018C204.954 73.5196 204.778 73.1036 204.49 72.7356C204.218 72.3516 203.858 72.0556 203.41 71.8476C202.978 71.6236 202.498 71.5116 201.97 71.5116C201.298 71.5116 200.706 71.6636 200.194 71.9676C199.698 72.2556 199.314 72.6796 199.042 73.2396C198.77 73.7836 198.634 74.4236 198.634 75.1596C198.634 75.9596 198.778 76.6556 199.066 77.2476C199.37 77.8236 199.794 78.2716 200.338 78.5916C200.882 78.9116 201.514 79.0716 202.234 79.0716C202.89 79.0716 203.498 78.9356 204.058 78.6636C204.618 78.3756 205.026 78.0076 205.282 77.5596L207.418 78.9036C206.986 79.6876 206.298 80.3036 205.354 80.7516C204.426 81.1996 203.362 81.4236 202.162 81.4236ZM203.338 64.5036H205.714L203.458 68.1036H200.77L203.338 64.5036ZM198.25 64.5036H200.626L203.194 68.1036H200.506L198.25 64.5036ZM212.643 81.1836H209.979V64.3836H212.643V81.1836ZM218.127 81.1836H215.463V69.4476H218.127V81.1836ZM223.863 74.8236C223.863 73.8956 223.599 73.1596 223.071 72.6156C222.559 72.0556 221.879 71.7756 221.031 71.7756C220.151 71.7756 219.447 72.0556 218.919 72.6156C218.391 73.1596 218.127 73.8956 218.127 74.8236H217.311C217.311 73.7036 217.487 72.7196 217.839 71.8716C218.207 71.0076 218.719 70.3516 219.375 69.9036C220.031 69.4396 220.799 69.2076 221.679 69.2076C223.183 69.2076 224.367 69.6796 225.231 70.6236C226.111 71.5676 226.551 72.8556 226.551 74.4876V81.1836H223.863V74.8236ZM232.025 69.4476V81.1836H229.361V69.4476H232.025ZM230.705 63.9996C231.169 63.9996 231.569 64.1756 231.905 64.5276C232.257 64.8636 232.433 65.2556 232.433 65.7036C232.433 66.1836 232.257 66.5916 231.905 66.9276C231.569 67.2636 231.169 67.4316 230.705 67.4316C230.241 67.4316 229.841 67.2636 229.505 66.9276C229.169 66.5916 229.001 66.1836 229.001 65.7036C229.001 65.2396 229.169 64.8396 229.505 64.5036C229.841 64.1676 230.241 63.9996 230.705 63.9996ZM245.79 78.2076C245.342 79.1836 244.63 79.9676 243.654 80.5596C242.694 81.1356 241.606 81.4236 240.39 81.4236C239.238 81.4236 238.19 81.1596 237.246 80.6316C236.318 80.0876 235.582 79.3516 235.038 78.4236C234.51 77.4956 234.246 76.4636 234.246 75.3276C234.246 74.1916 234.51 73.1596 235.038 72.2316C235.582 71.2876 236.318 70.5516 237.246 70.0236C238.19 69.4796 239.23 69.2076 240.366 69.2076C241.502 69.2076 242.518 69.4716 243.414 69.9996C244.326 70.5116 244.998 71.1996 245.43 72.0636L243.174 73.3356C242.934 72.8556 242.566 72.4796 242.07 72.2076C241.574 71.9196 241.006 71.7756 240.366 71.7756C239.71 71.7756 239.11 71.9356 238.566 72.2556C238.038 72.5596 237.622 72.9836 237.318 73.5276C237.03 74.0716 236.886 74.6716 236.886 75.3276C236.886 75.9836 237.03 76.5836 237.318 77.1276C237.622 77.6716 238.038 78.0956 238.566 78.3996C239.11 78.7036 239.718 78.8556 240.39 78.8556C241.062 78.8556 241.662 78.7036 242.19 78.3996C242.734 78.0956 243.142 77.6716 243.414 77.1276L245.79 78.2076ZM258.231 69.4476L252.831 75.0876L258.591 81.1836H255.135L249.615 75.0636L254.895 69.4476H258.231ZM250.143 81.1836H247.479V64.3836H250.143V81.1836ZM264.74 81.4236C263.636 81.4236 262.612 81.1516 261.668 80.6076C260.74 80.0636 260.004 79.3276 259.46 78.3996C258.932 77.4556 258.668 76.4076 258.668 75.2556C258.668 74.1356 258.932 73.1196 259.46 72.2076C259.988 71.2796 260.716 70.5516 261.644 70.0236C262.572 69.4796 263.588 69.2076 264.692 69.2076C265.732 69.2076 266.684 69.4556 267.548 69.9516C268.412 70.4316 269.092 71.1036 269.588 71.9676C270.084 72.8156 270.332 73.7596 270.332 74.7996C270.316 75.1836 270.284 75.5836 270.236 75.9996H260.012L260.036 73.9836H267.596C267.532 73.5196 267.356 73.1036 267.068 72.7356C266.796 72.3516 266.436 72.0556 265.988 71.8476C265.556 71.6236 265.076 71.5116 264.548 71.5116C263.876 71.5116 263.284 71.6636 262.772 71.9676C262.276 72.2556 261.892 72.6796 261.62 73.2396C261.348 73.7836 261.212 74.4236 261.212 75.1596C261.212 75.9596 261.356 76.6556 261.644 77.2476C261.948 77.8236 262.372 78.2716 262.916 78.5916C263.46 78.9116 264.092 79.0716 264.812 79.0716C265.468 79.0716 266.076 78.9356 266.636 78.6636C267.196 78.3756 267.604 78.0076 267.86 77.5596L269.996 78.9036C269.564 79.6876 268.876 80.3036 267.932 80.7516C267.004 81.1996 265.94 81.4236 264.74 81.4236ZM265.628 68.1036H263.156L265.148 64.5036H268.364L265.628 68.1036ZM280.494 64.3836V81.1836H277.83V64.3836H280.494ZM286.23 74.8236C286.23 73.8956 285.966 73.1596 285.438 72.6156C284.926 72.0556 284.246 71.7756 283.398 71.7756C282.518 71.7756 281.814 72.0556 281.286 72.6156C280.758 73.1596 280.494 73.8956 280.494 74.8236H279.678C279.678 73.7036 279.854 72.7196 280.206 71.8716C280.574 71.0076 281.086 70.3516 281.742 69.9036C282.398 69.4396 283.166 69.2076 284.046 69.2076C285.55 69.2076 286.734 69.6796 287.598 70.6236C288.478 71.5676 288.918 72.8556 288.918 74.4876V81.1836H286.23V74.8236ZM294.393 81.1836H291.729V69.4476H294.393V81.1836ZM300.129 74.8236C300.129 73.8956 299.865 73.1596 299.337 72.6156C298.825 72.0556 298.145 71.7756 297.297 71.7756C296.417 71.7756 295.713 72.0556 295.185 72.6156C294.657 73.1596 294.393 73.8956 294.393 74.8236H293.577C293.577 73.7036 293.753 72.7196 294.105 71.8716C294.473 71.0076 294.985 70.3516 295.641 69.9036C296.297 69.4396 297.065 69.2076 297.945 69.2076C299.449 69.2076 300.633 69.6796 301.497 70.6236C302.377 71.5676 302.817 72.8556 302.817 74.4876V81.1836H300.129V74.8236ZM314.027 69.4476H316.691V81.1836H314.027V69.4476ZM308.291 75.8076C308.291 76.7356 308.547 77.4796 309.059 78.0396C309.587 78.5836 310.275 78.8556 311.123 78.8556C312.003 78.8556 312.707 78.5836 313.235 78.0396C313.763 77.4796 314.027 76.7356 314.027 75.8076H314.843C314.843 76.9276 314.659 77.9196 314.291 78.7836C313.939 79.6316 313.435 80.2876 312.779 80.7516C312.123 81.1996 311.355 81.4236 310.475 81.4236C308.971 81.4236 307.779 80.9516 306.899 80.0076C306.035 79.0636 305.603 77.7756 305.603 76.1436V69.4476H308.291V75.8076ZM325.045 81.3516C323.717 81.3516 322.645 80.9516 321.829 80.1516C321.029 79.3356 320.629 78.2156 320.629 76.7916V66.3036H323.293V76.6716C323.293 77.3436 323.493 77.8796 323.893 78.2796C324.309 78.6636 324.821 78.8556 325.429 78.8556C325.573 78.8556 325.733 78.8396 325.909 78.8076C326.085 78.7756 326.229 78.7436 326.341 78.7116L326.485 81.0636C326.293 81.1436 326.069 81.2076 325.813 81.2556C325.557 81.3196 325.301 81.3516 325.045 81.3516ZM318.373 69.4476H326.365V71.9916H318.373V69.4476ZM331.283 69.4476V81.1836H328.619V69.4476H331.283ZM331.019 68.1036H328.547L330.539 64.5036H333.755L331.019 68.1036Z" fill="#F099C9"/>
<path d="M263.462 314.969C264.71 314.969 265.798 315.169 266.726 315.569C267.638 315.969 268.342 316.553 268.838 317.321C269.334 318.073 269.582 318.969 269.582 320.009C269.582 321.033 269.31 321.977 268.766 322.841C268.222 323.705 267.478 324.385 266.534 324.881C265.59 325.377 264.566 325.625 263.462 325.625C262.358 325.625 261.342 325.377 260.414 324.881C259.47 324.385 258.726 323.705 258.182 322.841C257.638 321.977 257.366 321.033 257.366 320.009C257.366 318.969 257.614 318.073 258.11 317.321C258.606 316.553 259.318 315.969 260.246 315.569C261.158 315.169 262.23 314.969 263.462 314.969ZM267.038 319.433C267.038 318.745 266.886 318.129 266.582 317.585C266.262 317.041 265.83 316.617 265.286 316.313C264.742 316.009 264.134 315.857 263.462 315.857C262.79 315.857 262.19 316.009 261.662 316.313C261.118 316.617 260.694 317.041 260.39 317.585C260.07 318.129 259.91 318.745 259.91 319.433C259.91 320.089 260.07 320.689 260.39 321.233C260.71 321.777 261.142 322.209 261.686 322.529C262.23 322.849 262.822 323.009 263.462 323.009C264.118 323.009 264.718 322.849 265.262 322.529C265.806 322.209 266.238 321.777 266.558 321.233C266.878 320.689 267.038 320.089 267.038 319.433ZM269.342 313.169L269.342 315.857L252.542 315.857L252.542 313.169L269.342 313.169ZM257.606 310.354L257.606 307.69L269.342 307.69L269.342 310.354L257.606 310.354ZM259.286 307.69C258.726 307.418 258.27 307.002 257.918 306.442C257.55 305.866 257.366 305.282 257.366 304.69C257.366 304.098 257.454 303.602 257.63 303.202L260.222 303.514C260.03 303.946 259.934 304.426 259.934 304.954C259.934 305.402 260.062 305.842 260.318 306.274C260.558 306.69 260.918 307.034 261.398 307.306C261.862 307.562 262.422 307.69 263.078 307.69L259.286 307.69ZM257.606 293.094L257.606 290.43L269.342 290.43L269.342 293.094L257.606 293.094ZM263.966 298.83C264.894 298.83 265.638 298.574 266.198 298.062C266.742 297.534 267.014 296.846 267.014 295.998C267.014 295.118 266.742 294.414 266.198 293.886C265.638 293.358 264.894 293.094 263.966 293.094L263.966 292.278C265.086 292.278 266.078 292.462 266.942 292.83C267.79 293.182 268.446 293.686 268.91 294.342C269.358 294.998 269.582 295.766 269.582 296.646C269.582 298.15 269.11 299.342 268.166 300.222C267.222 301.086 265.934 301.518 264.302 301.518L257.606 301.518L257.606 298.83L263.966 298.83ZM259.55 277.924L266.846 284.596L266.774 277.876L269.342 277.876L269.342 288.364L267.398 288.364L260.078 281.692L260.15 287.908L257.606 287.908L257.606 277.924L259.55 277.924ZM252.662 281.764L252.662 279.388L256.262 281.644L256.262 284.332L252.662 281.764ZM252.662 286.852L252.662 284.476L256.262 281.908L256.262 284.596L252.662 286.852ZM269.606 271.345C269.606 272.305 269.454 273.249 269.15 274.177C268.83 275.089 268.414 275.841 267.902 276.433L265.886 275.377C266.318 274.929 266.67 274.329 266.942 273.577C267.214 272.809 267.35 272.089 267.35 271.417C267.35 270.841 267.23 270.377 266.99 270.025C266.75 269.657 266.438 269.473 266.054 269.473C265.75 269.473 265.51 269.577 265.334 269.785C265.142 269.977 264.998 270.233 264.902 270.553C264.806 270.857 264.71 271.241 264.614 271.705C264.454 272.553 264.27 273.265 264.062 273.841C263.854 274.417 263.51 274.921 263.03 275.353C262.55 275.785 261.894 276.001 261.062 276.001C260.342 276.001 259.702 275.809 259.142 275.425C258.582 275.041 258.15 274.505 257.846 273.817C257.526 273.113 257.366 272.321 257.366 271.441C257.366 270.593 257.486 269.777 257.726 268.993C257.966 268.209 258.318 267.561 258.782 267.049L260.846 268.105C260.462 268.537 260.158 269.105 259.934 269.809C259.71 270.513 259.598 271.145 259.598 271.705C259.598 272.201 259.71 272.601 259.934 272.905C260.158 273.193 260.462 273.337 260.846 273.337C261.118 273.337 261.342 273.249 261.518 273.073C261.678 272.881 261.806 272.633 261.902 272.329C261.998 272.025 262.094 271.641 262.19 271.177C262.398 270.313 262.622 269.585 262.862 268.993C263.086 268.401 263.454 267.881 263.966 267.433C264.462 266.985 265.126 266.761 265.958 266.761C266.646 266.761 267.27 266.961 267.83 267.361C268.374 267.745 268.806 268.289 269.126 268.993C269.446 269.681 269.606 270.465 269.606 271.345ZM269.51 259.341C269.51 260.669 269.11 261.741 268.31 262.557C267.494 263.357 266.374 263.757 264.95 263.757L254.462 263.757L254.462 261.093L264.83 261.093C265.502 261.093 266.038 260.893 266.438 260.493C266.822 260.077 267.014 259.565 267.014 258.957C267.014 258.813 266.998 258.653 266.966 258.477C266.934 258.301 266.902 258.157 266.87 258.045L269.222 257.901C269.302 258.093 269.366 258.317 269.414 258.573C269.478 258.829 269.51 259.085 269.51 259.341ZM257.606 266.013L257.606 258.021L260.15 258.021L260.15 266.013L257.606 266.013ZM269.342 249.672L269.342 251.976L257.606 256.896L257.606 253.992L265.766 250.824L257.606 247.68L257.606 244.752L269.342 249.672ZM269.342 231.888L269.342 234.576L257.606 234.576L257.606 231.888L269.342 231.888ZM263.462 233.688C264.71 233.688 265.798 233.888 266.726 234.288C267.638 234.688 268.342 235.272 268.838 236.04C269.334 236.792 269.582 237.688 269.582 238.728C269.582 239.752 269.31 240.696 268.766 241.56C268.222 242.424 267.478 243.104 266.534 243.6C265.59 244.096 264.566 244.344 263.462 244.344C262.358 244.344 261.342 244.096 260.414 243.6C259.47 243.104 258.726 242.424 258.182 241.56C257.638 240.696 257.366 239.752 257.366 238.728C257.366 237.688 257.614 236.792 258.11 236.04C258.606 235.272 259.318 234.688 260.246 234.288C261.158 233.888 262.23 233.688 263.462 233.688ZM267.038 238.152C267.038 237.464 266.886 236.848 266.582 236.304C266.262 235.76 265.83 235.336 265.286 235.032C264.742 234.728 264.134 234.576 263.462 234.576C262.79 234.576 262.19 234.728 261.662 235.032C261.118 235.336 260.694 235.76 260.39 236.304C260.07 236.848 259.91 237.464 259.91 238.152C259.91 238.808 260.07 239.408 260.39 239.952C260.71 240.496 261.142 240.928 261.686 241.248C262.23 241.568 262.822 241.728 263.462 241.728C264.118 241.728 264.718 241.568 265.262 241.248C265.806 240.928 266.238 240.496 266.558 239.952C266.878 239.408 267.038 238.808 267.038 238.152Z" fill="#F099C9"/>
<path d="M427.156 357.925C425.908 357.925 424.828 357.725 423.916 357.325C422.988 356.925 422.276 356.349 421.78 355.597C421.284 354.829 421.036 353.925 421.036 352.885C421.036 351.861 421.308 350.925 421.852 350.077C422.396 349.213 423.14 348.533 424.084 348.037C425.028 347.541 426.052 347.293 427.156 347.293C428.26 347.293 429.284 347.541 430.228 348.037C431.156 348.533 431.892 349.213 432.436 350.077C432.98 350.925 433.252 351.861 433.252 352.885C433.252 353.925 433.004 354.829 432.508 355.597C432.012 356.349 431.308 356.925 430.396 357.325C429.468 357.725 428.388 357.925 427.156 357.925ZM423.58 353.461C423.58 354.149 423.74 354.765 424.06 355.309C424.364 355.853 424.788 356.285 425.332 356.605C425.876 356.909 426.484 357.061 427.156 357.061C427.812 357.061 428.412 356.909 428.956 356.605C429.5 356.285 429.932 355.853 430.252 355.309C430.556 354.765 430.708 354.149 430.708 353.461C430.708 352.805 430.548 352.205 430.228 351.661C429.908 351.117 429.476 350.685 428.932 350.365C428.388 350.045 427.796 349.885 427.156 349.885C426.5 349.885 425.9 350.045 425.356 350.365C424.812 350.685 424.38 351.117 424.06 351.661C423.74 352.205 423.58 352.805 423.58 353.461ZM421.276 359.725L421.276 357.061L437.116 357.061L437.116 359.725L421.276 359.725ZM421.036 339.744C421.036 338.608 421.308 337.584 421.852 336.672C422.38 335.744 423.108 335.008 424.036 334.464C424.964 333.92 426.004 333.648 427.156 333.648C428.292 333.648 429.324 333.92 430.252 334.464C431.18 334.992 431.916 335.72 432.46 336.648C432.988 337.576 433.252 338.608 433.252 339.744C433.252 340.88 432.988 341.912 432.46 342.84C431.916 343.768 431.18 344.496 430.252 345.024C429.324 345.552 428.292 345.816 427.156 345.816C426.004 345.816 424.964 345.552 424.036 345.024C423.108 344.496 422.38 343.768 421.852 342.84C421.308 341.912 421.036 340.88 421.036 339.744ZM423.58 339.744C423.58 340.384 423.74 340.976 424.06 341.52C424.38 342.048 424.812 342.464 425.356 342.768C425.884 343.072 426.484 343.224 427.156 343.224C427.812 343.224 428.412 343.072 428.956 342.768C429.484 342.464 429.908 342.048 430.228 341.52C430.532 340.976 430.684 340.384 430.684 339.744C430.684 339.104 430.532 338.52 430.228 337.992C429.908 337.464 429.484 337.048 428.956 336.744C428.412 336.424 427.812 336.264 427.156 336.264C426.484 336.264 425.884 336.424 425.356 336.744C424.812 337.048 424.38 337.464 424.06 337.992C423.74 338.52 423.58 339.104 423.58 339.744ZM433.012 328.748L433.012 331.412L416.212 331.412L416.212 328.748L433.012 328.748ZM421.276 323.264L433.012 323.264L433.012 325.928L421.276 325.928L421.276 323.264ZM415.828 324.584C415.828 324.12 416.004 323.72 416.356 323.384C416.692 323.032 417.084 322.856 417.532 322.856C418.012 322.856 418.42 323.032 418.756 323.384C419.092 323.72 419.26 324.12 419.26 324.584C419.26 325.048 419.092 325.448 418.756 325.784C418.42 326.12 418.012 326.288 417.532 326.288C417.068 326.288 416.668 326.12 416.332 325.784C415.996 325.448 415.828 325.048 415.828 324.584ZM433.18 314.923C433.18 316.251 432.78 317.323 431.98 318.139C431.164 318.939 430.044 319.339 428.62 319.339L418.132 319.339L418.132 316.675L428.5 316.675C429.172 316.675 429.708 316.475 430.108 316.075C430.492 315.659 430.684 315.147 430.684 314.539C430.684 314.395 430.668 314.235 430.636 314.059C430.604 313.883 430.572 313.739 430.54 313.627L432.892 313.483C432.972 313.675 433.036 313.899 433.084 314.155C433.148 314.411 433.18 314.667 433.18 314.923ZM421.276 321.595L421.276 313.603L423.82 313.603L423.82 321.595L421.276 321.595ZM421.276 308.686L433.012 308.686L433.012 311.35L421.276 311.35L421.276 308.686ZM415.828 310.006C415.828 309.542 416.004 309.142 416.356 308.806C416.692 308.454 417.084 308.278 417.532 308.278C418.012 308.278 418.42 308.454 418.756 308.806C419.092 309.142 419.26 309.542 419.26 310.006C419.26 310.47 419.092 310.87 418.756 311.206C418.42 311.542 418.012 311.71 417.532 311.71C417.068 311.71 416.668 311.542 416.332 311.206C415.996 310.87 415.828 310.47 415.828 310.006ZM430.036 294.921C431.012 295.369 431.796 296.081 432.388 297.057C432.964 298.017 433.252 299.105 433.252 300.321C433.252 301.473 432.988 302.521 432.46 303.465C431.916 304.393 431.18 305.129 430.252 305.673C429.324 306.201 428.292 306.465 427.156 306.465C426.02 306.465 424.988 306.201 424.06 305.673C423.116 305.129 422.38 304.393 421.852 303.465C421.308 302.521 421.036 301.481 421.036 300.345C421.036 299.209 421.3 298.193 421.828 297.297C422.34 296.385 423.028 295.713 423.892 295.281L425.164 297.537C424.684 297.777 424.308 298.145 424.036 298.641C423.748 299.137 423.604 299.705 423.604 300.345C423.604 301.001 423.764 301.601 424.084 302.145C424.388 302.673 424.812 303.089 425.356 303.393C425.9 303.681 426.5 303.825 427.156 303.825C427.812 303.825 428.412 303.681 428.956 303.393C429.5 303.089 429.924 302.673 430.228 302.145C430.532 301.601 430.684 300.993 430.684 300.321C430.684 299.649 430.532 299.049 430.228 298.521C429.924 297.977 429.5 297.569 428.956 297.297L430.036 294.921ZM421.276 282.48L426.916 287.88L433.012 282.12L433.012 285.576L426.892 291.096L421.276 285.816L421.276 282.48ZM433.012 290.568L433.012 293.232L416.212 293.232L416.212 290.568L433.012 290.568ZM433.252 275.971C433.252 277.075 432.98 278.099 432.436 279.043C431.892 279.971 431.156 280.707 430.228 281.251C429.284 281.779 428.236 282.043 427.084 282.043C425.964 282.043 424.948 281.779 424.036 281.251C423.108 280.723 422.38 279.995 421.852 279.067C421.308 278.139 421.036 277.123 421.036 276.019C421.036 274.979 421.284 274.027 421.78 273.163C422.26 272.299 422.932 271.619 423.796 271.123C424.644 270.627 425.588 270.379 426.628 270.379C427.012 270.395 427.412 270.427 427.828 270.475L427.828 280.699L425.812 280.675L425.812 273.115C425.348 273.179 424.932 273.355 424.564 273.643C424.18 273.915 423.884 274.275 423.676 274.723C423.452 275.155 423.34 275.635 423.34 276.163C423.34 276.835 423.492 277.427 423.796 277.939C424.084 278.435 424.508 278.819 425.068 279.091C425.612 279.363 426.252 279.499 426.988 279.499C427.788 279.499 428.484 279.355 429.076 279.067C429.652 278.763 430.1 278.339 430.42 277.795C430.74 277.251 430.9 276.619 430.9 275.899C430.9 275.243 430.764 274.635 430.492 274.075C430.204 273.515 429.836 273.107 429.388 272.851L430.732 270.715C431.516 271.147 432.132 271.835 432.58 272.779C433.028 273.707 433.252 274.771 433.252 275.971ZM419.932 275.083L419.932 277.555L416.332 275.563L416.332 272.347L419.932 275.083ZM433.276 258.537C433.276 259.497 433.124 260.441 432.82 261.369C432.5 262.281 432.084 263.033 431.572 263.625L429.556 262.569C429.988 262.121 430.34 261.521 430.612 260.769C430.884 260.001 431.02 259.281 431.02 258.609C431.02 258.033 430.9 257.569 430.66 257.217C430.42 256.849 430.108 256.665 429.724 256.665C429.42 256.665 429.18 256.769 429.004 256.977C428.812 257.169 428.668 257.425 428.572 257.745C428.476 258.049 428.38 258.433 428.284 258.897C428.124 259.745 427.94 260.457 427.732 261.033C427.524 261.609 427.18 262.113 426.7 262.545C426.22 262.977 425.564 263.193 424.732 263.193C424.012 263.193 423.372 263.001 422.812 262.617C422.252 262.233 421.82 261.697 421.516 261.009C421.196 260.305 421.036 259.513 421.036 258.633C421.036 257.785 421.156 256.969 421.396 256.185C421.636 255.401 421.988 254.753 422.452 254.241L424.516 255.297C424.132 255.729 423.828 256.297 423.604 257.001C423.38 257.705 423.268 258.337 423.268 258.897C423.268 259.393 423.38 259.793 423.604 260.097C423.828 260.385 424.132 260.529 424.516 260.529C424.788 260.529 425.012 260.441 425.188 260.265C425.348 260.073 425.476 259.825 425.572 259.521C425.668 259.217 425.764 258.833 425.86 258.369C426.068 257.505 426.292 256.777 426.532 256.185C426.756 255.593 427.124 255.073 427.636 254.625C428.132 254.177 428.796 253.953 429.628 253.953C430.316 253.953 430.94 254.153 431.5 254.553C432.044 254.937 432.476 255.481 432.796 256.185C433.116 256.873 433.276 257.657 433.276 258.537ZM433.18 246.533C433.18 247.861 432.78 248.933 431.98 249.749C431.164 250.549 430.044 250.949 428.62 250.949L418.132 250.949L418.132 248.285L428.5 248.285C429.172 248.285 429.708 248.085 430.108 247.685C430.492 247.269 430.684 246.757 430.684 246.149C430.684 246.005 430.668 245.845 430.636 245.669C430.604 245.493 430.572 245.349 430.54 245.237L432.892 245.093C432.972 245.285 433.036 245.509 433.084 245.765C433.148 246.021 433.18 246.277 433.18 246.533ZM421.276 253.205L421.276 245.213L423.82 245.213L423.82 253.205L421.276 253.205ZM421.276 242.959L421.276 240.295L433.012 240.295L433.012 242.959L421.276 242.959ZM422.956 240.295C422.396 240.023 421.94 239.607 421.588 239.047C421.22 238.471 421.036 237.887 421.036 237.295C421.036 236.703 421.124 236.207 421.3 235.807L423.892 236.119C423.7 236.551 423.604 237.031 423.604 237.559C423.604 238.007 423.732 238.447 423.988 238.879C424.228 239.295 424.588 239.639 425.068 239.911C425.532 240.167 426.092 240.295 426.748 240.295L422.956 240.295ZM433.012 222.97L433.012 225.658L421.276 225.658L421.276 222.97L433.012 222.97ZM427.132 224.77C428.38 224.77 429.468 224.97 430.396 225.37C431.308 225.77 432.012 226.354 432.508 227.122C433.004 227.874 433.252 228.77 433.252 229.81C433.252 230.834 432.98 231.778 432.436 232.642C431.892 233.506 431.148 234.186 430.204 234.682C429.26 235.178 428.236 235.426 427.132 235.426C426.028 235.426 425.012 235.178 424.084 234.682C423.14 234.186 422.396 233.506 421.852 232.642C421.308 231.778 421.036 230.834 421.036 229.81C421.036 228.77 421.284 227.874 421.78 227.122C422.276 226.354 422.988 225.77 423.916 225.37C424.828 224.97 425.9 224.77 427.132 224.77ZM430.708 229.234C430.708 228.546 430.556 227.93 430.252 227.386C429.932 226.842 429.5 226.418 428.956 226.114C428.412 225.81 427.804 225.658 427.132 225.658C426.46 225.658 425.86 225.81 425.332 226.114C424.788 226.418 424.364 226.842 424.06 227.386C423.74 227.93 423.58 228.546 423.58 229.234C423.58 229.89 423.74 230.49 424.06 231.034C424.38 231.578 424.812 232.01 425.356 232.33C425.9 232.65 426.492 232.81 427.132 232.81C427.788 232.81 428.388 232.65 428.932 232.33C429.476 232.01 429.908 231.578 430.228 231.034C430.548 230.49 430.708 229.89 430.708 229.234ZM433.012 217.49L433.012 220.154L421.276 220.154L421.276 217.49L433.012 217.49ZM426.652 211.754C425.724 211.754 424.988 212.018 424.444 212.546C423.884 213.058 423.604 213.738 423.604 214.586C423.604 215.466 423.884 216.17 424.444 216.698C424.988 217.226 425.724 217.49 426.652 217.49L426.652 218.306C425.532 218.306 424.548 218.13 423.7 217.778C422.836 217.41 422.18 216.898 421.732 216.242C421.268 215.586 421.036 214.818 421.036 213.938C421.036 212.434 421.508 211.25 422.452 210.386C423.396 209.506 424.684 209.066 426.316 209.066L433.012 209.066L433.012 211.754L426.652 211.754ZM429.796 202.326L421.276 198.966L421.276 196.086L437.14 202.71L437.14 205.59L429.796 202.326ZM421.276 208.134L421.276 205.254L431.02 201.438L433.204 203.142L421.276 208.134Z" fill="#F099C9"/>
<path d="M88.6236 382.385C88.6236 381.249 88.8956 380.225 89.4396 379.313C89.9676 378.385 90.6956 377.649 91.6236 377.105C92.5516 376.561 93.5916 376.289 94.7436 376.289C95.8796 376.289 96.9116 376.561 97.8396 377.105C98.7676 377.633 99.5036 378.361 100.048 379.289C100.576 380.217 100.84 381.249 100.84 382.385C100.84 383.521 100.576 384.553 100.048 385.481C99.5036 386.409 98.7676 387.137 97.8396 387.665C96.9116 388.193 95.8796 388.457 94.7436 388.457C93.5916 388.457 92.5516 388.193 91.6236 387.665C90.6956 387.137 89.9676 386.409 89.4396 385.481C88.8956 384.553 88.6236 383.521 88.6236 382.385ZM91.1676 382.385C91.1676 383.025 91.3276 383.617 91.6476 384.161C91.9676 384.689 92.3996 385.105 92.9436 385.409C93.4716 385.713 94.0716 385.865 94.7436 385.865C95.3996 385.865 95.9996 385.713 96.5436 385.409C97.0716 385.105 97.4956 384.689 97.8156 384.161C98.1196 383.617 98.2716 383.025 98.2716 382.385C98.2716 381.745 98.1196 381.161 97.8156 380.633C97.4956 380.105 97.0716 379.689 96.5436 379.385C95.9996 379.065 95.3996 378.905 94.7436 378.905C94.0716 378.905 93.4716 379.065 92.9436 379.385C92.3996 379.689 91.9676 380.105 91.6476 380.633C91.3276 381.161 91.1676 381.745 91.1676 382.385ZM94.7196 364.665C95.9676 364.665 97.0556 364.865 97.9836 365.265C98.8956 365.665 99.5996 366.249 100.096 367.017C100.592 367.769 100.84 368.665 100.84 369.705C100.84 370.729 100.568 371.673 100.024 372.537C99.4796 373.401 98.7356 374.081 97.7916 374.577C96.8476 375.073 95.8236 375.321 94.7196 375.321C93.6156 375.321 92.5996 375.073 91.6716 374.577C90.7276 374.081 89.9836 373.401 89.4396 372.537C88.8956 371.673 88.6236 370.729 88.6236 369.705C88.6236 368.665 88.8716 367.769 89.3676 367.017C89.8636 366.249 90.5756 365.665 91.5036 365.265C92.4156 364.865 93.4876 364.665 94.7196 364.665ZM98.2956 369.129C98.2956 368.441 98.1436 367.825 97.8396 367.281C97.5196 366.737 97.0876 366.313 96.5436 366.009C95.9996 365.705 95.3916 365.553 94.7196 365.553C94.0476 365.553 93.4476 365.705 92.9196 366.009C92.3756 366.313 91.9516 366.737 91.6476 367.281C91.3276 367.825 91.1676 368.441 91.1676 369.129C91.1676 369.785 91.3276 370.385 91.6476 370.929C91.9676 371.473 92.3996 371.905 92.9436 372.225C93.4876 372.545 94.0796 372.705 94.7196 372.705C95.3756 372.705 95.9756 372.545 96.5196 372.225C97.0636 371.905 97.4956 371.473 97.8156 370.929C98.1356 370.385 98.2956 369.785 98.2956 369.129ZM100.6 362.865L100.6 365.553L83.7996 365.553L83.7996 362.865L100.6 362.865ZM97.9836 358.129C97.0556 358.529 95.9676 358.729 94.7196 358.729C93.4876 358.729 92.4156 358.529 91.5036 358.129C90.5756 357.729 89.8636 357.153 89.3676 356.401C88.8716 355.633 88.6236 354.729 88.6236 353.689C88.6236 352.665 88.8956 351.721 89.4396 350.857C89.9836 349.993 90.7276 349.313 91.6716 348.817C92.5996 348.321 93.6156 348.073 94.7196 348.073C95.8236 348.073 96.8476 348.321 97.7916 348.817C98.7356 349.313 99.4796 349.993 100.024 350.857C100.568 351.721 100.84 352.665 100.84 353.689C100.84 354.729 100.592 355.633 100.096 356.401C99.5996 357.153 98.8956 357.729 97.9836 358.129ZM97.8396 356.113C98.1436 355.569 98.2956 354.953 98.2956 354.265C98.2956 353.609 98.1356 353.009 97.8156 352.465C97.4956 351.921 97.0636 351.489 96.5196 351.169C95.9756 350.849 95.3756 350.689 94.7196 350.689C94.0796 350.689 93.4876 350.849 92.9436 351.169C92.3996 351.489 91.9676 351.921 91.6476 352.465C91.3276 353.009 91.1676 353.609 91.1676 354.265C91.1676 354.953 91.3276 355.569 91.6476 356.113C91.9516 356.657 92.3756 357.081 92.9196 357.385C93.4476 357.689 94.0476 357.841 94.7196 357.841C95.3916 357.841 95.9996 357.689 96.5436 357.385C97.0876 357.081 97.5196 356.657 97.8396 356.113ZM100.6 360.529L83.7996 360.529L83.7996 357.841L100.6 357.841L100.6 360.529ZM88.6236 341.005C88.6236 339.869 88.8956 338.845 89.4396 337.933C89.9676 337.005 90.6956 336.269 91.6236 335.725C92.5516 335.181 93.5916 334.909 94.7436 334.909C95.8796 334.909 96.9116 335.181 97.8396 335.725C98.7676 336.253 99.5036 336.981 100.048 337.909C100.576 338.837 100.84 339.869 100.84 341.005C100.84 342.141 100.576 343.173 100.048 344.101C99.5036 345.029 98.7676 345.757 97.8396 346.285C96.9116 346.813 95.8796 347.077 94.7436 347.077C93.5916 347.077 92.5516 346.813 91.6236 346.285C90.6956 345.757 89.9676 345.029 89.4396 344.101C88.8956 343.173 88.6236 342.141 88.6236 341.005ZM91.1676 341.005C91.1676 341.645 91.3276 342.237 91.6476 342.781C91.9676 343.309 92.3996 343.725 92.9436 344.029C93.4716 344.333 94.0716 344.485 94.7436 344.485C95.3996 344.485 95.9996 344.333 96.5436 344.029C97.0716 343.725 97.4956 343.309 97.8156 342.781C98.1196 342.237 98.2716 341.645 98.2716 341.005C98.2716 340.365 98.1196 339.781 97.8156 339.253C97.4956 338.725 97.0716 338.309 96.5436 338.005C95.9996 337.685 95.3996 337.525 94.7436 337.525C94.0716 337.525 93.4716 337.685 92.9436 338.005C92.3996 338.309 91.9676 338.725 91.6476 339.253C91.3276 339.781 91.1676 340.365 91.1676 341.005ZM88.8636 333.153L88.8636 330.489L100.6 330.489L100.6 333.153L88.8636 333.153ZM90.5436 330.489C89.9836 330.217 89.5276 329.801 89.1756 329.241C88.8076 328.665 88.6236 328.081 88.6236 327.489C88.6236 326.897 88.7116 326.401 88.8876 326.001L91.4796 326.313C91.2876 326.745 91.1916 327.225 91.1916 327.753C91.1916 328.201 91.3196 328.641 91.5756 329.073C91.8156 329.489 92.1756 329.833 92.6556 330.105C93.1196 330.361 93.6796 330.489 94.3356 330.489L90.5436 330.489ZM88.6236 320.004C88.6236 318.868 88.8956 317.844 89.4396 316.932C89.9676 316.004 90.6956 315.268 91.6236 314.724C92.5516 314.18 93.5916 313.908 94.7436 313.908C95.8796 313.908 96.9116 314.18 97.8396 314.724C98.7676 315.252 99.5036 315.98 100.048 316.908C100.576 317.836 100.84 318.868 100.84 320.004C100.84 321.14 100.576 322.172 100.048 323.1C99.5036 324.028 98.7676 324.756 97.8396 325.284C96.9116 325.812 95.8796 326.076 94.7436 326.076C93.5916 326.076 92.5516 325.812 91.6236 325.284C90.6956 324.756 89.9676 324.028 89.4396 323.1C88.8956 322.172 88.6236 321.14 88.6236 320.004ZM91.1676 320.004C91.1676 320.644 91.3276 321.236 91.6476 321.78C91.9676 322.308 92.3996 322.724 92.9436 323.028C93.4716 323.332 94.0716 323.484 94.7436 323.484C95.3996 323.484 95.9996 323.332 96.5436 323.028C97.0716 322.724 97.4956 322.308 97.8156 321.78C98.1196 321.236 98.2716 320.644 98.2716 320.004C98.2716 319.364 98.1196 318.78 97.8156 318.252C97.4956 317.724 97.0716 317.308 96.5436 317.004C95.9996 316.684 95.3996 316.524 94.7436 316.524C94.0716 316.524 93.4716 316.684 92.9436 317.004C92.3996 317.308 91.9676 317.724 91.6476 318.252C91.3276 318.78 91.1676 319.364 91.1676 320.004ZM100.6 306.759L100.6 309.063L88.8636 313.983L88.8636 311.079L97.0236 307.911L88.8636 304.767L88.8636 301.839L100.6 306.759ZM100.84 295.815C100.84 296.919 100.568 297.943 100.024 298.887C99.4796 299.815 98.7436 300.551 97.8156 301.095C96.8716 301.624 95.8236 301.888 94.6716 301.888C93.5516 301.888 92.5356 301.624 91.6236 301.096C90.6956 300.568 89.9676 299.84 89.4396 298.912C88.8956 297.984 88.6236 296.968 88.6236 295.864C88.6236 294.824 88.8716 293.872 89.3676 293.007C89.8476 292.143 90.5196 291.463 91.3836 290.968C92.2316 290.471 93.1756 290.223 94.2156 290.223C94.5996 290.239 94.9996 290.271 95.4156 290.319L95.4156 300.544L93.3996 300.52L93.3996 292.96C92.9356 293.023 92.5196 293.199 92.1516 293.487C91.7676 293.759 91.4716 294.119 91.2636 294.568C91.0396 294.999 90.9276 295.479 90.9276 296.008C90.9276 296.68 91.0796 297.272 91.3836 297.783C91.6716 298.28 92.0956 298.664 92.6556 298.936C93.1996 299.208 93.8396 299.344 94.5756 299.344C95.3756 299.344 96.0716 299.2 96.6636 298.911C97.2396 298.607 97.6876 298.183 98.0076 297.639C98.3276 297.095 98.4876 296.463 98.4876 295.743C98.4876 295.087 98.3516 294.479 98.0796 293.919C97.7916 293.359 97.4236 292.951 96.9756 292.695L98.3196 290.559C99.1036 290.991 99.7196 291.679 100.168 292.623C100.616 293.551 100.84 294.615 100.84 295.815ZM87.5196 294.928L87.5196 297.4L83.9196 295.408L83.9196 292.192L87.5196 294.928ZM88.6236 278.19C88.6236 277.054 88.8956 276.03 89.4396 275.118C89.9676 274.19 90.6956 273.454 91.6236 272.91C92.5516 272.366 93.5916 272.094 94.7436 272.094C95.8796 272.094 96.9116 272.366 97.8396 272.91C98.7676 273.438 99.5036 274.166 100.048 275.094C100.576 276.022 100.84 277.054 100.84 278.19C100.84 279.326 100.576 280.358 100.048 281.286C99.5036 282.214 98.7676 282.942 97.8396 283.47C96.9116 283.998 95.8796 284.262 94.7436 284.262C93.5916 284.262 92.5516 283.998 91.6236 283.47C90.6956 282.942 89.9676 282.214 89.4396 281.286C88.8956 280.358 88.6236 279.326 88.6236 278.19ZM91.1676 278.19C91.1676 278.83 91.3276 279.422 91.6476 279.966C91.9676 280.494 92.3996 280.91 92.9436 281.214C93.4716 281.518 94.0716 281.67 94.7436 281.67C95.3996 281.67 95.9996 281.518 96.5436 281.214C97.0716 280.91 97.4956 280.494 97.8156 279.966C98.1196 279.422 98.2716 278.83 98.2716 278.19C98.2716 277.55 98.1196 276.966 97.8156 276.438C97.4956 275.91 97.0716 275.494 96.5436 275.19C95.9996 274.87 95.3996 274.71 94.7436 274.71C94.0716 274.71 93.4716 274.87 92.9436 275.19C92.3996 275.494 91.9676 275.91 91.6476 276.438C91.3276 276.966 91.1676 277.55 91.1676 278.19ZM88.8636 270.337L88.8636 267.673L100.6 267.673L100.6 270.337L88.8636 270.337ZM90.5436 267.673C89.9836 267.401 89.5276 266.985 89.1756 266.425C88.8076 265.849 88.6236 265.265 88.6236 264.673C88.6236 264.081 88.7116 263.585 88.8876 263.185L91.4796 263.497C91.2876 263.929 91.1916 264.409 91.1916 264.937C91.1916 265.385 91.3196 265.825 91.5756 266.257C91.8156 266.673 92.1756 267.017 92.6556 267.289C93.1196 267.545 93.6796 267.673 94.3356 267.673L90.5436 267.673ZM105.496 257.093C105.496 258.133 105.32 259.157 104.968 260.165C104.616 261.157 104.136 261.917 103.528 262.445L101.704 261.101C102.136 260.621 102.472 260.037 102.712 259.349C102.968 258.645 103.096 257.893 103.096 257.093C103.096 256.485 102.952 255.909 102.664 255.365C102.376 254.805 101.984 254.357 101.488 254.021C101.008 253.685 100.456 253.517 99.8316 253.517L99.0396 253.517L99.0396 250.829L99.8316 250.829C100.952 250.829 101.936 251.109 102.784 251.669C103.648 252.213 104.312 252.965 104.776 253.925C105.256 254.869 105.496 255.925 105.496 257.093ZM99.4236 250.829L99.4236 253.517L88.8396 253.517L88.8396 250.829L99.4236 250.829ZM94.5996 252.629C95.8156 252.629 96.8716 252.829 97.7676 253.229C98.6636 253.629 99.3596 254.213 99.8556 254.981C100.336 255.733 100.576 256.629 100.576 257.669C100.576 258.693 100.312 259.637 99.7836 260.501C99.2396 261.365 98.5116 262.045 97.5996 262.541C96.6716 263.037 95.6716 263.285 94.5996 263.285C93.5116 263.285 92.5116 263.037 91.5996 262.541C90.6876 262.045 89.9676 261.365 89.4396 260.501C88.8956 259.637 88.6236 258.693 88.6236 257.669C88.6236 256.629 88.8716 255.733 89.3676 254.981C89.8476 254.213 90.5356 253.629 91.4316 253.229C92.3276 252.829 93.3836 252.629 94.5996 252.629ZM98.1036 257.093C98.1036 256.405 97.9516 255.789 97.6476 255.245C97.3436 254.701 96.9276 254.277 96.3996 253.973C95.8556 253.669 95.2556 253.517 94.5996 253.517C93.9276 253.517 93.3276 253.669 92.7996 253.973C92.2556 254.277 91.8316 254.701 91.5276 255.245C91.2236 255.789 91.0716 256.405 91.0716 257.093C91.0716 257.749 91.2316 258.349 91.5516 258.893C91.8556 259.437 92.2796 259.869 92.8236 260.189C93.3516 260.509 93.9436 260.669 94.5996 260.669C95.2396 260.669 95.8316 260.509 96.3756 260.189C96.9036 259.869 97.3276 259.437 97.6476 258.893C97.9516 258.349 98.1036 257.749 98.1036 257.093ZM100.6 236.637L100.6 239.325L88.8636 239.325L88.8636 236.637L100.6 236.637ZM94.7196 238.437C95.9676 238.437 97.0556 238.637 97.9836 239.037C98.8956 239.437 99.5996 240.021 100.096 240.789C100.592 241.541 100.84 242.437 100.84 243.477C100.84 244.501 100.568 245.445 100.024 246.309C99.4796 247.173 98.7356 247.853 97.7916 248.349C96.8476 248.845 95.8236 249.093 94.7196 249.093C93.6156 249.093 92.5996 248.845 91.6716 248.349C90.7276 247.853 89.9836 247.173 89.4396 246.309C88.8956 245.445 88.6236 244.501 88.6236 243.477C88.6236 242.437 88.8716 241.541 89.3676 240.789C89.8636 240.021 90.5756 239.437 91.5036 239.037C92.4156 238.637 93.4876 238.437 94.7196 238.437ZM98.2956 242.901C98.2956 242.213 98.1436 241.597 97.8396 241.053C97.5196 240.509 97.0876 240.085 96.5436 239.781C95.9996 239.477 95.3916 239.325 94.7196 239.325C94.0476 239.325 93.4476 239.477 92.9196 239.781C92.3756 240.085 91.9516 240.509 91.6476 241.053C91.3276 241.597 91.1676 242.213 91.1676 242.901C91.1676 243.557 91.3276 244.157 91.6476 244.701C91.9676 245.245 92.3996 245.677 92.9436 245.997C93.4876 246.317 94.0796 246.477 94.7196 246.477C95.3756 246.477 95.9756 246.317 96.5196 245.997C97.0636 245.677 97.4956 245.245 97.8156 244.701C98.1356 244.157 98.2956 243.557 98.2956 242.901ZM100.6 231.637L100.6 234.301L88.8636 234.301L88.8636 231.637L100.6 231.637ZM94.2396 225.901C93.3116 225.901 92.5756 226.165 92.0316 226.693C91.4716 227.205 91.1916 227.885 91.1916 228.733C91.1916 229.613 91.4716 230.317 92.0316 230.845C92.5756 231.373 93.3116 231.637 94.2396 231.637L94.2396 232.453C93.1196 232.453 92.1356 232.277 91.2876 231.925C90.4236 231.557 89.7676 231.045 89.3196 230.389C88.8556 229.733 88.6236 228.965 88.6236 228.085C88.6236 226.581 89.0956 225.397 90.0396 224.533C90.9836 223.653 92.2716 223.213 93.9036 223.213L100.6 223.213L100.6 225.901L94.2396 225.901ZM88.8636 218.218L100.6 218.218L100.6 220.882L88.8636 220.882L88.8636 218.218ZM83.4156 219.538C83.4156 219.074 83.5916 218.674 83.9436 218.338C84.2796 217.986 84.6716 217.81 85.1196 217.81C85.5996 217.81 86.0076 217.986 86.3436 218.338C86.6796 218.674 86.8476 219.074 86.8476 219.538C86.8476 220.002 86.6796 220.402 86.3436 220.738C86.0076 221.074 85.5996 221.242 85.1196 221.242C84.6556 221.242 84.2556 221.074 83.9196 220.738C83.5836 220.402 83.4156 220.002 83.4156 219.538ZM90.8076 206.206L98.1036 212.878L98.0316 206.158L100.6 206.158L100.6 216.646L98.6556 216.646L91.3356 209.974L91.4076 216.19L88.8636 216.19L88.8636 206.206L90.8076 206.206ZM100.6 192.807L100.6 195.495L88.8636 195.495L88.8636 192.807L100.6 192.807ZM94.7196 194.607C95.9676 194.607 97.0556 194.807 97.9836 195.207C98.8956 195.607 99.5996 196.191 100.096 196.959C100.592 197.711 100.84 198.607 100.84 199.647C100.84 200.671 100.568 201.615 100.024 202.479C99.4796 203.343 98.7356 204.023 97.7916 204.519C96.8476 205.015 95.8236 205.263 94.7196 205.263C93.6156 205.263 92.5996 205.015 91.6716 204.519C90.7276 204.023 89.9836 203.343 89.4396 202.479C88.8956 201.615 88.6236 200.671 88.6236 199.647C88.6236 198.607 88.8716 197.711 89.3676 196.959C89.8636 196.191 90.5756 195.607 91.5036 195.207C92.4156 194.807 93.4876 194.607 94.7196 194.607ZM98.2956 199.071C98.2956 198.383 98.1436 197.767 97.8396 197.223C97.5196 196.679 97.0876 196.255 96.5436 195.951C95.9996 195.647 95.3916 195.495 94.7196 195.495C94.0476 195.495 93.4476 195.647 92.9196 195.951C92.3756 196.255 91.9516 196.679 91.6476 197.223C91.3276 197.767 91.1676 198.383 91.1676 199.071C91.1676 199.727 91.3276 200.327 91.6476 200.871C91.9676 201.415 92.3996 201.847 92.9436 202.167C93.4876 202.487 94.0796 202.647 94.7196 202.647C95.3756 202.647 95.9756 202.487 96.5196 202.167C97.0636 201.847 97.4956 201.415 97.8156 200.871C98.1356 200.327 98.2956 199.727 98.2956 199.071ZM97.6236 179.527C98.5996 179.975 99.3836 180.687 99.9756 181.663C100.552 182.623 100.84 183.711 100.84 184.927C100.84 186.079 100.576 187.127 100.048 188.071C99.5036 188.999 98.7676 189.735 97.8396 190.279C96.9116 190.807 95.8796 191.071 94.7436 191.071C93.6076 191.071 92.5756 190.807 91.6476 190.279C90.7036 189.735 89.9676 188.999 89.4396 188.071C88.8956 187.127 88.6236 186.087 88.6236 184.951C88.6236 183.815 88.8876 182.799 89.4156 181.903C89.9276 180.991 90.6156 180.319 91.4796 179.887L92.7516 182.143C92.2716 182.383 91.8956 182.751 91.6236 183.247C91.3356 183.743 91.1916 184.311 91.1916 184.951C91.1916 185.607 91.3516 186.207 91.6716 186.751C91.9756 187.279 92.3996 187.695 92.9436 187.999C93.4876 188.287 94.0876 188.431 94.7436 188.431C95.3996 188.431 95.9996 188.287 96.5436 187.999C97.0876 187.695 97.5116 187.279 97.8156 186.751C98.1196 186.207 98.2716 185.599 98.2716 184.927C98.2716 184.255 98.1196 183.655 97.8156 183.127C97.5116 182.583 97.0876 182.175 96.5436 181.903L97.6236 179.527ZM100.84 173.056C100.84 174.16 100.568 175.184 100.024 176.128C99.4796 177.056 98.7436 177.792 97.8156 178.336C96.8716 178.864 95.8236 179.128 94.6716 179.128C93.5516 179.128 92.5356 178.864 91.6236 178.336C90.6956 177.808 89.9676 177.08 89.4396 176.152C88.8956 175.224 88.6236 174.208 88.6236 173.104C88.6236 172.064 88.8716 171.112 89.3676 170.248C89.8476 169.384 90.5196 168.704 91.3836 168.208C92.2316 167.712 93.1756 167.464 94.2156 167.464C94.5996 167.48 94.9996 167.512 95.4156 167.56L95.4156 177.784L93.3996 177.76L93.3996 170.2C92.9356 170.264 92.5196 170.44 92.1516 170.728C91.7676 171 91.4716 171.36 91.2636 171.808C91.0396 172.24 90.9276 172.72 90.9276 173.248C90.9276 173.92 91.0796 174.512 91.3836 175.024C91.6716 175.52 92.0956 175.904 92.6556 176.176C93.1996 176.448 93.8396 176.584 94.5756 176.584C95.3756 176.584 96.0716 176.44 96.6636 176.152C97.2396 175.848 97.6876 175.424 98.0076 174.88C98.3276 174.336 98.4876 173.704 98.4876 172.984C98.4876 172.328 98.3516 171.72 98.0796 171.16C97.7916 170.6 97.4236 170.192 96.9756 169.936L98.3196 167.8C99.1036 168.232 99.7196 168.92 100.168 169.864C100.616 170.792 100.84 171.856 100.84 173.056Z" fill="#F099C9"/>
</svg>
