<svg width="255" height="190" viewBox="0 0 255 190" fill="none" xmlns="http://www.w3.org/2000/svg">
<g clip-path="url(#clip0_248_731)">
<path d="M50.6775 33.0729C50.6775 32.4472 50.1742 31.9395 49.5541 31.9395C45.501 31.9395 38.1406 32.1027 32.6046 32.2568C29.549 32.3384 26.7361 32.4291 24.687 32.5107C23.6535 32.547 22.8177 32.5923 22.2336 32.6195C21.272 32.6739 20.2744 32.7283 20.2744 33.8345C20.2744 34.5781 20.7867 34.977 21.7932 34.9952C22.0898 34.9952 22.5391 35.0042 23.1682 35.0042C23.4019 35.0042 23.6176 34.9317 23.7973 34.8138C29.2704 34.5871 43.389 34.2063 49.5451 34.2063C50.1652 34.2063 50.6685 33.6985 50.6685 33.0729H50.6775Z" fill="#F099C9"/>
<path d="M27.7158 50.9901C27.7158 51.6158 28.2191 52.1235 28.8392 52.1235C48.332 52.1235 63.1786 51.0717 76.9916 48.7051C78.4116 48.4603 79.8495 48.1611 81.2515 47.8709C84.5317 47.1909 87.9198 46.4836 91.2001 46.4836C91.8202 46.4836 92.3235 45.9759 92.3235 45.3502C92.3235 44.7246 91.8202 44.2168 91.2001 44.2168C87.6952 44.2168 84.1902 44.9513 80.8021 45.6494C79.4271 45.9396 77.9982 46.2298 76.6232 46.4655C62.9359 48.814 48.2062 49.8567 28.8392 49.8567C28.2191 49.8567 27.7158 50.3645 27.7158 50.9901Z" fill="#F099C9"/>
<path d="M67.7979 75.5257C68.3461 75.5257 68.8853 75.5257 69.4246 75.5257C73.0463 75.5257 76.5423 75.3988 80.2629 74.3016C84.6845 72.9959 91.6674 71.4817 96.781 71.4817C97.4011 71.4817 97.9044 70.9739 97.9044 70.3483C97.9044 69.7226 97.4011 69.2148 96.781 69.2148C91.4338 69.2148 84.1992 70.7835 79.6338 72.1255C75.6705 73.2952 72.0308 73.277 67.8069 73.2498H28.8392C28.2191 73.2498 27.7158 73.7485 27.7158 74.3742C27.7158 74.9998 28.2191 75.5076 28.8392 75.5076H67.8069L67.7979 75.5257Z" fill="#F099C9"/>
<path d="M235.639 137.266C231.793 137.656 228.162 138.028 225.268 137.828C224.891 137.801 223.785 137.656 222.5 137.484C213.378 136.269 211.976 136.323 211.356 136.976C209.217 137.973 189.698 143.658 175.381 147.829C160.202 152.254 153.947 154.095 153.183 154.476V154.503C144.017 159.563 112.904 161.984 101.733 160.234C95.2891 159.227 86.9671 155.256 82.3658 151.012C81.1525 149.888 80.3077 145.499 81.1974 143.468C81.5659 142.643 82.7073 142.28 83.3813 142.09C86.5807 145.2 91.7302 146.651 95.9272 147.829L97.2662 148.21L97.8863 146.034L96.5293 145.653C92.557 144.538 87.6591 143.151 84.8821 140.403V140.358L84.4058 139.905C79.5259 135.389 77.0814 131.399 77.6656 128.906C77.8812 128.661 78.0879 128.389 78.3036 128.108C78.8249 127.428 79.3641 126.721 80.0561 126.294C80.2987 126.276 80.8739 126.367 81.2334 126.412C81.8265 126.494 82.3388 126.557 82.7702 126.53C88.9892 130.846 98.102 133.195 103.054 134.219L103.503 131.998C99.6208 131.2 90.0227 128.879 83.9025 124.572C83.6599 124.182 83.1386 123.665 82.0602 122.722L81.9793 122.649C81.521 122.232 81.2963 121.625 80.9907 120.781C80.784 120.228 80.5504 119.603 80.2089 118.923C79.6068 116.438 81.6648 113.147 82.7792 111.923C83.543 111.079 85.3674 110.762 86.6526 110.98C87.9467 111.451 100.546 115.967 105.364 116.601L105.651 114.353C100.915 113.727 87.4524 108.867 87.3176 108.813L87.1468 108.767C86.4189 108.631 85.5651 108.613 84.7024 108.731C83.9115 108.414 82.213 104.759 82.9679 101.123C83.7408 97.3877 86.7964 95.7284 91.8201 96.3268C106.703 104.914 125.665 113.065 140.862 100.498V100.48C141.132 100.244 141.312 99.8903 141.267 99.4913C140.745 94.8307 140.071 88.3022 139.316 80.8216C143.819 81.4019 151.233 83.7957 157.326 85.7633C161.613 87.1506 165.334 88.3475 167.805 88.8916V88.9188C167.805 88.9188 167.886 88.9188 167.922 88.9188C167.985 88.9369 168.066 88.955 168.129 88.9641V88.9097C175.004 88.5924 183.191 89.7258 191.855 90.9317C199.359 91.9745 207.115 93.0535 215.427 93.4797V93.4978L215.634 93.4887C215.679 93.4887 215.733 93.4887 215.778 93.4887V93.4706L254.26 91.7659L254.162 89.4991L215.643 91.2038C207.393 90.7867 199.646 89.7076 192.16 88.674C183.434 87.4589 175.193 86.3164 168.147 86.6338C165.756 86.0898 162 84.8838 158.018 83.5962C151.305 81.4201 143.774 78.9991 139.092 78.5004C136.827 55.7685 134.014 25.4291 133.017 11.1299C132.675 6.25169 130.662 5.74391 127.319 4.89158C126.923 4.79184 126.51 4.68303 126.052 4.56516C111.106 0.512049 94.642 0.584587 78.726 0.648059C75.976 0.657126 73.2619 0.666194 70.6018 0.657126C59.1253 0.611789 47.4692 0.620857 36.1905 0.638992C30.4568 0.638992 24.723 0.657126 18.9893 0.657126H16.5898C15.0979 0.657126 13.5971 0.629924 12.0963 0.602722C9.08563 0.539251 5.97613 0.475779 2.92953 0.657126C0.538984 0.802204 0.143555 4.60143 0.260386 11.1118C0.260386 11.4291 0.269373 11.6921 0.269373 11.8734C0.269373 26.8437 1.34782 39.2841 3.66647 51.0354C5.42792 59.9576 5.96714 69.1882 6.48839 78.1105C6.99166 86.8242 7.52189 95.8372 9.1755 104.669C11.1706 115.314 12.1232 125.714 12.267 138.39C12.4018 150.867 15.6102 162.709 18.7017 174.17C19.3488 176.564 19.7263 179.048 20.0857 181.451C20.3913 183.473 20.7058 185.568 21.1822 187.617C21.281 188.043 21.5416 188.406 21.9101 188.623C22.674 189.077 23.6266 188.814 24.3995 188.587C24.5613 188.542 24.6961 188.496 24.777 188.487L25.3971 188.424C27.0687 188.261 29.594 188.007 30.8432 188.705C32.0115 189.358 33.6292 189.539 35.3008 189.539C36.4601 189.539 37.6464 189.449 38.7158 189.376C39.5696 189.313 40.3694 189.258 40.9806 189.258C43.6137 189.258 46.229 189.05 48.7543 188.85C51.2527 188.651 53.832 188.451 56.3933 188.451C57.7054 188.451 59.0265 188.451 60.3386 188.46C68.1034 188.496 76.1288 188.542 83.9924 187.173C87.8478 186.502 91.6583 185.586 95.334 184.697C103.117 182.811 110.459 181.043 118.44 181.37C124.425 181.614 130.392 182.739 136.171 183.836C140.116 184.579 144.205 185.35 148.294 185.849C148.708 185.894 149.966 186.048 150.667 185.187C151.359 184.344 151 183.237 150.721 182.349C150.586 181.932 150.442 181.469 150.442 181.179C150.442 179.221 150.586 175.548 150.73 171.658C150.937 166.3 151.152 160.769 151.08 157.912C152.357 157.45 153.48 156.969 154.397 156.452C156.095 155.836 166.215 152.88 176.028 150.024C205.677 141.383 211.347 139.605 212.668 138.835C213.774 138.626 219.687 139.415 222.231 139.75C223.66 139.941 224.693 140.077 225.142 140.104C228.234 140.313 231.955 139.932 235.891 139.533C242.263 138.88 248.859 138.209 252.912 140.041L253.829 137.973C249.228 135.897 242.335 136.604 235.666 137.284L235.639 137.266ZM148.465 171.559C148.312 175.467 148.169 179.166 148.169 181.17C148.169 181.814 148.375 182.467 148.564 183.038C148.618 183.201 148.69 183.419 148.735 183.609C148.681 183.609 148.609 183.6 148.537 183.591C144.52 183.11 140.476 182.34 136.566 181.605C130.716 180.499 124.668 179.357 118.521 179.103C110.234 178.767 102.38 180.662 94.7948 182.494C91.1461 183.373 87.3805 184.289 83.597 184.942C75.9311 186.275 68.0045 186.23 60.3386 186.193C59.0175 186.193 57.7054 186.184 56.3843 186.184C53.7331 186.184 51.1089 186.393 48.5656 186.592C46.0852 186.792 43.5149 186.991 40.9716 186.991C40.2796 186.991 39.4348 187.055 38.5451 187.118C36.3343 187.281 33.3146 187.508 31.9306 186.728C30.0703 185.686 27.2394 185.967 25.1724 186.175L24.5703 186.23C24.3276 186.248 24.076 186.32 23.7794 186.411C23.6446 186.447 23.4289 186.511 23.2402 186.556C22.8537 184.761 22.5751 182.911 22.3055 181.116C21.9371 178.649 21.5506 176.101 20.8676 173.581C17.812 162.265 14.6486 150.568 14.5138 138.372C14.37 125.56 13.4084 115.033 11.3863 104.252C9.75966 95.5651 9.23841 86.6247 8.73514 77.9836C8.21389 68.9797 7.66569 59.6766 5.87727 50.6001C3.58558 39.003 2.52511 26.6986 2.52511 11.8825C2.52511 11.6921 2.52511 11.4201 2.51613 11.0846C2.40828 4.88251 2.92953 3.32293 3.21711 2.92397C6.12891 2.76075 9.13956 2.81516 12.0513 2.87863C13.5702 2.90583 15.089 2.9421 16.5898 2.9421H18.9893C24.723 2.9421 30.4568 2.9421 36.1905 2.92397C47.4692 2.90583 59.1253 2.89676 70.5928 2.9421C73.2709 2.95117 75.985 2.9421 78.744 2.93303C94.5162 2.86956 110.828 2.79702 125.476 6.75946C125.935 6.8864 126.366 6.99521 126.771 7.09495C129.97 7.91101 130.545 8.05609 130.77 11.3022C132.127 30.7336 136.827 79.7245 138.966 99.1105C124.838 110.309 106.873 102.42 92.7458 94.2504L92.548 94.1416L92.3234 94.1144C86.3829 93.3436 83.5161 95.4654 82.1501 97.3877C79.8853 100.598 80.2268 105.403 81.7457 108.486C81.9254 108.858 82.1231 109.184 82.3208 109.474C81.8625 109.719 81.4491 110.028 81.1166 110.39C79.9213 111.705 77.0454 115.93 78.061 119.639L78.1508 119.866C78.4654 120.464 78.6721 121.035 78.8788 121.579C79.2113 122.477 79.5259 123.329 80.1729 124.037C79.7326 124.037 79.3731 124.082 79.0675 124.263C77.9172 124.907 77.1713 125.886 76.5242 126.739C76.2905 127.047 76.0659 127.346 75.8322 127.6L75.6614 127.781L75.5895 128.017C74.3583 131.916 77.8992 136.667 81.5839 140.34C80.6852 140.73 79.6697 141.383 79.1484 142.561C77.9172 145.345 78.8339 150.84 80.847 152.699C85.8078 157.287 94.4443 161.403 101.382 162.491C103.944 162.89 107.493 163.09 111.574 163.09C123.212 163.09 139.182 161.512 148.825 158.656C148.852 161.63 148.645 166.88 148.465 171.586V171.559ZM212.677 138.789C212.758 138.735 212.821 138.689 212.875 138.644C212.803 138.708 212.731 138.762 212.677 138.789Z" fill="#F099C9"/>
<path d="M104.743 85.8717C104.743 85.2461 104.24 84.7383 103.62 84.7383C93.2848 84.7383 81.8713 85.509 67.6898 87.1683C64.5084 87.5401 61.6325 88.0841 58.2983 88.7189C52.2591 89.8613 45.411 91.158 33.9615 91.965C33.3414 92.0103 32.8741 92.5543 32.919 93.1709C32.9639 93.7694 33.4582 94.2227 34.0424 94.2227C34.0693 94.2227 34.0963 94.2227 34.1233 94.2227C45.6985 93.4067 52.9151 92.0375 58.7117 90.9404C62.001 90.3147 64.8499 89.7797 67.9504 89.417C82.042 87.7758 93.3747 87.0051 103.62 87.0051C104.24 87.0051 104.743 86.4973 104.743 85.8717Z" fill="#F099C9"/>
</g>
<defs>
<clipPath id="clip0_248_731">
<rect width="254" height="189" fill="white" transform="translate(0.242188 0.539062)"/>
</clipPath>
</defs>
</svg>
