<svg width="290" height="219" viewBox="0 0 290 219" fill="none" xmlns="http://www.w3.org/2000/svg">
<g clip-path="url(#clip0_266_1196)">
<path d="M58.9955 38.1153C58.9955 37.3937 58.4151 36.8081 57.6999 36.8081C53.0253 36.8081 44.5363 36.9963 38.1515 37.1741C34.6274 37.2682 31.3831 37.3728 29.0199 37.4669C27.8279 37.5088 26.864 37.5611 26.1902 37.5924C25.0812 37.6552 23.9307 37.7179 23.9307 38.9938C23.9307 39.8513 24.5215 40.3114 25.6824 40.3323C26.0244 40.3323 26.5426 40.3428 27.2682 40.3428C27.5377 40.3428 27.7864 40.2591 27.9937 40.1232C34.306 39.8617 50.5895 39.4225 57.6895 39.4225C58.4047 39.4225 58.9851 38.8369 58.9851 38.1153H58.9955Z" fill="#4556EB"/>
<path d="M32.5137 58.7797C32.5137 59.5012 33.0941 60.0869 33.8093 60.0869C56.291 60.0869 73.414 58.8738 89.3451 56.1443C90.9827 55.862 92.6411 55.5169 94.2581 55.1822C98.0413 54.3979 101.949 53.5822 105.732 53.5822C106.447 53.5822 107.028 52.9966 107.028 52.275C107.028 51.5534 106.447 50.9678 105.732 50.9678C101.69 50.9678 97.6474 51.8148 93.7398 52.6201C92.154 52.9547 90.5059 53.2894 88.9201 53.5613C73.1342 56.2698 56.1459 57.4725 33.8093 57.4725C33.0941 57.4725 32.5137 58.0581 32.5137 58.7797Z" fill="#4556EB"/>
<path d="M78.7416 87.0783C79.3739 87.0783 79.9958 87.0783 80.6177 87.0783C84.7948 87.0783 88.8268 86.9319 93.1179 85.6666C98.2175 84.1607 106.271 82.4142 112.169 82.4142C112.884 82.4142 113.464 81.8286 113.464 81.107C113.464 80.3854 112.884 79.7998 112.169 79.7998C106.002 79.7998 97.6578 81.609 92.3924 83.1567C87.8214 84.5058 83.6236 84.4848 78.752 84.4535H33.8093C33.0941 84.4535 32.5137 85.0286 32.5137 85.7502C32.5137 86.4718 33.0941 87.0574 33.8093 87.0574H78.752L78.7416 87.0783Z" fill="#4556EB"/>
<path d="M272.318 158.284C267.882 158.734 263.695 159.163 260.357 158.933C259.922 158.901 258.647 158.734 257.165 158.535C246.644 157.134 245.027 157.197 244.312 157.95C241.845 159.1 219.332 165.657 202.821 170.467C185.314 175.571 178.1 177.694 177.219 178.133V178.164C166.647 184 130.763 186.792 117.88 184.774C110.448 183.613 100.85 179.032 95.5429 174.138C94.1437 172.841 93.1694 167.78 94.1955 165.437C94.6205 164.486 95.9368 164.067 96.7142 163.848C100.404 167.435 106.343 169.108 111.184 170.467L112.728 170.907L113.443 168.397L111.878 167.958C107.297 166.671 101.648 165.071 98.4451 161.903V161.85L97.8958 161.327C92.2676 156.119 89.4483 151.518 90.122 148.642C90.3708 148.36 90.6092 148.046 90.858 147.722C91.4591 146.938 92.081 146.122 92.8791 145.63C93.159 145.61 93.8223 145.714 94.237 145.766C94.921 145.861 95.5118 145.934 96.0094 145.902C103.182 150.88 113.692 153.589 119.403 154.77L119.921 152.208C115.444 151.288 104.374 148.611 97.3154 143.643C97.0355 143.194 96.4343 142.598 95.1905 141.51L95.0972 141.426C94.5686 140.945 94.3095 140.245 93.9571 139.272C93.7187 138.634 93.4492 137.913 93.0553 137.128C92.3609 134.263 94.7345 130.467 96.0197 129.055C96.9008 128.082 99.0049 127.716 100.487 127.967C101.98 128.511 116.511 133.719 122.067 134.451L122.399 131.858C116.936 131.136 101.41 125.531 101.254 125.468L101.057 125.416C100.218 125.259 99.2329 125.238 98.2378 125.374C97.3257 125.008 95.3667 120.793 96.2374 116.6C97.1288 112.291 100.653 110.378 106.447 111.068C123.611 120.971 145.482 130.373 163.009 115.878V115.857C163.32 115.586 163.527 115.178 163.475 114.718C162.874 109.342 162.097 101.813 161.226 93.1852C166.419 93.8545 174.97 96.6153 181.998 98.8846C186.942 100.485 191.233 101.865 194.083 102.493V102.524C194.083 102.524 194.176 102.524 194.218 102.524C194.29 102.545 194.384 102.566 194.456 102.576V102.513C202.386 102.147 211.828 103.455 221.82 104.845C230.475 106.048 239.42 107.293 249.007 107.784V107.805L249.246 107.795C249.298 107.795 249.36 107.795 249.412 107.795V107.774L293.795 105.808L293.681 103.193L249.256 105.159C239.741 104.678 230.806 103.434 222.172 102.242C212.108 100.84 202.603 99.5225 194.477 99.8885C191.72 99.2611 187.387 97.8702 182.796 96.3852C175.053 93.8754 166.367 91.0832 160.967 90.508C158.355 64.2906 155.111 29.2992 153.96 12.8075C153.566 7.18123 151.245 6.5956 147.389 5.61258C146.933 5.49755 146.456 5.37206 145.927 5.23611C128.69 0.561523 109.702 0.645184 91.3451 0.718388C88.1734 0.728846 85.0432 0.739304 81.9751 0.728846C68.739 0.676557 55.2956 0.687015 42.2875 0.707931C35.6746 0.707931 29.0617 0.728846 22.4488 0.728846H19.6814C17.9608 0.728846 16.2298 0.697473 14.4989 0.6661C11.0266 0.592896 7.44029 0.519692 3.92655 0.728846C1.16945 0.896169 0.713393 5.27794 0.848138 12.7865C0.848138 13.1526 0.858503 13.4558 0.858503 13.665C0.858503 30.9306 2.10231 45.2786 4.77648 58.8317C6.80802 69.1221 7.42992 79.768 8.0311 90.0583C8.61154 100.108 9.22307 110.503 11.1302 120.689C13.4313 132.966 14.53 144.961 14.6958 159.581C14.8513 173.971 18.5516 187.628 22.1172 200.847C22.8634 203.608 23.2988 206.473 23.7134 209.245C24.0658 211.577 24.4286 213.992 24.9779 216.356C25.0919 216.847 25.3925 217.266 25.8175 217.517C26.6985 218.039 27.7972 217.736 28.6886 217.475C28.8751 217.422 29.0306 217.37 29.1239 217.36L29.8391 217.286C31.767 217.098 34.6796 216.805 36.1203 217.611C37.4677 218.364 39.3334 218.573 41.2613 218.573C42.5984 218.573 43.9666 218.468 45.2001 218.385C46.1847 218.311 47.1072 218.249 47.812 218.249C50.849 218.249 53.8652 218.008 56.7778 217.778C59.6592 217.548 62.634 217.318 65.588 217.318C67.1013 217.318 68.625 217.318 70.1383 217.328C79.0937 217.37 88.3496 217.422 97.419 215.843C101.866 215.069 106.26 214.013 110.5 212.988C119.476 210.813 127.944 208.774 137.148 209.15C144.051 209.433 150.934 210.729 157.598 211.995C162.149 212.852 166.865 213.741 171.581 214.316C172.057 214.369 173.509 214.547 174.317 213.553C175.115 212.581 174.701 211.305 174.379 210.28C174.224 209.799 174.058 209.265 174.058 208.931C174.058 206.672 174.224 202.437 174.39 197.95C174.628 191.77 174.877 185.391 174.794 182.096C176.266 181.563 177.561 181.009 178.619 180.413C180.578 179.702 192.249 176.292 203.567 172.998C237.761 163.032 244.302 160.982 245.825 160.093C247.1 159.853 253.92 160.763 256.854 161.15C258.502 161.369 259.694 161.526 260.212 161.557C263.778 161.798 268.069 161.359 272.609 160.899C279.957 160.146 287.565 159.372 292.24 161.484L293.297 159.1C287.99 156.705 280.04 157.521 272.349 158.305L272.318 158.284ZM171.778 197.835C171.601 202.342 171.436 206.609 171.436 208.92C171.436 209.663 171.674 210.416 171.892 211.075C171.954 211.263 172.037 211.514 172.089 211.733C172.026 211.733 171.943 211.723 171.861 211.713C167.227 211.158 162.563 210.269 158.054 209.422C151.307 208.146 144.331 206.829 137.241 206.536C127.685 206.149 118.626 208.335 109.878 210.447C105.67 211.462 101.327 212.518 96.963 213.271C88.1216 214.808 78.9796 214.756 70.1383 214.714C68.6146 214.714 67.1013 214.703 65.5777 214.703C62.52 214.703 59.4934 214.944 56.5601 215.174C53.6994 215.404 50.735 215.634 47.8017 215.634C47.0036 215.634 46.0293 215.707 45.0031 215.781C42.4533 215.969 38.9707 216.23 37.3745 215.331C35.2289 214.128 31.9639 214.452 29.58 214.693L28.8855 214.756C28.6057 214.777 28.3154 214.86 27.9734 214.965C27.8179 215.007 27.5692 215.08 27.3515 215.132C26.9058 213.062 26.5845 210.928 26.2735 208.858C25.8486 206.013 25.4029 203.074 24.6151 200.167C21.091 187.116 17.4425 173.626 17.2871 159.56C17.1212 144.783 16.0122 132.642 13.68 120.208C11.804 110.189 11.2028 99.8781 10.6223 89.9119C10.0212 79.5275 9.38891 68.7979 7.32627 58.3297C4.68319 44.9544 3.46012 30.7633 3.46012 13.6755C3.46012 13.4558 3.46012 13.1421 3.44976 12.7552C3.32538 5.60212 3.92655 3.8034 4.25823 3.34327C7.61649 3.15503 11.0888 3.21777 14.447 3.29098C16.1987 3.32235 17.9504 3.36418 19.6814 3.36418H22.4488C29.0617 3.36418 35.6746 3.36418 42.2875 3.34327C55.2956 3.32235 68.739 3.31189 81.9648 3.36418C85.0535 3.37464 88.1838 3.36418 91.3658 3.35372C109.556 3.28052 128.369 3.19686 145.264 7.76686C145.793 7.91327 146.29 8.03876 146.756 8.1538C150.446 9.09499 151.11 9.26231 151.369 13.0062C152.934 35.417 158.355 91.9198 160.822 114.278C144.528 127.194 123.808 118.095 107.515 108.673L107.287 108.548L107.027 108.516C100.176 107.627 96.8697 110.074 95.2942 112.291C92.6822 115.993 93.0761 121.536 94.8278 125.092C95.0351 125.52 95.2631 125.897 95.4911 126.231C94.9625 126.514 94.4857 126.869 94.1022 127.288C92.7237 128.804 89.4068 133.677 90.5781 137.955L90.6817 138.216C91.0445 138.906 91.2829 139.565 91.5213 140.192C91.9048 141.228 92.2676 142.211 93.0139 143.026C92.506 143.026 92.0914 143.079 91.739 143.288C90.4123 144.03 89.552 145.16 88.8057 146.143C88.5362 146.498 88.2771 146.844 88.0076 147.136L87.8106 147.346L87.7277 147.617C86.3077 152.114 90.3915 157.594 94.6412 161.829C93.6047 162.279 92.4334 163.032 91.8323 164.392C90.4123 167.602 91.4695 173.939 93.7913 176.083C99.5127 181.375 109.474 186.123 117.475 187.378C120.429 187.838 124.524 188.068 129.229 188.068C142.652 188.068 161.071 186.248 172.192 182.954C172.223 186.384 171.985 192.439 171.778 197.867V197.835ZM245.836 160.041C245.929 159.978 246.002 159.926 246.064 159.874C245.981 159.947 245.898 160.01 245.836 160.041Z" fill="#4556EB"/>
<path d="M121.351 99.0103C121.351 98.2888 120.771 97.7031 120.056 97.7031C108.136 97.7031 94.9724 98.592 78.6164 100.506C74.9472 100.935 71.6304 101.562 67.785 102.294C60.8197 103.612 52.9216 105.107 39.7165 106.038C39.0013 106.09 38.4624 106.718 38.5142 107.429C38.566 108.119 39.1361 108.642 39.8098 108.642C39.8409 108.642 39.872 108.642 39.9031 108.642C53.2532 107.701 61.5763 106.122 68.2618 104.856C72.0554 104.135 75.3411 103.518 78.917 103.099C95.1694 101.206 108.24 100.318 120.056 100.318C120.771 100.318 121.351 99.7319 121.351 99.0103Z" fill="#4556EB"/>
</g>
<defs>
<clipPath id="clip0_266_1196">
<rect width="292.946" height="217.98" fill="white" transform="translate(0.827148 0.59314)"/>
</clipPath>
</defs>
</svg>
