<svg width="533" height="256" viewBox="0 0 533 256" fill="none" xmlns="http://www.w3.org/2000/svg">
<path d="M484.229 66.3587C487.954 71.5034 508.837 70.2294 512.292 75.4951L528.245 140.465C534.935 173.457 527.823 188.507 523.954 199.954C520.304 210.756 508.852 209.665 499.786 211.599C479.156 215.998 456.728 213.791 435.682 213.791C414.848 213.791 394.135 215.721 373.593 218.723C355.784 221.325 336.159 223.157 319.213 228.861C309.141 232.251 298.879 235.323 289.071 239.41C282.296 242.234 275.583 245.658 268.236 246.808C264.078 247.459 259.945 248.315 255.735 248.315C246.523 248.315 237.051 252.014 227.885 252.014C201.006 252.014 172.12 256.909 145.377 251.329C135.738 249.318 127.294 245.849 117.389 245.849C111.618 245.849 105.925 246.034 100.443 243.931C93.9611 241.445 88.9586 236.661 82.941 233.519C73.4623 228.57 64.1704 222.402 60.7167 211.873C58.3025 204.513 47.9754 196.966 43.215 190.638C39.6824 185.941 35.373 181.592 32.9363 176.184C31.5238 173.049 30.7127 169.817 30.2277 166.389C28.8758 156.833 26.6857 147.235 26.6857 137.55C26.6857 130.394 21.3768 123.218 18.8377 116.726C13.2643 102.474 21.5612 96.1752 14.4536 82.5441C8.31053 70.7627 -4.48839 53.4397 5.98062 39.9368C11.6391 32.6385 13.9667 23.0129 21.963 20.2087C29.9549 17.406 38.884 16.5097 47.3126 16.5097C61.0106 16.5097 72.7113 30.0728 85.8579 30.0728C98.0962 30.0728 109.976 30.2405 121.972 32.8128C137.096 36.0555 152.644 40.1847 168.227 39.9368C176.859 39.7995 185.193 36.5156 193.924 36.2378C200.478 36.0293 207.999 35.2735 214.203 33.1553C224.961 29.4823 235.434 30.0728 246.706 30.0728C253.345 30.0728 259.604 31.1786 265.458 28.2918C272.527 24.8054 280.168 21.8084 287.335 18.4277C292.409 16.0341 297.534 12.9332 303.031 11.5777C330.555 4.79078 362.136 -0.480329 390.748 3.22061C398.255 4.19176 405.514 5.92213 412.277 9.38564C417.91 12.2704 420.982 16.0178 427.418 17.4687C436.032 19.4107 445.223 21.0219 453.114 25.3462C464.431 31.5472 472.568 42.201 484.229 47.9514C494.875 53.2017 477.619 57.2325 484.229 66.3587Z" stroke="#4556EB" stroke-width="3" stroke-linecap="round"/>
</svg>
