<svg width="378" height="598" viewBox="0 0 378 598" fill="none" xmlns="http://www.w3.org/2000/svg">
<path d="M93.9274 370.74C107.365 378.795 128.395 374.231 140.352 365.834C152.674 362.839 152.061 375.038 146.177 376.904" stroke="#4556EB" stroke-width="2.5"/>
<path d="M145.875 377.025C147.177 376.609 149.139 376.718 150.157 377.62C151.113 378.467 154.876 382.409 153.305 384.282C152.568 385.16 152.778 387.071 151.995 388.004C151.954 388.058 150.503 388.87 150.658 389.007C150.96 389.275 153.008 389.132 153.508 389.344C154.707 389.853 155.213 391.528 156.021 392.244C160.567 396.272 153.41 400.267 151.66 402.353C151.461 402.589 153.916 402.927 154.821 404.48C155.969 406.451 155.702 410.701 154.512 412.119C151 416.305 144.368 420.583 138.846 422.143C129.136 424.886 102.94 425.758 94.7199 422.268" stroke="#4556EB" stroke-width="2.5"/>
<path d="M91.6265 358.687C85.7713 359.503 80.2923 365.079 74.9792 366.811" stroke="#4556EB" stroke-width="2.5"/>
<path d="M146.583 376.856C143.369 380.865 137.745 382.269 133.306 383.703" stroke="#4556EB" stroke-width="2.5"/>
<path d="M150.722 389.572C146.584 393.742 139.757 396.799 135.046 398.462" stroke="#4556EB" stroke-width="2.5"/>
<path d="M152.257 402.595C149.799 405.885 144.544 407.705 140.717 409.237" stroke="#4556EB" stroke-width="2.5"/>
<path d="M94.0298 371.608C93.2916 368.052 92.6242 361.551 90.8607 359.658" stroke="#4556EB" stroke-width="2.5"/>
<path d="M94.6539 421.708C84.3348 408.972 59.7543 414.493 44.3944 415.638C44.84 399.202 39.0232 382.901 34.9406 370.651" stroke="#4556EB" stroke-width="2.5"/>
<path d="M74.9947 366.943C64.1187 367.551 43.532 379.277 34.9406 370.651" stroke="#4556EB" stroke-width="2.5"/>
<path d="M35.6111 370.572C35.8864 372.539 36.4074 374.489 36.4323 376.473C36.4405 377.018 35.4559 376.143 34.9609 376.177C31.9142 376.39 28.9398 376.2 25.9264 376.409C18.3631 376.936 10.7997 377.462 3.2364 377.989" stroke="#4556EB" stroke-width="2.5"/>
<path d="M44.7053 416.153C44.264 415.089 44.0613 413.851 43.3816 412.963C42.8786 412.307 33.8227 415.076 32.5168 415.333C25.8443 416.648 14.3126 414.481 8.85119 418.154" stroke="#4556EB" stroke-width="2.5"/>
<path d="M148.686 417.1C147.962 419.3 167.658 572.685 166.254 574.318C159.693 581.946 125.392 584.361 118.854 578.708C117.855 577.844 100.611 424.403 100.57 423.863" stroke="#4556EB" stroke-width="2.5"/>
<path d="M143.087 365.825C141.858 363.86 127.331 219.505 125.562 218.249C114.147 219.595 77.267 223.942 77.267 223.942C76.482 225.015 93.8879 369.991 93.9731 370.525" stroke="#4556EB" stroke-width="2.5"/>
<path d="M18.449 152.647C20.2594 168.005 20.387 184.351 26.0891 198.79C30.1442 209.059 48.0525 204.824 54.9879 200.061C63.7103 194.07 62.6756 181.258 61.6217 172.318C60.721 164.676 61.1715 151.801 56.0132 145.743" stroke="#4556EB" stroke-width="2.5" stroke-linecap="round"/>
<path d="M36.3329 146.825C36.7718 139.812 45.442 129.667 49.7595 124.196" stroke="#4556EB" stroke-width="2.5" stroke-linecap="round"/>
<path d="M68.0797 143.083C69.5582 155.626 81.8335 166.138 88.0592 176.629C88.7526 177.798 94.3513 192.863 97.9787 191.348C100.296 190.38 101.789 182.498 102.485 180.569C106.541 169.329 110.665 158.331 113.348 146.688C114.187 143.044 117.451 129.084 120.654 126.981" stroke="#4556EB" stroke-width="2.5" stroke-linecap="round"/>
<path d="M141.342 134.447C136.766 131.681 132.236 149.961 131.146 152.98C127.898 161.981 128.149 169.564 129.253 178.927C130.595 190.314 134.978 190.907 145.376 189.681C154.561 188.598 160.951 187.019 164.372 177.538C167.446 169.019 168.414 164.57 167.364 155.658C166.328 146.869 162.442 141.292 158.045 133.785C155.657 129.707 153.78 126.791 148.559 127.406C143.58 127.993 143.462 129.766 139.833 132.149" stroke="#4556EB" stroke-width="2.5" stroke-linecap="round"/>
<path d="M181.348 127.255C183.466 145.224 188.014 162.805 190.123 180.693" stroke="#4556EB" stroke-width="2.5" stroke-linecap="round"/>
<path d="M178.906 127.543C188.301 126.435 198.371 124.444 206.488 130.482C214.675 136.571 220.831 147.138 222.009 157.126C224.268 176.293 205.217 180.151 190.267 181.914" stroke="#4556EB" stroke-width="2.5" stroke-linecap="round"/>
<path d="M-38.5918 187.425C-37.4528 197.088 -32.3236 231.497 -30.6867 239.553L-26.312 239.037C-17.2804 237.972 -4.15309 236.709 3.63154 232.089C11.2072 227.594 26.2255 231.013 34.9089 228.402C43.6868 225.764 51.7577 226.416 60.9422 225.334L131.738 216.989C146.483 215.251 161.574 220.308 176.358 218.565L192.833 216.623C198.105 233.838 199.103 239.197 202.992 256.836C205.432 267.902 205.798 279.837 207.125 291.098L208.218 300.369C208.379 301.733 210.362 297.68 211.941 296.512C218.797 291.446 222.105 278.333 226.131 271.103C231.344 261.743 236.932 252.927 243.362 244.101C256.78 225.683 266.233 203.772 280.598 186.258C288.963 176.059 298.474 167.267 305.7 155.954C309.234 150.422 320.151 134.227 326.87 132.571C329.728 131.866 319.639 124.72 317.58 123.032C307.63 114.87 297.773 109.059 287.036 102.326C272.876 93.4475 260.948 80.4706 248.589 69.3544C228.307 51.1125 205.747 36.3488 181.835 23.3886C167.574 15.6591 164.063 12.7694 165.762 27.1822C166.685 35.0148 165.003 42.5465 163.773 50.5834C161.697 64.1515 169.312 78.6673 169.892 92.0182C170.121 97.2966 158.916 95.9704 153.532 96.6051C140.343 98.1598 126.98 100.56 113.722 101.203C96.1941 102.053 79.4977 101.914 61.9244 103.985C38.6351 106.731 15.5087 104.33 -7.78153 107.075C-20.1955 108.538 -32.2464 111.44 -44.5725 113.121C-45.7042 113.275 -52.2861 112.321 -50.0748 117.187C-49.2733 123.986 -47.5889 131.027 -47.1347 134.881C-46.3632 141.425 -46.3361 148.867 -43.8139 154.997C-39.3156 165.93 -41.5074 174.565 -38.5918 187.425Z" stroke="#4556EB" stroke-width="2.5" stroke-linecap="round"/>
</svg>
