<svg width="548" height="331" viewBox="0 0 548 331" fill="none" xmlns="http://www.w3.org/2000/svg">
<path d="M510.879 53.1904C521.27 69.1282 525.51 75.7801 535.381 92.0761L545.562 114.426C547.716 127.281 541.227 131.212 541.227 140.566C541.227 147.821 538.424 155.693 537.132 162.833C535.749 170.478 536.757 178.252 535.567 185.827C534.865 190.293 531.575 193.97 531.472 198.534C530.963 221.023 534.384 244.592 527.679 266.304C524.11 277.859 519.418 282.401 509.795 288.935C499.008 296.259 481.797 291.366 469.573 293.534C454.117 296.275 440.002 297.406 424.293 297.406C413.28 297.406 404.235 299.076 393.553 301.047L393.283 301.097C383.101 302.977 370.897 302.377 360.708 301.097C339.537 298.438 319.035 297.087 297.665 297.467C265.888 298.032 234.578 304.294 204.396 314.107C192.876 317.852 181.989 322.769 170.857 327.479C168.991 328.269 167.184 329.09 165.137 328.992C152.357 328.38 139.612 327.903 126.721 327.903C119.149 327.903 111.362 327.148 103.84 326.269C94.4345 325.17 85.0853 326.535 75.8411 324.091C54.4881 318.444 38.856 301.204 23.7569 286.03C16.0477 278.283 4.61621 264.852 10.9918 252.75C12.1741 250.506 15.9015 249.384 17.9765 248.152C22.5523 245.434 26.1039 241.745 30.5008 238.833C48.7975 226.714 46.9991 201.512 46.9991 182.499C46.9991 172.079 46.9731 162.409 44.2895 152.244C41.5726 141.953 34.4189 134.623 29.1159 125.741C22.9311 115.382 20.3098 103.16 16.1701 91.9164C13.1342 83.6708 7.60179 77.04 3.88665 69.2859C0.864744 62.9788 2.24477 52.2922 2.80282 45.6873C3.50845 37.3356 6.23196 27.3195 10.1488 19.9103C12.7636 14.9641 13.1624 12.6192 18.8797 13.1938C24.3602 13.7445 29.4838 14.5132 35.0769 14.1619C39.7847 13.8662 43.7491 12.0441 48.5646 12.0441C53.2382 12.0441 57.9938 11.7816 62.6544 12.1046C69.8524 12.6035 75.617 17.4899 82.5247 17.4899C93.0028 17.4899 102.803 18.0601 113.113 19.9103C137.329 24.2559 159.495 37.8553 183.502 43.0249C188.713 44.1471 198.119 48.7804 203.432 46.1108C214.971 40.313 223.683 34.6357 236.911 33.3434C254.176 31.6565 271.545 31.548 288.453 27.0504C305.759 22.4468 322.541 15.4294 339.754 10.3498C351.917 6.7607 363.399 7.15384 375.641 4.41991C388.286 1.59614 401.854 1.51864 414.719 2.78616C423.599 3.661 431.299 7.68741 440.37 7.68741C456.261 7.68741 473.441 9.17985 486.975 18.7001C499.115 27.2402 503.186 41.3905 510.879 53.1904Z" stroke="#4556EB" stroke-width="3" stroke-linecap="round"/>
</svg>
