<svg width="270" height="216" viewBox="0 0 270 216" fill="none" xmlns="http://www.w3.org/2000/svg">
<g clip-path="url(#clip0_472_2724)">
<path d="M107.732 96.3689C107.732 96.3689 107.732 96.3461 107.732 96.3347C109.682 94.3176 111.689 92.2663 113.901 90.762C115.201 89.8731 116.535 88.7334 117.949 87.5255C120.971 84.9385 124.403 81.9983 127.676 81.6678L129.022 81.4741H146.913C152.501 81.4741 156.275 83.9926 160.665 86.9215C162.684 88.2662 164.782 89.6679 167.154 90.8531C170.381 92.4714 174.075 93.1438 177.827 93.1438C184.19 93.1438 190.735 91.195 195.479 88.5967C204.408 83.6963 212.618 79.5481 222.812 78.4997C228.024 77.9641 232.973 78.135 238.207 78.3288C240.772 78.4199 243.418 78.5111 246.075 78.5111C246.862 78.5111 247.5 77.8729 247.5 77.0866C247.5 76.3002 246.862 75.662 246.075 75.662C243.463 75.662 240.852 75.5709 238.309 75.4797C233.212 75.2974 227.944 75.115 222.527 75.6734C211.808 76.7675 203.313 81.0524 194.111 86.1123C186.984 90.0212 175.877 92.0383 168.431 88.3232C166.219 87.2178 164.2 85.873 162.25 84.5738C157.883 81.6564 153.367 78.6478 146.913 78.6478H132.579C132.625 75.8672 132.773 73.0865 132.933 70.3742C133.115 67.2061 133.309 63.9354 133.309 60.6989C133.309 57.8612 133.492 54.9324 133.674 52.1062C133.765 50.7272 133.845 49.3255 133.925 47.9124C134.301 47.9238 134.678 47.9238 135.054 47.9466C136.685 48.015 138.361 48.0719 140.083 47.8782C141.075 47.7642 142.112 47.7984 143.218 47.844C143.88 47.8668 144.53 47.8896 145.18 47.8896C147.13 47.8668 149.091 47.8782 151.041 47.8896H153.994C154.701 47.8896 155.773 47.9466 156.993 48.015C158.624 48.0947 160.46 48.1859 162.125 48.1859C162.878 48.1859 163.585 48.1631 164.234 48.1175C164.588 48.1973 164.919 48.2429 165.238 48.2429C165.614 48.2429 165.968 48.1859 166.298 48.0491C166.834 47.8326 167.781 47.2514 168.009 45.6901C168.214 44.277 168.476 42.6132 168.762 40.8468C169.434 36.5618 170.198 31.7184 170.54 28.2312C170.597 27.6728 170.746 26.7725 170.917 25.7355C171.772 20.6072 172.319 16.5274 171.054 14.6242C167.724 9.62129 164.497 6.82923 158.738 3.95739C157.712 3.44457 152.159 1.2793 149.251 2.63544C142.238 2.58986 135.134 2.22518 128.258 1.8605C123.16 1.58699 117.881 1.31349 112.67 1.16533C111.244 1.13115 109.762 0.914619 108.188 0.698092C103.319 0.0257188 97.7884 -0.74922 94.3218 4.16253C89.7606 10.6355 83.2038 15.4447 76.8522 20.0944C72.4164 23.3423 67.8438 26.7041 63.9097 30.6244C63.3509 31.1828 63.3509 32.0831 63.9097 32.6415C64.1834 32.915 64.5483 33.0632 64.9132 33.0632C65.2552 33.5418 65.7798 33.9749 66.2701 34.3738C66.4982 34.5675 66.7377 34.7498 66.9087 34.9094C68.0034 35.9464 69.3604 36.6302 70.6717 37.2912C71.7664 37.8496 72.8155 38.3738 73.6366 39.0576C76.3619 41.3254 79.2241 43.5819 82.645 46.1346C85.1537 48.015 86.7046 47.7187 88.2098 47.4338C88.8141 47.3198 89.4527 47.2058 90.2509 47.2058H108.69C108.553 48.2657 108.485 49.4965 108.439 50.8868C108.405 51.8783 108.371 52.8127 108.279 53.3028C107.15 59.4909 106.238 68.4255 105.634 77.1663C105.577 77.1663 105.52 77.1321 105.451 77.1321C94.6868 77.1321 90.9123 79.8786 85.1879 84.0496C83.3976 85.3602 81.3679 86.8303 78.8364 88.4258C77.3768 88.8816 76.0312 89.4286 74.7198 89.9528C69.5314 92.0383 66.8973 92.8475 63.8185 88.5739C62.165 86.2719 60.044 85.3032 58.1739 84.4485C56.7485 83.7989 55.4029 83.1835 54.3425 82.0325C51.7767 79.229 47.1015 78.0666 43.6805 77.2119L43.5665 77.1891C42.7683 76.984 41.9358 76.6535 41.0578 76.2888C39.8719 75.7988 38.6403 75.2974 37.3518 75.0922C31.9923 74.2489 26.2907 74.4768 20.783 74.7048C18.2287 74.8073 15.8227 74.9099 13.428 74.9099C12.6412 74.9099 12.0026 75.5481 12.0026 76.3344C12.0026 77.1208 12.6412 77.7589 13.428 77.7589C15.8797 77.7589 18.4226 77.6564 20.897 77.5538C26.2679 77.3373 31.8213 77.1094 36.8956 77.9071C37.8535 78.0552 38.8798 78.4769 39.9631 78.9213C40.8982 79.3088 41.8674 79.6963 42.8595 79.947L42.9735 79.9698C46.041 80.7333 50.2259 81.7818 52.2215 83.9471C53.6697 85.5311 55.3459 86.2947 56.9652 87.0354C58.7327 87.8445 60.2607 88.5397 61.4808 90.2377C63.7957 93.4515 66.2245 94.4885 68.6762 94.4885C71.0252 94.4885 73.4085 93.5312 75.7575 92.5967C77.0575 92.0725 78.4031 91.5369 79.8285 91.0924L80.1706 90.9329C82.8503 89.2463 84.9713 87.7078 86.8414 86.3402C92.4859 82.2376 95.5876 79.9698 105.417 79.9698C105.086 85.5083 104.881 90.8075 104.858 95.1609C103.342 96.7336 101.882 98.215 100.286 99.4914C99.898 99.7991 99.4761 100.118 99.0199 100.449C96.0893 102.603 92.0754 105.554 91.2772 111.902V112.084C91.2772 116.187 92.9991 118.113 94.4587 119.013C95.6674 119.765 97.0814 120.061 98.541 120.061C100.206 120.061 101.928 119.663 103.467 119.081C105.531 120.335 108.382 123.754 110.913 126.819C112.966 129.292 114.905 131.64 116.49 132.928C121.758 137.236 127.528 140.518 132.317 141.931C134.153 142.466 135.749 143.07 137.289 143.652C138.486 144.107 139.672 144.54 140.904 144.928C140.664 145.179 140.516 145.521 140.516 145.885C140.516 147.515 139.889 148.142 139.41 148.472C135.886 150.934 125.281 147.036 121.803 145.76L121.028 145.475C117.687 144.267 114.984 141.862 112.122 139.31C109.02 136.54 105.805 133.68 101.62 132.347C100.867 132.107 100.069 132.518 99.8296 133.27C99.5901 134.022 100.012 134.82 100.753 135.059C104.357 136.198 107.207 138.74 110.218 141.429C112.966 143.879 115.817 146.387 119.329 147.845C119.42 149.27 119.238 151.674 118.006 152.712C116.923 153.635 115.623 153.35 113.582 152.825C112.841 152.632 112.077 152.438 111.313 152.347C108.382 151.982 105.497 149.976 102.703 148.039C101.346 147.093 100.058 146.204 98.7463 145.475C96.7165 144.347 94.4701 143.936 92.2807 143.526C89.6009 143.025 87.058 142.558 85.2335 140.837C83.0555 138.785 80.353 137.931 77.7303 137.11C76.533 136.734 75.4155 136.381 74.3892 135.925C73.1462 135.378 71.9147 135.116 70.7288 134.865C69.3262 134.569 67.992 134.295 66.7605 133.555C63.3737 131.526 57.9344 129.999 54.103 129.999C53.0083 129.999 51.6855 129.896 50.2715 129.782C46.4857 129.486 42.1981 129.156 39.2675 130.489C36.0974 131.925 30.7266 131.469 25.9943 131.07C23.9303 130.899 21.9803 130.728 20.3155 130.728C15.1499 130.728 7.73783 130.364 3.05114 127.241C2.40116 126.808 1.51171 126.979 1.07839 127.64C0.645076 128.29 0.816123 129.178 1.4775 129.611C6.81417 133.167 14.785 133.577 20.3269 133.577C21.8777 133.577 23.7706 133.737 25.7662 133.908C30.852 134.341 36.622 134.831 40.4648 133.076C42.7341 132.05 46.6339 132.347 50.0777 132.609C51.5373 132.723 52.9285 132.825 54.1258 132.825C57.4555 132.825 62.3703 134.204 65.3237 135.971C66.9657 136.962 68.5964 137.292 70.17 137.623C71.2647 137.851 72.3024 138.067 73.2603 138.489C74.4234 139.013 75.6891 139.401 76.9093 139.788C79.3267 140.54 81.6074 141.258 83.3064 142.865C85.7467 145.167 88.8141 145.737 91.7904 146.284C93.8315 146.66 95.7701 147.025 97.3893 147.914C98.5752 148.575 99.8068 149.429 101.107 150.33C102.897 151.572 104.824 152.905 106.877 153.863C106.797 153.851 106.728 153.817 106.649 153.817C105.862 153.817 105.223 154.455 105.223 155.241V206.273C105.223 206.877 105.212 207.493 105.2 208.108C105.178 209.362 105.155 210.661 105.223 211.949C105.269 212.735 105.634 213.419 106.272 213.943C107.242 214.729 108.975 215.128 111.427 215.128C113.057 215.128 115.019 214.957 117.299 214.604C119.386 214.285 121.439 213.533 123.423 212.815C125.909 211.915 128.258 211.06 130.504 211.06C131.622 211.06 132.557 210.627 133.218 209.818C134.997 207.618 134.244 203.208 133.321 198.889C133.195 198.308 133.093 197.806 133.036 197.453C131.793 190.011 131.188 183.276 131.188 176.871C131.188 173.156 131.382 169.487 131.564 165.931C131.747 162.444 131.929 158.843 131.929 155.264C131.929 154.478 131.291 153.84 130.504 153.84C129.717 153.84 129.079 154.478 129.079 155.264C129.079 158.763 128.896 162.17 128.714 165.783C128.531 169.373 128.337 173.088 128.337 176.871C128.337 183.447 128.953 190.33 130.219 197.92C130.287 198.308 130.401 198.855 130.538 199.493C130.96 201.464 132.078 206.718 131.006 208.04C130.949 208.12 130.857 208.234 130.504 208.234C127.756 208.234 125.053 209.214 122.453 210.16C120.515 210.866 118.69 211.527 116.877 211.812C110.526 212.781 108.325 212.063 108.085 211.812C108.017 210.638 108.04 209.396 108.063 208.199C108.074 207.573 108.085 206.934 108.085 206.319V155.287C108.085 154.831 107.857 154.444 107.527 154.182C108.656 154.66 109.807 155.014 111.005 155.162C111.586 155.23 112.236 155.401 112.909 155.572C113.958 155.845 115.121 156.142 116.318 156.142C117.516 156.142 118.747 155.834 119.888 154.865C121.746 153.293 122.18 150.694 122.225 148.894C127.037 150.603 132.021 152.073 135.978 152.073C137.996 152.073 139.752 151.697 141.075 150.763C142.135 150.022 143.401 148.563 143.401 145.84C143.401 145.726 143.367 145.623 143.333 145.521C144.963 145.885 146.719 146.125 148.76 146.125C151.543 146.125 155.739 146.125 157.222 141.543C157.78 139.788 157.7 137.885 157.028 136.404C159.605 136.21 162.193 135.697 163.539 134.706C164.531 133.976 164.748 133.122 164.748 132.54C164.748 126.762 162.273 122.854 157.187 120.597C152.809 118.66 148.726 116.187 145.385 113.509C147.734 113.577 150.129 113.702 152.466 113.839C155.773 114.022 159.183 114.215 162.581 114.215C163.368 114.215 164.006 113.577 164.006 112.791C164.006 112.004 163.368 111.366 162.581 111.366C159.274 111.366 155.899 111.172 152.637 110.99C149.41 110.808 146.069 110.614 142.831 110.614C140.858 110.614 138.19 109.486 136.753 108.05C136.422 107.719 136.103 107.321 135.784 106.899C134.746 105.566 133.446 103.913 130.857 103.913C122.67 103.913 117.333 107.412 111.677 111.104C109.214 112.711 106.683 114.375 103.798 115.822C101.323 117.053 97.9594 117.759 95.9981 116.551C94.7894 115.811 94.1736 114.318 94.1622 112.13C94.835 107.058 98.1191 104.654 100.765 102.705C101.255 102.352 101.711 102.01 102.122 101.679L107.755 96.3233L107.732 96.3689ZM168.67 16.1855C169.412 17.3023 168.454 23.0688 168.1 25.2454C167.918 26.3395 167.758 27.2739 167.701 27.9235C167.359 31.331 166.606 36.1402 165.945 40.3795C165.671 42.089 165.42 43.7072 165.215 45.0975C164.976 45.1545 164.702 45.1887 164.383 45.2229C162.079 44.3682 157.165 40.4137 154.622 38.3396C152.455 36.596 150.665 35.1487 149.353 34.3396C149.376 32.7213 149.456 31.7412 149.673 29.4392C150.026 25.4847 150.38 21.2568 150.38 16.7325V5.47308C150.459 5.47308 150.562 5.47308 150.653 5.47308C151.075 5.47308 151.44 5.27935 151.702 4.99445C153.276 5.05143 155.819 5.65542 157.472 6.47595C162.798 9.13125 165.626 11.5814 168.682 16.1741L168.67 16.1855ZM78.5285 22.3736C85.0625 17.5872 91.8132 12.6413 96.6367 5.78078C99.0998 2.29356 103.114 2.85197 107.778 3.49015C109.363 3.70668 110.993 3.9346 112.578 3.98019C117.755 4.12834 123.012 4.40184 128.098 4.67535C134.461 5.01724 140.995 5.34773 147.517 5.4389V16.7211C147.517 21.1314 147.175 25.291 146.822 29.1771C146.639 31.1714 146.548 32.2199 146.514 33.5532C142.626 32.3794 139.855 32.3908 132.26 32.425C130.869 32.425 129.307 32.4364 127.539 32.4364H103.684C99.6585 32.4364 95.6218 32.0603 91.7219 31.6957C88.0501 31.3538 84.2415 31.0005 80.4328 30.9435L78.4715 30.9207C74.9821 30.8865 71.6752 30.8523 68.2771 30.4307C71.5042 27.5475 75.0733 24.9263 78.5513 22.3736H78.5285ZM90.2509 44.3454C89.1904 44.3454 88.358 44.5049 87.6852 44.6303C86.3853 44.8696 85.8493 44.9722 84.3555 43.844C80.9802 41.314 78.1522 39.0918 75.4611 36.8581C74.3778 35.9578 73.1462 35.331 71.9489 34.7384C71.1279 34.3282 70.3411 33.9293 69.6683 33.4621C72.5875 33.7242 75.4383 33.747 78.4145 33.7698L80.3644 33.7925C84.0704 33.8381 87.8107 34.1914 91.4254 34.5219C95.3937 34.898 99.4989 35.274 103.65 35.274H127.505C129.272 35.274 130.835 35.2741 132.237 35.2627C140.812 35.2285 142.842 35.2171 147.403 36.8467L148.601 37.2798C149.741 38.0889 151.281 39.3311 152.786 40.5505C155.044 42.3739 157.039 43.9579 158.818 45.2115C158.225 45.1887 157.643 45.1545 157.108 45.1317C155.842 45.0634 154.747 45.0064 153.96 45.0064H151.018C149.057 44.995 147.084 44.9836 145.111 45.0064C144.518 45.0064 143.903 44.9836 143.298 44.9608C142.135 44.9152 140.938 44.8696 139.729 45.0064C138.235 45.1773 136.73 45.1203 135.145 45.0634C134.769 45.052 134.392 45.0406 134.005 45.0292C134.016 44.4024 134.028 43.7756 134.028 43.1488C134.028 42.6018 133.8 42.0776 133.378 41.6787C132.078 40.4479 128.737 40.1516 120.595 40.5505C119.979 40.5847 119.523 40.6075 119.306 40.6075H118.565C114.357 40.5847 113.034 40.7328 109.933 43.844C109.785 43.9921 109.659 44.1517 109.545 44.334H90.2395L90.2509 44.3454ZM127.391 78.8302C123.229 79.2404 119.443 82.4883 116.102 85.3602C114.745 86.5226 113.468 87.6166 112.305 88.403C110.674 89.5084 109.203 90.8417 107.789 92.2321C108.04 80.4256 109.306 63.6163 111.084 53.8156C111.21 53.109 111.244 52.129 111.29 50.9894C111.324 49.9295 111.404 47.787 111.689 46.6018C111.837 46.3967 111.928 46.1688 111.951 45.9067C111.951 45.9067 111.963 45.8725 111.974 45.8725C114.38 43.4679 114.847 43.4679 118.588 43.4793H119.329C119.568 43.4793 120.082 43.4565 120.766 43.4223C127.687 43.0804 130.299 43.3425 131.2 43.673C131.177 46.4195 131.006 49.2116 130.823 51.9124C130.641 54.7843 130.447 57.7587 130.447 60.6875C130.447 63.8328 130.265 67.0693 130.082 70.1919C129.922 72.9498 129.763 75.7874 129.729 78.6364L127.391 78.8416V78.8302ZM133.514 108.7C133.879 109.167 134.267 109.657 134.723 110.113C136.228 111.617 138.577 112.802 140.812 113.281C140.869 113.361 140.915 113.452 140.983 113.531C144.895 117.224 150.243 120.677 156.024 123.241C160.038 125.019 161.851 127.856 161.885 132.426C160.7 133.6 152.9 134.045 151.018 133.452C149.775 133.065 148.555 132.7 147.369 132.358C143.572 131.241 139.991 130.181 136.354 128.369C134.073 127.23 127.995 124.187 125.646 121.258C124.346 119.64 118.964 114.409 115.395 112.118C120.047 109.144 124.472 106.808 130.823 106.808C131.964 106.808 132.522 107.457 133.492 108.7H133.514ZM154.508 140.7C153.732 143.127 151.816 143.31 148.772 143.31C144.553 143.31 141.668 142.227 138.327 140.973C136.742 140.381 135.099 139.765 133.161 139.196C128.725 137.896 123.32 134.808 118.337 130.728C116.968 129.611 115.121 127.378 113.16 125.007C110.891 122.272 108.564 119.469 106.432 117.691C108.701 116.472 110.754 115.161 112.727 113.873C114.962 114.683 121.689 120.836 123.445 123.036C125.874 126.067 130.949 128.837 135.099 130.911C138.965 132.837 142.66 133.931 146.582 135.082C147.757 135.424 148.954 135.777 150.186 136.164C150.71 136.324 151.737 136.449 153.014 136.506C153.208 136.654 153.436 136.78 153.698 136.814C153.972 136.848 154.2 137.167 154.28 137.304C154.724 137.999 154.964 139.321 154.519 140.711L154.508 140.7Z" fill="#82C0FF"/>
<path d="M269.223 123.56C268.573 123.127 267.683 123.298 267.25 123.959C264.798 127.64 258.949 129.03 253.669 130.056C249.997 130.762 246.211 131.309 242.551 131.845C239.233 132.323 235.8 132.825 232.425 133.44C231.695 133.577 230.954 133.714 230.201 133.862C223.519 135.127 216.609 136.449 210.269 134.557C205.32 133.075 200.291 132.038 195.98 131.172C192.97 130.568 189.811 130.648 186.767 130.728C185.786 130.751 184.805 130.773 183.848 130.773C182.525 130.773 181.213 130.432 179.822 130.067C178.351 129.679 176.835 129.281 175.227 129.281C173.072 129.281 171.669 130.489 170.437 131.548C169.673 132.209 168.944 132.836 168.134 133.064C166.88 133.417 165.796 133.987 164.747 134.523C163.231 135.309 161.919 135.982 160.323 135.982C159.536 135.982 158.897 136.62 158.897 137.406C158.897 138.192 159.536 138.831 160.323 138.831C162.615 138.831 164.439 137.885 166.059 137.053C167.028 136.551 167.94 136.084 168.921 135.799C170.335 135.4 171.372 134.5 172.296 133.702C173.436 132.722 174.189 132.13 175.238 132.13C176.481 132.13 177.758 132.46 179.104 132.813C180.609 133.212 182.16 133.611 183.848 133.611C184.828 133.611 185.832 133.588 186.835 133.566C189.72 133.497 192.719 133.417 195.41 133.964C199.664 134.819 204.613 135.845 209.448 137.281C216.461 139.366 224.044 137.93 230.726 136.654C231.467 136.517 232.197 136.369 232.927 136.244C236.245 135.628 239.654 135.138 242.939 134.66C246.622 134.124 250.442 133.566 254.182 132.848C260.032 131.719 266.532 130.124 269.588 125.531C270.021 124.882 269.85 123.993 269.189 123.56H269.223Z" fill="#82C0FF"/>
</g>
<defs>
<clipPath id="clip0_472_2724">
<rect width="269" height="215" fill="white" transform="translate(0.861328 0.173828)"/>
</clipPath>
</defs>
</svg>
