<?xml version="1.0" encoding="UTF-8" standalone="no"?>
<svg
   width="317"
   height="204"
   viewBox="0 0 317 204"
   fill="none"
   version="1.1"
   id="svg13"
   sodipodi:docname="5.svg"
   inkscape:version="1.4 (e7c3feb100, 2024-10-09)"
   xmlns:inkscape="http://www.inkscape.org/namespaces/inkscape"
   xmlns:sodipodi="http://sodipodi.sourceforge.net/DTD/sodipodi-0.dtd"
   xmlns="http://www.w3.org/2000/svg"
   xmlns:svg="http://www.w3.org/2000/svg">
  <sodipodi:namedview
     id="namedview13"
     pagecolor="#ffffff"
     bordercolor="#000000"
     borderopacity="0.25"
     inkscape:showpageshadow="2"
     inkscape:pageopacity="0.0"
     inkscape:pagecheckerboard="0"
     inkscape:deskcolor="#d1d1d1"
     inkscape:zoom="3.8422713"
     inkscape:cx="158.5"
     inkscape:cy="102.02299"
     inkscape:window-width="1920"
     inkscape:window-height="1011"
     inkscape:window-x="0"
     inkscape:window-y="0"
     inkscape:window-maximized="1"
     inkscape:current-layer="svg13" />
  <g
     clip-path="url(#clip0_472_2729)"
     id="g13"
     transform="matrix(-1,0,0,1,317.91626,0)">
    <path
       d="m 278.803,35.3186 c 0.28,0.12 0.57,0.17 0.86,0.17 0.85,0 1.68,-0.44 2.21,-0.96 0.49,-0.49 0.64,-1.2 0.39,-1.84 -0.43,-1.12 -1.92,-1.6 -2.76,-1.64 -0.92,-0.06 -1.69,0.36 -2.05,1.08 -0.24,0.48 -0.2,1.03 0.06,1.45 0.11,0.81 0.58,1.44 1.29,1.74 z"
       fill="#34af42"
       id="path1" />
    <path
       d="m 284.963,44.6089 c -0.83,0 -1.5,0.67 -1.5,1.5 0,0.24 0.06,0.46 0.15,0.66 -0.02,0.7 0.06,1.32 0.5,1.81 0.3,0.34 0.71,0.54 1.15,0.56 0.08,0 0.16,0 0.24,0 1.13,0 1.75,-0.48 2.32,-1.19 0.77,-0.96 0.49,-1.81 0.33,-2.13 -0.62,-1.26 -2.31,-1.24 -3.2,-1.23 z"
       fill="#34af42"
       id="path2" />
    <path
       d="m 24.0931,126.608 c 0,-3.26 -0.27,-4.91 -2.81,-7.03 -1.49,-1.24 -3.53,-1.53 -5.21,-0.74 -1.35,0.63 -2.22,1.83 -2.39,3.27 -0.3,0.23 -0.5,0.59 -0.5,1 v 3.5 c 0,1.58 1.31,2.25 2.1,2.65 0.26,0.13 0.53,0.27 0.65,0.38 0.97,0.86 2.24,1.31 3.51,1.31 0.72,0 1.45,-0.15 2.12,-0.45 1.58,-0.71 2.52,-2.17 2.52,-3.9 z m -3.54,1.62 c -0.94,0.42 -2.18,0.23 -2.95,-0.45 -0.37,-0.33 -0.8,-0.55 -1.18,-0.74 -0.25,-0.13 -0.67,-0.34 -0.73,-0.43 v -3 c 0.28,-0.23 0.47,-0.58 0.47,-0.97 0,-0.94 0.61,-1.37 0.98,-1.54 0.8,-0.38 1.81,-0.22 2.55,0.4 1.75,1.46 1.91,2.22 1.91,5.11 0,0.95 -0.57,1.41 -1.04,1.62 z"
       fill="#34af42"
       id="path3" />
    <path
       d="m 148.493,179.299 c -1.1,0 -3.08,0.36 -3.87,2.75 -0.97,2.88 -0.72,4.3 0.06,5.92 l 0.08,0.14 c 1.11,1.68 4.81,4.43 6.3,4.43 1.75,0 2.53,-0.4 3.73,-1 l 0.33,-0.17 c 2.73,-1.37 2.86,-6.8 1.88,-9 -1.27,-2.86 -6.84,-3.08 -8.51,-3.08 z m 5.51,9.84 -0.34,0.17 c -1.06,0.54 -1.43,0.72 -2.53,0.73 -0.7,-0.2 -3.33,-1.93 -4.25,-3.25 -0.45,-0.94 -0.65,-1.72 0.1,-3.95 0.21,-0.64 0.54,-1.04 1.5,-1.04 3.04,0 5.84,0.71 6.23,1.59 0.71,1.61 0.26,5.26 -0.71,5.74 z"
       fill="#34af42"
       id="path4" />
    <path
       d="m 316.883,51.9787 c -0.16,-0.6 -0.59,-1.06 -1.23,-1.28 -1.39,-0.5 -2.74,-1.3 -4.16,-2.14 -1.89,-1.12 -3.84,-2.29 -6.04,-2.78 -0.82,-0.18 -1.45,-0.72 -2.18,-1.34 -0.6,-0.5 -1.21,-1.02 -2,-1.42 -0.52,-0.26 -1.03,-0.69 -1.56,-1.14 -0.16,-0.13 -0.32,-0.26 -0.49,-0.4 0.11,-0.03 0.22,-0.05 0.33,-0.07 1.46,-0.34 2.83,-0.66 4.22,-0.66 2.56,0 5.9,-0.8 8.26,-1.48 0.27,-0.08 0.61,-0.13 0.97,-0.19 0.44,-0.07 0.9,-0.14 1.36,-0.28 1.41,-0.4 1.39,-2.18 1.19,-5.07 -0.01,-0.2 -0.02,-0.34 -0.03,-0.41 0,-0.32 -0.02,-7.92 -2.02,-9.22 -0.49,-0.32 -1.07,-0.36 -1.61,-0.13 -0.99,0.44 -2.13,0.59 -3.34,0.76 -1.29,0.17 -2.63,0.35 -3.87,0.9 -1.67,0.74 -3.96,0.87 -6.17,1 -1.63,0.09 -3.31,0.19 -4.81,0.53 -2.38,0.54 -5.9,1.27 -9.06,1.27 -3.99,0 -8.04,-0.12 -11.95,-0.23 -2.6,-0.08 -5.27,-0.14 -7.95,-0.18 1.4,-0.8 2.78,-1.64 3.84,-2.49 0.33,-0.26 0.77,-0.46 1.24,-0.67 0.63,-0.28 1.34,-0.59 1.95,-1.14 0.64,-0.58 1.93,-0.96 3.06,-1.31 0.47,-0.14 0.92,-0.28 1.31,-0.42 1.45,-0.53 3.07,-1.54 4.5,-2.44 l 0.76,-0.47 c 2.05,-1.26 4.24,-2.28 6.56,-3.36 2.61,-1.22 5.32,-2.48 7.85,-4.13 0.26,-0.17 0.5,-0.31 0.73,-0.45 0.88,-0.53 1.8,-1.08 1.99,-2.15999 0.19,-1.04 -0.45,-2 -1.03,-2.72 -0.27,-0.34 -0.5,-0.74 -0.74,-1.16 -0.36,-0.63 -0.74,-1.29 -1.32,-1.87 -0.28,-0.28 -0.51,-0.55 -0.72,-0.79 -0.86,-0.99 -1.74,-2.009999 -4.03,-2.009999 -1.49,0 -2.72,0.41 -3.91,0.809999 -0.59,0.2 -1.16,0.38 -1.75,0.52 -0.45,0.11 -0.92,0.2 -1.38,0.29 -1.64,0.32 -3.33,0.66 -4.87,1.64 -1.36,0.86 -2.58,1.85 -3.77,2.81 -1.19,0.96 -2.32,1.87 -3.54,2.63 -2.29,1.43999 -4.47,2.94999 -6.3,4.37999 -0.77,0.6 -2.1,0.55 -3.41,0.5 -0.38,-0.13 -0.76,-0.2 -1.13,-0.2 -0.23,0 -0.43,0.08 -0.61,0.18 -4.41,0.17 -6.47,2.45 -8.15,5.81 -1.72,3.44 -5.33,5.46 -9.15,7.59 -2.64,1.48 -5.37,3 -7.43,5.06 -1.06,1.06 -2.19,2.13 -3.29,3.16 -1.12,1.06 -2.29,2.16 -3.46,3.32 l -5.77,5.77 c -3.28,3.28 -3.24,6.08 -3.18,9.96 0,0.53 0.02,1.08 0.02,1.67 0,0.1 0.03,0.18 0.05,0.27 -0.41,0.25 -0.81,0.51 -1.21,0.82 -1.21,0.94 -2.14,2.06 -3.05,3.13 -0.72,0.86 -1.4,1.67 -2.16,2.33 -1.53,1.31 -1.95,3.47 -2.32,5.37 -0.19,0.96 -0.37,1.87 -0.65,2.52 -1.19,2.69 -1.19,5.1 -0.59,7.34 -3.59,2.22 -11.13,9.13 -11.63,9.64 -1.76,1.76 -2.88,3.87 -3.95,5.91 -1.17,2.22 -2.28,4.32 -4.13,5.84 -1.61,1.3103 -2.99,2.7903 -4.32,4.2103 -0.43,0.45 -0.85,0.91 -1.29,1.36 -1.37,1.42 -2.42,3.07 -3.44,4.66 -0.96,1.5 -1.87,2.92 -3,4.12 -4.31,4.58 -7.07,8.25 -8.43,11.24 -0.94,2.08 -2.47,3.88 -4.08,5.79 -1.71,2.01 -3.47,4.1 -4.54,6.58 -2.14,4.95 -4.65,9.56 -7.32,14.45 l -0.13,0.23 c -2.06,3.77 -2.91,5.54 -3.86,9.5 -1.47,-0.53 -4.36,-1.85 -6.16,-2.84 l -8.09,-4.42 -0.88,-0.49 c -3.2,-1.78 -6.51,-3.63 -9.9,-4.96 -0.22,-0.08 -0.49,-0.26 -0.78,-0.45 -0.62,-0.39 -1.38,-0.88 -2.3,-0.93 -0.55,-0.03 -1.05,-0.27 -1.54,-0.73 -0.24,-0.23 -0.47,-0.53 -0.7,-0.84 -0.62,-0.82 -1.45,-1.93 -3.07,-2.13 l -33.2498,-17.17 -39.8501,-17.01 c -0.48,-0.25 -1.32,-1.16 -2.14,-2.04 -1.39,-1.5 -3.12,-3.36 -5.05,-4.26 -0.1,-0.05 -0.21,-0.06 -0.31,-0.08 -1.21,-1.39 -2.82,-2.61 -4.81,-3.5903 -4.61,-2.27 -10.17,-2.67 -13.83,-1.01 -2.73,1.24 -4.53,3.2203 -6.27,5.1303 -0.58,0.64 -1.16996,1.28 -1.79996,1.92 -1.91,1.91 -3.46,4.17 -5.04,7.31 -1.63,3.27 -1.75,6.78 -1.86,10.18 l -0.03,0.97 c -0.02,0.63 -0.21,1.26 -0.41,1.92 -0.25,0.81 -0.519995,1.74 -0.519995,2.79 v 5.24 c 0,2.18 2.269995,4.44 4.469995,6.62 1.12,1.11 2.27,2.26 2.66,2.99 1.36,2.57 5.25996,2.98 8.97996,3.01 2.82,1.63 15.37,8.42 18.13,9.21 l 0.2,0.06 c 4.06,1.16 14.84,4.24 18.23,6.46 l 9.68,3.79 20.5701,9.72 21.3098,6.69 0.24,0.05 c 1.75,0.2 3.24,0.92 4.81,1.68 1.13,0.55 2.31,1.12 3.6,1.5 0.74,0.21 1.5,0.73 2.3,1.27 0.84,0.57 1.7,1.16 2.71,1.53 1.28,0.46 2.52,0.81 3.72,1.14 1.91,0.53 3.71,1.03 5.53,1.96 1.17,0.6 2.25,1.33 3.4,2.11 1.24,0.85 2.52,1.72 3.93,2.39 l 0.42,0.19 c 1.42,0.63 2.79,1.61 4.24,2.65 2.69,1.92 5.73,4.1 9.58,4.1 1.43,0 2.82,-0.26 4.16,-0.51 1.18,-0.22 2.3,-0.43 3.31,-0.43 3.52,0 5.77,-1.76 7.95,-3.46 0.87,-0.68 1.76,-1.38 2.74,-1.96 1.15,-0.69 2.35,-1.97 3.66,-3.9 0.48,-0.71 1.1,-1.39 1.75,-2.11 0.9,-0.99 1.83,-2.02 2.47,-3.22 0.65,-1.21 1,-2.99 1.31,-4.57 0.08,-0.41 0.16,-0.8 0.23,-1.15 0.04,-0.18 0.09,-0.37 0.13,-0.55 0.2,-0.83 0.41,-1.73 0.32,-2.7 0.06,-0.04 0.12,-0.06 0.17,-0.11 5.79,-5.79 10.47,-13.03 14.99,-20.03 0.91,-1.41 1.81,-2.81 2.71,-4.17 2.3,-3.49 4.89,-6.83 7.4,-10.05 1,-1.28 2,-2.57 2.99,-3.87 1.01,-1.33 1.83,-2.74 2.62,-4.1 0.63,-1.08 1.22,-2.1 1.9,-3.08 1.49,-2.15 2.8,-4.46 4.07,-6.69 0.88,-1.54 1.79,-3.14 2.73,-4.64 0.45,-0.72 0.81,-1.47 1.15,-2.2 0.49,-1.03 0.95,-2.01 1.63,-2.76 2.75,-3.06 6.06,-7.08 7.2,-11.08 0.14,-0.49 0.7,-1.29 1.2,-2 0.53,-0.75 1.07,-1.53 1.42,-2.3 0.3,-0.67 0.91,-2.1303 1.55,-3.6903 0.99,1.03 2.31,1.9 3.76,2.8503 0.43,0.28 0.88,0.58 1.35,0.89 1.02,0.69 1.9,1.34 2.67,1.92 2.31,1.72 3.98,2.97 6.44,2.97 1.73,0 3.28,-0.38 4.79,-0.74 1.29,-0.31 2.51,-0.61 3.77,-0.66 2.84,-0.11 6.17,-2.02 8,-3.84 0.11,-0.11 0.65,-0.02 1.62,0.26 0.52,0.15 1.02,0.29 1.49,0.31 0.29,0.01 0.6,0.03 0.91,0.04 1.38,0.07 2.96,0.15 4.35,-0.08 3.02,-0.5 5.3,-2.4003 7.3,-4.0803 0.34,-0.29 0.68,-0.56 1,-0.83 1.13,-0.91 2.14,-1.98 3.1,-3.09 0.67,-0.14 1.17,-0.72 1.2,-1.42 0.22,-0.27 0.43,-0.53 0.65,-0.8 1.98,-2.45 3.84,-4.77 6.32,-6.15 3.3,-1.83 5.42,-6.26 7.12,-9.81 0.27,-0.56 0.52,-1.08 0.76,-1.57 0.82,-1.63 0.44,-2.87 -0.02,-3.62 -1.02,-1.65 -3.41,-2.4 -5.19,-2.4 -2.78,0 -5.23,3.81 -7.19,6.87 -0.66,1.02 -1.28,1.99 -1.66,2.39 -0.24,0.26 -0.5,0.51 -0.75,0.76 -0.9,0.9 -1.82,1.82 -2.47,3 -0.26,0.46 -0.73,0.88 -1.23,1.32 -0.28,0.25 -0.56,0.51 -0.83,0.79 -0.17,0.02 -0.34,0.06 -0.5,0.15 -0.2,0.1 -0.36,0.24 -0.49,0.4 -0.92,0.09 -2.46,-0.06 -3.15,-0.14 -0.63,-0.06 -1.18,-0.12 -1.61,-0.12 h -0.57 c -1.32,-0.02 -2.56,-0.03 -3.96,0.72 -0.52,0.27 -1.05,0.76 -1.61,1.28 -0.44,0.4 -1.23,1.13 -1.6,1.26 -0.84,-0.2 -1.64,-0.58 -2.5,-0.97 -1.41,-0.66 -2.87,-1.34 -4.69,-1.34 -0.86,0 -1.24,-0.22 -1.99,-0.65 -0.29,-0.16 -0.59,-0.34 -0.95,-0.52 -1.65,-0.82 -3.03,-1.14 -5.02,-1.17 0.4,-0.95 0.78,-1.9 1.15,-2.85 0.25,-0.63 0.49,-1.25 0.74,-1.87 1.01,-2.5 1.31,-5.42 0.81,-8.15 0.75,-0.5 1.4,-1.19 2.03,-1.87 0.24,-0.27 0.49,-0.53 0.73,-0.77 l 0.12,-0.12 c 1.16,-1.16 2.48,-2.48 2.48,-4.61 0,-1.17 0.17,-1.38 0.18,-1.38 0.2,-0.17 1.44,-0.17 1.84,-0.17 h 6.77 c 0.35,0 0.73,0 1.14,0.02 2.09,0.05 4.7,0.11 6.47,-0.88 0.77,-0.43 1.84,-0.62 2.87,-0.8 0.42,-0.08 0.83,-0.15 1.23,-0.24 0.74,-0.16 1.44,-0.44 2.11,-0.71 0.71,-0.29 1.38,-0.56 2,-0.64 1.21,-0.17 2.14,-0.64 2.96,-1.05 1.33,-0.67 1.91,-0.91 3.03,-0.29 0.98,0.55 2.07,1.01 3.12,1.46 0.78,0.33 1.58,0.67 2.3,1.04 2.16,1.08 5.09,1.91 7.93,2.64 0.42,0.11 1.01,0.36 1.63,0.63 2.05,0.89 4.87,2.09 6.73,0.24 0.75,-0.75 2.13,-2.25 3.02,-3.93 0.14,-0.26 0.68,-0.88 1.11,-1.38 1.39,-1.59 2.69,-3.09 2.33,-4.47 z m -35.71,32.37 c 0.61,-0.54 1.29,-1.14 1.76,-1.98 0.48,-0.87 1.25,-1.63 2.06,-2.44 0.27,-0.27 0.53,-0.53 0.79,-0.81 0.55,-0.58 1.17,-1.54 1.95,-2.77 1.28,-2 3.67,-5.72 5.08,-5.72 1.12,0 2.62,0.49 3.07,1.21 0.08,0.12 0.28,0.45 -0.09,1.18 -0.25,0.5 -0.51,1.04 -0.78,1.61 -1.47,3.06 -3.48,7.26 -6.08,8.71 -2.45,1.36 -4.32,3.43 -6.07,5.56 -0.11,-0.48 -0.25,-0.91 -0.41,-1.29 -0.02,-0.08 -0.02,-0.16 -0.03,-0.25 -0.04,-0.42 -0.1,-1.04 -0.57,-1.62 -0.1,-0.12 -0.39,-0.43 -0.74,-0.77 -0.08,-0.08 -0.19,-0.19 -0.3,-0.3 0.12,-0.11 0.23,-0.21 0.36,-0.33 z m 2.49,-44.76 c 0.11,-0.13 0.23,-0.26 0.37,-0.4 0.66,-0.66 0.93,-1.62 1.15,-2.55 0.02,-0.1 0.11,-0.28 0.2,-0.45 0.21,-0.41 0.46,-0.92 0.46,-1.57 0,-1.16 -0.12,-2.11 -0.39,-3.09 -0.03,-0.11 -0.04,-0.23 -0.04,-0.41 0,-0.06 0,-0.14 0,-0.21 3.2,-0.1 6.57,-0.78 8.89,-1.31 1.29,-0.3 2.8,-0.38 4.4,-0.47 2.44,-0.14 4.96,-0.28 7.04,-1.21 0.91,-0.41 2.02,-0.55 3.19,-0.71 1.1,-0.15 2.24,-0.3 3.34,-0.68 0.46,1.37 0.8,5.06 0.8,6.79 0,0.09 0.01,0.3 0.03,0.58 0.1,1.43 0.1,2.2 0.07,2.62 -0.17,0.03 -0.34,0.06 -0.52,0.09 -0.42,0.07 -0.85,0.14 -1.26,0.25 -3.11,0.89 -5.8,1.38 -7.57,1.38 -1.68,0 -3.26,0.37 -4.79,0.73 -1.48,0.35 -2.88,0.67 -4.32,0.67 h -6.04 c -0.44,-0.16 -0.91,-0.24 -1.37,-0.24 -0.3,0 -0.58,0.09 -0.81,0.24 h -2.86 c 0,0 0.03,-0.03 0.05,-0.05 z m -8.22,-7.03 c 0.19,-0.26 0.3,-0.52 0.39,-0.74 0.03,-0.07 0.06,-0.15 0.09,-0.21 0.2,-0.12 0.66,-0.43 1.04,-0.8 1.97,0.05 3.94,0.08 5.92,0.1 0,0 0,0.02 0.01,0.02 0,0.04 0,0.15 0.01,0.24 0,0.26 0.01,0.61 0.13,1.03 0.21,0.76 0.3,1.48 0.3,2.41 0,0.08 -0.12,0.31 -0.2,0.46 -0.14,0.28 -0.3,0.6 -0.39,0.99 -0.07,0.31 -0.27,1.14 -0.48,1.36 -0.18,0.18 -0.33,0.35 -0.48,0.52 -0.15,0.17 -0.29,0.34 -0.5,0.52 -0.09,0.09 -0.2,0.16 -0.31,0.24 -0.24,0.17 -0.54,0.38 -0.79,0.68 -0.32,0.16 -1.36,0.16 -1.75,-0.02 -0.77,-0.34 -1.08,-0.69 -1.69,-1.38 l -0.35,-0.39 c -0.09,-0.1 -0.21,-0.43 -0.21,-0.84 0,-0.47 -0.15,-0.86 -0.28,-1.18 -0.04,-0.1 -0.1,-0.25 -0.11,-0.28 0,-0.35 -0.08,-0.75 -0.17,-1.22 -0.08,-0.4 -0.23,-1.21 -0.19,-1.53 z m -2.8,-1.86 c 0.31,0 0.63,0.02 0.95,0.03 -0.02,0.04 -0.04,0.08 -0.05,0.12 -0.04,0.09 -0.07,0.18 -0.11,0.25 -0.73,0.92 -0.47,2.27 -0.25,3.47 0.05,0.27 0.12,0.63 0.12,0.75 0,0.48 0.16,0.9 0.28,1.2 0.04,0.1 0.1,0.24 0.1,0.26 0,0.98 0.32,1.91 0.86,2.51 l 0.33,0.37 h -2.97 c -0.9,-0.02 -1.93,-0.04 -3,0.5 -1.23,0.62 -2.43,1.28 -3.59,1.92 -1.39,0.77 -2.83,1.56 -4.33,2.27 -0.73,0.35 -1.61,0.47 -2.54,0.6 -1.49,0.21 -3.17,0.44 -4.45,1.72 -1.99,1.99 -3.71,4.45 -4.82,6.91 -0.3,0.65 -0.69,1.35 -1.11,2.1 -0.85,1.52 -1.78,3.19 -2.13,4.94 -0.41,-0.16 -0.83,-0.31 -1.28,-0.47 -1.18,-0.4 -2.65,-0.9 -3.17,-1.56 -0.56,-0.7 -2.02,-1.62 -3.51,-2.35 0.79,-1.61 1.49,-3.23 2.16,-4.8 1.71,-4 3.32,-7.78 6.42,-11.06 3.75,-3.98 8.85,-7.09 13.87,-9.92 0.06,0 0.11,0.03 0.16,0.03 4.04,0 8.11,0.12 12.05,0.23 z m -5.91,-15.23 c 1.77,-1.38 3.88,-2.84 6.1,-4.24 1.34,-0.84 2.58,-1.83999 3.78,-2.80999 1.13,-0.91 2.31,-1.86 3.54,-2.65 1.14,-0.73 2.54,-1 4.02,-1.29 0.49,-0.1 0.98,-0.19 1.46,-0.31 0.71,-0.17 1.35,-0.38 1.97,-0.59 1.09,-0.36 2.04,-0.68 3.12,-0.68 1.14,0 1.39,0.29 2.14,1.15 0.25,0.29 0.52,0.6 0.85,0.92 0.35,0.35 0.62,0.83 0.92,1.34 0.28,0.49 0.57,0.99 0.96,1.49 0.27,0.34 0.4,0.56 0.46,0.68 -0.18,0.14 -0.51,0.34 -0.76,0.49 -0.25,0.15 -0.52,0.31 -0.81,0.5 -2.38,1.55999 -5,2.77999 -7.53,3.95999 -2.28,1.06 -4.64,2.16 -6.81,3.5 l -0.78,0.48 c -1.26,0.79 -2.83,1.77 -4.03,2.21 -0.35,0.13 -0.75,0.25 -1.17,0.38 -1.38,0.42 -2.95,0.89 -4.01,1.84 -0.32,0.29 -0.79,0.49 -1.29,0.72 -0.57,0.25 -1.21,0.54 -1.79,1 -0.52,0.41 -1.14,0.84 -1.81,1.26 0.13,-0.29 0.24,-0.59 0.31,-0.93 0.25,-1.13 0.23,-2.27 0.22,-3.36 0,-0.26 0,-0.51 0,-0.77 0,-1.03 -0.62,-2.45 -1.19,-3.4 0.76,-0.14 1.5,-0.4 2.15,-0.91 z m -12.6,5.43 c 1.66,-3.33 3.29,-4.45 6.46,-4.45 0.21,0 0.43,0.01 0.66,0.02 0.31,0.16 0.64,0.42 0.9,0.74 0.48,0.6 1.12,2.06 1.12,2.55 0,0.27 0,0.54 0,0.8 0.01,1 0.03,1.94 -0.16,2.78 -0.2,0.89 -0.91,1.59 -1.67,2.33 l -0.28,0.28 c -2.87,2.87 -4.02,1.95 -4.46,1.6 -0.48,-0.39 -1.37,-1.45 -1.72,-2.07 -0.2,-0.35 -0.46,-0.63 -0.68,-0.87 -0.16,-0.17 -0.3,-0.33 -0.37,-0.46 -0.18,-0.32 -0.16,-0.9 -0.14,-1.46 0,-0.18 0.01,-0.36 0.01,-0.53 0,-0.19 -0.05,-0.36 -0.12,-0.52 0.15,-0.25 0.32,-0.49 0.45,-0.76 z m -29.56,25.55 5.81,-5.81 c 1.1,-1.1 2.25,-2.18 3.36,-3.23 1.1,-1.04 2.25,-2.12 3.34,-3.21 1.82,-1.81 4.28,-3.19 6.89,-4.65 2.64,-1.47 5.33,-3 7.45,-5.05 0.07,0.3 0.17,0.6 0.33,0.89 0.21,0.39 0.48,0.68 0.72,0.94 0.14,0.15 0.29,0.31 0.35,0.42 0.46,0.8 1.52,2.13 2.33,2.78 0.26,0.21 0.57,0.39 0.89,0.55 -4.12,2.45 -8.12,5.19 -11.3,8.56 -3.4,3.6 -5.18,7.77 -6.9,11.8 -0.59,1.38 -1.21,2.8 -1.87,4.19 -0.04,0 -0.08,-0.03 -0.13,-0.03 -1.07,0 -2.15,-0.04 -3.23,-0.08 -3.54,-0.13 -7.16,-0.25 -10.47,0.91 0,-0.27 0,-0.56 0,-0.82 -0.05,-3.62 -0.08,-5.62 2.45,-8.15 z m -68.94,106.8803 0.13,-0.23 c 2.69,-4.94 5.24,-9.61 7.42,-14.66 0.92,-2.14 2.49,-4 4.15,-5.96 1.65,-1.96 3.37,-3.98 4.45,-6.37 1.23,-2.7 3.91,-6.25 7.97,-10.56 1.29,-1.37 2.31,-2.96 3.29,-4.49 1,-1.56 1.94,-3.03 3.14,-4.27 0.44,-0.46 0.88,-0.93 1.31,-1.39 1.34,-1.43 2.6,-2.78 4.08,-3.99 2.25,-1.8403 3.53,-4.2603 4.76,-6.6103 1.03,-1.96 2.01,-3.81 3.51,-5.31 1.57,-1.57 7.94,-7.13 10.73,-9.01 0.61,1.38 1.37,2.71 2.12,4.03 l 0.1,0.18 c 0.35,0.62 0.9,1.34 1.52,2.07 -1.43,1.04 -2.74,2.4 -3.5,3.24 -0.51,0.57 -1.07,1.11 -1.66,1.69 -0.81,0.79 -1.64,1.6 -2.39,2.52 -0.8,0.98 -1.58,2.01 -2.33,3.01 -1.02,1.36 -2.07,2.76 -3.18,4.0103 -3.82,4.33 -7,9.15 -10.08,13.81 -1.48,2.24 -3.01,4.56 -4.59,6.79 -1.22,1.72 -2.23,3.57 -3.21,5.35 -0.66,1.2 -1.34,2.44 -2.08,3.62 -1.99,3.2 -4.11,6.41 -6.17,9.51 -2.08,3.14 -4.22,6.38 -6.25,9.64 -1.87,3.01 -4.99,9.28 -6.54,12.47 -2.7,-0.48 -5.25,-0.87 -8.25,-0.87 -0.67,0 -1.33,0.1 -1.99,0.28 0.81,-3.3 1.57,-4.91 3.53,-8.5 z m 60.4,-64.7203 c 0.56,0.55 1.09,1.04 1.51,1.37 1.56,1.25 2.92,2.17 4.17,2.83 0.08,0.04 0.18,0.11 0.29,0.18 -1.07,2.34 -3.01,6.05 -3.59,7.0403 -0.48,0.82 -1.05,1.65 -1.67,2.52 -1.03,1.47 -2.09,2.99 -2.75,4.63 -0.29,0.72 -0.79,1.41 -1.32,2.14 -0.65,0.9 -1.33,1.82 -1.73,2.95 -0.28,0.8 -0.77,1.43 -1.33,2.16 -0.2,0.26 -0.4,0.52 -0.59,0.79 -0.54,0.75 -1.01,1.54 -1.46,2.3 -0.48,0.81 -0.93,1.57 -1.46,2.27 -1.52,2.04 -2.86,4.23 -4.16,6.33 -1.18,1.91 -2.4,3.89 -3.72,5.72 l -0.77,1.05 c -1.35,1.85 -2.75,3.77 -3.95,5.82 -0.49,0.82 -1.1,1.58 -1.76,2.37 -0.72,0.88 -1.47,1.79 -2.08,2.86 -2.95,5.16 -6.81,9.89 -10.54,14.46 -2.33,2.86 -4.73,5.82 -6.93,8.88 -2.16,-1.62 -4.56,-3.36 -7.38,-4.29 1.6,-3.26 4.45,-8.98 6.18,-11.75 2,-3.23 4.14,-6.46 6.21,-9.58 2.06,-3.12 4.19,-6.34 6.2,-9.57 0.77,-1.24 1.47,-2.51 2.15,-3.74 0.99,-1.8 1.92,-3.5 3.06,-5.1 1.6,-2.26 3.14,-4.59 4.63,-6.85 3.03,-4.59 6.16,-9.34 9.87,-13.53 1.17,-1.33 2.26,-2.77 3.3,-4.1703 0.74,-0.98 1.5,-1.99 2.26,-2.93 0.67,-0.81 1.45,-1.58 2.21,-2.32 0.59,-0.58 1.2,-1.18 1.77,-1.8 1.17,-1.3 2.35,-2.37 3.37,-3.07 z m -94.5,66.2003 c 0.96,-1.81 0.83,-2.98 0.68,-4.22 0,-0.05 0,-0.1 -0.02,-0.15 0.07,0.05 0.15,0.09 0.22,0.14 0.38,0.24 0.77,0.49 1.22,0.67 3.23,1.27 6.46,3.07 9.59,4.82 l 8.98,4.91 c 0.19,0.11 3.25,1.78 5.76,2.72 -0.62,0.37 -1.22,0.75 -1.8,1.12 -0.63,0.4 -1.23,0.78 -1.79,1.1 -1.85,1.05 -3.49,2.45 -4.92,4.07 -2.79,-1.63 -4.49,-2.48 -7.24,-3.34 -0.46,-0.14 -0.91,-0.28 -1.37,-0.42 -1.65,-0.5 -3.21,-0.97 -4.69,-1.62 -1.13,-0.49 -2.28,-0.92 -3.38,-1.33 -1.53,-0.57 -2.97,-1.1 -4.37,-1.8 -0.26,-0.13 -0.52,-0.3 -0.77,-0.47 1.59,-2.35 2.77,-4.12 3.88,-6.2 z m -3.61,-6.49 c 0.09,0.1 0.18,0.21 0.29,0.31 0.45,0.42 0.92,0.74 1.42,0.98 0.02,0.47 0.06,0.9 0.1,1.27 0.12,1.06 0.19,1.64 -0.41,2.77 -1.01,1.9 -2.11,3.57 -3.58,5.74 -0.12,-0.11 -0.23,-0.21 -0.35,-0.32 -0.65,-0.58 -1.81,-1.07 -2.83,-1.5 -0.38,-0.16 -0.72,-0.3 -0.97,-0.43 -0.51,-0.25 -1.01,-0.55 -1.51,-0.86 0.17,-0.71 0.57,-1.46 1.07,-2.41 0.38,-0.71 0.8,-1.51 1.22,-2.47 l 0.34,-0.39 c 1.36,-1.6 1.96,-2.29 5.2,-2.7 z m -78.8599,-39 c 1.05,1.13 1.96,2.11 2.91,2.59 l 39.86,17.01 33.3899,17.24 0.16,0.08 c -2.3,0.6 -3.25,1.6 -4.57,3.15 l -0.57,0.67 -0.08,0.18 c -0.41,0.94 -0.83,1.75 -1.21,2.47 -0.4,0.75 -0.76,1.45 -1.03,2.15 -0.11,-0.08 -0.22,-0.15 -0.33,-0.22 -1.89,-1.3 -3.84,-2.64 -5.97,-3.41 -0.87,-0.32 -3.4098,-1.81 -3.7998,-2.29 -0.7901,-0.99 -4.6401,-3.29 -5.8801,-3.52 -0.15,-0.03 -0.38,-0.16 -0.6,-0.29 -0.4499,-0.26 -1.0099,-0.58 -1.7299,-0.58 -1.42,0 -3.2601,-0.07 -4.97,-0.59 -5.1,-1.55 -9.03,-2.83 -13.1501,-5.12 -0.51,-0.29 -0.9499,-0.58 -1.36,-0.85 -1.03,-0.68 -2.0899,-1.38 -3.78,-1.69 -0.7099,-0.13 -1.41,-0.78 -2.15,-1.48 -0.54,-0.5 -1.09,-1.02 -1.73,-1.41 -0.42,-0.25 -0.91,-0.51 -1.42,-0.78 -0.98,-0.51 -2.09,-1.09 -2.63,-1.69 -0.5,-0.55 -1.14,-0.83 -1.7,-1.08 -0.25,-0.11 -0.68,-0.3 -0.77,-0.41 -0.69,-1.07 -2.06,-1.87 -2.62,-2.17 -1.09,-0.58 -2.24,-1.08 -3.35,-1.57 -0.69,-0.3 -1.38,-0.61 -2.06,-0.93 -1.7,-0.8 -3.91,-1.18 -5.41,-1.26 -0.66,-0.04 -1.3,-0.38 -2.04,-0.77 -0.31,-0.17 -0.64,-0.34 -0.98,-0.49 0.02,-0.06 0.04,-0.12 0.05,-0.18 0.1,-0.33 0.2,-0.67 0.29,-1 0.36,-1.25 0.11,-2.32 -0.09,-3.19 -0.08,-0.37 -0.17,-0.72 -0.18,-1.03 -0.07,-1.23 -0.91,-5.45 -1.69,-8.82 0.41,0.42 0.82,0.85 1.21,1.27 z m -19.66,34.73 c -0.51,0.23 -1.55,0.16 -2.38,0.11 -0.41,-0.03 -0.8,-0.05 -1.15,-0.05 -0.18,0 -0.35,0.04 -0.51,0.11 -2.87,-0.17 -4.58,-0.7 -5.07,-1.62 -0.56996,-1.07 -1.74996,-2.24 -3.10996,-3.6 -1.49,-1.48 -3.73,-3.71 -3.73,-4.85 v -5.24 c 0,-0.69 0.2,-1.36 0.42,-2.07 0.23,-0.75 0.48,-1.6 0.52,-2.55 l 0.03,-0.98 c 0.11,-3.27 0.21,-6.37 1.6,-9.14 1.39,-2.77 2.85,-4.94 4.56996,-6.66 0.67,-0.66 1.28,-1.34 1.89,-2.01 1.71,-1.88 3.19,-3.51 5.46,-4.54 3.02,-1.3703 7.72,-0.9803 11.69,0.97 2.97,1.46 4.99,3.59 5.61,5.85 0.82,3.44 1.77,8.16 1.83,9.23 0.03,0.51 0.14,0.98 0.24,1.44 0.16,0.71 0.3,1.32 0.12,1.95 -0.09,0.32 -0.19,0.64 -0.28,0.96 -0.41,1.35 -0.83,2.74 -0.91,4.17 -0.08,1.51 -1.18,3.47 -2.14,5.19 -0.34,0.61 -0.67,1.2 -0.94,1.74 -1.35,2.7 -3.47,5.7 -5.45,7.73 -0.45,0.3 -1.18,0.73 -2.35,1.34 l -0.24,0.12 c -0.2,0.1 -0.46,0.19 -0.75,0.28 -0.15,0.05 -0.29,0.1 -0.44,0.15 -0.21,0.08 -0.45,0.19 -0.69,0.31 -0.16,0.08 -0.44,0.22 -0.53,0.24 -0.86,0.11 -1.74,0.58 -2.51,1 -0.29,0.16 -0.56,0.31 -0.81,0.42 z m 95.3199,39.55 c -0.07,-0.02 -0.13,-0.05 -0.19,-0.07 -1.09,-0.31 -2.11,-0.81 -3.2,-1.34 -1.66,-0.81 -3.38,-1.64 -5.5,-1.9 l -20.9499,-6.56 -20.57,-9.72 -9.42,-3.66 c -3.37,-2.14 -11.8,-4.7 -18.8,-6.7 l -0.2,-0.06 c -1.82,-0.52 -10.18,-4.89 -14.95,-7.51 0.15,-0.08 0.31,-0.16 0.46,-0.25 0.55,-0.3 1.24,-0.67 1.63,-0.72 0.48,-0.06 0.93,-0.28 1.32,-0.47 0.15,-0.07 0.3,-0.15 0.43,-0.2 0.12,-0.04 0.25,-0.08 0.37,-0.12 0.35,-0.11 0.75,-0.24 1.14,-0.45 l 0.23,-0.12 c 0.91,-0.48 1.68,-0.91 2.32,-1.32 0.17,-0.06 0.32,-0.15 0.46,-0.28 0.03,-0.03 0.05,-0.06 0.08,-0.08 0.6,-0.44 1.03,-0.85 1.24,-1.28 0.02,-0.04 0.02,-0.08 0.03,-0.12 1.78,-2.08 3.55,-4.7 4.75,-7.1 0.21,-0.41 0.45,-0.85 0.7,-1.31 4.08,0.56 8.81,2.76 11.4,5.35 2.36,2.36 5.5,4.53 8.82,6.11 1.71,0.81 3.38,1.83 5,2.83 1.83,1.12 3.7201,2.28 5.74,3.18 0.7301,0.33 1.56,0.35 2.29,0.37 0.4401,0.01 0.9,0.02 1.2,0.11 1.81,0.49 3.5201,1.17 5.33,1.89 l 1.13,0.45 c 1.07,0.42 2.16,0.93 3.3101,1.46 2.0599,0.96 4.1899,1.94 6.3499,2.48 0.5501,0.14 1.08,0.41 1.63,0.7 0.82,0.43 1.75,0.91 2.92,1.01 1.7,0.15 3.51,1.18 5.25,2.17 1.18,0.67 2.41,1.37 3.6499,1.83 0.97,0.36 1.92,0.79 2.92,1.25 1.33,0.61 2.72,1.24 4.15,1.68 2.06,0.63 3.7,1.75 5.44,2.94 0.92,0.63 1.87,1.28 2.92,1.87 0.86,0.49 1.92,0.9 2.94,1.29 1.33,0.51 2.7,1.04 3.5,1.7 0.19,0.16 0.4,0.32 0.61,0.47 -0.1,0.02 -0.21,0.04 -0.31,0.07 -1.29,0.37 -2.31,1.35 -3.21,2.21 -0.33,0.32 -0.65,0.62 -0.96,0.88 -1.2,0.96 -3.33,3.81 -3.39,7.04 z m 7.26,3.41 c -0.08,0 -0.15,0.03 -0.22,0.04 -0.69,-0.2 -1.38,-0.41 -2.07,-0.67 -0.71,-0.26 -1.41,-0.74 -2.15,-1.24 -0.05,-0.04 -0.11,-0.07 -0.16,-0.11 0,-0.02 0,-0.03 0,-0.05 -0.81,-2.88 1.55,-5.88 2.29,-6.47 0.39,-0.31 0.76,-0.67 1.13,-1.02 0.73,-0.7 1.48,-1.42 2.17,-1.61 0.57,-0.16 1.11,0.02 1.94,0.32 0.55,0.2 1.17,0.43 1.88,0.52 0.87,0.1 1.15,0.53 1.3,0.88 0.5,1.21 -0.06,3.27 -0.89,4.31 l -0.2,0.26 c -3.47,4.37 -4.66,4.84 -5,4.84 z m 11.96,5.58 c -0.34,-0.23 -0.69,-0.46 -1.04,-0.7 -1.16,-0.79 -2.36,-1.61 -3.67,-2.27 -1.41,-0.72 -2.8,-1.2 -4.17,-1.61 1.18,-1.02 2.46,-2.49 3.88,-4.27 l 0.2,-0.25 c 0.9,-1.12 1.55,-2.87 1.6,-4.57 1.29,0.56 2.68,1.01 3.39,1.1 -1.15,4.17 -1.29,8.59 -0.19,12.58 z m 0.95,-14.94 c -0.16,-0.07 -0.33,-0.12 -0.52,-0.12 -0.67,-0.06 -3.9,-1.36 -4.41,-1.8 -0.96,-1.21 -2.5,-2.17 -4,-3.09 -0.9,-0.56 -1.75,-1.09 -2.39,-1.62 -1.12,-0.93 -2.69,-1.53 -4.21,-2.12 -0.97,-0.37 -1.89,-0.73 -2.59,-1.12 -0.96,-0.55 -1.87,-1.17 -2.75,-1.77 -1.82,-1.24 -3.7,-2.52 -6.11,-3.26 -1.28,-0.39 -2.53,-0.96 -3.85,-1.57 -1,-0.46 -2.04,-0.93 -3.09,-1.32 -1.0499,-0.39 -2.1399,-1.01 -3.2799,-1.66 -1.98,-1.13 -4.02,-2.29 -6.27,-2.49 -0.6699,-0.06 -1.28,-0.37 -1.98,-0.74 -0.63,-0.32 -1.34,-0.69 -2.17,-0.9 -1.93,-0.48 -3.95,-1.42 -5.9,-2.33 -1.13,-0.53 -2.2999,-1.07 -3.45,-1.52 l -1.12,-0.44 c -1.8,-0.72 -3.66,-1.46 -5.61,-1.98 -0.59,-0.16 -1.19,-0.18 -1.78,-0.19 -0.49,-0.01 -1.06,-0.03 -1.33,-0.15 -1.87,-0.84 -3.69,-1.96 -5.46,-3.04 -1.68,-1.03 -3.41,-2.09 -5.24,-2.95 -3.03,-1.44 -5.99,-3.48 -8.12,-5.62 -2.79,-2.79 -7.52,-5.1 -11.91,-5.91 0.71,-1.4 1.3,-2.87 1.37,-4.27 0.02,-0.31 0.06,-0.62 0.12,-0.94 0.14,0.07 0.29,0.15 0.43,0.23 0.88,0.47 1.87,1 3.08,1.07 1.57,0.09 3.37,0.5 4.48,1.03 0.7,0.33 1.41,0.64 2.12,0.96 1.07,0.47 2.18,0.96 3.19,1.49 0.75,0.4 1.44,0.94 1.69,1.32 0.47,0.72 1.24,1.06 1.85,1.33 0.33,0.15 0.71,0.32 0.85,0.47 0.84,0.94 2.17,1.63 3.33,2.24 0.46,0.24 0.9,0.47 1.27,0.7 0.42,0.25 0.86,0.67 1.32,1.1 0.93,0.87 1.9801,1.85 3.4101,2.11 1.18,0.22 1.8799,0.68 2.85,1.32 0.44,0.29 0.94,0.62 1.5299,0.95 4.3301,2.4 8.56,3.78 13.64,5.32 2.0101,0.61 4.09,0.7 5.66,0.7 h 0.02 c 0.09,0.01 0.34,0.16 0.5,0.25 0.3701,0.21 0.8301,0.47 1.39,0.58 0.72,0.16 3.88,2.05 4.38,2.62 0.85,1.06 4.07,2.77 4.8999,3.07 1.83,0.67 3.57,1.86 5.41,3.12 0.53,0.36 1.06,0.72 1.6,1.08 0.17,0.21 0.39,0.36 0.66,0.43 0.67,0.42 1.35,0.83 2.05,1.18 0.29,0.14 0.68,0.31 1.12,0.5 0.71,0.3 1.79,0.75 2.13,1.06 0.19,0.17 0.39,0.35 0.58,0.53 0.89,0.82 1.81,1.68 2.99,2.27 1.52,0.76 3.09,1.34 4.61,1.91 1.08,0.4 2.19,0.81 3.25,1.28 1.61,0.71 3.32,1.22 4.96,1.72 0.45,0.14 0.9,0.27 1.35,0.41 2.39,0.75 3.87,1.46 6.42,2.93 -1.23,1.74 -2.24,3.65 -3,5.67 z m 40.05,3.21 c -0.05,0.2 -0.09,0.39 -0.14,0.59 -0.08,0.36 -0.16,0.77 -0.25,1.21 -0.26,1.33 -0.59,2.99 -1.06,3.87 -0.5,0.93 -1.29,1.8 -2.12,2.73 -0.68,0.75 -1.38,1.53 -1.96,2.38 -1.36,2 -2.31,2.82 -2.88,3.16 -1.11,0.66 -2.06,1.41 -2.99,2.13 -2.01,1.57 -3.75,2.93 -6.41,2.93 -1.24,0 -2.53,0.24 -3.77,0.47 -1.23,0.23 -2.5,0.46 -3.7,0.46 -3.04,0 -5.51,-1.76 -8.12,-3.63 -1.36,-0.97 -2.76,-1.98 -4.26,-2.7 -4.11,-8.82 -0.13,-21.51 8.36,-26.36 0.59,-0.34 1.22,-0.74 1.89,-1.16 2.12,-1.35 4.53,-2.88 6.57,-2.88 3.04,0 5.52,0.41 8.44,0.94 3.2,0.58 5.89,2.61 8.49,4.56 l 0.43,0.32 c 1.49,1.11 1.95,2.97 2.44,4.93 0.29,1.16 0.59,2.37 1.12,3.48 0.34,0.72 0.2,1.41 -0.08,2.57 z m 52.64,-80.22 c -0.24,0.55 -0.72,1.22 -1.18,1.88 -0.67,0.95 -1.3,1.85 -1.55,2.75 -1,3.51 -4.08,7.24 -6.66,10.09 -0.93,1.03 -1.49,2.22 -2.03,3.37 -0.33,0.69 -0.63,1.34 -1,1.93 -0.97,1.54 -1.9,3.17 -2.79,4.74 -1.24,2.19 -2.53,4.45 -3.96,6.51 -0.74,1.06 -1.38,2.17 -2.01,3.25 -0.79,1.35 -1.53,2.63 -2.45,3.84 -0.98,1.3 -1.98,2.57 -2.97,3.85 -2.54,3.26 -5.16,6.63 -7.51,10.21 -0.9,1.37 -1.81,2.77 -2.73,4.19 -4.25,6.58 -8.64,13.35 -13.91,18.83 -0.19,-0.6 -0.36,-1.23 -0.52,-1.88 -0.44,-1.75 -0.94,-3.68 -2.23,-5.22 2.19,-3.07 4.62,-6.07 6.98,-8.96 3.79,-4.65 7.72,-9.46 10.77,-14.8 0.5,-0.88 1.15,-1.67 1.84,-2.51 0.68,-0.83 1.39,-1.7 1.98,-2.69 1.15,-1.94 2.45,-3.73 3.82,-5.61 l 0.77,-1.06 c 1.38,-1.91 2.62,-3.92 3.82,-5.87 1.27,-2.06 2.59,-4.2 4.04,-6.16 0.6,-0.81 1.11,-1.66 1.6,-2.49 0.44,-0.75 0.86,-1.45 1.34,-2.12 0.18,-0.25 0.37,-0.49 0.55,-0.73 0.63,-0.82 1.28,-1.67 1.7,-2.85 0.28,-0.79 0.82,-1.53 1.39,-2.31 0.6,-0.82 1.22,-1.67 1.62,-2.69 0.55,-1.37 1.53,-2.77 2.48,-4.13 0.61,-0.88 1.25,-1.79 1.78,-2.71 0.57,-0.99 2.37,-4.4203 3.51,-6.8603 0.49,0.28 0.94,0.47 1.4,0.49 0.79,0.05 1.62,0.4 2.49,0.78 0.45,0.19 0.93,0.39 1.43,0.57 -0.74,1.8 -1.49,3.6 -1.83,4.3703 z m 39.5,-11.9903 c 0,0 0.02,-0.06 0.04,-0.09 0.48,-0.35 0.94,-0.77 1.38,-1.17 0.38,-0.35 0.86,-0.79 1.09,-0.91 0.85,-0.45 1.56,-0.44 2.77,-0.43 h 0.59 c 0.3,0 0.82,0.06 1.36,0.11 1.3,0.13 2.68,0.26 3.86,0.09 0.21,0.22 0.48,0.5 0.84,0.86 0.17,0.17 0.32,0.32 0.42,0.42 0,0.05 0,0.09 0.01,0.14 0.03,0.29 0.07,0.7 0.26,1.13 0.31,0.69 0.47,1.84 0.49,3.38 -0.91,1.06 -1.83,2.05 -2.86,2.87 -0.34,0.27 -0.69,0.56 -1.04,0.86 -1.85,1.54 -3.76,3.14 -6.11,3.53 -0.36,0.06 -0.75,0.09 -1.15,0.1 -0.1,-0.03 -0.19,-0.07 -0.3,-0.08 -0.88,-0.39 -2.8,-3.7 -2.92,-4.53 0,-0.75 -0.07,-1.33 -0.13,-1.84 -0.15,-1.33 -0.23,-2 1.4,-4.42 z m -13.13,-3.09 c 0.31,0.16 0.58,0.31 0.83,0.45 0.88,0.5 1.71,0.98 3.23,0.98 1.26,0 2.41,0.54 3.63,1.11 0.73,0.34 1.47,0.69 2.28,0.95 -0.94,1.83 -0.9,2.91 -0.74,4.32 0.05,0.47 0.11,0.95 0.11,1.56 0,0.77 0.86,2.82 2.05,4.51 -0.19,-0.02 -0.55,-0.12 -0.84,-0.21 -1.15,-0.33 -2.88,-0.83 -4.08,0.37 -1.46,1.4603 -4.23,3.0303 -6.33,3.1103 -1.51,0.06 -2.91,0.4 -4.26,0.73 -1.43,0.35 -2.77,0.67 -4.2,0.67 -1.63,0 -2.88,-0.93 -4.95,-2.47 -0.8,-0.59 -1.7,-1.27 -2.77,-1.9903 -0.48,-0.32 -0.94,-0.62 -1.38,-0.91 -1.13,-0.74 -2.11,-1.39 -2.86,-2.04 1.41,-0.19 2.54,-0.62 3.73,-1.07 0.7,-0.26 1.42,-0.54 2.24,-0.77 2.42,-0.69 4.38,-3.21 5.96,-5.23 0.27,-0.35 0.53,-0.67 0.76,-0.96 1.08,-1.32 1.94,-2.78 2.68,-4.3 0.22,0.18 0.48,0.3 0.79,0.3 1.74,0 2.74,0.22 4.11,0.91 z m -4.33,-9.06 c -0.25,0.63 -0.5,1.26 -0.75,1.9 -1.2,3.07 -2.44,6.25 -4.43,8.68 -0.25,0.3 -0.52,0.65 -0.8,1.01 -1.28,1.65 -3.04,3.9 -4.67,4.37 -0.92,0.26 -1.69,0.55 -2.44,0.84 -1.5,0.56 -2.68,1.01 -4.43,1.01 l -1.28,-0.2 c -0.62,-0.17 -1.22,-0.42 -1.84,-0.69 -1.04,-0.45 -2.11,-0.91 -3.29,-0.98 -0.29,-0.07 -1.1,-0.66 -1.53,-0.98 -0.46,-0.34 -0.89,-0.65 -1.27,-0.86 -1.1,-0.58 -2.34,-1.42 -3.77,-2.57 -0.44,-0.35 -0.99,-0.86 -1.55,-1.43 l -0.8,-0.84 c -0.75,-0.83 -1.43,-1.68 -1.79,-2.3 l -0.1,-0.18 c -0.89,-1.56 -1.73,-3.03 -2.3,-4.51 l -0.32,-0.94 c -0.58,-1.92 -0.63,-3.88 0.34,-6.06 0.4,-0.91 0.62,-2 0.82,-3.06 0.31,-1.57 0.62,-3.2 1.5,-3.95 0.92,-0.79 1.7,-1.72 2.45,-2.62 0.86,-1.02 1.67,-1.99 2.67,-2.77 2.62,-2.04 5.79,-2.44 9.2,-2.44 1.08,0 2.18,0.04 3.29,0.08 0.3,0.01 0.61,0.02 0.91,0.03 0.23,0.31 0.59,0.51 1.01,0.52 0.88,0 4.5,1.83 5.1,2.57 0.98,1.23 2.75,1.83 4.32,2.37 0.57,0.19 1.1,0.38 1.52,0.56 5.07,2.26 6.16,8.73 4.25,13.44 z m 32.74,-21.87 c -0.91,0.13 -1.76,0.47 -2.58,0.8 -0.61,0.24 -1.18,0.47 -1.72,0.59 -0.36,0.08 -0.74,0.15 -1.13,0.22 -1.18,0.21 -2.51,0.45 -3.65,1.08 -1.18,0.66 -3.5,0.6 -5.2,0.56 -0.43,-0.01 -0.83,-0.02 -1.2,-0.02 h -6.77 c -2.65,0 -4.52,0.29 -4.52,4.05 0,1.04 -0.63,1.72 -1.75,2.84 l -0.12,0.12 c -0.27,0.27 -0.54,0.56 -0.81,0.85 -0.31,0.34 -0.63,0.68 -0.93,0.97 -0.76,-1.89 -1.99,-3.57 -3.7,-4.81 0.01,-1.55 1,-3.31 1.95,-5 0.44,-0.79 0.87,-1.54 1.21,-2.29 0.98,-2.16 2.55,-4.41 4.31,-6.17 0.68,-0.68 1.77,-0.84 3.03,-1.01 1.03,-0.14 2.19,-0.31 3.27,-0.82 1.56,-0.74 3.03,-1.56 4.46,-2.34 1.14,-0.63 2.31,-1.28 3.5,-1.87 0.52,-0.26 1.07,-0.25 1.84,-0.24 h 7.53 c -0.15,0.58 -0.2,1.15 -0.23,1.54 -0.03,0.33 -0.05,0.64 -0.1,0.85 -0.03,0.14 -0.13,0.33 -0.23,0.54 -0.24,0.48 -0.57,1.14 -0.57,2 0,1.01 0.04,2.09 0.48,3.3 0.06,0.16 1.49,4.01 3.99,4.18 -0.12,0.03 -0.23,0.06 -0.36,0.08 z m 6.59,-4.03 -0.25,0.43 c -0.26,0.34 -1.44,1.04 -1.81,1.1 h -2.21 c -0.05,0 -0.21,-0.09 -0.32,-0.14 -0.33,-0.16 -0.77,-0.38 -1.36,-0.43 -0.36,-0.2 -1.11,-1.27 -1.46,-2.21 -0.25,-0.68 -0.3,-1.35 -0.3,-2.28 0,-0.16 0.1,-0.35 0.25,-0.67 0.16,-0.33 0.36,-0.73 0.47,-1.23 0.09,-0.41 0.13,-0.84 0.16,-1.26 0.03,-0.34 0.07,-0.88 0.15,-1.13 0.5,0 0.93,-0.26 1.2,-0.65 h 2.95 c 0.24,0.16 0.53,0.26 0.84,0.26 0.22,0 0.53,0.11 0.7,0.25 0.06,0.05 0.13,0.12 0.21,0.19 0.49,0.47 1.05,1 1.76,1.08 0.34,0.23 0.66,1.79 0.48,2.78 -0.15,0.83 -0.49,1.95 -0.81,2.66 -0.19,0.42 -0.41,0.8 -0.67,1.24 z m 23.71,4.2 c -0.63,0.72 -1.17,1.34 -1.44,1.85 -0.54,1.01 -1.48,2.23 -2.58,3.33 -0.66,0.66 -2.57,-0.16 -3.97,-0.77 -0.72,-0.31 -1.39,-0.6 -2,-0.76 -2.71,-0.7 -5.48,-1.47 -7.43,-2.45 -0.79,-0.4 -1.63,-0.75 -2.44,-1.1 -0.94,-0.4 -1.81,-0.78 -2.62,-1.21 0.48,-0.37 0.88,-0.77 1.1,-1.15 l 0.25,-0.44 c 0.28,-0.48 0.57,-0.97 0.82,-1.54 0.41,-0.93 0.82,-2.27 1.02,-3.34 0.21,-1.16 0.14,-3.54 -0.94,-5.02 -0.02,-0.03 -0.04,-0.05 -0.07,-0.08 h 0.91 c 1.49,0 2.75,0.2 3.36,0.54 0.5,0.28 0.97,0.67 1.46,1.1 0.62,0.53 1.27,1.07 2.06,1.47 0.52,0.26 0.99,0.66 1.5,1.09 0.86,0.73 1.83,1.55 3.25,1.87 1.81,0.4 3.5,1.41 5.3,2.48 1.29,0.77 2.62,1.56 4.02,2.13 -0.37,0.58 -1.12,1.45 -1.58,1.97 z"
       fill="#34af42"
       id="path5" />
    <path
       d="m 232.583,74.3089 c -0.56,-0.27 -1.09,-0.52 -1.24,-0.81 -0.21,-0.42 -0.63,-0.68 -1.08,-0.69 -0.23,-0.29 -0.58,-0.47 -0.97,-0.47 -2.66,0 -4.05,4.75 -4.05,6.39 0,0.82 0.34,2.29 2.65,2.85 1.1,0.27 2.35,0.27 3.27,0.27 1.55,0 3.45,-0.18 4.35,-1.56 0.59,-0.91 0.58,-2.07 -0.04,-3.46 -0.64,-1.45 -1.94,-2.06 -2.89,-2.51 z m 0.83,4.61 c 0,0 -0.33,0.43 -2.25,0.43 -0.79,0 -1.87,0 -2.68,-0.2 -0.28,-0.07 -0.74,-0.21 -0.74,-0.42 0,-1.1 0.92,-3.37 1.53,-3.83 0.55,0.87 1.45,1.29 2.25,1.67 0.88,0.42 1.42,0.71 1.67,1.27 0.31,0.7 0.27,1.02 0.23,1.09 z"
       fill="#34af42"
       id="path6" />
    <path
       d="m 257.753,23.9892 c 1.03,0 2.05,-1.07 2.05,-2.16 0,-0.51 -0.22,-0.97 -0.61,-1.28 -0.33,-0.26 -0.75,-0.39 -1.24,-0.39 -0.49,0 -0.88,0.28 -1.07,0.68 -0.45,0.19 -0.76,0.63 -0.76,1.15 0,0.52 0.09,0.89 0.29,1.22 0.29,0.49 0.79,0.78 1.35,0.78 z"
       fill="#34af42"
       id="path7" />
    <path
       d="m 271.573,93.5587 c 0.2,0.16 0.52,0.32 0.96,0.32 0.16,0 0.34,-0.02 0.54,-0.08 1.05,-0.28 1.5,-0.92 1.76,-1.3 0.09,-0.13 0.15,-0.22 0.21,-0.26 0.6,-0.48 0.71,-1.3 0.25,-1.9 -0.61,-0.8 -2.34,-1.03 -3.2,-0.42 -0.3,0.21 -0.53,0.53 -0.61,0.92 -0.3,0.23 -0.49,0.59 -0.49,0.99 v 0.13 c -0.01,0.35 -0.03,1.09 0.59,1.58 z"
       fill="#34af42"
       id="path8" />
    <path
       d="m 240.854,77.6885 c -0.39,0.26 -0.59,0.71 -0.56,1.15 -0.12,0.19 -0.19,0.42 -0.19,0.66 0,0.96 0.63,1.69 1.58,1.82 0.09,0.01 0.19,0.02 0.29,0.02 0.94,0 2.02,-0.59 2.31,-1.61 0.24,-0.83 0,-1.61 -0.65,-2.08 -0.85,-0.62 -2.07,-0.44 -2.78,0.03 z"
       fill="#34af42"
       id="path9" />
    <path
       d="m 241.153,68.6488 c 0,-1.11 -1.22,-1.89 -2.31,-1.89 -0.54,0 -1.04,0.19 -1.41,0.55 -0.28,0.27 -0.61,0.76 -0.61,1.58 0,0.65 0.5,1.17 1.13,1.23 0.2,0.13 0.44,0.21 0.7,0.21 0.6,0 1.07,-0.07 1.43,-0.22 0.67,-0.27 1.07,-0.81 1.07,-1.46 z"
       fill="#34af42"
       id="path10" />
    <path
       d="m 227.673,65.339 c 0.22,-1.02 -0.43,-2.06 -1.56,-2.46 -1.03,-0.37 -2.05,-0.03 -2.47,0.81 -0.22,0.44 -0.16,0.95 0.13,1.32 -0.04,0.12 -0.06,0.26 -0.06,0.4 0,1.15 0.75,1.75 1.5,1.83 0.06,0 0.12,0 0.18,0 1,0 2.06,-0.87 2.29,-1.92 z"
       fill="#34af42"
       id="path11" />
    <path
       d="m 220.323,73.6185 c -1.67,-0.07 -2.15,0.74 -2.27,1.23 -0.11,0.41 -0.11,1.14 0.8,1.79 0.12,0.78 0.9,1.18 1.62,1.18 0.03,0 0.05,0 0.08,0 0.92,-0.04 1.59,-0.76 1.59,-1.71 v -0.11 c 0.02,-2.01 -1.13,-2.35 -1.82,-2.38 z"
       fill="#34af42"
       id="path12" />
    <path
       d="m 227.533,82.6791 c -0.06,0 -0.12,0 -0.17,0 -0.37,0 -1.24,0 -1.56,0.86 -0.09,0.25 -0.23,0.88 0.43,1.47 0.11,0.16 0.25,0.29 0.41,0.38 0.46,0.6 1.39,0.75 1.69,0.75 0.64,0 1.2,-0.36 1.44,-0.95 0.27,-0.65 0.1,-1.49 -0.42,-2 -0.6,-0.6 -1.39,-0.55 -1.81,-0.52 z"
       fill="#34af42"
       id="path13" />
  </g>
  <defs
     id="defs13">
    <clipPath
       id="clip0_472_2729">
      <rect
         width="315.99"
         height="202.88"
         fill="white"
         transform="translate(0.953125 0.40918)"
         id="rect13" />
    </clipPath>
  </defs>
</svg>
