<svg width="150" height="151" viewBox="0 0 150 151" fill="none" xmlns="http://www.w3.org/2000/svg">
<path d="M57.1397 12.0311C57.1397 27.3629 56.3666 37.5895 55.9192 52.7991L44.9349 54.0196C35.0695 54.0196 25.1566 54.7115 15.6434 55.24C13.8413 55.3402 2.6377 54.1424 2.21814 54.562C0.848424 55.9317 2.21814 65.9035 2.21814 68.0551C2.21814 78.2858 5.87957 87.8024 5.87957 97.9568C5.87957 102.37 29.4984 100.398 33.9506 100.398C37.7374 100.398 51.0373 94.9163 51.0373 100.398C51.0373 105.481 52.2578 110.199 52.2578 115.044V142.351C52.2578 149.213 56.8258 147.233 62.6319 147.233C65.1046 147.233 67.295 146.012 69.9547 146.012C72.6321 146.012 75.4341 147.233 78.4981 147.233C83.0009 147.233 88.1404 146.491 92.4658 147.843C93.1809 148.066 99.8544 149.133 99.8565 149.131C101.312 147.676 99.8565 128.039 99.8565 125.757C99.8565 120.353 98.636 115.236 98.636 109.619C98.636 104.131 93.9072 96.7363 101.755 96.7363H132.199C132.199 96.7363 147.676 96.7363 147.676 95.0294V77.2087C147.676 72.2162 146.455 67.2391 146.455 62.5629C146.455 54.1738 145.179 54.0196 137.691 54.0196C133.672 54.0196 95.2543 55.3039 95.0424 54.562C94.6918 53.3351 96.195 50.2998 96.195 48.5274V41.2045V24.1856V7.14919C96.195 2.28517 88.8388 4.3485 84.9395 3.14873C78.7414 1.24163 69.7502 2.87751 63.2421 2.87751C56.7313 2.87751 57.1397 6.26035 57.1397 12.0311Z" stroke="#4556EB" stroke-width="3" stroke-linecap="round"/>
</svg>
