<svg width="70" height="152" viewBox="0 0 70 152" fill="none" xmlns="http://www.w3.org/2000/svg">
<path d="M47.876 39.8254C48.7974 35.3499 48.6728 31.03 47.4638 26.7311C46.2547 22.4323 34.715 18.3969 29.2051 20.5161C23.6953 22.6353 22.5393 26.8219 22.5393 32.3987V33.6605V38.0314C22.5393 40.2886 2.80187 43.5008 2.80187 37.7179C2.80187 31.9351 2.22223 26.1668 2.22223 20.3288C2.22223 9.15817 17.3933 1.78027 28.4645 1.78027C40.6395 1.78027 50.1441 3.12435 59.926 10.7325C69.2306 17.9693 68.7767 34.2574 65.1428 44.3516C60.9068 56.1184 54.4413 64.2617 42.8267 69.5982C40.6556 70.5957 38.1254 70.7654 35.8388 71.3371C33.6832 71.876 31.9641 72.9622 29.9458 73.7844C26.4708 75.2002 21.38 80.3633 21.38 84.218C21.38 87.6396 22.4209 91.7892 26.0171 93.0736C29.4741 94.3082 35.0336 94.7804 37.8997 91.9143C40.1678 89.6463 42.4445 84.3409 42.7945 81.1909C43.107 78.3779 42.8116 78.2927 45.7249 78.2927H52.7127C56.0128 78.2927 59.1877 78.8724 62.5022 78.8724C63.6867 78.8724 65.8398 78.4423 66.7207 79.3232C67.7464 80.3489 66.9347 82.4301 67.4614 83.7993C68.3591 86.1333 67.4614 93.3316 67.4614 95.8262C67.4614 102.662 65.664 104.483 59.926 109.158C54.1881 113.833 32.0082 115.727 19.0741 110.495C6.14002 105.263 -3.90417 83.0017 6.52333 67.8344C14.6501 56.0136 17.6743 60.6232 34.1941 51.5673C42.8205 46.8384 46.5807 46.1167 47.876 39.8254Z" stroke="#4556EB" stroke-width="3" stroke-linecap="round"/>
<path d="M13.9227 120.741C18.1185 117.836 26.2471 119.42 31.091 119.42C35.9349 119.42 42.2654 121.273 44.0333 125.202C45.8011 129.13 45.7358 134.132 45.2365 138.438C44.7329 142.781 44.2361 146.128 40.0714 148.21C36.2627 150.115 32.107 149.531 27.9215 149.531C18.5769 149.531 8.9043 141.918 8.9043 132.216C8.9043 127.928 10.2762 123.266 13.9227 120.741Z" stroke="#4556EB" stroke-width="3" stroke-linecap="round"/>
</svg>
