<svg width="227" height="254" viewBox="0 0 227 254" fill="none" xmlns="http://www.w3.org/2000/svg">
<g clip-path="url(#clip0_171_860)">
<mask id="mask0_171_860" style="mask-type:luminance" maskUnits="userSpaceOnUse" x="0" y="0" width="227" height="254">
<path d="M226.861 0.173828H0.861328V253.174H226.861V0.173828Z" fill="white"/>
</mask>
<g mask="url(#mask0_171_860)">
<path d="M184.561 173.374L210.261 172.274V169.774L184.461 170.874C182.761 170.874 180.461 170.974 178.161 171.074C176.461 171.074 174.761 171.074 173.361 171.174C173.361 170.774 173.561 170.474 173.561 170.074L174.361 166.074H171.261C160.461 169.474 149.961 168.474 140.661 167.674C135.761 167.274 131.061 166.774 126.761 167.074H126.161C123.661 166.574 121.161 165.274 118.461 163.874C115.761 162.474 112.961 161.074 110.061 160.374C112.561 157.474 112.861 154.074 110.861 150.374C107.261 143.874 91.0607 143.474 84.3607 143.674C71.4607 143.974 58.5607 146.474 51.5607 150.074C44.7607 153.574 45.1607 157.274 46.0607 159.174C46.6607 160.374 48.1607 161.574 49.5607 162.674C50.0607 163.074 50.5607 163.474 50.8607 163.674C51.6607 164.374 51.2607 166.474 50.8607 168.374C50.4607 170.374 50.0607 172.374 50.8607 173.874C44.6607 173.874 41.7607 177.074 41.2607 180.374C40.7607 183.374 41.8607 186.474 43.8607 188.474C43.1607 188.774 42.5607 189.274 42.0607 189.774C42.0607 189.774 41.7607 190.074 41.5607 190.274C40.1607 191.574 37.0607 194.274 38.5607 198.774L39.2607 200.174C39.7607 201.074 40.2607 202.074 40.8607 202.774C40.5607 202.774 40.2607 202.974 40.0607 203.074C38.9607 203.674 38.3607 204.874 37.8607 205.774C37.6607 206.174 37.4607 206.674 37.2607 206.874C35.9607 208.274 35.4607 209.774 35.6607 211.174C36.0607 214.174 39.2607 216.274 41.7607 217.874C41.9607 217.974 42.1607 218.174 42.3607 218.274C41.5607 218.774 40.5607 219.574 40.0607 220.674C38.8607 223.474 39.7607 228.774 41.7607 230.574C43.7607 232.374 46.3607 234.174 49.1607 235.674C49.3607 236.674 49.1607 238.274 49.1607 239.774C49.1607 242.674 48.8607 245.474 50.3607 246.774C54.5607 250.574 64.6607 252.274 75.2607 252.274C85.8607 252.274 102.861 249.674 106.761 245.374C107.661 244.374 107.761 242.074 107.161 236.774C109.361 236.174 111.361 235.374 112.761 234.574L113.561 234.174L113.761 233.874C121.661 221.274 142.261 221.074 158.761 220.974C162.161 220.974 165.361 220.974 168.361 220.774H169.761L169.561 219.374C169.561 218.774 169.461 218.274 169.361 217.674C171.361 217.674 175.661 218.274 177.761 218.574C179.161 218.774 180.161 218.874 180.561 218.874H182.361C184.961 218.874 187.861 218.574 190.961 218.274C197.161 217.674 203.561 216.974 207.461 218.774L208.461 216.474C203.961 214.474 197.261 215.174 190.761 215.774C187.061 216.174 183.461 216.474 180.661 216.274C180.261 216.274 179.261 216.074 177.961 215.974C173.061 215.374 170.461 215.074 168.961 215.074C167.661 200.474 170.261 185.774 172.861 173.374H184.661H184.561ZM48.3607 158.174C47.1607 156.474 48.9607 154.274 52.6607 152.374C66.6607 145.274 104.161 143.574 108.661 151.674C109.561 153.174 109.861 154.674 109.561 155.974C108.561 154.674 106.861 153.874 106.061 153.474C95.5607 148.774 74.8607 147.474 65.0607 152.974C64.2607 153.374 63.2607 153.574 62.0607 153.874C59.8607 154.274 57.4607 154.774 56.0607 157.074C54.4607 158.974 55.3607 161.374 56.4607 163.174C54.7607 162.974 53.1607 162.674 52.4607 161.974C52.0607 161.674 51.5607 161.274 51.0607 160.774C50.5607 160.274 48.8607 158.974 48.3607 158.174ZM64.4607 164.374C63.2607 163.874 61.6607 163.674 59.8607 163.474C57.9607 161.074 57.6607 159.874 57.9607 158.574L58.1607 158.274C59.0607 156.874 60.6607 156.574 62.6607 156.174C63.9607 155.874 65.2607 155.674 66.3607 155.074C75.3607 150.074 95.1607 151.274 105.061 155.674C106.761 156.374 107.961 157.474 108.061 158.274C108.061 158.774 107.761 159.274 107.361 159.574C99.2607 166.574 73.1607 168.274 64.8607 164.574L64.4607 164.374ZM53.0607 173.074C52.6607 172.274 53.0607 170.474 53.3607 168.974C53.5607 167.774 53.8607 166.374 53.8607 165.174C55.3607 165.574 57.1607 165.674 58.8607 165.874C60.6607 166.074 62.5607 166.174 63.4607 166.674C71.0607 170.074 94.4607 169.874 105.861 163.674C105.461 166.074 105.161 168.874 104.961 171.574C104.961 172.474 104.761 173.374 104.661 174.174C91.4607 184.974 68.4607 182.874 53.7607 174.574L53.0607 173.074ZM104.961 243.974C98.8607 250.574 60.3607 252.874 52.0607 245.274C51.4607 244.774 51.5607 241.874 51.6607 240.174V237.274C54.9607 238.774 58.4607 239.874 61.6607 240.374C64.3607 240.774 68.0607 240.974 72.2607 240.974C82.4607 240.974 95.5607 239.774 104.661 237.574C105.161 242.474 105.061 243.274 105.061 243.474V243.974H104.961ZM41.3607 199.274C41.1607 198.874 40.9607 198.474 40.7607 198.074C39.9607 195.474 41.3607 193.874 43.0607 192.374C43.3607 192.074 43.5607 191.874 43.7607 191.674C44.3607 190.974 45.6607 190.474 46.5607 190.574C46.7607 190.574 46.8607 190.574 47.0607 190.674C47.0607 190.674 47.0607 190.774 47.2607 190.874C50.9607 194.474 55.8607 195.374 60.2607 196.174C61.0607 196.274 61.8607 196.474 62.6607 196.574L63.1607 194.174C62.3607 193.974 61.5607 193.874 60.7607 193.674C56.5607 192.874 52.2607 192.174 49.0607 189.074C48.8607 188.774 48.6607 188.574 48.3607 188.374C48.0607 188.174 47.7607 188.174 47.3607 188.074C44.9607 187.174 43.1607 183.874 43.6607 180.974C44.2607 177.574 47.4607 176.074 52.4607 176.674C67.9607 185.474 92.2607 187.574 106.261 176.074L107.061 175.474V174.974C107.261 173.974 107.361 172.874 107.461 171.774C107.761 168.674 108.061 165.074 108.661 162.674C111.661 163.174 114.561 164.674 117.461 166.174C120.161 167.574 123.061 168.974 125.861 169.574H126.861C131.061 169.374 135.561 169.774 140.461 170.174C149.761 170.974 160.361 171.974 171.361 168.774L171.161 169.574C168.261 183.674 164.661 201.274 166.861 218.574C164.361 218.574 161.661 218.574 158.761 218.674C141.761 218.774 120.561 218.974 111.861 232.474L111.361 232.774C102.161 237.274 73.0607 239.574 62.1607 237.874C55.9607 236.874 47.8607 233.074 43.4607 229.074C42.3607 227.974 41.5607 223.874 42.3607 221.974C42.6607 221.174 43.7607 220.674 44.3607 220.274C47.7607 223.474 53.2607 225.374 57.7607 226.574L58.4607 224.174C54.4607 223.074 48.8607 221.174 45.8607 218.174L45.3607 217.674C44.7607 217.174 43.9607 216.674 43.0607 215.974C41.0607 214.674 38.2607 212.874 38.0607 210.974C38.0607 210.274 38.2607 209.474 39.0607 208.674C39.4607 208.174 39.7607 207.574 40.0607 206.974C40.3607 206.274 40.6607 205.874 41.1607 205.374C41.5607 205.074 41.8607 204.974 42.2607 204.974H43.6607C49.5607 208.974 57.8607 211.974 63.3607 213.074L63.8607 210.674C58.3607 209.574 51.9607 207.574 45.5607 203.374C44.6607 202.874 43.7607 202.274 42.9607 201.674C42.1607 201.074 41.7607 199.874 41.3607 199.274Z" fill="#B88033"/>
<path d="M36.2609 94.3735C39.5609 96.0735 46.5609 95.4735 49.7609 96.0735C49.9609 96.4735 50.1609 96.7735 50.4609 97.1735L51.0609 98.0735C51.3609 98.5735 51.7609 99.1735 52.3609 99.9735C53.4609 101.474 54.9609 103.574 55.7609 105.574C55.7609 106.574 55.9609 107.574 56.4609 108.374C57.7609 110.674 61.2609 114.374 65.1609 115.074H66.5609C67.7609 115.074 68.9609 114.674 69.9609 114.074C70.2609 114.574 70.5609 114.974 70.7609 115.474C72.2609 118.074 73.7609 120.474 76.1609 122.674C76.4609 122.974 76.7609 123.074 77.0609 123.074C77.7609 123.074 78.5609 122.474 79.3609 121.974C79.3609 121.974 79.5609 121.774 79.7609 121.674V122.774C79.7609 124.974 78.6609 126.074 77.4609 127.374C76.0609 128.874 74.4609 130.574 74.5609 133.974C74.5609 136.074 76.8609 138.074 78.9609 138.774C79.6609 139.074 80.3609 139.174 81.0609 139.174C82.2609 139.174 83.3609 138.773 84.1609 137.874C89.8609 131.773 85.2609 126.074 81.9609 121.974L80.9609 120.774C83.6609 118.974 83.7609 118.274 83.7609 117.874C83.9609 116.774 83.0609 115.474 82.1609 113.974C81.7609 113.374 81.0609 112.374 81.0609 112.074C81.0609 110.874 79.9609 109.374 78.2609 107.474C80.9609 105.674 82.3609 103.074 82.2609 100.174C82.2609 96.3735 80.6609 94.2735 79.0609 93.0735C78.5609 92.1735 78.1609 91.2735 77.7609 90.3735C76.1609 86.9735 74.5609 83.7735 72.3609 80.9735L71.4609 80.0735C70.9609 79.5735 69.8609 78.7735 69.4609 78.1735C69.0609 77.5735 68.8609 76.9735 68.4609 76.4735C68.4609 76.0735 68.6609 75.5735 68.6609 75.0735V74.3735C70.4609 73.5735 71.8609 72.7735 73.0609 72.0735C74.6609 71.1735 76.0609 70.3735 78.0609 69.7735L78.8609 69.4735C94.3609 62.4735 107.261 62.1735 122.261 61.8735C125.161 61.8735 128.061 61.8735 131.061 61.5735C131.361 61.5735 132.361 61.7735 133.161 61.8735C137.161 62.5735 139.761 62.8735 140.961 61.6735C141.661 60.9735 141.761 59.9735 141.661 58.6735C150.861 58.6735 160.461 57.9735 169.661 57.2735C188.461 55.8735 207.861 54.4735 225.361 58.1735L225.861 55.7735C207.961 52.0735 190.061 52.9735 171.161 54.3735L169.361 54.5735C159.961 55.2735 150.161 55.9735 140.861 55.9735C140.561 54.8735 140.061 53.7735 139.561 52.5735C139.261 51.9735 139.061 51.2735 138.961 50.9735C137.961 47.5735 137.561 39.8735 137.161 33.0735C136.661 24.2735 136.361 18.7735 135.261 16.8735C134.961 16.3735 134.761 15.9735 134.461 15.4735C133.861 14.3735 133.361 13.5735 133.061 12.6735C134.661 13.6735 138.261 12.9735 144.261 11.2735C144.961 11.0735 145.661 10.8735 145.861 10.8735C149.861 10.1735 153.861 9.37351 157.661 8.57351L158.561 8.37351C162.561 7.47351 166.661 7.87351 170.961 8.07351C175.661 8.27351 180.561 8.57351 185.161 7.47351L186.761 7.07351C191.161 5.97351 196.061 4.77351 200.361 4.67351V2.17351C195.761 2.37351 190.661 3.57351 186.161 4.67351L184.661 5.07351C180.461 6.07351 175.761 5.87351 171.161 5.67351C166.661 5.47351 162.761 5.07351 158.461 5.97351L157.261 6.17351C153.461 7.07351 149.461 7.87351 145.461 8.57351C145.161 8.57351 144.661 8.77351 143.661 9.07351C138.261 10.5735 135.161 11.0735 134.461 10.7735C134.461 10.7735 134.061 10.1735 133.961 9.87351C133.561 9.07351 132.761 7.47351 131.161 7.97351C125.961 9.17351 119.961 9.47351 114.061 9.67351C110.061 9.87351 105.961 9.97351 102.061 10.4735C100.061 10.6735 97.8609 11.0735 95.6609 11.4735C90.2609 12.3735 84.6609 13.3735 79.8609 12.7735C77.0609 12.3735 75.1609 10.6735 73.3609 8.97351C71.7609 7.47351 70.3609 6.07351 68.3609 5.67351C66.2609 5.27351 63.4609 3.87351 61.2609 2.87351C60.6609 2.57351 60.0609 2.27351 59.4609 2.07351C54.4609 -0.226493 45.1609 1.77351 37.7609 3.37351C35.3609 3.87351 33.2609 4.37351 31.5609 4.57351C26.8609 5.27351 17.4609 5.97351 12.5609 5.17351C12.5609 5.17351 4.26088 3.87351 2.56088 5.77351C0.960883 7.57351 1.26088 11.2735 1.86088 13.2735V13.5735C3.06088 15.3735 6.16088 20.0735 10.2609 22.6735C7.46088 23.8735 5.36088 28.1735 4.26088 30.9735C2.66088 34.8735 0.460883 42.8735 3.06088 45.3735C4.56088 46.7735 5.26088 47.1735 6.26088 47.5735C6.06088 49.1735 5.96088 51.0735 6.06088 53.6735C6.06088 55.8735 7.96088 60.0735 10.1609 61.0735C11.9609 61.8735 13.8609 62.5735 15.7609 63.1735C16.7609 63.5735 17.7609 63.8735 18.7609 64.2735C18.1609 65.0735 17.5609 65.9735 17.2609 66.8735C16.2609 69.1735 16.4609 71.4735 17.6609 73.6735C18.9609 75.9735 21.9609 77.5735 24.5609 78.9735C25.3609 79.3735 26.0609 79.7735 26.6609 80.1735C26.6609 80.3735 26.5609 80.6735 26.4609 80.9735C26.0609 84.6735 30.1609 90.5735 35.1609 93.6735C40.1609 96.7735 35.9609 94.2735 36.2609 94.3735ZM7.06088 44.9735C6.46088 44.6735 5.96088 44.3735 4.96088 43.3735C4.16088 42.5735 4.46088 37.5735 6.76088 31.7735C8.76088 26.8735 10.8609 24.6735 11.9609 24.6735H12.5609C13.1609 24.6735 13.6609 24.5735 14.0609 24.4735C14.4609 24.4735 14.7609 24.3735 15.2609 24.2735H16.0609L20.5609 24.0735C21.9609 24.0735 23.3609 23.8735 24.8609 23.7735C29.9609 23.3735 35.2609 22.9735 39.4609 24.8735C40.3609 25.2735 41.4609 25.1735 42.4609 25.0735C42.9609 25.0735 43.9609 24.8735 44.2609 25.0735C44.7609 25.6735 45.1609 28.5735 44.7609 29.3735C44.0609 30.8735 41.8609 32.1735 39.8609 33.2735C38.9609 33.7735 38.1609 34.2735 37.4609 34.7735C37.4609 34.7735 26.3609 33.8735 24.6609 34.1735C22.6609 34.6735 19.2609 36.4735 17.9609 37.2735C15.7609 38.6735 13.8609 39.4735 12.4609 40.1735C9.56088 41.4735 7.86088 42.4735 6.96088 44.8735H7.06088V44.9735ZM14.2609 60.2735C12.4609 59.6735 12.7609 59.8735 11.3609 58.6735C9.96088 57.4735 8.86088 55.2735 8.76088 53.4735C8.46088 44.8735 9.46088 44.4735 13.5609 42.5735C15.1609 41.8735 17.0609 40.9735 19.3609 39.4735C20.8609 38.5735 23.8609 36.9735 25.2609 36.6735C26.4609 36.4735 36.2609 37.1735 37.0609 37.2735C39.5609 37.6735 41.7609 37.5735 43.6609 37.4735C47.5609 37.2735 50.1609 37.1735 53.1609 40.9735C53.7609 41.7735 54.1609 42.2735 54.0609 42.8735L53.8609 43.4735C53.4609 45.0735 52.6609 47.6735 51.4609 48.3735C51.0609 48.5735 50.6609 48.7735 50.2609 48.9735C49.1609 49.5735 47.9609 50.0735 47.2609 50.8735C46.9609 51.0735 45.8609 51.6735 45.0609 51.9735C44.0609 52.4735 43.2609 52.7735 42.7609 53.1735C40.7609 53.3735 38.7609 53.4735 37.3609 53.4735H36.2609C33.1609 54.4735 25.3609 57.6735 20.5609 62.2735C19.2609 61.7735 17.8609 61.2735 16.5609 60.8735L14.2609 60.2735ZM53.3609 52.7735H49.0609C49.0609 52.7735 49.2609 52.7735 49.3609 52.5735C49.7609 52.1735 50.7609 51.6735 51.6609 51.1735C51.8609 51.1735 52.0609 50.9735 52.2609 50.8735C52.6609 51.5735 53.0609 52.2735 53.4609 52.8735L53.3609 52.7735ZM48.5609 70.7735C47.6609 71.8735 45.2609 72.1735 43.1609 72.6735C40.3609 73.3735 37.6609 73.9735 36.2609 75.5735C35.7609 75.9735 33.1609 76.5735 31.7609 76.9735C30.0609 77.3735 29.0609 77.6735 28.4609 77.9735C28.4609 77.9735 28.3609 77.9735 28.2609 77.9735H28.5609C27.8609 77.4735 26.9609 77.0735 25.9609 76.5735C23.7609 75.3735 20.9609 73.9735 20.0609 72.2735C19.2609 70.7735 19.1609 69.1735 19.7609 67.5735C22.0609 61.9735 32.3609 57.1735 36.9609 55.6735H37.4609C39.0609 55.6735 41.0609 55.6735 43.1609 55.3735C48.8609 54.8735 55.9609 54.3735 58.9609 57.0735C59.9609 57.8735 60.3609 59.0735 60.4609 60.5735V63.3735C59.2609 64.6735 57.6609 65.0735 55.9609 65.5735C53.5609 66.2735 50.8609 66.9735 48.8609 70.1735C46.8609 73.3735 48.6609 70.5735 48.5609 70.6735V70.7735ZM61.6609 68.2735C60.0609 68.2735 57.8609 68.2735 55.4609 68.4735C55.8609 68.4735 56.3609 68.1735 56.8609 68.0735C57.9609 67.7735 59.2609 67.3735 60.4609 66.7735C60.8609 67.0735 61.2609 67.5735 61.5609 68.1735H61.6609V68.2735ZM51.3609 71.3735H52.8609C55.3609 71.1735 62.9609 70.6735 64.0609 71.1735C64.5609 71.4735 65.8609 73.5735 65.9609 75.2735C66.0609 76.9735 65.6609 76.1735 65.5609 76.2735C64.5609 76.8735 63.6609 77.2735 62.6609 77.7735C61.7609 78.2735 60.7609 78.7735 59.7609 79.3735L58.7609 79.6735C57.1609 79.9735 49.6609 82.7735 49.3609 82.8735C46.8609 83.7735 45.2609 85.3735 44.4609 87.6735C44.0609 88.8735 45.2609 89.7735 45.8609 90.0735C47.0609 91.1735 47.7609 92.1735 48.3609 93.2735C45.3609 92.7735 40.5609 92.2735 37.0609 91.7735L36.2609 91.1735C29.4609 84.8735 29.0609 82.3735 29.2609 81.0735C29.2609 80.7735 29.2609 80.4735 29.9609 80.1735C30.2609 79.9735 31.6609 79.6735 32.6609 79.4735C35.6609 78.7735 37.5609 78.2735 38.3609 77.3735C39.2609 76.3735 41.7609 75.7735 43.9609 75.2735C46.4609 74.6735 48.8609 74.0735 50.3609 72.8735C50.6609 72.5735 50.8609 72.2735 51.0609 71.8735L51.3609 71.3735ZM81.7609 125.474C84.5609 129.174 85.7609 132.374 82.4609 135.974C81.7609 136.674 80.7609 136.574 79.9609 136.274C78.3609 135.674 77.2609 134.374 77.1609 133.674C77.1609 131.274 78.0609 130.174 79.3609 128.874C80.2609 127.974 81.1609 126.974 81.7609 125.474ZM78.5609 111.974C78.5609 112.874 79.1609 113.774 80.0609 115.174C80.4609 115.774 81.0609 116.674 81.2609 117.174C80.9609 117.474 80.1609 118.074 79.5609 118.474L78.8609 118.974C78.3609 119.474 77.9609 119.674 77.3609 120.074C75.5609 118.274 74.2609 116.174 72.9609 113.974C71.8609 112.074 70.6609 110.174 69.0609 108.174L72.6609 105.474C77.6609 110.074 78.4609 111.574 78.5609 112.074V111.974ZM79.8609 100.474C79.4609 102.674 78.7609 104.174 76.4609 105.474C75.7609 104.774 74.9609 104.074 74.1609 103.274L72.8609 102.074L65.4609 107.674L66.3609 108.674C67.2609 109.674 67.9609 110.674 68.6609 111.674C67.8609 112.274 66.8609 112.474 65.7609 112.174C62.8609 111.574 59.7609 108.574 58.7609 106.674C57.6609 104.674 59.3609 102.174 60.4609 100.874C64.1609 96.5735 71.8609 92.6735 76.4609 94.2735C78.6609 94.9735 79.7609 96.9735 79.8609 100.074V100.474ZM47.0609 87.7735C47.6609 86.4735 48.7609 85.6735 50.2609 85.0735C53.4609 83.8735 58.4609 82.1735 59.2609 81.9735C60.4609 81.6735 62.7609 80.5735 63.8609 79.9735C64.9609 79.3735 65.6609 78.9735 66.6609 78.4735C66.6609 78.6735 66.8609 78.9735 67.0609 79.2735C67.6609 80.1735 69.3609 81.4735 70.1609 82.1735C70.9609 82.8735 70.4609 82.4735 70.4609 82.4735C72.5609 85.0735 73.9609 88.0735 75.5609 91.3735V91.6735C69.9609 90.7735 62.2609 94.7735 58.3609 99.3735C57.6609 100.174 57.1609 100.974 56.7609 101.674C55.9609 100.374 55.0609 99.0735 54.3609 98.0735C53.8609 97.3735 53.4609 96.7735 53.1609 96.3735L52.4609 95.3735C51.9609 94.5735 51.5609 93.8735 51.1609 93.1735C50.2609 91.5735 49.3609 89.8735 47.3609 88.0735L46.9609 87.7735H47.0609ZM133.561 59.2735C132.161 59.0735 131.461 58.8735 130.961 58.9735C127.961 58.9735 124.961 59.1735 122.161 59.2735C106.961 59.6735 93.8609 59.9735 77.8609 67.0735L77.1609 67.2735C74.9609 67.9735 73.3609 68.8735 71.6609 69.7735C70.5609 70.4735 69.2609 71.0735 67.7609 71.7735C67.0609 70.3735 66.1609 69.0735 65.2609 68.6735C64.9609 68.6735 64.7609 68.4735 64.4609 68.4735L64.1609 67.9735C63.6609 67.0735 63.2609 66.0735 62.4609 65.3735H62.6609C63.3609 64.5735 63.3609 63.2735 63.1609 61.5735V60.8735C63.1609 58.6735 62.2609 56.8735 60.8609 55.5735C59.8609 54.6735 58.6609 54.0735 57.2609 53.6735C56.2609 52.7735 55.0609 50.8735 54.3609 49.4735C55.5609 47.9735 56.1609 45.8735 56.5609 44.2735L56.7609 43.7735C57.2609 41.8735 56.1609 40.4735 55.4609 39.5735C51.6609 34.8735 47.8609 35.0735 43.9609 35.1735H42.2609C44.3609 33.9735 46.4609 32.5735 47.3609 30.5735C48.1609 28.8735 47.6609 24.6735 46.2609 23.3735C45.2609 22.4735 43.7609 22.5735 42.5609 22.7735C41.9609 22.7735 41.1609 22.9735 40.8609 22.7735C36.0609 20.5735 30.4609 21.0735 25.0609 21.4735C23.5609 21.5735 22.2609 21.6735 20.8609 21.7735L16.3609 21.9735C12.0609 22.1735 7.56088 17.2735 4.66088 12.5735C4.16088 10.6735 4.26088 8.37351 4.86088 7.67351C5.76088 7.27351 10.3609 7.47351 12.6609 7.67351C17.9609 8.47351 27.3609 7.67351 32.4609 7.07351C34.1609 6.87351 36.2609 6.37351 38.7609 5.87351C45.4609 4.47351 54.6609 2.47351 58.9609 4.37351C59.4609 4.57351 60.0609 4.87351 60.6609 5.17351C63.0609 6.27351 65.9609 7.67351 68.3609 8.17351C69.6609 8.47351 70.8609 9.57351 72.1609 10.8735C74.0609 12.6735 76.4609 14.8735 80.0609 15.3735C85.2609 16.0735 91.0609 15.0735 96.6609 14.0735C98.8609 13.6735 100.961 13.3735 102.961 13.0735C106.761 12.5735 110.761 12.4735 114.661 12.2735C120.061 12.0735 125.561 11.8735 130.661 10.8735V11.0735C130.861 13.6735 131.661 15.1735 132.761 17.0735C132.961 17.4735 133.261 17.8735 133.461 18.3735C134.261 19.8735 134.661 27.0735 135.061 33.4735C135.461 40.7735 135.861 48.2735 136.961 51.9735C136.961 52.3735 137.361 52.9735 137.661 53.7735C139.061 57.2735 140.061 59.6735 139.361 59.8735C137.961 60.1735 134.961 59.3735 133.561 59.1735V59.2735Z" fill="#B88033"/>
</g>
</g>
<defs>
<clipPath id="clip0_171_860">
<rect width="226" height="253" fill="white" transform="translate(0.861328 0.173828)"/>
</clipPath>
</defs>
</svg>
