<svg width="317" height="204" viewBox="0 0 317 204" fill="none" xmlns="http://www.w3.org/2000/svg">
<g clip-path="url(#clip0_472_2729)">
<path d="M278.803 35.3186C279.083 35.4386 279.373 35.4886 279.663 35.4886C280.513 35.4886 281.343 35.0486 281.873 34.5286C282.363 34.0386 282.513 33.3286 282.263 32.6886C281.833 31.5686 280.343 31.0886 279.503 31.0486C278.583 30.9886 277.813 31.4086 277.453 32.1286C277.213 32.6086 277.253 33.1586 277.513 33.5786C277.623 34.3886 278.093 35.0186 278.803 35.3186Z" fill="#34AF42"/>
<path d="M284.963 44.6089C284.133 44.6089 283.463 45.2789 283.463 46.1089C283.463 46.3489 283.523 46.5689 283.613 46.7689C283.593 47.4689 283.673 48.0889 284.113 48.5789C284.413 48.9189 284.823 49.1189 285.263 49.1389C285.343 49.1389 285.423 49.1389 285.503 49.1389C286.633 49.1389 287.253 48.6589 287.823 47.9489C288.593 46.9889 288.313 46.1389 288.153 45.8189C287.533 44.5589 285.843 44.5789 284.953 44.5889L284.963 44.6089Z" fill="#34AF42"/>
<path d="M24.0931 126.608C24.0931 123.348 23.8231 121.698 21.2831 119.578C19.7931 118.338 17.7531 118.048 16.0731 118.838C14.7231 119.468 13.8531 120.668 13.6831 122.108C13.3831 122.338 13.1831 122.698 13.1831 123.108V126.608C13.1831 128.188 14.4931 128.858 15.2831 129.258C15.5431 129.388 15.8131 129.528 15.9331 129.638C16.9031 130.498 18.1731 130.948 19.4431 130.948C20.1631 130.948 20.8931 130.798 21.5631 130.498C23.1431 129.788 24.0831 128.328 24.0831 126.598L24.0931 126.608ZM20.5531 128.228C19.6131 128.648 18.3731 128.458 17.6031 127.778C17.2331 127.448 16.8031 127.228 16.4231 127.038C16.1731 126.908 15.7531 126.698 15.6931 126.608V123.608C15.9731 123.378 16.1631 123.028 16.1631 122.638C16.1631 121.698 16.7731 121.268 17.1431 121.098C17.9431 120.718 18.9531 120.878 19.6931 121.498C21.4431 122.958 21.6031 123.718 21.6031 126.608C21.6031 127.558 21.0331 128.018 20.5631 128.228H20.5531Z" fill="#34AF42"/>
<path d="M148.493 179.299C147.393 179.299 145.413 179.659 144.623 182.049C143.653 184.929 143.903 186.349 144.683 187.969L144.763 188.109C145.873 189.789 149.573 192.539 151.063 192.539C152.813 192.539 153.593 192.139 154.793 191.539L155.123 191.369C157.853 189.999 157.983 184.569 157.003 182.369C155.733 179.509 150.163 179.289 148.493 179.289V179.299ZM154.003 189.139L153.663 189.309C152.603 189.849 152.233 190.029 151.133 190.039C150.433 189.839 147.803 188.109 146.883 186.789C146.433 185.849 146.233 185.069 146.983 182.839C147.193 182.199 147.523 181.799 148.483 181.799C151.523 181.799 154.323 182.509 154.713 183.389C155.423 184.999 154.973 188.649 154.003 189.129V189.139Z" fill="#34AF42"/>
<path d="M316.883 51.9787C316.723 51.3787 316.293 50.9187 315.653 50.6987C314.263 50.1987 312.913 49.3987 311.493 48.5587C309.603 47.4387 307.653 46.2687 305.453 45.7787C304.633 45.5987 304.003 45.0587 303.273 44.4387C302.673 43.9387 302.063 43.4187 301.273 43.0187C300.753 42.7587 300.243 42.3287 299.713 41.8787C299.553 41.7487 299.393 41.6187 299.223 41.4787C299.333 41.4487 299.443 41.4287 299.553 41.4087C301.013 41.0687 302.383 40.7487 303.773 40.7487C306.333 40.7487 309.673 39.9487 312.033 39.2687C312.303 39.1887 312.643 39.1387 313.003 39.0787C313.443 39.0087 313.903 38.9387 314.363 38.7987C315.773 38.3987 315.753 36.6187 315.553 33.7287C315.543 33.5287 315.533 33.3887 315.523 33.3187C315.523 32.9987 315.503 25.3987 313.503 24.0987C313.013 23.7787 312.433 23.7387 311.893 23.9687C310.903 24.4087 309.763 24.5587 308.553 24.7287C307.263 24.8987 305.923 25.0787 304.683 25.6287C303.013 26.3687 300.723 26.4987 298.513 26.6287C296.883 26.7187 295.203 26.8187 293.703 27.1587C291.323 27.6987 287.803 28.4287 284.643 28.4287C280.653 28.4287 276.603 28.3087 272.693 28.1987C270.093 28.1187 267.423 28.0587 264.743 28.0187C266.143 27.2187 267.523 26.3787 268.583 25.5287C268.913 25.2687 269.353 25.0687 269.823 24.8587C270.453 24.5787 271.163 24.2687 271.773 23.7187C272.413 23.1387 273.703 22.7587 274.833 22.4087C275.303 22.2687 275.753 22.1287 276.143 21.9887C277.593 21.4587 279.213 20.4487 280.643 19.5487L281.403 19.0787C283.453 17.8187 285.643 16.7987 287.963 15.7187C290.573 14.4987 293.283 13.2387 295.813 11.5887C296.073 11.4187 296.313 11.2787 296.543 11.1387C297.423 10.6087 298.343 10.0587 298.533 8.97871C298.723 7.93871 298.083 6.97871 297.503 6.25871C297.233 5.91871 297.003 5.51871 296.763 5.09871C296.403 4.46871 296.023 3.80871 295.443 3.22871C295.163 2.94871 294.933 2.67871 294.723 2.43871C293.863 1.44871 292.983 0.428711 290.693 0.428711C289.203 0.428711 287.973 0.838711 286.783 1.23871C286.193 1.43871 285.623 1.61871 285.033 1.75871C284.583 1.86871 284.113 1.95871 283.653 2.04871C282.013 2.36871 280.323 2.70871 278.783 3.68871C277.423 4.54871 276.203 5.53871 275.013 6.49871C273.823 7.45871 272.693 8.36871 271.473 9.12871C269.183 10.5687 267.003 12.0787 265.173 13.5087C264.403 14.1087 263.073 14.0587 261.763 14.0087C261.383 13.8787 261.003 13.8087 260.633 13.8087C260.403 13.8087 260.203 13.8887 260.023 13.9887C255.613 14.1587 253.553 16.4387 251.873 19.7987C250.153 23.2387 246.543 25.2587 242.723 27.3887C240.083 28.8687 237.353 30.3887 235.293 32.4487C234.233 33.5087 233.103 34.5787 232.003 35.6087C230.883 36.6687 229.713 37.7687 228.543 38.9287L222.773 44.6987C219.493 47.9787 219.533 50.7787 219.593 54.6587C219.593 55.1887 219.613 55.7387 219.613 56.3287C219.613 56.4287 219.643 56.5087 219.663 56.5987C219.253 56.8487 218.853 57.1087 218.453 57.4187C217.243 58.3587 216.313 59.4787 215.403 60.5487C214.683 61.4087 214.003 62.2187 213.243 62.8787C211.713 64.1887 211.293 66.3487 210.923 68.2487C210.733 69.2087 210.553 70.1187 210.273 70.7687C209.083 73.4587 209.083 75.8687 209.683 78.1087C206.093 80.3287 198.553 87.2387 198.053 87.7487C196.293 89.5087 195.173 91.6187 194.103 93.6587C192.933 95.8787 191.823 97.9787 189.973 99.4987C188.363 100.809 186.983 102.289 185.653 103.709C185.223 104.159 184.803 104.619 184.363 105.069C182.993 106.489 181.943 108.139 180.923 109.729C179.963 111.229 179.053 112.649 177.923 113.849C173.613 118.429 170.853 122.099 169.493 125.089C168.553 127.169 167.023 128.969 165.413 130.879C163.703 132.889 161.943 134.979 160.873 137.459C158.733 142.409 156.223 147.019 153.553 151.909L153.423 152.139C151.363 155.909 150.513 157.679 149.563 161.639C148.093 161.109 145.203 159.789 143.403 158.799L135.313 154.379L134.433 153.889C131.233 152.109 127.923 150.259 124.533 148.929C124.313 148.849 124.043 148.669 123.753 148.479C123.133 148.089 122.373 147.599 121.453 147.549C120.903 147.519 120.403 147.279 119.913 146.819C119.673 146.589 119.443 146.289 119.213 145.979C118.593 145.159 117.763 144.049 116.143 143.849L82.8932 126.679L43.0431 109.669C42.5631 109.419 41.7231 108.509 40.9031 107.629C39.5131 106.129 37.7831 104.269 35.8531 103.369C35.7531 103.319 35.6431 103.309 35.5431 103.289C34.3331 101.899 32.7231 100.679 30.7331 99.6987C26.1231 97.4287 20.5631 97.0287 16.9031 98.6887C14.1731 99.9287 12.3731 101.909 10.6331 103.819C10.0531 104.459 9.46314 105.099 8.83314 105.739C6.92314 107.649 5.37314 109.909 3.79314 113.049C2.16314 116.319 2.04314 119.829 1.93314 123.229L1.90314 124.199C1.88314 124.829 1.69314 125.459 1.49314 126.119C1.24314 126.929 0.973145 127.859 0.973145 128.909V134.149C0.973145 136.329 3.24314 138.589 5.44314 140.769C6.56314 141.879 7.71314 143.029 8.10314 143.759C9.46314 146.329 13.3631 146.739 17.0831 146.769C19.9031 148.399 32.4531 155.189 35.2131 155.979L35.4131 156.039C39.4731 157.199 50.2531 160.279 53.6431 162.499L63.3231 166.289L83.8932 176.009L105.203 182.699L105.443 182.749C107.193 182.949 108.683 183.669 110.253 184.429C111.383 184.979 112.563 185.549 113.853 185.929C114.593 186.139 115.353 186.659 116.153 187.199C116.993 187.769 117.853 188.359 118.863 188.729C120.143 189.189 121.383 189.539 122.583 189.869C124.493 190.399 126.293 190.899 128.113 191.829C129.283 192.429 130.363 193.159 131.513 193.939C132.753 194.789 134.033 195.659 135.443 196.329L135.863 196.519C137.283 197.149 138.653 198.129 140.103 199.169C142.793 201.089 145.833 203.269 149.683 203.269C151.113 203.269 152.503 203.009 153.843 202.759C155.023 202.539 156.143 202.329 157.153 202.329C160.673 202.329 162.923 200.569 165.103 198.869C165.973 198.189 166.863 197.489 167.843 196.909C168.993 196.219 170.193 194.939 171.503 193.009C171.983 192.299 172.603 191.619 173.253 190.899C174.153 189.909 175.083 188.879 175.723 187.679C176.373 186.469 176.723 184.689 177.033 183.109C177.113 182.699 177.193 182.309 177.263 181.959C177.303 181.779 177.353 181.589 177.393 181.409C177.593 180.579 177.803 179.679 177.713 178.709C177.773 178.669 177.833 178.649 177.883 178.599C183.673 172.809 188.353 165.569 192.873 158.569C193.783 157.159 194.683 155.759 195.583 154.399C197.883 150.909 200.473 147.569 202.983 144.349C203.983 143.069 204.983 141.779 205.973 140.479C206.983 139.149 207.803 137.739 208.593 136.379C209.223 135.299 209.813 134.279 210.493 133.299C211.983 131.149 213.293 128.839 214.563 126.609C215.443 125.069 216.353 123.469 217.293 121.969C217.743 121.249 218.103 120.499 218.443 119.769C218.933 118.739 219.393 117.759 220.073 117.009C222.823 113.949 226.133 109.929 227.273 105.929C227.413 105.439 227.973 104.639 228.473 103.929C229.003 103.179 229.543 102.399 229.893 101.629C230.193 100.959 230.803 99.4987 231.443 97.9387C232.433 98.9687 233.753 99.8387 235.203 100.789C235.633 101.069 236.083 101.369 236.553 101.679C237.573 102.369 238.453 103.019 239.223 103.599C241.533 105.319 243.203 106.569 245.663 106.569C247.393 106.569 248.943 106.189 250.453 105.829C251.743 105.519 252.963 105.219 254.223 105.169C257.063 105.059 260.393 103.149 262.223 101.329C262.333 101.219 262.873 101.309 263.843 101.589C264.363 101.739 264.863 101.879 265.333 101.899C265.623 101.909 265.933 101.929 266.243 101.939C267.623 102.009 269.203 102.089 270.593 101.859C273.613 101.359 275.893 99.4587 277.893 97.7787C278.233 97.4887 278.573 97.2187 278.893 96.9487C280.023 96.0387 281.033 94.9687 281.993 93.8587C282.663 93.7187 283.163 93.1387 283.193 92.4387C283.413 92.1687 283.623 91.9087 283.843 91.6387C285.823 89.1887 287.683 86.8687 290.163 85.4887C293.463 83.6587 295.583 79.2287 297.283 75.6787C297.553 75.1187 297.803 74.5987 298.043 74.1087C298.863 72.4787 298.483 71.2387 298.023 70.4887C297.003 68.8387 294.613 68.0887 292.833 68.0887C290.053 68.0887 287.603 71.8987 285.643 74.9587C284.983 75.9787 284.363 76.9487 283.983 77.3487C283.743 77.6087 283.483 77.8587 283.233 78.1087C282.333 79.0087 281.413 79.9287 280.763 81.1087C280.503 81.5687 280.033 81.9887 279.533 82.4287C279.253 82.6787 278.973 82.9387 278.703 83.2187C278.533 83.2387 278.363 83.2787 278.203 83.3687C278.003 83.4687 277.843 83.6087 277.713 83.7687C276.793 83.8587 275.253 83.7087 274.563 83.6287C273.933 83.5687 273.383 83.5087 272.953 83.5087H272.383C271.063 83.4887 269.823 83.4787 268.423 84.2287C267.903 84.4987 267.373 84.9887 266.813 85.5087C266.373 85.9087 265.583 86.6387 265.213 86.7687C264.373 86.5687 263.573 86.1887 262.713 85.7987C261.303 85.1387 259.843 84.4587 258.023 84.4587C257.163 84.4587 256.783 84.2387 256.033 83.8087C255.743 83.6487 255.443 83.4687 255.083 83.2887C253.433 82.4687 252.053 82.1487 250.063 82.1187C250.463 81.1687 250.843 80.2187 251.213 79.2687C251.463 78.6387 251.703 78.0187 251.953 77.3987C252.963 74.8987 253.263 71.9787 252.763 69.2487C253.513 68.7487 254.163 68.0587 254.793 67.3787C255.033 67.1087 255.283 66.8487 255.523 66.6087L255.643 66.4887C256.803 65.3287 258.123 64.0087 258.123 61.8787C258.123 60.7087 258.293 60.4987 258.303 60.4987C258.503 60.3287 259.743 60.3287 260.143 60.3287H266.913C267.263 60.3287 267.643 60.3287 268.053 60.3487C270.143 60.3987 272.753 60.4587 274.523 59.4687C275.293 59.0387 276.363 58.8487 277.393 58.6687C277.813 58.5887 278.223 58.5187 278.623 58.4287C279.363 58.2687 280.063 57.9887 280.733 57.7187C281.443 57.4287 282.113 57.1587 282.733 57.0787C283.943 56.9087 284.873 56.4387 285.693 56.0287C287.023 55.3587 287.603 55.1187 288.723 55.7387C289.703 56.2887 290.793 56.7487 291.843 57.1987C292.623 57.5287 293.423 57.8687 294.143 58.2387C296.303 59.3187 299.233 60.1487 302.073 60.8787C302.493 60.9887 303.083 61.2387 303.703 61.5087C305.753 62.3987 308.573 63.5987 310.433 61.7487C311.183 60.9987 312.563 59.4987 313.453 57.8187C313.593 57.5587 314.133 56.9387 314.563 56.4387C315.953 54.8487 317.253 53.3487 316.893 51.9687L316.883 51.9787ZM281.173 84.3487C281.783 83.8087 282.463 83.2087 282.933 82.3687C283.413 81.4987 284.183 80.7387 284.993 79.9287C285.263 79.6587 285.523 79.3987 285.783 79.1187C286.333 78.5387 286.953 77.5787 287.733 76.3487C289.013 74.3487 291.403 70.6287 292.813 70.6287C293.933 70.6287 295.433 71.1187 295.883 71.8387C295.963 71.9587 296.163 72.2887 295.793 73.0187C295.543 73.5187 295.283 74.0587 295.013 74.6287C293.543 77.6887 291.533 81.8887 288.933 83.3387C286.483 84.6987 284.613 86.7687 282.863 88.8987C282.753 88.4187 282.613 87.9887 282.453 87.6087C282.433 87.5287 282.433 87.4487 282.423 87.3587C282.383 86.9387 282.323 86.3187 281.853 85.7387C281.753 85.6187 281.463 85.3087 281.113 84.9687C281.033 84.8887 280.923 84.7787 280.813 84.6687C280.933 84.5587 281.043 84.4587 281.173 84.3387V84.3487ZM283.663 39.5887C283.773 39.4587 283.893 39.3287 284.033 39.1887C284.693 38.5287 284.963 37.5687 285.183 36.6387C285.203 36.5387 285.293 36.3587 285.383 36.1887C285.593 35.7787 285.843 35.2687 285.843 34.6187C285.843 33.4587 285.723 32.5087 285.453 31.5287C285.423 31.4187 285.413 31.2987 285.413 31.1187C285.413 31.0587 285.413 30.9787 285.413 30.9087C288.613 30.8087 291.983 30.1287 294.303 29.5987C295.593 29.2987 297.103 29.2187 298.703 29.1287C301.143 28.9887 303.663 28.8487 305.743 27.9187C306.653 27.5087 307.763 27.3687 308.933 27.2087C310.033 27.0587 311.173 26.9087 312.273 26.5287C312.733 27.8987 313.073 31.5887 313.073 33.3187C313.073 33.4087 313.083 33.6187 313.103 33.8987C313.203 35.3287 313.203 36.0987 313.173 36.5187C313.003 36.5487 312.833 36.5787 312.653 36.6087C312.233 36.6787 311.803 36.7487 311.393 36.8587C308.283 37.7487 305.593 38.2387 303.823 38.2387C302.143 38.2387 300.563 38.6087 299.033 38.9687C297.553 39.3187 296.153 39.6387 294.713 39.6387H288.673C288.233 39.4787 287.763 39.3987 287.303 39.3987C287.003 39.3987 286.723 39.4887 286.493 39.6387H283.633C283.633 39.6387 283.663 39.6087 283.683 39.5887H283.663ZM275.443 32.5587C275.633 32.2987 275.743 32.0387 275.833 31.8187C275.863 31.7487 275.893 31.6687 275.923 31.6087C276.123 31.4887 276.583 31.1787 276.963 30.8087C278.933 30.8587 280.903 30.8887 282.883 30.9087C282.883 30.9087 282.883 30.9287 282.893 30.9287C282.893 30.9687 282.893 31.0787 282.903 31.1687C282.903 31.4287 282.913 31.7787 283.033 32.1987C283.243 32.9587 283.333 33.6787 283.333 34.6087C283.333 34.6887 283.213 34.9187 283.133 35.0687C282.993 35.3487 282.833 35.6687 282.743 36.0587C282.673 36.3687 282.473 37.1987 282.263 37.4187C282.083 37.5987 281.933 37.7687 281.783 37.9387C281.633 38.1087 281.493 38.2787 281.283 38.4587C281.193 38.5487 281.083 38.6187 280.973 38.6987C280.733 38.8687 280.433 39.0787 280.183 39.3787C279.863 39.5387 278.823 39.5387 278.433 39.3587C277.663 39.0187 277.353 38.6687 276.743 37.9787L276.393 37.5887C276.303 37.4887 276.183 37.1587 276.183 36.7487C276.183 36.2787 276.033 35.8887 275.903 35.5687C275.863 35.4687 275.803 35.3187 275.793 35.2887C275.793 34.9387 275.713 34.5387 275.623 34.0687C275.543 33.6687 275.393 32.8587 275.433 32.5387L275.443 32.5587ZM272.643 30.6987C272.953 30.6987 273.273 30.7187 273.593 30.7287C273.573 30.7687 273.553 30.8087 273.543 30.8487C273.503 30.9387 273.473 31.0287 273.433 31.0987C272.703 32.0187 272.963 33.3687 273.183 34.5687C273.233 34.8387 273.303 35.1987 273.303 35.3187C273.303 35.7987 273.463 36.2187 273.583 36.5187C273.623 36.6187 273.683 36.7587 273.683 36.7787C273.683 37.7587 274.003 38.6887 274.543 39.2887L274.873 39.6587H271.903C271.003 39.6387 269.973 39.6187 268.903 40.1587C267.673 40.7787 266.473 41.4387 265.313 42.0787C263.923 42.8487 262.483 43.6387 260.983 44.3487C260.253 44.6987 259.373 44.8187 258.443 44.9487C256.953 45.1587 255.273 45.3887 253.993 46.6687C252.003 48.6587 250.283 51.1187 249.173 53.5787C248.873 54.2287 248.483 54.9287 248.063 55.6787C247.213 57.1987 246.283 58.8687 245.933 60.6187C245.523 60.4587 245.103 60.3087 244.653 60.1487C243.473 59.7487 242.003 59.2487 241.483 58.5887C240.923 57.8887 239.463 56.9687 237.973 56.2387C238.763 54.6287 239.463 53.0087 240.133 51.4387C241.843 47.4387 243.453 43.6587 246.553 40.3787C250.303 36.3987 255.403 33.2887 260.423 30.4587C260.483 30.4587 260.533 30.4887 260.583 30.4887C264.623 30.4887 268.693 30.6087 272.633 30.7187L272.643 30.6987ZM266.733 15.4687C268.503 14.0887 270.613 12.6287 272.833 11.2287C274.173 10.3887 275.413 9.38871 276.613 8.41871C277.743 7.50871 278.923 6.55871 280.153 5.76871C281.293 5.03871 282.693 4.76871 284.173 4.47871C284.663 4.37871 285.153 4.28871 285.633 4.16871C286.343 3.99871 286.983 3.78871 287.603 3.57871C288.693 3.21871 289.643 2.89871 290.723 2.89871C291.863 2.89871 292.113 3.18871 292.863 4.04871C293.113 4.33871 293.383 4.64871 293.713 4.96871C294.063 5.31871 294.333 5.79871 294.633 6.30871C294.913 6.79871 295.203 7.29871 295.593 7.79871C295.863 8.13871 295.993 8.35871 296.053 8.47871C295.873 8.61871 295.543 8.81871 295.293 8.96871C295.043 9.11871 294.773 9.27871 294.483 9.46871C292.103 11.0287 289.483 12.2487 286.953 13.4287C284.673 14.4887 282.313 15.5887 280.143 16.9287L279.363 17.4087C278.103 18.1987 276.533 19.1787 275.333 19.6187C274.983 19.7487 274.583 19.8687 274.163 19.9987C272.783 20.4187 271.213 20.8887 270.153 21.8387C269.833 22.1287 269.363 22.3287 268.863 22.5587C268.293 22.8087 267.653 23.0987 267.073 23.5587C266.553 23.9687 265.933 24.3987 265.263 24.8187C265.393 24.5287 265.503 24.2287 265.573 23.8887C265.823 22.7587 265.803 21.6187 265.793 20.5287C265.793 20.2687 265.793 20.0187 265.793 19.7587C265.793 18.7287 265.173 17.3087 264.603 16.3587C265.363 16.2187 266.103 15.9587 266.753 15.4487L266.733 15.4687ZM254.133 20.8987C255.793 17.5687 257.423 16.4487 260.593 16.4487C260.803 16.4487 261.023 16.4587 261.253 16.4687C261.563 16.6287 261.893 16.8887 262.153 17.2087C262.633 17.8087 263.273 19.2687 263.273 19.7587C263.273 20.0287 263.273 20.2987 263.273 20.5587C263.283 21.5587 263.303 22.4987 263.113 23.3387C262.913 24.2287 262.203 24.9287 261.443 25.6687L261.163 25.9487C258.293 28.8187 257.143 27.8987 256.703 27.5487C256.223 27.1587 255.333 26.0987 254.983 25.4787C254.783 25.1287 254.523 24.8487 254.303 24.6087C254.143 24.4387 254.003 24.2787 253.933 24.1487C253.753 23.8287 253.773 23.2487 253.793 22.6887C253.793 22.5087 253.803 22.3287 253.803 22.1587C253.803 21.9687 253.753 21.7987 253.683 21.6387C253.833 21.3887 254.003 21.1487 254.133 20.8787V20.8987ZM224.573 46.4487L230.383 40.6387C231.483 39.5387 232.633 38.4587 233.743 37.4087C234.843 36.3687 235.993 35.2887 237.083 34.1987C238.903 32.3887 241.363 31.0087 243.973 29.5487C246.613 28.0787 249.303 26.5487 251.423 24.4987C251.493 24.7987 251.593 25.0987 251.753 25.3887C251.963 25.7787 252.233 26.0687 252.473 26.3287C252.613 26.4787 252.763 26.6387 252.823 26.7487C253.283 27.5487 254.343 28.8787 255.153 29.5287C255.413 29.7387 255.723 29.9187 256.043 30.0787C251.923 32.5287 247.923 35.2687 244.743 38.6387C241.343 42.2387 239.563 46.4087 237.843 50.4387C237.253 51.8187 236.633 53.2387 235.973 54.6287C235.933 54.6287 235.893 54.5987 235.843 54.5987C234.773 54.5987 233.693 54.5587 232.613 54.5187C229.073 54.3887 225.453 54.2687 222.143 55.4287C222.143 55.1587 222.143 54.8687 222.143 54.6087C222.093 50.9887 222.063 48.9887 224.593 46.4587L224.573 46.4487ZM155.633 153.329L155.763 153.099C158.453 148.159 161.003 143.489 163.183 138.439C164.103 136.299 165.673 134.439 167.333 132.479C168.983 130.519 170.703 128.499 171.783 126.109C173.013 123.409 175.693 119.859 179.753 115.549C181.043 114.179 182.063 112.589 183.043 111.059C184.043 109.499 184.983 108.029 186.183 106.789C186.623 106.329 187.063 105.859 187.493 105.399C188.833 103.969 190.093 102.619 191.573 101.409C193.823 99.5687 195.103 97.1487 196.333 94.7987C197.363 92.8387 198.343 90.9887 199.843 89.4887C201.413 87.9187 207.783 82.3587 210.573 80.4787C211.183 81.8587 211.943 83.1887 212.693 84.5087L212.793 84.6887C213.143 85.3087 213.693 86.0287 214.313 86.7587C212.883 87.7987 211.573 89.1587 210.813 89.9987C210.303 90.5687 209.743 91.1087 209.153 91.6887C208.343 92.4787 207.513 93.2887 206.763 94.2087C205.963 95.1887 205.183 96.2187 204.433 97.2187C203.413 98.5787 202.363 99.9787 201.253 101.229C197.433 105.559 194.253 110.379 191.173 115.039C189.693 117.279 188.163 119.599 186.583 121.829C185.363 123.549 184.353 125.399 183.373 127.179C182.713 128.379 182.033 129.619 181.293 130.799C179.303 133.999 177.183 137.209 175.123 140.309C173.043 143.449 170.903 146.689 168.873 149.949C167.003 152.959 163.883 159.229 162.333 162.419C159.633 161.939 157.083 161.549 154.083 161.549C153.413 161.549 152.753 161.649 152.093 161.829C152.903 158.529 153.663 156.919 155.623 153.329H155.633ZM216.033 88.6087C216.593 89.1587 217.123 89.6487 217.543 89.9787C219.103 91.2287 220.463 92.1487 221.713 92.8087C221.793 92.8487 221.893 92.9187 222.003 92.9887C220.933 95.3287 218.993 99.0387 218.413 100.029C217.933 100.849 217.363 101.679 216.743 102.549C215.713 104.019 214.653 105.539 213.993 107.179C213.703 107.899 213.203 108.589 212.673 109.319C212.023 110.219 211.343 111.139 210.943 112.269C210.663 113.069 210.173 113.699 209.613 114.429C209.413 114.689 209.213 114.949 209.023 115.219C208.483 115.969 208.013 116.759 207.563 117.519C207.083 118.329 206.633 119.089 206.103 119.789C204.583 121.829 203.243 124.019 201.943 126.119C200.763 128.029 199.543 130.009 198.223 131.839L197.453 132.889C196.103 134.739 194.703 136.659 193.503 138.709C193.013 139.529 192.403 140.289 191.743 141.079C191.023 141.959 190.273 142.869 189.663 143.939C186.713 149.099 182.853 153.829 179.123 158.399C176.793 161.259 174.393 164.219 172.193 167.279C170.033 165.659 167.633 163.919 164.813 162.989C166.413 159.729 169.263 154.009 170.993 151.239C172.993 148.009 175.133 144.779 177.203 141.659C179.263 138.539 181.393 135.319 183.403 132.089C184.173 130.849 184.873 129.579 185.553 128.349C186.543 126.549 187.473 124.849 188.613 123.249C190.213 120.989 191.753 118.659 193.243 116.399C196.273 111.809 199.403 107.059 203.113 102.869C204.283 101.539 205.373 100.099 206.413 98.6987C207.153 97.7187 207.913 96.7087 208.673 95.7687C209.343 94.9587 210.123 94.1887 210.883 93.4487C211.473 92.8687 212.083 92.2687 212.653 91.6487C213.823 90.3487 215.003 89.2787 216.023 88.5787L216.033 88.6087ZM121.533 154.809C122.493 152.999 122.363 151.829 122.213 150.589C122.213 150.539 122.213 150.489 122.193 150.439C122.263 150.489 122.343 150.529 122.413 150.579C122.793 150.819 123.183 151.069 123.633 151.249C126.863 152.519 130.093 154.319 133.223 156.069L142.203 160.979C142.393 161.089 145.453 162.759 147.963 163.699C147.343 164.069 146.743 164.449 146.163 164.819C145.533 165.219 144.933 165.599 144.373 165.919C142.523 166.969 140.883 168.369 139.453 169.989C136.663 168.359 134.963 167.509 132.213 166.649C131.753 166.509 131.303 166.369 130.843 166.229C129.193 165.729 127.633 165.259 126.153 164.609C125.023 164.119 123.873 163.689 122.773 163.279C121.243 162.709 119.803 162.179 118.403 161.479C118.143 161.349 117.883 161.179 117.633 161.009C119.223 158.659 120.403 156.889 121.513 154.809H121.533ZM117.923 148.319C118.013 148.419 118.103 148.529 118.213 148.629C118.663 149.049 119.133 149.369 119.633 149.609C119.653 150.079 119.693 150.509 119.733 150.879C119.853 151.939 119.923 152.519 119.323 153.649C118.313 155.549 117.213 157.219 115.743 159.389C115.623 159.279 115.513 159.179 115.393 159.069C114.743 158.489 113.583 157.999 112.563 157.569C112.183 157.409 111.843 157.269 111.593 157.139C111.083 156.889 110.583 156.589 110.083 156.279C110.253 155.569 110.653 154.819 111.153 153.869C111.533 153.159 111.953 152.359 112.373 151.399L112.713 151.009C114.073 149.409 114.673 148.719 117.913 148.309L117.923 148.319ZM39.0631 109.319C40.1131 110.449 41.0231 111.429 41.9731 111.909L81.8331 128.919L115.223 146.159L115.383 146.239C113.083 146.839 112.133 147.839 110.813 149.389L110.243 150.059L110.163 150.239C109.753 151.179 109.333 151.989 108.953 152.709C108.553 153.459 108.193 154.159 107.923 154.859C107.813 154.779 107.703 154.709 107.593 154.639C105.703 153.339 103.753 151.999 101.623 151.229C100.753 150.909 98.2132 149.419 97.8232 148.939C97.0331 147.949 93.1831 145.649 91.9431 145.419C91.7931 145.389 91.5631 145.259 91.3431 145.129C90.8932 144.869 90.3332 144.549 89.6132 144.549C88.1932 144.549 86.3531 144.479 84.6432 143.959C79.5432 142.409 75.6132 141.129 71.4931 138.839C70.9831 138.549 70.5432 138.259 70.1331 137.989C69.1031 137.309 68.0432 136.609 66.3531 136.299C65.6432 136.169 64.9431 135.519 64.2031 134.819C63.6631 134.319 63.1131 133.799 62.4731 133.409C62.0531 133.159 61.5631 132.899 61.0531 132.629C60.0731 132.119 58.9631 131.539 58.4231 130.939C57.9231 130.389 57.2831 130.109 56.7231 129.859C56.4731 129.749 56.0431 129.559 55.9531 129.449C55.2631 128.379 53.8931 127.579 53.3331 127.279C52.2431 126.699 51.0931 126.199 49.9831 125.709C49.2931 125.409 48.6031 125.099 47.9231 124.779C46.2231 123.979 44.0131 123.599 42.5131 123.519C41.8531 123.479 41.2131 123.139 40.4731 122.749C40.1631 122.579 39.8331 122.409 39.4931 122.259C39.5131 122.199 39.5331 122.139 39.5431 122.079C39.6431 121.749 39.7431 121.409 39.8331 121.079C40.1931 119.829 39.9431 118.759 39.7431 117.889C39.6631 117.519 39.5731 117.169 39.5631 116.859C39.4931 115.629 38.6531 111.409 37.8731 108.039C38.2831 108.459 38.6931 108.889 39.0831 109.309L39.0631 109.319ZM19.4031 144.049C18.8931 144.279 17.8531 144.209 17.0231 144.159C16.6131 144.129 16.2231 144.109 15.8731 144.109C15.6931 144.109 15.5231 144.149 15.3631 144.219C12.4931 144.049 10.7831 143.519 10.2931 142.599C9.72314 141.529 8.54314 140.359 7.18314 138.999C5.69314 137.519 3.45314 135.289 3.45314 134.149V128.909C3.45314 128.219 3.65314 127.549 3.87314 126.839C4.10314 126.089 4.35314 125.239 4.39314 124.289L4.42314 123.309C4.53314 120.039 4.63314 116.939 6.02314 114.169C7.41314 111.399 8.87314 109.229 10.5931 107.509C11.2631 106.849 11.8731 106.169 12.4831 105.499C14.1931 103.619 15.6731 101.989 17.9431 100.959C20.9631 99.5887 25.6631 99.9787 29.6331 101.929C32.6031 103.389 34.6231 105.519 35.2431 107.779C36.0631 111.219 37.0131 115.939 37.0731 117.009C37.1031 117.519 37.2131 117.989 37.3131 118.449C37.4731 119.159 37.6131 119.769 37.4331 120.399C37.3431 120.719 37.2431 121.039 37.1531 121.359C36.7431 122.709 36.3231 124.099 36.2431 125.529C36.1631 127.039 35.0631 128.999 34.1031 130.719C33.7631 131.329 33.4331 131.919 33.1631 132.459C31.8131 135.159 29.6931 138.159 27.7131 140.189C27.2631 140.489 26.5331 140.919 25.3631 141.529L25.1231 141.649C24.9231 141.749 24.6631 141.839 24.3731 141.929C24.2231 141.979 24.0831 142.029 23.9331 142.079C23.7231 142.159 23.4831 142.269 23.2431 142.389C23.0831 142.469 22.8031 142.609 22.7131 142.629C21.8531 142.739 20.9731 143.209 20.2031 143.629C19.9131 143.789 19.6431 143.939 19.3931 144.049H19.4031ZM114.723 183.599C114.653 183.579 114.593 183.549 114.533 183.529C113.443 183.219 112.423 182.719 111.333 182.189C109.673 181.379 107.953 180.549 105.833 180.289L84.8831 173.729L64.3131 164.009L54.8931 160.349C51.5231 158.209 43.0931 155.649 36.0931 153.649L35.8931 153.589C34.0731 153.069 25.7131 148.699 20.9431 146.079C21.0931 145.999 21.2531 145.919 21.4031 145.829C21.9531 145.529 22.6431 145.159 23.0331 145.109C23.5131 145.049 23.9631 144.829 24.3531 144.639C24.5031 144.569 24.6531 144.489 24.7831 144.439C24.9031 144.399 25.0331 144.359 25.1531 144.319C25.5031 144.209 25.9031 144.079 26.2931 143.869L26.5231 143.749C27.4331 143.269 28.2031 142.839 28.8431 142.429C29.0131 142.369 29.1631 142.279 29.3031 142.149C29.3331 142.119 29.3531 142.089 29.3831 142.069C29.9831 141.629 30.4131 141.219 30.6231 140.789C30.6431 140.749 30.6431 140.709 30.6531 140.669C32.4331 138.589 34.2031 135.969 35.4031 133.569C35.6131 133.159 35.8531 132.719 36.1031 132.259C40.1831 132.819 44.9131 135.019 47.5031 137.609C49.8631 139.969 53.0031 142.139 56.3231 143.719C58.0331 144.529 59.7031 145.549 61.3231 146.549C63.1531 147.669 65.0432 148.829 67.0631 149.729C67.7932 150.059 68.6231 150.079 69.3531 150.099C69.7932 150.109 70.2531 150.119 70.5531 150.209C72.3631 150.699 74.0732 151.379 75.8831 152.099L77.0131 152.549C78.0831 152.969 79.1731 153.479 80.3232 154.009C82.3831 154.969 84.5131 155.949 86.6731 156.489C87.2232 156.629 87.7531 156.899 88.3031 157.189C89.1231 157.619 90.0531 158.099 91.2231 158.199C92.9231 158.349 94.7331 159.379 96.4731 160.369C97.6531 161.039 98.8831 161.739 100.123 162.199C101.093 162.559 102.043 162.989 103.043 163.449C104.373 164.059 105.763 164.689 107.193 165.129C109.253 165.759 110.893 166.879 112.633 168.069C113.553 168.699 114.503 169.349 115.553 169.939C116.413 170.429 117.473 170.839 118.493 171.229C119.823 171.739 121.193 172.269 121.993 172.929C122.183 173.089 122.393 173.249 122.603 173.399C122.503 173.419 122.393 173.439 122.293 173.469C121.003 173.839 119.983 174.819 119.083 175.679C118.753 175.999 118.433 176.299 118.123 176.559C116.923 177.519 114.793 180.369 114.733 183.599H114.723ZM121.983 187.009C121.903 187.009 121.833 187.039 121.763 187.049C121.073 186.849 120.383 186.639 119.693 186.379C118.983 186.119 118.283 185.639 117.543 185.139C117.493 185.099 117.433 185.069 117.383 185.029C117.383 185.009 117.383 184.999 117.383 184.979C116.573 182.099 118.933 179.099 119.673 178.509C120.063 178.199 120.433 177.839 120.803 177.489C121.533 176.789 122.283 176.069 122.973 175.879C123.543 175.719 124.083 175.899 124.913 176.199C125.463 176.399 126.083 176.629 126.793 176.719C127.663 176.819 127.943 177.249 128.093 177.599C128.593 178.809 128.033 180.869 127.203 181.909L127.003 182.169C123.533 186.539 122.343 187.009 122.003 187.009H121.983ZM133.943 192.589C133.603 192.359 133.253 192.129 132.903 191.889C131.743 191.099 130.543 190.279 129.233 189.619C127.823 188.899 126.433 188.419 125.063 188.009C126.243 186.989 127.523 185.519 128.943 183.739L129.143 183.489C130.043 182.369 130.693 180.619 130.743 178.919C132.033 179.479 133.423 179.929 134.133 180.019C132.983 184.189 132.843 188.609 133.943 192.599V192.589ZM134.893 177.649C134.733 177.579 134.563 177.529 134.373 177.529C133.703 177.469 130.473 176.169 129.963 175.729C129.003 174.519 127.463 173.559 125.963 172.639C125.063 172.079 124.213 171.549 123.573 171.019C122.453 170.089 120.883 169.489 119.363 168.899C118.393 168.529 117.473 168.169 116.773 167.779C115.813 167.229 114.903 166.609 114.023 166.009C112.203 164.769 110.323 163.489 107.913 162.749C106.633 162.359 105.383 161.789 104.063 161.179C103.063 160.719 102.023 160.249 100.973 159.859C99.9231 159.469 98.8331 158.849 97.6931 158.199C95.7131 157.069 93.6731 155.909 91.4231 155.709C90.7532 155.649 90.1431 155.339 89.4431 154.969C88.8131 154.649 88.1031 154.279 87.2731 154.069C85.3431 153.589 83.3231 152.649 81.3731 151.739C80.2431 151.209 79.0732 150.669 77.9231 150.219L76.8031 149.779C75.0031 149.059 73.1431 148.319 71.1931 147.799C70.6031 147.639 70.0031 147.619 69.4131 147.609C68.9231 147.599 68.3531 147.579 68.0831 147.459C66.2131 146.619 64.3931 145.499 62.6231 144.419C60.9431 143.389 59.2131 142.329 57.3831 141.469C54.3531 140.029 51.3931 137.989 49.2631 135.849C46.4731 133.059 41.7431 130.749 37.3531 129.939C38.0631 128.539 38.6531 127.069 38.7231 125.669C38.7431 125.359 38.7831 125.049 38.8431 124.729C38.9831 124.799 39.1331 124.879 39.2731 124.959C40.1531 125.429 41.1431 125.959 42.3531 126.029C43.9231 126.119 45.7231 126.529 46.8331 127.059C47.5331 127.389 48.2431 127.699 48.9531 128.019C50.0231 128.489 51.1331 128.979 52.1431 129.509C52.8931 129.909 53.5831 130.449 53.8331 130.829C54.3031 131.549 55.0731 131.889 55.6831 132.159C56.0131 132.309 56.3931 132.479 56.5331 132.629C57.3731 133.569 58.7031 134.259 59.8631 134.869C60.3231 135.109 60.7631 135.339 61.1331 135.569C61.5531 135.819 61.9931 136.239 62.4531 136.669C63.3831 137.539 64.4332 138.519 65.8632 138.779C67.0432 138.999 67.7431 139.459 68.7132 140.099C69.1532 140.389 69.6532 140.719 70.2431 141.049C74.5732 143.449 78.8031 144.829 83.8831 146.369C85.8932 146.979 87.9731 147.069 89.5431 147.069H89.5631C89.6531 147.079 89.9031 147.229 90.0631 147.319C90.4332 147.529 90.8932 147.789 91.4531 147.899C92.1731 148.059 95.3331 149.949 95.8331 150.519C96.6831 151.579 99.9031 153.289 100.733 153.589C102.563 154.259 104.303 155.449 106.143 156.709C106.673 157.069 107.203 157.429 107.743 157.789C107.913 157.999 108.133 158.149 108.403 158.219C109.073 158.639 109.753 159.049 110.453 159.399C110.743 159.539 111.133 159.709 111.573 159.899C112.283 160.199 113.363 160.649 113.703 160.959C113.893 161.129 114.093 161.309 114.283 161.489C115.173 162.309 116.093 163.169 117.273 163.759C118.793 164.519 120.363 165.099 121.883 165.669C122.963 166.069 124.073 166.479 125.133 166.949C126.743 167.659 128.453 168.169 130.093 168.669C130.543 168.809 130.993 168.939 131.443 169.079C133.833 169.829 135.313 170.539 137.863 172.009C136.633 173.749 135.623 175.659 134.863 177.679L134.893 177.649ZM174.943 180.859C174.893 181.059 174.853 181.249 174.803 181.449C174.723 181.809 174.643 182.219 174.553 182.659C174.293 183.989 173.963 185.649 173.493 186.529C172.993 187.459 172.203 188.329 171.373 189.259C170.693 190.009 169.993 190.789 169.413 191.639C168.053 193.639 167.103 194.459 166.533 194.799C165.423 195.459 164.473 196.209 163.543 196.929C161.533 198.499 159.793 199.859 157.133 199.859C155.893 199.859 154.603 200.099 153.363 200.329C152.133 200.559 150.863 200.789 149.663 200.789C146.623 200.789 144.153 199.029 141.543 197.159C140.183 196.189 138.783 195.179 137.283 194.459C133.173 185.639 137.153 172.949 145.643 168.099C146.233 167.759 146.863 167.359 147.533 166.939C149.653 165.589 152.063 164.059 154.103 164.059C157.143 164.059 159.623 164.469 162.543 164.999C165.743 165.579 168.433 167.609 171.033 169.559L171.463 169.879C172.953 170.989 173.413 172.849 173.903 174.809C174.193 175.969 174.493 177.179 175.023 178.289C175.363 179.009 175.223 179.699 174.943 180.859ZM227.583 100.639C227.343 101.189 226.863 101.859 226.403 102.519C225.733 103.469 225.103 104.369 224.853 105.269C223.853 108.779 220.773 112.509 218.193 115.359C217.263 116.389 216.703 117.579 216.163 118.729C215.833 119.419 215.533 120.069 215.163 120.659C214.193 122.199 213.263 123.829 212.373 125.399C211.133 127.589 209.843 129.849 208.413 131.909C207.673 132.969 207.033 134.079 206.403 135.159C205.613 136.509 204.873 137.789 203.953 138.999C202.973 140.299 201.973 141.569 200.983 142.849C198.443 146.109 195.823 149.479 193.473 153.059C192.573 154.429 191.663 155.829 190.743 157.249C186.493 163.829 182.103 170.599 176.833 176.079C176.643 175.479 176.473 174.849 176.313 174.199C175.873 172.449 175.373 170.519 174.083 168.979C176.273 165.909 178.703 162.909 181.063 160.019C184.853 155.369 188.783 150.559 191.833 145.219C192.333 144.339 192.983 143.549 193.673 142.709C194.353 141.879 195.063 141.009 195.653 140.019C196.803 138.079 198.103 136.289 199.473 134.409L200.243 133.349C201.623 131.439 202.863 129.429 204.063 127.479C205.333 125.419 206.653 123.279 208.103 121.319C208.703 120.509 209.213 119.659 209.703 118.829C210.143 118.079 210.563 117.379 211.043 116.709C211.223 116.459 211.413 116.219 211.593 115.979C212.223 115.159 212.873 114.309 213.293 113.129C213.573 112.339 214.113 111.599 214.683 110.819C215.283 109.999 215.903 109.149 216.303 108.129C216.853 106.759 217.833 105.359 218.783 103.999C219.393 103.119 220.033 102.209 220.563 101.289C221.133 100.299 222.933 96.8687 224.073 94.4287C224.563 94.7087 225.013 94.8987 225.473 94.9187C226.263 94.9687 227.093 95.3187 227.963 95.6987C228.413 95.8887 228.893 96.0887 229.393 96.2687C228.653 98.0687 227.903 99.8687 227.563 100.639H227.583ZM267.083 88.6487C267.083 88.6487 267.103 88.5887 267.123 88.5587C267.603 88.2087 268.063 87.7887 268.503 87.3887C268.883 87.0387 269.363 86.5987 269.593 86.4787C270.443 86.0287 271.153 86.0387 272.363 86.0487H272.953C273.253 86.0487 273.773 86.1087 274.313 86.1587C275.613 86.2887 276.993 86.4187 278.173 86.2487C278.383 86.4687 278.653 86.7487 279.013 87.1087C279.183 87.2787 279.333 87.4287 279.433 87.5287C279.433 87.5787 279.433 87.6187 279.443 87.6687C279.473 87.9587 279.513 88.3687 279.703 88.7987C280.013 89.4887 280.173 90.6387 280.193 92.1787C279.283 93.2387 278.363 94.2287 277.333 95.0487C276.993 95.3187 276.643 95.6087 276.293 95.9087C274.443 97.4487 272.533 99.0487 270.183 99.4387C269.823 99.4987 269.433 99.5287 269.033 99.5387C268.933 99.5087 268.843 99.4687 268.733 99.4587C267.853 99.0687 265.933 95.7587 265.813 94.9287C265.813 94.1787 265.743 93.5987 265.683 93.0887C265.533 91.7587 265.453 91.0887 267.083 88.6687V88.6487ZM253.953 85.5587C254.263 85.7187 254.533 85.8687 254.783 86.0087C255.663 86.5087 256.493 86.9887 258.013 86.9887C259.273 86.9887 260.423 87.5287 261.643 88.0987C262.373 88.4387 263.113 88.7887 263.923 89.0487C262.983 90.8787 263.023 91.9587 263.183 93.3687C263.233 93.8387 263.293 94.3187 263.293 94.9287C263.293 95.6987 264.153 97.7487 265.343 99.4387C265.153 99.4187 264.793 99.3187 264.503 99.2287C263.353 98.8987 261.623 98.3987 260.423 99.5987C258.963 101.059 256.193 102.629 254.093 102.709C252.583 102.769 251.183 103.109 249.833 103.439C248.403 103.789 247.063 104.109 245.633 104.109C244.003 104.109 242.753 103.179 240.683 101.639C239.883 101.049 238.983 100.369 237.913 99.6487C237.433 99.3287 236.973 99.0287 236.533 98.7387C235.403 97.9987 234.423 97.3487 233.673 96.6987C235.083 96.5087 236.213 96.0787 237.403 95.6287C238.103 95.3687 238.823 95.0887 239.643 94.8587C242.063 94.1687 244.023 91.6487 245.603 89.6287C245.873 89.2787 246.133 88.9587 246.363 88.6687C247.443 87.3487 248.303 85.8887 249.043 84.3687C249.263 84.5487 249.523 84.6687 249.833 84.6687C251.573 84.6687 252.573 84.8887 253.943 85.5787L253.953 85.5587ZM249.623 76.4987C249.373 77.1287 249.123 77.7587 248.873 78.3987C247.673 81.4687 246.433 84.6487 244.443 87.0787C244.193 87.3787 243.923 87.7287 243.643 88.0887C242.363 89.7387 240.603 91.9887 238.973 92.4587C238.053 92.7187 237.283 93.0087 236.533 93.2987C235.033 93.8587 233.853 94.3087 232.103 94.3087L230.823 94.1087C230.203 93.9387 229.603 93.6887 228.983 93.4187C227.943 92.9687 226.873 92.5087 225.693 92.4387C225.403 92.3687 224.593 91.7787 224.163 91.4587C223.703 91.1187 223.273 90.8087 222.893 90.5987C221.793 90.0187 220.553 89.1787 219.123 88.0287C218.683 87.6787 218.133 87.1687 217.573 86.5987L216.773 85.7587C216.023 84.9287 215.343 84.0787 214.983 83.4587L214.883 83.2787C213.993 81.7187 213.153 80.2487 212.583 78.7687L212.263 77.8287C211.683 75.9087 211.633 73.9487 212.603 71.7687C213.003 70.8587 213.223 69.7687 213.423 68.7087C213.733 67.1387 214.043 65.5087 214.923 64.7587C215.843 63.9687 216.623 63.0387 217.373 62.1387C218.233 61.1187 219.043 60.1487 220.043 59.3687C222.663 57.3287 225.833 56.9287 229.243 56.9287C230.323 56.9287 231.423 56.9687 232.533 57.0087C232.833 57.0187 233.143 57.0287 233.443 57.0387C233.673 57.3487 234.033 57.5487 234.453 57.5587C235.333 57.5587 238.953 59.3887 239.553 60.1287C240.533 61.3587 242.303 61.9587 243.873 62.4987C244.443 62.6887 244.973 62.8787 245.393 63.0587C250.463 65.3187 251.553 71.7887 249.643 76.4987H249.623ZM282.363 54.6287C281.453 54.7587 280.603 55.0987 279.783 55.4287C279.173 55.6687 278.603 55.8987 278.063 56.0187C277.703 56.0987 277.323 56.1687 276.933 56.2387C275.753 56.4487 274.423 56.6887 273.283 57.3187C272.103 57.9787 269.783 57.9187 268.083 57.8787C267.653 57.8687 267.253 57.8587 266.883 57.8587H260.113C257.463 57.8587 255.593 58.1487 255.593 61.9087C255.593 62.9487 254.963 63.6287 253.843 64.7487L253.723 64.8687C253.453 65.1387 253.183 65.4287 252.913 65.7187C252.603 66.0587 252.283 66.3987 251.983 66.6887C251.223 64.7987 249.993 63.1187 248.283 61.8787C248.293 60.3287 249.283 58.5687 250.233 56.8787C250.673 56.0887 251.103 55.3387 251.443 54.5887C252.423 52.4287 253.993 50.1787 255.753 48.4187C256.433 47.7387 257.523 47.5787 258.783 47.4087C259.813 47.2687 260.973 47.0987 262.053 46.5887C263.613 45.8487 265.083 45.0287 266.513 44.2487C267.653 43.6187 268.823 42.9687 270.013 42.3787C270.533 42.1187 271.083 42.1287 271.853 42.1387H279.383C279.233 42.7187 279.183 43.2887 279.153 43.6787C279.123 44.0087 279.103 44.3187 279.053 44.5287C279.023 44.6687 278.923 44.8587 278.823 45.0687C278.583 45.5487 278.253 46.2087 278.253 47.0687C278.253 48.0787 278.293 49.1587 278.733 50.3687C278.793 50.5287 280.223 54.3787 282.723 54.5487C282.603 54.5787 282.493 54.6087 282.363 54.6287ZM288.953 50.5987L288.703 51.0287C288.443 51.3687 287.263 52.0687 286.893 52.1287H284.683C284.633 52.1287 284.473 52.0387 284.363 51.9887C284.033 51.8287 283.593 51.6087 283.003 51.5587C282.643 51.3587 281.893 50.2887 281.543 49.3487C281.293 48.6687 281.243 47.9987 281.243 47.0687C281.243 46.9087 281.343 46.7187 281.493 46.3987C281.653 46.0687 281.853 45.6687 281.963 45.1687C282.053 44.7587 282.093 44.3287 282.123 43.9087C282.153 43.5687 282.193 43.0287 282.273 42.7787C282.773 42.7787 283.203 42.5187 283.473 42.1287H286.423C286.663 42.2887 286.953 42.3887 287.263 42.3887C287.483 42.3887 287.793 42.4987 287.963 42.6387C288.023 42.6887 288.093 42.7587 288.173 42.8287C288.663 43.2987 289.223 43.8287 289.933 43.9087C290.273 44.1387 290.593 45.6987 290.413 46.6887C290.263 47.5187 289.923 48.6387 289.603 49.3487C289.413 49.7687 289.193 50.1487 288.933 50.5887L288.953 50.5987ZM312.663 54.7987C312.033 55.5187 311.493 56.1387 311.223 56.6487C310.683 57.6587 309.743 58.8787 308.643 59.9787C307.983 60.6387 306.073 59.8187 304.673 59.2087C303.953 58.8987 303.283 58.6087 302.673 58.4487C299.963 57.7487 297.193 56.9787 295.243 55.9987C294.453 55.5987 293.613 55.2487 292.803 54.8987C291.863 54.4987 290.993 54.1187 290.183 53.6887C290.663 53.3187 291.063 52.9187 291.283 52.5387L291.533 52.0987C291.813 51.6187 292.103 51.1287 292.353 50.5587C292.763 49.6287 293.173 48.2887 293.373 47.2187C293.583 46.0587 293.513 43.6787 292.433 42.1987C292.413 42.1687 292.393 42.1487 292.363 42.1187H293.273C294.763 42.1187 296.023 42.3187 296.633 42.6587C297.133 42.9387 297.603 43.3287 298.093 43.7587C298.713 44.2887 299.363 44.8287 300.153 45.2287C300.673 45.4887 301.143 45.8887 301.653 46.3187C302.513 47.0487 303.483 47.8687 304.903 48.1887C306.713 48.5887 308.403 49.5987 310.203 50.6687C311.493 51.4387 312.823 52.2287 314.223 52.7987C313.853 53.3787 313.103 54.2487 312.643 54.7687L312.663 54.7987Z" fill="#34AF42"/>
<path d="M232.583 74.3089C232.023 74.0389 231.493 73.7889 231.343 73.4989C231.133 73.0789 230.713 72.8189 230.263 72.8089C230.033 72.5189 229.683 72.3389 229.293 72.3389C226.633 72.3389 225.243 77.0889 225.243 78.7289C225.243 79.5489 225.583 81.0189 227.893 81.5789C228.993 81.8489 230.243 81.8489 231.163 81.8489C232.713 81.8489 234.613 81.6689 235.513 80.2889C236.103 79.3789 236.093 78.2189 235.473 76.8289C234.833 75.3789 233.533 74.7689 232.583 74.3189V74.3089ZM233.413 78.9189C233.413 78.9189 233.083 79.3489 231.163 79.3489C230.373 79.3489 229.293 79.3489 228.483 79.1489C228.203 79.0789 227.743 78.9389 227.743 78.7289C227.743 77.6289 228.663 75.3589 229.273 74.8989C229.823 75.7689 230.723 76.1889 231.523 76.5689C232.403 76.9889 232.943 77.2789 233.193 77.8389C233.503 78.5389 233.463 78.8589 233.423 78.9289L233.413 78.9189Z" fill="#34AF42"/>
<path d="M257.753 23.9892C258.783 23.9892 259.803 22.9192 259.803 21.8292C259.803 21.3192 259.583 20.8592 259.193 20.5492C258.863 20.2892 258.443 20.1592 257.953 20.1592C257.463 20.1592 257.073 20.4392 256.883 20.8392C256.433 21.0292 256.123 21.4692 256.123 21.9892C256.123 22.5092 256.213 22.8792 256.413 23.2092C256.703 23.6992 257.203 23.9892 257.763 23.9892H257.753Z" fill="#34AF42"/>
<path d="M271.573 93.5587C271.773 93.7187 272.093 93.8787 272.533 93.8787C272.693 93.8787 272.873 93.8587 273.073 93.7987C274.123 93.5187 274.573 92.8787 274.833 92.4987C274.923 92.3687 274.983 92.2787 275.043 92.2387C275.643 91.7587 275.753 90.9387 275.293 90.3387C274.683 89.5387 272.953 89.3087 272.093 89.9187C271.793 90.1287 271.563 90.4487 271.483 90.8387C271.183 91.0687 270.993 91.4287 270.993 91.8287V91.9587C270.983 92.3087 270.963 93.0487 271.583 93.5387L271.573 93.5587Z" fill="#34AF42"/>
<path d="M240.854 77.6885C240.464 77.9485 240.264 78.3985 240.294 78.8385C240.174 79.0285 240.104 79.2585 240.104 79.4985C240.104 80.4585 240.734 81.1885 241.684 81.3185C241.774 81.3285 241.874 81.3385 241.974 81.3385C242.914 81.3385 243.994 80.7485 244.284 79.7285C244.524 78.8985 244.284 78.1185 243.634 77.6485C242.784 77.0285 241.564 77.2085 240.854 77.6785V77.6885Z" fill="#34AF42"/>
<path d="M241.153 68.6488C241.153 67.5388 239.933 66.7588 238.843 66.7588C238.303 66.7588 237.803 66.9488 237.433 67.3088C237.153 67.5788 236.823 68.0688 236.823 68.8888C236.823 69.5388 237.323 70.0588 237.953 70.1188C238.153 70.2488 238.393 70.3288 238.653 70.3288C239.253 70.3288 239.723 70.2588 240.083 70.1088C240.753 69.8388 241.153 69.2988 241.153 68.6488Z" fill="#34AF42"/>
<path d="M227.673 65.339C227.893 64.319 227.243 63.279 226.113 62.879C225.083 62.509 224.063 62.849 223.643 63.689C223.423 64.129 223.483 64.639 223.773 65.009C223.733 65.129 223.713 65.269 223.713 65.409C223.713 66.559 224.463 67.159 225.213 67.239C225.273 67.239 225.333 67.239 225.393 67.239C226.393 67.239 227.453 66.369 227.683 65.319L227.673 65.339Z" fill="#34AF42"/>
<path d="M220.323 73.6185C218.653 73.5485 218.173 74.3585 218.053 74.8485C217.943 75.2585 217.943 75.9885 218.853 76.6385C218.973 77.4185 219.753 77.8185 220.473 77.8185C220.503 77.8185 220.523 77.8185 220.553 77.8185C221.473 77.7785 222.143 77.0585 222.143 76.1085V75.9985C222.163 73.9885 221.013 73.6485 220.323 73.6185Z" fill="#34AF42"/>
<path d="M227.533 82.6791C227.473 82.6791 227.413 82.6791 227.363 82.6791C226.993 82.6791 226.123 82.6791 225.803 83.5391C225.713 83.7891 225.573 84.4191 226.233 85.0091C226.343 85.1691 226.483 85.2991 226.643 85.3891C227.103 85.9891 228.033 86.1391 228.333 86.1391C228.973 86.1391 229.533 85.7791 229.773 85.1891C230.043 84.5391 229.873 83.6991 229.353 83.1891C228.753 82.5891 227.963 82.6391 227.543 82.6691L227.533 82.6791Z" fill="#34AF42"/>
</g>
<defs>
<clipPath id="clip0_472_2729">
<rect width="315.99" height="202.88" fill="white" transform="translate(0.953125 0.40918)"/>
</clipPath>
</defs>
</svg>
